<?xml version="1.0" encoding="utf-8"?>
<!-- Generator: Adobe Illustrator 26.0.0, SVG Export Plug-In . SVG Version: 6.00 Build 0)  -->
<svg version="1.1" id="katman_1" xmlns="http://www.w3.org/2000/svg" xmlns:xlink="http://www.w3.org/1999/xlink" x="0px" y="0px"
	 viewBox="0 0 551.6 551.2" style="enable-background:new 0 0 551.6 551.2;" xml:space="preserve">
<g>
	<path d="M494.6,498.7c-7.2,0-13.1,5.9-13.1,13.1c0,7.2,5.9,13.1,13.1,13.1s13.1-5.9,13.1-13.1C507.7,504.6,501.8,498.7,494.6,498.7
		z M494.6,516.2c-2.4,0-4.4-2-4.4-4.4c0-2.4,2-4.4,4.4-4.4s4.4,2,4.4,4.4C499,514.2,497,516.2,494.6,516.2z"/>
	<path d="M57,498.7c-7.2,0-13.1,5.9-13.1,13.1c0,7.2,5.9,13.1,13.1,13.1s13.1-5.9,13.1-13.1C70.1,504.6,64.3,498.7,57,498.7z
		 M57,516.2c-2.4,0-4.4-2-4.4-4.4c0-2.4,2-4.4,4.4-4.4s4.4,2,4.4,4.4C61.4,514.2,59.5,516.2,57,516.2z"/>
	<path d="M135.8,415.6c0,4.8,3.9,8.8,8.8,8.8h8.8c4.8,0,8.8-3.9,8.8-8.8v-70c0-4.8-3.9-8.8-8.8-8.8h-8.8c-4.8,0-8.8,3.9-8.8,8.8
		V415.6z M144.6,345.6h8.8v70h-8.8V345.6z"/>
	<path d="M407,336.8h-8.8c-4.8,0-8.8,3.9-8.8,8.8v70c0,4.8,3.9,8.8,8.8,8.8h8.8c4.8,0,8.8-3.9,8.8-8.8v-70
		C415.8,340.8,411.9,336.8,407,336.8z M407,415.6h-8.8v-70h8.8V415.6z"/>
	<path d="M188.3,179.4c-7.2,0-13.1,5.9-13.1,13.1s5.9,13.1,13.1,13.1s13.1-5.9,13.1-13.1S195.6,179.4,188.3,179.4z M188.3,196.8
		c-2.4,0-4.3-2-4.3-4.4s1.9-4.4,4.3-4.4s4.3,2,4.3,4.4S190.7,196.8,188.3,196.8z"/>
	<path d="M363.3,179.4c-7.2,0-13.1,5.9-13.1,13.1s5.9,13.1,13.1,13.1s13.1-5.9,13.1-13.1S370.5,179.4,363.3,179.4z M363.3,196.8
		c-2.4,0-4.3-2-4.3-4.4s1.9-4.4,4.3-4.4s4.3,2,4.3,4.4S365.7,196.8,363.3,196.8z"/>
	<path d="M280.2,170.6c0,5.8-8.8,5.8-8.8,0S280.2,164.8,280.2,170.6"/>
	<path d="M280.2,266.8c0,5.8-8.8,5.8-8.8,0S280.2,261,280.2,266.8"/>
	<path d="M280.2,363.1c0,5.8-8.8,5.8-8.8,0S280.2,357.3,280.2,363.1"/>
	<path d="M280.2,459.4c0,5.8-8.8,5.8-8.8,0S280.2,453.5,280.2,459.4"/>
	<path d="M551.4,520.1c-39-372.7-77.6-453.2-79.2-456.5c0-0.1-0.1-0.1-0.2-0.2c-0.2-0.3-0.4-0.6-0.7-0.9c-0.1-0.1-0.2-0.2-0.3-0.3
		l-0.1-0.1c-29.5-21.6-71.3-33.3-102-39.4c-6.6-16-22.2-21.9-31.5-22.7c-0.1,0-0.1,0-0.2,0s-0.1,0-0.2,0H214.6c-0.1,0-0.1,0-0.2,0
		s-0.1,0-0.2,0c-9.3,0.8-24.9,6.7-31.5,22.7c-30.7,6.1-72.5,17.8-102,39.4c-0.1,0-0.1,0.1-0.1,0.1c-0.1,0.1-0.2,0.2-0.3,0.3
		c-0.3,0.3-0.5,0.6-0.7,0.9c0,0.1-0.1,0.1-0.2,0.2c-1.6,3.2-40.2,83.7-79.2,456.6c-0.5,7.1-1.3,17.9,11.8,22
		c0.2,0.1,0.3,0.1,0.5,0.1l48.1,8.8c0.3,0.1,0.5,0.1,0.8,0.1c8.7,0,18-2,21.8-16.6l35.1-158v87c0,13.8,9.1,18.9,15.9,21.6
		c0.5,0.2,1,0.3,1.6,0.3h280c0.5,0,1.1-0.1,1.6-0.3c6.8-2.6,15.9-7.8,15.9-21.6v-87l35.1,158.1c3.7,14.5,13.1,16.4,21.7,16.4
		c0.3,0,0.5,0,0.8-0.1l48.1-8.8c0.2,0,0.4-0.1,0.5-0.1C552.7,538.2,551.9,527.4,551.4,520.1L551.4,520.1z M488.8,473.9l-54.3-268.1
		c0.6-9.7,1.5-18.6,3-25.1L468.8,79c10.6,30.6,38.7,130.1,67.8,385.9L488.8,473.9z M354.4,433.1l-5.3-151.5c5.9,1.8,11,2.8,14.2,2.8
		c2.9,0,7.4-0.8,12.5-2.3l-7.9,151.1L354.4,433.1z M407.1,192.5c0,6.4-28.7,21.9-43.8,21.9s-43.8-15.5-43.8-21.9V175
		c0-2.4,1.9-4.4,4.3-4.4h78.8c2.4,0,4.3,2,4.3,4.4L407.1,192.5z M319.6,205.9c12.6,9.9,35.2,17.2,43.8,17.2s31.2-7.2,43.8-17.2v47.8
		c0,4.4-13.6,13.1-27,18.1c-0.8,0.1-1.4,0.3-2,0.7c-5.4,1.9-10.6,3.1-14.8,3.1c-4.4,0-10.1-1.4-15.8-3.5c-0.7-0.7-1.7-1.1-2.8-1.1
		c-12.7-5.1-25.1-13.2-25.1-17.3L319.6,205.9z M384.8,279.1c14.9-5.6,31-15.2,31-25.4v-78.8c0-7.2-5.9-13.1-13.1-13.1h-78.8
		c-7.2,0-13.1,5.9-13.1,13.1v78.8c0,9.8,15,19,29.4,24.7l5.4,154.6h-48V105.6l18.4,23.9c0.8,1.1,2.1,1.7,3.4,1.7l0,0
		c1.3,0,2.6-0.6,3.4-1.7C324,128,341.3,106,355,82.6c51.4,10,80.8,25.2,93.1,32.9l-19.3,62.8c-4.5,20.7-4.5,59.4-4.5,82.6V433h-47.9
		L384.8,279.1z M262.7,433.1V94.2l13.1-17l13.1,17.1v338.9L262.7,433.1L262.7,433.1z M288.9,441.9v35h-26.2v-35H288.9z M183.7,433.1
		l-7.9-151c5.2,1.5,9.7,2.3,12.5,2.3c3.2,0,8.4-1,14.2-2.8l-5.3,151.6L183.7,433.1z M232.1,192.5c0,6.4-28.7,21.9-43.8,21.9
		s-43.8-15.5-43.8-21.9V175c0-2.4,1.9-4.4,4.3-4.4h78.8c2.4,0,4.3,2,4.3,4.4L232.1,192.5z M144.6,205.9
		c12.6,9.9,35.2,17.2,43.8,17.2s31.2-7.2,43.8-17.2v47.8c0,4.2-12.3,12.2-25.1,17.3c-1,0-1.9,0.4-2.7,1c-5.8,2.1-11.5,3.5-16,3.5
		c-4.2,0-9.5-1.2-15-3.1c-0.5-0.3-1.1-0.5-1.8-0.6c-13.4-5-27-13.7-27-18.1L144.6,205.9z M211.4,278.5c14.4-5.7,29.4-14.9,29.4-24.8
		v-78.8c0-7.2-5.9-13.1-13.1-13.1h-78.8c-7.2,0-13.1,5.9-13.1,13.1v78.8c0,10.2,16.1,19.7,31,25.4l8.1,154H127V261
		c0-23.2,0-61.9-4.6-82.9l-19.1-62.5c12.3-7.7,41.5-22.8,92.5-32.8c13.1,22.7,29.8,43.9,33.2,47.2c0.8,0.8,1.9,1.3,3.1,1.3
		c0.1,0,0.2,0,0.3,0c1.2-0.1,2.4-0.7,3.2-1.7l18.4-23.9v327.5h-48L211.4,278.5z M15.1,464.8C44.2,209,72.3,109.5,82.9,78.9
		l31.2,101.3c1.5,6.7,2.4,15.8,3,25.6L62.8,473.9L15.1,464.8z M326.8,26.2h-102c-3-6.9-4.7-13.2-5.4-17.5h112.8
		C331.5,13,329.9,19.3,326.8,26.2L326.8,26.2z M322.3,35c-8.3,14-22.7,27.8-46.5,30.6C252,62.8,237.6,49,229.3,35H322.3z
		 M463.2,67.3L451,106.9c-15-9.1-43.8-22.8-91.3-32.3c7.1-13.1,12.3-26,12.3-35.3c0-2.6-0.2-5-0.6-7.2
		C399.9,38,436.5,48.7,463.2,67.3z M363.3,39.4c0,19-28.9,60.9-43.7,80.3l-35.8-46.6c39.1-8.3,54.6-45.3,57.3-63.6
		C348.6,11.6,363.3,18.2,363.3,39.4L363.3,39.4z M210.6,9.5c2.6,18.3,18.2,55.3,57.3,63.6l-36,46.8c-6.4-8-19.9-26.2-30.1-44.4
		c0-0.1-0.1-0.1-0.1-0.2c-7.5-13.4-13.3-26.7-13.3-36C188.3,18.2,203.1,11.6,210.6,9.5L210.6,9.5z M180.1,32.1
		c-0.3,2.3-0.6,4.7-0.6,7.2c0,9.6,5,22.4,11.8,35.4c-47.2,9.5-75.8,23.2-90.7,32.2L88.4,67.3C115.1,48.7,151.7,38,180.1,32.1
		L180.1,32.1z M74.7,532.6c-1.9,7.5-4.8,9.8-12.9,9.8l-47.5-8.6c-5.1-1.7-6.1-4-5.5-12.8c1.7-16.4,3.4-32.2,5.1-47.5L84.7,487
		L74.7,532.6z M86.7,478.5l-15.3-2.9l46.8-231.4c0,6.3,0,12,0,16.9v75.4L86.7,478.5z M127.1,463.7v-21.9H254v35H136.7
		C129.7,474,127.1,470.4,127.1,463.7L127.1,463.7z M415,476.9H297.7v-35h126.9v21.9C424.6,470.4,421.9,474,415,476.9L415,476.9z
		 M433.3,261c0-4.8,0-10.6,0-16.9l46.9,231.5l-15.3,2.9l-31.6-142.1L433.3,261z M537.2,533.9l-47.5,8.6c-8-0.1-10.9-2.3-12.8-9.7
		L466.8,487l70.8-13.5c1.7,15.3,3.4,31,5.1,47.4C543.3,529.8,542.4,532.2,537.2,533.9L537.2,533.9z"/>
</g>
</svg>
