<?xml version="1.0" encoding="utf-8"?>
<!-- Generator: Adobe Illustrator 26.0.0, SVG Export Plug-In . SVG Version: 6.00 Build 0)  -->
<svg version="1.1" id="katman_1" xmlns="http://www.w3.org/2000/svg" xmlns:xlink="http://www.w3.org/1999/xlink" x="0px" y="0px"
	 viewBox="0 0 560.2 480.4" style="enable-background:new 0 0 560.2 480.4;" xml:space="preserve">
<g>
	<path d="M468.8,480.4h-97.4c-21.7,0-42.6-8.6-57.9-24c-15.4-15.4-24-36.2-24-57.9V178.3c-0.1-0.4-0.1-0.8,0-1.2L344.4,3l0,0
		c0.3-1.1,1.1-2,2-2.5c1-0.5,2.1-0.6,3.2-0.3c5.2,1.5,127.9,37,151.3,78.8l0,0c0.3,0.4,0.4,0.9,0.5,1.4l58.7,347.3
		c0.3,1.6-0.3,3.1-1.6,4.1L506,471.6c-1.2,0.9-2.7,1.1-4.1,0.6c-1.4-0.5-2.4-1.7-2.7-3.2l-60.3-268.3
		c-19.6,57.8,0.9,200.1,33.8,273.5c0.7,1.3,0.7,2.8,0,4.1C471.8,479.8,470.3,480.5,468.8,480.4L468.8,480.4z M298,251v147.5
		c0,19.4,7.8,38.1,21.5,51.8s32.4,21.5,51.8,21.5h90.8c-35-83.9-54.2-237.4-25.6-286.8c0.9-1.6,2.6-2.4,4.4-2.2
		c1.8,0.3,3.2,1.6,3.6,3.4l61.9,274.5l44.9-34.1L493.2,82.7c-15.8-27.1-80-52.5-117.7-65.3l24.1,48.8c1,1.9,0.4,4.3-1.4,5.5l-36,25
		l2.8,45.7l0,0c0,0.9-0.2,1.8-0.7,2.5L298,251z M298,179v55.6l58.3-93.1l-2.8-46.7l0,0c0.1-1.4,0.7-2.6,1.8-3.4l35-24.2L364.1,14
		l-12.5-3.9L298,179z"/>
	<path d="M188.7,480.4H91.3c-1.5,0.1-2.9-0.7-3.7-1.9s-0.9-2.8-0.3-4.1c32.8-73.4,53.3-215.5,33.7-273.5L60.6,472.1
		c-0.3,1.5-1.3,2.7-2.7,3.1c-1.4,0.5-2.9,0.3-4.1-0.6L1.7,434.9c-1.3-1-1.9-2.5-1.7-4.1L58.3,80.2c0.1-0.5,0.3-1,0.5-1.4
		C82.2,37.2,204.9,1.7,210.1,0.2c2.2-0.7,4.6,0.6,5.3,2.8l54.9,174.1l0,0c0,0.4,0,0.8,0,1.2v220.1c0,21.7-8.6,42.5-24,57.8
		C231.1,471.7,210.3,480.3,188.7,480.4L188.7,480.4z M97.8,471.6h90.8c19.4,0,38.1-7.8,51.8-21.5c13.7-13.7,21.5-32.4,21.5-51.8V251
		l-66.4-106c-0.5-0.8-0.7-1.6-0.6-2.5l2.7-45.7l-36-25c-1.8-1.2-2.4-3.6-1.4-5.5l24.1-48.8C146.7,30.2,82.5,55.6,66.7,82.7
		L8.9,429.6l44.6,34.1l61.7-277.5c0.4-1.7,1.8-3.1,3.5-3.3c1.8-0.2,3.5,0.6,4.4,2.1c29,49.4,9.9,202.9-25.3,286.8V471.6z
		 M203.6,141.6l58.4,93.1V179L208.4,9.6l-12.5,3.9l-26.2,53.2l35,24.2c1.2,0.9,1.9,2.3,1.8,3.9L203.6,141.6z"/>
	<path d="M278.8,52.2h-3.2c-30.2-0.7-52.9-8.8-60.7-22.7l0,0c-1.2-2.1-0.5-4.7,1.6-5.9c2.1-1.2,4.7-0.5,5.9,1.6
		c6,10.6,27,17.5,53.4,18.3c29.3,0.7,54.7-7,62-18.5l0,0c0.6-1,1.6-1.6,2.7-1.9c1.1-0.2,2.3,0,3.2,0.6c2,1.3,2.6,3.9,1.3,6
		C334.4,46.4,303.5,52.2,278.8,52.2L278.8,52.2z"/>
	<path d="M324.3,464.6h-88.6c-2.4,0-4.4-2-4.4-4.4s2-4.4,4.4-4.4h88.6c2.4,0,4.4,2,4.4,4.4S326.7,464.6,324.3,464.6z"/>
</g>
</svg>
