<?xml version="1.0" encoding="utf-8"?>
<!-- Generator: Adobe Illustrator 26.0.0, SVG Export Plug-In . SVG Version: 6.00 Build 0)  -->
<svg version="1.1" id="katman_1" xmlns="http://www.w3.org/2000/svg" xmlns:xlink="http://www.w3.org/1999/xlink" x="0px" y="0px"
	 viewBox="0 0 535.8 534.8" style="enable-background:new 0 0 535.8 534.8;" xml:space="preserve">
<g>
	<path d="M75.4,532.6c-0.3,0-0.6,0-0.8-0.1l-70-10.9c-2.9-0.4-5-3.1-4.6-6.1L46.2,150c2.1-19.6,12.6-38.5,30.5-54.8
		c8-7.3,16.9-13.6,26.4-18.7l72.4-39.8c1.3-0.7,2.8-0.9,4.2-0.5c1.4,0.4,2.6,1.3,3.3,2.6s0.9,2.8,0.4,4.2c-0.4,1.4-1.4,2.6-2.7,3.3
		l-72.5,39.8l-0.2,0.1c-0.5,0.2-46.7,23.9-51.1,65v0.1L11.5,511.6l59.2,9.3l37.2-272.7l0,0c0.2-1.4,1-2.7,2.1-3.6
		c1.2-0.9,2.6-1.3,4.1-1.1c3,0.4,5.1,3.2,4.7,6.2L80.9,527.9C80.5,530.6,78.2,532.6,75.4,532.6L75.4,532.6z"/>
	<path d="M461.5,534.8c-2.7,0-5-2-5.4-4.7l-39.9-281.4c-0.2-1.4,0.2-2.9,1-4.1c0.9-1.2,2.2-1.9,3.6-2.1c1.4-0.2,2.9,0.2,4.1,1.1
		c1.2,0.9,1.9,2.2,2.1,3.6L466.1,523l58.2-10.2L479,151.3c-4.4-41.2-50.6-64.9-51.1-65.1l-0.2-0.1l-72.8-40.9
		c-2.6-1.5-3.6-4.8-2.1-7.4s4.8-3.6,7.4-2.1l72.7,40.8c9.5,5.1,18.4,11.4,26.4,18.7c17.9,16.3,28.4,35.3,30.5,54.9l45.9,366.5
		c0.4,2.9-1.6,5.6-4.5,6.1l-68.9,12C462.1,534.8,461.8,534.8,461.5,534.8L461.5,534.8z"/>
	<path d="M421.4,497.6h-308c-3,0-5.5-2.4-5.5-5.5V189.3c0-2.1-1.4-53.6-47.8-61.2l0,0c-3-0.5-5-3.3-4.5-6.3s3.3-5,6.3-4.5
		c23,3.8,40.2,17.5,49.7,39.7c4.3,10.2,6.8,21.1,7.3,32.2v297.4H416V189.3c0-33.4,15.9-51.2,29.2-60.3c8.8-6,18.7-10,29.2-11.7
		c3-0.4,5.7,1.8,6.1,4.8c0.4,3-1.8,5.7-4.8,6.1c-2.1,0.3-48.8,6.9-48.8,61.1v302.8c0,1.4-0.6,2.8-1.6,3.9
		C424.3,497,422.9,497.6,421.4,497.6L421.4,497.6z"/>
	<path d="M243.1,497.6c-3,0-5.5-2.4-5.5-5.5V112.6c0-3,2.4-5.5,5.5-5.5c3,0,5.5,2.4,5.5,5.5v379.5c0,1.4-0.6,2.8-1.6,3.9
		C245.9,497,244.5,497.6,243.1,497.6L243.1,497.6z"/>
	<path d="M219,141.4h-0.3c-1.5-0.1-3-0.8-4-2c-1.6-1.9-38.9-47.9-42-101l0,0c-0.1-1.9,0.8-3.8,2.4-4.9L217.9,5l0,0
		c0.2-0.1,0.4-0.3,0.6-0.4c6.2-4.8,15.1-4.7,16.8-4.6h65c1.7-0.1,10.6-0.2,16.8,4.6c0.2,0.1,0.4,0.2,0.6,0.4l42.8,28.5l0,0
		c1.6,1.1,2.5,2.9,2.4,4.9c-3.1,53.1-40.4,99.1-42,101c-1,1.2-2.4,1.9-4,2c-1.5,0.1-3-0.5-4.1-1.6l-45.1-45.1l-44.8,45.2l0,0
		C221.9,140.9,220.5,141.4,219,141.4L219,141.4z M277,88.4l39.3,39.3c9.1-12.5,32.3-47.9,35.6-86.8l-29.3-19.6
		c-0.1,0.6-0.3,1.3-0.5,1.9C321.4,26.2,309.9,68.4,277,88.4L277,88.4z M184,40.9c3.4,38.9,26.5,74.2,35.7,86.8l39.2-39.3
		c-32.9-20-44.4-62.1-45.1-65.1c-0.2-0.7-0.4-1.3-0.5-1.9L184,40.9z M234.5,11c-2.8,0-8.1,0.7-10,3.2c-1,1.3-1.1,3.3-0.2,6.1v0.2
		c0.1,0.4,11.5,43.6,43.6,60.5c32.2-17,43.5-60,43.6-60.5c0-0.1,0-0.1,0.1-0.2c0.8-2.8,0.7-4.9-0.3-6.2c-2.1-2.6-8.1-3.3-10.5-3.1
		L234.5,11L234.5,11z"/>
	<path d="M309.1,46.9h-82.7c-3,0-5.5-2.4-5.5-5.5c0-3,2.4-5.5,5.5-5.5h82.7c3,0,5.5,2.4,5.5,5.5C314.6,44.4,312.1,46.9,309.1,46.9z"
		/>
	<path d="M421,458.2H113.7c-3,0-5.5-2.4-5.5-5.5s2.4-5.5,5.5-5.5H421c3,0,5.5,2.4,5.5,5.5S424,458.2,421,458.2z"/>
	<path d="M268.2,154.1c-3,0-5.5-2.4-5.5-5.5v-1.3c0-3,2.4-5.5,5.5-5.5s5.5,2.4,5.5,5.5v1.3c0,1.5-0.6,2.8-1.6,3.9
		C271,153.5,269.6,154.1,268.2,154.1L268.2,154.1z"/>
	<path d="M268.2,235.1c-3,0-5.5-2.4-5.5-5.5v-1.3c0-3,2.4-5.5,5.5-5.5s5.5,2.4,5.5,5.5v1.3c0,1.4-0.6,2.8-1.6,3.9
		C271,234.5,269.6,235.1,268.2,235.1L268.2,235.1z"/>
	<path d="M268.2,316c-3,0-5.5-2.4-5.5-5.5v-1.3c0-3,2.4-5.5,5.5-5.5s5.5,2.4,5.5,5.5v1.3c0,1.4-0.6,2.8-1.6,3.9
		C271,315.5,269.6,316,268.2,316L268.2,316z"/>
	<path d="M268.2,397c-3,0-5.5-2.4-5.5-5.5v-1.3c0-3,2.4-5.5,5.5-5.5s5.5,2.4,5.5,5.5v1.3c0,1.4-0.6,2.8-1.6,3.9
		C271,396.4,269.6,397,268.2,397L268.2,397z"/>
	<path d="M268.2,477.9c-3,0-5.5-2.4-5.5-5.5v-1.3c0-3,2.4-5.5,5.5-5.5s5.5,2.4,5.5,5.5v1.3c0,1.4-0.6,2.8-1.6,3.9
		C271,477.3,269.6,477.9,268.2,477.9L268.2,477.9z"/>
	<path d="M80.9,486.7c-0.3,0-0.6,0-0.9-0.1l-68.9-10.9c-3-0.5-5-3.3-4.6-6.3c0.5-3,3.3-5,6.3-4.6l68.9,10.9c2.8,0.4,4.8,3,4.6,5.8
		C86.1,484.5,83.7,486.7,80.9,486.7L80.9,486.7z"/>
	<path d="M454.9,486.7c-2.9,0-5.2-2.2-5.4-5s1.8-5.4,4.6-5.8L523,465c3-0.5,5.8,1.6,6.3,4.6s-1.6,5.8-4.6,6.3l-68.9,10.9
		C455.5,486.6,455.2,486.7,454.9,486.7L454.9,486.7z"/>
	<path d="M390.4,309.5h-72.2c-3,0-5.5-2.4-5.5-5.5v-86.4c0-3,2.4-5.5,5.5-5.5h72.2c1.4,0,2.8,0.6,3.9,1.6c1,1,1.6,2.4,1.6,3.9V304
		c0,1.4-0.6,2.8-1.6,3.9C393.2,308.9,391.8,309.5,390.4,309.5L390.4,309.5z M323.7,298.5h61.2V223h-61.2V298.5z"/>
	<path d="M355.4,261.3c-0.6,0-1.2-0.1-1.8-0.3l-37.2-12.6c-2.9-1-4.4-4.1-3.4-6.9c1-2.9,4.1-4.4,6.9-3.4l35.4,12l33.2-11.9
		c2.8-1,6,0.5,7,3.3s-0.5,6-3.3,7l-35,12.6C356.6,261.3,356,261.4,355.4,261.3L355.4,261.3z"/>
	<path d="M355.4,242.8c-3,0-5.5-2.4-5.5-5.5v-1.1c0-3,2.4-5.5,5.5-5.5s5.5,2.4,5.5,5.5v1.1c0,1.4-0.6,2.8-1.6,3.9
		C358.2,242.2,356.8,242.8,355.4,242.8L355.4,242.8z"/>
	<path d="M217.6,309.5h-72.2c-3,0-5.5-2.4-5.5-5.5v-86.4c0-3,2.4-5.5,5.5-5.5h72.2c1.4,0,2.8,0.6,3.9,1.6c1,1,1.6,2.4,1.6,3.9V304
		c0,1.4-0.6,2.8-1.6,3.9C220.4,308.9,219,309.5,217.6,309.5L217.6,309.5z M150.9,298.5h61.2V223h-61.2V298.5z"/>
	<path d="M182.6,261.3c-0.6,0-1.2-0.1-1.8-0.3l-37.2-12.6c-2.9-1-4.4-4.1-3.4-6.9c1-2.9,4.1-4.4,6.9-3.4l35.4,12l33.2-11.9
		c2.8-1,6,0.5,7,3.3s-0.5,6-3.3,7l-35,12.6C183.8,261.3,183.2,261.4,182.6,261.3L182.6,261.3z"/>
	<path d="M182.6,242.8c-3,0-5.5-2.4-5.5-5.5v-1.1c0-3,2.4-5.5,5.5-5.5s5.5,2.4,5.5,5.5v1.1c0,1.4-0.6,2.8-1.6,3.9
		C185.4,242.2,184,242.8,182.6,242.8L182.6,242.8z"/>
	<path d="M421,194.6H113.7c-3,0-5.5-2.4-5.5-5.5s2.4-5.5,5.5-5.5H421c3,0,5.5,2.4,5.5,5.5S424,194.6,421,194.6z"/>
	<path d="M292,497.6c-3,0-5.5-2.4-5.5-5.5V112.6c0-3,2.4-5.5,5.5-5.5s5.5,2.4,5.5,5.5v379.5c0,1.4-0.6,2.8-1.6,3.9
		C294.8,497,293.4,497.6,292,497.6L292,497.6z"/>
	<path d="M181.5,497.6c-3,0-5.5-2.4-5.5-5.5V307.3c0-3,2.4-5.5,5.5-5.5s5.5,2.4,5.5,5.5v184.8c0,1.4-0.6,2.8-1.6,3.9
		C184.3,497,182.9,497.6,181.5,497.6L181.5,497.6z"/>
	<path d="M355.4,497.6c-3,0-5.5-2.4-5.5-5.5V307.3c0-3,2.4-5.5,5.5-5.5s5.5,2.4,5.5,5.5v184.8c0,1.4-0.6,2.8-1.6,3.9
		C358.2,497,356.8,497.6,355.4,497.6L355.4,497.6z"/>
	<path d="M16.9,449.5c-0.3,0-0.6,0-0.9-0.1l-0.5-0.1l0,0c-3-0.5-5-3.3-4.6-6.3c0.5-3,3.3-5,6.3-4.6l0.5,0.1c2.8,0.4,4.8,3,4.6,5.8
		C22.1,447.4,19.7,449.6,16.9,449.5L16.9,449.5z"/>
	<path d="M62.8,456.9c-0.3,0-0.6,0-0.9-0.1l-1.1-0.2c-1.4-0.2-2.7-1-3.6-2.2c-0.9-1.2-1.2-2.6-1-4.1c0.5-3,3.3-5,6.3-4.5l1.1,0.2
		c2.8,0.4,4.8,3,4.6,5.8C68.1,454.7,65.7,456.9,62.8,456.9L62.8,456.9z M39.9,453.2c-0.3,0-0.6,0-0.9-0.1l-1.1-0.1
		c-1.5-0.2-2.8-1-3.7-2.1c-0.9-1.2-1.3-2.7-1-4.1c0.2-1.5,1.1-2.8,2.3-3.6c1.2-0.9,2.7-1.2,4.2-0.9l1.1,0.2c2.8,0.4,4.8,3,4.6,5.8
		C45.1,451,42.7,453.2,39.9,453.2L39.9,453.2z"/>
	<path d="M85.2,460.4c-0.3,0-0.6,0-0.9-0.1l-0.5-0.1c-2.8-0.6-4.7-3.3-4.2-6.2c0.5-2.9,3.1-4.9,6-4.6l0.5,0.1c2.8,0.5,4.7,3,4.5,5.8
		C90.4,458.2,88.1,460.4,85.2,460.4L85.2,460.4z"/>
	<path d="M519.2,449.5c-2.9,0-5.2-2.2-5.4-5s1.8-5.4,4.6-5.8l0.5-0.1c3-0.5,5.8,1.6,6.3,4.6s-1.6,5.8-4.6,6.3l-0.5,0.1l0,0
		C519.7,449.5,519.5,449.6,519.2,449.5L519.2,449.5z"/>
	<path d="M473.2,456.9c-2.9,0-5.2-2.2-5.5-5c-0.2-2.9,1.8-5.4,4.6-5.8l1.1-0.2c3-0.5,5.8,1.6,6.3,4.5c0.5,3-1.6,5.8-4.5,6.3
		l-1.1,0.2C473.8,456.8,473.5,456.9,473.2,456.9L473.2,456.9z M496.2,453.2c-2.9,0-5.2-2.2-5.5-5c-0.2-2.8,1.8-5.4,4.6-5.8l1.1-0.2
		c1.5-0.3,3,0,4.2,0.9c1.2,0.8,2,2.2,2.3,3.6c0.2,1.5-0.1,3-1,4.1c-0.9,1.2-2.2,2-3.7,2.1l-1.1,0.2
		C496.8,453.2,496.5,453.2,496.2,453.2L496.2,453.2z"/>
	<path d="M450.8,460.4c-2.9,0-5.2-2.2-5.5-5c-0.2-2.9,1.8-5.4,4.6-5.8l0.5-0.1l0,0c3-0.5,5.8,1.6,6.3,4.5c0.5,3-1.6,5.8-4.5,6.3
		l-0.5,0.1C451.4,460.4,451.1,460.4,450.8,460.4L450.8,460.4z"/>
</g>
</svg>
