<?xml version="1.0" encoding="utf-8"?>
<!-- Generator: Adobe Illustrator 26.0.0, SVG Export Plug-In . SVG Version: 6.00 Build 0)  -->
<svg version="1.1" id="katman_1" xmlns="http://www.w3.org/2000/svg" xmlns:xlink="http://www.w3.org/1999/xlink" x="0px" y="0px"
	 viewBox="0 0 490 560" style="enable-background:new 0 0 490 560;" xml:space="preserve">
<g>
	<path d="M280,402.5h-70c-4.8,0-8.8-3.9-8.8-8.8v-52.5c0-4.8,3.9-8.8,8.8-8.8h70c2.3,0,4.5,0.9,6.2,2.6s2.6,3.9,2.6,6.2v52.5
		c0,2.3-0.9,4.5-2.6,6.2S282.3,402.5,280,402.5z M218.8,385h52.5v-35h-52.5V385z"/>
	<path d="M350.2,386.7l17.2-3.4l17.5,87.5l-17.2,3.4L350.2,386.7z"/>
	<path d="M385,560H245c-1.2,0-2.4-0.2-3.4-0.7L180.3,533c-3.2-1.4-5.3-4.5-5.3-8v-96.2h17.5v90.5l54.3,23.3h129.5v-26.2h17.5v35
		c0,2.3-0.9,4.5-2.6,6.2S387.3,560,385,560L385,560z"/>
	<path d="M175,385h17.5v26.2H175V385z"/>
	<path d="M201.2,560H105c-4.8,0-8.8-3.9-8.8-8.8v-35h17.5v26.2h78.8v-8.8H210v17.5c0,2.3-0.9,4.5-2.6,6.2S203.6,560,201.2,560z"/>
	<path d="M105.2,470.8l17.5-87.5l17.2,3.4l-17.5,87.5L105.2,470.8z"/>
	<path d="M481.2,122.5h-17.5v-11.4l-90.5-32.9l6-16.4l96.3,35l0,0c3.5,1.3,5.8,4.5,5.8,8.2L481.2,122.5z"/>
	<path d="M463.8,140h17.5v17.5h-17.5V140z"/>
	<path d="M472.5,472.5H385c-2.4,0-4.6-1-6.3-2.7c-1.6-1.7-2.5-4-2.5-6.4l1.2-35l17.5,0.6l-0.9,26h69.7V175h17.5v288.8
		c0,2.3-0.9,4.5-2.6,6.2S474.8,472.5,472.5,472.5L472.5,472.5z"/>
	<path d="M395.5,411.5L378,411l4-119.2l-14.8,51.9c-1.1,3.8-4.5,6.3-8.4,6.3h-17.5v-17.5h10.9l15.7-54.9l17.4-78.2l0,0
		c1-4.4,5.2-7.4,9.6-6.8c4.5,0.6,7.8,4.5,7.6,9L395.5,411.5z"/>
	<path d="M323.8,350h-140c-4.8,0-8.8-3.9-8.8-8.8V198.4c0-5.7,1.9-11.3,5.4-15.9l13.5-21l123-158.1c2.6-3.3,7.1-4.3,10.8-2.5
		C330,2.1,385,30.1,385,70c0,3.6-2.2,6.8-5.5,8.1l-87.5,35l-6.5-16.3l81.4-32.6c-4-18.9-26.7-36-40.8-44.3L208.2,171.6l-13.5,20.9
		l0,0c-1.4,1.7-2.1,3.7-2.2,5.9v134.1h131.2L323.8,350z"/>
	<path d="M192.5,227.5H175c0-35.5,92.2-58.6,135.4-67.5l-46.8-85.8l15.4-8.4l52.5,96.2l0,0c1.3,2.5,1.4,5.4,0.2,7.9
		c-1.2,2.5-3.5,4.3-6.3,4.9C261.2,186.9,192.5,210.9,192.5,227.5L192.5,227.5z"/>
	<path d="M481.2,525h-105c-4.8,0-8.8-3.9-8.8-8.8V455c0-3.5,2.1-6.7,5.4-8.1s7-0.6,9.5,1.9l8.8,8.8l-6.2,6.2v43.8h87.5V455h8.8
		c2.3,0,4.5,0.9,6.2,2.6s2.6,3.9,2.6,6.2v52.5c0,2.3-0.9,4.5-2.6,6.2S483.6,525,481.2,525z"/>
	<path d="M446.2,481.2h17.5v17.5h-17.5V481.2z"/>
	<path d="M26.2,420H8.7V105c0-3.7,2.3-7,5.8-8.2l96.2-35l6,16.4l-90.5,32.9V420z"/>
	<path d="M105,472.5H17.5c-4.8,0-8.8-3.9-8.8-8.8v-26.2h17.5V455H96l-8.5-253.5c-0.2-4.5,3.2-8.4,7.6-9c4.5-0.6,8.7,2.4,9.6,6.8
		l17.5,78.7l15.6,54.4h168.4V350h-175c-3.9,0-7.3-2.6-8.4-6.3L108,291.8l5.7,171.6c0.1,2.4-0.8,4.7-2.5,6.4
		C109.6,471.5,107.4,472.5,105,472.5L105,472.5z"/>
	<path d="M228.8,127.1L163.2,20.5C149,29,127,45.8,123.1,64.3l81.4,32.6l-6.5,16.3l-87.5-35l0,0c-3.3-1.3-5.5-4.6-5.5-8.1
		c0-39.9,55-67.9,57.3-69.1c4.1-2,9-0.6,11.4,3.2l70,113.8L228.8,127.1z"/>
	<path d="M177.6,198.7l-26.2-26.2c-2.8-2.8-3.4-7.2-1.3-10.7l52.5-87.5l15,9l-49,81.6l21.4,21.4L177.6,198.7z"/>
	<path d="M113.8,525H8.8C4,525,0,521.1,0,516.2v-52.5c0-4.8,3.9-8.8,8.8-8.8h8.8v52.5H105v-43.8l-6.2-6.2l8.8-8.8
		c2.5-2.5,6.3-3.2,9.5-1.9c3.3,1.4,5.4,4.5,5.4,8.1V516c0,2.3-0.9,4.5-2.6,6.2S116.1,525,113.8,525z"/>
	<path d="M26.2,481.2h17.5v17.5H26.2V481.2z"/>
	<path d="M358.8,393.8H280v-17.5h70V350h-7v-17.5h15.8c2.3,0,4.5,0.9,6.2,2.6s2.6,3.9,2.6,6.2V385c0,2.3-0.9,4.5-2.6,6.2
		S361.1,393.8,358.8,393.8z"/>
	<path d="M210,393.8h-78.8c-4.8,0-8.8-3.9-8.8-8.8v-43.8c0-4.8,3.9-8.8,8.8-8.8H147V350h-7v26.2h70V393.8z"/>
	<path d="M166.2,0h157.5v17.5H166.2V0z"/>
	<path d="M402.5,201.2H385c0-49.3,31.1-78.8,61.2-78.8V140C424.7,140,402.5,162.9,402.5,201.2z"/>
	<path d="M105,201.2H87.5c0-38.3-22.2-61.2-43.8-61.2v-17.5C73.9,122.5,105,152,105,201.2z"/>
	<path d="M210,227.5h17.5V245H210V227.5z"/>
	<path d="M210,297.5h17.5V315H210V297.5z"/>
	<path d="M297.5,227.5H315V245h-17.5V227.5z"/>
	<path d="M297.5,297.5H315V315h-17.5V297.5z"/>
</g>
</svg>
