<?xml version="1.0" encoding="utf-8"?>
<!-- Generator: Adobe Illustrator 26.0.0, SVG Export Plug-In . SVG Version: 6.00 Build 0)  -->
<svg version="1.1" id="katman_1" xmlns="http://www.w3.org/2000/svg" xmlns:xlink="http://www.w3.org/1999/xlink" x="0px" y="0px"
	 viewBox="0 0 700 502" style="enable-background:new 0 0 700 502;" xml:space="preserve">
<path d="M253.6,0l-1.1,0.2c-104,16.5-153.8,70-183.6,141.5c-28,67-38.9,149.7-62.4,233.6L6.2,376L0,394.6l72.8,28.9l0.1-0.4l0.9,0.3
	l1-2.8c31.2-87.3,53.7-147.5,70.1-183.6c8.2-18,14.9-30,20.1-36.1c2.6-3,4.7-4.4,5.9-4.7s1.7-0.1,3.1,1.5c2.6,3.3,5.5,12.7,7.6,27
	c2.1,14.3,3.7,33.5,5,57.2c1,16.4,1.8,35.2,2.7,55.8l-0.1-0.1l0.3,4.4l0.3,4.3c1.5,37,3.1,79.9,5.4,128.4l0.1,2.7h0.1v21.2
	c0,1.6,1.3,3.1,3.1,3.1l304.4,0c1.8,0,3.1-1.6,3.1-3.1v-22.1c0-0.2,0-0.4-0.1-0.7l0.1-1.1c2.2-46.6,3.8-88.1,5.2-124.1l0.7-11.6
	l-0.2,0.1c0.9-21.2,1.8-40.4,2.7-57.3c1.4-23.7,2.9-42.9,5-57.2s5-23.7,7.6-27c1.3-1.6,1.9-1.8,3.1-1.5c1.2,0.3,3.3,1.6,5.9,4.7
	c5.1,6,11.9,18.1,20.1,36.1c16.4,36.1,38.9,96.3,70.1,183.6l0,0.1l0.5,1.6l0.1,0l0.4,1.1l73-28.9l-0.8-2.5
	c-26.9-89.6-37.4-178.9-67.3-250.4c-29.8-71.5-79.6-125-183.6-141.5L447.2,0l-0.9,0.6c-32.3,21.1-56,34.7-95.9,34.8h0
	c-39.9-0.1-63.6-13.7-95.9-34.8L253.6,0z M252.4,6c0.6,0.4,1.1,0.7,1.7,1.1L168.9,191c-3,0.9-5.6,3.1-8.3,6.4
	c-5.9,7-12.6,19.2-20.9,37.4c-15.2,33.5-35.6,87.7-63,163.9l-64.4-23.5c23.3-83.8,34.4-165.8,61.8-231.2
	C103.4,73.8,150.7,22.5,252.4,6L252.4,6z M448.4,6c101.7,16.4,149,67.7,178.3,137.8c27.2,65.1,38.4,146.5,61.4,229.7l-64.5,23.5
	c-27.1-75.4-47.4-129.2-62.5-162.4c-8.3-18.2-15-30.5-20.9-37.4c-2.2-2.6-4.3-4.5-6.6-5.7l0.3-0.1L448.1,6.2
	C448.2,6.2,448.3,6.1,448.4,6L448.4,6z M443.3,9.4l84.1,181.6c-1.9,0.5-3.6,1.8-4.9,3.4c-4.3,5.4-6.7,15.1-8.8,29.7
	c-2.1,14.6-3.7,33.9-5.1,57.7c-1,17.5-1.9,37.5-2.8,59.8l-75.9,28.1l-11.9,82.1l82.7,14.5c-0.1,1.9-0.2,3.8-0.3,5.7H357.5
	l-3.6-367.9h2.8c1.8,0,3.1-1.5,3.1-3.1V84.8c0-1.6-1.3-3.1-3.1-3.1h-3l0-4.3c5.3-0.2,10.1-0.6,14.5-1l-0.1,0.4
	c3.7,1.3,7,3.9,9.2,7.2c2.1,3.3,3.2,7.4,2.8,11.3c-0.4,5.1-3,10-6,15c-1.4,2.3-2.9,4.7-4.2,7.3c-3.4,0.4-6.1,3.3-6.1,6.8
	c0,1.9,0.8,3.6,2.1,4.9c-0.4,3.2-0.3,6.5,0.4,9.6l5.6-1.2c-0.5-2.1-0.6-4.3-0.4-6.5c3.4-0.4,6.1-3.3,6.1-6.8c0-1.9-0.8-3.7-2.1-4.9
	c1.1-2.1,2.4-4.1,3.6-6.2c3.1-5.1,6.2-10.8,6.8-17.5c0.4-5.2-0.9-10.5-3.7-14.9c-1.4-2.1-3.1-4-5.1-5.6c35-5.6,40.8-21.8,64.9-65
	C442.3,10,442.8,9.7,443.3,9.4L443.3,9.4z M259,10.2c0.3,0.2,0.7,0.4,1,0.6c24.4,43.6,30.1,59.8,65.5,65.4
	c-5.8,6-10.2,13.3-12.6,21.3c-3,10.1-2.9,21,0.4,31c2.3,7.1,6,13.4,9.4,19.5c3.4,6.1,6.4,12.3,7.6,18.7c0.1,0.7,0.3,1.5,0.4,2.3
	c-2.1,1.2-3.6,3.5-3.6,6c0,2.4,1.2,4.5,3.1,5.7c-0.4,2-1,3.9-1.8,5.8l5.3,2.2c0.9-2.3,1.7-4.6,2.2-7c2.9-0.8,5-3.5,5-6.6
	c0-2.9-1.8-5.4-4.4-6.4c-0.1-1-0.3-2-0.4-3c-1.4-7.4-4.8-14.1-8.2-20.3c-3.4-6.2-6.9-12.2-9-18.5c-2.9-8.8-3-18.6-0.3-27.6
	c2.5-8.5,7.6-16.2,14.4-22c4.4,0.5,9.1,0.8,14.4,1.1l0,3.4h-2c-1.8,0-3.1,1.5-3.1,3.1v16.1c0,1.6,1.4,3.1,3.1,3.1h1.8l-3.6,367.9
	H200.6c-0.1-2.4-0.2-4.7-0.3-7.1l82.7-14.5l-11.9-82.1l-76-28.2c-0.9-21.7-1.8-41.2-2.8-58.3c-1.4-23.8-2.9-43.1-5.1-57.7
	c-2.1-14.6-4.5-24.3-8.8-29.7c-0.9-1.2-2.1-2.1-3.4-2.8L259,10.2z M353.8,87.4h0.4v10.9h-0.3L353.8,87.4z M195.3,346.2l70.6,26.1
	l10.7,73.3l-74.6,13.1L195.3,346.2C195.3,346.3,195.3,346.2,195.3,346.2L195.3,346.2z M505.5,347.7c0,1.1-0.1,2.2-0.1,3.3
	l-6.4,109.2L424.3,447l10.7-73.3L505.5,347.7z M688.7,379.5l3.6,10.7l-62,24.6l-3.7-12.6L688.7,379.5z M10.8,380.6l62,22.6
	l-3.6,12.2L7.7,391.1C8.8,387.6,9.8,384.1,10.8,380.6L10.8,380.6z M201,479.3l299.2,0v17H201L201,479.3z"/>
</svg>
