<?xml version="1.0" encoding="utf-8"?>
<!-- Generator: Adobe Illustrator 26.0.0, SVG Export Plug-In . SVG Version: 6.00 Build 0)  -->
<svg version="1.1" id="katman_1" xmlns="http://www.w3.org/2000/svg" xmlns:xlink="http://www.w3.org/1999/xlink" x="0px" y="0px"
	 viewBox="0 0 405.3 451.6" style="enable-background:new 0 0 405.3 451.6;" xml:space="preserve">
<g id="Jacket">
	<circle cx="282.8" cy="66.5" r="5.8"/>
	<circle cx="252.1" cy="114.8" r="5.8"/>
	<circle cx="150" cy="114.8" r="5.8"/>
	<circle cx="123" cy="66.5" r="5.8"/>
	<path d="M70.8,190.1c1.8,0.4,3.7-0.8,4.1-2.6c0,0,0,0,0-0.1c3.9-18.4,5.1-42.8,3.5-72.5C77.3,92.9,75,76,75,75.8
		c-0.3-1.9-2-3.2-3.9-2.9c-1.9,0.3-3.2,2-2.9,3.9l0,0c0.1,0.7,9,66.6,0,109.2C67.8,187.9,69,189.7,70.8,190.1z"/>
	<path d="M22.2,163.7c0.3,0.1,0.7,0.1,1,0.1c1.5,0,2.9-1,3.3-2.5l0.3-1.1c0.6-1.8-0.5-3.8-2.3-4.3c-1.8-0.6-3.8,0.5-4.3,2.3l0,0
		l-0.3,1.1C19.4,161.2,20.4,163.1,22.2,163.7C22.2,163.7,22.2,163.7,22.2,163.7z"/>
	<path d="M403.1,235.4c-10.2-58.6-26.4-110.2-50.9-162.4c-2.3-5-5.9-9.3-10.4-12.5c-22.6-16.2-49.8-28-54.4-30
		C259.2,0.8,245.3-0.1,243.2,0H162c-2.5,0-16.3,1.3-44.2,30.4c-4.5,1.9-31.8,13.8-54.4,30C58.9,63.7,55.4,68,53,73
		c-9.6,20.4-18.1,41.4-25.5,62.8c-0.6,1.8,0.3,3.8,2.1,4.4c0.4,0.1,0.7,0.2,1.1,0.2c1.5,0,2.8-0.9,3.3-2.3
		c7.3-21.1,15.7-41.9,25.2-62.1c1.8-3.9,4.6-7.3,8.2-9.8c15.2-10.9,32.8-19.9,43.6-24.9c-4.2,8.8-8.9,23.5-8.4,45.2
		c0,1.1,0.6,2.1,1.5,2.7c0.9,0.6,2,0.8,3.1,0.5c0.1,0,9.8-3.2,21.9-5.8l3.9,26.2l-0.3,0.4c-2,2.3-2.8,5.4-2.1,8.4
		c0.6,2.7,2.3,5.1,4.7,6.4l40.9,274.1h-74.3c-5.5-24.7-10.3-47.2-14.5-67.2l18.2-72.9c0.5-1.8-0.6-3.7-2.4-4.2
		c-1.8-0.5-3.7,0.6-4.2,2.4c0,0.1,0,0.1,0,0.2l-14.8,58.8C74,265.4,69.2,233.4,71,226.7c0.5-1.8-0.6-3.7-2.4-4.2s-3.7,0.6-4.2,2.4
		l0,0c-3.9,14.5,14.8,105,31.2,178.4l0,0v0.1c2.9,12.9,5.2,22.8,6.3,27.7L67,439.9c-4-12.4-19.2-59.8-25.1-85.3
		c-0.4-1.9-2.2-3.1-4.1-2.7s-3.1,2.2-2.7,4.1c0,0.1,0,0.1,0,0.2c5.9,25.5,20.9,72.3,25.1,85.4l-9.8,2.5
		C35.7,409.3,24,369.5,14.8,322.5c-5.7-29-11-56.4-5.9-85.9c3.2-18.3,7-36.1,11.4-53.2c0.5-1.8-0.6-3.7-2.5-4.2
		c-1.8-0.5-3.7,0.6-4.2,2.5C9.2,198.9,5.4,217,2.1,235.4c-5.4,30.8,0.4,60.1,5.9,88.4c9.5,48.7,21.7,89.8,37.3,125.7
		c0.6,1.3,1.8,2.1,3.2,2.1c0.3,0,0.6,0,0.8-0.1l57.5-14.6c1.8-0.5,2.9-2.3,2.5-4.1c0-0.1-2.5-10.7-6.1-26.8H215
		c1.9,0.1,3.5-1.4,3.6-3.3c0.1-1.9-1.4-3.5-3.3-3.6c-0.1,0-0.2,0-0.4,0h-31.9l-15.3-164.5c0-0.1,0-0.2,0-0.3
		c-1.3-7.2-0.5-16.5,2.4-27.6c27-44.4,78.3-71.6,99.2-81.3c2.8-1.3,4.8-3.8,5.5-6.9c0.7-3-0.1-6.1-2.1-8.4
		c-9-10.4-26-22.8-34.6-28.8c15.9-4.3,47.8,4,60.1,8c1.8,0.6,3.7-0.4,4.3-2.2c0.1-0.3,0.2-0.7,0.2-1c0.5-21.7-4.2-36.4-8.4-45.2
		c10.8,5.1,28.3,14,43.6,25c3.5,2.5,6.3,5.9,8.2,9.8c24.2,51.6,40.2,102.7,50.3,160.7c5.1,29.6-0.2,57-5.9,85.9
		c-9.2,47-20.9,86.8-35.7,121.5l-9.8-2.5c4.2-13.1,19.2-60,25.1-85.5c0.5-1.8-0.6-3.7-2.5-4.2c-1.8-0.5-3.7,0.6-4.2,2.5
		c0,0.1,0,0.1,0,0.2c-5.9,25.5-21.1,72.9-25.1,85.3l-34.9-8.8c1.1-4.9,3.4-14.8,6.3-27.7v-0.1l0,0c5.6-25.3,10.7-48.9,15.1-70.1
		c0.2-0.4,0.3-0.9,0.3-1.4c19.3-94.1,16.7-103.7,15.9-106.9c-0.4-1.9-2.3-3-4.1-2.6s-3,2.3-2.6,4.1c0,0.1,0,0.1,0.1,0.2
		c1,3.9,0.6,21-13,89.3l-14.7-58.6c-0.5-1.9-2.3-3-4.2-2.5s-3,2.3-2.5,4.2l0,0l18.2,72.7c-4.2,20.5-9.1,43.1-14.5,67.4h-41.4
		c-1.9-0.1-3.5,1.4-3.6,3.3c-0.1,1.9,1.4,3.5,3.3,3.6c0.1,0,0.2,0,0.4,0H302c-3.6,16.1-6.1,26.6-6.1,26.8c-0.4,1.8,0.7,3.7,2.5,4.1
		l57.5,14.6c0.3,0.1,0.6,0.1,0.9,0.1c1.4,0,2.6-0.8,3.2-2.1c15.6-35.8,27.8-76.9,37.3-125.7C402.8,295.5,408.5,266.2,403.1,235.4z
		 M239.8,6.9c0,4-0.2,11.3-0.9,20.1h-72.5c-0.7-8.8-0.9-16.1-0.9-20.1L239.8,6.9z M238.2,33.9c-1.9,18.3-5.5,34-10.3,45.4
		c-1.4,2.3-14,23.2-25.3,42.7c-11.3-19.5-23.9-40.4-25.3-42.7c-6-14.1-8.9-31.8-10.3-45.4H238.2z M131.2,76.3c-9,1.8-17,4-21.7,5.3
		c0.4-29.6,11.1-43.7,12.8-45.7l0.2-0.1c19-20,30.8-26.1,36.2-28c0.1,4.8,0.3,13.1,1.2,23c1.1,12.3,3.5,29.1,8.5,43.9
		C159.6,72.6,147.2,73.1,131.2,76.3z M167.2,81.5c-6.8,4.7-19,13.5-28.2,22.2l-3.2-21.3C149.4,80,160.2,79.7,167.2,81.5L167.2,81.5z
		 M138.8,119.2c-0.8-0.4-1.4-1.1-1.6-2c-0.2-0.9,0-1.7,0.6-2.4c0.4-0.5,0.8-0.9,1.3-1.4c9.6-10.4,27.1-22.8,34.1-27.6
		c4.4,7.3,15.8,26.3,25.5,43.2c-4.7,8.2-8.2,14.5-10.6,19.2c-15.2-11-31.4-20.5-48.4-28.5L138.8,119.2z M163.6,204.4
		c-3.3,12.2-4.2,22.7-2.7,31l3.7,40.7l-22-147.4c14.8,7.4,28.9,16,42.2,25.7c-0.3,0.6-0.5,1.2-0.7,1.7
		C182.5,158.9,169.8,181.2,163.6,204.4z M267.5,114.8c0.6,0.7,0.8,1.6,0.6,2.4c-0.2,0.9-0.8,1.6-1.6,2
		c-16.7,7.8-32.7,17.2-47.8,27.9c-16.1,11.6-29.6,23.9-40.5,36.8c3.6-8.4,7.6-16.6,12.1-24.6c0.1-0.2,0.2-0.4,0.3-0.6
		c0.6-1.4,1.2-2.8,1.9-4.1c2.4-4.9,7-13.2,13.6-24.7c9.9-17.1,21.6-36.7,26.1-44.1C239.4,90.8,258.3,104.1,267.5,114.8z M295.8,81.6
		c-5.1-1.5-13.9-3.9-23.7-5.7c-15-2.8-26.8-3.2-35.1-1.2c4-11.9,6.9-26.6,8.4-43.8c0.9-10.1,1.2-18.4,1.2-23.2
		c5.3,1.8,17.1,7.9,36.2,28C283.8,36.7,295.4,50.7,295.8,81.6L295.8,81.6z"/>
	<path d="M334.2,72.9c-1.9-0.3-3.6,1-3.9,2.9c0,0,0,0,0,0c0,0.2-2.3,17.1-3.5,39.1c-1.5,29.7-0.4,54.1,3.5,72.5
		c0.3,1.6,1.7,2.7,3.4,2.7c0.2,0,0.5,0,0.7-0.1c1.9-0.4,3.1-2.2,2.7-4.1c0,0,0,0,0,0c-9-42.6,0-108.6,0-109.2
		C337.4,74.9,336.1,73.2,334.2,72.9z"/>
	<path d="M239.1,399.1H238c-1.9-0.1-3.5,1.4-3.6,3.3c-0.1,1.9,1.4,3.5,3.3,3.6c0.1,0,0.2,0,0.4,0h1.2c1.9,0.1,3.5-1.4,3.6-3.3
		c0.1-1.9-1.4-3.5-3.3-3.6C239.4,399.1,239.2,399.1,239.1,399.1z"/>
	<path d="M298.3,132.6c-1.5-1.2-3.7-0.9-4.8,0.5c0,0,0,0,0,0l-52.9,66.2c-1.2,1.5-0.9,3.7,0.5,4.9s3.7,0.9,4.9-0.5l52.9-66.2
		C300.1,136,299.8,133.8,298.3,132.6C298.3,132.6,298.3,132.6,298.3,132.6z"/>
</g>
</svg>
