<?xml version="1.0" encoding="utf-8"?>
<!-- Generator: Adobe Illustrator 26.0.0, SVG Export Plug-In . SVG Version: 6.00 Build 0)  -->
<svg version="1.1" id="katman_1" xmlns="http://www.w3.org/2000/svg" xmlns:xlink="http://www.w3.org/1999/xlink" x="0px" y="0px"
	 viewBox="0 0 461.5 522" style="enable-background:new 0 0 461.5 522;" xml:space="preserve">
<g>
	<path d="M120.9,346.7l30.7-94.2l16,5.2l-30.7,94.2L120.9,346.7z"/>
	<path d="M293.6,257.6l16-5.2l30.8,94.2l-16,5.2L293.6,257.6z"/>
	<path d="M0,505.2h93V522H0V505.2z"/>
	<path d="M367.9,505.2h93V522h-93V505.2z"/>
	<path d="M460.9,129.4c-4.5-37-31.9-67.8-67.8-76.7c-5-1.1-10.1-2.2-15.1-2.2L314.7,42L292.3,0H169.1l-23,42l-62.7,8.4
		c-4.5,0.6-9,1.1-13.4,2.2C28.6,62.1,0,98.5,0,140.5v353.9h16.8V140.5c0-14.6,4.5-28.6,11.8-40.3l47,118.2v276.1h16.8V229.1h6.2
		v160.2h16.8v-177H85.7L37,90.2c9.5-10.1,22.4-17.9,37-21.3c3.4-1.1,7.3-1.7,11.2-1.7l63.8-8.4l16.2,79l56.6-33v284.5h16.8v-285
		l57.7,33.6l16.2-79.5l63.8,9c4.5,0.6,8.4,1.1,12.9,2.2c14,3.4,25.8,10.6,35.3,20.7l-48.8,122.5h-30.2v177h16.8V229.1h6.2V494h16.8
		V218.5l47-118.7c6.2,9.5,10.6,20.2,11.8,31.9c0.6,3.4,0.6,6.2,0.6,9s-0.6,353.9-0.6,353.9h16.8c0,0,0.6-350.6,0.6-353.9
		C461.4,137.2,461.4,133.9,460.9,129.4L460.9,129.4z M179.2,16.8h102.5l0.6,1.1l-16.8,25.2h-70.6L178.6,18L179.2,16.8z M176.9,111.5
		l-13.4-66.1l5.6-10.6l38.1,58.8L176.9,111.5z M230.7,97.5h-1.1l-27.4-42.6h56.5L230.7,97.5z M283.9,111.5l-30.8-17.9l38.1-58.8
		l6.2,10.6L283.9,111.5z"/>
	<path d="M98.5,400.4h263.2v15.7H98.5V400.4z"/>
</g>
</svg>
