<?xml version="1.0" encoding="utf-8"?>
<!-- Generator: Adobe Illustrator 26.0.0, SVG Export Plug-In . SVG Version: 6.00 Build 0)  -->
<svg version="1.1" id="katman_1" xmlns="http://www.w3.org/2000/svg" xmlns:xlink="http://www.w3.org/1999/xlink" x="0px" y="0px"
	 viewBox="0 0 560 560.2" style="enable-background:new 0 0 560 560.2;" xml:space="preserve">
<style type="text/css">
	.st0{fill-rule:evenodd;clip-rule:evenodd;}
</style>
<g>
	<path class="st0" d="M560,158.7C560,102.1,513.9,56,457.3,56h-46.7V28c0-16.5-11.5-28-28-28H177.1c-16,0-28,12-28,28v37.3
		c0,15.4,12.6,28,28,28h93.5V420H240c-3.2-5.6-9.2-9.3-16.1-9.3h-56v-84c0-1.1-0.2-9.3-6.6-18.7c6.4-9.3,6.6-17.6,6.6-18.7v-56
		c0-5.2-4.2-9.3-9.3-9.3c-5.2,0-9.3,4.2-9.3,9.3v55.8c0,0.2-0.4,6.1-6.6,12.3c-3.6,3.6-3.6,9.6,0,13.2c6.2,6.2,6.6,12,6.6,12.1v84
		H140c-1.1,0-9.3,0.2-18.7,6.6c-9.3-6.4-17.6-6.6-18.7-6.6H56c-5.2,0-9.3,4.2-9.3,9.3s4.2,9.3,9.3,9.3h46.4c0.2,0,4.5,0.3,9.6,4.2
		v70.4c0,5.2,4.2,9.3,9.3,9.3c5.2,0,9.3-4.2,9.3-9.3v-70.4c5.1-3.9,9.3-4.2,9.3-4.2h84v112h-83.8c-0.2,0-6.1-0.4-12.3-6.6
		c-3.7-3.6-9.6-3.6-13.2,0c-6.2,6.2-12,6.6-12.1,6.6c-8.3,0-33.5,0-58.7-25.3s-25.3-50.5-25.3-58.7v-18.4c0-0.2,0.4-6.1,6.6-12.3
		c1.7-1.8,2.7-4.1,2.7-6.6s-1-4.8-2.7-6.6c-6.2-6.2-6.6-12-6.6-12.1v-74.4c0-0.2,0.3-4.5,4.2-9.6H112c5.2,0,9.3-4.2,9.3-9.3
		c0-5.2-4.2-9.3-9.3-9.3H22.9c-3.9-5.1-4.2-9.3-4.2-9.3V158.7c0-46.3,37.7-84,84-84h18.2c5.2,0,9.3-4.2,9.3-9.3s-4.2-9.3-9.3-9.3
		h-18.2C46,56,0,102.1,0,158.7v130.7c0,1.1,0.2,9.3,6.6,18.7C0.2,317.4,0,325.7,0,326.8v74.7c0,1.1,0.2,9.3,6.6,18.7
		C0.2,429.5,0,437.8,0,438.9v18.7c0,10.2,0,41.2,30.7,71.9s61.7,30.7,71.9,30.7c1.1,0,9.3-0.2,18.7-6.6c9.3,6.4,17.6,6.6,18.7,6.6
		h84c6.7,0,12.7-3.8,16-9.3h80c3.3,5.5,9.3,9.3,16,9.3h84c1.1,0,9.3-0.2,18.7-6.6c9.3,6.4,17.6,6.6,18.7,6.6
		c10.2,0,41.2,0,71.9-30.7s30.7-61.7,30.7-71.9v-18.7c0-1.1-0.2-9.3-6.6-18.7c6.4-9.3,6.6-17.6,6.6-18.7v-74.7
		c0-1.1-0.2-9.3-6.6-18.7c6.4-9.3,6.6-17.6,6.6-18.7L560,158.7z M242.6,476h74.7v18.7h-74.7L242.6,476L242.6,476z M242.6,513.3h74.7
		V532h-74.7L242.6,513.3L242.6,513.3z M242.6,438.7h74.7v18.7h-74.7L242.6,438.7L242.6,438.7z M541.3,289.1c0,0.2-0.4,6.1-6.6,12.3
		c-3.6,3.6-3.6,9.6,0,13.2c6.2,6.2,6.6,12,6.6,12.1v74.4c0,0.2-0.4,6.1-6.6,12.3c-1.7,1.8-2.7,4.1-2.7,6.6s1,4.9,2.7,6.6
		c6.2,6.2,6.6,12,6.6,12.1v18.7c0,8.3,0,33.5-25.3,58.7s-50.5,25.3-58.5,25.3c-0.2,0-4.5-0.3-9.6-4.2v-70.4c0-5.2-4.2-9.3-9.3-9.3
		c-5.2,0-9.3,4.2-9.3,9.3v70.4c-5.1,3.9-9.3,4.2-9.3,4.2h-84v-112h65.3l0,0l0,0h18.4c0.2,0,6.1,0.4,12.3,6.6c3.6,3.6,9.6,3.6,13.2,0
		c6.2-6.2,12.1-6.6,12.1-6.6H504c5.2,0,9.3-4.2,9.3-9.3s-4.2-9.3-9.3-9.3h-46.7c-1.1,0-9.3,0.2-18.7,6.6c-9.3-6.4-17.6-6.6-18.7-6.6
		h-9.3V327c0-0.2,0.3-4.5,4.2-9.6H504c5.2,0,9.3-4.2,9.3-9.3s-4.2-9.3-9.3-9.3h-89.1c-3.9-5.1-4.2-9.3-4.2-9.3v-56
		c0-5.2-4.2-9.3-9.3-9.3c-5.2,0-9.3,4.2-9.3,9.3v56c0,1.1,0.2,9.3,6.6,18.7c-6.4,9.3-6.6,17.6-6.6,18.7v84h-56
		c-6.9,0-12.8,3.8-16.1,9.3h-30.6v-46.7h9.3c5.2,0,9.3-4.2,9.3-9.3s-4.2-9.3-9.3-9.3h-9.3v-37.3h9.3c5.2,0,9.3-4.2,9.3-9.3
		s-4.2-9.3-9.3-9.3h-9.3v-37.3h9.3c5.2,0,9.3-4.2,9.3-9.3s-4.2-9.3-9.3-9.3h-9.3v-37.3h9.3c5.2,0,9.3-4.2,9.3-9.3s-4.2-9.3-9.3-9.3
		h-9.3v-37.3h9.3c5.2,0,9.3-4.2,9.3-9.3s-4.2-9.3-9.3-9.3h-9.3v-38H364c5.2,0,9.3-4.2,9.3-9.3s-4.2-9.3-9.3-9.3H177.1
		c-5.1,0-9.3-4.2-9.3-9.3V28c0-5.8,3.6-9.3,9.3-9.3h205.5c6.2,0,9.3,3.1,9.3,9.3v37.3c0,5.2,4.2,9.3,9.3,9.3h56
		c46.3,0,84,37.7,84,84L541.3,289.1z M373.3,46.7c0,5.2-4.2,9.3-9.3,9.3H195.8c-5.2,0-9.3-4.2-9.3-9.3s4.2-9.3,9.3-9.3H364
		C369.1,37.3,373.3,41.5,373.3,46.7L373.3,46.7z"/>
</g>
</svg>
