<?xml version="1.0" encoding="utf-8"?>
<!-- Generator: Adobe Illustrator 26.0.0, SVG Export Plug-In . SVG Version: 6.00 Build 0)  -->
<svg version="1.1" id="katman_1" xmlns="http://www.w3.org/2000/svg" xmlns:xlink="http://www.w3.org/1999/xlink" x="0px" y="0px"
	 viewBox="0 0 471.3 455.1" style="enable-background:new 0 0 471.3 455.1;" xml:space="preserve">
<g>
	<path d="M87,437.6H25.8c-4.8,0-8.8-3.9-8.8-8.8v-26.2c0-4.8,3.9-8.8,8.8-8.8H87c2.3,0,4.5,0.9,6.2,2.6s2.6,3.9,2.6,6.2v26.2
		c0,2.3-0.9,4.5-2.6,6.2S89.4,437.6,87,437.6z M34.6,420.1h43.8v-8.8H34.6V420.1z"/>
	<path d="M104.6,385.1c-4.1,0.1-7.7-2.5-8.8-6.5c-14.9-56-1.8-133,5.2-174.4c1.6-8.8,2.8-16.4,3.4-21.4l0,0c0.6-4.8,5-8.3,9.8-7.7
		s8.3,5,7.7,9.8c-0.6,5.3-1.8,12.8-3.5,22.3c-6.7,40-19.4,114.5-5.4,166.9c0.7,2.3,0.4,4.7-0.7,6.8c-1.2,2.1-3.1,3.6-5.4,4.2H104.6z
		"/>
	<path d="M445.8,437.6h-61.2c-4.8,0-8.8-3.9-8.8-8.8v-26.2c0-4.8,3.9-8.8,8.8-8.8h61.2c2.3,0,4.5,0.9,6.2,2.6s2.6,3.9,2.6,6.2v26.2
		c0,2.3-0.9,4.5-2.6,6.2S448.1,437.6,445.8,437.6z M393.3,420.1h43.8v-8.8h-43.8V420.1z"/>
	<path d="M235.8,429.6c-29.2,0-112.1-3.1-120.3-12.4c-5.2-6.1-9.6-12.9-12.9-20.3c-2.8,4.1-5.9,8-9.2,11.7c-1.6,1.8-4,2.8-6.4,2.8
		H25.8c-4,0.2-7.6-2.4-8.8-6.2C-7.6,323.1-13,187.3,52.9,74.5c14.7-25.3,95.5-45.3,96.3-45.5c2.7-0.6,5.5,0.1,7.6,1.9
		c2.1,1.8,3.3,4.6,3.1,7.3c-2,26.2,53.6,44.4,75.6,49.2c22.1-4.8,77.7-22.6,75.6-49.2l0,0c-0.1-2.9,1.2-5.6,3.5-7.3
		c2.1-1.8,4.9-2.5,7.6-1.9c0.8,0,81.6,20.2,96.2,45.5c65.9,112.8,60.5,248.6,35.9,330.7c-1.1,3.7-4.6,6.3-8.5,6.2h-61.2
		c-2.4,0-4.7-1-6.4-2.8c-3.3-3.7-6.4-7.6-9.2-11.7c-3.2,7.3-7.5,14.1-12.8,20.2C347.9,426.5,265,429.6,235.8,429.6L235.8,429.6z
		 M127.5,404.2c35.8,5.8,72.1,8.4,108.3,7.9c36.3,0.6,72.5-2.1,108.3-7.9c6.8-9,11.6-19.4,14.2-30.4c1-3.5,4.2-6,7.8-6.2
		c3.7-0.4,7.2,1.6,8.8,5c3.8,7.6,8.4,14.7,13.7,21.3h50.7c22.1-78.8,25.4-205.4-36-310.6c-7.2-12.2-52-27.9-75.3-34.6
		c-9.6,38.9-81.6,54.5-90.4,56.4c-1.2,0.3-2.3,0.3-3.5,0c-8.8-1.8-80.8-17.5-90.4-56.3c-23.4,6.6-68.2,22.4-75.3,34.6
		c-61.3,105-58,231.7-36,310.5h50.7c5.3-6.6,9.9-13.7,13.6-21.3c1.6-3.3,5-5.2,8.6-5c3.6,0.3,6.7,2.7,7.7,6.2
		C115.6,384.9,120.5,395.2,127.5,404.2L127.5,404.2z"/>
	<path d="M367,385.1h-2.2c-2.4-0.5-4.4-2-5.6-4.1s-1.5-4.6-0.8-6.9c14-52.5,1.3-126.9-5.4-166.9c-1.7-9.5-2.9-17-3.5-22.3
		c-0.6-4.8,2.9-9.2,7.7-9.8c4.8-0.6,9.2,2.9,9.8,7.7c0.6,5.1,1.8,12.4,3.4,21.4c7,41.4,20,118.4,5.2,174.4l0,0
		C374.4,382.4,371,385.1,367,385.1L367,385.1z"/>
	<path d="M349.6,455.1H122c-4.8,0-8.8-3.9-8.8-8.8v-35c0-3.5,2.2-6.7,5.4-8.1c2.5-1.1,5.4-0.9,7.8,0.5c36.1,6.1,72.7,8.9,109.3,8.2
		c36.6,0.6,73.2-2.1,109.3-8.2c2.4-1.4,5.2-1.6,7.8-0.5c3.3,1.3,5.4,4.5,5.4,8.1v35c0,2.3-0.9,4.5-2.6,6.2S351.9,455.1,349.6,455.1
		L349.6,455.1z M130.8,437.6h210v-15.1c-34.8,4.8-69.9,7.2-105,7.1c-35.1,0.1-70.2-2.3-105-7.1V437.6z"/>
	<path d="M235.8,87.6c-0.9,0-1.9-0.2-2.8-0.4c-3.6-1.2-7.2-2.6-10.7-4.2c-3.1-1.4-6.1-3-8.8-4.6c-4.8-2.6-9.4-5.5-13.7-8.8l-3.9-3.1
		l-3.9-3.3c-7-6.4-13.3-13.6-18.7-21.3c-3.2-4.4-6.1-9-8.8-13.7c-0.9-1.6-1.7-3.1-2.4-4.6l0,0c-1.9-3.8-3.6-7.8-5.2-11.8
		c-1.1-3-0.5-6.4,1.6-8.8c2.1-2.4,5.4-3.5,8.5-2.8c0.5,0,52.1,8.8,68.6,8.8s68.1-8.8,68.6-8.8c3.1-0.7,6.4,0.3,8.5,2.8
		c2.1,2.4,2.7,5.8,1.6,8.8c0,0-1.7,4.7-5,11.6c-0.9,1.8-1.7,3.3-2.6,5l0,0c-2.6,4.7-5.5,9.3-8.8,13.7c-5.4,7.7-11.7,14.8-18.6,21.2
		l-3.5,3.1l-3.9,3.1c-4.4,3.2-9,6.2-13.8,8.8c-2.8,1.6-5.8,3.1-8.8,4.6c-3.5,1.6-7,3-10.7,4.2C238,87.2,236.9,87.5,235.8,87.6
		L235.8,87.6z M180.6,20c2.2,4,4.6,7.9,7.3,11.6C192.6,38.3,198,44.4,204,50l3.1,2.7l3.3,2.6l0,0c3.7,2.9,7.5,5.5,11.6,7.8
		c2.4,1.4,4.9,2.6,7.5,3.9s4.1,1.8,6.3,2.5c2.2-0.8,4.3-1.7,6.3-2.5s5.1-2.4,7.5-3.9c4.1-2.3,7.9-4.9,11.6-7.8l3.2-2.6l3.3-2.9
		c5.9-5.5,11.3-11.6,15.9-18.2c2.7-3.7,5.1-7.6,7.3-11.6c-18.3,3.1-36.7,5.2-55.2,6.3C217.3,25.3,198.9,23.2,180.6,20L180.6,20z"/>
	<path d="M235.8,105.1H234c-9.7-2.1-94.5-20.6-91.4-68.2c0.1-1.1,0.4-2.2,1-3.2L158,5l0,0c1.6-3.3,5.1-5.2,8.8-4.8
		c3.5,0.2,6.6,2.6,7.7,5.9c1.2,3.2,2.6,6.4,4.1,9.4c0.6,1.3,1.2,2.6,1.9,3.9c2.3,4.2,4.9,8.4,7.7,12.3c4.7,6.7,10.1,12.8,16.1,18.4
		l3.1,2.7l3.3,2.6l0,0c3.7,2.9,7.5,5.5,11.5,7.8c2.4,1.4,4.9,2.6,7.5,3.9s4.1,1.8,6.3,2.5c2.2-0.8,4.3-1.7,6.3-2.5
		c2-0.9,5.1-2.4,7.5-3.9l0,0c4.1-2.3,7.9-4.9,11.6-7.8l3.2-2.6l3.3-2.9c5.9-5.5,11.3-11.6,15.9-18.2c2.7-3.8,5.2-7.8,7.4-12
		c0.8-1.2,1.4-2.5,2-3.9c1.6-3.2,3-6.5,4.3-9.8c1.1-3.3,4.2-5.7,7.7-5.9s6.8,1.6,8.4,4.8l14.7,28.7c0.5,1,0.9,2.1,1,3.2
		c3.6,47.7-81.6,66.1-91.4,68.1L235.8,105.1z M305.8,29c-2.4,4.5-5.1,8.8-8.1,12.9c-5.3,7.7-11.3,14.8-18.1,21.2l-3.5,3.1l-3.9,3.1
		c-4.4,3.2-9,6.2-13.8,8.8c-2.8,1.6-5.8,3.1-8.8,4.6c-3,1.4-4.8,2.1-7.3,3c24.2-6.2,69.3-22.6,69.5-46.2L305.8,29z M160.1,39.7
		c0,23.6,45.2,40,69.5,46.2c-2.4-0.9-4.9-1.9-7.3-3s-6.1-3-8.8-4.6l0,0c-4.8-2.6-9.4-5.5-13.7-8.8l-3.9-3.1l-3.9-3.3
		c-7-6.4-13.3-13.6-18.7-21.3c-2.8-4.1-5.3-8.4-7.5-12.9L160.1,39.7z"/>
	<path d="M235.8,428.8c-4.8,0-8.8-3.9-8.8-8.8V96.4c0-4.8,3.9-8.8,8.8-8.8s8.8,3.9,8.8,8.8v323.8c0,2.3-0.9,4.5-2.6,6.2
		S238.1,428.8,235.8,428.8z"/>
	<path d="M139.6,350.1c-2.3,0-4.6-0.9-6.2-2.5c-1.7-1.6-2.6-3.9-2.6-6.2s0.9-4.6,2.6-6.2l43.8-43.8c3.4-3.4,9-3.4,12.4,0
		s3.4,9,0,12.4l-43.8,43.8C144.1,349.2,141.9,350.1,139.6,350.1L139.6,350.1z"/>
	<path d="M332,350.1c-2.3,0-4.6-0.9-6.2-2.5L282,303.8c-3.4-3.4-3.4-9,0-12.4s9-3.4,12.4,0l43.8,43.8c1.7,1.6,2.6,3.9,2.6,6.2
		s-0.9,4.6-2.6,6.2C336.6,349.2,334.4,350.1,332,350.1L332,350.1z"/>
</g>
</svg>
