<?xml version="1.0" encoding="utf-8"?>
<!-- Generator: Adobe Illustrator 26.0.0, SVG Export Plug-In . SVG Version: 6.00 Build 0)  -->
<svg version="1.1" id="katman_1" xmlns="http://www.w3.org/2000/svg" xmlns:xlink="http://www.w3.org/1999/xlink" x="0px" y="0px"
	 viewBox="0 0 528.6 560.1" style="enable-background:new 0 0 528.6 560.1;" xml:space="preserve">
<g>
	<path d="M273.1,280v8.8c0,4.8-3.9,8.8-8.8,8.8s-8.8-3.9-8.8-8.8V280c0-4.8,3.9-8.8,8.8-8.8S273.1,275.2,273.1,280z M264.3,315
		c-4.8,0-8.8,3.9-8.8,8.8v8.8c0,4.8,3.9,8.8,8.8,8.8s8.8-3.9,8.8-8.8v-8.8c0-2.3-0.9-4.5-2.6-6.2S266.6,315,264.3,315z M264.3,358.8
		c-4.8,0-8.8,3.9-8.8,8.8v8.8c0,4.8,3.9,8.8,8.8,8.8s8.8-3.9,8.8-8.8v-8.8c0-2.3-0.9-4.5-2.6-6.2S266.6,358.8,264.3,358.8z
		 M264.3,402.5c-4.8,0-8.8,3.9-8.8,8.8v8.8c0,4.8,3.9,8.8,8.8,8.8s8.8-3.9,8.8-8.8v-8.8c0-2.3-0.9-4.5-2.6-6.2
		S266.6,402.5,264.3,402.5z M264.3,446.2c-4.8,0-8.8,3.9-8.8,8.8v8.8c0,4.8,3.9,8.8,8.8,8.8s8.8-3.9,8.8-8.8V455
		c0-2.3-0.9-4.5-2.6-6.2S266.6,446.2,264.3,446.2z M264.3,227.5c-4.8,0-8.8,3.9-8.8,8.8v8.8c0,4.8,3.9,8.8,8.8,8.8s8.8-3.9,8.8-8.8
		v-8.8c0-2.3-0.9-4.5-2.6-6.2S266.6,227.5,264.3,227.5z M526.8,507.5c0,2.3-0.9,4.5-2.6,6.2s-3.9,2.6-6.2,2.6v35
		c0,2.3-0.9,4.5-2.6,6.2s-3.9,2.6-6.2,2.6H448c-4.8,0-8.8-3.9-8.8-8.8v-35c-2.6,0-5.1-1.2-6.8-3.3c-5-6.8-9.1-14.4-12-22.3
		c-37.1,22.9-112.5,25.6-156.1,25.6s-119-2.7-156.2-25.6c-3,8-7,15.5-12,22.3c-1.7,2.1-4.2,3.2-6.8,3.3v35c0,2.3-0.9,4.5-2.6,6.2
		s-3.9,2.6-6.2,2.6H19.3c-4.8,0-8.8-3.9-8.8-8.8v-35c-4.8,0-8.8-3.9-8.8-8.8C-1.8,440.9,0,374.1,7.1,307.8
		C20,179.9,88.7,107,91.6,104l0,0c0.8-0.8,1.7-1.5,2.8-1.9l56.2-24.9c1.2-16.7,8.5-32.3,20.5-44C192.2,12,225.2,0,264.3,0
		s72.1,12,93.1,33.2c12,11.7,19.3,27.3,20.5,44l56.2,24.9c1,0.5,2,1.1,2.8,1.9c2.9,3,71.7,75.9,84.6,203.9
		C528.5,374.2,530.3,440.9,526.8,507.5L526.8,507.5z M168.1,96.6c19.2,1.5,37.9,7.3,54.5,16.9c-2.1-7.9-3.2-16-3.2-24.1
		c0-47.3,28.1-54.4,44.9-54.4s44.9,7.1,44.9,54.4c0,8.1-1.1,16.2-3.1,24.1c16.7-9.6,35.3-15.4,54.5-16.9V81.3
		c-0.2-13.5-5.8-26.4-15.7-35.8c-17.6-17.9-46.2-28-80.6-28c-34.3,0-63,10.1-80.6,28l0,0c-9.8,9.3-15.4,22.1-15.7,35.6L168.1,96.6z
		 M264.3,52.5c-11.8,0-27.4,3.8-27.4,36.9c0.7,23.2,10.5,45.3,27.4,61.3c16.8-16,26.7-38,27.4-61.3
		C291.7,56.3,276.1,52.5,264.3,52.5L264.3,52.5z M71.8,516.2H28v26.2h43.8V516.2z M500.5,516.2h-43.8v26.2h43.8V516.2z M504,309.8
		c-6.4-68.6-32.4-133.9-74.9-188.1c-10.9,22-16.4,46.2-16,70.8c0,4.8-3.9,8.8-8.8,8.8s-8.8-3.9-8.8-8.8
		c-0.5-27.8,5.9-55.3,18.6-80.1l-36.1-16v8.6c0,2.3-0.9,4.5-2.6,6.2s-3.9,2.6-6.2,2.6c-29.6,0.7-57.9,12.6-79.1,33.4
		c-5,7.1-10.7,13.6-17.1,19.4v22.9c0,4.8-3.9,8.8-8.8,8.8s-8.8-3.9-8.8-8.8v-22.9c-6.4-5.8-12.2-12.3-17.1-19.4
		c-21.2-20.7-49.5-32.6-79.1-33.4l0,0c-4.8,0-8.8-3.9-8.8-8.8v-8.6l-36.1,16l0,0c12.7,24.7,19.1,52.3,18.6,80.1
		c0,4.8-3.9,8.8-8.8,8.8s-8.8-3.9-8.8-8.8c0.5-24.5-5-48.8-16-70.8c-42.6,54.1-68.6,119.4-75,188c-7,62.7-8.8,125.9-5.3,188.8v0.2
		h65.5c14.8-22.5,28.8-86.3,30.8-126.7l0,0c-10.4-6.8-19-16-25.1-26.9c-2.1-4.3-0.4-9.6,3.9-11.7c4.3-2.2,9.6-0.4,11.7,3.9
		c2.5,4.7,5.8,8.9,9.7,12.5v-41.7c-14.5-11.5-35-31.9-35-54.4c0-4.8,3.9-8.8,8.8-8.8s8.8,3.9,8.8,8.8c0,10.9,8.9,22.3,17.5,30.9
		v-48.4c0-4.8,3.9-8.8,8.8-8.8s8.8,3.9,8.8,8.8V363c-1.4,37.5-7.7,74.7-18.8,110.6c30.6,22.6,112.1,25.1,150.1,25.1
		s119.5-2.5,150.1-25.1c-11.1-35.9-17.4-73.1-18.8-110.6V236.2c0-4.8,3.9-8.8,8.8-8.8s8.8,3.9,8.8,8.8v48.4
		c8.6-8.6,17.5-20.1,17.5-30.9c0-4.8,3.9-8.8,8.8-8.8s8.8,3.9,8.8,8.8c0,22.5-20.5,42.8-35,54.4v41.7c3.9-3.6,7.2-7.8,9.7-12.5
		c2.2-4.3,7.4-6,11.7-3.9c4.3,2.2,6.1,7.4,3.9,11.7c-6,10.9-14.6,20.1-25.1,26.9c2,40.3,16,104.1,30.5,126.7h65.1
		C512.8,435.7,511,372.5,504,309.8L504,309.8z M360.6,218.7h-35c-4.8,0-8.8,3.9-8.8,8.8s3.9,8.8,8.8,8.8h35c4.8,0,8.8-3.9,8.8-8.8
		S365.4,218.7,360.6,218.7z"/>
</g>
</svg>
