<?xml version="1.0" encoding="utf-8"?>
<!-- Generator: Adobe Illustrator 26.0.0, SVG Export Plug-In . SVG Version: 6.00 Build 0)  -->
<svg version="1.1" id="katman_1" xmlns="http://www.w3.org/2000/svg" xmlns:xlink="http://www.w3.org/1999/xlink" x="0px" y="0px"
	 viewBox="0 0 360.4 360.4" style="enable-background:new 0 0 360.4 360.4;" xml:space="preserve">
<g id="katman_2_00000021800074082725939470000015086129979708272815_">
	<g id="katman_1-2">
		<path d="M100.3,39.6l4.2,11.1c-5.9,2.3-11.6,4.5-17.3,6.5c-2.1,0.7-2.8,1.7-2.8,4c0.1,62.7,0.1,125.3,0.1,188c-0.1,1,0,2,0.3,3
			c4,12,8,23.9,12,36.1h35.4v12h-31.4c2.2,6.8,4.4,13.2,6.5,19.6c2,6,1.6,7.2-3.6,11c-5.6,4-11.3,7.9-16.7,12
			c-1.4,1.1-2.1,3-3.6,5.3h91.1v-4c0-40.9,0-81.8-0.1-122.7c-0.1-2.2-0.8-4.3-2-6.1c-18.3-25.8-36.7-51.5-55.1-77.2
			c-3-4.2-3.2-7.6-0.4-11.8c4.6-7,8.7-14.2,13.1-21.7l-27.4-13.7c-6.7-3.4-7.4-5.3-4.3-12c11.2-24.3,22.5-48.5,33.5-72.9
			c2-4.4,4.7-6,9.5-6c26.3,0.2,52.5,0.2,78.8,0c4.5,0,7.2,1.6,8.9,5.8c3.2,7.6,7,14.9,10.2,22.5c1.1,2.6,3.3,4.7,6,5.5
			c24.5,9.7,48.9,19.5,73.4,29.2c7.9,3.1,12,8.7,12.9,17.2c4.6,42.7,9.4,85.5,14.2,128.2c4.9,43.9,9.8,87.7,14.7,131.6
			c0.6,5-0.8,7.2-5.8,8.4c-15.1,3.8-30.3,7.6-45.4,11.4c-5.2,1.3-7.9-0.5-8.8-5.7c-3.7-22.2-7.5-44.4-11.2-66.5
			c-0.1-0.4-0.4-0.8-0.8-1v3.8c0,20.6,0,41.3,0,61.9c0,6.2-1.9,8.1-8,8.1h-81.9v-11.9h77.6v-47.9h-47.6v-12.1h47.5v-90.1h-47.5
			v-11.9h47.8V182c0-39.9,0-79.8,0.1-119.7c0-3.2-1-4.5-4-5.5c-7.9-2.7-15.6-5.8-24.2-9c1.4,3.1,2.4,5.4,3.5,7.7
			c3.6,7.8,7.2,15.6,10.9,23.5c3,6.6,2.3,8.7-4.1,11.9c-8,4-16.1,8-24.1,12.1c-1.1,0.6-2.2,1.2-3.5,1.8c4.6,7.7,9,15.3,13.7,22.7
			c2.3,3.6,2,6.5-0.5,9.9c-18.6,25.9-37.1,51.8-55.5,77.9c-1.4,2-2.1,4.4-2.2,6.8c-0.1,43.2-0.1,86.3-0.1,129.4
			c0,7.2-1.7,8.9-8.8,8.9H80.5c-5.6,0-7.1-1.2-8.4-6.9l-6.7,4.7c-5.1,3.6-8.3,2.8-11.1-2.8c-14.2-28.4-27.8-57.1-42.8-85
			C3.2,255.7-0.7,239,0.1,222.2c1-25.1,0.2-50.3,0.3-75.4c0-2.6,0.6-5.1,1.7-7.5c10.7-21.6,21.5-43.1,32.2-64.7
			c2.2-4.5,5.8-8.2,10.3-10.4C62,55.6,79.1,46.5,97.6,40.5C98.3,40.3,99,40,100.3,39.6z M72.3,63.9c-7.6,3.8-14.7,7.1-21.6,10.9
			c-2.4,1.3-4.3,3.2-5.6,5.6c-10.6,20.8-21,41.7-31.3,62.7c-0.9,1.8-1.3,3.7-1.3,5.7c-0.1,31-0.1,62,0,93c0,2,0.5,3.9,1.3,5.7
			c15.7,31.7,31.5,63.3,47.3,94.9c0.5,1,1.1,1.8,1.7,2.9c10.4-7.4,20.4-14.6,30.4-21.8c0.8-0.6,1.7-2.1,1.4-2.9
			c-1.4-4.8-3.1-9.4-4.8-14.6l-26.2,17.4c-2.3-3.5-4.4-6.6-6.6-10l28.5-19C73.2,254.7,60.9,215.4,48.5,176l11.6-3.6
			c3.9,12.7,7.8,25.2,11.6,37.6l0.5-0.1L72.3,63.9z M319.5,330.2c-0.7-4.1-1.3-7.8-1.9-11.8l27.7-4.7c-2.8-25.5-5.6-50.6-8.4-75.7
			c-2.9-25.8-5.7-51.7-8.6-77.5c-3-26.6-5.9-53.1-8.9-79.7c-0.2-2.9-2.1-5.5-4.9-6.4c-7.9-3.3-15.8-6.8-23.7-10.2
			c-0.7-0.2-1.5-0.4-2.3-0.5v2.5c0,47.3,0,94.5,0,141.8c0,1.4,0.1,2.7,0.4,4.1c5.4,32.4,10.8,64.8,16.1,97.2
			c2.1,12.4,4.2,24.9,6.3,37.6l36.6-9.1c-0.5-4.2-0.9-8-1.4-12L319.5,330.2z M168.5,189.1c-9.7-54.5-19.5-108.9-32.3-163.8
			c-8.9,19.4-17.4,37.7-25.9,56.1c10,5,19.6,9.8,29.2,14.7c5.4,2.7,6.2,5.6,3.1,10.8c-4.4,7.4-8.8,14.8-13.4,22.1
			c-1.3,2.1-1.3,3.6,0.2,5.6c5.6,7.5,11,15.2,16.4,22.8L168.5,189.1z M250.6,81.3l-25.4-55.1h-1.4l-32.3,162.6
			c1.2-0.1,1.5-0.4,1.8-0.8c12.8-18,25.7-36,38.6-54c1.3-1.8,1.1-2.9,0-4.6c-4.7-7.7-9.3-15.4-13.9-23.1c-2.7-4.6-1.8-7.6,3-10.1
			c1.8-0.9,3.6-1.8,5.4-2.7L250.6,81.3z M150,12.2c3.9,5.6,7.3,10.7,11,15.5c1.1,1.3,2.7,2.2,4.5,2.3c8.4,0.2,16.8-0.3,25.1,0.2
			c5.8,0.4,9.5-1.3,12.3-6.5c2.1-4,5.1-7.5,7.9-11.6L150,12.2z M180,181.7l0.9-0.1c1.8-9.3,3.8-18.6,5.3-27.9
			c0.8-4.2,1.1-8.6,0.8-12.9c-1-9.2-2.7-18.3-4.1-27.4c-0.7-4.6-1.4-9.1-2.1-13.7c-2.5,10.9-3.9,21.7-5.8,32.5
			c-1.5,8.3-2,16.4,0.1,24.8C177.2,165.1,178.4,173.4,180,181.7z M172.2,64.9l-20.5-29.3l-0.8,0.4l8.9,41.5L172.2,64.9z M201,77.7
			l8.9-41.7l-0.8-0.3c-6.9,9.9-13.9,19.8-20.6,29.5L201,77.7z M171,42.2l9.4,13.4l9.4-13.4H171z M179.8,74.5
			c-1.5,2.3-4.1,4.6-3.9,6.4c0.6,4.4,2.6,8.6,4,12.9c1.6-2.6,2.8-5.4,3.6-8.3C185.7,79.4,185.7,79.4,179.8,74.5L179.8,74.5z
			 M165.6,89.9c-2.8,2.2-2.2,12.7,1,17.5C167.5,101.5,169.5,95.6,165.6,89.9L165.6,89.9z M194.9,107.4c0.8-4.2,1.9-8.3,2.4-12.5
			c0.2-1.7-0.8-3.5-1.4-6C191.2,95.5,193.4,101.4,194.9,107.4L194.9,107.4z"/>
		<path d="M153.3,222.2c5-0.1,9.1,3.9,9.1,8.9c0.1,5-3.9,9.1-8.9,9.1c-4.9,0.1-9-3.8-9.1-8.8C144.3,226.5,148.3,222.4,153.3,222.2
			C153.3,222.2,153.3,222.2,153.3,222.2z"/>
		<path d="M153.5,282.3c5,0,9,4.1,8.9,9.1c0,5-4.1,9-9.1,8.9c-4.9,0-8.9-4.1-8.9-9C144.5,286.3,148.5,282.3,153.5,282.3z"/>
		<path d="M48.2,276.1H36.7v-11.6h11.5V276.1z"/>
		<path d="M48.6,288.4h11.5V300H48.6V288.4z"/>
		<path d="M318.3,258.5V270h-11.5v-11.5H318.3z"/>
		<path d="M324.3,288.5V300h-11.6v-11.5L324.3,288.5z"/>
	</g>
</g>
</svg>
