<?xml version="1.0" encoding="utf-8"?>
<!-- Generator: Adobe Illustrator 26.0.0, SVG Export Plug-In . SVG Version: 6.00 Build 0)  -->
<svg version="1.1" id="katman_1" xmlns="http://www.w3.org/2000/svg" xmlns:xlink="http://www.w3.org/1999/xlink" x="0px" y="0px"
	 viewBox="0 0 560 560" style="enable-background:new 0 0 560 560;" xml:space="preserve">
<g>
	<path d="M560,131.2h-17.5v-19.7L426.3,78.4l4.8-16.8l122.5,35l0,0c3.8,1.1,6.3,4.5,6.3,8.4L560,131.2z"/>
	<path d="M437.5,560h-96.2c-4.8,0-8.8-3.9-8.8-8.8V490H350v52.5h78.8V249.4c0-7.8,4.2-15,10.9-18.9c6.8-3.9,15.1-3.9,21.9,0
		s10.9,11.1,10.9,18.9V525h70V148.8H560v385c0,2.3-0.9,4.5-2.6,6.2s-3.9,2.6-6.2,2.6h-87.5c-4.8,0-8.8-3.9-8.8-8.8V249.4
		c0-2.4-2-4.4-4.4-4.4s-4.4,2-4.4,4.4v301.9c0,2.3-0.9,4.5-2.6,6.2S439.8,560,437.5,560L437.5,560z"/>
	<path d="M332.5,455H350v17.5h-17.5V455z"/>
	<path d="M350,437.5h-17.5V131.2c0-1,0.2-2,0.5-2.9L376.8,5.8c1-2.7,3.2-4.7,5.9-5.5c2.8-0.8,5.7-0.1,7.9,1.7l52.5,43.8
		c2.8,2.3,3.8,6.1,2.7,9.5l-35,105c-0.8,2.3-2.5,4.2-4.7,5.2s-4.8,1-7,0.1l-49.1-21L350,437.5z M352.3,126.5l44.9,19.2l30.1-90.3
		L389,23.5L352.3,126.5z"/>
	<path d="M349.6,378.9l-16.7-5.2l59.5-187L335.5,138l11.4-13.3l61.2,52.5l0,0c2.7,2.3,3.7,5.9,2.6,9.3L349.6,378.9z"/>
	<path d="M455,236.2h-17.5c0-42.3,22.4-81,64.8-112.1l10.3,14.1C474.4,166.3,455,199.2,455,236.2L455,236.2z"/>
	<path d="M472.5,245H455c0-9.7,17.9-67.7,49.7-78.3l5.5,16.6C489.6,190.2,472.8,237.1,472.5,245L472.5,245z"/>
	<path d="M17.5,455H0V105c0-3.9,2.6-7.3,6.3-8.4l122.5-35l4.8,16.8L17.5,111.6V455z"/>
	<path d="M218.8,560h-96.2c-4.8,0-8.8-3.9-8.8-8.8V249.4c0-2.4-2-4.4-4.4-4.4s-4.4,2-4.4,4.4v284.4c0,2.3-0.9,4.5-2.6,6.2
		s-3.9,2.6-6.2,2.6H8.8c-4.8,0-8.8-3.9-8.8-8.8v-61.2h17.5V525h70V249.4c0-7.8,4.2-15,10.9-18.9c6.8-3.9,15.1-3.9,21.9,0
		c6.8,3.9,10.9,11.1,10.9,18.9v293.1H210v-350h17.5v358.8c0,2.3-0.9,4.5-2.6,6.2S221.1,560,218.8,560L218.8,560z"/>
	<path d="M227.5,175H210v-30.5l-49.1,21c-2.2,1-4.8,0.9-7,0c-2.2-1-3.9-2.9-4.7-5.2l-35-105c-1.1-3.4-0.1-7.2,2.7-9.5L169.4,2
		c2.2-1.8,5.1-2.5,7.9-1.7c2.8,0.8,5,2.8,5.9,5.5L227,128.3c0.3,0.9,0.5,1.9,0.5,2.9V175z M132.7,55.4l30.1,90.3l44.9-19.2L171,23.5
		L132.7,55.4z"/>
	<path d="M210.4,378.9l-61.2-192.5c-1.1-3.3,0-7,2.6-9.3l61.2-52.5l11.4,13.3l-56.9,48.7l59.5,187L210.4,378.9z"/>
	<path d="M122.5,236.2H105c0-37-19.4-70-57.7-97.9l10.3-14.1C100.1,155.2,122.5,194,122.5,236.2L122.5,236.2z"/>
	<path d="M87.5,245c-0.3-8-17.1-54.9-37.8-61.7l5.5-16.6c31.8,10.6,49.7,68.6,49.7,78.3h-8.8H87.5z"/>
	<path d="M463.8,490h87.5v17.5h-87.5V490z"/>
	<path d="M8.8,490h87.5v17.5H8.8V490z"/>
	<path d="M175,0h210v17.5H175V0z"/>
	<path d="M280,105c-55.7,0-86.1-21.5-95.3-39.8l15.7-7.8c7.3,14.5,35.3,30.2,79.7,30.2s72.4-15.6,79.6-30.2l15.7,7.8
		C366.1,83.5,335.7,105,280,105z"/>
	<path d="M280,131.2c-26.1,0.9-52-5.4-74.7-18.4l9.5-14.7c19.9,11.1,42.5,16.5,65.3,15.6c23,1,45.9-4.6,65.9-16.1l9.6,14.6l0,0
		C332.6,125.7,306.5,132.2,280,131.2L280,131.2z"/>
	<path d="M218.8,507.5h122.5V525H218.8V507.5z"/>
	<path d="M350,26.2h26.2v17.5H350V26.2z"/>
	<path d="M183.8,26.2h148.8v17.5H183.8V26.2z"/>
</g>
</svg>
