<?xml version="1.0" encoding="utf-8"?>
<!-- Generator: Adobe Illustrator 26.0.0, SVG Export Plug-In . SVG Version: 6.00 Build 0)  -->
<svg version="1.1" id="katman_1" xmlns="http://www.w3.org/2000/svg" xmlns:xlink="http://www.w3.org/1999/xlink" x="0px" y="0px"
	 viewBox="0 0 560 560.1" style="enable-background:new 0 0 560 560.1;" xml:space="preserve">
<g>
	<path d="M480,40.7H361.5V8.2c0-4.5-3.7-8.2-8.2-8.2H206.7c-4.5,0-8.2,3.7-8.2,8.2v32.5H80c-44.1,0-80,35.9-80,80v394.1
		c0,4.5,3.7,8.2,8.2,8.2h110.5v28.9c0,4.5,3.7,8.2,8.2,8.2h306.2c4.5,0,8.2-3.7,8.2-8.2V523h110.5c4.5,0,8.2-3.7,8.2-8.2V120.6
		C560,76.6,524.1,40.7,480,40.7L480,40.7z M16.4,187.7h17.7c5.1,0,9.3,4.2,9.3,9.3v45.3c0,5.1-4.2,9.3-9.3,9.3H16.4V187.7z
		 M118.7,506.5H16.4v-18.6h102.3L118.7,506.5L118.7,506.5z M253.4,543.6H135.1V172.3c0-4.5-3.7-8.2-8.2-8.2s-8.2,3.7-8.2,8.2v299.2
		H16.4V268h17.7c14.2,0,25.7-11.5,25.7-25.7V197c0-14.2-11.5-25.7-25.7-25.7H16.4v-50.6c0-35.1,28.5-63.5,63.5-63.5h173.4v486.5
		L253.4,543.6z M253.4,40.7h-38.5V16.4h38.5V40.7z M296.4,48.9v494.7h-26.6V49v-0.2V16.4H345v24.3h-40.5
		C300,40.7,296.4,44.3,296.4,48.9L296.4,48.9z M543.6,506.5H441.3v-18.6h102.3V506.5z M543.6,251.6h-17.7c-5.1,0-9.3-4.2-9.3-9.3
		V197c0-5.1,4.2-9.3,9.3-9.3h17.7V251.6z M543.6,171.3h-17.7c-14.2,0-25.7,11.5-25.7,25.7v45.3c0,14.2,11.5,25.7,25.7,25.7h17.7
		v203.4H441.3V172.3c0-4.5-3.7-8.2-8.2-8.2s-8.2,3.7-8.2,8.2v371.3H312.8V57.1H480c35.1,0,63.5,28.5,63.5,63.5L543.6,171.3z"/>
</g>
</svg>
