<?xml version="1.0" encoding="utf-8"?>
<!-- Generator: Adobe Illustrator 26.0.0, SVG Export Plug-In . SVG Version: 6.00 Build 0)  -->
<svg version="1.1" id="katman_1" xmlns="http://www.w3.org/2000/svg" xmlns:xlink="http://www.w3.org/1999/xlink" x="0px" y="0px"
	 viewBox="0 0 510.3 510.3" style="enable-background:new 0 0 510.3 510.3;" xml:space="preserve">
<g>
	<path d="M420.5,442.3c1.3,5,4.2,9.4,8.3,12.5c4.1,3.1,9.1,4.9,14.2,4.9c1.4,0,2.8-0.1,4.2-0.4l44-8.1c5.8-1,11-4.3,14.6-9.1
		c3.5-4.8,5.1-10.7,4.3-16.6c0,0-1.3-7.3-1.4-7.9L448.1,109l0,0c-0.5-2.6-2.2-4.9-4.6-6.1L337.4,48.6c-2.5-13.6-9.8-26-20.4-34.8
		C306.3,4.9,292.9,0,279.1,0h-48c-13.9,0.1-27.3,4.9-37.9,13.8c-10.7,8.9-17.9,21.2-20.4,34.8L66.7,102.9c-2.4,1.2-4.1,3.5-4.6,6.1
		L1.3,419c-0.1,0.6-0.8,3.8-1.1,6.7c-0.7,5.9,0.9,11.8,4.4,16.5s8.7,8,14.5,9l44,8.1c6,1.1,12.2-0.2,17.3-3.6
		c5.1-3.4,8.6-8.7,9.8-14.7l2.8-14.8l24.5-130l0.1,158.6v30.4c0,6.7,2.7,13,7.4,17.7s11.1,7.4,17.7,7.4h225.1c6.7,0,13-2.7,17.7-7.4
		s7.4-11.1,7.4-17.7v-4.4V297.3 M183,72.2l67,88.1l-87.9-34.5L183,72.2z M273.4,162.2L327.9,74l20.4,52.5l-73.9,37.1L273.4,162.2z
		 M231.1,17.4h48c10,0,19.6,3.6,27.2,10.1s12.6,15.5,14.2,25.3L262,147.2l-72.2-94.9c1.7-9.7,6.7-18.6,14.3-25
		C211.7,21,221.2,17.4,231.1,17.4L231.1,17.4z M66.2,442.1l-44-8.1l0,0c-1.5-0.3-2.9-1.2-3.8-2.5s-1.2-2.9-0.9-4.4
		c0.5-2.7,3-4.7,5.8-4.7c0.4,0,0.7,0,1,0.1l44,8c3.1,0.6,5.2,3.5,4.7,6.6v0.2v0.1l0,0C72.3,440.7,69.3,442.7,66.2,442.1L66.2,442.1z
		 M367.6,492.9H142.5c-4.2,0-7.6-3.4-7.6-7.6s3.4-7.6,7.6-7.6h225.1c4.2,0,7.6,3.4,7.6,7.6S371.8,492.9,367.6,492.9L367.6,492.9z
		 M384,194.2L384,194.2c-2.6,0.3-5,1.6-6.7,3.6c-1.6,2-2.4,4.7-2.1,7.3v256.4c-2.5-0.8-5.1-1.2-7.6-1.2H142.5
		c-2.6,0-5.2,0.4-7.6,1.2V203c0-4.5-3.5-8.3-8-8.7s-8.6,2.7-9.4,7.2c-0.1,0.3-0.2,0.6-0.3,0.9L77.1,415.3c-1.8-0.9-3.7-1.5-5.7-1.9
		l-44-8c-1.9-0.3-3.8-0.4-5.6-0.2l56.6-288.6l85.5-43.8l-21.3,54.8c-1.8,4.5,0.5,9.6,5,11.3l122.7,48.2l18.9,24.8l0.1,219.6
		c0,4.8,3.9,8.7,8.8,8.7l0,0c4.8,0,8.7-3.9,8.7-8.8l-0.1-222.3c0-1.1-0.2-2.1-0.6-3.1c-0.3-0.9-0.8-1.8-1.3-2.6l-19.6-25.7
		l78.1-39.2c4-2,5.9-6.8,4.2-11l-21.3-54.8l85.5,43.8l56.6,288.6l0,0c-1.9-0.1-3.8-0.1-5.6,0.3l-44,8c-2,0.4-3.9,1.1-5.8,2
		l-40.2-211.6V203C392.8,198.1,388.9,194.2,384,194.2L384,194.2z M491.8,431.6c-0.9,1.3-2.2,2.2-3.8,2.5l0,0l-44,8.1
		c-1.5,0.3-3.1,0-4.4-0.9c-1.3-0.9-2.2-2.2-2.4-3.7v-0.1c-0.6-3.2,1.5-6.2,4.7-6.8l44-8l0,0c3.1-0.6,6.2,1.5,6.8,4.6
		C493,428.7,492.7,430.3,491.8,431.6L491.8,431.6z M264.2,244.9h-99.1c-4.8,0-8.8,3.9-8.8,8.8v29.8l0,0c0,4.8,3.9,8.8,8.8,8.8h99.1
		c4.8,0,8.8-3.9,8.8-8.8v-29.8C272.9,248.8,269,244.9,264.2,244.9L264.2,244.9z M255.4,274.7h-81.6v-12.3h81.6V274.7z M264.2,302
		h-99.1c-4.8,0-8.8,3.9-8.8,8.8v29.8c0,4.8,3.9,8.8,8.8,8.8h99.1c4.8,0,8.8-3.9,8.8-8.8v-29.8C272.9,305.9,269,302,264.2,302
		L264.2,302z M255.4,331.8h-81.6v-12.3h81.6V331.8z M185.2,431.5c0,4.2-2.5,8-6.4,9.6c-3.9,1.6-8.3,0.7-11.3-2.2
		c-3-3-3.8-7.4-2.2-11.3c1.6-3.9,5.4-6.4,9.6-6.4C180.6,421.1,185.2,425.8,185.2,431.5L185.2,431.5z M225,431.5c0,4.2-2.5,8-6.4,9.6
		c-3.9,1.6-8.3,0.7-11.3-2.2c-3-3-3.8-7.4-2.2-11.3c1.6-3.9,5.4-6.4,9.6-6.4C220.3,421.1,225,425.8,225,431.5L225,431.5z
		 M264.7,431.5c0,4.2-2.5,8-6.4,9.6c-3.9,1.6-8.3,0.7-11.3-2.2c-3-3-3.8-7.4-2.2-11.3c1.6-3.9,5.4-6.4,9.6-6.4
		C260.1,421.1,264.7,425.8,264.7,431.5L264.7,431.5z"/>
</g>
</svg>
