<svg xmlns="http://www.w3.org/2000/svg" viewBox="0 0 360.62 360.1"><g id="katman_2" data-name="katman 2"><g id="katman_1-2" data-name="katman 1"><path d="M288.51,244.27v55.6h-12v-4.22q0-92.82.07-185.64c0-2.85-.63-4.37-3.48-5.52q-28.78-11.73-57.39-23.86c-2.33-1-3.89-.73-6.07.65-6.31,4-12.82,7.71-19.46,11.13-2.62,1.35-3.8,2.59-3.78,5.73.14,33.13.08,66.26.08,99.39V312.09h93.36c6.93,0,8.67,1.72,8.68,8.58,0,10.62,0,21.25,0,31.87,0,5.41-2.1,7.54-7.45,7.54q-100.53,0-201-.11a9.62,9.62,0,0,1-6.71-3c-20.31-25.75-39.07-52.76-54-81.83-26.75-52-25.3-104.51,2-156.24C33.65,95.43,50.5,75.83,73.49,62.33c10.27-6,21.68-10.13,32.58-15.09,1.81-.83,3.65-1.6,6-2.61l4.89,10.87c-7,3.11-13.81,6.12-20.61,9.17-3.86,1.74-9.15,2.6-11.13,5.61s-.63,8.19-.69,12.41c0,3.25,0,6.49,0,10.34L139,70.33C138,69,137.22,68,136.46,67c-7.25-10.19-12-20.91-8.63-33.93,1.54-5.89,2-12.06,3.13-18.08A17.7,17.7,0,0,1,148.62.07q31.88-.13,63.76,0A17.68,17.68,0,0,1,230,14.94c1.22,6.63,2.35,13.28,3.34,20a5,5,0,0,0,3.4,4.29c11.68,5.06,23.09,10.8,35,15.37C288.65,61.07,302.18,72.12,314.3,85c30.6,32.61,46.05,71.45,46.22,116.16.19,50.12,0,100.25,0,150.38,0,6.68-1.8,8.51-8.38,8.51q-18.75,0-37.5,0c-5.76,0-7.41-1.32-8.29-6.85q-8.56-53.83-17.08-107.67c-.07-.45-.21-.89-.32-1.34ZM174.2,312.08a11.11,11.11,0,0,0,.28-1.51q0-107.05-.09-214.11c0-1.14-1.34-2.69-2.47-3.36-7.07-4.2-14.2-8.29-21.43-12.2a6.16,6.16,0,0,0-4.63-.34c-15.14,6.16-30.21,12.5-45.3,18.8L84.47,106.1v4.47c0,35.38.39,70.76-.19,106.12-.24,15,1.27,29.26,7.62,42.93,2,4.29,3.28,8.9,4.92,13.34a29.7,29.7,0,0,0,1.39,2.8l29.49-39.27,9.49,7.16c-1.07,1.48-1.92,2.7-2.81,3.89-9.82,13.09-19.67,26.16-29.42,39.31-.87,1.17-1.84,3.13-1.44,4.23,2.41,6.54,5.16,13,8,19.36A3.34,3.34,0,0,0,114,312C134,312.1,154,312.08,174.2,312.08ZM71.77,205.91l.43,0V77.53c-1.36,1-2.38,1.65-3.35,2.39A129.44,129.44,0,0,0,36.7,116.17C7.5,164.9,3.94,215.26,28.38,266.73,34.87,280.41,44,292.84,52,305.8c3.33,5.4,6.85,10.69,10.43,16.24L95.1,303.38,42.87,164.23,54.06,160ZM288.54,77.82v4.82c0,21.88-.25,43.76.11,65.63a232.09,232.09,0,0,0,2.48,29.79c5.45,36.94,11.27,73.82,17,110.72,1.19,7.73,2.42,15.45,3.61,23.05h36.47V191.9c-4.9,1.84-9.32,3.5-13.75,5.14-5.4,2-7.72,1.05-10.08-4.24q-11.28-25.31-22.51-50.64c-2.36-5.32-1.51-7.65,3.64-10.25,7-3.54,14-7,21.27-10.67A156.59,156.59,0,0,0,288.54,77.82Zm-102,270h89.69V324.36H186.59Zm-87.87.06h75.49V324.35H118.69c2.78,7.89,2.59,8.43-4.23,13ZM276.53,93c0-7.59.07-14.65-.11-21.72,0-.82-1.33-1.91-2.29-2.35-7.81-3.58-15.69-7-23.54-10.53L233.74,51,222.63,70.58ZM208.05,12.35H153c4.79,7.45,9.46,14.82,14.28,22.08A4.18,4.18,0,0,0,170.19,36q10.31.2,20.62,0a4.19,4.19,0,0,0,3-1.53C198.59,27.17,203.25,19.81,208.05,12.35Zm139,167.1a153.29,153.29,0,0,0-14.63-47.63l-18.07,9.06,19.36,43.56ZM142.37,19.28c-1,5.93-1.39,11.08-2.73,16-2.26,8.22.16,15.23,4.55,21.9,6.28,9.54,15.18,16.05,25.12,21.3a28,28,0,0,0,2.94,1.15C166.44,57.33,157.1,37.48,142.37,19.28Zm76.23,0A156,156,0,0,0,188.69,80c13.44-6.85,24.71-14.83,31-28.16,1.44-3.09,2.85-6.73,2.58-10C221.63,34.59,220,27.38,218.6,19.27Zm99,328.55h30.65V324.33H313.69C315,332.35,316.31,340.08,317.6,347.82ZM99.92,314.48,69.35,331.94l10.54,14c8.53-5.68,16.74-11.1,24.86-16.66a3.21,3.21,0,0,0,1.07-2.87C104.06,322.43,102,318.6,99.92,314.48ZM180.49,64.36l6.22-16.09H174.28C176.32,53.53,178.23,58.49,180.49,64.36Z"/><path d="M269.32,284.48l-9.59,7.21-36-48,9.55-7.24Z"/></g></g></svg>