<svg xmlns="http://www.w3.org/2000/svg" viewBox="0 0 381.44 384"><g id="katman_2" data-name="katman 2"><g id="katman_1-2" data-name="katman 1"><path d="M301.71,384H223a5.89,5.89,0,0,0-1.28-.64c-15.07-3.17-25-12.1-30-26.63a22.46,22.46,0,0,0-1.13-2.32c-5.68,15-12.55,22.74-23.95,27-2.89,1.09-6,1.73-8.93,2.58h-78c-4.2-3.36-4.58-5.07-3.58-9.54,2.33-10.33,5-20.65,6.4-31.12a671.33,671.33,0,0,0,5.66-92.72v-3.54a6.55,6.55,0,0,0-1.68,3.35q-7.92,32.37-15.84,64.73c-2.12,8.66-8.14,12.48-16.73,10.61q-21.21-4.63-42.41-9.35c-9.23-2-13-8.22-10.93-17.49Q12.81,245.67,25,192.38q10.14-44.16,20.29-88.3C48.09,92,56.39,84.71,68.76,83.24a14,14,0,0,0,3.58-1q13.16-5.4,26.28-10.9c3.52-1.47,6.95-3.4,10.91-1.12,5.43-14.63,10.46-29,16.17-43.1a32.87,32.87,0,0,1,8.15-11.32c7-6.48,15.91-9.78,25.07-12C165.44,2.24,172.1,1.25,178.69,0h24c1.2.25,2.39.58,3.6.73C218.41,2.21,230.16,4.89,240.9,11c7.63,4.31,13.25,10.1,16.16,18.78,4.54,13.58,9.87,26.91,14.37,39,4.08.85,7.36,1.09,10.3,2.24,9.18,3.57,18.23,7.5,27.34,11.26a12.57,12.57,0,0,0,3.19.95c13.77,1.69,21.48,8.5,24.53,21.89q22.09,97.28,44.15,194.57c2,8.75-2,14.9-10.83,16.89-13.64,3.08-27.28,6.1-40.92,9.18-10.3,2.33-15.95-1.2-18.38-11.5q-6.84-29-13.72-57.91c-.93-3.92-2-7.79-3-11.69a2.59,2.59,0,0,0-.64,2c.78,25.59,1.1,51.21,2.49,76.77a196.74,196.74,0,0,0,8.86,50C306.59,379,306.21,380.39,301.71,384ZM293,148.69c-9.81,1.6-18.85,2.93-26.43,8.58-5.95,4.43-9.78,3.36-12.37-3.69a42.75,42.75,0,0,0-11-17.13c-.56.53-.95.84-1.27,1.21-14.28,16.06-28.6,32.09-42.76,48.27a9.27,9.27,0,0,0-1.91,5.69q-.16,65.61-.06,131.22a23.16,23.16,0,0,0,.5,5.2q2.67,11.29,5.54,22.54c3.4,13.29,12.87,20.62,26.64,20.64q28.5,0,57,0h3l-9-70.45c-3.89,0-8.48.05-13.08,0-11.2-.15-19.23-8.23-19.4-19.48,0-1.87,0-3.74,0-5.58-.48-.24-.79-.42-1.13-.55-4.13-1.67-5.88-4.2-5.18-7.52s3.22-5.15,7.57-5.18c3.88,0,7.75,0,11.63,0h19C279.85,224,281.61,186.11,293,148.69ZM91.56,371.13c21,0,42.36.35,63.71-.16,9.53-.23,16.67-5.7,20.84-14.37a46,46,0,0,0,3-9.63c1.84-8,4.87-16.05,5-24.1.49-43.87.26-87.74.14-131.61a9.39,9.39,0,0,0-2.1-5.63c-13.69-15.75-27.54-31.37-41.32-47a23.66,23.66,0,0,1-1.87-2.89,44,44,0,0,0-11.54,17.55c-2.69,7.47-6.44,8.63-12.91,3.95-7.64-5.54-16.52-7-26.19-8.4,11.7,37.34,13.54,75.25,12.9,113.64h4.68c9,0,18,0,27,0,3.46,0,5.76,1.77,6.44,5.13s-.87,5.79-4,7.15c-.68.29-1.37.54-2.22.87,0,1.63,0,3.25,0,4.87-.1,12.42-8,20.24-20.5,20.29-4.22,0-8.45,0-12,0C97.52,324.42,94.56,347.64,91.56,371.13ZM324.18,108.31a21.21,21.21,0,0,0-1.32,1.88,232.55,232.55,0,0,0-25.61,77.41c-.7,4.87-1.65,10.12-.58,14.76,7,30.38,14.54,60.65,21.91,90.95,1.64,6.74,3.31,13.47,5,20.29l45.14-10.07ZM57.56,313.55c.37-1.07.77-2,1-2.91q13.32-54.13,26.6-108.28a14.32,14.32,0,0,0,.35-4.79,239.22,239.22,0,0,0-26.16-85.75c-.48-.92-1.1-1.77-2-3.14-15,65.3-29.84,129.94-44.77,195ZM190.68,146.63c7.55-33.09,16.9-65.43,33.8-95.08-19-8.95-50.08-8.59-67.51.13C173.81,81.29,183.1,113.56,190.68,146.63Zm73.45-2.95a97.26,97.26,0,0,1,31.42-8.29c1.06-.09,2.38-1.57,2.93-2.71,4.18-8.76,8.11-17.65,12.29-26.41,2.59-5.42,1.58-8.58-4-11-10.68-4.5-21.37-9-32.09-13.36a4.22,4.22,0,0,0-3.31.05C262.51,87.2,253.82,92.6,245,97.79a3.33,3.33,0,0,0-1.84,4.21c1.38,6.46,2.57,13,3.91,19.43a4.65,4.65,0,0,0,1.34,2.55A57.42,57.42,0,0,1,264.13,143.68Zm-147.66-.3c3.29-4.57,5.53-9.67,9.41-12.62,7.52-5.72,9.4-13.52,10.71-21.92a45,45,0,0,1,1.23-6.24c.73-2.4.19-3.79-2.09-5.12-8.61-5-17.06-10.33-25.66-15.39a4.72,4.72,0,0,0-3.62-.12c-10.72,4.4-21.37,9-32.07,13.42-5.53,2.3-6.64,5.41-4,10.93,4.22,8.88,8.23,17.86,12.47,26.73a4.4,4.4,0,0,0,2.86,2.27A97.35,97.35,0,0,1,116.47,143.38ZM246.68,39.57c-17.74,21.2-47.57,103.1-45.25,123.9,10.75-12,21.43-23.86,32-35.84a4.87,4.87,0,0,0,.88-3.62c-1.44-8-3.1-15.92-4.63-23.88-1.28-6.6-.83-7.53,4.85-10.94L259.62,74.1C255.27,62.51,251,51.21,246.68,39.57ZM121.9,74c9,5.41,17.62,10.67,26.31,15.81,3.48,2.06,4.72,4.76,3.84,8.77-1.81,8.29-3.48,16.61-4.93,25a6.61,6.61,0,0,0,1.25,4.87c9.79,11.19,19.76,22.22,29.68,33.29.55.61,1.22,1.1,2.49,2.24-8.26-44.54-20.29-86.71-45.84-124.44C130.37,51.2,126.2,62.42,121.9,74ZM150.29,39.8c27.14-10.31,53.94-10.22,80.87,0l8.61-13.49c-21.38-18.61-79.58-17.41-98,.15Zm-30,235.66H100.57V288c4.34,0,8.56.07,12.77,0,4.45-.11,6.77-2.54,6.89-7.06C120.28,279.2,120.24,277.47,120.24,275.46Zm140.94-.12c0,2.46-.11,4.56,0,6.65.22,3.28,2.15,5.56,5.29,5.81,4.78.38,9.61.1,14.14.1V275.34Z"/><path d="M171.38,307.17a6.21,6.21,0,0,1-6.37,6.36A6.42,6.42,0,0,1,158.7,307a6.51,6.51,0,0,1,6.27-6.21A6.32,6.32,0,0,1,171.38,307.17Z"/><path d="M158.69,262.18a6.55,6.55,0,0,1,6.69-6.17,6.35,6.35,0,0,1,6,6.77,6.11,6.11,0,0,1-6.4,5.9A6.35,6.35,0,0,1,158.69,262.18Z"/></g></g></svg>