<svg xmlns="http://www.w3.org/2000/svg" viewBox="0 0 346.11 356.84"><g id="katman_2" data-name="katman 2"><g id="katman_1-2" data-name="katman 1"><path d="M177.93,0c4.68,1.63,9.56,2.83,14,5,7.19,3.5,12.27,9.34,16.21,16.3a10.39,10.39,0,0,0,4.62,4.18Q248,40.41,283.35,55a11.36,11.36,0,0,1,6.57,6.56c17.24,39.66,31.36,80.36,40.8,122.6a577.47,577.47,0,0,1,12.42,78.33c1.22,14.69,1.94,29.42,2.92,44.13.43,6.47-1.87,11.27-7.93,14.13a3.48,3.48,0,0,0-1.24,3c1.38,6.81,2.83,13.61,4.56,20.33,1.2,4.68.78,5.94-3.69,7.7a71.52,71.52,0,0,1-29.64,5c-5.05-.23-5.89-1.32-6.21-6.26-.5-7.82-1.34-15.62-2-23.17-9.95-1.65-13.42-5.19-14.42-14.65a774.37,774.37,0,0,0-14.18-86.16c-2.79-12.56-6.09-25-9.18-37.51a27.49,27.49,0,0,0-1.06-2.72c.5,8.67,1.33,16.66,1.33,24.65,0,15.66.15,31.37-1,47-.61,8.28-3.45,16.5-6.07,24.48-1.09,3.31-4,6.15-6.55,8.77-1.3,1.34-1.81,2.29-1.51,4.1.87,5.26,1.47,10.57,2.3,15.85a5.42,5.42,0,0,1-3.17,6.25c-9.36,5-19.57,7.21-29.91,8.72a312,312,0,0,1-81.29.79c-10.84-1.26-21.58-3.25-31.69-7.65-8.15-3.54-7.6-4.84-6.49-10.85.83-4.45,1.37-8.95,1.83-13.45a4.11,4.11,0,0,0-1-3.18,25.57,25.57,0,0,1-9.66-16.09c-2.12-10.9-4.39-22-4.6-33-.34-17.85.94-35.73,1.54-53.6a3.39,3.39,0,0,0-.46-2.19c-1.84,7-3.78,14-5.51,21a865.87,865.87,0,0,0-16.59,88.2c-.8,5.75-1.19,11.55-2,17.3-1.21,9-4.59,12.37-14.28,14-.69,7.32-1.6,14.88-2.06,22.47-.35,5.86-1,6.78-6.92,7A70.7,70.7,0,0,1,7.7,351.51c-3.63-1.49-4.2-2.93-3.26-6.76,1.72-7,3.33-14,4.75-21a3.72,3.72,0,0,0-1.55-3.12c-5.48-2.83-8-7.23-7.6-13.31,1-15.76,1.7-31.54,3.1-47.26a583.05,583.05,0,0,1,12.38-76.58C25.11,140.92,39.38,99.9,57,60.05c.9-2,3.31-3.86,5.45-4.77q35.22-15,70.59-29.56a9.68,9.68,0,0,0,5.21-4.65c6.05-11.21,15.4-18,28-20.4A13.79,13.79,0,0,0,168.17,0Zm-.52,68.52V291.69c21.59,0,42.79-.88,63.64-5.55a9.14,9.14,0,0,0,4.81-3.16c5.32-7,6.38-15.37,7.57-23.9-6.77,1.29-7.11,1.1-9.21-5-.61-1.75-1.2-3.51-1.81-5.26q-9.74-28.11-19.47-56.2c-1.51-4.36-.76-5.83,3.53-7.37,2.3-.82,4.59-1.65,6.89-2.43,4.73-1.62,6.13-1,7.8,3.85q5.75,16.59,11.47,33.2c.47,1.35,1,2.67,1.57,4a7.09,7.09,0,0,0,.6-3.49c-.72-24.28-3-48.42-6.16-72.5a18.17,18.17,0,0,1,1-8.42c6.53-17.24,13.32-34.38,20-51.56,3.31-8.49,6.59-17,10-25.71L211,33.49C208.79,55,193.44,66.83,177.41,68.52Zm-8.7,223.58V68.52c-15.9-1.69-31.29-13.21-33.66-35L66.42,62.21C76.62,88.35,86.69,114,96.61,139.79a16.22,16.22,0,0,1,1,7.07c-1.86,20.58-4,41.12-5.83,61.7-.44,5-.06,10.11-.06,15.74.57-1.44,1-2.43,1.37-3.45,4-11.61,8.06-23.22,12.14-34.82,1.41-4,2.88-4.71,6.85-3.4,2.53.83,5,1.73,7.55,2.63,4.3,1.54,5,3,3.53,7.37-2.85,8.34-5.76,16.66-8.65,25q-6.6,19.06-13.23,38.12c-1.43,4.09-2.61,4.68-6.75,3.62a14.8,14.8,0,0,0-1.83-.22c.87,7.51,2.2,14.54,5.55,21,1.85,3.58,4.55,5.94,8.84,6.48,8.85,1.11,17.64,2.9,26.52,3.65C145.16,291.26,156.77,291.52,168.71,292.1ZM61.19,70.88c-.66,1.31-1.17,2.2-1.57,3.14A650.48,650.48,0,0,0,23.15,186,590.59,590.59,0,0,0,10.8,263.59C9.51,278,8.8,292.55,8,307c-.26,4.57,1.07,6,5.6,6.73,10.66,1.67,21.32,3.34,32,4.9,4.54.67,6.41-1,6.94-5.54.95-8.18,1.76-16.39,3-24.54,7.11-48.28,17.38-95.83,33.29-142a8.45,8.45,0,0,0-.13-5.26c-3.12-8.49-6.48-16.88-9.78-25.31ZM285,71.07c-.35.69-.59,1.08-.76,1.51q-13.53,34.67-27,69.36a7.29,7.29,0,0,0,.1,4.61c18.44,54.15,29.94,109.8,36.26,166.58.51,4.57,2.4,6.19,7,5.53q15.33-2.22,30.62-4.64c6.45-1,7.2-2,6.95-8.4a675.33,675.33,0,0,0-11-99.56A647.26,647.26,0,0,0,286.48,74C286.08,73.07,285.56,72.18,285,71.07ZM173.65,7.32c-4.72,1.17-8.9,1.74-12.73,3.24-8.62,3.37-10.86,9.27-7.25,17.83,3.5,8.33,7.05,16.63,10.53,25,3.22,7.71,4.33,8.42,12.63,7.1a4.21,4.21,0,0,0,2.85-1.94c4.63-10.74,9.24-21.49,13.55-32.36,2.43-6.13.23-11.81-5.81-14.51C183,9.65,178,8.66,173.65,7.32ZM168.8,321.1V300.64l-62-4.69c-.24,1.71-.56,4.23-1,6.73-1.42,9-1.44,9,7.4,11.67C131.26,319.72,149.77,320.59,168.8,321.1Zm8.46.45c11.55-.93,22.71-1.23,33.67-2.87,9.45-1.41,18.68-4.28,28-6.66.93-.24,2.31-1.63,2.24-2.37-.49-4.91-1.32-9.79-1.89-13.74l-62,4.77Zm-159.41,1L13.1,345.68c5.74,1,11.35,2.39,17,2.88,7.43.63,5.92.74,6.37-5.73.19-2.65.44-5.31.81-7.94.42-2.94,1-5.86,1.59-9.07Zm289.76,3.21c.77,7.4,1.47,14.5,2.3,21.59a2.15,2.15,0,0,0,1.58,1.35A53.12,53.12,0,0,0,332.88,345c-1.59-7.64-3.1-14.93-4.66-22.41ZM113.07,190.94l-1.28.41c-6.72,19.41-13.45,38.82-20.25,58.45l3,.94c6.64-19.08,13.22-38,19.68-56.88C114.5,193.11,113.49,191.92,113.07,190.94Zm141.48,58.81-20.24-58.39c-2.7,0-3.09,1-2.29,3.23,3.43,9.59,6.7,19.23,10,28.85,3.14,9.05,6.29,18.09,9.5,27.35ZM156.64,55.93c-4.26-10.09-8.17-19.38-12.25-29C140.79,35.68,146.53,49.38,156.64,55.93Zm45.16-29.3L189.56,55.75C199.31,49.92,205.06,36.45,201.8,26.63Z"/><path d="M187.37,172.62c.74,1,2.51,2.33,2.78,3.93.37,2.26-1.3,3.91-3.78,3.93a3.54,3.54,0,0,1-3.84-3.61C182.4,174.48,183.69,173,187.37,172.62Z"/><path d="M190.89,228.61c-1.52,1-2.92,2.67-4.58,3-2.16.41-3.68-1.25-3.79-3.53-.11-2.44,1.38-4.27,3.69-4,1.64.19,3.1,1.88,4.65,2.9Z"/><path d="M187.36,275.06c.77,1,2.54,2.39,2.79,4,.35,2.25-1.3,3.89-3.8,3.9a3.53,3.53,0,0,1-3.82-3.63C182.4,276.91,183.75,275.48,187.36,275.06Z"/><path d="M187.68,70.26c.64,1,2.31,2.48,2.46,4.09.2,2.27-1.56,3.81-4,3.66a3.56,3.56,0,0,1-3.58-3.88C182.55,71.74,183.94,70.32,187.68,70.26Z"/><path d="M185.39,129.79c-1-1.54-2.8-3.15-2.68-4.6s2.16-3.29,3.63-3.58a3.21,3.21,0,0,1,3.8,3.75c-.25,1.61-2,3-3.07,4.48Z"/><path d="M106,110.48a22,22,0,0,1,21.94-21.94,22.22,22.22,0,0,1,21.86,21.78c.2,11.84-9.9,22-21.87,22.1A22,22,0,0,1,106,110.48Zm35.74.11a13.85,13.85,0,0,0-13.79-14,13.91,13.91,0,1,0,13.79,14Z"/><path d="M187.47,313.89c-3.71-.25-5.34-1.85-4.83-4.08a5.77,5.77,0,0,1,3.68-3.61,3.2,3.2,0,0,1,3.83,3.72C189.92,311.52,188.18,312.92,187.47,313.89Z"/></g></g></svg>