<svg xmlns="http://www.w3.org/2000/svg" viewBox="0 0 394.93 408.45"><g id="katman_2" data-name="katman 2"><g id="katman_1-2" data-name="katman 1"><path d="M185.5,408.45c-7.74-1-15.51-1.92-23.22-3.16a184.88,184.88,0,0,1-43.11-12.49c-12-5.11-17.16-14.8-17.15-27.57q0-41.28,0-82.55v-4.22l-.75-.16c-.56,1.25-1.18,2.48-1.67,3.76q-18.43,48.35-36.85,96.71c-3.86,10.14-4.19,10.35-15,8.4-1.61,3.7-3.19,7.47-4.88,11.2-3.5,7.7-9.19,10.5-17.45,8.58-4.39-1-8.8-2-13.13-3.29-8.19-2.38-12-9.49-9.62-17.71,1-3.54,2.25-7,3.36-10.49-6.59-4-7-5.22-4.89-12.78C20.09,296.33,38.9,229.94,58,163.65c7.75-26.82,26-42.08,53.56-46.27.89-.14,1.78-.31,3.13-.55-1-7.11-1.91-14-2.9-21-.88-6.18-2-12.33-2.61-18.53a12.72,12.72,0,0,1,1.54-7.14c9.13-15.59,18.36-31.11,27.83-46.49C147.58,9.09,160.86,1,178,.31A340.77,340.77,0,0,1,216.22.8c14.19,1.06,25.22,8.57,33.39,20.08C261.07,37,272.32,53.3,283.72,69.49a11.62,11.62,0,0,1,2,9c-1.84,11.81-3.47,23.65-5.15,35.48a17.57,17.57,0,0,0,0,2.61c5.47,1.29,10.88,2.11,16,3.85,21.11,7.17,34.36,22,40.44,43.19q28.51,99.5,56.84,199c2.16,7.57,1.7,8.78-4.89,12.78,1.15,3.59,2.43,7.2,3.47,10.88,2.19,7.79-1.61,14.91-9.35,17.22-4.83,1.44-9.75,2.6-14.67,3.69-6.69,1.48-12.35-1.25-15.6-7.44-1.11-2.11-2-4.35-2.91-6.54L347.08,387c-1.23.29-2.24.51-3.25.76-5.59,1.41-8.21.05-10.39-5.65q-11.38-29.75-22.69-59.52c-5.61-14.74-11.23-29.48-17.64-44.24-.07,1.3-.19,2.61-.19,3.91q0,40.68,0,81.35c0,16.53-5.81,24.94-21.2,30.83A202.16,202.16,0,0,1,212.5,407.8a22.08,22.08,0,0,0-3.07.65Zm194.33-45.12c-15.19-53.15-30.3-106-45.43-158.91-1.28,0-2.07,0-2.86,0-15.17-.18-16.92-1.46-21.62-15.76q-.81-2.46-1.63-4.91c-4.11-12.26-11.38-22.19-22.33-29.13a162.47,162.47,0,0,0-14.4-7.67c-11.15-5.59-13.15-10.55-9.26-22.49,2.12-6.53,4.26-13.09,5.74-19.77,1.33-6,1.78-12.18,2.62-18.36-4.16.18-5.65,2.06-5.11,5.7.17,1.17-.05,2.4,0,3.59.5,7.28-2.56,12.43-8.93,16-6.15,3.42-12.13,7.15-18.13,10.82-6.23,3.81-12.25,8.33-20.22,4.12V393.91c8-1.53,15.5-3.17,23.09-4.34,3.28-.51,4-1.93,3.9-5-.21-13.68,6-23.91,17.49-31,4.07-2.5,8.07-5.17,12.34-7.28,3.4-1.68,4.18-4,4.17-7.58-.13-32-.08-64.06-.06-96.09a29.61,29.61,0,0,1,.29-5.16c.61-3.44,2.71-5.38,6.29-5.44,6.37-.12,12.74-.27,19.11-.28,10,0,16.86,4.67,20.7,13.91q13.11,31.62,26.31,63.21c3.46,8.3,2.6,16-2.92,23.23-3.88,5.06-7.71,10.16-11.42,15.35-.76,1.05-1.56,2.8-1.19,3.82,2.58,7.35,5.46,14.6,8.32,22.1Zm-329.62,10c3.09-8.06,6.11-15.7,8.87-23.43a5,5,0,0,0-.84-3.87C55,341.4,51.51,336.84,48,332.31c-5.61-7.27-6.78-15.05-3-23.52,1.45-3.28,2.75-6.62,4.13-9.93q11.1-26.64,22.19-53.28c3.63-8.74,10-13.52,19.55-13.78,5.71-.16,11.43-.15,17.14,0,4.95.11,7.29,2.48,7.61,7.33.09,1.33,0,2.66,0,4,0,32.3,0,64.6,0,96.9,0,2.72.71,4.4,3.2,5.66,3.31,1.68,6.34,3.9,9.61,5.66,14,7.48,21.87,18.57,21.35,34.91,0,.92.79,2.54,1.48,2.71,6.14,1.46,12.34,2.66,19,4.05v-5.06c0-10.9.12-21.8,0-32.7-.81-64.88,4-129.29,15.93-193.12.38-2,.87-4.33.31-6.21-3.28-11.07-6.68-22.1-10.39-33-3.1-9.15-9-16.5-17.56-20.86-10.86-5.52-22.19-10.12-33.33-15.1-.15-.07-.44.17-.66.26A136.71,136.71,0,0,0,133.34,127c3.25,8.39.33,14.78-7.66,18.86-3.9,2-7.88,3.84-11.76,5.87A53.78,53.78,0,0,0,87.29,182.1c-1.39,3.87-2.6,7.8-4,11.68-2.53,7.23-7,10.46-14.59,10.63a33.15,33.15,0,0,1-4.78,0c-2.57-.32-3.71.69-4.42,3.19Q37.8,284,16,360.31a22.78,22.78,0,0,0-.45,3.14ZM203.9,394.43V149.89l-1.05,0C185.1,230.34,182.31,312,184.2,394.43ZM233.77,60.66C225.93,45,218.58,30.16,211,15.44c-.51-1-2.53-1.66-3.86-1.68-8.63-.15-17.26,0-25.89-.15-2.66,0-4,.87-5.13,3.21-6.83,13.93-13.82,27.78-20.73,41.66-.42.86-.67,1.81-1.17,3.2C180.72,57.21,206.71,56.09,233.77,60.66ZM211.06,72.05c-10.77,0-21,0-31.18,0-2.2,0-3,.94-2.95,3.16.11,6.91-.11,13.82.13,20.72a13.38,13.38,0,0,0,2.08,5.69c3.17,5.62,6.9,11,9.71,16.77,2.19,4.51,3.34,9.52,5.14,14.91.55-1.34.9-2,1.12-2.79,3.15-10.77,7-21.19,15-29.52A3.88,3.88,0,0,0,211,98.5C211.08,89.76,211.06,81,211.06,72.05ZM296,245.6c11.35,29.81,22.55,59.19,34,89.15,3.35-4.49,6.61-8.22,9.05-12.43a9.2,9.2,0,0,0,.6-7.08Q326.34,282.46,312.4,250a8.24,8.24,0,0,0-5.19-4.16C303.8,245.11,300.15,245.6,296,245.6ZM65.6,333l33.33-87.55c-3.2,0-6-.56-8.36.16s-5.22,2.27-6.06,4.23q-14.07,32.7-27.4,65.72a8.76,8.76,0,0,0,.68,6.67C59.85,325.92,62.7,329.13,65.6,333ZM330.4,190.29c-2.61-9-5-18-7.91-26.94-3.22-10-9.51-17.92-18.07-24.07-8.39-6-18.16-7.78-28-9.18-.78-.11-1.79,1.41-3.06,2.49,3.46,1.73,6.13,2.91,8.64,4.37,5.82,3.42,11.92,6.49,17.25,10.56,13,9.91,20.14,23.7,24.3,39.16C324.53,190.43,326.31,191.82,330.4,190.29ZM120.62,132.85c.06-2.61-1.12-3.28-3.48-2.62a32.3,32.3,0,0,1-4.31.72C95.47,133.49,82.07,142,74.69,158.12c-3.67,8-5.51,16.85-8.14,25.33-.71,2.31-1.28,4.67-1.9,7,4,1.14,6,0,6.73-3.68a60.63,60.63,0,0,1,2.44-7.57c5.18-15.24,14.31-27.52,28-36.12C107.8,139.25,114.32,136.23,120.62,132.85Zm144-67.22C254.32,51.35,244.78,38,235.06,24.79c-1.43-1.94-3.66-3.3-5.53-4.92,6.23,14.27,13,27.91,19.9,41.49a4.81,4.81,0,0,0,2.9,2.25C255.94,64.4,259.62,64.84,264.63,65.63ZM116.23,360.52c-2.3,14.68,3.26,19.72,19.63,23.48C136.29,372.83,129.1,366.23,116.23,360.52Zm162.43,0c-12.17,5.39-20.78,12.58-19.29,23.73C276.57,379.34,281.6,373.15,278.66,360.51Zm-53.78-271L252.74,78.2l-.22-.77L224.88,73Zm-5.12,21.17c2.94,3.53,5.62,4.21,9.57,1.47,6.19-4.28,12.81-8,19.39-11.67,2.93-1.64,3.95-3.59,2.67-7C240.36,98.38,228.18,101,219.76,110.68ZM158,22.76l-.89-.76C145.89,35,139,50.83,130.07,65.66c3-.59,6.8-1.16,7.89-3.18C145,49.42,151.4,36,158,22.76Zm-138.66,356-3.83,11.73L29.94,394l4.63-10.91Zm341,4.4c1.65,3.85,3.14,7.32,4.67,10.91l14.42-3.63c-1.33-4-2.56-7.67-3.9-11.67ZM163,88.61V74l-22.26,3.79v.85Z"/><path d="M129.36,237.94c0-8.24-.05-16.47,0-24.7.08-10.3,5.21-15.42,15.43-15.48,2,0,4,0,6,.09,6.73.45,12.25,5.57,12.38,12.26.25,13.15.13,26.3,0,39.44,0,4.47-2.4,7.84-5.93,10.3-5.56,3.87-11.16,7.67-16.89,11.27-5.51,3.46-10.85.51-11-6.09C129.24,256,129.37,247,129.36,237.94Zm14-26.43v40.8c4.88-1.58,6.77-4.37,6.5-9.48-.47-8.87-.13-17.79-.13-26.68v-4.64Z"/></g></g></svg>