<svg xmlns="http://www.w3.org/2000/svg" viewBox="0 0 379.59 349.09"><g id="katman_2" data-name="katman 2"><g id="katman_1-2" data-name="katman 1"><path d="M289.49,269.09q-1.46,18.68-2.92,37.34c-.36,4.73-.58,9.48-1.1,14.2s-2.59,6.85-7.25,7.74q-24.66,4.67-49.31,9.29c-5.55,1-9.19-1.8-9.78-7.46-.71-6.78-.71-6.9-7.51-6.93q-22.86-.09-45.74,0c-4.94,0-4.94.11-5.29,5.23a22.76,22.76,0,0,1-.27,3c-.91,4.52-4.53,7.11-9.07,6.27q-25.22-4.68-50.41-9.51c-4.46-.85-6.38-3.31-6.81-8.56-.89-10.84-1.65-21.68-2.48-32.52a169.86,169.86,0,0,0-2.09-18.11c-.34,1-.68,2.07-1,3.11q-10.09,33.51-20.18,67C66,346.84,63,349.07,55,349.08q-21.37,0-42.75,0c-9.4,0-13.72-5.4-11.81-14.58C14.32,267.77,28,201,42.18,134.36,47.46,109.6,54.09,85.12,60,60.5,61.78,53.22,66,47.73,71.8,43.24c12.48-9.62,26.67-16.09,41-22.41a21.16,21.16,0,0,0,6.07-4.14c4.11-4,8-8.23,11.9-12.47C134,.67,137.67-.5,142.48.25a304.58,304.58,0,0,0,94.82,0C242-.5,245.82.46,248.71,4.1c8.51,10.67,19.19,17.9,31.85,23.22,9.67,4.06,18.45,10.36,27.34,16.1,6.19,4,10,10,11.73,17.23,6.18,25.72,13.05,51.29,18.56,77.15,14,65.43,27.33,131,40.93,196.48,2,9.42-2.3,14.77-11.92,14.79q-21.37,0-42.75,0c-7.76,0-10.83-2.3-13.05-9.67q-10.09-33.51-20.2-67c-.34-1.14-.76-2.26-1.14-3.39ZM154.27,298.75c5.61-62.06,11.18-123.68,16.77-185.59H98.23c-1.25,0-2.82.4-3.67-.2-1.47-1-3.53-2.78-3.45-4.1.1-1.59,2-3.32,3.48-4.49.79-.61,2.41-.2,3.66-.2H171.9c.79-9.33,1.74-18.28,2.2-27.24a28,28,0,0,0-1.45-9.53c-1.84-5.89-4.14-11.63-6.39-17.82-3.94,5.27-7.92,10.63-11.95,15.95-5.11,6.76-13.63,6.3-17.84-1.06-3.91-6.82-7.61-13.77-11.41-20.65-2.7-4.9-5.42-9.79-8.24-14.88-14.21,6.23-28,12.5-40.19,21.92a20.57,20.57,0,0,0-7.85,11.52c-4.39,17.81-9.39,35.48-13.22,53.41-15.15,71-30,142.15-44.87,213.25-.72,3.47-1.25,7-1.87,10.48a13.14,13.14,0,0,0,2.08.51c15.12,0,30.24.06,45.37,0a3.38,3.38,0,0,0,2.65-1.44c1.5-4.28,2.7-8.65,4.13-13.41-13,0-25.36,0-37.72,0-1.37,0-3.1.31-4-.38-1.4-1.06-3.13-2.91-3.07-4.34s2-3,3.46-4c.88-.6,2.43-.24,3.68-.24,12.25,0,24.5-.07,36.75,0,2.62,0,3.92-.61,4.72-3.33,6.61-22.37,13.44-44.69,20.07-67.06a22.08,22.08,0,0,0,.79-7.72q-3-40.36-6.18-80.73-3.47-44.66-7-89.31c-.24-3.06.93-5.37,4.07-5.67s4.66,1.74,4.89,4.85c.62,8.1,1.35,16.19,2,24.28q3.9,50.83,7.77,101.67Q98,254.84,102.77,316.5c.18,2.33,1,3.25,3.19,3.64,6.51,1.12,13,2.44,19.5,3.66,8.56,1.61,17.11,3.2,26,4.86.49-4.81,1.09-9.25,1.36-13.71.55-9.13,1.76-6.83-6.61-8.23-13.3-2.24-26.65-4.11-40-6.19-2.79-.44-4.67-2-4.28-5.09s2.49-4.08,5.38-3.82c.5,0,1,.07,1.49.14,8.76,1.37,17.52,2.76,26.28,4.11C141.37,296.84,147.64,297.76,154.27,298.75ZM213.72,50c-9.79,17.19-9.32,35.36-5.36,54.14H281.5c1.13,0,2.58-.4,3.31.15,1.52,1.16,3.66,2.81,3.68,4.28s-2.06,3.19-3.56,4.39c-.7.56-2.17.17-3.3.17H208.57c5.62,62.14,11.19,123.67,16.78,185.51,2-.26,3.64-.42,5.22-.66q20.37-3.13,40.72-6.3c3-.45,5.64-.08,6.36,3.49.6,3-1.19,4.83-5.15,5.45-6.66,1.05-13.33,2.05-20,3.08l-26.28,4.12c.63,7,1.23,13.79,1.86,20.85,15.92-3,31.37-5.9,46.79-8.95.77-.15,1.73-1.68,1.81-2.64.88-9.83,1.59-19.67,2.34-29.51q2.79-36.24,5.56-72.5,3.23-41.86,6.5-83.72,2.48-31.75,5-63.52c.32-4,2.26-5.92,5.07-5.54S305.29,65.06,305,69q-2.83,35.88-5.62,71.75c-2.2,28.28-4.48,56.55-6.51,84.84-.49,6.78-1.6,14,.07,20.37,5.33,20.26,11.81,40.22,17.88,60.28,1,3.22,1.19,7.68,3.4,9.23,2.39,1.67,6.7.7,10.17.72,10.63.05,21.25,0,31.88.05,4.17,0,6.83,3.21,4.9,6.1a7.67,7.67,0,0,1-5.52,2.74c-11.62.25-23.25.12-34.87.14-1.29,0-2.57.12-4.14.21,1.22,4.07,2.47,7.6,3.31,11.23.62,2.72,2,3.55,4.69,3.53,14-.13,28-.05,42-.07,4.26,0,4.47-.31,3.58-4.58-14.38-68.91-28.57-137.86-43.25-206.7-4.78-22.44-10.71-44.65-16.44-66.87A19.35,19.35,0,0,0,305,52.84c-12.25-11-27.26-17.23-42.17-23.93-.94,1.62-1.71,2.89-2.42,4.19-5.73,10.38-11.37,20.82-17.2,31.15-4.3,7.63-12.8,8.1-18,1.14C221.25,60.12,217.31,54.83,213.72,50Zm1.64,238.58c-.36-4.32-.66-8.29-1-12.26q-4.34-47.56-8.7-95.13c-3-32.71-5.87-65.41-8.91-98.11a49.61,49.61,0,0,1,3.52-23.76c2.57-6.32,3.51-13.29,5.26-20.34H173.89c2,7.52,3.36,14.64,5.83,21.34,2.29,6.22,4,12.34,3.38,19q-1.64,18.84-3.33,37.67-3.59,39.74-7.21,79.47-3.23,35.44-6.43,70.89c-.64,7-1.24,14.06-1.87,21.27ZM164.58,37.23c-4.74-5.46-9.25-10.62-13.71-15.82-2.38-2.77-2.47-5.42-.35-7.24s4.74-1.33,7.14,1.38c3.48,3.93,6.82,8,10.39,11.82a6,6,0,0,0,3.74,1.86q18,.22,35.94,0a6,6,0,0,0,3.76-1.83c3.34-3.54,6.47-7.29,9.66-11,3-3.48,5.58-4.25,7.89-2.36s2,4.66-1,8.1c-4.24,4.91-8.5,9.8-13,15l18.82,25.46C241.44,49,248.32,36.48,255.22,24c-4.46-4.7-8.59-9.21-12.94-13.5a5.51,5.51,0,0,0-3.9-1.21c-5.09.47-10.14,1.36-15.23,1.89A318.87,318.87,0,0,1,141,9.21a4.33,4.33,0,0,0-3.31.91c-4.48,4.5-8.79,9.17-13.25,13.88l21.36,38.71C152.53,53.57,158.51,45.47,164.58,37.23Zm51.6,260.61H163.41c-.5,5.61-1,10.87-1.45,16.21h55.75C217.19,308.52,216.7,303.34,216.18,297.84Z"/><path d="M128.09,157.38c-4.61-1.4-9.09-2.21-13-4.1-5.6-2.68-10.81-6.16-16.2-9.28-2.68-1.55-3.83-3.76-2.21-6.53s4.19-2.69,6.8-1.17l13.89,8.07q10.64,6.19,21.25,0c4.52-2.64,9-5.31,13.56-7.9,3.17-1.81,5.78-1.42,7.18,1s.56,4.89-2.59,6.76c-5,3-10,6.23-15.23,8.73C137.29,154.88,132.64,155.9,128.09,157.38Z"/><path d="M128.07,122.1c8.62,0,17.24,0,25.86,0,4.07,0,6,1.53,6,4.53s-2,4.45-6.09,4.45q-25.86,0-51.71,0c-.5,0-1,0-1.5,0-2.7-.23-4.57-1.48-4.61-4.38,0-3.07,1.79-4.56,4.74-4.57,9.12,0,18.24,0,27.35,0Z"/><path d="M162.63,71.8a6,6,0,0,1,6.14,6.14,6.16,6.16,0,0,1-6,5.94,6,6,0,0,1-6.06-6.2A5.82,5.82,0,0,1,162.63,71.8Z"/><path d="M134,139.59a6,6,0,0,1-5.82,6.11,6.12,6.12,0,0,1-6.39-5.95,6.11,6.11,0,1,1,12.21-.16Z"/><path d="M155.39,241.31a5.91,5.91,0,0,1-6.11,6.13,6,6,0,1,1,.19-12.07A5.9,5.9,0,0,1,155.39,241.31Z"/><path d="M148.31,317.3a6.1,6.1,0,1,1-5.77-6.17A6.12,6.12,0,0,1,148.31,317.3Z"/><path d="M161.51,160.86a6.06,6.06,0,0,1-6.1,6.21,6.29,6.29,0,0,1-6-6,6.06,6.06,0,0,1,6.18-6.12A5.85,5.85,0,0,1,161.51,160.86Z"/><path d="M251.79,157.35c-4.57-1.37-8.94-2.13-12.79-4-5.72-2.75-11.06-6.27-16.56-9.47-2.52-1.47-3.6-3.66-2.17-6.29,1.54-2.86,4.07-3,6.73-1.43,4.86,2.8,9.7,5.66,14.58,8.44a19.42,19.42,0,0,0,20.29,0c4.78-2.7,9.47-5.56,14.24-8.27,3.08-1.75,6-1.31,7.11,1.16,1.31,2.89.2,5-2.48,6.54-5.2,3-10.2,6.35-15.59,8.9C261,154.94,256.28,155.92,251.79,157.35Z"/><path d="M251.92,122.1c8.62,0,17.24,0,25.86,0,4,0,6.05,1.59,5.87,4.59-.22,3.57-2.65,4.41-5.74,4.41q-26.24,0-52.46,0c-3.11,0-5.5-.9-5.69-4.47-.16-2.92,1.8-4.51,5.56-4.53C234.19,122.07,243.05,122.1,251.92,122.1Z"/><path d="M232.54,245.88c-1.5,0-3,.1-4.49,0-2.6-.22-4.23-1.78-4.27-4.32,0-2.74,1.62-4.44,4.41-4.57a89.26,89.26,0,0,1,9,0,4.15,4.15,0,0,1,4.27,4.32c.05,2.77-1.64,4.35-4.4,4.57C235.54,246,234,245.89,232.54,245.88Z"/><path d="M217.67,82.52h-4.11c-2.85,0-4.53-1.56-4.66-4.27a4.11,4.11,0,0,1,4-4.55,55.77,55.77,0,0,1,9.67,0,4.07,4.07,0,0,1,3.92,4.61c-.16,2.59-1.73,4-4.37,4.17C220.65,82.57,219.16,82.52,217.67,82.52Z"/><path d="M239.82,311.93c1.36,0,2.74-.1,4.1,0,2.74.23,4.41,1.71,4.39,4.54a4.09,4.09,0,0,1-4.2,4.34,70.7,70.7,0,0,1-9.32,0,4.07,4.07,0,0,1-4-4.49c.05-2.61,1.63-4.12,4.21-4.36C236.57,311.81,238.2,311.93,239.82,311.93Z"/><path d="M224.66,156.58c1.62,0,3.51-.53,4.77.13,1.61.85,3.7,2.62,3.75,4.06s-1.88,4.09-3.31,4.37a27.55,27.55,0,0,1-10.32,0c-1.44-.28-3.17-2.7-3.46-4.37-.44-2.51,1.49-4,4.1-4.2,1.49-.1,3,0,4.47,0Z"/><path d="M251.56,133.55a6.3,6.3,0,0,1,6.27,6.16,6.11,6.11,0,0,1-12.2.29A6.24,6.24,0,0,1,251.56,133.55Z"/></g></g></svg>