<?xml version="1.0" encoding="utf-8"?>
<!-- Generator: Adobe Illustrator 26.0.0, SVG Export Plug-In . SVG Version: 6.00 Build 0)  -->
<svg version="1.1" id="katman_1" xmlns="http://www.w3.org/2000/svg" xmlns:xlink="http://www.w3.org/1999/xlink" x="0px" y="0px"
	 viewBox="0 0 409.6 409.6" style="enable-background:new 0 0 409.6 409.6;" xml:space="preserve">
<style type="text/css">
	.st0{display:none;fill:#FFFFFF;}
</style>
<g id="katman_2_00000151507715522555496510000011365808615239986080_">
	<g id="katman_1-2">
		<path d="M304.2,409.6H105.4c-12.8-4.2-16.2-13.7-16.1-26.3c0.4-41.6,0.2-83.3,0.2-125v-3.9c-1.4,5.2-2.4,10.4-3.2,15.7
			c-3.4,21.4-6.8,42.8-10.2,64.2c-0.5,3.1-1.8,6-4.9,6.5c-3.4,0.6-4.2,2.6-4.7,5.3c-0.3,1.6-0.7,3.1-1.1,4.7
			c-3.1,11.6-11.1,17.9-23.2,18c-4.8,0.1-9.6,0.1-14.4,0c-15.1-0.1-23.9-9.6-23.1-24.7c0.1-1.2-0.2-2.9-0.9-3.4
			c-3.3-2.2-3.2-5.3-2.8-8.5c4.7-31.8,9.3-63.7,14-95.5c7.5-51.4,14.8-102.9,22.5-154.3c3-19.6,12.9-35,31.4-43.3
			c28.3-12.8,56.9-25,85.4-37.4c1.7-0.7,3.6-1,5.4-0.9c30.3-0.1,60.7-0.1,91,0c1.7-0.1,3.4,0.2,5.1,0.8c28.3,12.3,56.5,24.6,84.7,37
			c12,5.1,21.7,14.6,27,26.5c4.6,9.9,5.3,20.5,6.9,31c5.3,35.1,10.4,70.2,15.5,105.3c5.2,35.4,10.5,70.7,15.7,106.1
			c1.2,8,2.6,15.9,3.9,23.9v6.4l-4.2,4c0.1,1.3,0.2,2.5,0.3,3.6c1,12.8-6,21.8-18.8,23.1c-7.7,0.7-15.4,0.7-23.1,0
			c-9-0.7-14.8-5.9-17.4-14.6c-1-3.3-1.8-6.7-2.9-9.9c-0.4-1.1-1.3-2-2.5-2.4c-4.2-1-6.1-3.6-6.8-7.7c-2.8-18-5.7-36-8.5-53.9
			c-1.3-8.5-2.7-17-4.1-25.5l-0.6,0.1v4.4c0,42.8-0.1,85.6,0,128.5c0,7.8-2.7,14-9,18.5C309.7,407.4,306.8,408.3,304.2,409.6z
			 M178.3,225.8c-0.3,0.7-0.5,1.1-0.6,1.6c-1.2,3.9-3.9,5.3-7.7,4.7s-5.5-3-5.5-6.7c0-4.7-0.1-9.3,0-14c0.1-3.6,2.1-5.7,5.6-6.2
			s6,0.8,7.3,4.1c0.3,0.8,0.7,1.6,0.9,2.2h6.2c0.3-6.4,0.3-12.3-2.1-18.3c-8-19.1-15.4-38.5-23.1-57.7c-1-2.3-1.7-4.7-2.2-7.2
			c-1.9-10.6-3.4-21.3-5.4-31.8c-0.5-2.1-1.6-4-3.2-5.4c-8.6-7.2-17.3-14.1-26-21.2c-6.9-5.6-7.2-7.2-2.6-14.6
			c6-9.6,12-19.2,17.9-28.8c0.6-1,1.1-2.1,2.1-4c-22.7,10.1-44.6,19.6-66.3,29.6c-12.9,5.9-20.4,16.5-22.5,30.5
			c-5.5,36.8-10.7,73.7-16,110.5c-5.2,36.3-10.5,72.6-15.7,108.9c-1.2,8.4-2.4,16.8-3.6,25.2c0.5,0.2,1,0.3,1.5,0.4
			c14.5,0,29,0,43.5,0.1c2.7,0,2.8-1.6,3.1-3.5c8.2-52.5,16.4-105.1,24.7-157.6c1-6.4,3.6-9.5,7.9-9.2c4.4,0.3,6.4,3.4,6.4,10.1v1.6
			c0,72.4,0,144.8,0,217.2c0,7.3,2.8,9.8,10,9.3c11.4-0.8,22.4-3.4,32.3-9.2c23.4-13.6,37.3-33.6,38.9-60.7c1.1-19,0.4-38,0.5-57.1
			c0-0.7-0.1-1.4-0.2-2.1c-0.8-0.1-1.5-0.2-2.1-0.2c-1.3,0-2.6,0-4,0c-0.3,0.6-0.5,1.1-0.7,1.6c-1.6,4-4,5.6-7.9,4.9
			c-3.8-0.7-5.3-3.2-5.4-6.8c0-4.5,0-9,0-13.6c0.1-3.5,2-5.7,5.4-6.4c4-0.8,6.1,0.8,8.5,6.4h6v-26.9H178.3z M232.1,211.8
			c0.2-0.6,0.5-1.2,0.7-1.9c1.2-3.6,3.8-5.1,7.4-4.6s5.7,2.8,5.7,6.5c0.1,4.8,0.1,9.6,0,14.4c0.1,2.9-2.1,5.5-5,5.9
			c-2.9,0.6-5.6,0-7.3-2.8c-0.6-1.1-1.1-2.2-1.5-3.4H226v26.8h6.1c0.2-0.6,0.4-0.9,0.5-1.3c1.5-4.1,4-5.8,7.8-5.1
			c3.9,0.7,5.6,3.3,5.6,7.1c0,4.5,0.1,9.1-0.1,13.6c-0.3,5-5.1,8-9.4,5.6c-2-1.1-3.2-3.5-5.1-5.7h-5.6c0,18.8-0.5,37.3,0.1,55.8
			c1.3,39.6,30.6,70,70.1,73.2c9.2,0.8,11.5-1.4,11.5-10.6V168.5c0-1.2,0-2.4,0-3.6c0.2-4.2,2.5-7,5.9-7.3c3.7-0.3,7.1,2.4,7.7,6.1
			c0.8,3.8,1.3,7.6,1.9,11.4c6.3,38.8,12.5,77.7,18.8,116.5c1.9,11.8,3.8,23.5,5.7,35.3h47.7c-0.8-5.2-1.5-10.1-2.2-14.9
			c-5.4-37.1-10.9-74.2-16.3-111.3c-5.5-37.5-11.3-74.9-16.4-112.5c-2.4-17.7-10-31.2-26.8-38.5c-19.5-8.5-39-16.8-58.5-25.2
			c-1-0.4-2.1-0.8-4-1.5c7.4,11.9,14.4,23.1,21.3,34.3c3.1,5,2.7,7.6-1.8,11.4c-6.3,5.2-12.2,10.8-19,15.2
			c-9.2,6-13.8,13.7-14.5,24.7c-0.5,8-1.7,16.3-4.5,23.8c-7.9,21.3-16.9,42.2-24.9,63.4c-1.9,4.9-1.6,10.5-2.4,16.1L232.1,211.8z
			 M187.2,41.8c3,4.8,6,9,8.3,13.6c1.6,2.9,2.5,6,2.8,9.3c1,45.1-0.5,90.1,1.1,135.2c1.5,39.7,0.5,79.6,0.2,119.3
			c0.1,22.4-8.3,43.9-23.5,60.3c-5.4,5.9-11.7,11-17.3,16.2h93.3l-1.8-1.4C225.9,375.9,212,352,212,320.8c0-85.4,0-170.8,0.1-256.3
			c0.1-2.5,0.8-4.9,2-7.1c2.8-5.2,6-10.2,9.3-15.7L187.2,41.8z M278.1,60.8L253,20.7c-9.1,14.4-17.8,28.2-26.4,42.1
			c-0.6,1.3-0.9,2.7-0.9,4.2c-0.1,30.2-0.1,60.4,0,90.6c0,0.9,0.2,1.9,0.5,3.9c3.9-10,7.5-18.9,10.9-27.8c1.1-2.6,1.9-5.2,2.5-7.9
			c2.1-11.5,4.1-23,5.9-34.6c0.5-3.7,2.5-7,5.5-9.2C260.1,75.1,269,67.9,278.1,60.8L278.1,60.8z M133,60
			c9.3,7.4,18.4,14.3,27.2,21.6c2.4,1.9,4.1,4.4,5,7.3c1.9,7.8,3.2,15.6,4.1,23.6c1.6,16.1,9.1,30,15,44.6c0.4-0.8,0.6-1.7,0.6-2.6
			c0-29.3,0-58.5-0.1-87.8c-0.1-1.8-0.6-3.6-1.6-5.2c-6.2-10.1-12.5-20.1-18.8-30.1c-2.1-3.4-4.3-6.8-6.7-10.7
			C149.2,34,141.2,46.8,133,60z M170.1,14.4c2.8,4.5,5.1,8.3,7.7,12c0.8,0.9,2,1.4,3.2,1.4c16.3,0.1,32.7,0.1,49,0
			c1,0,2.4-0.2,2.8-0.8c2.6-4,5-8.1,7.7-12.6L170.1,14.4z M357.2,341.5c0.7,2.8,1.3,5.1,1.8,7.4c0.9,4.1,3.5,6.1,7.6,6.2
			c5.9,0.1,11.7,0.2,17.6,0c6.1-0.2,9-4.5,7.1-10.4c-0.4-1.3-2-3.1-3.1-3.1C378.2,341.4,368.1,341.5,357.2,341.5z M53.2,341.5h-29
			c-4.6,0-6.9,3.2-5.7,7.7c1.1,4.1,4.4,5.6,8.1,5.8c5.6,0.3,11.2,0.2,16.8,0c3.3,0.1,6.3-2,7.4-5.2
			C51.7,347.4,52.3,344.8,53.2,341.5L53.2,341.5z"/>
		<path class="st0" d="M409.6,331.3c-1.3-8-2.8-15.9-3.9-23.9c-5.3-35.3-10.5-70.7-15.7-106.1c-5.2-35.1-10.3-70.2-15.6-105.3
			c-1.6-10.5-2.3-21.2-6.9-31c-5.3-11.9-15-21.4-27-26.5c-28.2-12.4-56.4-24.7-84.7-37c-1.6-0.6-3.3-0.9-5.1-0.8
			c-30.3,0-60.7,0-91,0c-1.9-0.1-3.7,0.3-5.4,0.9c-28.5,12.4-57.1,24.6-85.4,37.4c-18.4,8.3-28.4,23.7-31.4,43.3
			c-7.8,51.4-15,102.9-22.5,154.3c-4.6,31.8-9.3,63.7-14,95.5c-0.5,3.2-0.6,6.3,2.7,8.5c0.8,0.5,1,2.3,0.9,3.4
			c-0.8,15.1,8,24.5,23.1,24.7c4.8,0.1,9.6,0.1,14.4,0c12-0.1,20.1-6.4,23.2-18c0.4-1.5,0.8-3.1,1.1-4.7c0.5-2.7,1.3-4.7,4.7-5.3
			c3.2-0.5,4.4-3.4,4.9-6.5c3.3-21.4,6.7-42.8,10.2-64.2c0.7-5.3,1.8-10.5,3.2-15.7v3.9c0,41.6,0.2,83.3-0.2,125
			c-0.1,12.6,3.3,22.1,16.1,26.3H0V0h409.6V331.3z"/>
		<path d="M164.4,307.9c0,4,0.1,8.1,0,12.2c-0.2,8.9-5.7,14.3-14.6,14.5c-4.4,0-8.8,0.1-13.2,0c-7,0-12.7-5.6-13-12.6
			c-0.3-4.6-0.1-9.3-0.1-14.1l-2.3-0.9c-3.5-1.3-5-3.9-4.5-7.5s2.9-5.6,6.6-5.7c7.4-0.1,14.9-0.1,22.3-0.1h15.9c5.8,0,8.4,1.4,9.2,5
			C171.7,303.1,170.1,305.5,164.4,307.9z M137.4,307.6v13.1h13.1v-13.1H137.4z"/>
		<path d="M286.9,307.8c0,4.1,0.1,8.2,0,12.3c-0.2,9.2-5.6,14.4-14.8,14.5c-4,0-8,0.1-12,0c-8.1-0.2-13.7-5.6-14.1-13.8
			c-0.2-4.2,0-8.5,0-11.1c-2.8-3.3-5.5-5.3-6.3-7.9c-1.4-4.2,1.5-7.8,6-7.9c14-0.2,27.9-0.1,41.8,0c3.5,0,5.7,2.2,6.1,5.7
			s-0.9,6-4.2,7.3C288.6,307.2,287.9,307.4,286.9,307.8z M259.9,307.6v13.1H273v-13.1H259.9z"/>
	</g>
</g>
</svg>
