<?xml version="1.0" encoding="utf-8"?>
<!-- Generator: Adobe Illustrator 26.0.0, SVG Export Plug-In . SVG Version: 6.00 Build 0)  -->
<svg version="1.1" id="katman_1" xmlns="http://www.w3.org/2000/svg" xmlns:xlink="http://www.w3.org/1999/xlink" x="0px" y="0px"
	 viewBox="0 0 348.2 384.1" style="enable-background:new 0 0 348.2 384.1;" xml:space="preserve">
<style type="text/css">
	.st0{display:none;fill:#FFFFFF;}
</style>
<g id="katman_2_00000103261491908740690320000017019288288167663292_">
	<g id="katman_1-2">
		<path d="M214,0c3.7,4.2,7.4,8.4,11.2,12.5c1.2,1.4,2.7,2.5,4.4,3.3c24.2,12.2,49.3,22.4,74.6,32.1c27.8,10.7,43.8,34.1,44,63.9
			c0,9.9,0,19.8,0,29.6c0,0.7,0,1.5,0,2.2c-0.4,3.6-2.5,5.7-5.8,5.7s-5.4-2.3-5.4-5.9c-0.1-10.8,0-21.5-0.1-32.2
			c-0.1-14.1-4.2-27-14-37.3c-4.5-4.7-9.8-9.3-15.6-12c-13.6-6.4-27.8-11.6-42.2-17.4c-0.8,1.5-1.5,2.6-2.1,3.8
			c-8,16-16,31.9-23.9,47.9c-0.9,1.9-1.3,3.9-1.2,6c1.2,15.6,2.7,31.1,3.7,46.7c0.1,2.7-0.8,5.3-2.4,7.4
			c-18.5,23.6-37.2,47.1-56,70.4c-2.4,2.8-3.7,6.5-3.5,10.2c0.1,31.4,0,62.7,0.1,94.1c0,19.2,10.2,34,27.4,39.6
			c3.9,1.3,8,1.9,12.1,2c18.1,0.2,36.2,0.1,54.4,0.1c0.7,0,1.4-0.1,2.5-0.1V152c0-1.2,0-2.5,0-3.8c0.2-3.5,2.5-5.8,5.6-5.8
			s5.4,2.3,5.6,5.8c0.1,1.1,0,2.2,0,3.4v190.6h49.4V173.1c0-5.9,1.6-8.5,5.4-8.6s5.9,2.8,5.9,8.7c0,67.5,0,135,0,202.5
			c0,3.5-0.6,6.4-3.7,8.4H214c-0.7-0.3-1.4-0.5-2.1-0.6c-9.2-1.2-17.9-5.2-24.8-11.4c-4.8-4.4-8.8-9.7-13.3-14.6
			c-0.4,0.6-1.1,1.6-1.7,2.6c-6.7,10.8-17.3,18.8-29.6,22.1c-2.6,0.8-5.3,1.3-8,1.9H4c-2.8-1.9-3.7-4.6-3.7-8
			C0.4,309.7,0.4,243.3,0.4,177c0-1.3,0.1-2.7,0.5-4c0.7-2.6,3.2-4.2,5.8-3.8c2.6,0.1,4.8,2.2,4.9,4.8c0.1,1.4,0.1,2.7,0.1,4.1
			c0,53.1,0,106.2,0,159.4v4.8H61V151.7c0-1.2-0.1-2.5,0-3.8c0.1-3.1,2.7-5.5,5.8-5.3c2.9,0.1,5.2,2.4,5.3,5.3c0.1,1.2,0,2.5,0,3.8
			v221.1h3.7c17.1,0,34.3,0,51.4,0c23.6,0,40.9-16.3,41.2-39.9c0.4-33.1,0.2-66.2,0-99.4c-0.2-1.8-0.9-3.5-2.1-4.9
			c-18.9-23.9-37.9-47.8-56.9-71.6c-2.1-2.4-3.2-5.7-2.8-8.9c1.4-15.4,2.7-30.9,3.9-46.3c0.2-1.5-0.1-3-0.6-4.3
			C101.5,80.3,93,63.3,84.4,46.2c-0.3-0.5-0.6-1-1-1.5l-19.8,7.8c-6.1,2.4-12.4,4.6-18.4,7.4c-21.6,9.8-32.7,26.8-33.5,50.3
			c-0.4,12.4-0.1,24.7-0.1,37.1c0,3.4-1.1,5.9-4.8,6.5c-3.2,0.6-6.4-1.5-6.3-4.9c0.3-17.9-2.3-36.1,1.8-53.8
			c5.2-22.7,19.4-38.3,41-46.7c25.1-9.8,50.2-19.7,74.2-32c3.2-1.6,5.8-4.5,8.4-7.1c3-3,5.7-6.2,8.6-9.3L214,0z M94,40.1
			c0.7,1.5,1.3,2.7,1.9,3.9c8.2,16.5,16.6,33,24.7,49.6c1.1,2.3,1.5,4.9,1.3,7.5c-1.1,15.2-2.6,30.4-3.7,45.6c0,1.8,0.6,3.6,1.7,5
			c9.4,12,18.9,23.9,28.4,35.8l13.8,17.2l0.7-0.3l-41.7-177L94,40.1z M185.7,205c0.4-0.2,0.9-0.5,1.2-0.8
			c14.1-17.7,28.1-35.4,42.1-53.1c0.9-1.3,1.3-2.8,1.2-4.4c-1.2-15.1-2.6-30.1-3.7-45.2c-0.2-2.9,0.3-5.9,1.6-8.5
			c8-16.5,16.3-32.8,24.5-49.2c0.6-1.2,1.1-2.4,1.7-3.7l-27-12.7C213.5,86.7,199.7,145.5,185.7,205z M171.5,100.8
			c-0.2,0.3-0.4,0.7-0.6,1.1c-3.6,13.2-7.2,26.5-10.7,39.7c-0.2,1.3-0.1,2.7,0.2,4c4.1,17.9,8.3,35.7,12.5,53.5
			c0.3,1.2,0.7,2.4,1.4,4.7c0.5-1.7,0.7-2.3,0.8-2.9c3.6-15.2,6.8-30.4,10.8-45.5c2.2-8.3,2.5-16.1-0.3-24.4
			c-3.3-9.9-5.6-20.1-8.3-30.3L171.5,100.8z M143.1,71.5L166.4,49l-29.6-34.3c-5.1,3.4-6.2,7.6-4.1,12.8c1,2.4,1.2,5.1,1.8,7.6
			C137.4,47.4,140.3,59.7,143.1,71.5z M211.8,14.7l-29.3,34l22.9,23.1c3.4-14.7,6.6-29.6,10.6-44.3C217.4,22,216.7,18.1,211.8,14.7z
			 M60.9,354H11.8v18.5h49.1C60.9,372.5,60.9,354,60.9,354z M336.6,372.7V354h-48.8v18.7H336.6z M148.9,11.5L174.3,41l25.4-29.5
			H148.9z M174.4,57.7c-3.6,3.5-6.9,6.7-10.1,10.1c-0.6,0.9-0.8,2.1-0.5,3.2c1.9,5.5,4.2,10.9,6.1,16.4c0.9,2.6,2.8,1.9,4.6,2
			s3.4,0.3,4.2-2c1.9-5.5,4.2-10.9,6.1-16.4c0.3-1.1,0.1-2.3-0.5-3.2C181.1,64.4,177.8,61.2,174.4,57.7z M154.1,118.5h0.6
			c2-7.3,4-14.6,5.9-21.9c0.2-0.6,0.2-1.2,0-1.8c-2-5.5-4.2-11-6.6-17.3c-2.6,2.8-4.7,4.9-6.6,7.2c-0.6,0.9-0.9,1.9-0.7,3
			C149.2,97.9,151.7,108.2,154.1,118.5z M193.8,118.4l0.6,0.2c2.5-10.4,4.9-20.8,7.3-31.2c0.2-0.8,0-1.7-0.4-2.4
			c-2.1-2.4-4.4-4.7-6.9-7.4C192,83.7,190,89,188,94.3c-0.2,0.8-0.2,1.7,0,2.6C189.8,104,191.8,111.2,193.8,118.4z"/>
		<path class="st0" d="M134.5,384c2.7-0.6,5.4-1.2,8-1.9c12.3-3.4,22.9-11.3,29.6-22.1c0.6-1,1.3-2,1.7-2.6
			c4.4,5,8.4,10.3,13.3,14.6c6.9,6.2,15.6,10.2,24.8,11.4c0.7,0.2,1.4,0.4,2.1,0.6H134.5z"/>
		<path d="M117.7,266.8c9.5,0,19,0,28.5,0c4.7,0,7,1.8,7.1,5.3c0.1,3.7-2.4,5.9-7,5.9c-19.2,0-38.5,0-57.7,0c-4.4,0-7-2.2-7-5.6
			s2.6-5.6,7.3-5.6C98.4,266.8,108,266.8,117.7,266.8z"/>
		<path d="M45.4,316.3c0.1,4.1-3.3,7.6-7.4,7.6h-0.1c-4.2-0.1-7.5-3.5-7.5-7.7c0.1-4,3.4-7.3,7.4-7.3c4-0.2,7.4,3,7.6,7
			C45.4,316.1,45.4,316.2,45.4,316.3z"/>
		<path d="M45.4,288.3c0.1,4.1-3.1,7.4-7.2,7.5c-0.1,0-0.2,0-0.3,0c-4,0-7.4-3.2-7.5-7.3c0-4.2,3.3-7.6,7.5-7.8
			C42,280.7,45.4,284.1,45.4,288.3C45.4,288.2,45.4,288.3,45.4,288.3z"/>
		<path d="M231.1,278c-9.2,0-18.5,0-27.7,0c-1.5,0.1-3-0.1-4.4-0.5c-2.7-0.9-4.4-3.1-3.5-5.8c0.6-1.9,2.8-3.4,4.4-4.8
			c0.5-0.5,1.7-0.2,2.6-0.2h57.3c0.5,0,1,0,1.5,0c3.3,0.2,5.6,2.3,5.8,5.2c0.1,3.1-2.2,5.7-5.3,5.9c-0.1,0-0.1,0-0.2,0
			c-3.4,0.2-6.7,0.1-10.1,0.1L231.1,278z"/>
		<path d="M318.3,316.5c0.1,4.2-3.1,7.6-7.3,7.8c-4.2,0.1-7.6-3.1-7.8-7.3c0-0.3,0-0.7,0-1c0.4-4.1,4.1-7.2,8.2-6.7
			C315.3,309.6,318.2,312.7,318.3,316.5z"/>
		<path d="M318.3,288.3c-0.3,4.1-3.9,7.3-8,7c-3.7-0.2-6.7-3.2-7-6.9c-0.3-4.1,2.8-7.8,6.9-8.1c4.1-0.3,7.8,2.8,8.1,6.9
			C318.3,287.6,318.3,288,318.3,288.3z"/>
	</g>
</g>
</svg>
