<?xml version="1.0" encoding="utf-8"?>
<!-- Generator: Adobe Illustrator 26.0.0, SVG Export Plug-In . SVG Version: 6.00 Build 0)  -->
<svg version="1.1" id="katman_1" xmlns="http://www.w3.org/2000/svg" xmlns:xlink="http://www.w3.org/1999/xlink" x="0px" y="0px"
	 viewBox="0 0 551.7 551.4" style="enable-background:new 0 0 551.7 551.4;" xml:space="preserve">
<g>
	<path d="M551.5,507.1c-39-372.9-77.7-441-79.3-443.7l-0.1-0.1c-0.3-0.4-0.6-0.8-1.1-1.2c-29.5-21.6-71.3-33.3-102-39.4
		c-6.6-16-22.2-21.9-31.5-22.7c-0.1,0-0.1,0-0.2,0s-0.1,0-0.2,0H214.7c-0.1,0-0.1,0-0.2,0s-0.1,0-0.2,0c-9.3,0.8-24.9,6.7-31.5,22.7
		c-30.7,6.1-72.5,17.8-102,39.4c-0.4,0.3-0.8,0.7-1.1,1.2l-0.1,0.1C78,66.1,39.3,134.1,0.2,507.2c-0.5,7.1-1.3,17.9,11.8,22
		c0.2,0.1,0.3,0.1,0.5,0.1l48.1,8.8c0.3,0.1,0.5,0.1,0.8,0.1c8.7,0,18-2,21.8-16.5l31-132.7l-4.6,140.5c0,13.8,9.1,18.9,15.9,21.6
		c0.5,0.2,1,0.3,1.6,0.3h297.5c0.5,0,1.1-0.1,1.6-0.3c6.8-2.6,15.9-7.8,15.9-21.7L437.5,389l31,132.8c3.7,14.5,13.1,16.4,21.7,16.4
		c0.3,0,0.5,0,0.8-0.1l48.1-8.8c0.2,0,0.4-0.1,0.5-0.1C552.8,525.1,552,514.4,551.5,507.1L551.5,507.1z M363.4,39.5
		c0,19-28.9,60.9-43.7,80.3l-35.8-46.6c39.1-8.3,54.6-45.3,57.3-63.6C348.7,11.7,363.4,18.3,363.4,39.5L363.4,39.5z M275.9,77.3
		L289,94.4v448.3h-26.2V94.3L275.9,77.3z M326.9,26.3h-102c-3-6.9-4.7-13.2-5.4-17.5h112.8C331.6,13.1,329.9,19.4,326.9,26.3
		L326.9,26.3z M322.4,35.1c-8.3,14-22.7,27.8-46.5,30.6c-23.8-2.8-38.2-16.6-46.5-30.6H322.4z M210.7,9.6
		c2.6,18.3,18.2,55.3,57.3,63.6L232,120c-11.2-13.8-43.6-58.6-43.6-80.6C188.4,18.3,203.1,11.7,210.7,9.6z M74.8,519.6
		c-1.9,7.5-4.8,9.8-12.9,9.8l-47.5-8.6c-5.1-1.7-6.1-4-5.5-12.8c1.7-16.4,3.4-32.3,5.2-47.5l71.2,13.6L74.8,519.6z M87.4,465.5
		l-72.2-13.8C44.1,198.3,72.1,106,82.7,78.2l31.4,102.1c4.3,19.7,4.3,59.4,4.3,80.7v1.4l-2.7,81.7L87.4,465.5z M118.4,529.6l8.8-267
		v-1.5c0-23.2,0-61.9-4.6-82.9L88.5,67.4c26.7-18.6,63.3-29.3,91.7-35.2c-0.3,2.3-0.6,4.7-0.6,7.2c0,28.5,43.7,85,49.4,90.6
		c0.8,0.8,1.9,1.3,3.1,1.3c0.1,0,0.2,0,0.3,0c1.2-0.1,2.4-0.7,3.2-1.7l18.4-23.9v436.9H128C121,539.7,118.4,536.1,118.4,529.6
		L118.4,529.6z M423.8,542.6h-126V105.7l18.4,23.9c0.8,1.1,2.1,1.7,3.4,1.7l0,0c1.3,0,2.6-0.6,3.4-1.7c2-2.5,49.1-62.4,49.1-90.2
		c0-2.6-0.2-5-0.6-7.2c28.4,5.9,65,16.6,91.7,35.2L429,178.5c-4.5,20.7-4.5,59.4-4.5,82.6l8.8,268.4
		C433.4,536.1,430.8,539.7,423.8,542.6L423.8,542.6z M433.4,262.6v-1.5c0-21.3,0-61,4.2-80.3l31.5-102.5
		c10.6,27.8,38.6,120.2,67.5,373.5l-72.3,13.8L436,344.2L433.4,262.6z M537.3,520.8l-47.5,8.6c-8-0.1-10.9-2.3-12.9-9.7l-10.6-45.6
		l71.3-13.6c1.7,15.2,3.4,31,5.1,47.4C543.4,516.8,542.5,519.2,537.3,520.8L537.3,520.8z"/>
	<path d="M57.1,485.7c-7.2,0-13.1,5.9-13.1,13.1s5.9,13.1,13.1,13.1s13.1-5.9,13.1-13.1S64.4,485.7,57.1,485.7z M57.1,503.2
		c-2.4,0-4.4-2-4.4-4.4s2-4.4,4.4-4.4s4.4,2,4.4,4.4S59.6,503.2,57.1,503.2z"/>
	<path d="M494.7,485.7c-7.2,0-13.1,5.9-13.1,13.1s5.9,13.1,13.1,13.1s13.1-5.9,13.1-13.1S501.9,485.7,494.7,485.7z M494.7,503.2
		c-2.4,0-4.4-2-4.4-4.4s2-4.4,4.4-4.4s4.4,2,4.4,4.4S497.1,503.2,494.7,503.2z"/>
	<path d="M227.8,161.9H149c-7.2,0-13.1,5.9-13.1,13.1v91.4c0,14.7,11.9,26.7,26.5,26.7h51.9c14.6,0,26.5-12,26.5-26.7V175
		C240.9,167.8,235,161.9,227.8,161.9z M144.7,175.1c0-2.4,1.9-4.4,4.3-4.4h78.8c2.4,0,4.3,2,4.3,4.4v13.2c0,9.6-7.8,17.5-17.5,17.5
		H162c-9.6,0-17.5-7.8-17.5-17.5L144.7,175.1z M214.4,284.5h-51.9c-9.8,0-17.8-8.1-17.8-18v-58.8c4.6,4.2,10.8,6.7,17.5,6.7h52.6
		c6.7,0,12.8-2.6,17.5-6.7v58.7C232.1,276.4,224.2,284.5,214.4,284.5L214.4,284.5z"/>
	<path d="M415.9,266.5v-91.4c0-7.2-5.9-13.1-13.1-13.1H324c-7.2,0-13.1,5.9-13.1,13.1v91.4c0,14.7,11.9,26.7,26.5,26.7h51.9
		C404,293.2,415.9,281.2,415.9,266.5z M319.7,175.1c0-2.4,1.9-4.4,4.3-4.4h78.8c2.4,0,4.3,2,4.3,4.4v13.2c0,9.6-7.8,17.5-17.5,17.5
		H337c-9.6,0-17.5-7.8-17.5-17.5L319.7,175.1z M319.7,266.5v-58.8c4.6,4.2,10.8,6.7,17.5,6.7h52.6c6.7,0,12.8-2.6,17.5-6.7v58.7
		c0,9.9-8,18-17.8,18h-51.9C327.6,284.4,319.7,276.4,319.7,266.5z"/>
	<path d="M157.8,371.9H149c-4.8,0-8.8,3.9-8.7,8.3l-8.8,92.3c0,4.8,3.9,8.8,8.8,8.8h8.8c4.8,0,8.8-3.9,8.7-8.3l8.8-92.3
		C166.5,375.9,162.6,371.9,157.8,371.9z M149,472.6l-8.8,0.4l8.8-92.3l8.8-0.4L149,472.6z"/>
	<path d="M402.8,371.9H394c-4.8,0-8.8,3.9-8.7,9.2l8.7,91.5c0,4.8,3.9,8.8,8.8,8.8h8.8c4.8,0,8.8-3.9,8.7-9.2l-8.7-91.5
		C411.5,375.9,407.6,371.9,402.8,371.9z M402.8,472.6l-8.8-91.9l8.8,0.4l8.7,91.5H402.8z"/>
	<path d="M188.2,196.9c2.4,0,4.4-2,4.4-4.4s-2-4.4-4.4-4.4s-4.4,2-4.4,4.4S185.8,196.9,188.2,196.9z"/>
	<path d="M367.4,192.6c0,5.8-8.8,5.8-8.8,0S367.4,186.7,367.4,192.6"/>
	<path d="M280.3,113.8c0,5.8-8.8,5.8-8.8,0S280.3,108,280.3,113.8"/>
	<path d="M280.3,161.9c0,5.8-8.8,5.8-8.8,0S280.3,156.1,280.3,161.9"/>
	<path d="M280.3,210.1c0,5.8-8.8,5.8-8.8,0S280.3,204.2,280.3,210.1"/>
	<path d="M280.3,258.2c0,5.8-8.8,5.8-8.8,0S280.3,252.4,280.3,258.2"/>
	<path d="M280.3,306.3c0,5.8-8.8,5.8-8.8,0S280.3,300.5,280.3,306.3"/>
	<path d="M280.3,354.5c0,5.8-8.8,5.8-8.8,0S280.3,348.6,280.3,354.5"/>
	<path d="M280.3,402.6c0,5.8-8.8,5.8-8.8,0S280.3,396.7,280.3,402.6"/>
	<path d="M280.3,450.7c0,5.8-8.8,5.8-8.8,0S280.3,444.9,280.3,450.7"/>
	<path d="M280.3,498.8c0,5.8-8.8,5.8-8.8,0S280.3,493,280.3,498.8"/>
</g>
</svg>
