<?xml version="1.0" encoding="utf-8"?>
<!-- Generator: Adobe Illustrator 26.0.0, SVG Export Plug-In . SVG Version: 6.00 Build 0)  -->
<svg version="1.1" id="katman_1" xmlns="http://www.w3.org/2000/svg" xmlns:xlink="http://www.w3.org/1999/xlink" x="0px" y="0px"
	 viewBox="0 0 40.6 57.1" style="enable-background:new 0 0 40.6 57.1;" xml:space="preserve">
<g id="Layer_30">
	<path d="M39.8,32.6c-0.7-6.1-1.7-13.8-3.2-23.1l0,0C36.2,7.6,34,6,29.9,4.8c-1.2,0-2-0.7-2.6-2.2C26,0.2,22.5-0.5,16.5,0.3
		c-3,0.2-4.7,1.6-5.1,4.2c-0.9,0.4-1.8,0.7-2.8,1C5.9,6,4.4,6.7,3.9,7.9c-0.7,0.9-1.6,3.3-2.1,11.9c-0.1,4.4-0.6,8.8-1.3,13.1
		c-0.5,1.4-0.6,2.9-0.5,4.4c0.3,0.7,1.4,1.5,6.7,1.7c0.2,0,0.3-0.1,0.4-0.2c0.7-1.3,0.9-2.8,0.5-4.2c0.7-1.9,0.9-3.9,0.7-5.8
		c-0.3-1.8-0.3-3.7,0-5.6c0.7,3.3,0.9,6.7,0.7,10.1c0,0.1,0,0.1,0,0.2c0,0.4-0.1,0.8-0.1,1.2c-2.2,7-2.9,11.9-2.2,14.8
		c0.5,3.9,4.4,6.4,11.4,7.4c0.1,0.2,0.4,0.3,0.7,0.2c0,0,0.1,0,0.1-0.1l1.3,0.1c0.2,0,0.3-0.1,0.4-0.2c0.3-0.4,1.6-1,5.9-0.5
		c2.5,0.2,4.4-1.6,5.7-5.4c1-1.5,1-4.5,0.1-9.1c-0.2-1.5-0.5-3.1-1-4.5c-1.4-3.8-0.6-8.1,0-12.2c0.3,3.2,0.7,6.4,1.3,9.3
		c0,2.4,0,4,1.5,4.2c2-0.1,4.1-0.4,6-1c0.2-0.1,0.3-0.2,0.3-0.4C40.7,35.6,40.5,34,39.8,32.6z M27.2,4.5c0.4,1,0.6,2.1,0.6,3.1
		c-0.2-0.5-0.6-0.8-1.1-1c0.3-1,0.3-2,0-3C26.8,3.9,27,4.2,27.2,4.5z M15.5,1.5c0.4-0.1,0.8-0.1,1.2-0.2c3.9-0.6,6.7-0.4,8.4,0.4
		c0.2,0.6,0.4,1.2,0.6,1.8c-3.8-1.4-7.9-1.4-11.7,0C14.1,2.7,14.7,1.9,15.5,1.5z M12.3,5L12.3,5c0.1-0.7,0.3-1.3,0.6-1.9
		c-0.2,1-0.3,2-0.1,2.9c-0.1,0.8-0.5,1.6-1.1,2.2C11.8,7.2,12,6.1,12.3,5z M6.5,37.9c-4.3-0.2-5.3-0.8-5.5-1c0-1.1,0.1-2.2,0.3-3.2
		c1.8,0.6,3.6,1,5.5,1.2C7,35.9,6.9,36.9,6.5,37.9z M18.2,55.8c-6.4-1-9.9-3.2-10.4-6.6c-0.7-2.7,0.1-7.5,2.2-14.4l0.1-1.3
		c2.1-3.6,2.9-7.8,2.2-11.8c0-0.3-0.3-0.5-0.6-0.4c-0.3,0-0.5,0.3-0.4,0.6c0.5,3.2,0.1,6.4-1.1,9.4c0-2.6-0.2-5.3-0.7-7.9
		c0.5-2.4,0.6-4.9,0.3-7.4c0-0.3-0.3-0.5-0.5-0.5c-0.3,0-0.5,0.3-0.5,0.5c0.1,1.5,0.2,3.1,0.1,4.6l0,0c-0.4-1.4-0.8-2.8-1.3-4.1
		c-0.1-0.3-0.3-0.4-0.6-0.4c-0.3,0.1-0.4,0.3-0.4,0.6c0,0,0,0.1,0,0.1c0.5,1.3,0.9,2.6,1.2,4c-0.7,2.6-0.9,5.3-0.5,8
		c0.2,1.7,0,3.5-0.5,5.1c-1.8-0.2-3.6-0.5-5.3-1.1c0.7-4.3,1.1-8.6,1.3-12.9C3.4,11.5,4.2,9.2,4.7,8.6V8.5C4.9,8.5,5,8.3,5,8.1
		C5.3,7.7,6.3,7,8.7,6.6l0,0c0.8-0.2,1.5-0.4,2.3-0.7c-1,4.1,0.5,5.4,2.4,1.6c0.4,0.5,0.8,1,1.3,1.4c2.5,3.3,3.6,6.3,3.3,9
		C18.6,26.8,18.6,39.6,18.2,55.8z M19.8,56l-0.6-0.1c0.4-16.3,0.4-29.1,0-38.1c0.2-2.5-0.6-5.1-2.5-8l0.2,0.1c1.3,1,2.3,3.4,2.8,7.3
		c0,0.1,0,0.3,0,0.4C20.3,28.5,20.3,41.4,19.8,56z M19.9,13.1c-0.3-1.6-1.2-3.1-2.5-4.2h-0.1c-0.7-0.2-1.3-0.5-1.8-0.8l0,0
		c-0.7-0.5-1.3-1.3-1.6-2.1c-0.1-0.4-0.1-0.9-0.1-1.3c3.9-1.6,8.2-1.6,12.1,0.1c0.2,0.8,0,1.6-0.5,2.2c-0.1,0-0.1,0.1-0.1,0.1v0.1
		c-0.1,0.3-0.5,0.7-1,1C22.1,9.1,20.5,10.9,19.9,13.1z M31.9,19.5c1.5-2.6,2.4-5.6,2.6-8.6c0-0.3-0.2-0.5-0.5-0.6s-0.5,0.2-0.5,0.4
		c-0.1,2.9-1,5.8-2.5,8.3c-0.1,0.1-0.1,0.2-0.1,0.2c-0.4,3.7-0.8,7-1.1,9.7c-1,4.9,0.9,8.5,1.5,12.9c1.1,5.4,0.7,7.6,0.1,8.4
		c-1.1,3.3-2.7,5.2-4.7,4.9C23.9,55,22,55,20.8,55.5c0.4-14.4,0.4-27.2,0-38L20.7,17c-0.5-3.9,0.8-6.5,3.9-7.9
		c0.7-0.3,1.2-0.8,1.5-1.4c0.1,0,0.2,0,0.3,0C26.6,7.7,27,8,27.5,9.3c0.1,0.3,0.4,0.4,0.6,0.3c0.1,0,0.2-0.1,0.2-0.2
		c0.6-0.7,0.7-2,0.2-3.8c0.4,0.1,0.7,0.2,1.1,0.2c3.7,1.1,5.7,2.4,6,3.9c1.5,9.1,2.5,16.7,3.2,22.7c-1.2,0.5-2.5,0.8-3.8,1.1
		c-0.5-2-0.7-4-0.7-6.1c0-0.3-0.2-0.5-0.5-0.5s-0.5,0.2-0.5,0.5c0,2.1,0.2,4.2,0.7,6.2l-0.6,0.1C32.7,29.1,32.1,24.3,31.9,19.5z
		 M39.5,36.7c-1.7,0.5-3.6,0.8-5.4,0.8c-0.4-0.2-0.5-0.7-0.5-2.8l1.2-0.2l0,0c1.5-0.3,2.9-0.7,4.3-1.2
		C39.5,34.4,39.6,35.6,39.5,36.7z"/>
</g>
</svg>
