<?xml version="1.0" encoding="utf-8"?>
<!-- Generator: Adobe Illustrator 26.0.0, SVG Export Plug-In . SVG Version: 6.00 Build 0)  -->
<svg version="1.1" id="katman_1" xmlns="http://www.w3.org/2000/svg" xmlns:xlink="http://www.w3.org/1999/xlink" x="0px" y="0px"
	 viewBox="0 0 60.5 60.7" style="enable-background:new 0 0 60.5 60.7;" xml:space="preserve">
<path d="M46.3,22c0-0.5-0.2-1-0.6-1.4c-0.4-0.4-0.9-0.6-1.4-0.6h-6c-0.5,0-1,0.2-1.4,0.6c-0.4,0.4-0.6,0.9-0.6,1.4v3.5
	c0,0.3,0.1,0.6,0.2,0.9c0.1,0.3,0.3,0.5,0.6,0.7l3,2.2c0.3,0.3,0.8,0.4,1.2,0.4s0.9-0.1,1.2-0.4l3-2.2c0.2-0.2,0.4-0.4,0.6-0.7
	c0.1-0.3,0.2-0.6,0.2-0.9V22z M44.3,25.5l-3,2.2l-3-2.2V22h6V25.5z"/>
<path d="M22.3,20h-6c-0.5,0-1,0.2-1.4,0.6c-0.4,0.4-0.6,0.9-0.6,1.4v3.5c0,0.3,0.1,0.6,0.2,0.9c0.1,0.3,0.3,0.5,0.6,0.7l3,2.2
	c0.3,0.3,0.8,0.4,1.2,0.4s0.9-0.1,1.2-0.4l3-2.2c0.2-0.2,0.4-0.4,0.6-0.7c0.1-0.3,0.2-0.6,0.2-0.9V22c0-0.5-0.2-1-0.6-1.4
	C23.3,20.2,22.8,20,22.3,20z M22.3,25.5l-3,2.2l-3-2.2V22h6V25.5z"/>
<path d="M60.5,55.8C60.5,55.8,60.5,55.8,60.5,55.8l-0.7-3.9c0-0.3-0.1-0.5-0.3-0.7c-0.1-0.2-0.3-0.4-0.5-0.6c-0.3-0.2-0.6-0.3-1-0.3
	L51.6,9.4c-0.1-0.6-0.3-1.1-0.5-1.6c0,0,0-0.1,0-0.1c-0.6-1.2-1.7-2-3-2.4l-4.3-1.2l-3.5-3.5C39.9,0.2,39.4,0,38.9,0H21.7
	c-0.5,0-1,0.2-1.4,0.6l-3.5,3.5l-4.3,1.2c-1.3,0.4-2.3,1.2-3,2.4c0,0,0,0.1,0,0.1C9.2,8.3,9,8.8,8.9,9.4L2.5,50.2
	c-0.4,0-0.9,0.2-1.2,0.5C1,51,0.8,51.4,0.7,51.8L0,55.8c-0.1,0.5,0,1.1,0.3,1.5c0.3,0.4,0.8,0.7,1.3,0.8l9.8,1.7c0.1,0,0.2,0,0.4,0
	c0.5,0,0.9-0.2,1.3-0.5c0.4-0.3,0.6-0.7,0.7-1.2l0.2-0.9l10.9,3.3c0.2,0.1,0.4,0.1,0.6,0.1c0.4,0,0.8-0.1,1.1-0.4
	c0.3-0.2,0.5-0.4,0.6-0.7c0.1-0.3,0.2-0.6,0.2-0.9l0.2-2.8h5.3l0.2,2.8c0,0.5,0.3,1,0.6,1.3c0.4,0.3,0.9,0.5,1.4,0.5
	c0.2,0,0.4,0,0.6-0.1l10.9-3.3l0.2,0.9c0.1,0.5,0.3,0.9,0.7,1.2c0.4,0.3,0.8,0.5,1.3,0.5c0.1,0,0.2,0,0.4,0l9.8-1.7
	c0.5-0.1,1-0.4,1.3-0.8C60.5,56.8,60.6,56.3,60.5,55.8L60.5,55.8z M50.7,16.3L56,50.5l-7.5,1.3L50.7,16.3z M21.7,2h17.2l3.3,3.3
	l-3.4,9.3l-4.1-2.1l3.6-7.1l-1.8-0.9l-0.8,1.6c-3.4,1-7.1,1-10.6,0l-0.8-1.6l-1.8,0.9l3.6,7.1l-4.1,2.1l-3.4-9.4L21.7,2z M9.8,16.3
	L12,51.8l-7.5-1.3L9.8,16.3z M11.8,57.8L2,56.1l0.7-3.9l9.9,1.7L11.8,57.8z M25.5,58.7l-11.1-3.4l0.2-1c0.1-0.3,0-0.6,0-0.9
	c-0.1-0.3-0.2-0.5-0.4-0.8L11.4,8.5c0.4-0.6,1-1,1.6-1.2l3.6-1l3.3,9.1c0.1,0.3,0.2,0.5,0.4,0.7c0.2,0.2,0.4,0.4,0.7,0.5
	c0.2,0.1,0.5,0.1,0.7,0.1c0.3,0,0.6-0.1,0.9-0.2l3.6-1.8L27.3,28L25.5,58.7z M27.7,54l1.5-25.9v-0.1l-0.8-11.1
	c1.1,0.3,2.4,0.3,3.5,0l-0.8,11.1v0.1L32.8,54H27.7z M32.4,12.6c-0.1,0.1-0.1,0.2-0.1,0.4l-0.1,1.7c-1.2,0.5-2.6,0.5-3.8,0l-0.1-1.7
	c0-0.1,0-0.3-0.1-0.4l-2-4C27.5,8.9,28.9,9,30.3,9c1.4,0,2.7-0.1,4.1-0.4L32.4,12.6z M46.5,52.6c-0.2,0.2-0.3,0.5-0.4,0.8
	C46,53.7,46,54,46,54.2l0.2,1l-11.1,3.4L33.3,28l0.9-13.4l3.6,1.8c0.3,0.1,0.5,0.2,0.8,0.2c0.3,0,0.6,0,0.8-0.1
	c0.3-0.1,0.5-0.3,0.7-0.5c0.2-0.2,0.3-0.4,0.4-0.7l3.3-9.1l3.6,1c0.7,0.2,1.3,0.6,1.7,1.2L46.5,52.6z M48.7,57.8L48,53.9l9.9-1.7
	l0.7,3.9L48.7,57.8z"/>
</svg>
