<?xml version="1.0" encoding="utf-8"?>
<!-- Generator: Adobe Illustrator 26.0.0, SVG Export Plug-In . SVG Version: 6.00 Build 0)  -->
<svg version="1.1" id="katman_1" xmlns="http://www.w3.org/2000/svg" xmlns:xlink="http://www.w3.org/1999/xlink" x="0px" y="0px"
	 viewBox="0 0 354.5 462.2" style="enable-background:new 0 0 354.5 462.2;" xml:space="preserve">
<g id="Pyjamas">
	<path d="M310.5,403.9c-2.8,0-5,2.2-5,5s2.2,5,5,5s5-2.2,5-5S313.2,403.9,310.5,403.9z"/>
	<path d="M176.3,315.5c-2.8,0-5,2.2-5,5s2.2,5,5,5s5-2.2,5-5S179,315.5,176.3,315.5z"/>
	<path d="M176.3,237.1c-2.8,0-5,2.2-5,5s2.2,5,5,5s5-2.2,5-5S179,237.1,176.3,237.1z"/>
	<path d="M44.1,413.9c2.8,0,5-2.2,5-5s-2.2-5-5-5c-2.8,0-5,2.2-5,5S41.3,413.9,44.1,413.9z"/>
	<circle cx="176.3" cy="398.9" r="5"/>
	<path d="M171,163.7c0,2.8,2.2,5,5,5c2.8,0,5-2.2,5-5s-2.2-5-5-5c0,0,0,0,0,0C173.3,158.7,171,160.9,171,163.7z"/>
	<path d="M43.2,127.1c1.8,0.4,3.7-0.7,4.1-2.6c0,0,0,0,0,0l0.3-1.3c0.4-1.9-0.8-3.7-2.7-4.1c-1.8-0.4-3.6,0.7-4.1,2.5l-0.3,1.4
		C40.2,124.8,41.3,126.7,43.2,127.1C43.2,127.1,43.2,127.1,43.2,127.1z"/>
	<path d="M352.5,392.7C338.1,191.1,300.4,70.4,300,69.2c0-0.2-0.1-0.3-0.2-0.4c-12.3-25.9-56.1-43.1-62-45.3l-6.4-5.5l-20-17.2
		l-0.1-0.1c-0.2-0.1-0.4-0.2-0.5-0.4c-0.1,0-0.1-0.1-0.2-0.1c-0.2-0.1-0.5-0.2-0.8-0.2h-0.1c-0.2,0-0.3,0-0.5,0h-63.8
		c-0.2,0-0.3,0-0.5,0h-0.1c-0.3,0.1-0.5,0.1-0.8,0.2c-0.1,0-0.1,0.1-0.2,0.1c-0.2,0.1-0.4,0.2-0.5,0.4l-0.1,0.1l-20,17.2l-6.4,5.5
		c-5.9,2.2-49.6,19.4-62,45.3c-0.1,0.1-0.1,0.3-0.2,0.4c0,0.1-3.6,11.4-8.9,32.4c-0.5,1.8,0.7,3.7,2.5,4.2c0.3,0.1,0.6,0.1,0.8,0.1
		c1.6,0,3-1.1,3.4-2.6c4.8-19.1,8.1-30.1,8.7-31.8C73,47,119.2,29.9,119.7,29.8c0.2-0.1,0.3-0.1,0.5-0.2
		c-4.3,28.7,1.6,58.2,1.9,59.6c0.2,1.2,1.1,2.2,2.3,2.6c0.3,0.1,0.7,0.2,1.1,0.2c0.9,0,1.7-0.3,2.3-0.9c2.7-2.5,5.6-4.7,8.7-6.6
		c0.7,1.2,1.3,2.2,1.6,2.7c15.8,26.7,24,57.2,23.9,88.2V455c-65.6-2.9-89.4-24.5-92.9-28c-1.9-7.3-3.5-30.7-1-99.2l13-222.8v-0.3
		c0.1-1.9-1.3-3.5-3.2-3.7c-1.9-0.1-3.5,1.3-3.7,3.2v0.3c0,0,0,0,0,0.1l0,0c-0.2,3.1-9.5,128.2-13,222.9l-3.6,62H9.3
		C17.3,280.1,32,195.7,43,144c0.5-1.8-0.6-3.7-2.4-4.2c-1.8-0.5-3.7,0.6-4.2,2.4c0,0.1-0.1,0.2-0.1,0.4C25,195.2,10,281.2,2.1,392.7
		c-0.8,10.8-1.5,21.7-2.1,32.6c-0.1,1.9,1.3,3.5,3.2,3.6c0,0,0.1,0,0.1,0l43.5,0.6h0.2c5.9,0,11.2-3.2,14-8.4
		c0.3,2.9,0.8,5.8,1.5,8.6c0.1,0.4,0.4,0.8,0.6,1.2c1,1.2,24.6,28.4,101.9,31.1h0.2c0.8,0,1.6,0,2.3,0.1h1.4h0.1
		c1.4,0,2.9,0.1,4.3,0.1h6.8h2.1c1.7,0,3.4-0.1,5-0.1l0,0l2-0.1l0,0c13.7-0.4,27.4-1.8,40.9-4.2c1.9-0.3,3.2-2.1,2.9-4
		c-0.3-1.9-2.1-3.2-4-2.9c-0.1,0-0.1,0-0.2,0c-12,2.2-24.1,3.5-36.2,4V175.2c-0.1-31,8.2-61.5,23.9-88.2c0.3-0.5,0.9-1.5,1.6-2.6
		c3,1.9,5.9,4.1,8.6,6.6c0.6,0.6,1.5,0.9,2.3,0.9c0.4,0,0.7-0.1,1.1-0.2c1.2-0.4,2.1-1.4,2.3-2.6c0.3-1.4,6.1-30.9,1.9-59.6
		c0.2,0.1,0.3,0.2,0.5,0.2c0.5,0.2,46.7,17.2,58.6,41.8c1.8,5.9,37.6,123.5,51.8,317.9H297l-3.6-62c-3.5-95.2-12.9-221.2-13-223
		c0-0.2,0-0.4,0-0.4c-0.2-1.9-1.9-3.3-3.8-3c-1.8,0.2-3.2,1.8-3,3.7l13,223.1c2.5,68.5,0.9,91.9-1,99.2c-1.5,1.5-6.5,6.2-16.6,11.2
		c-1.7,0.9-2.4,2.9-1.5,4.6c0.6,1.2,1.8,1.9,3.1,1.9c0.5,0,1.1-0.1,1.5-0.4c13.7-6.9,19-13.2,19.3-13.5c0.3-0.4,0.5-0.8,0.6-1.2
		c0.8-2.8,1.3-5.7,1.5-8.6c2.8,5.2,8.1,8.4,14,8.4h0.2l43.5-0.6c1.9,0,3.4-1.6,3.4-3.5c0,0,0-0.1,0-0.1
		C353.9,414.4,353.3,403.5,352.5,392.7z M56.1,414.1c-0.3,4.8-4.2,8.5-9,8.5H47l-39.9-0.5c0.5-8.5,1-17.1,1.6-25.7h48.4L56.1,414.1z
		 M205.1,6.8l-3.6,20.5h-48.4l-3.6-20.5H205.1z M200.3,34.2L194,70.3c-1.3,2-2.5,4.1-3.4,5.5c-5.1,8.4-9.6,17.1-13.3,26.2
		c-3.7-9.1-8.1-17.9-13.3-26.2l-1.9-3c-0.5-0.9-1.1-1.8-1.7-2.7l-6.2-35.8H200.3z M135.8,76.6L135.8,76.6c-2.8,1.6-5.4,3.4-8,5.3
		c-1.7-11.3-4.5-36.9,0.7-59.4L143.1,10l3.7,21.5l0,0l6.6,37.6l-0.4,0.1l0,0h-0.1c-0.1,0-0.2,0.1-0.4,0.1c-1.8,0.5-3.8,1.3-5.9,2.1
		l-1.1,0.4C142.2,73.2,139,74.8,135.8,76.6z M183.8,455.3h-1.5h-2.1h-2.9c-0.6,0-1.3,0-2,0h-1.6c-1.4,0-2.8,0-4.2-0.1h-0.6v-280
		c0.1-32.3-8.5-63.9-24.9-91.7c-0.3-0.5-0.9-1.5-1.6-2.6c1.9-1,3.8-1.9,5.8-2.7l0.9-0.4l0,0c2.4-1,4.3-1.6,5.4-1.9l0,0l0.4-0.1l0,0
		l0.8-0.2l0.5,0.9c0.7,1.1,1.4,2.2,1.9,3c6.5,10.6,11.8,21.8,15.9,33.4c0,0,0,0.1,0,0.1c6.5,18.5,9.8,38,9.7,57.6L183.8,455.3z
		 M210.7,83.5c-10.9,18.4-18.3,38.6-22,59.6c-1.6-10.7-4.2-21.1-7.7-31.3c4-11.3,9.2-22.1,15.5-32.3c0.6-1,1.5-2.4,2.4-3.8
		c1.8,0.5,3.7,1.2,5.5,1.8h0.1l0.7,0.3l0.3,0.1l0,0L206,78l1.2,0.5l0.1,0.1l0.9,0.4l0.8,0.4l1.8,0.9l0.8,0.4l0.6,0.3L210.7,83.5z
		 M226.7,81.9c-2.5-1.9-5.1-3.6-7.9-5.2l-0.1-0.1l-1-0.6l-1-0.6l0,0l-2-1l-1-0.5l-0.9-0.4l-0.7-0.3l-0.2-0.1c-0.3-0.2-0.7-0.3-1-0.4
		l-0.9-0.4l0,0l-1.4-0.6l0,0l-0.1-0.1l-0.5-0.2l0,0l-0.9-0.3L207,71h-0.1c-1.9-0.7-3.7-1.3-5.6-1.9l10.3-59.1l14.5,12.4
		C231.3,45,228.4,70.7,226.7,81.9L226.7,81.9z M307.6,422.6c-4.8,0.1-8.9-3.7-9.2-8.5l-1-17.7h48.4c0.6,8.5,1.1,17.1,1.6,25.7
		L307.6,422.6z"/>
	<path d="M249.3,446l-0.9,0.3c-1.8,0.5-2.9,2.5-2.3,4.3c0.4,1.5,1.8,2.5,3.3,2.5c0.3,0,0.7-0.1,1-0.1l0.9-0.3c1.9-0.4,3-2.3,2.6-4.2
		c-0.4-1.9-2.3-3-4.2-2.6C249.6,445.9,249.4,446,249.3,446L249.3,446z"/>
</g>
</svg>
