<?xml version="1.0" encoding="utf-8"?>
<!-- Generator: Adobe Illustrator 26.0.0, SVG Export Plug-In . SVG Version: 6.00 Build 0)  -->
<svg version="1.1" id="katman_1" xmlns="http://www.w3.org/2000/svg" xmlns:xlink="http://www.w3.org/1999/xlink" x="0px" y="0px"
	 viewBox="0 0 472.5 524.9" style="enable-background:new 0 0 472.5 524.9;" xml:space="preserve">
<g>
	<path d="M471.8,206.5L419.3,84c-0.9-2.1-2.6-3.8-4.8-4.7l-84.7-33.9L305.1,4.2c-1.6-2.6-4.4-4.2-7.5-4.2l0,0H175l0,0
		c-3.1,0-5.9,1.6-7.5,4.2l-24.7,41.2L58,79.3c-2.2,0.9-3.9,2.5-4.8,4.7L0.7,206.5c-0.5,1.3-0.8,2.6-0.7,4l17.5,271.2
		c0.3,4.6,4.1,8.2,8.7,8.2h45.7l-2,25.6c-0.2,2.4,0.6,4.8,2.3,6.6s4,2.8,6.4,2.8h131.3c3.3,0,6.3-1.9,7.8-4.8l18.4-36.8l18.4,36.8
		c1.5,3,4.5,4.8,7.8,4.8h131.2c2.4,0,4.8-1,6.4-2.8c1.7-1.8,2.5-4.2,2.3-6.6l-2-25.6h46.1c4.6,0,8.4-3.6,8.7-8.2l17.5-271.2
		C472.6,209.1,472.4,207.7,471.8,206.5L471.8,206.5z M313.7,52.6l-45.3,83l-20.9-15.7l50.4-93.6L313.7,52.6z M236.3,103.9
		l-27.8-51.5H264L236.3,103.9z M273.5,34.9h-74.4l-9.4-17.5h93.2L273.5,34.9z M174.6,26.3l50.4,93.6l-20.9,15.7l-45.3-83L174.6,26.3
		z M73.4,472.4H34.5l-1.1-17.5h27.9v-17.5H32.2l-14.6-226l40.1-93.5L87.5,289L73.4,472.4z M204.6,507.4H88.2L105,289.3
		c0.1-0.7,0-1.5-0.1-2.2L71.1,92.8l73.7-29.4l48.8,89.4c1.2,2.2,3.3,3.8,5.8,4.4c2.5,0.5,5.1,0,7.1-1.6l21-15.8v321.7L204.6,507.4z
		 M267.9,507.4L245,461.6V139.9l21,15.8c2,1.5,4.6,2.1,7.1,1.6s4.6-2.1,5.8-4.4l48.9-89.5l73.7,29.5l-33.8,194.3
		c-0.1,0.7-0.2,1.4-0.1,2.2l16.7,218H267.9z M440.3,437.4h-29v17.5h27.9l-1.1,17.5h-38.9l-14.1-183.3L414.9,118l40.1,93.5
		L440.3,437.4z"/>
	<path d="M192.5,183.6H210v17.5h-17.5V183.6z"/>
	<path d="M192.5,262.4H210v17.5h-17.5V262.4z"/>
	<path d="M192.5,341.2H210v17.5h-17.5V341.2z"/>
	<path d="M192.5,419.9H210v17.5h-17.5V419.9z"/>
	<path d="M288.8,183.6h52.5v17.5h-52.5V183.6z"/>
</g>
</svg>
