<svg xmlns="http://www.w3.org/2000/svg" viewBox="0 0 381.11 408.84"><g id="katman_2" data-name="katman 2"><g id="katman_1-2" data-name="katman 1"><path d="M161.78,408.84c-5.26-.51-10.52-1.08-15.79-1.52-17.83-1.48-35.32-4.42-51.77-11.93-4.91-2.25-6-3.67-5.86-9.14.48-24.68,3.77-49.05,8.35-73.25,5.89-31.06,12.44-62,17.94-93.15,1.28-7.24,0-15.1-1-22.56-1.38-10.39-3.57-20.67-5.44-31a12.93,12.93,0,0,0-.82-1.95c-.89,1.94-1.52,3.32-2.16,4.69-10.11,21.84-14.13,45.31-18.5,68.69Q74,306.11,61.2,374.48c-1.06,5.64-4,7.6-9.61,6.79q-21.31-3.06-42.65-6c-7.93-1.1-10-3.66-8.47-11.41C16.94,281.21,33.21,198.56,50.18,116c3.54-17.22,9.71-33.9,14.71-50.82C67,58.05,72.36,53.6,78.6,50.4c9.44-4.83,19.2-9,28.71-13.75a22.17,22.17,0,0,0,7.11-5.32c7.5-9,14.74-18.19,22-27.39A9.6,9.6,0,0,1,144.61,0q45.91.11,91.82,0a9.63,9.63,0,0,1,8.22,3.93c7.32,9.3,14.66,18.6,22.24,27.69a18.06,18.06,0,0,0,6.85,5c12,4.8,23.7,10,34.36,17.5,5.93,4.16,8.49,10.34,10.21,16.64,6.61,24.2,13.77,48.33,18.78,72.88,15.06,73.68,29.21,147.55,43.7,221.35,1.15,5.89-.79,9-6.71,9.86-15.24,2.33-30.51,4.49-45.79,6.61-4.64.64-7.48-1.79-8.44-6.95-3.21-17.38-6.26-34.8-9.6-52.15-8.15-42.27-16.09-84.59-24.87-126.73-2.21-10.59-7.29-20.58-11.05-30.85l-1.44.12c-1.64,8.94-3.37,17.86-4.86,26.83-.78,4.72-.94,9.53-1.67,14.26-2,13,2.13,25.3,4.43,37.77,5.41,29.27,11.75,58.37,16.52,87.74,2.93,18.06,3.76,36.47,5.32,54.75.47,5.45-.87,6.88-5.8,9.14-19.61,9-40.55,11.36-61.73,12.66-1.95.12-3.89.52-5.83.79ZM48.31,367a7.6,7.6,0,0,0,.67-1.27q12.9-69,25.8-137.92c3.66-19.44,7.11-38.95,15.17-57.25q5.3-12,9.93-24.34a9.08,9.08,0,0,0,0-6.29c-3-6.63-6.51-13.06-10-19.5-2.3-4.29-1.84-8,1.51-10.18s7.71-1.12,10.07,3.18c4,7.32,8.28,14.61,11.36,22.34,7.9,19.86,12.16,40.7,14.51,61.9.86,7.75,2.17,15.84.91,23.38C121,264.55,109.8,307.34,104.7,351.23c-1.14,9.86-1.92,19.75-3,30.67,7.78-1.25,14.79-1.9,21.55-3.54,19.57-4.74,36.36-14.05,48.15-31,9.07-13,12.32-27.65,12.3-43.36q-.15-113.35,0-226.71V72.49c-4.72,2.14-8.87,4.14-13.12,5.92-14.39,6-27.52,4.77-38.66-7.07C125.18,64.19,118.5,57,111.2,49.18c-8.15,4-16.7,8.24-25.21,12.53-5.22,2.63-8.91,6.62-10.39,12.42C69.47,98.18,62.38,122,57.37,146.33c-13.51,65.58-26.15,131.34-39.11,197-1.23,6.2-2.32,12.42-3.52,18.88Zm230,14.71,1.32-1.31c-2.19-17.65-3.68-35.42-6.72-52.93-5-28.8-11.09-57.4-16.48-86.13-1.79-9.49-4.34-19.19-3.87-28.66.73-14.66,3.2-29.32,5.93-43.79,3.66-19.41,9.82-38.06,20.56-54.91,3-4.64,6.52-6,10.23-3.85s4.12,6,1.3,11.08c-3.27,5.92-6.17,12.05-9.34,18-1.35,2.56-1.09,4.77,0,7.5,6.41,16.72,14.65,33.1,18.37,50.43,10.69,49.74,19.53,99.88,29.08,149.87,1.26,6.59,2.44,13.19,3.7,20l33.83-4.82c-.19-1.32-.29-2.35-.49-3.36-3.57-18.66-7-37.35-10.76-56C343.57,246,332.4,189,320.47,132.17c-4.22-20.11-10.3-39.83-15.78-59.66a14.58,14.58,0,0,0-4.61-7.19c-9.31-7.22-20.15-11.59-30.72-15.75-6.58,7.15-12.84,14-19.19,20.82C241.69,79.47,231.55,84.21,219,80.9c-5.85-1.55-11.4-4.22-17.08-6.42-1.38-.53-2.71-1.21-4.59-2.06v5.1q0,113.18,0,226.35c0,3.19.07,6.39.31,9.57a66,66,0,0,0,10.47,31.85c11.29,17.21,27.64,27.3,47.21,32.34C262.88,379.56,270.67,380.39,278.34,381.72Zm-27.09,9.66c-26.84-8.39-48.32-23.09-60.75-49.94-12.33,26.73-33.64,41.47-60.36,50A480.31,480.31,0,0,0,251.25,391.38ZM238,17.47,201.3,59.37c6.62,2.82,12.44,5.71,18.55,7.78,6.38,2.17,12.64,1.67,17.62-3.7,6.13-6.6,12.28-13.2,18.26-20a3.76,3.76,0,0,0,.06-3.61C250,32.43,244.1,25.12,238,17.47Zm-94.9,0c-6.11,7.62-12,14.93-17.8,22.39a3.76,3.76,0,0,0,0,3.61c6.26,7,12.66,14,19.13,20.79,3,3.21,7,4.15,11.3,3.85,8.79-.6,15.95-5.2,23.69-9.16ZM158,13.83l32.53,37.1C201.43,38.48,212,26.41,223,13.83Z"/></g></g></svg>