<svg xmlns="http://www.w3.org/2000/svg" viewBox="0 0 377.79 287.89"><g id="katman_2" data-name="katman 2"><g id="katman_1-2" data-name="katman 1"><path d="M91.53,214.18C89.75,218.79,88,223.4,86.19,228q-9.78,25.53-19.54,51.05c-3.18,8.3-7.77,10.5-16.12,7.65q-21.09-7.2-42.13-14.49c-7.29-2.53-10-7.71-7.51-15Q35.51,154.55,70.31,51.89c6.57-19.28,19.83-32.74,38.81-40.18C119.34,7.7,129.83,4.4,140.21.8c4.43-1.54,8.46-.81,11.69,2.64,12.18,13,27.67,15.52,44.37,14.1C207.9,16.56,218,12.28,226,3.45A9.67,9.67,0,0,1,237,.64c11.09,3.82,22.36,7.23,33.2,11.65,18.19,7.43,31,20.69,37.31,39.26C327.92,111.29,348,171.15,368.24,231q4.38,12.94,8.62,25.94c2.51,7.66,0,12.85-7.69,15.51q-20.87,7.24-41.77,14.4c-7.58,2.58-12.48.25-15.39-7.3q-12-31.11-23.85-62.23a7.13,7.13,0,0,0-1.94-3c-.11,1.28-.29,2.56-.34,3.83-.36,9.12-.65,18.24-1,27.36-.38,8.93-4.21,12.54-13.2,12.54H107c-9.33,0-13-3.71-13.31-13.18-.28-8.87-.7-17.73-1.07-26.6-.06-1.3-.21-2.6-.32-3.9ZM262,248.72c3.68,0,7-.12,10.38,0,2.7.13,3.65-.81,3.76-3.63q2.54-68.2,5.26-136.4.88-22.31,1.85-44.59c.14-3,1.65-5.16,4.88-4.91,3,.22,4.05,2.55,4.1,5.34,0,.74-.1,1.49-.13,2.24q-2.32,60.15-4.59,120.3a13.27,13.27,0,0,0,1.09,5Q301.71,226.58,315,261c.38,1,.87,2,1.42,3.21l33.72-11.85c2.36-.82,4.69-1.71,7.08-2.44,2.79-.85,5.45-.6,6.51,2.54s-.62,5-3.47,6.07c-1.15.43-2.31.83-3.73,1.34.82,2.26,1.56,4.3,2.37,6.51l10-3.62c-.61-1.83-1-3-1.4-4.2Q333,156.79,298.54,55c-5.43-16-16.2-27.53-31.82-33.94-10.25-4.21-20.9-7.48-31.45-11a5.31,5.31,0,0,0-4.24.93c-1.93,1.51-3.44,3.56-5.34,5.62,1.41,1.86,3,4,4.75,6.29,2.52-2,4.54-4.27,7.06-5.46,1.5-.71,4.55-.43,5.51.64s.56,3.79.14,5.65c-.22,1-1.67,1.76-2.61,2.58-17.2,14.77-37.36,20.1-59.59,18.38a75.71,75.71,0,0,1-45.64-19.62C133,23,132,20.69,134.09,17.93c1.67-2.24,4.31-2.11,7.22.21,1.82,1.45,3.63,2.92,5.63,4.53l5-6.73a51.26,51.26,0,0,1-5-4.63,4.37,4.37,0,0,0-5.53-1.48c-9.52,3.39-19.2,6.36-28.62,10C96.1,26.32,84.41,38,78.65,55Q45,153.88,11.77,252.91c-3.24,9.59-3.18,9.61,6.61,12.47a3.75,3.75,0,0,0,1.07-.07l2.27-6c-1.23-.49-2-.83-2.84-1.13-4-1.46-5.3-3.32-4.27-6.12s3.24-3.64,7.13-2.29c9,3.13,17.88,6.33,26.84,9.46,4.52,1.59,9.07,3.09,13.72,4.67,9.54-24.82,18.91-49.15,28.2-73.51a11.59,11.59,0,0,0,.43-4.41q-2.3-60.34-4.64-120.67c-.16-4.19,1.15-6,4.22-6.21s4.61,1.5,4.78,5.67q2.59,65.78,5.18,131.53c.64,16.24,1.3,32.48,2.08,48.71,0,1.23,1,3.4,1.66,3.46,4,.32,8.12.16,12.17.16v-6.32c-2.25,0-4.23,0-6.2,0-3,.06-5.19-1-5.42-4.33-.21-2.84,1.91-4.54,5.53-4.67.75,0,1.5,0,2.25,0H266c.88,0,1.75,0,2.63,0,3,.13,5.21,1.41,5.11,4.69-.08,3-2.14,4.3-5.05,4.3H262ZM198.19,35.39c-2.13-2.8.46-8-4.35-8.41-12.13-1.1-12.16-.81-13.65,8.41Zm25.13-7c-2-2.87-3.58-5.08-5.11-7.26L204.94,26c.7,2.87,1.37,5.59,2.15,8.76Zm-63.7-7.25-5.09,7.17,16.32,6.13,2-8.7ZM143.75,242.52h-17.6v5.94h17.6Zm27,0H153.15v6h17.63Zm27,0H180.22v5.88h17.52Zm27,0H207.13v5.94h17.66Zm27.22,0H234.62c-.78,5.07-.62,6,1.43,6.06,5.28.15,10.56.05,16,.05ZM27.5,269.05l10.17,3.56L40,266.06l-10.1-3.54Zm312.76,3.61L350.42,269l-2.5-6.5-10.08,3.65C338.72,268.5,339.4,270.34,340.26,272.66Zm-11.21-3.57-10.2,3.56c2.14,6.56,2.15,6.57,8.17,4.59,1.4-.46,2.76-1,4.42-1.64C330.64,273.4,329.89,271.36,329.05,269.09Zm-280.25,0-2.27,6.32c11.35,4.48,10.14,4.69,12.37-2.81Z"/><path d="M131.6,138.81q.89,28.66,1.77,57.32c0,.75.06,1.5,0,2.25-.12,2.81-1.64,4.56-4.39,4.61s-4.42-1.62-4.55-4.44c-.25-5.24-.41-10.48-.57-15.73q-1.55-50.58-3.06-101.15a12.72,12.72,0,0,1,0-2.62c.43-2.53,1.9-4.14,4.55-4a4.08,4.08,0,0,1,4.31,4.25c.28,6.11.49,12.23.67,18.35q.63,20.61,1.2,41.21Z"/><path d="M206.64,139.07q.88-28.45,1.76-56.9c0-.88,0-1.76.07-2.62C208.72,76.8,210.19,75,213,75s4.3,1.82,4.43,4.57c.1,2.11,0,4.24-.09,6.36q-1.73,55-3.46,110.06a24.74,24.74,0,0,1-.14,3c-.4,2.62-2.2,4.39-4.58,3.85-1.63-.38-3-2.43-4.2-4-.43-.53-.11-1.69-.08-2.56q.9-28.64,1.81-57.28Z"/><path d="M171.21,139q.91,28.65,1.81,57.31c0,1.12.33,2.6-.25,3.28-1.17,1.39-3,3.37-4.3,3.21a5.92,5.92,0,0,1-4.13-3.72c-.76-3.49-.56-7.19-.67-10.81q-1.6-52.83-3.18-105.66c-.16-5.51,1.06-7.57,4.34-7.64s4.5,2,4.66,7.46q.85,28.27,1.75,56.57Z"/><path d="M246.24,139.21q.91-29,1.84-58c.14-4.22,1.84-6.41,4.76-6.21s4.35,2.42,4.23,6.38q-1.77,58-3.59,116.05c-.11,3.53-1.92,5.69-4.63,5.65s-4.45-2.15-4.34-5.82q.83-29,1.75-58Z"/></g></g></svg>