<svg xmlns="http://www.w3.org/2000/svg" viewBox="0 0 351.29 336.35"><g id="katman_2" data-name="katman 2"><g id="katman_1-2" data-name="katman 1"><path d="M279.69,187.74v110c0,8.9-3,12.68-12,14.92,0,3.49.06,7.09,0,10.69-.16,8.17-5,13-13.25,13q-78.76,0-157.54,0c-8.41,0-13.26-4.83-13.38-13.22,0-3.37,0-6.74,0-10.12a3.89,3.89,0,0,0-1-.62c-7.94-2-11-5.86-11-14.12q0-31.5,0-63V187.7l-.7,0Q68.41,203.31,66,219c-3.5,22.71-6.91,45.43-10.67,68.1-.39,2.33-2.93,4.3-4.47,6.43-.86,1.19-2.2,2.26-2.5,3.57-.66,2.91-.76,5.94-1.15,8.91-.69,5.39-4.11,8.35-9.51,7.78q-13.23-1.38-26.41-3.23c-5.79-.8-8.21-4.07-7.71-9.85.18-2.12.47-4.23.76-6.33.42-2.95.73-5.49-2.33-7.81C.5,285.36-.12,282,0,279.75q1.77-29.76,4-59.47c1.77-22.8,3.33-45.63,5.81-68.35,3.26-29.78,6.34-59.64,11.29-89.17,5.62-33.51,26.28-53,60-59.41,21.15-4,42.44-4.63,63.73-.74C169.39,7.09,193.66,4.9,218,.94c7.07-1.15,14.45-.68,21.68-.6C252.43.49,265.13,1.58,277.51,5c29.28,8,47.05,27.2,52.39,56.89,3.92,21.85,6.78,43.94,9.09,66,3.23,30.81,5.62,61.71,8.14,92.6,1.58,19.42,2.71,38.89,4.1,58.33.28,3.86-.28,7.17-3.83,9.5-.64.42-.89,1.91-.82,2.87.24,3.36.78,6.7,1,10.06.38,5-2,8.32-6.91,9q-13.9,2-27.89,3.45c-4.78.48-8.08-2.5-8.84-7.28-.31-2-.57-4-.75-6-.3-3.32-.22-6.47-4.35-8.16-1.63-.67-2.86-3.76-3.2-5.91-5.13-32.56-10.09-65.16-15.1-97.74a6.07,6.07,0,0,0-.31-1Zm.69-53.36,50.42-6.21a28.51,28.51,0,0,0,0-3.61c-2.78-20-5.25-40.11-8.49-60.06-4.07-25.11-18.11-42.29-42.51-50.39C262.06,8.23,243.71,7.9,225.29,8.5c-.2,0-.4.26-.59.41-2.42,35.28-27.07,49.39-48.81,49.48A47.67,47.67,0,0,1,144.64,47.6c-12.21-10-17.13-23.53-18-38.78a4.78,4.78,0,0,0-1.22-.46C109.75,8.11,94.14,8.24,78.81,12,51.17,18.69,33.94,35.51,29,63.89c-2.66,15.25-4.88,30.57-7.09,45.89-.87,6-1.19,12.07-1.79,18.35l50.32,6.15c.32-3,.71-5.42.82-7.9.17-4.24.22-8.49.23-12.74,0-2.79.69-5.2,3.94-5.26s4.22,2.14,4.12,5c0,1.25,0,2.5,0,3.75v17.77H271.64c0-7.67,0-15,0-22.4,0-2.5,1.32-4.07,3.84-4.18s3.88,1.48,4.13,3.92c.11,1.11-.05,2.24,0,3.37C279.85,121.73,280.11,127.81,280.38,134.38Zm-200.83,41v4.15q0,59.07,0,118.14c0,5.86.76,6.61,6.76,6.61H264.87c6,0,6.75-.76,6.75-6.63q0-59.07,0-118.13v-4.14ZM47.63,286.25C53.39,248.5,59.06,211.35,64.76,174l-48.61-6c-2.86,38.07-5.68,75.59-8.52,113.32Zm255.92,0,40-5c-2.87-37.95-5.7-75.48-8.55-113.28l-48.6,6C292.15,211.64,297.82,248.76,303.55,286.29ZM79.73,167h191.7V143.45H79.73ZM91.55,312.41v8.88c0,6.4.6,7,7.14,7h153.8c1.12,0,2.45.33,3.33-.14,1.39-.75,3.41-2,3.54-3.14a122.64,122.64,0,0,0,.17-12.59ZM216.29,9a208,208,0,0,1-81.46.06c.4,15.61,6.62,27.44,19.41,35.17,14.69,8.89,29.8,8.57,44.11-.89C210.28,35.48,216.08,24,216.29,9Zm-147,133.22-50-6.16c-.75,8.17-1.47,15.93-2.21,23.93l48.8,6C67.05,158,68.15,150.29,69.31,142.24Zm216,23.83,48.85-6c-.8-8.22-1.56-16.05-2.33-24l-49.94,6.2C283,150.28,284.1,157.91,285.28,166.07ZM11.37,302.47l27.79,3.37,1.52-12.35L13,290.1C12.42,294.32,11.93,298.12,11.37,302.47ZM312,305.88l27.74-3.44c-.53-4.21-1-8.1-1.55-12.36l-27.75,3.42C311,297.77,311.49,301.56,312,305.88Z"/></g></g></svg>