<svg xmlns="http://www.w3.org/2000/svg" viewBox="0 0 512 483.95"><g id="katman_2" data-name="katman 2"><g id="katman_1-2" data-name="katman 1"><path d="M0,404.07q1-16.9,2-33.82C4.75,324.5,8.38,278.78,18.32,234c10.91-49.2,32.89-93.77,61-135.32C88.55,85,98.84,72.07,109,59.1a19.8,19.8,0,0,1,8.86-5.82c7.7-2.63,15.64-4.57,23.51-6.71,5.26-1.43,9.34.42,10.54,4.65,1.25,4.4-1,8.13-6.25,9.69-6.51,2-13.07,3.72-20.07,5.7.89,7.12,1.88,14,2.58,20.9,1.07,10.6,2.08,21.22,2.83,31.84.22,3.05,1.32,4.42,4.07,5.89,9.73,5.2,19.11,5.73,28.83.08,3.13-1.82,6.8-2.7,10.17-4.11a27.7,27.7,0,0,1,21.87-.09c6,2.42,12.14,4.6,18.08,7.2a15.2,15.2,0,0,0,13,0c5.78-2.54,11.78-4.59,17.61-7a28.29,28.29,0,0,1,22.34-.19c6,2.43,12.13,4.65,18.07,7.23a14.82,14.82,0,0,0,12.52.12c5.95-2.56,12.09-4.71,18.08-7.21A28.25,28.25,0,0,1,338,121.2c5.09,2,10.39,3.68,15.27,6.14,6.19,3.11,11.77,2.38,18.17.21,7.19-2.43,9.77-5.9,10-13.73.39-13.27,2.65-26.49,4.13-39.73.26-2.3.56-4.6.91-7.42-6.52-1.89-12.85-3.73-19.18-5.55-6-1.72-8.54-5.19-7.21-9.92,1.22-4.35,5.33-6.05,11-4.5,8,2.2,16.1,4.25,24,6.76a15.43,15.43,0,0,1,7,4.44c45,54.4,79.17,114.55,93.27,184.36,5.75,28.49,8.53,57.64,11.48,86.61,2.4,23.51,3,47.21,4.46,70.82a36.78,36.78,0,0,0,.75,4.38v27c-4,4.58-4.49,10-4.23,15.79.27,6.32.19,12.67,0,19-.3,10.4-7.27,17.67-17.67,17.88-14.16.28-28.34.25-42.5,0-10.75-.19-17.62-7.44-17.74-18.17-.09-7.83.06-15.67-.1-23.5,0-1.66-.93-3.32-1.52-4.94-1.37-3.8-3.8-7.51-4.06-11.38-2.8-42.23-6.48-84.36-14.29-126-1.67-8.85-3.9-17.6-5.87-26.4a4.52,4.52,0,0,0-1.1,3.17q-1.57,52.47-3.16,105c-.38,12.49-.8,25-1.17,37.48-.19,6.23-1.29,12.89-6.76,15.91-7.25,4-7.06,9.71-6.75,16.23.22,4.65.15,9.33,0,14a19.35,19.35,0,0,1-14.33,17.84,34.92,34.92,0,0,1-8.42.88q-106.23.06-212.47,0c-1.17,0-2.34,0-3.5,0-11.62-.78-19.3-8.86-19.47-20.54-.07-4.84-.21-9.68,0-14.5.28-5.46-.31-9.61-5.79-13.22-3.6-2.37-5.21-8-7.18-12.49-.89-2-.57-4.6-.63-6.92q-1.71-60.74-3.35-121.45c-.19-7.12,0-14.24,0-21.35-1.56.32-1.91.67-2,1.09-1.33,5.33-2.78,10.63-3.9,16-9.24,44.31-13.12,89.26-16.08,134.32-.21,3.25-.3,7.34-2.2,9.47-3.7,4.16-3.53,8.64-3.49,13.41,0,5.83.06,11.67,0,17.5-.14,11.61-7.08,18.59-18.79,18.69q-20.23.18-40.49,0c-11.3-.12-18.39-7.22-18.64-18.46-.13-6-.3-12,.05-18S4,435.82,0,431.08Zm370.1,36.57H193.52a41.81,41.81,0,0,1-5.49-.16c-4.24-.55-6.75-3.16-6.74-7.34s2.43-6.83,6.73-7.31a54.15,54.15,0,0,1,6-.18H374c8.49,0,9.46-.88,9.7-9.41q1.33-47,2.55-94c0-1.22-.2-2.44-.34-4.07-4,1.57-7.63,2.83-11.11,4.35a29.53,29.53,0,0,1-25.14-.11c-5.45-2.46-11.19-4.26-16.7-6.62a14.46,14.46,0,0,0-12-.06c-6.43,2.73-13,5.17-19.5,7.69a26.92,26.92,0,0,1-20.45-.18c-6.17-2.47-12.45-4.7-18.55-7.34a15.4,15.4,0,0,0-13,.06c-6.26,2.69-12.66,5.09-19,7.52a26.66,26.66,0,0,1-20-.12c-6.65-2.64-13.2-5.63-20-7.69a19.36,19.36,0,0,0-10.54,0c-6.35,1.89-12.43,4.71-18.59,7.24a29,29,0,0,1-23.29-.09c-3.87-1.65-7.83-3.08-12.4-4.86,1,34.52,1.92,68.15,2.92,101.78.13,4.1,2.58,5.89,6.56,5.88,7.17,0,14.33-.06,21.5,0,6.42.07,9.64,2.72,9.53,7.65-.11,4.75-3.24,7.23-9.38,7.32-4.78.06-9.56,0-14.84,0,0,6.57,0,12.53,0,18.49,0,9.12.56,9.7,9.54,9.7H360.88c1.5,0,3.35.49,4.42-.21,1.86-1.2,4.47-3.06,4.59-4.8C370.39,456.38,370.1,448.89,370.1,440.64ZM112.47,80.32l-1.3-.08c-.72.88-1.46,1.74-2.15,2.64a462.82,462.82,0,0,0-41.35,64.18C50.11,180,36.35,214.35,30,251.3,20.46,306.92,16.39,363,15.11,419.39c0,1.93,0,3.86,0,6h57.6c.16-1.71.32-3.17.42-4.63C76,379.85,79.35,339,87.06,298.7c4-20.79,8.8-41.33,18-60.61a48.8,48.8,0,0,0,4.39-13c5.84-36.6,9.25-73.39,6.42-110.5C115,103.12,113.61,91.73,112.47,80.32ZM496.91,425.37c0-2,.07-3.29,0-4.61-2.35-37.9-3.91-75.88-7.39-113.67a540.26,540.26,0,0,0-11.4-72.94C464.9,177.41,436.92,127.67,402,81.59A12,12,0,0,0,400,80a33.9,33.9,0,0,0-.81,3.87c-1.39,18.09-4.08,36.21-3.77,54.28.41,24.26,3,48.5,5,72.72.64,7.57,1,15.79,4.18,22.41A216.4,216.4,0,0,1,420,275.92c9.61,39.27,13.77,79.34,17.05,119.53.81,9.91,1.46,19.83,2.19,29.92ZM383.2,191.12c-3.08,1.19-5.14,1.86-7.09,2.76-9,4.17-17.88,4.44-27,.23-5.27-2.43-10.87-4.17-16.21-6.47a14.35,14.35,0,0,0-12,0c-6.1,2.65-12.38,4.87-18.55,7.35a27.91,27.91,0,0,1-21.87-.05c-6.15-2.54-12.25-5.36-18.62-7.16a21.94,21.94,0,0,0-11.43,0c-6.53,1.85-12.77,4.75-19.1,7.29a27.58,27.58,0,0,1-21.4,0c-6-2.43-12.13-4.62-18.08-7.2a15.17,15.17,0,0,0-13-.12c-5.62,2.5-11.49,4.43-17.15,6.85a28.9,28.9,0,0,1-23.74.07c-2.73-1.18-5.55-2.15-8.67-3.35-1,7.8-2.17,15.18-3,22.59-1.1,10.24-2,20.5-2.93,30.75-.26,2.86.83,4.5,3.74,5.49,5.51,1.87,10.92,4.07,16.25,6.4a15,15,0,0,0,12.54.07c6.28-2.65,12.68-5,19-7.56a26.21,26.21,0,0,1,20-.15c6.34,2.51,12.77,4.8,19,7.52a15.8,15.8,0,0,0,13.47-.07c5.94-2.6,12.06-4.77,18.08-7.19a26.58,26.58,0,0,1,20.44-.21c6.65,2.64,13.18,5.68,20,7.71a20.45,20.45,0,0,0,11,0c6.52-1.91,12.75-4.83,19.06-7.41a27.5,27.5,0,0,1,21.4-.13c6.17,2.48,12.42,4.8,18.53,7.41a15,15,0,0,0,12.54.08,158.11,158.11,0,0,1,15.34-6c3.63-1.14,5.26-3,4.87-6.78C386.85,226.51,385.06,209.16,383.2,191.12ZM125,265.44c0,11.56-.09,22.84.13,34.12,0,1.1,1.75,2.6,3,3.16,5,2.19,10.05,4.64,15.34,5.9a26.34,26.34,0,0,0,12.45.05c6.22-1.65,12.15-4.48,18.12-7a27.45,27.45,0,0,1,22.28.06c6,2.52,11.92,5.27,18.14,7a23.29,23.29,0,0,0,12,.08c6.68-1.89,13-5,19.52-7.54a26.35,26.35,0,0,1,20,0c6.19,2.43,12.46,4.69,18.54,7.37a16.47,16.47,0,0,0,14,0c5.8-2.51,11.76-4.63,17.6-7a27.16,27.16,0,0,1,21.37-.09c6.47,2.62,12.88,5.48,19.53,7.54a18.64,18.64,0,0,0,10.1.19c5.89-1.66,11.54-4.22,17.2-6.63,1.12-.48,2.59-1.92,2.6-2.94.19-11.28.12-22.56.12-34.12-4,1.56-8.53,3.14-12.92,5a28.49,28.49,0,0,1-23.71-.08c-5.79-2.52-11.59-5.19-17.64-6.86a22.13,22.13,0,0,0-11.48,0c-6.52,1.87-12.74,4.8-19.07,7.34a27.56,27.56,0,0,1-21.39,0c-6.32-2.55-12.53-5.51-19-7.38a22,22,0,0,0-11.46.06c-6.37,1.81-12.45,4.64-18.6,7.16a28.14,28.14,0,0,1-22.33-.05c-5.84-2.42-11.81-4.51-17.6-7a15.24,15.24,0,0,0-13-.08c-5.78,2.54-11.77,4.61-17.6,7a28.33,28.33,0,0,1-22.79,0C133.8,268.79,129.17,267.07,125,265.44Zm6.19-124.51c0,7.29.21,14.91-.05,22.51-.42,12.28-.46,12,10.82,16.73a18.65,18.65,0,0,0,15.83-.13c5.45-2.45,11.13-4.41,16.66-6.7a27.2,27.2,0,0,1,21.37,0c6,2.42,12.14,4.57,18.06,7.19a15.89,15.89,0,0,0,13.48,0c5.81-2.48,11.77-4.6,17.6-7.05a27.84,27.84,0,0,1,22.31.08c6.14,2.54,12.23,5.36,18.58,7.21a20.79,20.79,0,0,0,11,.05c6.51-1.89,12.77-4.72,19.06-7.37a27.74,27.74,0,0,1,22.3.16c6.14,2.55,12.25,5.24,18.57,7.25a19.44,19.44,0,0,0,9.64.41,58.56,58.56,0,0,0,12.09-4.61,4.92,4.92,0,0,0,2.51-3.49c.19-10.8.11-21.61.11-32.87a18,18,0,0,0-3.31.64c-11.35,6-22.45,4.67-33.47-1-2.07-1-4.42-1.55-6.45-2.66-7.48-4.09-14.56-3.36-22.34-.06-25.9,11-23.47,10.34-48.13.09-8.2-3.41-15.2-3.22-23.3.17-24.38,10.19-22.64,10.47-46.27.32-9.17-4-17.26-4.24-26.08.32-12.53,6.48-25.49,9.89-39,2.37C132.75,140.47,132.54,140.6,131.21,140.93Zm-64,299.73c-15.4,0-30-.07-44.65.13-1.1,0-3.07,1.94-3.11,3-.29,7-.36,14,0,20.95.08,1.41,2.39,3.83,3.71,3.86,13.47.29,26.94.25,40.41,0,1.22,0,3.41-1.92,3.45-3C67.34,457.56,67.2,449.44,67.2,440.66Zm377.68.26c0,8.37-.15,16.49.18,24.59,0,1.15,2.44,3.14,3.78,3.17q20,.35,39.94,0c1.34,0,3.77-1.75,3.81-2.76.31-8.26.17-16.54.17-25Z"/><path d="M256.18,0q34.49,0,69,0C338.58,0,346.53,8,346.68,21.45q.1,8.75,0,17.49c-.13,11.91-5.86,18.94-17.54,21.38-26.9,5.62-53.89,11.82-81.56,9.48-19.68-1.66-39.15-5.61-58.76-8.22-20.57-2.74-24.53-12.72-23.56-29,.23-4-.05-8,0-12C165.64,8,173.67.05,186.21,0Q221.19,0,256.18,0ZM256,15c-23,0-46,.06-68.93,0-4.62,0-6.83,1.78-6.77,6.45.08,6,.05,12,0,18,0,3.54,1.61,5.6,5.12,6.24,13.41,2.46,26.78,5.18,40.23,7.38,34.21,5.6,67.63-.25,100.94-7.37,3.5-.74,5.13-2.74,5.11-6.26,0-5.5,0-11,0-16.49,0-6.76-1.12-7.87-7.76-7.87Z"/></g></g></svg>