<svg xmlns="http://www.w3.org/2000/svg" viewBox="0 0 326.95 408.17"><g id="katman_2" data-name="katman 2"><g id="katman_1-2" data-name="katman 1"><path d="M17.33,408.17c-7.85-3-11.28-8.74-10.55-17.1.2-2.25,0-4.52,0-6.78a7.54,7.54,0,0,0-2-5.61c-1.55-1.82-2.2-4.79-2.35-7.32-.94-15.26-2-30.54-2.3-45.83a1109.39,1109.39,0,0,1,6.6-139c4-36.77,8.93-73.37,18.58-109.15,2.27-8.43,5.6-16.58,8.68-24.78,2.29-6.12,7.1-9.76,12.56-13.26,18.48-11.83,36.72-24,54.8-36.47,5-3.46,9.1-3.64,14.62-1,31.6,14.92,63.46,14.93,95-.05,5.55-2.63,9.57-2.37,14.58,1.08,17.3,11.92,34.47,24.13,52.55,34.77C289,44,294.59,53,297.53,64.05c5,18.72,10.12,37.49,13.46,56.54C322.83,188,327.75,256,326.84,324.35c-.21,15.68-1.42,31.35-2.22,47-.17,3.18-.4,6.38-3.44,8.54-.66.47-.9,1.82-.94,2.79a67,67,0,0,0,0,8.38c.7,8.36-2.72,14.07-10.57,17.08H283.3c-6.31-2.44-10.49-6.5-10.71-13.74s.51-14.54-3-21.63c-2.34-4.74-2.74-10.44-4.25-16.75-2.15,6.36-4.05,11.58-5.66,16.89-1.21,4-2.76,7.53-7.54,8.12-.38,10.44,2.77,22-10.38,27.11H85.22c-13.17-5.12-10-16.68-10.4-27.12-4.77-.6-6.32-4.11-7.54-8.13-1.63-5.37-3.56-10.64-5.66-16.85-1,4.07-1.94,7.12-2.46,10.24-1.41,8.35-6.07,16-4.84,24.95,1.14,8.27-2.68,14-10.63,16.91Zm62.73-40.94H247.64c1.73-6.7,4.37-13.38,5-20.26,2.14-22.1,4-44.25,5.16-66.42A1184.7,1184.7,0,0,0,253.14,92c-.71-6.72-1.53-13.39.33-20.19a53.74,53.74,0,0,1,14-24.53L221.81,16.84c-4.1,6.14-7.14,12.87-12.06,17.65C196.23,47.63,182,60,167.86,72.55c-3,2.7-6.41,2.08-9.42-.47s-6.34-5.28-9.4-8c-10.35-9.36-21-18.38-30.79-28.34-5.2-5.31-8.7-12.27-13.17-18.78L59.55,47.26c1.32,1.48,2.42,2.6,3.4,3.82,8,9.86,12.51,20.94,11.64,33.81C72.34,118.33,69.08,151.73,68,185.2a1151.05,1151.05,0,0,0,5.29,153.87C74.23,348.8,76,358.2,80.06,367.23Zm230.94.11c.16-1,.3-1.61.35-2.25,2.72-33.73,2.77-67.51,1.25-101.3a1122.14,1122.14,0,0,0-11.73-120.25c-3.76-24.43-7.93-48.79-15.15-72.5-1.62-5.31-4-10.41-6.18-16.2-9.35,8.47-14.3,17.72-13.46,29.28,1.79,24.8,4.55,49.54,5.71,74.37a1202,1202,0,0,1-2,152c-.66,8.19-1,16.12,3.26,23.54a9.6,9.6,0,0,1,.75,2.27c2.56,9.35,5.06,18.71,7.73,28,.33,1.15,1.5,2.9,2.32,2.92C292.83,367.41,301.85,367.34,311,367.34Zm-295.21,0c8.54,0,16.65-.21,24.73.1,3.58.14,4.62-1.27,5.51-4.42,3.6-12.62,7.57-25.15,11.3-37.73a14.86,14.86,0,0,0,.55-5.06c-.73-12.08-1.72-24.14-2.34-36.23A1285.37,1285.37,0,0,1,60.88,83.56c1.19-11.34-4.16-20.64-13.57-28.67-2.23,5.93-4.54,11-6.08,16.29C29.69,110.92,23.9,151.73,19.92,192.75c-3,30.82-4.58,61.8-6.11,92.74C12.48,312.61,13.67,339.74,15.79,367.35Zm222.62,13.94H88.71v13h149.7ZM163.48,58.71C177,45.75,192.84,36,204,19.7c-27.25,8.93-53.67,8.91-81,0C134.21,36,150,45.74,163.48,58.71ZM20.69,381.17v13.19H40.48V381.17Zm265.88-.07v13.21h19.66V381.1Z"/><path d="M204.68,107.9c6.51-7.7,14.54-12.4,24.71-13,5.38-.32,8.68,1.94,9,6.18.3,3.79-2.45,6.54-7.32,7.33-12.88,2.11-17.9,7.17-19.79,20-.65,4.39-3.14,7-6.76,7.09s-6.4-2.44-6.92-7.22c-1-9.71-5.81-16.34-15.33-19.16-2-.6-4.19-.64-6.26-1.09-3.77-.82-5.77-3.47-5.5-7.09s3-6.17,7-6.13A33.33,33.33,0,0,1,202,105.59c.65.67,1.26,1.37,1.89,2C204,107.72,204.15,107.72,204.68,107.9Z"/></g></g></svg>