<svg xmlns="http://www.w3.org/2000/svg" viewBox="0 0 358.18 366.52"><g id="katman_2" data-name="katman 2"><g id="katman_1-2" data-name="katman 1"><path d="M303.81,342.23c0,3,.05,5.45,0,7.94A16.39,16.39,0,0,1,288,366.46c-1,.06-2,.06-3,.06q-105.92,0-211.85,0a26.17,26.17,0,0,1-6.68-.64,16.19,16.19,0,0,1-12-15.39c-.09-2.61,0-5.22,0-8.29Q43,341.1,31.74,340.06c-5.22-.49-10.46-.85-15.67-1.46-9.79-1.13-16.93-9.48-16-19.25,3.76-39,7.08-78.14,11.77-117.07,3.86-32.08,9.09-64,14.39-95.91a433,433,0,0,1,10-43.78c5.44-19.77,18-33.81,37.19-41.28,18.13-7.06,36.51-13.5,54.83-20,7.55-2.7,14.19-1.06,19.74,5,17.74,19.18,44,19.29,62,.2,5.93-6.28,12.7-7.82,20.73-4.87,17.34,6.35,34.76,12.48,52,19,20.92,7.83,34.17,22.7,39.84,44.34,9.27,35.33,15.36,71.25,20,107.43q5.48,43.11,10.2,86.32c2.18,20.24,3.7,40.55,5.34,60.85A17.75,17.75,0,0,1,342,338.61c-10.55,1.13-21.14,2-31.71,2.93C308.21,341.74,306.1,342,303.81,342.23ZM179.1,142.78c6.52-5.95,12.67-11.62,18.9-17.21,11.86-10.64,26.35-11.44,39.43-2.2,6.23,4.39,12.46,8.78,18.55,13.36,2.83,2.13,4.82,2.12,7.31-.66,9.74-10.9,19.71-21.59,29.49-32.46a7.45,7.45,0,0,0,1.79-4.23c.79-12,1.41-23.95,2.05-35.92.22-4,1.82-6.11,4.74-5.78,3.49.39,4.42,2.85,4.25,5.93-.78,14.22-1.43,28.45-2.43,42.66-1.33,18.94-2.95,37.86-4.39,56.79-.06.85.23,2.21.82,2.56,4.64,2.83,9.4,5.47,14.27,8.25,5.42-7.63,10.6-14.81,15.6-22.11a6,6,0,0,0,.46-3.85A671.74,671.74,0,0,0,313.32,65C309,48.84,298.91,36.83,283.49,30.54c-18.7-7.63-37.89-14-56.9-20.89-2.85-1-5.74-1-8.33,1.59,3.21,2.46,6.19,4.71,9.15,7,3.54,2.73,4.3,5,2.5,7.46s-4.5,2.32-7.86-.22-6.92-5.27-10.4-7.93L204.22,23c1.54,3.3,3,6.34,4.38,9.39,1.25,2.78,1,5.34-2,6.62-2.7,1.17-4.82,0-6.08-2.72-1.47-3.15-3-6.26-4.51-9.4l-12.41,2.75c0,3.07,0,6.06,0,9.05s-1.31,5-4.34,5c-3.25.08-4.63-2-4.64-5.1s0-6,0-9l-12.4-2.73c-1.06,2.17-2.11,4.28-3.12,6.4-2.68,5.62-4.58,7.08-7.58,5.76s-3.19-4-.46-9.78c1-2.1,1.93-4.23,2.89-6.35l-7.43-5.33c-3.61,2.74-7.16,5.48-10.75,8.16-3.11,2.32-5.92,2.28-7.51-.16-2-3-.43-5.13,2-7,3.24-2.44,6.43-5,9.78-7.54-2.94-2.46-5.81-2.41-8.78-1.33-18.3,6.63-36.71,13-54.84,20C60.3,36.05,49.51,47.94,45,64.63a658.9,658.9,0,0,0-16.81,83.63c-.13,1-.34,2.19.12,2.86,5.23,7.57,10.58,15.06,16,22.76,4.8-2.75,9.28-5.2,13.61-7.89a3.78,3.78,0,0,0,1.43-2.94c-1.14-15.7-2.54-31.38-3.62-47.08-1.2-17.32-2.16-34.66-3.14-52-.23-4,1.39-6.16,4.22-6.34,3-.19,4.53,1.87,4.76,6.19.59,11.36,1.16,22.71,2,34.05a10,10,0,0,0,2.26,5.56c9.65,11,19.54,21.75,29.2,32.72,2.35,2.66,4.29,2.71,7,.68,6.11-4.55,12.35-8.93,18.56-13.34,13.37-9.48,27.86-8.61,40,2.41C166.67,131.43,172.74,137,179.1,142.78ZM144.67,357.41c0-6,0-11.56,0-17.16,0-3.12.93-5.51,4.39-5.84,2.92-.28,4.59,1.93,4.61,5.88,0,5.59,0,11.19,0,17h21.05c0-5.74-.11-11.22.07-16.69.05-1.63.43-3.72,1.5-4.73s3.47-1.49,4.61-.9a6,6,0,0,1,2.69,4.31c.3,5.95.12,11.92.12,18h21.07v-4.75c0-4.37-.05-8.75,0-13.12.06-2.88,1.51-4.92,4.52-4.91s4.43,1.93,4.43,4.91c0,1.38,0,2.75,0,4.12V357.3h21.09c0-1.54,0-2.88,0-4.21,0-4.5,0-9,0-13.5,0-3,1.4-5.22,4.64-5.16,3,.06,4.33,2.11,4.32,5,0,1.75,0,3.5,0,5.25v12.53H265c0-2,0-3.71,0-5.43,0-4.37-.3-8.79.24-13.1a6,6,0,0,1,3.83-4.07c1.27-.28,3.36,1.48,4.48,2.83.72.86.42,2.63.43,4,0,5.21,0,10.42,0,16h10.87c7.67,0,10.16-2.57,9.9-10.16q-1.28-37.28-2.58-74.55c-.19-5.41-.5-10.82-.76-16.26-2.94,2.79-5.74,5.25-8.33,7.92-12.18,12.58-27.18,14-41.48,3.89-6.42-4.55-12.88-9.05-19.15-13.8-2.75-2.1-4.66-1.89-7.1.48-5.11,5-10.47,9.66-15.75,14.44-12.63,11.43-28.17,11.49-40.83.13-5.3-4.76-10.67-9.45-15.74-14.44-2.73-2.69-4.84-2.59-7.71-.31-4.3,3.41-8.9,6.45-13.37,9.65-2.54,1.81-5,3.71-7.63,5.43a29.35,29.35,0,0,1-37.7-4c-3.16-3.22-6.23-6.52-9.83-10.29-.1,1.54-.16,2.14-.18,2.74q-1,27.54-2,55.07-.63,17.61-1.15,35.22c-.13,4.77,2.09,8.23,6,8.54,4.92.39,9.89.1,15.16.1v-3.19c0-5,0-10,0-15,0-2.79,1.54-4.61,4.31-4.69,3-.08,4.54,1.75,4.65,4.72.06,1.37,0,2.75,0,4.12v14h21c0-6.2-.06-12.17,0-18.14,0-2.95,1.7-4.8,4.67-4.71,2.76.09,4.24,1.88,4.28,4.7,0,2.5,0,5,0,7.5v10.77ZM291,146.88l-.89-.26c-2.44,2.67-4.9,5.33-7.33,8-11.61,12.8-27.62,14.55-41.73,4.53-6.31-4.49-12.66-8.93-18.86-13.56-2.47-1.85-4.32-1.74-6.55.35q-9.16,8.6-18.56,16.93c-11,9.73-25,9.73-36,0q-9.37-8.34-18.55-16.93c-2.21-2.07-4.06-2.25-6.55-.39-6.2,4.64-12.54,9.09-18.86,13.57-14.31,10.13-30.29,8.28-42-4.79-2.43-2.72-4.93-5.38-8.13-8.87.63,9.15,1.58,17.11,1.63,25.07.1,14.61-.38,29.22-.47,43.82A7.36,7.36,0,0,0,69.77,219c8.16,9,16.55,17.71,24.72,26.67,2.26,2.48,4.07,2.53,6.68.59,6.71-5,13.53-9.86,20.38-14.66,12.28-8.61,27.1-7.67,38.22,2.37,5.37,4.86,10.85,9.62,16,14.74,2.63,2.62,4.3,2.28,6.76-.13,5-4.89,10.27-9.51,15.46-14.2,11.84-10.7,26.29-11.54,39.39-2.27,6.52,4.61,13.09,9.18,19.44,14,3,2.27,4.86,1.8,7.27-.8q11.61-12.5,23.59-24.64a7.61,7.61,0,0,0,2.42-6.25c-.87-17.85-1.81-35.69,0-53.54C290.51,156.25,290.69,151.56,291,146.88Zm2.3-29.14-.87-.32L270,142c-6.23,6.81-11.63,7.41-19,2.1-6.4-4.58-12.75-9.23-19.19-13.75-9.12-6.4-19.24-5.76-27.45,1.66-6.21,5.62-12.34,11.32-18.56,16.92-4.71,4.23-8.52,4.24-13.19,0-6.14-5.52-12.16-11.15-18.3-16.66-8.82-7.91-18.68-8.44-28.33-1.58-6.62,4.71-13.17,9.5-19.81,14.17-6,4.22-12.11,3.44-17.06-2Q81,133.94,73,125c-2.46-2.73-5-5.43-8.19-9,.27,4,.62,6.83.6,9.66,0,3.62,1.47,6.3,4,8.85,4.43,4.57,8.59,9.41,12.84,14.16,8.15,9.11,19.27,10.48,29.22,3.48,6.44-4.53,12.79-9.18,19.19-13.75,6.77-4.84,11.73-4.63,17.84.85s12.34,11.32,18.6,16.88c7.55,6.72,16.47,6.73,24,0,6.07-5.4,12-10.92,18-16.38,6.81-6.19,11.4-6.42,19-1,6.51,4.64,12.94,9.4,19.53,13.91,9,6.17,20.11,4.89,27.56-3.09,5.29-5.66,10.47-11.42,15.66-17.18a5.05,5.05,0,0,0,1.46-2.49C292.75,125.9,293,121.82,293.3,117.74Zm-2.39,112.83c-1.76,1.68-2.65,2.47-3.47,3.32-5.8,6-11.57,12.1-17.38,18.13s-11.12,6.57-17.91,1.74-13.58-9.79-20.42-14.61c-9.16-6.45-19.17-5.84-27.4,1.64-5.65,5.12-11.24,10.3-16.89,15.42s-11,5.13-16.65,0c-5.47-5-10.86-10-16.33-14.93-9.13-8.28-18.8-8.78-28.88-1.55-6.7,4.8-13.36,9.66-20.11,14.4-6,4.24-11.69,3.68-16.78-1.66q-9.06-9.5-17.93-19.16A16.17,16.17,0,0,1,69,230.12l-1.19,1.09c-.92,6.42-1.49,12.54,4.68,17.37,3.6,2.81,6.39,6.66,9.57,10,8.28,8.75,18.83,9.84,28.65,2.9,6.94-4.9,13.8-9.91,20.73-14.82,6-4.25,11.13-3.93,16.6,1,5.66,5.1,11.24,10.29,16.91,15.4,8.92,8,19.39,8.05,28.29,0,5.49-4.93,10.89-9.94,16.36-14.89,6.31-5.73,11-6,18.08-.93,6.8,4.87,13.55,9.83,20.41,14.62,9,6.28,19.6,5.32,27.28-2.44,4.75-4.8,9.37-9.72,14-14.62a4.66,4.66,0,0,0,1.49-2.46C291,238.82,290.91,235.25,290.91,230.57Zm-240.85,38c5.92-1.33,7.83-4.6,7.72-10.46-.21-10.59.77-21.19,1-31.79.2-9.82.05-19.65.05-29.45a30.36,30.36,0,0,1-18.75,3.4c-7.06-1-12.88-4.32-17.86-10.64-2.33,20-4.55,39.14-6.81,58.52,15-5.13,24.88,1.55,30.05,12.23C46.84,263.27,48.6,266,50.06,268.56ZM298.6,196.83c0,2.73-.09,5.46,0,8.17.64,18,1.53,35.91,1.84,53.88.09,4.79,1.3,7.82,5.9,9.23a15.92,15.92,0,0,1,1.6.71c2.26-3.92,4.49-7.79,6.73-11.66,3.23-5.61,8-9.5,14.36-10.33,4.32-.56,8.81.18,13.64.36-2.14-18.44-4.37-37.57-6.62-57C322.21,202,318.57,202.64,298.6,196.83ZM334.14,277c-6.55,14-14.47,24.82-32.18,19.61l1.37,36.61,7.29-.83c-.26-4.31-.49-8.16-.72-12s1.17-5.88,4-6c3.58-.14,4.73,2.09,4.92,5.25.24,3.95.56,7.9.87,12,2.33-.21,4.3-.38,6.27-.57l6.37-.6c-.24-4.28-.41-8-.65-11.73-.26-3.92,1.11-6.19,4-6.45s4.57,1.65,4.94,5.69c.34,3.79.55,7.58.82,11.45,5.69-1.43,8.09-5,7.61-10.61-.7-8.46-1.35-16.93-2.09-25.39-.11-1.2-.24-2.67-.95-3.49C342.37,285.73,338.51,281.69,334.14,277ZM54.89,333.17c.44-12.36.88-24.35,1.32-36.48-13.82,3-21.32-.34-28.17-12.31-1.32-2.31-2.72-4.58-4.25-7.16-4,4.39-7.72,8.29-11.27,12.31a5.51,5.51,0,0,0-1.24,3c-.81,9.08-1.57,18.16-2.22,27.26-.36,5.08,2.52,8.63,7.68,9.49.27-3.84.47-7.67.82-11.48s2.24-6,5.09-5.45c3.43.64,4.1,3.13,3.85,6.22-.3,3.83-.44,7.68-.68,11.93l12.64,1.15c.34-4.57.64-8.78,1-13,.21-2.62,1.59-4.17,4.25-4.33,3.06-.18,4.84,2.1,4.63,5.84-.23,4.06-.47,8.12-.71,12.22Zm290.49-57.34c-.51-5.43-.87-9.72-1.38-14a4.67,4.67,0,0,0-1.32-2.16,12.16,12.16,0,0,0-20,1.67c-2.88,4.66-5.45,9.5-8.2,14.25-2.46,4.25-4.23,4.76-8.5,2.53l-4.57-2.38a51.92,51.92,0,0,1-.05,6.43c-.47,3.46,1.49,4.95,4.27,6,5.79,2.16,11.76.07,15.13-5.52,2.83-4.69,5.43-9.51,8.22-14.23,2.46-4.16,5.3-4.47,8.64-1C340,269.93,342.3,272.49,345.38,275.83ZM12.87,274.66l.71.33,5.77-6.27c4.84-5.3,7.14-5.07,10.66,1,2.55,4.43,5,8.93,7.69,13.27a12,12,0,0,0,16.95,4,4.39,4.39,0,0,0,2-2.77,83.08,83.08,0,0,0,.1-8.43c-1.58.78-2.8,1.34-4,2-4.94,2.62-6.5,2.19-9.3-2.68-2.61-4.54-5.14-9.13-7.81-13.64a11.94,11.94,0,0,0-10.8-6.24c-6.08,0-10.3,3.73-11,9.74C13.44,268.21,13.18,271.44,12.87,274.66Zm13.19-110.9c-1.34,7-2.43,12.33,1.83,18.6a20.12,20.12,0,0,0,27.59,5.92c5-3.09,6.35-6.65,4-12.65-2.83,1.61-5.63,3.22-8.45,4.8-6.53,3.67-11.13,2.68-15.47-3.36C32.51,172.86,29.52,168.62,26.06,163.76Zm305.87.91c-.16.07-.46.12-.58.29Q327,171,322.63,177.13c-4.22,5.93-8.72,7-15.12,3.47-3-1.65-6-3.33-9.1-5.06-1.69,8.58-1,10.05,6,13.61a17.57,17.57,0,0,0,2.75,1.19c7.17,2.29,13.92,1.64,19.48-3.78C332.84,180.46,336.17,173.42,331.93,164.67Z"/><path d="M179.34,93.3a6.05,6.05,0,0,1,5.89,6.38,6.08,6.08,0,0,1-12.15-.33A6.14,6.14,0,0,1,179.34,93.3Z"/><path d="M55.51,154.59a6,6,0,0,1-6.07,6.19,6.08,6.08,0,0,1-6.11-6.19,6,6,0,0,1,5.93-6A5.9,5.9,0,0,1,55.51,154.59Z"/><path d="M308.69,148.61a6,6,0,0,1,6.15,6.11,6.08,6.08,0,0,1-6.23,6.06,6.09,6.09,0,0,1,.08-12.17Z"/><path d="M112.93,99.51a6.17,6.17,0,0,1-12.33,0,6.17,6.17,0,1,1,12.33,0Z"/><path d="M251.65,93.29a6.3,6.3,0,0,1,6.12,6.27,6.1,6.1,0,0,1-6.38,5.93,6,6,0,0,1-5.89-6A6.15,6.15,0,0,1,251.65,93.29Z"/><path d="M105.85,310.26a6.12,6.12,0,0,1-6.17-6.15,6.3,6.3,0,0,1,6.33-6.05,6.16,6.16,0,0,1,5.93,6A6,6,0,0,1,105.85,310.26Z"/><path d="M256.85,304a6.16,6.16,0,0,1-12.31.51,6.16,6.16,0,1,1,12.31-.51Z"/><path d="M185.07,304.28a6.09,6.09,0,0,1-6.32,6,6,6,0,0,1-5.87-6,6.06,6.06,0,0,1,6.07-6.22A6.22,6.22,0,0,1,185.07,304.28Z"/><path d="M211.65,190.61a6.11,6.11,0,0,1,6.28,6,6.16,6.16,0,0,1-12.31.23A6.07,6.07,0,0,1,211.65,190.61Z"/><path d="M139.16,202.77a6,6,0,0,1-5.88-6.37,6.06,6.06,0,0,1,12.12.36A6,6,0,0,1,139.16,202.77Z"/><path d="M39.2,222.72A6.24,6.24,0,0,1,33,228.88a6.39,6.39,0,0,1-6-6A6.3,6.3,0,0,1,33,216.53,6.2,6.2,0,0,1,39.2,222.72Z"/><path d="M324.92,228.87a6.26,6.26,0,0,1-5.94-6.44,6.19,6.19,0,0,1,6.1-5.9,6.17,6.17,0,1,1-.16,12.34Z"/></g></g></svg>