<svg xmlns="http://www.w3.org/2000/svg" viewBox="0 0 335.13 324.82"><g id="katman_2" data-name="katman 2"><g id="katman_1-2" data-name="katman 1"><path d="M261.26,213.15q.57,26.61,1.16,53.21.57,26.24,1.15,52.47c.1,5-.82,6-5.81,6H76.31c-5.24,0-6.17-1.06-6-6.56q1.06-48.36,2.14-96.7a9.46,9.46,0,0,0-.66-4.24q-2.74,8.2-5.51,16.4Q62.66,244.36,59.06,255c-1.66,4.89-2.73,5.42-7.76,3.82q-23.35-7.44-46.7-14.9c-4.65-1.49-5.3-2.69-4-7.45Q16.74,175.72,32.92,115c2.28-8.56,4.64-17.09,6.84-25.68C46.21,64.06,62.5,50,88.09,46.2,96.58,45,105,43.32,113.71,41.83c0-5.93.32-11.56-.09-17.13-.5-6.86,2.31-12,8.12-14.76A90.64,90.64,0,0,1,142.4,2.63c20.24-4,40.53-3.64,60.39,2.48a55.8,55.8,0,0,1,13.26,6.69c4,2.58,5.71,6.71,5.51,11.62s.09,10-.2,15c-.18,3,1.06,3.75,3.75,4.16,9.13,1.38,18.29,2.71,27.32,4.64C274,51.8,288.48,64.62,294.35,85.94c11,39.93,21.44,80,32.11,120q4.05,15.18,8.08,30.38c1.31,4.94.66,6.16-4.2,7.7q-23.35,7.45-46.72,14.84c-4.77,1.52-5.92,1-7.5-3.74q-6.63-19.68-13.22-39.37c-.3-.92-.63-1.83-.95-2.74ZM78.6,316.85H255.76c0-1,.11-1.68.09-2.4q-.81-36.54-1.65-73.09Q252.87,181.2,251.54,121c-.06-2.76.37-5.37,3.59-5.5,3.47-.15,4,2.51,4.07,5.43.4,18.74.73,37.49,1.41,56.22a58,58,0,0,0,2.48,14.6c3.24,10.71,7,21.26,10.69,32.15l44.91-15.61a5.13,5.13,0,0,0,.11-1.07C308.09,167,297.7,126.63,286.49,86.49c-4.73-17-16.73-27.56-34-31.34-10.73-2.34-21.61-3.94-32.45-5.69-1.31-.21-2.84.53-4.17,1.07-7.27,3-14.33,6.58-21.79,8.88s-15.28,3.29-23,4.88a6.94,6.94,0,0,0,2.87,8.27c1.3.94,2.79,2,3.39,3.42s.75,3.53,0,4.68c-.57.93-2.72,1-4.2,1.19-.58.07-1.26-.57-2.35-1.12v42.73c0,1,.34,2.23-.12,3-.89,1.41-2.39,3.67-3.36,3.53-1.49-.2-2.89-2-4-3.37-.44-.52-.11-1.69-.11-2.57q0-27.73,0-55.49V64.15a14.6,14.6,0,0,0-1.88-.38,87.32,87.32,0,0,1-43.07-13.61,6.64,6.64,0,0,0-4.21-.5c-8.27,1.29-16.48,2.91-24.75,4.11C66.68,57,52.7,69.46,47,91.58c-7.15,27.79-14.66,55.49-22,83.22-2.93,11.06-5.9,22.1-8.91,33.4l45.32,15.69c3.92-11.69,7.76-23,11.47-34.37a16.11,16.11,0,0,0,.33-4.47q.74-31.86,1.44-63.72c0-1-.21-2.3.32-2.91,1-1.2,2.57-2.81,3.82-2.75s2.61,1.86,3.36,3.21c.53,1,.15,2.44.12,3.69q-.82,39-1.66,77.94c-.66,29.74-1.38,59.47-2,89.21C78.44,298.68,78.6,307.65,78.6,316.85ZM171.26,35.09c4.17-.49,12.23-.79,20-2.54a90.64,90.64,0,0,0,19.46-7.22c4.08-2,3.91-5.34.13-7.91a32.88,32.88,0,0,0-8.3-4.19,113.05,113.05,0,0,0-69.58-.11A34,34,0,0,0,124,17.71c-3.27,2.25-3.27,5-.09,7.31a34.85,34.85,0,0,0,7.85,4.25C143.24,33.7,155.28,34.77,171.26,35.09ZM121.82,34c-1.35,8.56-1.19,9.15,6.34,13,28.42,14.48,56.24,11.08,83.62-3a3.34,3.34,0,0,0,1.75-2.11c.22-2.68.09-5.39.09-7.93C182.86,45.66,152.54,45.76,121.82,34ZM59,231.22,14.09,215.64c-1.95,7.36-3.78,14.29-5.67,21.43l43.89,14C54.54,244.39,56.67,238,59,231.22Zm223.88,19.89,43.91-14.05c-2-7.33-3.82-14.25-5.73-21.37l-44.83,15.55C278.46,238,280.59,244.38,282.84,251.11Z"/></g></g></svg>