<svg xmlns="http://www.w3.org/2000/svg" viewBox="0 0 508.22 512"><g id="katman_2" data-name="katman 2"><g id="katman_1-2" data-name="katman 1"><path d="M237.82,512c-10.22-1.31-20.48-2.31-30.63-4-18.48-3.07-36.41-8-52.5-18.09-8.45-5.3-16.69-11.53-19.09-21.54-1.92-8.05-5.75-14.77-9.18-22a49.26,49.26,0,0,1-4.34-20.19c-.38-42.32-.19-84.64-.19-127v-5.47l-.88-.22c-.4,1.36-.82,2.71-1.19,4.08q-14.62,52.9-29.21,105.81c-2.18,7.94-5.76,14.81-12.43,19.95A8,8,0,0,0,75.86,428c-1.47,7.69-2.7,15.41-4,23.12-2,11.9-10.53,19-22.58,19A81.09,81.09,0,0,1,13.52,462c-10.84-5.24-15.14-13.85-13-25.75,1.34-7.36,2.65-14.74,4.09-22.08.84-4.29.21-8.29-.48-12.61A76.31,76.31,0,0,1,4,380.34,926.44,926.44,0,0,1,31.47,245.47c1.6-5.72,5.18-8.22,9.61-7,4.72,1.33,6.49,5.24,4.86,11.23A979.18,979.18,0,0,0,22.33,359Q19.95,374.52,18,390.12c-1.09,8.79,2.92,15.73,11.42,18.08a201.44,201.44,0,0,0,27.8,5.66c9.49,1.21,15.54-3.37,18.13-12.69,15.36-55.29,30.81-110.55,45.73-166,2.73-10.14-.33-20.54-3.3-30.45-6.49-21.68-21.14-36.39-41.1-47.28-1.67,4.19-3.33,7.94-4.67,11.8-5.49,15.88-10.74,31.83-16.45,47.63a12.78,12.78,0,0,1-5.79,6.7c-1.77.85-5.88-.19-7-1.77-1.58-2.19-2.46-6-1.69-8.57,4.12-13.51,8.77-26.87,13.4-40.23,2.22-6.44,5.16-12.65,7.12-19.16,2.62-8.67,7.93-15.06,14.72-20.78C98.7,114.23,123.9,100.18,150.8,89c3.74-1.55,5.3-3.24,5.18-7.48-.34-11.66.14-23.34-.2-35-.3-10.43,4-18.36,11.95-24.56C180.82,11.77,196.3,7.23,212.22,4.1c9.11-1.79,18.39-2.76,27.6-4.1h29c10.65,1.67,21.39,3,31.95,5.12,12.61,2.56,24.71,6.76,35.61,13.87,10.66,7,16.76,16.14,16,29.53-.59,10.63.1,21.33-.22,32-.14,4.6,1.13,6.86,5.67,8.74,26.91,11.11,52.06,25.26,74.4,44.18a47.53,47.53,0,0,1,14.16,20A1015.62,1015.62,0,0,1,502.6,367.83c1.1,7.41,2.06,14.84,2.8,22.3.28,2.77.49,5.94-.54,8.38-3.54,8.31-1.05,16.32.38,24.43,1,5.4,2.13,10.79,2.78,16.23,1.13,9.38-2.5,16.82-10.69,21.39a75.73,75.73,0,0,1-41.85,9.38c-9.05-.5-16.81-7.6-18.68-16.85-1.59-7.82-2.5-15.79-4.21-23.59a15,15,0,0,0-4.14-7.32,37.64,37.64,0,0,1-10.68-18.25q-14.85-54.14-29.92-108.22a2.57,2.57,0,0,0-1.64-1.87v4.3q0,35.25,0,70.49c0,1.67,0,3.34-.11,5-.35,4.32-2.95,6.8-7.06,7.06s-6.87-2.2-7.8-6.28a20.23,20.23,0,0,1-.24-4.48q0-67.24,0-134.48c0-25.23,5.55-48.82,23.2-67.77,8-8.56,17.66-15.52,27-23.61-21.45-18.28-46.85-31.67-73.61-42.77-16.4,17.31-37.84,22.64-59.9,26.08-31.87,5-63.44,3.48-94.34-6.34-11.52-3.66-22.31-8.75-30.81-17.77a4.33,4.33,0,0,0-3.72-1.11c-25.78,10.73-50.3,23.65-71.7,41.9-.21.18-.26.57-.44,1,5.59,4,11.45,7.79,16.78,12.2,22,18.24,32.7,42.16,33.31,70.38.59,27.48.24,55,.26,82.48,0,38.16.13,76.32-.07,114.48-.07,13.89,5.61,23.38,18.53,29,19.78,8.56,40.53,13.09,61.8,15.16,33,3.21,66,3.07,98.47-4,13.4-2.9,26.48-7.68,39.33-12.59,10.66-4.08,15.73-12.89,15.85-24.35.07-7.5,0-15,0-22.5.06-5.8,2.93-9.22,7.56-9.28s7.56,3.33,7.61,9.14q.1,12.24-.07,24.49c-.13,9.52-3.48,17.84-9.42,25.24a9.11,9.11,0,0,0-2.1,4.79c-.53,9.83-5.23,17.4-12.37,23.68-13.14,11.55-29,17.64-45.68,21.32-13.6,3-27.57,4.36-41.37,6.46-1.46.22-2.9.56-4.34.85Zm194.1-354.74c-19.5,10.6-33.73,24.5-40.68,44.78-3.74,10.92-7,22.49-4,33.78,14.83,55.24,30.31,110.3,45.62,165.41,2.5,9,8.51,13.8,17.65,12.65A206.13,206.13,0,0,0,479.25,408c7.85-2.16,11.69-8.83,10.89-16.93-.68-6.95-1.52-13.9-2.54-20.81a979.77,979.77,0,0,0-38.29-163C443.89,190.7,437.88,174.33,431.92,157.26ZM337,65.11c0-6-.33-12,.09-18,.44-6.25-2-11-7.06-13.89-6.72-3.88-13.63-7.9-21-10.17-32.38-10-65.34-10.49-98.23-3.1-10.39,2.33-20.39,6.94-30.12,11.48-6.87,3.21-10.32,9.14-9.87,17.49.61,11.3.37,22.66.06,34-.15,5.76,1.81,10.34,6.45,13.23,5.89,3.67,11.92,7.56,18.44,9.7,35.94,11.82,72.39,12,108.79,2.45,8.69-2.29,16.88-6.85,24.9-11.11,5.44-2.89,8.16-7.91,7.63-14.59C336.65,76.81,337,70.94,337,65.11ZM353.86,470.5c-66.72,20.63-132.79,20.8-199.62-.15,7.45,7.25,16,11.28,24.87,14.59,20.16,7.49,41.17,10.59,62.55,11.54,27.79,1.24,55.21-1.07,81.85-9.57C334.46,483.41,345,478.94,353.86,470.5Zm-293.93-40-41.3-8.74c-1.11,6-2.74,12.84-3.39,19.74-.19,2,2,5.12,3.93,6.18a58.38,58.38,0,0,0,30.76,7.07c2.23-.09,5.73-2.43,6.27-4.39C58.05,443.71,58.84,436.75,59.93,430.52Zm388.35,0c1.05,6.13,2.1,12.5,3.26,18.86a6.24,6.24,0,0,0,6.62,5.56,66.88,66.88,0,0,0,30.83-7c3-1.49,4.52-3.93,3.95-7.31-1.08-6.5-2.29-13-3.32-18.76Z"/><path d="M254.94,72.53c-19.05-.31-36.17-3.69-51.39-13.85A44.33,44.33,0,0,1,197,53.35c-3.23-3.2-3.34-7.73-.55-10.75s6.74-3.44,10.33-.67c24.13,18.61,50.7,18.63,78.14,9.8,5.53-1.78,10.5-5.6,15.39-9,4.59-3.17,8.46-3.53,11.55-.13s2.6,8-1.72,11.76c-12.81,11.22-28.32,15.69-44.8,17.54C261.51,72.36,257.66,72.38,254.94,72.53Z"/></g></g></svg>