<svg xmlns="http://www.w3.org/2000/svg" viewBox="0 0 384 338.58"><g id="katman_2" data-name="katman 2"><g id="katman_1-2" data-name="katman 1"><path d="M384,247.3v78.76c-3.79,10.44-6.8,12.5-18.33,12.5-9.12,0-18.24,0-27.37,0s-15.45-4.9-17.94-13.56c-4.86-16.91-9.8-33.79-14.55-50.72-2.76-9.8-5.22-19.67-8.1-30.58-.3,2.06-.55,3.1-.58,4.15-.79,24.85-1.65,49.7-2.28,74.55-.28,10.76-5.42,16.16-16.13,16.17H105.49c-11,0-16-5.32-16.33-16.34-.64-25-1.51-50-2.31-74.93a24.53,24.53,0,0,0-.37-2.74C78.87,271.36,71.36,298,63.72,324.62,61,334.12,54.89,338.53,45,338.55c-8.87,0-17.75,0-26.62,0-11.52,0-14.55-2.07-18.33-12.5V245.8c.46-6.71,1-13.42,1.36-20.14A695.9,695.9,0,0,1,19.45,103.53C25,80.38,34.79,59.73,52.05,43.1c4.54-4.37,9.43-9,15-11.49,23.34-10.46,47-20.19,70.6-30.07A19.24,19.24,0,0,1,144.92.07q46.88-.13,93.74,0A22.36,22.36,0,0,1,247,1.8c20.38,8.5,40.7,17.15,61,25.8,4.36,1.86,9.15,3.2,12.86,6,20.71,15.49,34.26,36,41.26,60.88,1.06,3.77-.46,6.55-3.65,7.5s-6-.76-7.26-4.67c-1.05-3.2-2-6.46-3.15-9.6a102,102,0,0,0-29.18-41.45c-2,3.76-4.06,7.18-5.76,10.77a5.79,5.79,0,0,0-.15,4c1.46,4.19-.09,7.15-4.31,8.19-1.23.3-2.92,1.24-3.25,2.26-1.93,6-3.59,12.14-5.18,18.27a5.9,5.9,0,0,0,.55,3.22c3,8,6.63,15.92,9,24.15,13,45.71,20.88,92.5,29.24,139.19,1.74,9.68,3.31,19.39,5,29.22,3.9-.23,7.68,1.49,10.55-2.81a4.26,4.26,0,0,1,6.93-.1c3.09,4.53,7,2.7,11.07,2.85.07-1,.15-1.75.16-2.47a711.8,711.8,0,0,0-11.59-141.72c-1.13-6-2.45-12-3.42-18a5.3,5.3,0,0,1,4.32-6.41c3-.56,5.48,1,6.5,4.27.26.83.39,1.7.57,2.55a682.12,682.12,0,0,1,13.68,103.91C383.09,234.13,383.57,240.71,384,247.3ZM235.52,118.91c-6.13-6.7-13-14.34-20-21.78-4.94-5.22-5-9.43.13-14.46C223.08,75.45,230.55,68.25,238,61c.92-.91,2.1-2.14,2.15-3.27.23-5.21.1-10.42.1-16.34-5.88,3.5-11.16,6.74-16.53,9.81-16.28,9.33-33.57,11.64-51.21,5.31-8.59-3.08-16.38-8.39-24.52-12.7-1.25-.67-2.47-1.39-4.18-2.36,0,5.36-.18,10,.1,14.59A8,8,0,0,0,146,60.8c7,7.09,14.28,14,21.45,21,6.47,6.28,6.34,9.88.14,16.29-6.84,7.07-13.36,14.45-20,21.7-.17.31,1,1.25,2.09,2.28q9.45,9.1,18.86,18.26c5,4.91,5,9.3.11,14.16-2.58,2.54-5.29,5-7.79,7.58-4.67,4.85-9.22,9.81-14,15a15.82,15.82,0,0,1,1.55,1.27c7,6.78,14.05,13.52,21,20.38,4,4,4,8.46.08,12.53-1.74,1.8-3.64,3.44-5.35,5.26-5.6,6-11.14,12-16.88,18.26-.36-.64-.28-.38-.11-.22,7.25,7.07,14.54,14.09,21.75,21.19,4.68,4.59,4.68,9.05.06,13.62-4.36,4.3-8.8,8.52-13.19,12.79-1,1-2,2-3.11,3.17h77.35c-4.35-4.74-9-10-13.85-15-5.69-5.82-5.61-9.6.11-15.52,6.93-7.17,13.58-14.61,19.33-20.84-5.83-6.39-12.33-13.81-19.16-20.93-6-6.29-6-9.72.08-16,6.81-7.1,13.29-14.51,19.15-20.95-5.39-5.81-11.59-12.84-18.17-19.5-7.53-7.6-7.52-10.43.1-18.15C224.05,131.63,230.24,124.6,235.52,118.91Zm-103,166.7V280.5c0-78.13-.17-156.25.23-234.37.05-8.7-2.22-13.55-9.92-17.81-6.36-3.53-11.54-5-17.57-.8a8.19,8.19,0,0,0-3,3.54c-1.34,3.75-4.79,5.35-8.34,3.55-.93-.47-2.18-1.29-2.9-1-5.39,2.12-10.69,4.47-16.14,6.8,4.44,8.26,8.63,16.06,12.83,23.86,3.77,7,6.65,14.38,7,22.34.42,9.85.26,19.73.2,29.6-.12,20-1,40-.38,60,1,30.72,3,61.4,4.65,92.1.3,5.71.68,11.4,1,17.33h4.48c3.13,0,6.09.48,8.41-3,1.8-2.7,5.75-1.78,8.09,1a5,5,0,0,0,2.74,1.91C126.6,285.78,129.34,285.61,132.52,285.61ZM309.17,40.35c-5.46-2.33-10.46-4.57-15.57-6.55-.88-.34-2.29.19-3.28.69-3.47,1.76-7.62.65-8.17-2.88-.48-3-2.35-3.77-4.51-4.68a26.71,26.71,0,0,0-5.19-2.09,8.37,8.37,0,0,0-5.05.32c-4.32,2.24-8.32,5.07-12.62,7.34-2.56,1.36-3.36,3-3.36,5.9q.14,121.5.07,243v4.21c1.93,0,3.29,0,4.65,0,2.88-.05,5.63.52,7.72-2.85,1.71-2.76,5.82-2,8.14.67.73.85,1.69,2,2.64,2.08,2.94.28,5.93.1,9.2.1.13-1.8.27-3.27.34-4.74,1-17.72,2-35.44,2.84-53.16,1-20.09,2.33-40.19,2.56-60.29.28-23.87-.41-47.75-.79-71.62a63.12,63.12,0,0,1,8-32.32C300.94,55.94,304.91,48.3,309.17,40.35Zm-297.86,245a11,11,0,0,0,2.23.24c2.46-.33,5.73.11,7.22-1.3,4.22-4,6.11-4,10.45,0,1.58,1.46,5,1.15,7.59,1.09.64,0,1.57-2.14,1.78-3.4,8-46.62,16-93.26,26.94-139.3,4.07-17.09,7.76-34.35,15.92-50.17A3.81,3.81,0,0,0,83.81,90c-1.64-6.24-3.3-12.48-5.21-18.64-.29-.93-1.82-1.85-2.93-2.09-4.65-1-6.4-4.23-4.52-8.6.31-.73.77-1.77.49-2.33-2-4-4.23-8-6.49-12.17-15.91,14-26.74,30.49-32.09,50.31C18.78,149.36,12.33,203.3,11.33,258,11.17,267.05,11.31,276.14,11.31,285.34Zm40.16.05c1.1.11,1.59.2,2.07.2a45.38,45.38,0,0,0,7.1-.09,4.33,4.33,0,0,0,3-2.31c9.1-28.48,16.1-57.48,18-87.37,1.39-21.91,1.24-43.92,1.76-65.88a7.54,7.54,0,0,0-.25-1.47C69.49,180.15,60.47,232.59,51.47,285.39ZM301.26,128.48c-2.27,53.42,2,106.05,20.05,157h11.23C323.54,232.68,314.52,180.2,301.26,128.48ZM256.65,18.1c-4.12-1.76-7.82-3.56-11.69-4.86a7,7,0,0,0-5,.38c-5.58,3-10.91,6.55-16.45,9.69C203,34.93,182.4,35.21,161.74,24c-6-3.28-11.79-7-17.74-10.43-1.07-.61-2.68-1.2-3.69-.83-4.26,1.56-8.4,3.48-13,5.46,1.56,1,2.68,1.77,3.84,2.47q16.55,9.91,33.11,19.81c18.26,10.9,36.63,11.07,55,.32,11.63-6.82,23.14-13.85,34.7-20.79C254.76,19.46,255.54,18.86,256.65,18.1ZM122.19,327h31.44V297.11h-9.88c0,3.22.12,6.2,0,9.17-.19,3.72-2.67,6.12-5.86,6s-5.17-2.43-5.29-6.08c-.1-3,0-5.94,0-9.1H122.38c-.07.91-.18,1.63-.18,2.35C122.19,308.53,122.19,317.64,122.19,327ZM163.36,11.48c14.93,12.52,44.08,11.93,57,0Zm33.53,315.58V297.14H187v29.92Zm54.63-30c0,9.62,0,19.07.09,28.51,0,.59,1.16,1.61,1.84,1.66,2.69.19,5.4.08,8.06.08V297Zm-42.8,0v30.1c1,.06,1.72.14,2.45.15,7.61.17,7.61.17,7.61-7.32V297.05Zm-43.49,0v22c0,8.89,0,8.89,8.89,8.24a7,7,0,0,0,1.2-.36V297Zm-64.77,0c0,9.25-.1,18.08.12,26.91a4.39,4.39,0,0,0,2.68,3.17c2.35.49,4.88.15,7.44.15V297Zm183.08.13H273.25v30.1c2.61,0,5.14.34,7.49-.15a4.35,4.35,0,0,0,2.68-3.17C283.64,315.11,283.54,306.28,283.54,297.16Zm-43.6,29.92v-30h-9.61v30ZM11.54,297V321c0,6.53,1.8,7.78,8.18,5.64V297Zm333.65.05V327H353V297.07Zm19.41,29.75c7,1.35,7.87.65,7.87-6.06q0-9,0-17.92v-5.67H364.6ZM157.71,205.41,144.13,190v30.55Zm68.58-.72,13.62,15.47V189.44Zm0,57.14L239.87,277V247ZM144,247.29v30.37l13.81-15.16Zm0-142c5.25-5.84,9.86-11,13.74-15.32L144,75Zm96.05-30.91L226.26,89.26l13.79,15.31Zm-95.12,58.15-.84.53v29.42l14.16-15.14Zm94.2,29.66.8-.46V132.12L225.74,147.6ZM31.54,297v30.08h7.34V297Zm292.81,0c3.18,9.65,4.56,19.38,9.18,28.09V297ZM50.68,324.76l1.16.26,7.69-27.91H50.68Z"/><path d="M349.51,258.28c-.13-4.2,1.94-6.82,5.33-7,3.16-.12,5.48,2.2,5.89,6,.29,2.6.66,5.2.75,7.81.12,3.45-2.07,5.94-5.15,6.16a5.61,5.61,0,0,1-5.95-5C350,263.53,349.78,260.79,349.51,258.28Z"/><path d="M346.09,227c.24-2.74,1.58-4.89,4.83-5.36a5.21,5.21,0,0,1,6.18,4.54,71.62,71.62,0,0,1,1.19,9.24,5.51,5.51,0,0,1-5,5.93c-3,.3-5.44-1.54-6.08-4.76-.29-1.47-.46-2.95-.63-4.44S346.27,228.9,346.09,227Z"/><path d="M320,75.44c3.53,0,5.06,2.44,6.06,5.19,1.37,3.76,5.24,7.23,2,11.71a5.41,5.41,0,0,1-9.1-.61,58.57,58.57,0,0,1-4.2-9.14A5.39,5.39,0,0,1,320,75.44Z"/><path d="M339.85,118.1c-1.66,1.56-3.09,4-4.88,4.29s-5.09-.82-5.91-2.31a39.21,39.21,0,0,1-3.48-10.93,4.47,4.47,0,0,1,3.86-5.5c2-.21,5.2.71,6,2.17C337.41,109.32,338.27,113.43,339.85,118.1Z"/><path d="M354.67,205.05c.07,3.57-1.9,6-4.85,6.39-3.22.4-5.72-1.48-6.3-4.92-.46-2.69-.8-5.41-1.08-8.13-.35-3.55,1.47-6.13,4.55-6.61s5.7,1.26,6.4,4.75C354,199.45,354.29,202.43,354.67,205.05Z"/><path d="M338.17,169.31c-.17-4.47,1.71-7,4.79-7.37,2.85-.37,5.47,1.5,6.15,4.77a71.51,71.51,0,0,1,1.29,9.22c.24,3.22-1.58,5.29-4.65,5.77a5.07,5.07,0,0,1-6.14-4.14C338.88,174.55,338.53,171.45,338.17,169.31Z"/><path d="M192.08,219.06c4.3-3.42,6.94-3.78,9.45-1.43s2.27,5.15-1.18,9.85c3.38,4.27,3.78,7.07,1.35,9.55s-5.15,2.13-9.59-1.11c-5,3.21-7.61,3.48-9.91,1s-1.9-5.3,1.06-8.86a52,52,0,0,1-2.35-7.33c-.16-.93.87-2.32,1.71-3.14C185,215.26,187.53,215.7,192.08,219.06Z"/><path d="M192,162.56c-4.72,3.41-7.36,3.67-9.81,1-2.27-2.49-1.86-5.21,1.06-8.79a52,52,0,0,1-2.32-7.36c-.16-.93.88-2.3,1.72-3.13,2.32-2.29,5.18-1.78,9.2,1.41,5.19-3.33,7.83-3.57,10.11-.91s1.71,5.13-1.56,9.23c3.41,4.85,3.71,7.44,1.16,9.85S196.76,165.93,192,162.56Z"/><path d="M183.74,190.76c-3.5-4.32-3.88-7.18-1.38-9.67s5.12-2,9.6,1.2c4.74-3.26,7.56-3.55,9.88-1s1.87,5.26-1.43,9.24c3.34,5.2,3.63,7.51,1.21,9.89s-4.92,2.12-9.59-1.19c-4.81,3.31-7.49,3.57-9.87,1S180.31,195,183.74,190.76Z"/><path d="M183.74,80.66c-3.45-4.09-3.87-6.84-1.54-9.37s5.19-2.35,9.79,1.06c4.65-3.4,7.37-3.7,9.8-1.07s1.93,5.28-1.36,9.19c3.36,5.67,3.57,7.83,1,10.15s-5.15,1.83-9.22-1.44c-5.28,3.43-7.74,3.65-10.11.91C179.92,87.59,180.33,85.07,183.74,80.66Z"/><path d="M192.12,125.73c-4.69,3.52-7.18,3.85-9.71,1.38s-2.19-5.31,1.16-9.48c-3.41-5.34-3.63-7.72-.93-10.1,2.46-2.18,5.14-1.74,9.23,1.49,4.92-3.33,7.46-3.63,9.84-1.16s2,5.13-1.3,9.52c3.39,4.74,3.68,7.41,1.09,9.83S196.27,129.22,192.12,125.73Z"/><path d="M200.28,264.11c3.41,4.13,3.84,6.86,1.58,9.38s-5.26,2.35-9.81-1c-4.73,3.26-7.52,3.55-9.85,1s-1.92-5,1.43-9.53c-3.35-4.41-3.73-7.06-1.36-9.53s5.26-2.28,9.49,1.09c5.5-3.24,7.92-3.45,10.15-.89S203.67,259.81,200.28,264.11Z"/><path d="M111,261c0-1.49-.08-3,0-4.48.22-3.22,2.12-5.11,5.21-5.32a5.08,5.08,0,0,1,5.78,4.67,47.24,47.24,0,0,1,0,10.43,5.1,5.1,0,0,1-5.69,4.78A5.22,5.22,0,0,1,111,265.9C110.86,264.29,111,262.66,111,261Z"/><path d="M111,230.89c0-1.49-.11-3,0-4.48a5.24,5.24,0,0,1,5.36-5.17,5,5,0,0,1,5.57,4.48,46.91,46.91,0,0,1,0,10.79,5,5,0,0,1-5.82,4.61c-3.08-.24-5-2.16-5.15-5.37C110.89,234.13,111,232.51,111,230.89Z"/><path d="M111,201.19c0-1.5-.09-3,0-4.49a5.56,5.56,0,0,1,11.12-.15,69.17,69.17,0,0,1,0,9.33,5.56,5.56,0,0,1-11.12-.21C110.88,204.18,111,202.68,111,201.19Z"/><path d="M111,171.06c0-1.49-.08-3,0-4.48a5.23,5.23,0,0,1,5.23-5.31A5.08,5.08,0,0,1,122,166a47.24,47.24,0,0,1,0,10.43,5.1,5.1,0,0,1-5.71,4.76c-3.12-.17-5-2-5.29-5.24C110.86,174.31,111,172.68,111,171.06Z"/><path d="M122.09,111.18a30.28,30.28,0,0,1-.06,5.22,5.36,5.36,0,0,1-5.72,4.8c-3,0-5.19-2.36-5.32-5.61-.13-2.86-.12-5.73,0-8.59.13-3.44,2.51-5.81,5.58-5.78a5.74,5.74,0,0,1,5.57,5.48c.14,1.48,0,3,0,4.48Z"/><path d="M122.12,141.29a39.23,39.23,0,0,1,0,4.85,5.51,5.51,0,0,1-5.9,5.05c-3.1-.35-5-2.16-5.19-5.36-.15-3-.13-6,0-9a5.53,5.53,0,0,1,5.32-5.65c3-.14,5.54,2.2,5.83,5.59.13,1.48,0,3,0,4.48Z"/><path d="M110.78,81.22a45.25,45.25,0,0,1,0-5.21,5.07,5.07,0,0,1,5-4.68c2.75-.22,5.16,1.12,5.59,3.88a47.5,47.5,0,0,1,.49,11.48c-.27,3.06-2.71,4.78-5.88,4.48a5.19,5.19,0,0,1-5-5.1c-.15-1.61,0-3.23,0-4.85Z"/><path d="M106.16,43.28c4.57.07,5.39,4.2,7,7.42,1.53,3,3.88,6.11,1,9.62a5.53,5.53,0,0,1-9.13-.91A63.5,63.5,0,0,1,101,51,5.56,5.56,0,0,1,106.16,43.28Z"/><path d="M273,261.48c0,1.49.12,3,0,4.48a5.26,5.26,0,0,1-5.37,5.17,5,5,0,0,1-5.56-4.49,47.57,47.57,0,0,1,0-10.8c.35-3.07,2.69-4.85,5.83-4.6s5,2.17,5.15,5.38C273.11,258.24,273,259.86,273,261.48Z"/><path d="M273,231.31c0,1.5.09,3,0,4.48-.23,3.21-2.12,5.12-5.21,5.34a5.07,5.07,0,0,1-5.78-4.67A47.23,47.23,0,0,1,262,226a5.09,5.09,0,0,1,5.69-4.78c3.09.14,5,2,5.31,5.21C273.14,228.07,273,229.69,273,231.31Z"/><path d="M273,201.28a46.12,46.12,0,0,1,0,4.85,5.19,5.19,0,0,1-5.12,5c-3,.23-5.34-1.35-5.71-4.26a48.35,48.35,0,0,1-.07-11.15c.31-2.9,2.61-4.62,5.56-4.48a5.23,5.23,0,0,1,5.36,5.17c.15,1.61,0,3.24,0,4.86Z"/><path d="M273,171.29a46.12,46.12,0,0,1,0,4.85,5.19,5.19,0,0,1-5.12,5c-3,.23-5.34-1.35-5.71-4.26a48.26,48.26,0,0,1-.07-11.14c.31-2.91,2.61-4.62,5.56-4.49a5.24,5.24,0,0,1,5.36,5.17c.14,1.61,0,3.24,0,4.86Z"/><path d="M273,81.57c0,1.13.12,2.75,0,4.36A5.54,5.54,0,0,1,262,86.1a61.35,61.35,0,0,1,.41-10c.36-3.21,2.61-4.75,5.7-4.77,2.93,0,5.18,2.52,5.26,5.69C273.36,78.35,273.16,79.71,273,81.57Z"/><path d="M273,111.35a43.58,43.58,0,0,1,0,4.85,5.19,5.19,0,0,1-5.15,5c-3,.22-5.32-1.38-5.69-4.28a48.35,48.35,0,0,1-.05-11.15c.32-2.9,2.63-4.6,5.58-4.45a5.23,5.23,0,0,1,5.33,5.2c.14,1.61,0,3.24,0,4.86Z"/><path d="M273,141.31a43.58,43.58,0,0,1,0,4.85,5.19,5.19,0,0,1-5.12,5c-3,.23-5.34-1.36-5.71-4.26a47.8,47.8,0,0,1-.07-11.15c.31-2.9,2.61-4.61,5.57-4.47a5.23,5.23,0,0,1,5.35,5.17c.14,1.61,0,3.24,0,4.86Z"/><path d="M274.87,62.31c-4.57-.14-7.35-3.64-6.08-7a55.63,55.63,0,0,1,4.76-9.67c1.44-2.34,3.94-3,6.57-1.82s4.15,3.61,3.18,6.37a50.66,50.66,0,0,1-4.92,10C277.59,61.39,275.6,61.89,274.87,62.31Z"/><path d="M34.47,258.47c-.26,2.48-.45,5-.79,7.43-.47,3.42-3,5.6-6,5.36s-5.24-2.73-5.12-6.19c.09-2.49.47-5,.72-7.44.41-4.06,2.67-6.46,6-6.3C32.68,251.49,34.69,254.2,34.47,258.47Z"/><path d="M37.69,229.8c-.29,2.22-.49,4.46-.9,6.66-.62,3.4-3.2,5.3-6.36,4.83a5.61,5.61,0,0,1-4.72-6.18c.2-2.72.55-5.44,1-8.14.69-4,3.15-5.93,6.63-5.33,3.2.56,4.76,3.06,4.39,7,0,.37-.09.74-.13,1.11Z"/><path d="M63.16,75.42c4.59.07,7.43,3.51,6.24,6.9a59.9,59.9,0,0,1-4.55,9.78c-1.42,2.47-4,3-6.58,2s-4.21-3.31-3.35-5.94a57.39,57.39,0,0,1,5-10.74C60.62,76.22,62.53,75.78,63.16,75.42Z"/><path d="M41.67,197.8c-.41,3.09-.69,6.19-1.28,9.24A5.35,5.35,0,0,1,34,211.4a5.17,5.17,0,0,1-4.64-5.79A62,62,0,0,1,30.73,196a5.21,5.21,0,0,1,6.43-4.2C40.32,192.5,41.6,194.71,41.67,197.8Z"/><path d="M51.91,103.23c4.38.13,7.09,2.81,6.51,6a54.81,54.81,0,0,1-3.17,10.68c-1.06,2.58-3.59,3.48-6.28,2.72s-4.5-2.73-4-5.53a51.36,51.36,0,0,1,3.3-11C48.94,104.56,51.17,103.77,51.91,103.23Z"/><path d="M51.15,139a87.66,87.66,0,0,1-2,9.43c-.94,3-3.5,4.22-6.56,3.47a5.09,5.09,0,0,1-4.15-5.82,61.5,61.5,0,0,1,2-9.86c.87-3.1,3.33-4.3,6.41-3.69S51.14,135.24,51.15,139Z"/><path d="M45.84,169.14c-.34,2.16-.67,5.14-1.33,8-.74,3.25-3.42,5.17-6.24,4.56-3.24-.69-5-2.77-4.67-6.15a80.1,80.1,0,0,1,1.28-8.86c.69-3.28,3.27-5.15,6.13-4.79C44.09,162.33,46,164.82,45.84,169.14Z"/></g></g></svg>