<svg xmlns="http://www.w3.org/2000/svg" viewBox="0 0 384 384"><g id="katman_2" data-name="katman 2"><g id="katman_1-2" data-name="katman 1"><path d="M210,384H174l-17.49-1.47c-24-1.95-47-7.47-68.48-18.81-3.38-1.79-5-4.14-4.82-8,.47-11.24.73-22.49,1.1-33.73q2.09-64.08,4.18-128.17c0-1,0-2.06,0-3.09A153.15,153.15,0,0,0,80.61,205a93.58,93.58,0,0,0-10.28,44.76c.39,29.24.12,58.5.11,87.74,0,9.38-5,14.42-14.29,14.45-13.38,0-26.76-.25-40.12.11-7.88.21-13.28-2.55-16-10V206.25a11,11,0,0,0,.64-2.1,94.23,94.23,0,0,1,7.91-28.73Q29.4,128.77,50.06,82.06c7.2-16.34,18.69-28.36,35.35-34.72,13.26-5.06,26.9-9.14,40.41-13.51,2-.65,3.11-1.33,3.48-3.61.84-5.29,2.38-10.49,3.06-15.79C133.22,7.7,136.15,2.72,142.5,0h98.25c6.28,2.51,9.38,7.23,10.3,13.86.74,5.43,2.23,10.75,3.08,16.16.39,2.41,1.55,3.13,3.72,3.83,14.09,4.59,28.31,8.87,42.09,14.28,15.53,6.09,26.54,17.47,33.39,32.68q15.59,34.6,30.91,69.33c5.33,12.07,10.77,24.13,15.4,36.48,2.32,6.22,3,13.07,4.36,19.63V342c-2.77,7.46-8.13,10.26-16,10-13-.37-26-.1-39-.1-10.86,0-15.45-4.63-15.45-15.53q0-47-.06-94.07c-.05-19.18-8.88-35.38-17.74-51.6.05,12.13.41,24.2.8,36.27q2.08,64,4.24,128.1c.16,4.5-1.58,7.09-5.51,9.13-21.06,10.92-43.54,16.47-67.06,18.25C222.15,383,216.08,383.5,210,384ZM57.66,313.43V309c0-20.87.08-41.74,0-62.61a97.4,97.4,0,0,1,10.1-44.13C75,187.55,82.3,173,89.62,158.33c2-4.05,4.49-5.43,8-4.61,3.27.76,4.89,3.42,4.74,7.87Q99.68,243.28,97,325c-.09,2.6.79,3.7,3,4.74,16,7.6,32.82,11.83,50.31,13.79a399.19,399.19,0,0,0,67.39,1.41c21.17-1.22,42-4.42,61.55-13.16,7.84-3.49,7.86-3.43,7.52-12.1-.06-1.62-.09-3.25-.15-4.87Q284.77,259.5,283,204.23q-.69-21.55-1.34-43.1c-.11-3.52,1.2-6.22,4.73-7.15s6.05.68,7.64,3.86c.34.67.67,1.34,1,2,6.77,13.5,13.49,27,20.33,40.48a99.82,99.82,0,0,1,11,46.54c-.12,20.75,0,41.49,0,62.24v4.15h44.73c.07-.77.14-1.26.14-1.75,0-32.87.09-65.74-.08-98.61a76.54,76.54,0,0,0-6.9-30.86c-13.94-31.36-28-62.68-41.77-94.09-5.92-13.49-15.23-23.57-29.07-28.59-14.4-5.23-29.08-9.7-43.74-14.17-4-1.22-6.1-3.17-6.82-7.3C241.38,29.55,239.59,21.28,238,13H224.06c0,2.37,0,4.49,0,6.6,0,4.25.15,8.51-.15,12.74a6.1,6.1,0,0,1-6.47,5.92c-3.47-.07-5.86-2.46-6.13-6.24-.11-1.62-.06-3.25-.06-4.87V13H198.42v4.18c0,6.5,0,13,0,19.5,0,5.11-2.38,8.07-6.3,8.15s-6.48-3-6.52-8.31c0-4.87,0-9.74,0-14.62V13H172.93c-.07,1.41-.17,2.64-.17,3.86,0,4.88.07,9.75,0,14.62-.1,4.32-2.54,6.85-6.31,6.85s-6.22-2.58-6.43-6.83c-.13-2.62,0-5.25,0-7.87V12.78c-4.15,0-7.64.12-11.12,0-2.24-.11-3,.75-3.38,2.88-1.33,7.49-3,14.93-4.3,22.43-.71,4.16-3,6-6.94,7.18-14.66,4.48-29.33,9-43.73,14.2C77.19,64.24,67.79,73.7,62.07,86.68c-14,31.62-27.84,63.27-41.88,94.86a85.33,85.33,0,0,0-7.42,35.25q0,46.31,0,92.62v4ZM13,338.85H57.45V326.62H13Zm313.5,0H371v-12.2H326.47ZM185.27,371V358.37h-12.5c0,3.68-.15,7.16.11,10.6.05.75,1.48,1.91,2.34,2C178.44,371.18,181.68,371,185.27,371Zm-38-2.13,12.27,1.23V357.22l-12.27-1.07Zm77.05-11.55V370c3.79-.38,7.26-.66,10.71-1.14.64-.08,1.66-.94,1.68-1.48.15-3.67.08-7.35.08-11.27Zm-102.61-6v12.36l12.45,3V354.09Zm128.08,15.3,12.38-3V351.27L249.83,354Zm-51.07-8.23v12.27H210.9V358.42Zm88.64-16c-3.92,1.53-7.4,2.82-10.8,4.29a2.62,2.62,0,0,0-1.3,1.93c-.14,3.31-.07,6.63-.07,10.56,4.2-1.88,7.84-3.45,11.4-5.19a2.58,2.58,0,0,0,1.26-1.95C287.86,349,287.6,345.91,287.4,342.43ZM108.77,359.22c0-4,.09-7.06-.06-10.17a3.06,3.06,0,0,0-1.29-2.3c-3.39-1.51-6.89-2.78-10.82-4.32-.2,3.45-.45,6.54-.49,9.62a2.62,2.62,0,0,0,1.23,2C100.91,355.75,104.55,357.32,108.77,359.22Z"/><path d="M194.52,64c-16.29-.25-29.82-1.19-42.6-6.61-3.7-1.57-5.12-4.3-4.29-7.68a6.14,6.14,0,0,1,8.53-4.26c14,5.48,28.64,6.22,43.44,5.72a93,93,0,0,0,27.75-5.56c4.32-1.51,8,.19,9,4,.89,3.36-.4,6.6-4.13,7.72a198.56,198.56,0,0,1-22.4,5.56C203.93,63.86,197.87,63.74,194.52,64Z"/></g></g></svg>