<?xml version="1.0" encoding="utf-8"?>
<!-- Generator: Adobe Illustrator 26.0.0, SVG Export Plug-In . SVG Version: 6.00 Build 0)  -->
<svg version="1.1" id="katman_1" xmlns="http://www.w3.org/2000/svg" xmlns:xlink="http://www.w3.org/1999/xlink" x="0px" y="0px"
	 viewBox="0 0 504 489.6" style="enable-background:new 0 0 504 489.6;" xml:space="preserve">
<g>
	<path d="M503.5,159.8c-0.5-24.2-9.8-47.2-25-65.9c-12.2-15-28.4-25.2-46.1-32.3c-20.7-8.3-41.4-16.5-62.2-24.8
		c1.9-12.2-3-25.5-15.2-32.9c-12.7-7.6-25.3-2.3-38.2,1.3c-15.2,4.3-30.8,6.9-46.5,8.1C238.7,15.8,207,11.7,177,1.9
		c-14.5-4.7-28.7-0.5-37.9,11.8c-5,6.7-6.4,15-5,22.8c-0.5,0.2-1,0.4-1.5,0.6c-6.7,2.7-13.5,5.4-20.2,8.1
		C98.8,50.6,85.3,56,71.7,61.4c-18,7.2-33.9,17.4-46.5,32.4C9,113.1,0.3,137.6,0.2,162.7c-0.4,52,0,104,0,155.9v31.9
		c0,10.6,0.8,20.6,9.6,28.3c1.7,1.5,3.5,2.6,5.4,3.6v25.7c0,3.7,3.1,6.8,6.8,6.8h60.1c-0.1,5-0.2,10,0.3,14.9
		c1.2,11.3,9.6,20.6,20.4,23.2v29.8c0,3.7,3.1,6.8,6.8,6.8h137.1h147.9h0.6c3.7,0,6.8-3.1,6.8-6.8v-30c12-3.5,19.7-14.6,19.7-27.9
		v-11.8h61.1c3.7,0,6.8-3.1,6.8-6.8v-24.2c1-0.5,1.9-1.1,2.8-1.8c10.1-7.5,11.2-18.2,11.2-29.6v-33.6
		C503.5,264.6,504.6,212.1,503.5,159.8L503.5,159.8z M151.5,19.7c9.5-11.3,23.1-4.1,34.6-0.9c30.3,8.3,62.3,10.6,93.6,7.3
		c15.7-1.7,31.1-4.8,46.2-9.3c5.9-1.8,11.3-4.3,17.6-2.9c5.8,1.2,10,5.3,12.6,10.4c3.4,6.7,1,15.1-3.9,20.2c-3.3,3.4-7.9,4.6-12.2,6
		c-5.7,1.8-11.4,3.4-17.1,4.8c-23,5.8-46.7,8.5-70.4,8.6c-16.5-0.1-32.9-1.4-49.2-4.1c-7.8-1.3-15.5-3-23.1-5
		c-7.6-1.9-16.2-3.7-23.2-7.3C146.5,42.4,144.2,28.4,151.5,19.7L151.5,19.7z M50.3,385.6h23.5c2.8,0,5.6,0.1,8.4,0v15.7H28.8v-15.5
		C36,386.3,43.6,385.6,50.3,385.6L50.3,385.6z M116.3,476v-22c1.1,0,2.1,0,3.2,0h17h0.1h0.1h12.5h191.7h47.6v22.1H258
		C210.8,476,163.5,476,116.3,476L116.3,476z M475.9,399.4h-54.3v-12.9v-0.9h24.3H469c2.4,0,4.7,0,6.9-0.2V399.4L475.9,399.4z
		 M489.9,330.1v24v4c0,8-6.5,14.1-14.4,14.1h-59.7c-8-0.3-14-6.4-14-14.4v-7.6v-36.8v-97.2v-25.4c0-8.8-13.6-8.8-13.6,0v154.4v12.6
		c0,12.7,8.3,23,19.7,26.5v26.4c0,11.3,2.6,29.6-13.9,29.6h-50.8H151.4h-41.8c-16.2,0-14.2-18.1-13.9-29.7c0.3-0.8,0.5-1.6,0.5-2.5
		v-25.4c9.2-4.7,15.6-13.9,15.6-24.7v-5.4v-33.8v-98.3v-31.4c0-8.8-13.6-8.8-13.6,0V344c0,10,2.1,23-9.5,27.2c-0.5,0-1,0.1-1.6,0.2
		H87c-1.1,0.3-2.2,0.4-3.3,0.5c-0.2,0-0.3,0-0.5,0c-0.4,0-0.8,0-1.1,0.1c-3.3,0.2-6.8-0.1-10-0.1H47.3c-11.4,0-33.5,3.5-33.5-14
		v-57.5v-99.2c0-22.3-2.1-46.1,4.6-67.6c6.1-19.3,19.1-36.4,35.6-48c9.2-6.4,19.3-10.3,29.5-14.4c12.7-5,25.3-10.1,38-15.1
		c5.3-2.1,10.6-4.2,15.9-6.3c0.6-0.2,1.1-0.4,1.7-0.7c1.1,1.8,2.4,3.4,3.9,5c5.8,6.1,14.2,8.3,22,10.7c9.4,2.9,19.1,5.2,28.7,7.1
		c19.3,3.8,39,5.6,58.6,5.7c32.9-0.1,65.6-5.4,96.8-15.8c7.2-2.4,12.7-6.9,16.3-12.4c21.5,8.6,43,17.1,64.5,25.7
		c36.7,14.6,60.1,49.8,60.1,89.1C489.9,219.5,489.9,274.8,489.9,330.1L489.9,330.1z"/>
</g>
</svg>
