<?xml version="1.0" encoding="utf-8"?>
<!-- Generator: Adobe Illustrator 26.0.0, SVG Export Plug-In . SVG Version: 6.00 Build 0)  -->
<svg version="1.1" id="katman_1" xmlns="http://www.w3.org/2000/svg" xmlns:xlink="http://www.w3.org/1999/xlink" x="0px" y="0px"
	 viewBox="0 0 33.3 60" style="enable-background:new 0 0 33.3 60;" xml:space="preserve">
<path d="M33.2,38.5L32,34.1l1-1.7c0.1-0.2,0.2-0.5,0.3-0.7c0-0.3,0-0.5,0-0.8l-0.7-2.5c-0.1-0.3-0.2-0.5-0.3-0.7
	c-0.2-0.2-0.4-0.4-0.6-0.5c-0.2-0.1-0.5-0.2-0.7-0.2c-0.3,0-0.5,0-0.8,0.1l-1.2,0.3c-0.5-2.3-1-4.6-1.6-6.8c-0.5-1.8-1-3.6-1.6-5.4
	l0.2-0.5C27.2,13,28,11.1,28,9.1c0-2-0.7-3.9-2-5.4V2c0-0.4-0.1-0.7-0.3-1c-0.2-0.3-0.5-0.6-0.8-0.7C24.6,0.1,24.2,0,23.8,0
	c-0.4,0-0.7,0.2-1,0.4l-1.2,0.8C20.8,1,19.9,1,19,1.1c-1.9,0.2-3.7,1.2-5,2.7c-0.7-0.9-1.7-1.6-2.7-2C10.3,1.3,9.1,1,8,1
	C7.4,1,6.9,1.1,6.3,1.2L5.2,0.4C4.9,0.2,4.5,0,4.2,0S3.4,0,3.1,0.2C2.8,0.4,2.5,0.6,2.3,0.9C2.1,1.3,2,1.6,2,2l0,1.8
	C0.7,5.2,0,7.2,0,9.1c0,2,0.8,3.9,2.1,5.3L4.3,21c0.1,0.4,0.2,0.8,0.2,1.1C4.6,23.1,4.4,24,4,24.8l-2.1,5C1.3,31.2,1,32.6,1.1,34
	l1.7,23.2c0.1,0.8,0.4,1.5,1,2c0.6,0.5,1.3,0.8,2,0.8h7.5c0.4,0,0.8-0.1,1.1-0.3c0.3-0.2,0.6-0.5,0.7-0.9l1.7-4.7l1.9,4.7
	c0.2,0.3,0.4,0.6,0.7,0.8c0.3,0.2,0.7,0.3,1.1,0.3h1.5c0.8,0,1.5-0.3,2-0.8c0.6-0.5,0.9-1.2,1-2l1.1-14.8l5.6-1.5
	c0.5-0.1,0.9-0.5,1.2-0.9C33.3,39.6,33.3,39,33.2,38.5L33.2,38.5z M27,27.8l-1.5,0.4L24,24.8c-0.4-0.8-0.6-1.8-0.5-2.7
	c0-0.4,0.1-0.8,0.2-1.1l0.9-2.8c0.3,0.9,0.5,1.8,0.8,2.7C26,23.2,26.5,25.5,27,27.8z M22.8,27l0.7,1.6l-3.8,1
	c-0.3-0.9-0.6-1.8-0.9-2.7H22.8z M18.2,25c-0.2-0.7-0.4-1.3-0.6-2h3.8c0,0.7,0.2,1.4,0.4,2H18.2z M15.5,5.1c1-1.1,2.3-1.8,3.7-2
	c0.7-0.1,1.3,0,2,0.1c0.3,0.1,0.6,0.1,0.9,0c0.3-0.1,0.5-0.2,0.8-0.3L24,2v1.8c0,0.5,0.2,1,0.5,1.3c1,1.1,1.5,2.6,1.5,4.1
	c0,1.5-0.7,2.9-1.7,4c-0.1,0.1-0.2,0.2-0.2,0.4l-2.2,6.8c-0.1,0.2-0.1,0.4-0.2,0.6h-4.5c-1.3-5-2.1-10.2-2.5-15.4
	C15,5.5,15.3,5.3,15.5,5.1L15.5,5.1z M16.2,25H6.1c0.2-0.6,0.4-1.3,0.4-2h9.1c0,0.2,0.1,0.3,0.1,0.5C15.9,24,16,24.5,16.2,25z
	 M3.9,13.6c0-0.1-0.1-0.3-0.2-0.4C2.6,12.1,2,10.6,2,9c0-1.5,0.5-2.9,1.5-4C3.8,4.7,4,4.2,4,3.8V2l1.1,0.8C5.4,3,5.6,3.1,5.9,3.2
	c0.3,0.1,0.6,0.1,0.8,0C7.2,3.1,7.6,3,8,3c0.9,0,1.7,0.2,2.5,0.5c0.8,0.4,1.5,0.9,2,1.5c0,0,0.1,0.1,0.1,0.1
	c0.3,5.3,1.1,10.6,2.4,15.8H6.3c-0.1-0.2-0.1-0.4-0.2-0.7L3.9,13.6z M23.1,57.1c0,0.3-0.1,0.5-0.3,0.7c-0.2,0.2-0.4,0.3-0.7,0.3
	l-1.5,0.1l-1.9-4.7c-0.2-0.3-0.4-0.6-0.7-0.8c-0.3-0.2-0.7-0.3-1.1-0.3c-0.4,0-0.8,0.1-1.1,0.3c-0.3,0.2-0.6,0.5-0.7,0.9L13.4,58
	H5.9c-0.3,0-0.5-0.1-0.7-0.3c-0.2-0.2-0.3-0.4-0.3-0.7L3.1,33.9c-0.1-1.1,0.1-2.2,0.5-3.3L5.2,27h2.6L6,37.9l2,0.3L9.8,27H10v7h2v-7
	h4.7c0.3,1.1,0.7,2.1,1,3.2l-1.2,0.3c-0.5,0.1-1,0.5-1.2,0.9c-0.3,0.5-0.3,1-0.2,1.5l0.7,2.5c0.1,0.5,0.5,0.9,0.9,1.2l1.7,1l1.2,4.4
	c0.1,0.5,0.5,1,0.9,1.2c0.3,0.2,0.6,0.3,1,0.3c0.2,0,0.4,0,0.5-0.1l2.1-0.6L23.1,57.1z M30.1,34.6l1.2,4.4l-9.6,2.6l-1.2-4.4
	c-0.1-0.5-0.5-1-0.9-1.2l-1.7-1l-0.7-2.5l13.5-3.6l0.7,2.5l-1,1.7C30,33.5,29.9,34.1,30.1,34.6L30.1,34.6z"/>
<path d="M23.4,32.8l-1.9,0.5l0.5,1.9l1.9-0.5L23.4,32.8z"/>
<path d="M27.3,31.8l-1.9,0.5l0.5,1.9l1.9-0.5L27.3,31.8z"/>
</svg>
