<svg xmlns="http://www.w3.org/2000/svg" viewBox="0 0 310.72 384"><g id="katman_2" data-name="katman 2"><g id="katman_1-2" data-name="katman 1"><path d="M151.6,384c-6.48-3.41-13.09-6.58-19.38-10.29-5.18-3-10.15-3.66-15.64-1.15-4.08,1.86-8.28,3.47-12.49,5-8.29,3.07-16,1.8-22.91-3.64-3.63-2.86-7.13-5.88-10.61-8.93-4.14-3.63-8.7-5-14.19-3.59-4.94,1.31-10,2.36-15,3.31a21,21,0,0,1-19.57-6c-3.11-3.06-5.69-6.65-8.78-9.72a65.83,65.83,0,0,0-8.79-7.38C.91,339.25-.77,336,.34,332,15.7,275.55,45,228.16,91.48,192.09c2.83-2.2,4.12-4.37,4-8-.32-7.48.06-15-.19-22.48a10.3,10.3,0,0,0-2.17-5.95c-15.63-17.93-26.59-38.19-32-61.47-2.46-10.64-3.4-21.4,4.39-29.83,6.23-6.74,8.13-14.45,9.8-22.74,1.55-7.7,3.71-15.29,5-23C81.85,9.36,86.2,2.84,95.35,0h7.5a15.43,15.43,0,0,0,1.68.72c8.89,2.72,13.76,9.5,13.29,18.8-.18,3.49-.72,7-1.1,10.42-.92,8.41-1.85,16.81-2.79,25.35a85.92,85.92,0,0,1,40.83,24.6c6.68-5.14,12.71-10.64,19.56-14.81S189,58,196.68,54.37c-1.14-10.19-2.41-20.84-3.46-31.5a30.86,30.86,0,0,1,.22-9.26C195.07,5.89,200.8,2.17,207.85,0h7.5c9.15,2.83,13.35,9.41,15.05,18.55,2.22,11.89,5.09,23.66,7.78,35.45a8.47,8.47,0,0,0,2,4.23c11.1,10.1,12.62,22.29,9.34,36.3-5.44,23.19-16.61,43.16-31.92,61.1a10.24,10.24,0,0,0-2.18,5.94c-.25,7.87,0,15.75-.18,23.61a6.76,6.76,0,0,0,3.09,6.19c34.25,26.51,60.45,59.44,77.42,99.34,5.65,13.27,9.78,27.2,14.43,40.89,1.41,4.14-.25,7.39-3.47,9.79a103.12,103.12,0,0,0-10.08,8.72c-2.51,2.42-4.56,5.3-7,7.83-6.61,6.91-14.72,8.41-23.75,6.31-4.13-1-8.28-1.84-12.38-2.93a13.22,13.22,0,0,0-12.55,3q-4.87,4.11-9.7,8.27c-8.2,7.06-17.25,8.4-27.18,4.11-3.55-1.53-7.16-2.92-10.71-4.44-5-2.14-9.57-1.62-14.29,1.09-6.55,3.76-13.34,7.11-20,10.64Zm146-52.6c-.58-1.89-1.32-4.27-2-6.65-15.23-50.43-43.42-92-85-124.39a10.78,10.78,0,0,0-7.15-2.41c-32.23.08-64.47,0-96.71.13A10.2,10.2,0,0,0,101,200a234.52,234.52,0,0,0-49.57,50.73,246.33,246.33,0,0,0-38.21,80.81c4.54,5,8.79,9.71,13.05,14.4,1.09,1.2,2.18,2.4,3.3,3.58a10.71,10.71,0,0,0,10.89,3.3c4.25-1,8.55-1.79,12.77-2.9,9.3-2.43,17.53-.61,24.78,5.73,3.2,2.8,6.52,5.45,9.73,8.23,4,3.44,8.33,4.19,13.22,2.16q7.09-2.92,14.27-5.63A23,23,0,0,1,135.39,362c4.56,2.57,9.08,5.24,13.55,8a11.39,11.39,0,0,0,12.71.05c4.5-2.7,9-5.37,13.56-8a23,23,0,0,1,20.2-1.64c4.09,1.52,8.2,3,12.14,4.89,6.42,3,11.94,2.18,17.16-2.69a125.39,125.39,0,0,1,11.6-9.47,20.89,20.89,0,0,1,17-3.86c4.52.9,9.09,1.68,13.5,3,7,2,12.32.38,16.89-5.32C287.93,341.67,292.66,336.88,297.6,331.4ZM155.38,150c16,0,32,0,48-.06,1.44,0,3.37-.44,4.25-1.41a127.77,127.77,0,0,0,30.49-58c2.28-10,.57-17.85-7.21-24.62a13.91,13.91,0,0,1-3.84-7c-3.28-13.71-6.22-27.51-9.34-41.26-1-4.22-3.23-5.92-7.07-5.65-4.34.31-6.29,3.23-5.68,8.69,1.37,12.29,2.79,24.58,4.19,36.86.6,5.25-.83,7.36-6,8.56-17.17,4-31.37,12.61-42.31,26.52-3.6,4.58-7.45,4.55-11.07-.05a72.6,72.6,0,0,0-41.6-26.3c-6.1-1.43-7.31-3.35-6.57-9.53q2.16-18.24,4.13-36.49c.52-4.82-1.26-7.59-5-8.2-4.13-.67-6.79,1.27-7.87,6C90.14,30,87.34,41.93,84.92,53.92c-1.19,5.92-3.19,11-7.94,15.14-5,4.42-6.32,10.38-5.18,17.08,4,23.48,14.77,43.55,30.22,61.38a6.33,6.33,0,0,0,5.36,2.54C123.38,150,139.38,150,155.38,150Zm47.8,12.27H107.52V185.8h95.66Z"/></g></g></svg>