<svg xmlns="http://www.w3.org/2000/svg" viewBox="0 0 191.49 408.84"><g id="katman_2" data-name="katman 2"><g id="katman_1-2" data-name="katman 1"><path d="M87.75,408.84c-8-1-16.16-1.53-24-3.19-14.67-3.1-29.2-6.87-43.78-10.4a7.38,7.38,0,0,1-5.86-5.84C6.22,356.78-.73,324,.06,290.19c.75-31.87,10.27-60.66,31.45-85C42.29,192.86,44.15,178,36,164.43c-3.16-5.3-5.29-11.31-7.27-17.21-5.64-16.8-7.33-34.26-7.84-51.86a9.56,9.56,0,0,0-2.85-6.61A202.32,202.32,0,0,1,4.5,72.61C-4.08,60.9,1.85,46.76,9.65,40.44c8.07-6.52,17.64-9.29,27.54-10.66S57,28,67,27.29c5.78-.38,8.06-2.51,8.14-8.43,0-3.59-.09-7.19,0-10.78.2-5.49,2.76-8,8.25-8C91.66,0,99.91,0,108.16.06c5.14.05,7.61,2.43,7.84,7.52.16,3.72,0,7.45.07,11.17.15,6.08,2.48,8.35,8.54,8.51,14.24.38,28.44,1.11,42.17,5.47,8.3,2.64,15.74,6.6,20.49,14.26,5.71,9.22,4.82,19.35-2.64,28.87a147.8,147.8,0,0,1-10.78,12.27,10.46,10.46,0,0,0-3.33,7.63c-.54,18.94-2.57,37.68-9.23,55.61a97.36,97.36,0,0,1-6,13.43c-7.87,14.15-6.08,26.93,3.82,39.57a191.76,191.76,0,0,1,18.55,27.76c10.3,19.27,13.7,40.4,13.83,62.06.18,28.52-4.94,56.34-11.48,84-.82,3.49-1.63,7-2.35,10.5a8.08,8.08,0,0,1-6.09,6.64c-21.19,6.25-42.59,11.47-64.74,12.94a23.91,23.91,0,0,0-3.1.61ZM54.49,187.43c-1.42,11.1-6.56,19.48-13.12,27.22a120.94,120.94,0,0,0-8.12,10.84C12.12,257.08,11.63,292.12,15.94,328c40.67-6.82,127.7-58.88,143.65-85.94C121.21,230.88,86.83,212,54.49,187.43Zm122.68,96.21A335.38,335.38,0,0,1,105.09,336a388.05,388.05,0,0,1-81.84,33c.91,4,1.81,7.5,2.45,11a4.6,4.6,0,0,0,4,4.12c8.28,1.91,16.47,4.22,24.78,6,16.16,3.45,32.43,5.75,49.07,4.75,19.89-1.19,39.13-5.7,58.3-10.75,2.73-.72,3.52-2.3,4-4.65,3.14-16.3,6.75-32.53,9.35-48.92C177.59,315.4,178.7,300.11,177.17,283.64ZM133.64,53.09a10,10,0,0,0-.95,1.63c-7.35,26.47-18.41,51.48-30.1,76.25-1.41,3-3.31,5.24-6.82,5.26s-5.47-2.21-6.88-5.18c-11-23.19-21.2-46.68-28.66-71.29-.63-2.1-1.24-4.21-2-6.72a17.52,17.52,0,0,0-1.42,1.67C49.71,66.09,42.56,77.46,35.53,88.9a7.7,7.7,0,0,0-1,4.1c.24,6.11.47,12.24,1.16,18.31a11.45,11.45,0,0,0,2.81,6.17,327.4,327.4,0,0,0,71,57.68c8.85,5.31,18.08,10,27.05,14.88.43-6.27-.05-12.16,1.43-17.5,1.89-6.82,5.33-13.23,8.18-19.78,8.41-19.28,10.33-39.73,10.9-60.43a5.06,5.06,0,0,0-.6-2.64C149,77.61,141.42,65.57,133.64,53.09ZM95.72,113.46c10.81-24,20.67-47.28,26.05-72.39-15.6-2.61-20.26-13.07-19.38-27.23H88.75c1.13,14.25-3.67,24.43-19.22,27.27C75.22,66.11,85,89.4,95.72,113.46Zm74.61,138.18C128,296.56,76.24,324.71,17.94,342.12c.88,4.7,1.67,8.93,2.52,13.44l6.15-1.84c51.79-15.51,98.37-40.37,138.3-77.15C175.78,266.56,175.94,266,170.33,251.64ZM41.9,140.62l-.58.52a16.64,16.64,0,0,0,.6,2.23c3.28,7.54,6.52,15.1,9.95,22.57a13,13,0,0,0,3.42,4.66C78.19,189.24,102.92,205,130,216.78c9.31,4.05,18.92,7.44,28.39,11.13l.89-1.21c-4.7-6-9.37-12.1-14.16-18.08a6.94,6.94,0,0,0-2.76-1.51c-32-13.25-60.66-31.81-86.84-54.35C50.94,148.79,46.45,144.67,41.9,140.62Zm6.86-98.75c-2.53.22-4.38.27-6.18.56-8.14,1.29-16.33,2.49-23.12,7.74-4.62,3.58-7,9.56-4.65,13.18,3.29,5,7.29,9.56,11.32,14.74ZM165.13,77.72c3.18-3.71,6.05-6.83,8.67-10.14,5.2-6.6,4.45-12.75-2.38-17.71-8.34-6-18.17-6.9-28.75-8Z"/></g></g></svg>