<svg xmlns="http://www.w3.org/2000/svg" viewBox="0 0 266.27 362.8"><g id="katman_2" data-name="katman 2"><g id="katman_1-2" data-name="katman 1"><path d="M63.33,330.48c-5.69-2-11.22-3.58-16.43-5.88a54.58,54.58,0,0,1-22.66-18.53,9.61,9.61,0,0,1-1.59-6.49c3.08-18.35,10.22-35.44,17.18-52.54,8.76-21.48,18.28-42.67,26.6-64.32,4.09-10.65,6.64-22,9-33.16,1-4.57-.07-9.7-.87-14.47-3.27-19.39-6.81-38.74-10.41-59-2.12,1.41-3.22,2.1-4.28,2.86Q44.59,89.82,29.34,100.7c-4.71,3.34-6.92,2.94-10.21-1.81Q10.7,86.73,2.3,74.52C-1,69.77-.83,68.16,3.22,64.21Q27.9,40.11,52.62,16a10.21,10.21,0,0,1,3.81-2.16C69.9,9.31,83.37,4.73,96.94.44c2-.63,5-.57,6.6.56,19.62,14.17,40.21,12.9,58,.87,3.18-2.15,5.9-2.33,9.39-1.13,12.74,4.4,25.57,8.52,38.34,12.84a12,12,0,0,1,4.47,2.51Q238.35,40,262.85,64c4.28,4.18,4.44,5.68,1.06,10.61Q255.54,86.81,247.13,99c-3.23,4.67-5.53,5-10.24,1.69-11.18-8-22.35-16-34.08-24.36-1.13,5.26-2.11,10.08-3.2,14.88-4.12,18.15-8.1,36.35-9,55-.23,4.73,1,9.68,2.29,14.32,2.72,9.59,6.08,19,8.88,28.57.59,2,.65,4.9-.37,6.55-2.26,3.63-7.38,2.41-8.9-2.2-3.71-11.24-7.09-22.6-10.56-33.92-.47-1.53-.74-3.13-1.2-5.08H177q-43.89,0-87.77,0c-1.69,0-3.62-.78-4.28,2.17-6.14,27.59-17.43,53.29-29,78.93-8.75,19.46-16.73,39.25-22.22,60-1,3.73-.34,6.28,2.36,9A53.53,53.53,0,0,0,62.67,319.1c1.07.24,2.19.25,3.6.41,2.28-8.82,4.54-17.48,6.75-26.16Q84,250.17,95,207c.44-1.74,1.17-3.91,2.49-4.78a7,7,0,0,1,5.46-.51c2.6.88,3.12,3.41,2.5,5.95q-2.7,11.1-5.54,22.16Q87.18,279.89,74.37,329.93c-.51,2-.41,3.17,1.44,4.34,19.92,12.6,41.25,20.17,65.21,18.07,18.22-1.6,34.55-8.5,49.69-18.43.88-.58,1.37-2.75,1.07-3.94q-11.49-45.75-23.22-91.43c-2.46-9.68-4.95-19.35-7.35-29-.38-1.54-.94-3.55-.29-4.7a8,8,0,0,1,4.47-3.72c2.75-.6,4.65,1.3,5.37,4.07q3,11.41,5.88,22.84,11.28,44.26,22.55,88.53c.25.94.59,1.86,1,3a48.47,48.47,0,0,0,23.71-9.65c10.16-7.57,10.3-7.95,7-20.12-1.22-4.45-2.73-8.82-4.1-13.23-1.06-3.39,0-6.18,2.61-7.24,2.94-1.18,6,.15,7.06,3.67,2.68,9.21,5.2,18.48,7.41,27.81.37,1.58-.73,3.91-1.83,5.37a59.94,59.94,0,0,1-35.39,22.94l-4,1c3.32,6.72-1.14,9.55-5.75,12.59-19.58,12.91-41,20.36-64.49,20.12-24.56-.25-46.75-8.4-66.63-22.8C62.29,337.51,62.24,337,63.33,330.48ZM170.47,11.62a5.48,5.48,0,0,0-.73.93c-.48,1.28-.92,2.58-1.39,3.86-5,13.77-10.59,27.23-19.94,38.75a18.69,18.69,0,0,1-11.22,6.94c-7.57,1.45-13.83-1-18.71-6.8-7.94-9.52-13.07-20.61-17.55-32-1.49-3.8-2.83-7.66-4.36-11.85L63.18,22.55a25.08,25.08,0,0,0,.25,2.63C69.65,54.73,75.92,84.26,82,113.82c.57,2.76,2.19,2.52,4.07,2.52q47.06,0,94.1,0c2.54,0,3.64-.56,4.2-3.31,5.06-24.68,10.32-49.33,15.51-74,1.14-5.44,2.24-10.9,3.39-16.48ZM182.08,126.9H84.21c.62,5.78,1.21,11.3,1.8,16.86h94.27C180.89,138.07,181.47,132.64,182.08,126.9ZM25.9,90.43c11.59-8.29,22.85-16.3,34-24.44.68-.49.89-2.17.71-3.18C59.77,58,58.7,53.29,57.7,48.53c-1.29-6.14-2.6-12.28-4-19L11.94,70.22ZM212.59,29.49c-2.51,11.89-4.87,23-7.11,34.06a3,3,0,0,0,.89,2.48c11.19,8.1,22.45,16.11,34,24.39,4.71-6.85,9.27-13.47,13.91-20.23Zm-103-12.69c4.58,11.76,9.15,22.5,16.71,31.64,4,4.79,9.94,5,13.91.3,7.81-9.25,12.48-20.2,17-32.11C141.23,23.18,125.82,23.35,109.57,16.8Z"/><path d="M212.78,221c.7.59,2.66,1.5,3.46,3,2.37,4.5,4.32,9.21,6.35,13.89,1.31,3,.36,5.54-2.53,6.85s-5.44.21-6.83-2.68c-2.21-4.58-4.39-9.19-6.29-13.92C205.48,224.46,207.84,221,212.78,221Z"/></g></g></svg>