<svg xmlns="http://www.w3.org/2000/svg" viewBox="0 0 266.35 372.3"><g id="katman_2" data-name="katman 2"><g id="katman_1-2" data-name="katman 1"><path d="M75.2,142.08c-20-8.27-17.47-34.52,1.46-40.69-2.83-4.3-5.72-8.5-8.42-12.81C57.43,71.27,49,53,46.29,32.53c0-.24-.1-.49-.12-.74C44.41,14,46.64,12.57,59.86,6.91c4-1.72,8-3.61,11.93-5.42,5.41-2.47,10.34-1.92,15,2,10,8.51,20.71,15.71,33.39,19.54,15.92,4.82,31,2.46,44.84-6.43a122.59,122.59,0,0,0,15.29-12c4.8-4.3,9.78-5.67,15.78-3.08,6.3,2.72,12.69,5.23,19,8,5.94,2.63,8.69,8,6.85,14.1C215.07,46.36,208,69,197.28,90.28c-1.79,3.55-3.86,7-5.88,10.57,9.53,3.16,15.37,9.42,15.79,19.58.46,11.3-5.35,18.52-15.68,22,6.14,7.07,12.55,13.74,18.14,21,17.38,22.66,28.86,48.36,38,75.22A470.6,470.6,0,0,1,266.1,314.2c1,6.32-1.16,11.43-5.45,16-5.29,5.63-10.32,11.5-15.51,17.23-3.34,3.7-6.5,7.62-10.2,10.93-6.3,5.63-13.83,7.09-21.66,3.95-6.23-2.49-12.13-5.81-18.12-8.86-3.45-1.76-6.79-3.72-10.19-5.56-5.3-2.87-10.38-2.37-15,1.33-5.09,4-9.94,8.37-15,12.4A91.32,91.32,0,0,1,144.56,369c-7.54,4.44-15.42,4.48-22.68-.35a172.19,172.19,0,0,1-17.41-13.56C91.64,343.91,88.78,343.63,74.13,352a178.62,178.62,0,0,1-20.71,10.36c-7.66,3.15-15.22,1.67-21.32-3.89-5.25-4.77-9.81-10.28-14.68-15.46-3.59-3.81-7-7.8-10.81-11.37-4.93-4.62-7.4-10-6.39-16.75,6-40,16.14-78.72,33.8-115.24C44.27,178.47,57,159,74.52,143A5.64,5.64,0,0,0,75.2,142.08Zm28.84.7q-10.92-2.66-18.56,5.66c-7.16,7.81-15,15.09-21.38,23.51-16.9,22.39-27.52,48-36,74.51a423.27,423.27,0,0,0-16,69.23,7.7,7.7,0,0,0,1.24,5.51c6.6,7.65,13.48,15.07,20.3,22.53,8.78,9.59,12.52,10.24,24.09,4,5.82-3.14,11.5-6.54,17.3-9.72,10.57-5.8,20.71-4.75,30.16,2.43,5,3.77,9.59,8,14.31,12.09,12.08,10.51,16.14,10.48,28.11-.12,4.86-4.31,9.68-8.7,14.84-12.63,8.51-6.49,17.9-7.33,27.52-2.7,5.38,2.59,10.47,5.81,15.72,8.7,2.84,1.56,5.69,3.1,8.6,4.53,5.77,2.85,10.9,1.85,15.27-2.85,1.87-2,3.66-4.1,5.5-6.14,5.9-6.58,11.78-13.19,17.74-19.72,2-2.16,3.08-4.34,2.43-7.41-1.63-7.7-2.89-15.47-4.58-23.15-7.2-32.78-16.9-64.72-32.83-94.47-10.47-19.57-23.35-37.2-41-51-4.43-3.48-8.89-2.33-13.81-2.42.36.9.46,1.26.63,1.57a253.69,253.69,0,0,1,32.52,119.14c.4,16.54-1.53,33.15-2.6,49.71-.29,4.34-3.31,6.63-7,6.07-3.44-.51-5.26-3.24-4.68-7.23a256.49,256.49,0,0,0,1.34-63.55c-3.77-36.12-14.19-70.12-32.36-101.64-2.19-3.8-4.92-4.77-10.49-3.68-3.23.64-2.18,3.6-2.5,5.5-5.68,34.52-11.81,69-8.59,104.27.34,3.73-1.49,5.95-4.77,6.41s-6-1.55-6.64-5.12a62.71,62.71,0,0,1-.76-6.7c-1.73-23.46.88-46.68,4.21-69.83,1.67-11.59,3.91-23.09,5.9-34.63-7.54-1.45-8.12-1.34-11.67,5C89.76,194,80,243.18,83.8,295.21c.44,6,1.32,11.92,1.87,17.88.3,3.24-1.39,5.24-4.5,5.93s-5.34-.87-6.57-3.66a14.15,14.15,0,0,1-.88-4c-.63-5.71-1.32-11.41-1.77-17.14A265.41,265.41,0,0,1,90.43,172.35C94.47,162.33,99.45,152.68,104,142.78Zm106.87-122C204.3,17.84,198.2,15,192,12.46a4.59,4.59,0,0,0-3.77.8c-3.62,2.86-6.89,6.17-10.56,9-17.67,13.51-37.19,19-59.13,12.9C104,31.11,91.63,23.23,80.3,13.6c-2.08-1.77-3.65-1.89-6-.71-4.89,2.5-9.84,4.88-14.88,7.06-2.16.94-3.21,2.11-2.84,4.48.88,5.67,1.26,11.46,2.64,17,5.31,21.24,16.44,39.51,29.46,56.8a6.49,6.49,0,0,0,5.88,2.94c23.87-.1,47.75-.06,71.63-.06,12.34,0,12.48.08,18.55-10.78C196.94,68.58,203.73,44.81,210.91,20.78ZM134,131.27q25.13,0,50.25,0c6.69,0,10.83-3.55,10.87-9.22s-4.14-9.31-10.74-9.41H98.13c-5.25,0-10.5-.07-15.75,0-4.9.09-8.27,2.46-9.51,6.45-2,6.33,2.61,12.13,9.76,12.15C99.76,131.3,116.88,131.27,134,131.27Z"/></g></g></svg>