<svg xmlns="http://www.w3.org/2000/svg" viewBox="0 0 297.59 384"><g id="katman_2" data-name="katman 2"><g id="katman_1-2" data-name="katman 1"><path d="M122.86,384c-7-1-14.06-1.81-21-3-22-3.79-43-10-61.09-23.79a81.26,81.26,0,0,1-8.35-7.5C21.88,339,17.86,327.1,21,311.63c7.14-35.76,21.86-68,41.66-98.25,7.64-11.68,16.16-22.78,24.51-34.45-13.76-17.12-18.2-37.85-18.86-59.83-3.6.64-6.76,1.39-10,1.75C36.38,123.34,18.36,114.7,2.18,101-.31,98.84-.38,96.13.54,93.08c10-33.33,29.62-59.15,60.38-75.84C71.75,11.37,83.21,6.69,94.39,1.46c1-.47,2-1,3-1.46h100.5c1.07.54,2.11,1.16,3.22,1.61,22,8.84,43.21,19,60.49,35.84a143.45,143.45,0,0,1,35.35,55c1.37,3.8.68,6.65-2.32,9.36C276,118.55,254.42,124.13,230,119c-.85-.18-1.69-.41-2.55-.57-.23,0-.49,0-.13,0-1.58,9.89-2.71,19.69-4.8,29.27A70.22,70.22,0,0,1,208.76,177c-2,2.56-.32,3.77,1,5.34,20,24.69,36.75,51.34,49.24,80.61a220.93,220.93,0,0,1,16,57.15,26.69,26.69,0,0,1-3.36,17.23c-7.73,13.9-19.69,23.05-33.56,30-17.41,8.7-36.13,12.84-55.31,15.21-3.69.45-7.38,1-11.07,1.48h-7.5c-1.56-2.45-3.55-4.72-4.6-7.37-3.66-9.14-7-18.42-10.47-27.64-.44-1.18-1-2.32-1.72-4.05-4.26,11.22-8.13,21.76-12.31,32.17-1,2.51-3.07,4.6-4.65,6.89ZM96.24,189.64c-.47.57-1.36,1.61-2.21,2.67A339.94,339.94,0,0,0,62,239.74c-13.81,24.67-24.41,50.48-28.85,78.64-1,6.68.12,12.12,4.14,17.44,7.54,10,17.44,16.71,28.6,21.79,17.12,7.81,35.33,11.26,53.92,13.25,3.21.34,4.51-.34,5.61-3.39,5-13.85,10.29-27.58,15.4-41.39,1.17-3.16,2.8-5.69,6.49-5.77,3.9-.08,5.7,2.55,6.82,5.86.56,1.65,1.19,3.28,1.8,4.92,5,13.31,10,26.61,15,40.14,4.36-.51,8.57-.91,12.76-1.5,18.64-2.64,36.79-6.94,53.35-16.36,9.58-5.46,18.06-12.23,23.2-22.23a17.68,17.68,0,0,0,1.83-9.22,140.51,140.51,0,0,0-3.2-18.42c-6.94-29.8-20.29-56.79-36.88-82.24-7.35-11.27-15.46-22-22.7-32.27l-25.8,8.55c1.49,3.08,3.28,6.63,4.92,10.25,1.77,3.91.75,7.33-2.53,9s-7,.51-9-3.36-4.05-7.47-5.67-11.38c-1.43-3.48-3.6-4.43-7.43-3.08v3.87c0,8.75,0,17.5,0,26.24,0,4.76-2.46,7.68-6.3,7.7s-6.43-3-6.46-7.62c-.06-8.87,0-17.75,0-26.62,0-1.32-.1-2.64-.16-3.79-3.57-1.42-5.66-.73-7.05,2.74-1.58,3.92-3.71,7.63-5.65,11.4-2.2,4.28-5.54,5.71-9.1,4s-4.51-5.32-2.47-9.58c1.66-3.45,3.39-6.86,4.82-9.76ZM93.83,15.12c-8.15,4-17,8.13-25.55,12.67C42,41.71,24.59,63.31,14.57,91.11c-.66,1.83-1.16,3.26.95,4.78,17.37,12.53,35.66,17.63,56.14,7.77,5.31-2.56,9.8.67,9.75,6.57s-.25,12,.29,18c1.35,15,5.22,29.18,14.29,41.62,4.85,6.64,10.86,11.11,19,12.83a153.79,153.79,0,0,0,64.33,0,29.6,29.6,0,0,0,13-6.14c7.06-6.27,11.93-14.37,15.11-23.36a106.29,106.29,0,0,0,5.67-42c-.4-7,3.84-10.16,10.2-7.42a55.88,55.88,0,0,0,30,4.26,54.75,54.75,0,0,0,30.08-13.73c-15.35-40.12-44.83-64.77-84.3-79.14-1,2.28-1.91,4.58-3,6.8-9.94,20.78-24.31,38.33-40.11,54.8a8.54,8.54,0,0,0-2.62,6.59c.14,10.24.09,20.5,0,30.74,0,4.09-1.89,6.7-5,7.4-4.19.94-7.68-2-7.72-6.81-.08-10.5.08-21-.13-31.5a9.83,9.83,0,0,0-2.23-5.51c-9.49-11.74-19.66-23-28.58-35.14C103.71,34.17,99.31,24.67,93.83,15.12ZM186.54,13H108.25c9.39,21.12,23.68,38.12,39.15,54.76C162.81,51.1,177.16,34.14,186.54,13Z"/></g></g></svg>