<svg xmlns="http://www.w3.org/2000/svg" viewBox="0 0 625.01 638.48"><g id="katman_2" data-name="katman 2"><g id="katman_1-2" data-name="katman 1"><path d="M155.53,252.87c-6,18-11.39,34.39-16.82,50.75-7,21.08-21.7,28.16-42.43,20.39q-37.59-14.08-75.16-28.24C2.42,288.7-4.13,274.46,2.54,255.44Q29.46,178.71,56.47,102C69.34,65.47,93.94,40.45,130.4,27.28c23.92-8.64,47.92-17.09,71.9-25.58,8.49-3,10.74-2.38,16.56,4.84C242,35.23,268.07,60.46,299.72,79.78c9,5.5,16.24,5.64,25.34.11C356.16,61,381.93,36.32,404.7,8.25c7.65-9.43,8.64-9.8,20.24-5.66,24.78,8.85,49.72,17.31,74.3,26.71,34.12,13.06,56.74,37.64,68.88,71.92q27.38,77.26,54.46,154.64c6.5,18.52-.19,32.88-18.49,39.83q-38.48,14.6-77,28.94c-18.71,6.93-33.8-.49-40.25-19.56-5.18-15.3-10.24-30.63-15.38-45.94-.55-1.64-1.23-3.22-1.66-4.31-4.74,11-9.52,22.06-14.34,33.12a11.67,11.67,0,0,1-2.28,4c-7.85,7.23-8,16.46-7.69,26.18.44,14.84-2.24,30.21.81,44.41s11.57,27.06,17.57,40.58c23.26,52.35,41.75,106.26,52,162.75,2.17,11.93,4.39,24.24,3.74,36.22-1.19,21.6-19.61,36.31-43.16,36.33q-95.05.11-190.12,0-69.13,0-138.28,0c-21.48,0-38-12.23-41.92-31.57-1.28-6.35-.93-13.28-.08-19.78,7.36-56.83,24.21-111,46.32-163.68,7.61-18.14,16.46-35.77,24.47-53.75a30,30,0,0,0,2.6-11.4c.28-16.84.21-33.69,0-50.54,0-2.69-.55-6-2.12-8-9.4-11.85-15-25.47-19.51-39.69C157.24,258.18,156.64,256.32,155.53,252.87Zm-23.07,10c5.64-16.88,11.07-33,16.38-49.13,1.68-5.12,4.52-9,10.33-8.45,6.12.56,8,5.06,8.94,10.65,1.83,11.35,3.12,23,6.55,33.84,3.76,11.89,9.62,23.12,14.71,34.58,1.61,3.63,4.68,4.53,8.68,4.48,17.72-.22,35.45,0,53.17-.22a16.61,16.61,0,0,0,9-2.89c31.63-23.17,72.9-23.13,104.63.16a14.23,14.23,0,0,0,7.75,2.73c18.39.24,36.79.28,55.17-.05,2.54-.05,6.36-1.89,7.34-4,5.71-12.12,11.7-24.26,15.72-37,3.43-10.87,4.32-22.55,6.37-33.87.89-4.9,3.65-8.17,8.77-8.49,4.8-.3,7.87,2.41,9.47,6.83.83,2.29,1.59,4.6,2.36,6.9,4.83,14.43,9.65,28.85,14.67,43.87l99.32-37.26c-.51-1.82-.78-3.09-1.21-4.31-13.53-38.4-26.64-77-40.88-115.08-4.11-11-10.47-21.52-17.51-31-14.86-20-37.12-28.68-59.94-35.81-1.52-.47-4.37,1.27-5.77,2.76-9.39,10-18.48,20.33-27.81,30.41-6.43,6.93-11.89,8-16.39,3.62s-3.73-9.56,3-16.56c.77-.8,1.56-1.58,2.31-2.4,7.61-8.24,15.21-16.49,23.49-25.47-9.68-3.45-18.25-6.23-26.58-9.59-3.92-1.58-6.27-1.07-9,2.23-6.35,7.68-12.89,15.24-19.83,22.39-22.37,23-46.77,43.43-76.54,56.35-3.45,1.5-8.71,2.18-11.79.61-12.58-6.4-25.18-13-36.78-21-23.32-16.06-42.93-36.26-61.11-57.89C208,23.11,205,21,203.41,21.52c-9.62,2.9-19,6.49-29.95,10.36C186.17,45,197.62,57.62,209.89,69.36c24.94,23.88,52.36,44.34,84.26,58.25,12.5,5.45,24.74,5.22,37.26-.32,21.83-9.67,41.64-22.48,60.27-37.28,7.2-5.73,12.28-5.92,16.28-1s2.6,10.6-5.13,15.93c-15.67,10.77-31.22,21.84-47.64,31.34a131.72,131.72,0,0,1-32.47,12.93c-16.84,4.38-32.28-2-47.11-9.5C234,118.77,199.91,88.38,169,54c-4.68-5.21-9-13-14.73-14.38s-13.26,3.57-19.86,6.09c-27.49,10.52-47.68,29-57.94,56.75-14.73,39.84-28.46,80.05-42.59,120.11a18.14,18.14,0,0,0-.41,3.14ZM499,578.52h-8.6q-126.28,0-252.56,0c-3.07,0-6.88.47-9-1.1-2.8-2-6-6-5.82-9s4-6.24,7-8.08c2.15-1.31,5.61-.54,8.49-.54q123.95,0,247.9,0h9.17c-.6-3.09-1-5.21-1.42-7.31-12.74-59.9-34.52-116.55-61.27-171.44-1.67-3.44-3.51-4.89-7.44-4.84-17.5.2-35,0-52.5.21a15.55,15.55,0,0,0-8.41,2.83,87.54,87.54,0,0,1-104.08,0,14.27,14.27,0,0,0-7.72-2.83c-17.94-.25-35.89-.27-53.83.05a8.75,8.75,0,0,0-6.34,4.09,763,763,0,0,0-49.18,123.12c-5.43,18.15-9.73,36.64-14.84,56.11H137q25.92,0,51.84,0a61,61,0,0,1,6.63.25c5,.55,7.61,3.84,7.94,8.39s-2,8.18-6.79,9.31a31.77,31.77,0,0,1-7.22.73c-18.84,0-37.67,0-56.5,0-2.34,0-4.68.23-6.91.34-.63,4.28-1.24,7.77-1.65,11.28-2.37,20.38,5.79,29.58,26.22,29.58q162.17,0,324.34,0a50,50,0,0,0,9.24-.69,21.15,21.15,0,0,0,17.29-22.61C500.91,590.7,499.88,585,499,578.52ZM312.64,287.27c-19.63,0-37.11,7.27-48.08,20.12-14.52,17-12.7,40,4.3,54.42,22.49,19.09,56.36,21.06,81.05,4.72,26.11-17.28,27.06-48.29,1.95-67C340.27,290.87,327,287.26,312.64,287.27ZM27.25,243.34a15.65,15.65,0,0,0-1.38,2.22c-2.08,5.82-4.25,11.63-6.16,17.51-2.54,7.84-.49,11.92,7.34,15,2.87,1.14,5.8,2.14,8.7,3.23Q69.88,294.16,104,307c5.67,2.15,11.47,2.87,14.41-3.41,3.4-7.25,5.49-15.12,8.23-23C93,268,60.35,255.77,27.25,243.34Zm570.94-.18-99.84,37.49c2.63,7.79,4.67,15,7.52,21.89,2.26,5.44,6.83,7.32,12.58,5.25,6.24-2.24,12.44-4.58,18.65-6.9,20.29-7.59,40.59-15.13,60.84-22.81,7.91-3,9.92-7.18,7.35-15C603.14,256.62,600.72,250.23,598.19,243.16ZM383,357.55c14.06,0,26.86-.08,39.67,0,3.8,0,4.27-2,4.25-5-.09-10.84,0-21.68,0-32.53V307.89H383.2C390.67,324.41,390.6,340.48,383,357.55Zm-141-.38c-8.19-17-7.19-33.1-.36-49.33H198.78v49.33Z"/><path d="M310.16,298.92c13.28.16,23.17,3.37,31.23,11.12,14.15,13.62,13.27,34-1.89,46.51s-38.29,12.69-53.47.4c-9.64-7.79-14.44-17.86-11.81-30.4,2.84-13.47,12.11-21.2,24.53-25.44C303.08,299.64,307.81,299.35,310.16,298.92Zm2.19,18.79c-10.69.05-19.92,6.59-20.22,14.34s8.62,14.63,19.5,15.19c10.28.53,20.6-6.36,21.14-14.12.57-8.06-8.48-15.09-19.76-15.36Z"/></g></g></svg>