<svg xmlns="http://www.w3.org/2000/svg" viewBox="0 0 382.9 510.14"><g id="katman_2" data-name="katman 2"><g id="katman_1-2" data-name="katman 1"><path d="M341.88,0c7.39,3.17,15.5,5.29,22,9.75,12.39,8.46,18.35,21.17,18.76,36.15.31,11.45.35,22.93,0,34.37-.58,18.64-8.59,33.81-23.08,46.13,1.42,1.08,2.67,2,3.91,3a22.19,22.19,0,0,1,7.68,24.5,21.79,21.79,0,0,1-20.44,15.48c-15.94.19-31.89.15-47.83,0-3.26,0-5.22,1-7.48,3.54-13,14.56-14.91,32.63-17.48,50.83-1.91,13.55.42,24.13,9.62,35.21,14.58,17.56,22.75,39.16,30.86,60.44,1.69,4.43,0,8.53-3.68,10.1-4.19,1.79-8.1-.19-10.36-5-7.34-15.76-14.37-31.68-22.3-47.14-3.43-6.71-8.68-12.51-13.33-18.54a6.73,6.73,0,0,0-4.5-2.44c-21.08-.15-42.16-.1-64.09-.1,1.8,8,3.32,15.54,5.22,23,9,35.24,21.41,69.06,42.15,99.29,16.2,23.62,36.17,42.91,64.07,52.15,7.62,2.52,15.63,3.84,24.68,6-1.14-5.44-1.79-9.44-2.83-13.33q-8.81-33.17-17.8-66.27c-1-3.56-1.5-6.88,1.45-9.7,4.28-4.09,10.71-1.86,12.61,4.61,4.17,14.15,8.39,28.29,12.05,42.58,3.87,15.09,7.18,30.32,10.62,45.52,1.68,7.45-1.41,11.2-9,11.12-3.44,0-6.87-.29-11-.48,1.29,7.91,2.46,15.38,3.74,22.84,1.45,8.5,3,17,4.48,25.48,1.32,7.58-1.54,11-9.22,11.05q-85,0-169.91,0c-5.91,0-9.26-2.67-9.38-7.28-.12-4.82,3.32-7.65,9.5-7.65h163c-1.72-10.24-3.36-20.11-5-30-.83-4.91-1.58-9.84-2.7-14.68A5,5,0,0,0,314,447.3c-38.48-10.83-64.55-36.81-84.91-69.62-16.4-26.41-27.51-55.11-35.74-85-.46-1.68-1-3.33-2-6.47-1.27,4.34-2.14,7.25-3,10.17-10.34,35.6-24.36,69.5-47,99.22-18.68,24.49-41.74,43-72,51.52a5.9,5.9,0,0,0-3.51,3.74c-2.73,14.5-5.17,29.06-7.82,44.31h5.54q31.15,0,62.29,0c4.48,0,7.9,1.43,8.79,6.23.95,5.16-2.59,8.7-8.73,8.72q-32.89.06-65.77,0c-3.16,0-6.31,0-9.47,0C44,510,41,506.56,42.11,499.84c2.37-14.23,4.9-28.43,7.35-42.65.34-1.95.55-3.91.83-5.93-4.09,0-7.83,0-11.58,0-6.45-.08-9.83-3.74-8.53-9.88,10.94-51.66,24.1-102.66,46.46-150.8,7.3-15.7,15.85-30.65,27.72-43.48a7,7,0,0,0,1.53-4.92c-1.35-14-2.52-28.09-4.55-42-1.66-11.37-8.61-20.35-15.62-29-.9-1.11-3.15-1.57-4.79-1.59-15.11-.11-30.22-.05-45.34-.07-12.34,0-20.7-5.46-23.94-15.55s.44-19.33,10.57-26.47a3.76,3.76,0,0,0,.59-.75c-.1-.3-.1-.71-.3-.89C6.62,112.08-.65,94.71.05,73.8.41,62.69-.62,51.44.8,40.49,3.54,19.49,17.94,5.14,38.63.84A18.29,18.29,0,0,0,40.94,0ZM183.69,112.11c-6.54-1.57-12.62-2.63-18.43-4.51-15.85-5.13-28.37-14.91-37.94-28.48-2.75-3.9-2.15-8.06,1.21-10.61s7.46-2,10.57,1.59c1.09,1.25,2,2.63,3.08,3.91,24.69,29.74,74.21,30.63,99.65,1.49,15-17.14,18.8-38.16,19.92-60.32H121.58c.2,2.19.23,4.15.59,6.05,1.39,7.16,2.9,14.29,4.33,21.44,1,4.9-1.1,8.71-5.3,9.82-4,1.07-7.78-1.44-9.25-6.19a18.86,18.86,0,0,1-.43-1.95q-2.88-14.55-5.76-29.12H92.9a736.17,736.17,0,0,0-7.27,109.44c.11,14.48,4,27.65,13.26,38.74,12.7,15.14,18.48,32.68,19.87,52.07.61,8.53,1.7,17,2.58,25.53H183.6V219c-5.32,3.28-9.85,6.7-14.91,8.94-2.4,1.07-6.52.88-8.53-.58-1.79-1.3-2.51-5.21-2.25-7.82.19-1.78,2.66-3.62,4.49-4.88,4.7-3.23,9.6-6.14,14.94-9.51-5.76-3.63-10.77-6.57-15.51-9.89-1.77-1.25-3.94-3.33-4.07-5.17-.17-2.45.75-6.23,2.49-7.27a10.69,10.69,0,0,1,8.61-.37c5,2.23,9.53,5.61,14.78,8.84V162.14c-.61,0-1-.12-1.23,0-4,2.41-7.92,4.86-11.88,7.28-5.3,3.24-9.73,2.76-12.17-1.29s-1-8,4.37-11.46c4.67-3,9.35-5.9,14.57-9.18-5.6-3.54-10.37-6.5-15.09-9.55-4.9-3.16-6.26-7.3-3.78-11.23s6.75-4.41,11.77-1.35c4.33,2.63,8.64,5.32,13.49,8.31Zm.14,144.14c-23.1,0-44.17-.08-65.23.14-1.76,0-4.11,1.6-5.15,3.16-7.07,10.58-14.84,20.85-20.58,32.14-17.61,34.6-28.39,71.7-38,109.15-2.9,11.34-5.5,22.76-8.31,34.42a14.76,14.76,0,0,0,2.54.26c1.81-.15,3.63-.31,5.43-.6,28.8-4.66,51.23-20,69.68-41.82,19.32-22.87,32.55-49.2,42.07-77.32C172.8,296.55,177.83,276.81,183.83,256.25Zm15.3-122.49c5.06-3.15,9.25-5.78,13.47-8.36,5-3.07,9.32-2.57,11.77,1.3s1.14,8.1-3.72,11.24-9.68,6.13-15.1,9.55c5.59,3.55,10.48,6.59,15.31,9.73,4.62,3,5.92,7,3.63,10.88s-6.77,4.61-11.71,1.62c-4.35-2.64-8.65-5.35-13.55-8.38v30c4.92-3.06,9.22-5.78,13.57-8.42,4.9-3,9.37-2.32,11.7,1.64s1,7.88-3.64,10.89c-4.83,3.14-9.73,6.19-15.24,9.69,5.37,3.42,10.25,6.45,15.06,9.58s6.19,7.36,3.67,11.26-6.7,4.37-11.78,1.27c-4.32-2.63-8.61-5.33-13.31-8.25v21.95h62.39c.53-6.13,1.14-11.88,1.51-17.65,1.49-22.79,6.74-44,22.21-62,8.48-9.85,12.07-22.18,11.66-35.18-.83-26.35-1.89-52.7-3.34-79-.58-10.67-2.42-21.27-3.67-31.8H277.71c-1.93,11.32-3,22.46-5.8,33.13C263.8,79.16,245.57,100.74,213.8,109c-4.75,1.25-9.67,1.86-14.67,2.8ZM77.3,15c-10,0-20.09-.09-30.18,0-16.27.19-30.21,11.32-31.49,27.43-1.18,15-1.38,30.32.72,45.12C19.66,111,43.42,128.75,70.2,123.88c.64-18.06.87-36.13,2-54.13S75.55,33.52,77.3,15ZM313.52,124.59c2.33,0,5.44.06,8.55,0,22.79-.47,41.91-16.16,44.72-38.85,1.76-14.21,1.57-28.86.43-43.16-1.07-13.38-9.45-23.49-22.59-26-12.78-2.42-26.19-1.58-38.27-2.13C308.78,51.62,311.12,87.64,313.52,124.59ZM75.82,154.46c-1.22-4.68-2.14-8.71-3.39-12.62a3.69,3.69,0,0,0-2.63-2.17c-12.44-.13-24.89-.21-37.33,0a7,7,0,0,0-6.81,7.69c.3,4.24,2.73,6.94,7,7C46.88,154.57,61.13,154.46,75.82,154.46Zm231.18,0c14.61,0,28.71.09,42.8,0a7.12,7.12,0,0,0,7.4-7.63c-.15-4.14-3.21-7.13-7.95-7.18q-17.67-.19-35.34,0a4.63,4.63,0,0,0-3.52,2.28C309,145.82,308.2,149.86,307,154.48Z"/></g></g></svg>