<svg xmlns="http://www.w3.org/2000/svg" viewBox="0 0 311.83 512"><g id="katman_2" data-name="katman 2"><g id="katman_1-2" data-name="katman 1"><path d="M256.71,0c11,3.74,14.87,11.88,14.32,22.9-.25,5.08-2.46,8-6.71,8.38s-7.22-2.19-8.11-7C254.5,15,254.5,15,245,15c-5.5,0-11,.35-16.49-.1-5.88-.48-8.66,2.2-10.8,7.35a104.71,104.71,0,0,1-9.35,18.1,47,47,0,0,1-26.56,19.23,91,91,0,0,1-51.24.24C113.5,55,102.5,43.15,95.79,27.18,90,13.48,91.84,15.08,77.42,15c-5.66,0-11.33.05-17,0-2.81,0-4.55,1.09-4.66,4a232.65,232.65,0,0,1-8.21,51.17,2.62,2.62,0,0,0,0,1.06c41.71-9.34,76.29,5.8,108.24,30.56,31.77-24.67,66.35-39.89,108.6-30.42-.78-3-1.7-6.23-2.49-9.5-1.42-5.92.3-9.8,4.78-11,4.64-1.2,7.91,1.17,9.77,6.88,4.32,13.27,8.45,26.62,13.14,39.77,7,19.52,5.78,39.26.38,58.5-6.73,24-15.3,47.46-22.86,71.21-2.57,8.07-4.54,16.33-6.74,24.51-1.39,5.17-.62,10,1.35,15,18.48,47.32,29.45,96.67,38.91,146.4,3.82,20.11,7.1,40.32,10.66,60.47,3.4,19.28-11.06,33.63-30.25,29.86-17-3.34-34.07-6.54-51.54-4.48-6.1.72-12.21,1.66-18.21,3-14.58,3.19-29.09,6.65-43.64,10h-24c-10.52-2.29-21.29-3.79-31.51-7-26.9-8.52-53.73-7.64-80.9-1.72-20,4.35-34.1-9.63-30.8-29.82,1.6-9.86,3.2-19.72,5-29.55,1-5.78,4.61-8.65,9-7.71S21,440.94,20,446.75c-1.63,9.86-3.23,19.71-4.92,29.56-1.54,9,3.47,14,12.64,12.54,9.69-1.6,19.33-3.65,29.07-4.72,21-2.32,41.47,1,61.59,7.18,24.88,7.66,50,7.92,74.77-.05,29.57-9.51,59.22-9.77,89.23-2.82a18,18,0,0,0,8.34.11c4.94-1.3,6.88-6.08,5.72-12.75-3.61-20.83-7-41.7-11-62.45-7.44-38.92-16.09-77.55-28.36-115.28-2.72-8.38-6.06-16.57-8.74-25-1.12-3.52-2.94-4.42-6.47-4.41-35.33.13-70.66.08-106,.08-22.17,0-44.33.07-66.5-.08-3.36,0-4.88,1-6.1,4.17C48.77,311.27,39,351,30.69,391.09c-1.31,6.35-2.58,12.72-4,19.05-1.2,5.39-4.62,8-9.06,7.05S11,412.39,12,407.14c10-49.09,20.86-97.95,39.21-144.81,1.37-3.5.8-8.35-.32-12.14Q43.43,225.11,35,200.31c-6.82-20.18-14.18-40.19-16.66-61.54-1.63-14-1.41-27.91,3.8-41.34C29.7,78,36.19,58.27,39,37.51a127.54,127.54,0,0,0,1.52-16.4C40.53,10.75,44.93,3.67,54.68,0h36c9.73,3.09,14.89,10.08,18.22,19.48,4.95,14,14.42,24.05,29.51,26.91a116.48,116.48,0,0,0,22.8,1.54c20.45-.2,35-9.54,41.85-29.17C206.23,9.68,211.51,3.15,220.7,0ZM68.58,253.43h176c1.27-5.48,2.09-10.78,3.75-15.81,6.46-19.58,13.3-39,19.8-58.62,6.72-20.28,12.44-40.7,10.68-62.52-1.35-16.79-9.45-27.75-25.3-31.87a48.35,48.35,0,0,0-14.82-1.43A115.86,115.86,0,0,0,169,111c-9.85,8.32-16.33,8.48-26,.14-17-14.64-36.82-23.11-58.7-27-10.77-1.9-21.65-2.18-32,2.22-13.7,5.83-18.21,17.68-19.43,31.32-1.56,17.43,2.08,34.2,7.38,50.58C49.37,196.58,59,224.71,68.58,253.43Z"/><path d="M70.77,435.49A778.72,778.72,0,0,1,84.94,335.24c1-5,4.71-7.48,9-6.63,4.56.92,6.64,4.68,5.62,10.54-2.3,13.1-5.09,26.13-6.91,39.3-2.65,19.27-4.67,38.64-6.87,58-.67,5.89-4,9.29-8.79,8.46C72.78,444.16,70.58,440.83,70.77,435.49Z"/><path d="M240.81,433.65c0,1.33,0,2.67,0,4-.13,4.1-2.39,6.63-6.28,7.19-4.21.6-7.27-1.48-8.08-5.66s-.83-8.6-1.45-12.87q-6.31-43.44-12.8-86.85c-.59-3.91-.61-7.38,2.95-9.79,4.6-3.12,10.35-.4,11.52,5.73,2.76,14.37,5.63,28.74,7.74,43.21,2.65,18.27,4.6,36.65,6.85,55Z"/><path d="M238.32,313.91a7.1,7.1,0,0,1-6.94-7,6.8,6.8,0,0,1,6.76-7.06,7.12,7.12,0,0,1,7.31,7.13A7.37,7.37,0,0,1,238.32,313.91Z"/><path d="M59.4,393.61a7.32,7.32,0,0,1-6.7,7.32,7,7,0,0,1-7.32-6.56,6.81,6.81,0,0,1,6.8-7.5A7.15,7.15,0,0,1,59.4,393.61Z"/><path d="M266.74,423.75a7.14,7.14,0,0,1-7-6.93,7,7,0,1,1,14-.06A7.15,7.15,0,0,1,266.74,423.75Z"/><path d="M266.64,457.57a7.38,7.38,0,0,1-6.74,7.29,7.1,7.1,0,0,1-7.29-6.6,6.78,6.78,0,0,1,6.85-7.42A7.1,7.1,0,0,1,266.64,457.57Z"/><path d="M118.18,450.72a7,7,0,1,1-14.07-.42,7,7,0,0,1,14.07.42Z"/><path d="M233.42,231.78a7.33,7.33,0,0,1-6.89,7.14,7.09,7.09,0,0,1-7.16-7.25,6.79,6.79,0,0,1,7-6.79A7.12,7.12,0,0,1,233.42,231.78Z"/><path d="M231.29,199.89a7.3,7.3,0,0,1-7.16-6.86,7,7,0,1,1,14.06-.24A7.25,7.25,0,0,1,231.29,199.89Z"/><path d="M99.59,158.34a7.11,7.11,0,0,1-7.1,6.82,6.76,6.76,0,0,1-6.93-7.33,7.09,7.09,0,0,1,7.2-6.69A7.36,7.36,0,0,1,99.59,158.34Z"/><path d="M219,160.5a6.78,6.78,0,0,1-7,6.76,7.16,7.16,0,0,1-7-6.91,7.42,7.42,0,0,1,7.42-7.14A7.14,7.14,0,0,1,219,160.5Z"/><path d="M71,185.71a7.2,7.2,0,0,1-7,7,7.37,7.37,0,0,1-7.12-7.44,7.24,7.24,0,0,1,7.3-6.69A7,7,0,0,1,71,185.71Z"/><path d="M248,135.66a6.87,6.87,0,0,1,7.07,6.77,7.17,7.17,0,0,1-6.65,7.28A7.39,7.39,0,0,1,241,142.6,7.2,7.2,0,0,1,248,135.66Z"/><path d="M114.42,224.59a7.06,7.06,0,0,1-.65-14.1,7.06,7.06,0,1,1,.65,14.1Z"/></g></g></svg>