<?xml version="1.0" encoding="utf-8"?>
<!-- Generator: Adobe Illustrator 26.0.0, SVG Export Plug-In . SVG Version: 6.00 Build 0)  -->
<svg version="1.1" id="katman_1" xmlns="http://www.w3.org/2000/svg" xmlns:xlink="http://www.w3.org/1999/xlink" x="0px" y="0px"
	 viewBox="0 0 38.7 57" style="enable-background:new 0 0 38.7 57;" xml:space="preserve">
<g id="Layer_34">
	<path d="M21.4,29.4c0-0.3-0.2-0.5-0.5-0.5c0,0,0,0,0,0c-0.3,0-0.5,0.2-0.5,0.4c0,0,0,0,0,0.1c-0.4,7.9,0,15.9,1.2,23.7
		c0,0.2,0.3,0.4,0.5,0.4c0.3,0,0.5-0.2,0.5-0.5c0,0,0,0,0-0.1C21.5,45.1,21.1,37.3,21.4,29.4z"/>
	<path d="M33.9,8.6c-0.5-3.9-1.4-6-2.6-6.7c-1.5-0.3-3-0.9-4.3-1.8c-0.2-0.1-0.4-0.1-0.6,0c-1.5,1.1-3.3,1.8-5.1,2.1
		c-4.6,0.8-7.8,0.3-9.5-1.6c-0.2-0.2-0.5-0.2-0.7-0.1H11C9.1,1,7.2,1.9,5.5,3C4.9,4.5,4.7,6.5,4,9.8c-0.6,6.9-2,15.9-4,26.8
		c0,0.1,0,0.3,0.1,0.4c0.2,0.2,0.4,0.5,4.5,1c0.2,0,0.5-0.1,0.5-0.4c0.5-1.9,0.9-3.6,1.4-5.1c0.4-2.7,0.9-5.3,1.7-7.9
		c-0.1,1.4-0.3,2.7-0.4,4.1c-0.1,0.1-0.1,0.3-0.1,0.5c-0.2,7.2-1.2,14.3-2.9,21.3c0.4,1.3,1.5,2.2,2.8,2.3c0,0.9,0.7,1.6,1.6,1.5
		c0.1,0,0.1,0,0.2,0c0.5,0.7,1.3,0.9,2.1,0.6c0.4,1,1.5,1.5,2.5,1.2c0.5,0.9,1.6,1.2,2.5,0.7c0,0,0.1,0,0.1-0.1
		c1.3-0.8,2.3-0.9,3.2-0.1c0.5,0.3,1.3,0.5,4.2-1c1.1,0.9,2.1,0.3,3-0.9c0.1-0.2,0.4-0.4,1,0c0.1,0.1,0.2,0.1,0.3,0.1
		c0.6,0.1,1.1-0.2,1.3-0.8c0-0.1,0-0.2,0-0.3c1.6-0.5,3-1.7,3.8-3.2l0,0c0,0,0,0,0-0.1l0,0c0,0,0-0.1,0-0.1l0,0c0,0,0,0,0-0.1
		c-1.7-9.8-2.8-18-3.5-24.5c0.9,3.2,2,7.3,3.3,12.4c0.1,0.3,0.3,0.4,0.6,0.4c0.9-0.2,2.4-0.4,4.5-0.6c0.3,0,0.5-0.3,0.4-0.6
		c0,0,0,0,0,0C37.4,27.7,35.7,18,33.9,8.6z M21.4,3.2C23,3,24.6,2.4,26,1.6C25.2,5,23,6.9,19,7.1c-3.8-0.1-6.2-1.8-7.1-5
		C14,3.6,17.2,4,21.4,3.2z M34.1,37.4c-1.9-7.6-3.4-13.1-4.5-16.3c-0.2-6.3,0.4-11,1.7-13.9c0.1-0.2,0-0.5-0.2-0.7c0,0,0,0,0,0
		c-0.2-0.1-0.5,0-0.7,0.2c-1.4,3-2,7.9-1.8,14.4l0,0c0.5,7.1,1.8,16.8,3.8,28.9c-0.6,1.2-1.7,2.1-2.9,2.6c-1.4-6.3-2-16.5-1.8-30.5
		c0-0.3-0.2-0.5-0.5-0.5s-0.5,0.2-0.5,0.5c-0.2,14.3,0.4,24.8,1.8,31.1v0.1c0,0.2,0,0.3,0,0.5c-0.1,0-0.1,0-0.2,0
		c-0.7-0.5-1.7-0.3-2.2,0.3c-0.2,0.4-0.5,0.7-0.9,0.9c-0.8-6.5-0.7-15.6,0.2-27.2c0-0.3-0.2-0.5-0.5-0.5c-0.3,0-0.5,0.2-0.5,0.5l0,0
		c-0.9,11.2-1.1,20.2-0.3,26.7c-0.1,0-0.2,0-0.3,0.1c-2.2,1.2-2.8,1.3-3.4,1.2c-0.5-0.4-1.1-0.7-1.7-0.8c0.4-8-0.1-16.1-1.5-24
		c0-0.3-0.3-0.5-0.6-0.4s-0.5,0.3-0.4,0.6c1.4,7.9,1.9,15.9,1.5,23.9c-0.6,0.1-1.1,0.4-1.6,0.7c-0.6,0.3-1,0.2-1.4-0.4
		c1.1-5.8,1-15.6-0.4-29c0-0.3-0.3-0.5-0.5-0.4c-0.3,0-0.5,0.3-0.5,0.5c0,0,0,0,0,0c1.4,13.2,1.5,22.8,0.5,28.5
		c-0.6,0.2-1.2-0.1-1.4-0.7c0-0.1,0-0.2-0.1-0.2c1.1-7,1.1-14.2,0-21.3c0-0.3-0.3-0.5-0.5-0.4c0,0,0,0,0,0c-0.3,0-0.5,0.3-0.4,0.6
		c0,0,0,0,0,0c1,6.9,1,13.9,0,20.8c-0.8,0.2-1,0-1.2-0.2c0.5-4,1.5-13.3,0-13c-0.3,0-0.5,0.3-0.4,0.6c0,0,0,0,0,0
		c0.3,2.5,0.1,6.6-0.5,12.1c-0.5,0-0.6-0.4-0.7-1l0,0C8.7,49,8.9,46,8.9,43.1c0-0.3-0.2-0.5-0.5-0.5s-0.5,0.2-0.5,0.5
		c0,2.7-0.1,5.6-0.3,8.6C6.7,51.6,6,51,5.8,50.2c1.8-6.9,2.8-13.9,2.9-21c0.4-2.8,0.6-5.6,0.8-8.3c0,0,0-0.1,0-0.1
		c0.1-1.5,0.1-2.9,0.1-4.4c-0.4-2.7-1-5.3-1.9-7.9C7.6,8.3,7.3,8.1,7,8.2C6.7,8.3,6.6,8.6,6.7,8.9c0.9,2.5,1.5,5.1,1.9,7.7
		c0,1.4,0,2.8-0.1,4.2c-1.4,3.7-2.4,7.6-2.9,11.6c-0.4,1.4-0.9,2.9-1.3,4.7c-1.1-0.1-2.2-0.3-3.3-0.5C3,25.8,4.4,16.8,5,10
		c0.5-2.8,1-4.9,1.3-6.2c1.4-0.9,2.9-1.6,4.5-2.1c0.9,4.1,3.6,6.3,8.2,6.4c4.5-0.3,7.2-2.5,8-6.7c1.2,0.7,2.4,1.2,3.8,1.4
		c0.6,0.4,1.5,1.7,2.1,6c1.8,9.2,3.4,18.6,4.8,28C36.1,37.1,34.9,37.2,34.1,37.4z"/>
</g>
</svg>
