<?xml version="1.0" encoding="utf-8"?>
<!-- Generator: Adobe Illustrator 26.0.0, SVG Export Plug-In . SVG Version: 6.00 Build 0)  -->
<svg version="1.1" id="katman_1" xmlns="http://www.w3.org/2000/svg" xmlns:xlink="http://www.w3.org/1999/xlink" x="0px" y="0px"
	 viewBox="0 0 297.6 384" style="enable-background:new 0 0 297.6 384;" xml:space="preserve">
<style type="text/css">
	.st0{display:none;fill:#FFFFFF;}
</style>
<g id="katman_2_00000130636436530627238840000013953474932193751219_">
	<g id="katman_1-2">
		<path class="st0" d="M197.9,0h144.8v384h-171c3.7-0.5,7.4-1,11.1-1.5c19.2-2.4,37.9-6.5,55.3-15.2c13.9-6.9,25.8-16.1,33.6-30
			c3-5.2,4.2-11.3,3.4-17.2c-2.7-19.7-8.1-38.9-16-57.1c-12.5-29.3-29.3-55.9-49.2-80.6c-1.3-1.6-3-2.8-0.9-5.3
			c6.8-8.6,11.5-18.6,13.7-29.2c2.1-9.6,3.2-19.4,4.8-29.3c-0.4,0-0.1,0,0.1,0c0.9,0.2,1.7,0.4,2.5,0.6c24.4,5.1,46-0.5,64.6-17.3
			c3-2.7,3.7-5.6,2.3-9.4c-7.4-20.8-19.5-39.6-35.4-55c-17.3-16.8-38.5-27-60.5-35.8C200,1.2,199,0.5,197.9,0z"/>
		<path class="st0" d="M122.9,384H-41.4V0H97.4c-1,0.5-2,1-3,1.5c-11.2,5.2-22.6,9.9-33.5,15.8C30.2,33.9,10.6,59.7,0.6,93.1
			c-0.9,3-0.8,5.8,1.6,7.9c16.2,13.8,34.2,22.4,56.1,19.9c3.2-0.4,6.3-1.1,10-1.8c0.7,22,5.1,42.7,18.9,59.8
			c-8.3,11.7-16.9,22.8-24.5,34.4c-19.8,30.2-34.5,62.5-41.7,98.2c-3.1,15.5,0.9,27.4,11.4,38.1c2.6,2.7,5.4,5.2,8.3,7.5
			c18,13.8,39.1,20,61.1,23.8C108.8,382.2,115.9,383,122.9,384z"/>
		<path d="M122.9,384c-7-1-14.1-1.8-21-3c-22-3.8-43-10-61.1-23.8c-3-2.3-5.7-4.8-8.3-7.5C21.9,339,17.9,327.1,21,311.6
			c7.1-35.8,21.9-68,41.7-98.2c7.7-11.7,16.2-22.8,24.5-34.4c-13.8-17.1-18.2-37.8-18.8-59.8c-3.6,0.6-6.8,1.4-10,1.8
			c-21.9,2.5-40-6.2-56.1-19.9c-2.5-2.1-2.6-4.8-1.6-7.9c10-33.3,29.6-59.2,60.4-75.8C71.7,11.4,83.2,6.7,94.4,1.5c1-0.5,2-1,3-1.5
			h100.5c1.1,0.5,2.1,1.2,3.2,1.6c22,8.8,43.2,19,60.5,35.8c15.9,15.4,28,34.2,35.4,55c1.4,3.8,0.7,6.7-2.3,9.4
			c-18.6,16.8-40.2,22.4-64.6,17.3c-0.9-0.2-1.7-0.4-2.5-0.6c-0.2,0-0.5,0-0.1,0c-1.6,9.9-2.7,19.7-4.8,29.3
			c-2.2,10.7-6.9,20.7-13.7,29.2c-2,2.6-0.3,3.8,0.9,5.3c20,24.7,36.8,51.3,49.2,80.6c7.9,18.2,13.3,37.5,16,57.1
			c0.9,6-0.3,12-3.4,17.2c-7.7,13.9-19.7,23-33.6,30c-17.4,8.7-36.1,12.8-55.3,15.2c-3.7,0.5-7.4,1-11.1,1.5h-7.5
			c-1.6-2.5-3.5-4.7-4.6-7.4c-3.7-9.1-7-18.4-10.5-27.6c-0.4-1.2-1-2.3-1.7-4c-4.3,11.2-8.1,21.8-12.3,32.2c-1,2.5-3.1,4.6-4.6,6.9
			L122.9,384z M96.3,189.6c-0.5,0.6-1.4,1.6-2.2,2.7c-12,14.9-22.7,30.7-32.1,47.4c-13.8,24.7-24.4,50.5-28.8,78.6
			c-1,6.7,0.1,12.1,4.2,17.4c7.5,10,17.4,16.7,28.6,21.8c17.1,7.8,35.3,11.3,53.9,13.2c3.2,0.3,4.5-0.3,5.6-3.4
			c5-13.9,10.3-27.6,15.4-41.4c1.2-3.2,2.8-5.7,6.5-5.8c3.9-0.1,5.7,2.5,6.8,5.9c0.6,1.6,1.2,3.3,1.8,4.9c5,13.3,10,26.6,15,40.1
			c4.4-0.5,8.6-0.9,12.8-1.5c18.6-2.6,36.8-6.9,53.3-16.4c9.6-5.5,18.1-12.2,23.2-22.2c1.4-2.9,2.1-6,1.8-9.2
			c-0.7-6.2-1.7-12.4-3.2-18.4c-6.9-29.8-20.3-56.8-36.9-82.2c-7.4-11.3-15.5-22-22.7-32.3l-25.8,8.6c1.5,3.1,3.3,6.6,4.9,10.2
			c1.8,3.9,0.8,7.3-2.5,9c-3.4,1.8-7,0.5-9-3.4s-4-7.5-5.7-11.4c-1.4-3.5-3.6-4.4-7.4-3.1v3.9c0,8.8,0,17.5,0,26.2
			c0,4.8-2.5,7.7-6.3,7.7s-6.4-3-6.5-7.6c-0.1-8.9,0-17.8,0-26.6c0-1.3-0.1-2.6-0.2-3.8c-3.6-1.4-5.7-0.7-7.1,2.7
			c-1.6,3.9-3.7,7.6-5.6,11.4c-2.2,4.3-5.5,5.7-9.1,4s-4.5-5.3-2.5-9.6c1.7-3.4,3.4-6.9,4.8-9.8L96.3,189.6z M93.9,15.1
			c-8.2,4-17,8.1-25.6,12.7C42,41.7,24.6,63.3,14.6,91.1c-0.7,1.8-1.2,3.3,0.9,4.8c17.4,12.5,35.7,17.6,56.1,7.8
			c5.3-2.6,9.8,0.7,9.8,6.6s-0.2,12,0.3,18c1.3,15,5.2,29.2,14.3,41.6c4.9,6.6,10.9,11.1,19,12.8c21.2,4.5,43.1,4.5,64.3,0
			c4.8-0.9,9.2-3.1,13-6.1c7.1-6.3,11.9-14.4,15.1-23.4c4.7-13.5,6.6-27.8,5.7-42c-0.4-7,3.8-10.2,10.2-7.4c9.4,4.2,19.8,5.6,30,4.3
			c11.2-1.4,21.7-6.2,30.1-13.7c-15.3-40.2-44.8-64.8-84.3-79.2c-1,2.3-1.9,4.6-3,6.8c-9.9,20.8-24.3,38.3-40.1,54.8
			c-1.8,1.7-2.7,4.1-2.6,6.6c0.1,10.2,0.1,20.5,0,30.7c0,4.1-1.9,6.7-5,7.4c-4.2,0.9-7.7-2-7.7-6.8c-0.1-10.5,0.1-21-0.1-31.5
			c-0.2-2-0.9-3.9-2.2-5.5c-9.5-11.7-19.6-23-28.6-35.1C103.7,34.2,99.3,24.7,93.9,15.1z M186.6,13h-78.3
			c9.4,21.1,23.7,38.1,39.2,54.8C162.8,51.1,177.2,34.1,186.6,13z"/>
		<path class="st0" d="M130.4,384c1.6-2.3,3.6-4.4,4.6-6.9c4.2-10.4,8-21,12.3-32.2c0.7,1.7,1.3,2.9,1.7,4
			c3.5,9.2,6.8,18.5,10.5,27.6c1.1,2.6,3,4.9,4.6,7.4H130.4z"/>
		<path class="st0" d="M96.3,189.6l25.1,7.9c-1.4,2.9-3.2,6.3-4.8,9.8c-2,4.3-1.1,7.9,2.5,9.6s6.9,0.3,9.1-4
			c1.9-3.8,4.1-7.5,5.6-11.4c1.4-3.5,3.5-4.2,7.1-2.7c0,1.1,0.1,2.5,0.2,3.8c0,8.9,0,17.8,0,26.6c0,4.6,2.6,7.6,6.5,7.6
			s6.3-2.9,6.3-7.7c0-8.7,0-17.5,0-26.2V199c3.8-1.4,6-0.4,7.4,3.1c1.6,3.9,3.7,7.6,5.7,11.4s5.6,5.1,9,3.4c3.3-1.7,4.3-5.1,2.5-9
			c-1.6-3.6-3.4-7.2-4.9-10.2l25.8-8.6c7.2,10.2,15.4,21,22.7,32.3c16.6,25.4,29.9,52.4,36.9,82.2c1.5,6.1,2.5,12.2,3.2,18.4
			c0.2,3.2-0.4,6.4-1.8,9.2c-5.1,10-13.6,16.8-23.2,22.2c-16.6,9.4-34.7,13.7-53.4,16.4c-4.2,0.6-8.4,1-12.8,1.5
			c-5.1-13.5-10.1-26.8-15-40.1c-0.6-1.6-1.2-3.3-1.8-4.9c-1.1-3.3-2.9-5.9-6.8-5.9c-3.7,0.1-5.3,2.6-6.5,5.8
			c-5.1,13.8-10.4,27.5-15.4,41.4c-1.1,3-2.4,3.7-5.6,3.4c-18.6-2-36.8-5.4-53.9-13.2c-11.2-5.1-21.1-11.8-28.6-21.8
			c-4-5.3-5.2-10.8-4.2-17.4c4.4-28.2,15-54,28.8-78.6c9.3-16.7,20.1-32.5,32.1-47.4C94.9,191.2,95.8,190.2,96.3,189.6z"/>
		<path class="st0" d="M93.9,15.1c5.5,9.6,9.9,19,16,27.3c8.9,12.1,19.1,23.4,28.6,35.1c1.3,1.6,2.1,3.5,2.2,5.5
			c0.2,10.5,0.1,21,0.1,31.5c0,4.8,3.5,7.8,7.7,6.8c3.1-0.7,5-3.3,5-7.4c0-10.2,0.1-20.5,0-30.7c-0.1-2.5,0.8-4.9,2.6-6.6
			c15.8-16.5,30.2-34,40.1-54.8c1.1-2.2,2-4.5,3-6.8c39.5,14.4,69,39,84.3,79.1c-8.4,7.6-18.9,12.4-30.1,13.8
			c-10.2,1.4-20.6-0.1-30-4.3c-6.4-2.7-10.6,0.4-10.2,7.4c0.9,14.2-1,28.5-5.7,42c-3.2,9-8.1,17.1-15.1,23.4
			c-3.8,3.1-8.2,5.2-13,6.1c-21.2,4.5-43.1,4.5-64.3,0c-8.1-1.7-14.2-6.2-19-12.8c-9.1-12.4-12.9-26.6-14.3-41.6
			c-0.5-6-0.3-12-0.3-18s-4.4-9.1-9.8-6.6c-20.5,9.9-38.8,4.8-56.1-7.8c-2.1-1.5-1.6-3-0.9-4.8c10-27.8,27.4-49.4,53.7-63.3
			C76.9,23.2,85.7,19.1,93.9,15.1z"/>
		<path class="st0" d="M186.6,13c-9.4,21.1-23.7,38.1-39.1,54.8C132,51.1,117.6,34.1,108.3,13H186.6z"/>
	</g>
</g>
</svg>
