<svg xmlns="http://www.w3.org/2000/svg" viewBox="0 0 247.54 384"><g id="katman_2" data-name="katman 2"><g id="katman_1-2" data-name="katman 1"><path d="M168.07,0c5,1,10,2,15,2.92,5.9,1.11,8.1,3.64,8.11,9.74,0,15.11,0,30.23.08,45.34a9.45,9.45,0,0,0,1.53,5.14c14.35,20.29,17.35,42.09,8.62,65.35-5.25,14-10.9,27.87-16.37,41.8-.44,1.15-.85,2.3-1.26,3.4,9.5,6.75,11.7,20.61,5.54,31.84,7.38,11.12,15.07,21.75,21.76,33,16.55,27.78,26.51,58,31.26,89.91,1.52,10.24,3.2,20.46,4.9,30.68,1.11,6.69-.52,9.72-6.87,12.17-22.11,8.52-44.9,10.35-68.13,6.44-4.93-.84-9.61-3.23-15.11-5.15.7-.31.36-.27.28-.11-4.54,9.08-13.53,9.13-21.75,10.76-1.19.23-2.38.52-3.57.79h-16.5c-4.13-.82-8.24-1.78-12.4-2.44-6-.94-10.37-4-12.85-9.37-18,9.1-36.82,8.59-55.56,6-9.67-1.33-19.11-4.6-28.52-7.44-5-1.52-6.92-5.11-6-10.22,3.36-19.43,6.16-39,10.57-58.18,3-12.93,8.21-25.35,12.63-37.93,1.51-4.27,4.49-5.66,7.75-4.3s4.22,4.45,2.51,8.86c-3.17,8.12-6.27,16.26-9.57,24.83,1.84.53,3.08.95,4.35,1.25a411.29,411.29,0,0,0,131,9.76,11,11,0,0,1,7,2.2c1,.81,1.31,4,.57,5.39a7,7,0,0,1-4.88,3.24c-13.72.81-27.45,1.68-41.18,1.74a403.18,403.18,0,0,1-97.19-11.88c-.59-.15-1.21-.2-2.32-.37-.81,3.52-1.6,6.95-2.48,10.79,70,17.07,139.65,17.13,209.76,0-.84-3.74-1.61-7.19-2.41-10.73-9.38,1.91-18.41,3.77-27.45,5.57q-5.33,1.05-10.7,1.85c-4.36.64-7.12-1.06-7.66-4.56s1.75-5.78,6-6.6c11.51-2.22,23-4.52,34.52-6.81a10.75,10.75,0,0,0,1.65-.6c-1.51-13.31-21.89-55-33.7-68.55v14.62c0,9.83-5.12,13-13.63,8.26-2-1.09-3.47-1-5.1.23-5.94,4.62-14,1.27-13.47-8.07s.11-19,.11-28.69h-8.8v4.06c0,12,0,24,0,36,0,8.44-5.58,11.69-12.92,7.42-2.28-1.32-3.91-1.19-6.11.06-7.33,4.19-12.81.9-12.83-7.57,0-13.87,0-27.73,0-42-1.34-.11-2.52-.29-3.7-.29-13,0-26-.1-39,.1a7,7,0,0,0-4.88,2.44c-7.77,10.85-15.29,21.88-22.88,32.86-.36.52-.63,1.09-1,1.6-2,2.81-5.18,3.62-7.82,2a5.42,5.42,0,0,1-1.65-7.87c5.61-8.85,11.4-17.6,17.23-26.31,1.94-2.89,4.21-5.56,6.32-8.32-4.84-7.43-3.29-15.49-2.5-23.35.42-4.15,3.67-6.63,7.69-8.58-.42-1.16-.79-2.29-1.23-3.4q-7.94-20.2-15.9-40.4c-9.44-24-6.86-46.42,8.2-67.42A8.88,8.88,0,0,0,56.42,58c.09-14.87,0-29.74.06-44.61,0-7.12,1.93-9.33,8.86-10.58C70.1,2,74.83,1,79.57,0h5.25c4.34,2.35,5.89,6,5.48,10.86a42.61,42.61,0,0,0,0,8.6,8.55,8.55,0,0,0,2.1,4.79A43.54,43.54,0,0,0,112.5,35.36c4.16,1.07,6.11,3.93,5.21,7.25s-4.15,5-8.2,3.53c-5.48-2-10.75-4.54-16.1-6.89-1-.41-1.85-1-3.15-1.66,0,14.13,0,27.73,0,41.33,0,2.35,1.42,2.53,3.09,2.82,10.22,1.76,20.45,3.5,29.22,9.69a2.83,2.83,0,0,0,2.58,0c8.43-6,18.25-7.87,28.12-9.43,3.2-.5,4.31-1.59,4.25-5-.23-12-.08-24-.1-36,0-1-.14-2.11-.18-2.71C151,41,145,43.66,138.84,45.91c-4,1.46-7.12-.27-8-3.7-.82-3.15,1.16-5.52,5-7.08A144.6,144.6,0,0,0,150,28.51c5.46-2.92,8.78-7.2,7.41-13.92-.24-1.2.08-2.5,0-3.73C156.84,6,158.49,2.35,162.82,0Zm0,173.19c2.73,1.15,3.79,0,4.67-2.23,6.1-15.7,12.56-31.26,18.42-47.05,7.31-19.65,4.5-38.07-8.12-54.83a14.39,14.39,0,0,1-3.11-9.3q.18-21.36,0-42.74c0-1.18-.79-3.14-1.62-3.39a82.41,82.41,0,0,0-9.61-1.77V23.74q0,30,0,60c0,5.23-1.28,6.84-6.07,7.83-2.57.52-5.15,1-7.72,1.48-8.71,1.65-17.47,3-24.8,8.73-4.69,3.65-7.37,3-12.64.06a94.62,94.62,0,0,0-16.68-7.16c-4.71-1.54-9.77-2-14.66-3-6-1.19-7-2.43-7-8.5q0-33.37,0-66.74V11.9l-11.3,1.94V18c0,14-.07,28,0,42a13.84,13.84,0,0,1-3,9C51.86,86,49.18,104.74,56.87,124.77c5.85,15.26,12,30.4,17.84,45.67,1.24,3.26,3,3.84,6.24,2.69,0-1.18,0-2.4,0-3.62.6-21.64-1.83-42.88-8.35-63.59-1.3-4.13.15-7.18,3.52-8.17,3.12-.91,6,1,7.16,4.85,4.5,14.86,7.88,30,8.4,45.54.27,8.35,0,16.71,0,25.53h4.81c10,0,20,.27,30-.07s19.73-1.31,30-2c0-2.15,0-3.86,0-5.57-.21-14,.37-28,3.34-41.75,1.63-7.55,3.7-15,5.79-22.46a5.42,5.42,0,0,1,6.59-4.09c3.06.76,4.71,3.47,4.08,7a40.52,40.52,0,0,1-1.28,4.68C168.72,130.13,167,151.43,168,173.19ZM11.6,360.65c.82.38,1.35.68,1.92.89a113.56,113.56,0,0,0,48.25,6.52c8.31-.63,16.74-1,23.67-6.87,4.84-4.07,8.53-3.34,12.2,1.93a19.89,19.89,0,0,0,2.59,3.66c1.57,1.41,3.35,3.28,5.23,3.54,7.63,1.07,15.37,2.38,23,2.11,8.46-.31,17.56-.17,22.29-10.11,2.18-4.59,6.8-4.89,10.82-1.64a27.53,27.53,0,0,0,15.3,6.41c5.84.49,11.69,1.12,17.55,1.23a110.18,110.18,0,0,0,41.63-7.5c-.92-5.7-1.79-11.22-2.68-16.74s-1.81-11.2-2.75-17c-71.45,17.3-142.42,17.17-213.66,0C15.14,338.5,13.38,349.54,11.6,360.65ZM133.76,186.32c-.22-.47-.44-.93-.65-1.4H77c-10.33,0-10.27,0-10,10.27,0,2.2.61,3.11,3,3.09,15.25-.07,30.49,0,45.74-.12a5.12,5.12,0,0,0,3.53-1.9,20.33,20.33,0,0,1,11.73-8.16A11.54,11.54,0,0,0,133.76,186.32Zm-.57,13c-4.16,1.42-5.7,3.43-5.72,8,0,10.35,0,20.69,0,31v8.07h9.4c0-10.86-.14-21.81.06-32.75C137,208.58,136.64,203.77,133.19,199.34Zm44.49,36.51c0-8.19.1-16.66-.05-25.13a7.32,7.32,0,0,0-4.58-6.76c-2.88-1.33-4.79-.44-4.85,2.75-.16,9.84-.06,19.69-.06,29.14Zm-33.07-44.34h.07c0,1.5-.5,3.26.12,4.43.87,1.67,2.49,4.06,3.92,4.16,8.86.61,12.5,1.44,11.83-9.54-.05-.75,0-1.5,0-2.25-.08-2.8-1.21-5.24-4.16-5.28-3.88,0-8.43-2-11.28,2.56a5.72,5.72,0,0,0-.46,2.55C144.55,189.26,144.61,190.39,144.61,191.51Zm27.31-6.58v6.78l8.73,3.11v-9.57c-1-.12-1.82-.29-2.65-.31C176.05,184.9,174.1,184.93,171.92,184.93Z"/><path d="M134.22,148.66l9.17,5.74c4.38,2.75,5.59,5.63,3.67,8.77s-5.23,3.49-9.78.69c-3.6-2.23-7.28-4.36-10.78-6.74-1.92-1.3-3.39-1.39-5.34,0-4,2.83-8.08,5.42-12.18,8-3.47,2.2-6.68,1.75-8.55-1.07s-1-6,2.38-8.28,6.61-4.39,10.32-6.85c-3.1-2-5.83-3.63-8.5-5.39-5.34-3.52-5.3-9.17.08-12.67,2.72-1.77,5.5-3.43,8.85-5.51-3.57-2.21-6.8-4.19-10-6.2-3.91-2.46-5.07-5.62-3.19-8.64s5.07-3.38,9.16-.88,8.34,5,12.38,7.73a3.64,3.64,0,0,0,4.69,0c3.94-2.63,8-5.09,12.07-7.51,3.47-2.07,6.71-1.41,8.45,1.57,1.65,2.83.76,5.76-2.54,7.94-3,2-6.07,3.83-9.55,6l6.57,4.13c6.9,4.36,6.94,9.61.09,14.2C139.32,145.32,136.94,146.87,134.22,148.66Zm-18.29-11.49c8,5.64,8,5.64,15.56-.56l-7.26-4.6Z"/></g></g></svg>