<?xml version="1.0" encoding="utf-8"?>
<!-- Generator: Adobe Illustrator 26.0.0, SVG Export Plug-In . SVG Version: 6.00 Build 0)  -->
<svg version="1.1" id="katman_1" xmlns="http://www.w3.org/2000/svg" xmlns:xlink="http://www.w3.org/1999/xlink" x="0px" y="0px"
	 viewBox="0 0 376.2 551.4" style="enable-background:new 0 0 376.2 551.4;" xml:space="preserve">
<g>
	<path d="M376.2,312.7c0-0.7-0.1-1.3-0.1-2c0-0.2,0-0.4,0-0.6C347.4,90.8,327.1,26.4,323.8,17c-0.1-1.2-0.8-2.2-1.7-3
		C303.6,0.2,276.9,0,275.7,0c-2.1,0-3.9,1.5-4.3,3.6c-0.7,3.8-1.3,7.7-1.9,11.7c-6.3,40.1-13.5,85.4-81.3,85.4s-75-45.3-81.3-85.3
		c-0.6-4-1.2-7.9-1.9-11.7c-0.4-2.1-2.2-3.6-4.3-3.6c-1.1,0-27.7,0.2-46.1,13.8c-0.1,0-0.1,0.1-0.2,0.1l0,0c-0.1,0-0.1,0.1-0.2,0.2
		c-0.6,0.5-1.1,1.1-1.3,1.8C52,18.3,30.8,76.1,0.2,310.1c0,0.2,0,0.4,0,0.6c0,0.6,0,1.3-0.1,2c-0.2,4.5-0.5,12.8,7.5,15.3
		c0.2,0.1,0.4,0.1,0.6,0.1l26.2,4.4c0.2,0,0.5,0.1,0.7,0.1c9.2,0,11.2-5,13-12l37.5-143.9c1.7,5.1,3.4,10,5,14.5
		c10.6,30,17,48.1-2.5,82.4c0,0.1,0,0.1-0.1,0.2c0,0.1-0.1,0.1-0.1,0.1c-1.8,3.8-3.5,7.5-5.2,10.9c-22.9,48.1-32.4,68-4,240.9
		c0.6,4.3,8.4,25.7,109.3,25.7s108.8-21.4,109.3-25.6c28.4-176,18.9-195.2-4.1-241.7c-1.6-3.2-3.3-6.6-5-10.2c0,0,0,0-0.1-0.1
		c0-0.1,0-0.1-0.1-0.2c-19.5-34.3-13.1-52.4-2.5-82.4c1.6-4.5,3.3-9.3,4.9-14.3l37.8,143.7c1.8,7,3.8,12,13,12c0.2,0,0.5,0,0.7-0.1
		l26.2-4.4c0.2,0,0.4-0.1,0.6-0.1C376.8,325.5,376.4,317.1,376.2,312.7L376.2,312.7z M97,9c0.4,2.5,0.8,5.1,1.2,7.8
		c6.2,39.1,14.6,92.7,89.9,92.7s83.8-53.6,89.9-92.7c0.4-2.6,0.8-5.2,1.2-7.8c7.1,0.5,23.1,2.5,35.4,10.6
		c-2,13.2-11.3,73-23.5,123.5l-58.1-16c-0.4-0.1-0.8-0.2-1.2-0.2c-7.3,0-16.2,3-17.5,17.1c-3.3,38.2-12.4,79-26.3,118.6
		c-13.8-39.6-22.9-80.4-26.3-118.6c-1.2-14.2-10.2-17.1-17.5-17.1c-0.4,0-0.8,0.1-1.2,0.2l-58.1,16C72.6,92.6,63.4,32.8,61.4,19.6
		C73.9,11.5,89.9,9.5,97,9L97,9z M39.6,318.3c-1.3,5.2-1.4,5.5-4.2,5.5l-25.5-4.3c-1.1-0.5-1.4-2.1-1.2-6.6c0-0.7,0.1-1.4,0.1-2
		C30.3,146.7,47.4,69.1,55.6,37.5c4.3,26.7,12.9,75.9,23.3,116.7c0.6,2.2,1.2,4.3,1.8,6.4L39.6,318.3z M98.9,188.3
		c-3.7-10.4-7.8-22.1-11.4-36.2c0-0.2-0.1-0.3-0.1-0.5l57.7-15.9c4.6,0.1,7.6,1.8,8.2,9.1c3.6,40.8,13.5,84.4,28.8,126.5H99.4
		C116.3,237.5,108.9,216.6,98.9,188.3L98.9,188.3z M188.2,542.6c-93,0-100.6-18.2-100.7-18.2c-0.3-1.5-0.5-3-0.7-4.5
		c18.8,9.2,52.8,14,101.4,14s82.6-4.7,101.4-13.9c-0.2,1.6-0.5,3-0.7,4.6C288.8,524.7,280.8,542.6,188.2,542.6L188.2,542.6z
		 M291.4,508.8c-9.2,6.5-34.5,16.3-103.1,16.3c-68.8,0-94.1-9.8-103.2-16.3c-24.9-155.9-15.6-175.3,5.7-220.2c1.3-2.7,2.6-5.5,4-8.5
		h187c1.3,2.7,2.6,5.3,3.9,7.8C307,331.2,316.3,349.9,291.4,508.8L291.4,508.8z M277.5,188.3c-10,28.3-17.4,49.2-0.4,83.1h-82.7
		c15.2-42.1,25.2-85.7,28.8-126.5c0.6-7.3,3.6-9,8.2-9.1l57.7,15.9c0,0.2-0.1,0.3-0.1,0.5C285.4,166.1,281.2,177.9,277.5,188.3
		L277.5,188.3z M366.3,319.6l-25.5,4.3c-2.8,0-2.8-0.2-4.2-5.5L295.5,161c0.6-2.2,1.2-4.3,1.8-6.6c10.4-40.6,18.9-89.7,23.3-116.4
		c8.2,31.7,25.2,109.1,46.7,273.1c0,0.6,0,1.3,0.1,2C367.7,317.5,367.4,319.1,366.3,319.6L366.3,319.6z"/>
</g>
</svg>
