<?xml version="1.0" encoding="utf-8"?>
<!-- Generator: Adobe Illustrator 26.0.0, SVG Export Plug-In . SVG Version: 6.00 Build 0)  -->
<svg version="1.1" id="katman_1" xmlns="http://www.w3.org/2000/svg" xmlns:xlink="http://www.w3.org/1999/xlink" x="0px" y="0px"
	 viewBox="0 0 235.3 551.2" style="enable-background:new 0 0 235.3 551.2;" xml:space="preserve">
<g>
	<path d="M203.4,229.5c-2.3-3.9-4.4-7.7-6.3-11.4c1.8-7.6,8.8-32.7,17-54.7c13.9-37.5-5.5-53-24-62.3C125,68.4,81.3,37.9,60.4,10.5
		C52.3-0.2,45.2-0.1,40.4,0h-1c-0.5,0-0.9,0.1-1.4,0.2L12,8.9C3.3,11.3,0,20.8,0,26.2c0,26.1,8.2,83.2,26.5,128.3
		c1.6,4.6,3.5,10.3,5.6,16.3c6,17.2,14,40.2,15.8,47.3c-2,4-4.2,7.9-6.5,12.1c-21.3,38.6-50.5,91.4-15.1,295.6
		c0.8,4.2,9.5,25.4,96.2,25.4c22.3,0,35.4-2.2,48-4.3l0.9-0.1c1.8-0.3,3.2-1.6,3.6-3.4l11.9-53.6l5.5,48.8c0.2,1.3,0.9,2.4,2,3.2
		c1.1,0.7,2.4,0.9,3.7,0.5c11-3.4,17.5-7.5,19.8-12.5c0.9-2,1-3.7,0.8-4.8C254.3,318.4,224.9,267,203.4,229.5L203.4,229.5z
		 M34.6,151.5C15,103,8.7,46.2,8.7,26.3c0-3,2-7.9,5.8-9l25.6-8.5h0.4c3.8-0.1,7.4-0.1,12.9,7c8.1,10.6,32.8,42.9,132.8,93.1
		c19.7,9.9,30.5,22.4,19.7,51.4c-7.7,20.7-14.4,44.2-16.9,54H55.8c-2.3-8-8.2-25.2-15.5-46.4C38.2,161.9,36.2,156.3,34.6,151.5
		L34.6,151.5z M210,524.2c-0.1,0.6-0.1,1.2,0,1.7c-0.2,0.5-1.6,3.1-9.5,6.2l-8.1-69c-0.2-2.1-2-3.7-4.1-3.9c-2.1-0.2-4,1.3-4.5,3.4
		l-16.9,76c-11.7,1.9-24.1,3.8-44.5,3.8c-79.8,0-87.5-18.3-87.6-18.3l0,0c-34.9-201-6.6-252.3,14.1-289.8c2.2-3.9,4.2-7.6,6.1-11.4
		h134.6c1.9,3.5,3.9,7.1,6,10.7C216.6,270.3,245.3,320.2,210,524.2L210,524.2z"/>
</g>
</svg>
