<?xml version="1.0" encoding="utf-8"?>
<!-- Generator: Adobe Illustrator 26.0.0, SVG Export Plug-In . SVG Version: 6.00 Build 0)  -->
<svg version="1.1" id="katman_1" xmlns="http://www.w3.org/2000/svg" xmlns:xlink="http://www.w3.org/1999/xlink" x="0px" y="0px"
	 viewBox="0 0 358.7 551.1" style="enable-background:new 0 0 358.7 551.1;" xml:space="preserve">
<g>
	<path d="M358.2,89.8c-26.3-48.3-56.6-74.5-57.9-75.6c-0.1,0-0.1-0.1-0.2-0.1c-0.3-0.2-0.7-0.4-1-0.6c-0.1-0.1-0.3-0.1-0.4-0.2h-0.1
		l-48-13.2C250.3,0,250,0,249.8,0c-0.1,0-0.1,0-0.2,0c-0.5,0-1,0.1-1.4,0.2c-0.1,0-0.2,0-0.2,0c-67.7,25.3-116.3,7.4-132.3,1.6
		c-3.5-1.3-4.9-1.8-6.3-1.8l0,0c-0.4,0-0.8,0-1.1,0.1L60.2,13.2h-0.1c-0.1,0-0.2,0.1-0.4,0.2c-0.4,0.2-0.7,0.3-1,0.6
		c-0.1,0-0.1,0.1-0.2,0.1C57.2,15.2,27,41.4,0.6,89.7c-1.2,2.1-0.4,4.8,1.7,5.9l74.8,41.5c1.9,5.8,4,11.6,6.3,17.3
		c1.6,4.6,3.5,10.2,5.6,16.3c3.7,10.7,7.8,22.5,11,32.1c-2.2,1.6-3.7,4.2-3.7,7.1v17.5c0,2.3,0.9,4.5,2.4,6
		c-21.1,33-76.8,133.6-76.8,278.3c0,1.6,0.9,3.1,2.3,3.8c0.7,0.4,16.2,8.8,54.6,15.2c0,1,0,1.9,0,2.9c0,1.5,0.8,2.9,2.1,3.7
		c0.9,0.6,23.3,13.8,98.5,13.8s97.6-13.2,98.5-13.8c1.3-0.8,2.1-2.2,2.1-3.7c0-1,0-1.9,0-2.9c38.4-6.4,54-14.8,54.6-15.2
		c1.4-0.8,2.3-2.2,2.3-3.8c0-144.7-55.7-245.4-76.8-278.3c1.5-1.6,2.4-3.7,2.4-6v-17.5c0-3.1-1.6-5.8-4-7.3
		c5.2-16.2,12.6-37.2,16.7-47.7c0-0.1,0.1-0.1,0.1-0.2c2.3-5.8,4.4-11.6,6.4-17.5l74.8-41.6C358.6,94.5,359.4,91.9,358.2,89.8
		L358.2,89.8z M268.9,147.2c-34.4-16.1-61.2-31.9-82.1-46.7c55.4-42.3,65.1-76.9,66.7-90.4L293,20.9
		C292.4,35.5,288.7,95.6,268.9,147.2L268.9,147.2z M178.2,22.2c19.1,0,41.4-3,66.3-11.5c-2,12.7-12.6,44.9-65.1,84.3
		c-52.7-39.6-63.2-71.8-65.2-84.5C125.1,14.5,147.4,22.2,178.2,22.2z M10.3,90.2c17.7-31.4,37-52.9,47-62.9
		c1.1,17.9,4.6,57.9,16,97.9L10.3,90.2z M253.8,210v17.5h-52.5V210H253.8z M192.5,231.8L192.5,231.8h-26.3v-26.2h26.2L192.5,231.8z
		 M157.5,227.5H105V210h0.5l0,0l0,0h52V227.5z M30.7,509.1c0.7-144,57.2-243,76.7-272.9h17.8C96.4,322,80.1,422.7,78.9,522
		C51,517.2,36,511.5,30.7,509.1L30.7,509.1z M179.4,542.5c-59.8,0-85-8.5-91.9-11.5c0.3-102.3,16.9-206.7,46.9-294.8h24.3
		c1.5,2.6,4.3,4.4,7.5,4.4h26.2c3.2,0,6-1.8,7.5-4.4h24.5c30,88.1,46.6,192.5,46.9,294.8C264.3,534,239.1,542.5,179.4,542.5
		L179.4,542.5z M279.9,522c-1.2-99.2-17.5-200-46.3-285.8h17.8c19.5,29.9,76,128.8,76.7,272.9C322.8,511.5,307.8,517.3,279.9,522
		L279.9,522z M249.8,201.2H200c-1.5-2.6-4.3-4.4-7.5-4.4h-26.2c-3.2,0-6,1.8-7.5,4.4h-50.1c-3.2-9.8-7.6-22.2-11.4-33.3
		c-2.1-6-4-11.6-5.7-16.4C70.4,99,66.4,36,65.8,20.8L105.3,10c2.1,19.1,20.4,79.9,160.5,145.3C261,167.9,254.2,187.4,249.8,201.2
		L249.8,201.2z M285.4,125.2c11.4-40.1,15-80.1,16-97.9c9.9,10,29.3,31.5,47,62.9L285.4,125.2z"/>
</g>
</svg>
