<?xml version="1.0" encoding="utf-8"?>
<!-- Generator: Adobe Illustrator 26.0.0, SVG Export Plug-In . SVG Version: 6.00 Build 0)  -->
<svg version="1.1" id="katman_1" xmlns="http://www.w3.org/2000/svg" xmlns:xlink="http://www.w3.org/1999/xlink" x="0px" y="0px"
	 viewBox="0 0 350.1 551.4" style="enable-background:new 0 0 350.1 551.4;" xml:space="preserve">
<g>
	<path d="M349.9,492.9c-34.8-104.4-73.1-213.2-95.4-236.2l29.8-93.5c6.2-18.3,7.7-34.2-5.1-52.3l-59-71.6c3.9-7.3,6.2-14.9,7.4-21
		c0.3-1.4-0.2-2.9-1.2-3.9L213.2,1.2c-0.2-0.2-0.5-0.4-0.7-0.6c-0.1,0-0.1-0.1-0.2-0.1c-0.4-0.3-0.9-0.4-1.4-0.5c-0.1,0-0.2,0-0.4,0
		c-0.5-0.1-0.9,0-1.4,0.1H209c-22.9,5.7-45.7,5.7-67.9,0c0,0,0,0-0.1,0C140.5,0,140,0,139.5,0c-0.1,0-0.3,0-0.4,0.1
		c-0.5,0.1-0.9,0.2-1.4,0.5c-0.1,0-0.1,0.1-0.1,0.1c-0.3,0.2-0.5,0.3-0.7,0.6l-13.1,13.1c-1.1,1.1-1.5,2.6-1.2,4.1
		c1.8,7.8,4.4,14.7,7.6,20.6l-59.4,72.2c-10.9,15.5-12.3,30.6-5,52l29.8,93.6C73.3,279.9,35,388.7,0.2,493.1
		c-0.7,2.2,0.4,4.6,2.6,5.5c0.5,0.2,10.6,4,30.7,8.5c-0.9,2.6-1.7,5.3-2.6,7.9c-0.4,1.1-0.3,2.4,0.3,3.5s1.6,1.8,2.7,2.2
		c0.7,0.2,16.9,4.5,42.6,8.9c-0.6,2.6-1.3,5.2-1.9,7.7c-0.3,1.2-0.1,2.4,0.6,3.4c0.7,1,1.7,1.7,2.9,1.9c0.5,0.1,49.1,8.8,97,8.8
		s96.5-8.7,97-8.8c1.2-0.2,2.2-0.9,2.9-1.9c0.7-1,0.9-2.3,0.6-3.4c-0.6-2.6-1.3-5.1-1.9-7.7c25.6-4.4,41.8-8.7,42.6-8.9
		c1.2-0.3,2.1-1.1,2.7-2.2c0.6-1.1,0.7-2.3,0.3-3.5c-0.9-2.6-1.8-5.3-2.6-7.9c20-4.5,30.2-8.3,30.7-8.5
		C349.5,497.5,350.6,495.1,349.9,492.9L349.9,492.9z M203.8,10.1c-1.1,3.2-2.4,6.3-3.8,9.3c-16.8,3.1-33.5,3.1-49.7,0.1
		c-1.3-2.8-2.6-5.9-3.8-9.3c9.3,1.9,18.8,2.8,28.3,2.8C184.4,13,194.1,12,203.8,10.1L203.8,10.1z M193.7,29.2
		c-5,6-11.2,10.1-18.6,10.1c-7.2,0-13.5-3.4-18.8-10c6.1,0.8,12.2,1.2,18.3,1.2C181,30.5,187.3,30,193.7,29.2L193.7,29.2z
		 M138.1,12.5c8,23.6,20.5,35.5,37,35.5c21.8,0,32.6-22,37.1-35.5l6.2,6.2c-1.4,6.2-3.7,12.8-7.3,18.6c-0.1,0.2-0.2,0.3-0.3,0.5
		c-6.5,10.7-17.5,18.9-35.7,18.9c-22.1,0-36.7-12.8-43.3-38L138.1,12.5z M77.9,116.4l57.4-69.7c9.4,12.4,22.9,18.8,39.8,18.8
		c19.7,0,32.1-8.2,40.1-18.5l57,69.2c9.2,13,10.3,25,3.8,44.3l-29.6,93.2H103.9l-29.7-93.3C67.7,141.4,68.8,129.4,77.9,116.4
		L77.9,116.4z M10,491.5c20.3-61,69.6-207.8,92.4-229.1h19c-17.9,23.9-35.8,80.8-59.6,156.2c-7.7,24.4-16.3,51.6-25.6,79.9
		C23.5,495.7,14.7,493,10,491.5L10,491.5z M40.7,513c10.8-32.6,20.7-64,29.5-91.9C95.1,342,114.9,279.2,133,262.3h16.4
		c-14.5,26.9-34,107.3-56.2,198.8c-4.8,19.8-9.7,39.8-14.5,59.5C60.8,517.7,47.3,514.6,40.7,513L40.7,513z M175.1,542.4
		c-38.6,0-77.7-5.8-90.9-7.9c0.7-2.7,1.3-5.4,2-8.1l0,0l0,0c5.2-20.9,10.4-42.2,15.5-63.2c22-90.4,44.6-183.7,57.9-200.9h31
		c13.2,17.1,35.9,110.5,57.9,200.9c5.1,21,10.3,42.2,15.5,63.2l0,0l0,0c0.7,2.7,1.3,5.4,2,8.1C252.8,536.6,213.8,542.4,175.1,542.4
		L175.1,542.4z M271.6,520.7c-4.9-19.8-9.8-39.8-14.5-59.5c-22.2-91.5-41.8-171.9-56.2-198.8h16.4c18.1,16.9,37.9,79.7,62.8,158.8
		c8.8,27.8,18.7,59.2,29.5,91.9C302.9,514.6,289.4,517.7,271.6,520.7L271.6,520.7z M313.9,498.5c-9.3-28.3-17.9-55.5-25.6-79.9
		c-23.7-75.4-41.7-132.2-59.6-156.2h19c22.8,21.4,72.1,168.1,92.4,229.1C335.5,493,326.7,495.6,313.9,498.5L313.9,498.5z"/>
	<path d="M135.9,224.1c0.5,1.9,2.3,3.2,4.2,3.2c0.4,0,0.8-0.1,1.2-0.2c2.3-0.6,3.7-3,3.1-5.4l-26.3-96.1c-0.6-2.3-3.1-3.7-5.4-3.1
		s-3.7,3-3.1,5.4L135.9,224.1z"/>
	<path d="M209,227.2c0.4,0.1,0.8,0.2,1.2,0.2c1.9,0,3.7-1.3,4.2-3.2l26.2-96.2c0.6-2.3-0.7-4.7-3.1-5.4c-2.3-0.6-4.7,0.7-5.4,3.1
		l-26.2,96.2C205.2,224.2,206.6,226.6,209,227.2L209,227.2z"/>
</g>
</svg>
