<?xml version="1.0" encoding="utf-8"?>
<!-- Generator: Adobe Illustrator 26.0.0, SVG Export Plug-In . SVG Version: 6.00 Build 0)  -->
<svg version="1.1" id="katman_1" xmlns="http://www.w3.org/2000/svg" xmlns:xlink="http://www.w3.org/1999/xlink" x="0px" y="0px"
	 viewBox="0 0 397 503.5" style="enable-background:new 0 0 397 503.5;" xml:space="preserve">
<path d="M397,427c0-1.5-0.5-3-1.5-4.2c-0.1-0.1,0-0.2-0.1-0.3c-82.8-91.8-115.7-197.4-120.5-214l24.3-80.1c0.2-0.8,0.3-1.6,0.3-2.4
	c-0.2-2.4-0.8-4.9-1.8-7.3C283,85,283.8,49.2,285.6,30.9c1.1-11.3-5.7-21.6-16.6-25.3C257.7,1.9,246.1,0,234.6,0c-1,0-2,0.2-3,0.6
	c-0.1,0.1-0.2,0.1-0.3,0.2c-32.2,17.7-65.2,0.2-65.5,0c-0.1,0-0.2,0-0.2-0.1c-0.9-0.4-1.8-0.8-2.9-0.8c-0.2,0-0.4,0.1-0.6,0.1
	c0,0-0.1,0-0.1,0c-11.3,0.1-22.7,1.9-33.8,5.6c-10.9,3.6-17.7,14-16.6,25.2c1.8,18.4,2.6,54.2-11.9,87.8c-1,2.4-1.6,4.8-1.8,7.2
	c-0.1,0.8,0,1.7,0.3,2.4l24.3,79.5c-4.2,14.8-37,121.9-120.7,214.7c-0.1,0.1-0.1,0.3-0.1,0.4c-1,1.2-1.5,2.6-1.5,4.1
	c0,0.2,0,0.3,0.1,0.5c0.1,1.3,0.5,2.6,1.4,3.6c2.5,2.9,63,71.9,196.3,72.3c0.1,0,0.1,0,0.2,0c0.2,0,0.3,0,0.5,0c0.2,0,0.3,0,0.5,0
	c0.1,0,0.1,0,0.2,0c133.3-0.4,193.8-69.3,196.3-72.3c0.9-1.1,1.3-2.3,1.4-3.6C396.9,427.3,397,427.2,397,427L397,427z M198.5,490.3
	C89.1,490.1,30.2,441,15.4,426.6c77.2-87.8,110.8-186.4,118.4-211.3c10.5,1.8,34,5.2,64.7,5.2c19.2,0,41.4-1.5,64.8-5.3
	c7.5,24.7,41.1,123.5,118.4,211.4C366.9,441,308.3,490.1,198.5,490.3L198.5,490.3z M223.8,18.3c-8.7,26.8-19.1,58-25.3,74.4
	c-6.2-16.5-16.7-47.9-25.4-74.8C185.2,21.5,203.8,24.7,223.8,18.3L223.8,18.3z M111.6,123.8c15.7-36.3,14.8-74.7,12.9-94.3
	c-0.5-5.1,2.7-9.8,7.7-11.5c8.5-2.8,17.1-4.2,25.7-4.6c32,100.8,34.8,101,40.6,101s8.5,0,40.7-101.3c8.6,0.4,17.2,2.1,25.6,4.8
	c5,1.7,8.2,6.4,7.7,11.5c-1.9,19.6-2.8,57.9,12.9,94.2c0.3,0.7,0.5,1.4,0.6,2l-23,76.1c-61.4,10.6-114.8,2.6-128.9,0.1L111,125.9
	C111.1,125.2,111.3,124.5,111.6,123.8L111.6,123.8z"/>
</svg>
