<?xml version="1.0" encoding="utf-8"?>
<!-- Generator: Adobe Illustrator 26.0.0, SVG Export Plug-In . SVG Version: 6.00 Build 0)  -->
<svg version="1.1" id="katman_1" xmlns="http://www.w3.org/2000/svg" xmlns:xlink="http://www.w3.org/1999/xlink" x="0px" y="0px"
	 viewBox="0 0 208.2 506.3" style="enable-background:new 0 0 208.2 506.3;" xml:space="preserve">
<path d="M28.2,495.4c0,0.1,0.2,0.2,0.2,0.3c0.4,1.2,1.1,2.2,2.1,3c0.1,0.1,0.1,0.1,0.2,0.2c0.7,0.5,1.5,0.9,2.5,1.1
	c1.8,0.4,29.9,6.4,70.7,6.4c20.9,0,45.2-1.6,71-6.3c1-0.2,1.8-0.6,2.6-1.2c0.1-0.1,0.2-0.2,0.3-0.3c0.9-0.8,1.6-1.8,2-3
	c0-0.1,0.1-0.1,0.2-0.2c0-0.1,0.1-0.2,0.1-0.3c0,0,0,0,0-0.1c57.1-201.4,11.3-275.5,0.4-289.5c5.8-52.9,23.2-77.7,23.3-77.9
	c1.4-1.9,1.6-4.4,0.6-6.5C182.6,73.3,193,19.6,193.1,19c0.5-2.7-0.7-5.6-3.2-7c-0.9-0.5-21.2-12-49.6-12c-0.1,0-0.2,0.1-0.4,0.1
	c-1.2,0-2.3,0.2-3.4,0.7C104.3,18.5,71.4,1,71,0.8c-0.1-0.1-0.2,0-0.3-0.1c-0.8-0.4-1.6-0.6-2.6-0.7c-0.1,0-0.1,0-0.2,0
	c0,0-0.1,0-0.1,0C39.5,0,19.2,11.6,18.3,12c-2.4,1.4-3.7,4.2-3.2,7c0.1,0.5,10.4,54.3-11.3,102c-1,2.1-0.7,4.6,0.6,6.5
	c0.2,0.3,17.5,25,23.3,77.9C16.8,219.5-29.1,293.7,28.2,495.4L28.2,495.4z M133,16.9c-0.6,4.7-2.3,10.4-6.2,15
	c-4.9,5.7-12.6,8.6-23,8.8c-10.4-0.2-18.1-3.1-23-8.8c-4-4.6-5.6-10.5-6.2-15.3C86.8,20.9,109.2,26,133,16.9L133,16.9z M17.2,123.2
	C35.3,80.7,31,36.2,28.8,21.4c5.8-2.6,17.6-6.7,32.3-7.9c0.3,7.2,2.2,18,9.6,26.7c7.5,8.7,18.6,13.2,33,13.4h0.1h0.1
	c14.4-0.2,25.5-4.7,33-13.4c7.5-8.7,9.3-19.5,9.6-26.8c14.9,1,27,5.3,32.9,7.9c-2.2,14.8-6.5,59.3,11.7,101.7
	c-5.1,8.5-18,34.1-23.3,78.7c-7.2,1.2-14.3,2.2-21.3,3c0.2-35.5,8.3-50.7,8.4-51.1c1.8-3.1,0.8-7.1-2.3-8.9c-3.1-1.8-7.1-0.8-9,2.3
	c-0.4,0.7-10.1,18.1-10.2,58.9c-22.5,1.6-42.8,1.1-58.9-0.1c-0.1-40.7-9.8-58.1-10.2-58.8c-1.8-3.1-5.8-4.1-8.9-2.3
	c-3.1,1.8-4.2,5.8-2.4,8.9c0.1,0.1,8.2,15.3,8.4,51c-9.5-1-16.6-2.1-20.8-2.9C35.2,157.3,22.3,131.7,17.2,123.2L17.2,123.2z
	 M37.2,214.8c9.2,1.7,33.6,5.6,66.6,5.6c19.9,0,42.8-1.5,67-5.7c9.5,13.3,50.2,84.8-2.5,273.1c-61.1,10.5-114.2,2.7-128.5,0.1
	C-12.7,300,27.6,228.3,37.2,214.8L37.2,214.8z"/>
</svg>
