<?xml version="1.0" encoding="utf-8"?>
<!-- Generator: Adobe Illustrator 26.0.0, SVG Export Plug-In . SVG Version: 6.00 Build 0)  -->
<svg version="1.1" id="Outline" xmlns="http://www.w3.org/2000/svg" xmlns:xlink="http://www.w3.org/1999/xlink" x="0px" y="0px"
	 viewBox="0 0 333.5 510.8" style="enable-background:new 0 0 333.5 510.8;" xml:space="preserve">
<path d="M209.2,3.9c-3.5-3-8.1-4.4-12.8-3.8l-14,2c-4.3,0.6-7.4,1.1-9.7,1.5c-3.2,0.5-4.9,0.8-6,0.8c0,0,0,0,0,0s0,0,0,0
	c-1.2,0-2.8-0.3-6-0.8c-2.3-0.4-5.4-0.9-9.7-1.5l-14-2c-4.6-0.7-9.2,0.7-12.8,3.8c-3.5,3-5.5,7.4-5.5,12.1v16.8L83.4,43.4
	c-26.7,8-46.5,31-50.5,58.5L0.2,324.5c-0.7,4.6,0.7,9.3,3.7,12.8c3,3.5,7.5,5.5,12.1,5.5h24.7c7.1,0,13.5-4.8,15.4-11.7l27.1-96.8
	l3.5,21.1v21.9l-62.2,166c-3.1,8.4-2.6,17.8,1.5,25.8s11.4,13.9,20.1,16.3l59.9,16.3c0.6,1.2,1.2,2.3,2.1,3.3
	c3,3.6,7.5,5.7,12.3,5.7h92.9c4.8,0,9.2-2.1,12.3-5.7c0.8-0.9,1.4-1.9,2-3l63.2-10.5c9.6-1.6,17.9-7.4,22.6-15.9
	c4.8-8.5,5.4-18.5,1.8-27.6l-68.4-170.9v-21.8l3.5-21.1l27.1,96.8c1.9,6.9,8.3,11.7,15.4,11.7h24.7c4.6,0,9.1-2,12.1-5.5
	c3-3.5,4.4-8.2,3.7-12.8l-32.7-222.5c-4-27.5-23.9-50.5-50.5-58.5l-35.3-10.6V16C214.7,11.4,212.7,7,209.2,3.9z M166.7,100.9
	L145,57.5l3.7,0.5c4.2,0.6,7.2,1.1,9.4,1.4c3.9,0.6,6.1,1,8.6,1c2.5,0,4.6-0.3,8.6-1c2.3-0.4,5.3-0.8,9.5-1.4l3.7-0.5L166.7,100.9z
	 M148.7,18c4.2,0.6,7.2,1.1,9.4,1.4c3.9,0.6,6.1,1,8.6,1c0,0,0,0,0,0s0,0,0,0c2.5,0,4.6-0.4,8.6-1c2.3-0.4,5.3-0.8,9.4-1.4l14-2
	v20.9l-1.6,3.2l-14.7,2.1c-4.3,0.6-7.4,1.1-9.7,1.5c-3.2,0.5-4.8,0.8-6,0.8c-1.1,0-2.6-0.2-6-0.8c-2.3-0.4-5.4-0.9-9.7-1.5
	l-14.7-2.1l-1.6-3.2V16L148.7,18z M284.8,104.2l32.7,222.5h-24.7L256.4,197c4-26.1,1.8-53-6.5-78.1l-3.6-10.7
	c-1.4-4.2-5.9-6.5-10.1-5.1c-4.2,1.4-6.5,5.9-5.1,10.1l3.6,10.7c7.7,23.2,9.7,48.2,5.7,72.3l-8.4,50.5h-85.2c-4.4,0-8,3.6-8,8
	c0,4.4,3.6,8,8,8h84v8h-12.6c-4.4,0-8,3.6-8,8s3.6,8,8,8h15.2l66.9,167.3c1.8,4.5,1.5,9.5-0.9,13.8c-2.4,4.2-6.5,7.1-11.3,7.9
	l-60.1,10l-21.3-120.4c-0.8-4.4-4.9-7.3-9.3-6.5c-4.4,0.8-7.3,4.9-6.5,9.3l22.3,126.6h-92.9l22.3-126.6c0.8-4.4-2.1-8.5-6.5-9.3
	c-4.3-0.8-8.5,2.1-9.3,6.5l-21.1,119.7L50.2,470c-4.4-1.2-8-4.1-10-8.1c-2.1-4.1-2.3-8.6-0.7-12.9l60.8-162.2h82.5c4.4,0,8-3.6,8-8
	s-3.6-8-8-8h-80v-8H118c4.4,0,8-3.6,8-8c0-4.4-3.6-8-8-8h-16.4l-8.4-50.5c-4-24.1-2.1-49.1,5.7-72.3l3.6-10.7
	c1.4-4.2-0.9-8.7-5.1-10.1c-4.2-1.4-8.7,0.9-10.1,5.1l-3.6,10.7c-8.3,25.1-10.6,52-6.5,78.1L40.7,326.8H16l32.7-222.5
	C51.9,82.8,67.3,65,88,58.7l33.5-10c0.8,1.2,1.8,2.3,2.9,3.3l34.3,68.7v6.1h-8c-4.4,0-8,3.6-8,8s3.6,8,8,8h8v16c0,4.4,3.6,8,8,8
	c4.4,0,8-3.6,8-8v-16h8c4.4,0,8-3.6,8-8s-3.6-8-8-8h-8v-6.1L209.1,52c1.1-1,2.1-2.1,2.9-3.3l33.5,10
	C266.2,65,281.6,82.8,284.8,104.2z"/>
</svg>
