<?xml version="1.0" encoding="utf-8"?>
<!-- Generator: Adobe Illustrator 26.0.0, SVG Export Plug-In . SVG Version: 6.00 Build 0)  -->
<svg version="1.1" id="katman_1" xmlns="http://www.w3.org/2000/svg" xmlns:xlink="http://www.w3.org/1999/xlink" x="0px" y="0px"
	 viewBox="0 0 482.9 559.2" style="enable-background:new 0 0 482.9 559.2;" xml:space="preserve">
<g>
	<path d="M337.1,367.1c1.1-2.2,1.2-4.7,0.4-7l-7.3-21.3c-0.8-2.3-2.4-4.2-4.6-5.3c-2.3-1.1-4.7-1.3-7.1-0.5
		c-2.3,0.8-4.2,2.4-5.3,4.7c-1.1,2.2-1.2,4.7-0.4,7l7.3,21.3c1.3,3.7,4.8,6.3,8.7,6.3c1,0,2-0.2,3-0.5
		C334.1,370.9,336,369.3,337.1,367.1L337.1,367.1z"/>
	<path d="M347.3,388.5c-1.7-4.8-7-7.4-11.7-5.7c-2.4,0.8-4.2,2.4-5.3,4.7c-1.1,2.2-1.2,4.7-0.4,7l26.6,77.9c1.3,3.7,4.8,6.2,8.7,6.2
		c1,0,2-0.2,3-0.5c4.8-1.6,7.4-6.9,5.7-11.7L347.3,388.5z"/>
	<path d="M163.4,354.2c-2.3-0.9-4.8-0.8-7.1,0.2c-2.3,1-4,2.8-4.9,5.1l-20.5,54c-1.8,4.8,0.6,10.1,5.3,11.9c1.1,0.4,2.2,0.6,3.3,0.6
		c3.8,0,7.3-2.4,8.6-5.9l20.5-54C170.5,361.4,168.1,356,163.4,354.2L163.4,354.2z"/>
	<path d="M241.4,343.9c-5.1,0-9.2,4.1-9.2,9.2v15.7c0,5.1,4.2,9.2,9.2,9.2s9.2-4.1,9.2-9.2v-15.7
		C250.6,348.1,246.5,343.9,241.4,343.9z"/>
	<path d="M481.7,532.2c-0.4-1.2-0.9-2.3-1.9-4.7l-26.6-66.8c-30.3-76.1-60.6-152.1-91-228.1c-0.8-2-0.8-3.2,0-5.4
		c12.9-35.7,25.6-71.5,38.3-107.3c2.4-7,2.4-13.1-0.3-18.2c-2.7-5.1-7.6-8.7-14.7-10.6c-14.4-4-25.1-12.9-32.6-27.1
		c-6-11.4-9-24.9-9.5-42.4c-0.4-13.7-8.1-21.4-21.7-21.5c-13.5-0.1-27.1,0-40.6,0c-10.2,0-22.4,4.1-22.5,22.9l0,35.4
		c-0.1,10.9-7.2,18.6-17.3,18.6h0c-10.1,0-17.1-7.6-17.2-18.6l0-35.4c0-15.1-7.8-22.8-23.1-22.9l-13.6,0H182h0h-7.2l-13.8,0
		c-13.5,0.2-21.2,7.8-21.6,21.4c-0.4,11-1.4,19.2-3.5,26.6c-6.4,23.1-18.3,36.7-37.6,42.7c-5.6,1.7-12.5,4.6-15.8,11.2
		c-3.4,6.7-1.4,14.1,0.4,19l6.7,19c10.3,29,20.6,58.1,31.1,87.1c0.8,2.2,0.7,3.5-0.3,6c-30.5,76.2-60.9,152.4-91.3,228.7l-7.3,18.3
		c-6.7,16.8-13.4,33.6-19.9,50.4c-2.9,7.5-2.4,14.7,1.4,20.2c3.9,5.5,10.1,8.2,18.5,8.4c4.4,0,8.8-0.5,13.2-1.2
		c14.5-2.1,25.6-9.7,36.8-17.9c8.2-6.1,17.3-8.3,28.6-6.9c7.6,1,13.8,5.4,21,10.6l3.2,2.3c12.5,8.8,26.6,13.2,42.7,13.2
		c4.9,0,10.1-0.4,15.4-1.2c15-2.3,26.8-10.5,36.7-17.9c8.9-6.7,19-8.8,31.1-6.5c6.3,1.2,12,5.3,17.9,9.7l3.7,2.7
		c16.3,11.6,35.3,15.5,58.1,12c14.9-2.3,26.3-10.1,36.7-17.9c8.4-6.3,17.7-8.5,29.1-6.9c7.3,1,13.3,5.3,20.3,10.4l2.3,1.6
		c13.5,9.7,28.4,14,44.2,13.9c6.9-0.2,13-3.2,16.6-8.3C483,545.7,483.9,538.9,481.7,532.2L481.7,532.2z M137.7,240
		c0.3-0.7,0.2-1.4,0.5-2.1h206.3c0.2,0.5,0.1,1.1,0.3,1.6c2.1,5.4,4.3,10.8,6.4,16.1H131.5C133.6,250.4,135.6,245.2,137.7,240
		L137.7,240z M107.2,133.8l-6.8-19c-1-2.7-1.1-4-1.3-4.2c0.4-0.3,1.7-1,4.7-2c25.2-7.8,42.1-26.5,50.1-55.5c2.4-8.9,3.7-18.5,4.1-31
		c0.1-1.9,0.3-2.8,0.3-3c0.3-0.1,1.2-0.3,2.9-0.4l13.5,0l26.3,0c2.7,0,3.8,0.4,4.1,0.3c0.1,0.4,0.4,1.5,0.4,4.1l0,35.5
		c0.2,21.2,15.6,37.1,35.9,37.1h0c20.3,0,35.8-16,35.9-37.1l0-35.5c0-2.6,0.3-3.7,0.2-3.9c0.4-0.1,1.4-0.4,3.6-0.4
		c13.5-0.1,26.9-0.1,40.4,0c1.7,0,2.4,0.2,2.7,0.2c0.1,0.3,0.4,1.2,0.4,3.1c0.5,20.4,4.2,36.5,11.6,50.6c9.8,18.8,24.7,31,44.1,36.4
		c2.2,0.6,3,1.2,3.1,1.2c0,0.2,0.1,1.2-0.7,3.4c-12.5,35.2-25,70.5-37.7,105.6l-207.6,0C127.4,190.8,117.3,162.3,107.2,133.8
		L107.2,133.8z M462.1,540.5c-11.6,0.4-22.5-3.1-32.8-10.5l-2.2-1.6c-7.8-5.7-16.8-12.1-28.7-13.7c-2.8-0.4-5.5-0.4-8.2-0.4l-7-20.4
		c-0.8-2.3-2.4-4.2-4.6-5.3c-2.2-1.1-4.8-1.3-7.1-0.5c-4.8,1.7-7.4,6.9-5.7,11.7l5.9,17.2c-5.7,1.8-11.1,4.4-16.1,8.1
		c-8.9,6.6-17.8,12.8-28.4,14.4c-18.1,2.8-32.2,0-44.5-8.8l-3.5-2.5c-7-5.2-15.1-11-25.5-13c-1.1-0.2-2.1-0.2-3.2-0.3V410.1
		c0-5.1-4.1-9.2-9.2-9.2s-9.2,4.1-9.2,9.2V515c-8.7,1.4-16.8,4.7-24.1,10.2c-8.5,6.4-17.7,12.7-28.4,14.4c-18.1,2.8-32.2,0-44.5-8.8
		l-3-2.2c-5.8-4.2-12.2-8.6-19.8-11.4l25.1-66.2c0.9-2.3,0.8-4.8-0.2-7s-2.8-4-5.1-4.8s-4.8-0.8-7.1,0.2c-2.2,1-3.9,2.8-4.8,5.1
		l-26.4,69.7c-12.3,0.1-23.5,3.7-33.2,10.9c-9.4,7-18.1,12.9-28.3,14.4c-3.6,0.5-7.2,1-10.8,1h-0.2c-1.7,0-2.6-0.3-2.6-0.3
		c0,0-0.3-0.9,0.5-2.9c6.6-16.8,13.2-33.5,19.9-50.2l7.3-18.4C72.2,403.8,98.1,339,124,274.2h234.7c25.7,64.4,51.4,128.9,77.1,193.3
		l26.6,66.8c0,0.1,1.4,3.4,1.4,3.5L462.1,540.5z"/>
</g>
</svg>
