<?xml version="1.0" encoding="utf-8"?>
<!-- Generator: Adobe Illustrator 26.0.0, SVG Export Plug-In . SVG Version: 6.00 Build 0)  -->
<svg version="1.1" id="katman_1" xmlns="http://www.w3.org/2000/svg" xmlns:xlink="http://www.w3.org/1999/xlink" x="0px" y="0px"
	 viewBox="0 0 419 556.7" style="enable-background:new 0 0 419 556.7;" xml:space="preserve">
<g>
	<path d="M302.9,390.1c5-1.8,7.7-7.4,6-12.4l-6.2-18.9c-0.8-2.5-2.6-4.6-5-5.8c-2.3-1.2-5-1.4-7.5-0.4c-5,1.8-7.7,7.3-6,12.5
		l6.3,18.9c1.3,4,5,6.8,9.2,6.8L302.9,390.1z"/>
	<path d="M317.3,403c-0.8-2.5-2.6-4.6-5-5.8c-2.3-1.2-5-1.4-7.5-0.4c-5,1.8-7.7,7.3-6,12.5l22.8,69c1.3,4,5,6.8,9.2,6.8l3.2-0.5
		c5-1.8,7.7-7.3,6-12.5L317.3,403z"/>
	<path d="M126.5,374.2c-2.4-1-5.1-0.9-7.4,0.2c-2.4,1.1-4.3,3-5.2,5.6l-17.6,48c-1.8,5,0.7,10.7,5.7,12.6l3.4,0.6
		c4.1,0,7.8-2.6,9.1-6.4l17.6-48C134,381.8,131.5,376.1,126.5,374.2L126.5,374.2z"/>
	<path d="M176.1,387.3c-5.4,0-9.8,4.4-9.8,9.9v13.9c0,5.4,4.4,9.9,9.8,9.9c5.3,0,9.7-4.4,9.7-9.9v-13.9
		C185.8,391.7,181.4,387.3,176.1,387.3z"/>
	<path d="M415.7,482.3c-12.5-25.5-27.4-48.9-44.2-74.7l-5.7-8.8c-16.1-25-32.9-50.9-44.9-78.6c-4.8-10.8-8.5-21.4-11.4-32.3
		c-2.3-8.8-3.8-17.5-4.7-26.4c-0.3-3.2-0.3-6.7,0.3-12.3c0-2.8,0.4-5.4,0.8-7.8l3.1-18.1c4.6-31.9,9.5-63.9,14.4-95.8
		c1-6.4,0-12.1-3.1-18.1c-3.3-6.1-8.7-12.7-14.4-19.6c-6.9-8.4-14.5-17.9-16.4-24.3v-56c0-5.2-4.2-9.3-9.3-9.3s-9.3,4.2-9.3,9.3
		v54.3c-4.1,4.3-16.5,15.3-27,24.5c-12.6,11.1-25.6,22.6-34.4,31.1c-8.6-8.4-21.7-19.9-34.4-31.2c-10.4-9.2-22.8-20.2-26.9-24.5V9.3
		c0-5.2-4.2-9.3-9.3-9.3s-9.3,4.2-9.3,9.3l0,56c-1.9,6.5-9.6,16-16.5,24.4c-5.7,7-11.1,13.5-14.4,19.7c-3.1,5.9-4.1,11.6-3.1,17.9
		c4.9,31.9,9.8,63.9,14.5,95.9l3.1,18.3c0.3,2.2,0.6,4.5,0.7,7.5v0v0c0,0.3,0,0.6,0.1,0.9c0.4,3.4,0.6,7.4,0.2,11.4
		c-0.9,9-2.4,17.6-4.6,26.3c-2.9,11.1-6.6,21.7-11.4,32.5c-12,27.5-28.7,53.3-44.8,78.3l-5.8,9c-16.8,25.8-31.7,49.2-44.3,74.9
		c-6.6,14.2-3,24.4,11.2,31.1c51.5,23.6,105.2,37.4,160.1,41.6c0.6,0.1,1.1,0.4,1.7,0.4c0.3,0,0.5-0.1,0.7-0.1
		c10.9,0.8,21.8,1.3,32.7,1.3c20.1,0,40-1.5,59.8-4c0.1,0,0.1,0.1,0.2,0.1l1.6-0.1c0.3,0,0.5-0.2,0.8-0.3
		c45.4-6.2,89.9-19,132.8-38.7c0,0,0.1,0,0.1,0C418.9,506.8,422.4,496.7,415.7,482.3L415.7,482.3z M132.7,263.4
		c0.2-1.8,0.1-3.3,0.2-5h153.2c0,1.7,0,3.3,0.2,4.9c0.6,5.9,2,11.7,3.1,17.5H129.6C130.7,275.1,132.1,269.3,132.7,263.4L132.7,263.4
		z M115.1,118.2c2.5-4.6,7.3-10.5,12.4-16.7c5-6.1,10.1-12.3,14-18.5c4.9,4.5,11.7,10.5,21.3,19c13.3,11.8,28.5,25.2,36.4,33.3
		c2.3,2.2,5.5,4.8,10.3,4.8s8.1-2.6,10.4-4.9c7.9-8,23-21.4,36.4-33.2c9.6-8.5,16.4-14.6,21.3-19c3.9,6.2,9,12.3,14,18.4
		c5.1,6.3,9.9,12.2,12.4,16.6c1.2,2.3,1.5,4,1.1,6.4c-4.9,32-9.8,64-14.4,95.9l-3.1,18c-0.1,0.5-0.1,0.9-0.1,1.4H131.6
		c-0.1-0.5-0.1-1-0.1-1.5l-3-17.9c-4.7-32-9.6-64-14.5-96C113.6,122.1,113.9,120.4,115.1,118.2L115.1,118.2z M396.9,496.6
		c-14.2,6.5-28.6,12.1-43.1,17l-5.6-17.1c-0.8-2.5-2.6-4.6-5-5.8c-2.3-1.1-5-1.3-7.5-0.5c-5,1.8-7.7,7.4-6,12.5l5.4,16.3
		c-19,5.6-38.1,9.8-57.5,12.8l-22.2-138c-0.4-2.6-1.8-4.9-4-6.5c-2.1-1.5-4.7-2.1-7.3-1.7c-5.3,0.9-8.8,6-8,11.3l22.3,138
		c-24.1,2.7-48.4,2.8-72.6,1.5v-88.7c0-5.4-4.4-9.9-9.7-9.9c-5.4,0-9.8,4.4-9.8,9.9v87.6c-27.6-2.7-54.9-8.3-81.9-16.2l20.9-57.1
		c1.8-5-0.7-10.7-5.6-12.6c-2.4-1-5.1-0.9-7.5,0.2c-2.4,1.1-4.3,3.1-5.2,5.6l-21.4,58.5c-14.7-5-29.2-10.6-43.5-17.2
		c-2.4-1.2-3.4-1.9-3.5-1.9c0-0.4,0.2-1.7,1.4-4.2C32.1,466,46.7,443,63.2,417.7l5.8-9c16.5-25.6,33.6-52.1,46.2-80.9
		c4.2-9.4,7.5-18.7,10.3-28.3h168.2c2.8,9.5,6.1,18.9,10.3,28.2c12.6,29,29.8,55.5,46.3,81.2l5.7,8.9c16.4,25.3,31,48.2,43,72.6
		c1.3,2.7,1.4,4,1.6,4.1C400.2,494.7,399.3,495.5,396.9,496.6L396.9,496.6z"/>
</g>
</svg>
