<?xml version="1.0" encoding="utf-8"?>
<!-- Generator: Adobe Illustrator 26.0.0, SVG Export Plug-In . SVG Version: 6.00 Build 0)  -->
<svg version="1.1" id="katman_1" xmlns="http://www.w3.org/2000/svg" xmlns:xlink="http://www.w3.org/1999/xlink" x="0px" y="0px"
	 viewBox="0 0 328.6 557" style="enable-background:new 0 0 328.6 557;" xml:space="preserve">
<g>
	<path d="M324.4,359.3c-6.8-48.8-21.7-98-44.6-146.8c-0.3-1-0.4-2.1-0.4-3.6l1.2-6.3l30.9-131.5c3-12.6,0.5-19.1-10-26.4L244.3,5.6
		c-12.4-8.4-21-7.5-31.5,3.5l-9.6,10.3c-12.1,12.6-24,25.2-36.4,38.7c-13.5-13.3-27.1-26.4-40.6-39.4L114.8,8
		C104.5-1.8,95.9-2.5,84.2,5.6L27.5,44.4c-11,7.7-13.5,14-10.5,27.3l32,135.8v0.2c0.7,2.6,0.5,3.3,0,4.2c-0.2,0.5-0.5,0.9-0.7,1.4
		C24,266,9.3,316.9,3,368.9c-7.5,63.2-1.2,119.5,19.4,171.7C27.3,553.2,32.7,557,46,557h235.9c14.2,0,19.4-3.5,24.5-16.8
		C327.9,485.3,333.7,426.3,324.4,359.3L324.4,359.3z M65.1,221.2c1.2,0.2,2.3,0.2,3.7,0.2c5.4,0,10.5-0.2,14.2-0.7
		c6.1-0.7,12.4-1.6,18.9-2.8c12.4-2.3,32.9-7.5,51.3-17c12.6,5.1,44.8,14,84.7,14c7.7,0,15.6-0.2,23-0.9c0.4,2.1,0.9,4.2,1.9,6.5
		c5.1,11.2,10,22.2,14.2,33.4H51.4C55.5,243.1,60.2,232.2,65.1,221.2L65.1,221.2z M38.3,59.7L95,21c2.3-1.9,3.5-2.3,3.5-2.3
		c0.2,0,1.4,0.7,3.5,2.8l11.2,10.7C127.7,46,142.1,60,156.4,74c2.6,2.3,7,4.7,11,5.1c5.6-0.2,9.3-4.2,10.7-5.8
		c12.8-13.8,25.7-27.5,38.7-41.3l9.6-10c2.1-2.1,3.3-2.8,3.3-3.3c0.5,0,1.6,0.5,4.2,2.3L291,60.2c1,0.7,1.5,1.1,2,1.5
		c-20.4-3.6-57.8,0.6-93.6,20c-2.1,1.1-3.6,3-4.3,5.2c-0.7,2.3-0.4,4.6,0.7,6.6c1.5,2.9,4.5,4.6,7.7,4.6c1.5,0,2.9-0.4,4.2-1.1
		C243,78,277,76.3,290.5,78.9L263,196c-37.8,4.2-71.6-1.6-90.8-7c21.5-15.9,46.7-29.9,67.7-37.8c2.3-0.7,4-2.3,4.9-4.4
		c1.2-2.1,1.2-4.7,0.5-6.8c-0.9-2.1-2.6-4-4.7-4.9c-2.1-0.9-4.4-1.2-6.8-0.2c-23.6,8.6-51.6,24.5-74.9,42.2
		c-2.8,2.1-6.1,4.2-9.6,6.3c-0.7,0.2-1.4,0.7-2.1,1.2c-13.1,6.8-30.1,12.6-48.5,16.1c-5.8,1.2-11.7,2.1-17.3,2.6
		c-6.1,0.7-10.7,0.7-14.2,0.7v-0.5L53,142.9c7.5,1.6,16,2.4,25.5,2.4c32.4,0,66.9-9.5,94.7-26c2.2-1.3,4.4-2.7,6.6-4.1
		c4-2.7,5.2-8.1,2.5-12.2c-1.3-2-3.3-3.3-5.6-3.8c-2.3-0.5-4.7,0-6.6,1.3c-1.9,1.3-3.9,2.5-5.9,3.7c-41.8,24.9-94.4,27.6-115.8,19
		L35.3,67.4c-0.7-3.5-0.7-4.7-0.9-4.7C34.6,62.8,35.3,61.8,38.3,59.7L38.3,59.7z M289.1,533.4c-1.4,3-1.9,4.2-1.9,4.4
		c-0.2,0.2-1.6,0.5-5.4,0.5h-8l-0.7-18.2c-0.2-4.9-4.3-8.7-9.7-8.7c-5.2,0.1-9.3,4.3-9.1,9.3l0.6,17.7h-77.8V407.9
		c0-4.9-4.2-9-9.4-9c-5.2,0-9.4,4-9.4,9v130.4H87.2l7.3-114.9l11.2-84.2c0.3-2.4-0.4-4.7-1.8-6.5c-1.5-1.9-3.9-3.2-6.4-3.5
		c-5-0.7-9.8,2.9-10.5,7.8l-11.2,84.9l-7.4,116.5l-22.4,0c-3.3,0-4.2-0.2-4.2,0c-0.2-0.5-0.7-1.4-2.1-4.4
		C20.3,484.4,14.5,431.2,21.5,371c4-32.9,11.7-65.6,23.1-98.5h239.6c10.3,29.9,17.5,59.7,21.7,89.4
		C314.8,425.6,309.2,481.6,289.1,533.4L289.1,533.4z"/>
	<path d="M258.2,360.7c-2.6,0.1-5,1.2-6.7,3c-1.6,1.7-2.5,4-2.4,6.3l4.5,125.3c0.2,4.9,4.3,8.7,9.4,8.7h0.3c5.2-0.1,9.3-4.3,9.1-9.3
		l-4.5-125.3C267.7,364.5,263.6,360.7,258.2,360.7L258.2,360.7z"/>
	<path d="M167.8,351.7c-5.2,0-9.4,4-9.4,9v22.9c0,4.9,4.2,9,9.4,9s9.4-4,9.4-9v-22.9C177.2,355.8,173,351.7,167.8,351.7z"/>
</g>
</svg>
