<?xml version="1.0" encoding="utf-8"?>
<!-- Generator: Adobe Illustrator 26.0.0, SVG Export Plug-In . SVG Version: 6.00 Build 0)  -->
<svg version="1.1" id="katman_1" xmlns="http://www.w3.org/2000/svg" xmlns:xlink="http://www.w3.org/1999/xlink" x="0px" y="0px"
	 viewBox="0 0 435.4 554.1" style="enable-background:new 0 0 435.4 554.1;" xml:space="preserve">
<g>
	<path d="M305,384.3l1.1-0.5c4.5-2,6.8-7.4,5.4-12.6l-5.6-21.3c-0.8-2.9-2.6-5.3-5.2-6.6c-2.3-1.1-4.9-1.2-7.3-0.1
		c-4.4,2-6.8,7.4-5.4,12.6l5.6,21.4c1.2,4.4,4.8,7.4,8.9,7.4L305,384.3z"/>
	<path d="M319,399.7c-0.8-3-2.7-5.4-5.2-6.6c-2.3-1.1-4.9-1.1-7.2-0.1c-4.5,2-6.9,7.4-5.5,12.6l20.4,77.8c1.2,4.4,4.8,7.4,8.9,7.4
		l2.4-0.2l1.1-0.5c4.4-2,6.8-7.4,5.4-12.6L319,399.7z"/>
	<path d="M139.5,367.2c-2.3-1.1-4.9-1.2-7.3-0.2c-2.6,1.1-4.5,3.5-5.4,6.4l-15.7,54c-1.5,5.1,0.7,10.6,5.3,12.9l2.4,0.8h1.2
		c4.1,0,7.6-2.9,8.9-7.2l15.7-54C146,374.9,143.9,369.5,139.5,367.2L139.5,367.2z"/>
	<path d="M187.8,364c-5.2,0-9.3,4.7-9.3,10.4v15.7c0,5.7,4.2,10.4,9.3,10.4c5.2,0,9.3-4.6,9.3-10.4v-15.7
		C197.1,368.6,193,364,187.8,364z"/>
	<path d="M431.2,502.6c-13.2-22.5-30.4-52.3-46.4-83.3c-35.4-68.7-57.9-126.5-70.7-181.8c-0.6-2.6-0.6-4.6-0.1-6.9l26.7-112.2
		c0.7-3.2,3-12.9-2.4-20.3c-4.9-6.7-13-8-18.7-8.4c-13.4-1.1-23.1-7.7-29.6-20.1c-2.3-4.5-3.4-9.9-3.4-17c0-0.5-0.3-51-18.3-52.4
		c-10.4-1.4-14.5,9.8-24.4,32.9c-3.9,9-8.3,19.2-11.2,23.5c-3.6,5.3-7,8.1-11.1,9.2c-4.8,1.3-10.7,1.4-17.5-7.4
		c-3.5-4.6-8.6-16.1-13.1-26.2C180.9,9.4,176.7-0.6,166.2,0.2c-8.3,1-13.7,5.5-18,58.9c-1.3,16.1-15.4,29.4-32.1,30.5
		c-3.3,0.2-13.3,0.8-18.9,8.3c-5.5,7.4-3.2,17.1-2.5,20.3l26.7,112.3c0.5,2.3,0.5,4.4,0,6.8c-7.7,33.4-19.1,67.9-34.8,105.5
		c-25.2,60.2-57.2,117-82.3,159.7c-5.8,9.9-4.7,17.1-2.7,21.4c2,4.3,6.7,9.9,17.9,11.9c69.3,12.3,133.9,17.9,198.4,18.4
		c63.9,0,128.6-6,197.8-18.3c11.3-2,16.1-7.6,18.1-11.9C435.8,519.5,437,512.3,431.2,502.6L431.2,502.6z M139.6,241.4
		c0-0.2,0-0.4,0.1-0.6h156.2c0,0.3,0,0.5,0.1,0.7c1.5,6.7,3.7,13.5,5.5,20.3H134.3C136.2,255,138,248.2,139.6,241.4L139.6,241.4z
		 M112.9,113.9c-0.7-3.1-0.6-4.5-0.7-4.7c0.4-0.2,1.8-0.7,5.2-1c26.2-1.7,47.5-22.1,49.5-47.6c1.1-13,2.2-22.6,3.3-29.6
		c1.4,3,2.7,6,3.9,8.7c5.3,12.2,10.4,23.7,15.3,30c12.6,16.5,27.1,16.8,37.1,14.1c8.4-2.3,15.5-7.7,21.7-16.7
		c3.9-5.8,8.3-15.9,12.9-26.7c1.4-3.1,2.9-6.8,4.5-10.4c1.4,7.8,2.4,16.9,2.4,22.5c0,10.2,1.8,18.3,5.5,25.6
		c9.4,18.2,24.9,28.6,44.7,30.1c3.3,0.3,4.6,0.7,4.9,0.7c0.1,0.5,0.2,1.9-0.6,5.1l-25.7,108.1H138.6L112.9,113.9z M412.4,517.4
		c-20.5,3.6-40.4,6.5-60.2,9.1l-5.6-21.4c-0.8-2.9-2.7-5.3-5.3-6.5c-2.3-1.1-4.9-1.1-7.2-0.1c-4.5,2-6.8,7.4-5.5,12.6l4.6,17.6
		c-17.9,2-35.7,3.5-53.3,4.6L259.3,371c-0.4-3-1.9-5.6-4.2-7.3c-2-1.4-4.5-2-6.8-1.4c-4.9,1.1-8.1,6.2-7.4,11.6l20.5,160.4
		c-14.5,0.6-29,1-43.4,1h-0.4c-6.8,0-13.7-0.4-20.5-0.5V431.5c0-5.8-4.1-10.4-9.3-10.4c-5.2,0-9.3,4.7-9.3,10.4v103
		c-25.1-1-50.6-3-76.4-5.9l18.5-63.7c1.5-5.1-0.7-10.6-5-12.7c-2.3-1.1-4.9-1.2-7.3-0.2c-2.6,1.1-4.6,3.5-5.4,6.4L83,526.4
		c-19.8-2.5-39.8-5.4-60.3-9.1c-2.4-0.4-3.7-1.1-4.1-1.1c0,0-0.1,0-0.1,0.1c0-0.4,0.2-1.8,1.7-4.5c25.4-43.3,57.9-100.8,83.5-162
		c10.1-24.2,18.3-47.1,25.1-69.3h177.6c13.8,45.2,33.7,92.9,61.7,147.3c16.2,31.4,33.6,61.5,46.9,84.2c1.4,2.4,1.6,3.7,1.8,3.9
		C416.5,516.1,415.4,516.9,412.4,517.4L412.4,517.4z"/>
</g>
</svg>
