<?xml version="1.0" encoding="utf-8"?>
<!-- Generator: Adobe Illustrator 26.0.0, SVG Export Plug-In . SVG Version: 6.00 Build 0)  -->
<svg version="1.1" id="katman_1" xmlns="http://www.w3.org/2000/svg" xmlns:xlink="http://www.w3.org/1999/xlink" x="0px" y="0px"
	 viewBox="0 0 404.1 554.8" style="enable-background:new 0 0 404.1 554.8;" xml:space="preserve">
<g>
	<path d="M290.7,388c5-1.8,7.6-7.2,5.9-12.2l-6-18.2c-0.8-2.5-2.6-4.6-4.9-5.7c-2.3-1.2-4.9-1.3-7.3-0.4c-4.9,1.7-7.6,7.2-5.9,12.2
		l6,18.2c1.3,4,4.9,6.6,9.1,6.6L290.7,388z"/>
	<path d="M304.7,400c-0.8-2.5-2.6-4.6-4.9-5.7c-2.3-1.1-4.9-1.3-7.3-0.4c-4.9,1.7-7.6,7.2-5.9,12.2l21.9,66.5c1.4,3.9,5,6.6,9.1,6.6
		l3.2-0.5c4.9-1.8,7.5-7.3,5.9-12.2L304.7,400z"/>
	<path d="M121.3,372.3c-2.4-0.9-5-0.9-7.3,0.2c-2.4,1.1-4.2,3-5.1,5.5l-16.9,46.1c-1.8,4.9,0.7,10.5,5.7,12.5l3.3,0.6
		c4,0,7.6-2.5,9-6.3l16.9-46.1C128.6,379.7,126.1,374.1,121.3,372.3L121.3,372.3z"/>
	<path d="M168.8,384.9c-5.3,0-9.6,4.4-9.6,9.7v13.3c0,5.3,4.3,9.7,9.6,9.7s9.6-4.4,9.6-9.7v-13.3
		C178.4,389.2,174.1,384.9,168.8,384.9z"/>
	<path d="M400.6,471.7c-35.2-66.2-64-134.8-96.3-218.6c2.2-4.6,4.4-9.2,6.5-13.8c3.2-7,6.5-14.1,10.1-21c6.9-12.9,9.2-25.4,7.5-39.1
		c-2.4-18.5-4.1-37.1-5.7-55.8l-2.3-25.2c-1.1-11.4-8.3-18.9-18.8-19.4c-0.1,0-0.3,0-0.4,0l-6.2,0V9.3c0-5.2-4.2-9.3-9.3-9.3
		s-9.3,4.2-9.3,9.3v69.2l-4.3,0c-11.2-0.5-17.4,7.1-19.5,9.6l-22,26.9c-9.2,11.3-18.5,22.6-28.5,34.8
		c-10.1-12.7-20.4-25.2-30.7-37.7l-19.5-23.8c-2.7-3.3-8.4-9.8-17.5-9.7l-7.3,0V9.3c0-5.2-4.2-9.3-9.3-9.3s-9.3,4.2-9.3,9.3v69.4
		l-5.9,0c-7.7,0.7-17.1,4.9-18.7,20.4l-8.8,89.9c-0.6,6.4,0.4,12.2,3.1,17.8c4,8.2,7.9,16.5,11.8,24.8l10,21.7
		c0,0.4,0.1,0.7,0.2,1.1c-26.2,66.6-57.3,143.8-96.3,217c-6.7,12.7-4,22.8,8.3,30.2c50.9,30.7,106.1,48.3,164,52.3
		c8.9,0.6,17.7,0.9,26.5,0.9c67,0,130.8-17.8,189.7-53C404.4,494.3,407.3,484.2,400.6,471.7L400.6,471.7z M117.1,261.6H287
		c2.8,7.2,5.5,13.8,8.3,20.8H108.8C111.5,275.5,114.5,268.3,117.1,261.6L117.1,261.6z M93.4,191l8.8-89.9c0.3-2.8,0.8-3.6,1.1-3.6
		l31.1-0.2c0.4,0.2,1.1,0.8,2.8,2.9l19.6,23.9c11.2,13.7,22.5,27.4,33.6,41.3c1.6,2,5.4,6.8,11.6,6.8h0c6.1,0,9.8-4.5,11.8-7
		c10.3-12.8,20.7-25.5,31.1-38.1l22.1-27c2.3-2.8,3.1-2.9,4.3-2.7l29.7,0.3l0,0c0.1,0.2,0.5,1,0.7,2.6l2.3,25
		c1.7,18.9,3.4,37.7,5.8,56.5c1.3,9.9-0.4,18.5-5.5,28c-3.8,7.2-7.2,14.5-10.6,21.9c-1.8,3.9-3.6,7.7-5.4,11.6l-172.8,0l-9.1-19.2
		c-3.9-8.4-7.8-16.7-11.9-25C93.5,196.3,93.1,193.9,93.4,191L93.4,191z M382.4,485.8c-13.8,8.3-28,15.3-42.3,21.6l-5.7-17.3
		c-0.8-2.5-2.5-4.5-4.9-5.7c-2.4-1.1-4.9-1.3-7.3-0.5c-4.9,1.7-7.6,7.2-6,12.2l6.1,18.4c-17.9,6.6-36.1,11.8-54.7,15.4l-22.3-138.5
		c-0.4-2.6-1.8-4.8-3.9-6.3c-2.1-1.5-4.7-2.1-7.2-1.6c-5.2,0.9-8.6,5.8-7.8,11.2L248.7,533c-23,3.1-46.4,4-70.3,2.4v-92.1
		c0-5.3-4.3-9.7-9.6-9.7s-9.6,4.4-9.6,9.7V533c-27-3.3-53.4-9.7-78.9-19.3l20.7-56.5c1.8-4.9-0.7-10.5-5.5-12.4
		c-2.4-1-5-0.9-7.4,0.2c-2.4,1.1-4.2,3.1-5.1,5.5l-20.7,56.4c-13.9-6.1-27.6-13-41-21.1c-2-1.2-2.7-1.9-2.8-2c0-0.3,0.3-1.4,1.4-3.5
		c31.9-59.9,58.3-121.9,81.3-179.1h201.4c26.4,65.7,51.6,123.5,81.3,179.3c1,1.9,1.2,2.9,1.4,3C385.3,483.7,384.5,484.5,382.4,485.8
		L382.4,485.8z"/>
</g>
</svg>
