<?xml version="1.0" encoding="utf-8"?>
<!-- Generator: Adobe Illustrator 26.0.0, SVG Export Plug-In . SVG Version: 6.00 Build 0)  -->
<svg version="1.1" id="katman_1" xmlns="http://www.w3.org/2000/svg" xmlns:xlink="http://www.w3.org/1999/xlink" x="0px" y="0px"
	 viewBox="0 0 403 556" style="enable-background:new 0 0 403 556;" xml:space="preserve">
<g>
	<path d="M315.2,335.5l-7.3-23.3c-0.8-2.5-2.5-4.6-4.9-5.8c-2.2-1.1-4.7-1.2-7-0.3c-4.7,1.8-7.2,7.1-5.6,12.1l7.3,23.3
		c1.2,4,4.7,6.7,8.8,6.7c1.1,0,2.1-0.2,3.1-0.6C314.3,345.8,316.8,340.5,315.2,335.5L315.2,335.5z"/>
	<path d="M325,366.7c-0.8-2.5-2.5-4.6-4.8-5.7c-2.2-1.1-4.7-1.2-7-0.4c-4.7,1.8-7.2,7.1-5.6,12.1l26.6,85.2c1.3,4,4.8,6.6,8.8,6.6
		c1,0,2.1-0.2,3.1-0.6c4.7-1.8,7.2-7.1,5.6-12.1L325,366.7z"/>
	<path d="M104,332.7c-2.3-0.9-4.8-0.9-7,0.1c-2.3,1.1-4.2,3.1-5,5.6l-20.5,59.1c-1.7,5,0.6,10.3,5.2,12.2c1.1,0.5,2.3,0.7,3.5,0.7
		c3.9,0,7.4-2.5,8.7-6.3l20.5-59.1C111,340.1,108.7,334.7,104,332.7L104,332.7z"/>
	<path d="M162.5,349.1c-5.1,0-9.2,4.3-9.2,9.7v17.1c0,5.3,4.2,9.6,9.2,9.6c5.1,0,9.2-4.3,9.2-9.6v-17.1
		C171.7,353.4,167.6,349.1,162.5,349.1z"/>
	<path d="M401.8,476.7l-2-7.1c-3.3-11.7-6.6-23.6-10.1-35.2c-5.2-17.8-10.3-35.5-15.6-53.2c-12.2-41.6-24.6-84.4-36-126.9
		c-0.1-0.2-0.1-0.5-0.2-0.7c-1.6-5.8-3.3-11.7-4.8-17.5c0-0.4-0.2-0.8-0.3-1.3c0-0.4,0-0.7-0.1-1.1c-4.7-18-6.8-32.9-1.8-47.6v0
		l1.2-3.2c0.8-1.9,1.1-3.7,1.4-5.1c10.9-45.8,7.2-85.1-11.3-120.1c-6.4-12.3-9.6-26.2-12.2-39.4c-2.8-15-13.3-18.1-21.4-18.1
		c-11.8-0.2-23.8-0.2-35.4,0c-10.1,0-22.2,3.9-22.2,22.4v39.7c0,9.4-3.2,17.7-9,23.4c-5.3,5.3-12.4,8.1-20.5,8.1
		c-16.8,0.1-29.7-13-29.7-31.3V20.9c0-12.6-8.2-20.8-20.6-20.8c-8.4-0.1-16.9-0.1-25.4,0l-12.6,0.1c-10.4,0-18.1,6.4-20.2,16.9
		C90.3,33,84.8,49.6,75.6,69.3c-9.1,19.4-13.1,40.6-12.3,64.9c0.5,17.3,3.9,33.3,7.9,51c0,0,0,0,0,0v0l4.2,17.8
		c0.7,2.8,0.7,5.2-0.1,8.2l-1.8,7.7c-1.1,4.9-2.3,9.8-3.6,14.7c0,0,0,0.1,0,0.1c0,0.1-0.1,0.1-0.1,0.2c-1.5,6.3-3.2,12.9-4.9,19.8
		c0,0,0,0.1,0,0.1c-3.8,15.2-8.2,31.6-13.2,48.3C35.2,360,18.5,417.6,1.7,475.2c-4,13.5-1,21.2,11,28.4
		c58.1,34.5,121.8,52.1,189.1,52.4c67.6-0.3,131.4-18.1,189.6-53.1C401.8,496.6,405,488.8,401.8,476.7L401.8,476.7z M88,238.3
		L88,238.3c1.4-5,2.6-10.1,3.8-15.1l1.6-6.7h217c0.9,7.5,2.4,14.9,4.3,22c0,0,0,0,0,0.1c0.2,0.8,0.3,1.6,0.4,2c0.6,2.5,1.4,5,2,7.5
		H85.6C86.4,244.7,87.3,241.4,88,238.3L88,238.3z M92.5,77.2c9.9-21.3,15.9-39.3,20.7-58.3l12.6,0c8.4,0,16.7-0.1,25,0
		c0,0,2.2,2.1,2.3,2.1v41.5c0,28.5,20.7,49.9,48,49.9c13.5,0.3,25.2-4.6,34.1-13.4c9.4-9.3,14.5-22.3,14.5-36.7V22.6
		c0-2.1,0.3-3.2,0.2-3.4c0.4-0.1,1.4-0.4,3.5-0.4c11.6-0.2,23.4-0.2,35,0c1.8,0,2.4,0.3,2.4,0.2c0.1,0.2,0.5,0.9,0.9,2.8
		c2.8,14.6,6.5,30.1,14,44.6c16.5,31.3,19.6,65.4,9.5,108l-1.1,3.5l0.3,0.2c-0.3,0.5-0.7,1-0.9,1.6l-0.1,0c0,0.1,0,0.1,0,0.2
		c0,0.1-0.1,0.1-0.1,0.2c-2,5.9-3,11.9-3.4,17.7H93.5l-4-16.8c-3.8-16.7-7-31.8-7.5-47.5C81.3,112.3,84.7,93.9,92.5,77.2L92.5,77.2z
		 M381.7,486.9c-5.4,3.2-10.8,6.2-16.3,9.1l-4.4-14.1c-0.9-2.5-2.8-4.6-5.1-5.6c-2.2-1-4.6-1-6.8-0.1c-4.8,1.9-7.2,7.4-5.5,12
		l5.1,16.2c-22.5,10.5-45.7,18.6-69.6,24.1l-26.2-173c-0.3-2.7-1.6-5.2-3.6-6.7c-2-1.5-4.5-2.1-7-1.7c-5.1,0.9-8.4,5.9-7.5,11.2
		L261.3,532c-19.5,3.4-39.3,5.3-59.6,5.4c-10.1,0-20.1-0.6-30-1.5V421.2c0-5.3-4.1-9.6-9.2-9.6s-9.2,4.3-9.2,9.6v112.7
		c-34.1-4.8-67-14.7-98.5-29.3l23.2-66.7c1.8-5-0.5-10.3-5.2-12.2c-2.3-0.9-4.8-0.9-7.1,0.1c-2.3,1.1-4,3-4.9,5.5l-22.5,65.2
		c-5.4-2.8-10.8-5.7-16.1-8.9c-3.1-1.9-3.5-2.4-3.5-2.3c0-0.2-0.1-1.4,0.9-4.8c16.8-57.7,33.6-115.3,50.1-173.1
		c4.2-13.9,7.9-27.7,11.2-40.7h241.3c10.8,40.3,22.4,80.6,33.9,119.8c5.2,17.7,10.4,35.4,15.6,53.2c3.5,11.6,6.8,23.4,10.1,35l2,7
		c0.6,2.2,0.6,3.2,0.7,3.2C384.2,485.1,383.6,485.7,381.7,486.9L381.7,486.9z"/>
</g>
</svg>
