<?xml version="1.0" encoding="utf-8"?>
<!-- Generator: Adobe Illustrator 26.0.0, SVG Export Plug-In . SVG Version: 6.00 Build 0)  -->
<svg version="1.1" id="katman_1" xmlns="http://www.w3.org/2000/svg" xmlns:xlink="http://www.w3.org/1999/xlink" x="0px" y="0px"
	 viewBox="0 0 367.2 560.1" style="enable-background:new 0 0 367.2 560.1;" xml:space="preserve">
<g>
	<path d="M139.9,87.6c-41.5,0-51.4-69.7-52.4-77.7c-0.4-2.9,0.8-5.9,3-7.8c2.3-1.9,5.3-2.6,8.2-1.7l87.5,26.2
		c4.3,1.3,7,5.7,6.1,10.1C188.8,54.4,173.3,87.6,139.9,87.6L139.9,87.6z M107.4,21.3c4.6,20.1,15.1,48.8,32.6,48.8
		c19.5,0,29-18.4,32.9-29.1L107.4,21.3z"/>
	<path d="M227.5,87.6c-33.4,0-48.8-33.2-52.3-50.8c-0.9-4.4,1.7-8.8,6.1-10.1l87.4-26.2c2.8-0.8,5.9-0.2,8.2,1.7
		c2.3,1.9,3.4,4.8,3,7.8C278.9,17.9,269,87.6,227.5,87.6L227.5,87.6z M194.5,41c3.8,10.8,13.3,29.1,33,29.1
		c17.5,0,27.9-28.7,32.6-48.8L194.5,41z"/>
	<path d="M358.7,280.1h-52.5c-4.2,0-7.7-2.9-8.6-7c-10.6-55.4-16.5-111.6-17.7-168h17.5c1,52.8,6.4,105.5,16,157.5h33
		c-4.2-26-6-52.4-5.3-78.8c-0.9-49.6-9.5-98.8-25.7-145.7c-0.4-1-0.6-2-0.6-3.1c0-13.1-29.5-17.5-43.8-17.5H96V0.1h175
		c6.1,0,59.4,0.9,61.2,33.3c16.7,48.4,25.5,99.2,26.2,150.4c0,66,6.2,80.6,7,82.3c2,2.7,2.3,6.2,0.8,9.1
		C365,278.2,362,280.1,358.7,280.1L358.7,280.1z"/>
	<path d="M61.2,280.1H8.7c-3.3,0-6.3-1.9-7.8-4.8s-1.2-6.5,0.8-9.1c0.8-1.6,7-16.3,7-82.3c0.7-51.2,9.6-102,26.3-150.4
		C36.8,1,90.1,0.1,96.2,0.1v17.5c-14.3,0-43.8,4.4-43.8,17.5c0,1-0.2,2.1-0.6,3.1c-16.1,46.9-24.7,96-25.6,145.7
		c0.7,26.4-1.1,52.7-5.3,78.8h33c9.6-52,15-104.6,16-157.5h17.5c-1.2,56.4-7.1,112.6-17.7,168C68.9,277.2,65.4,280.1,61.2,280.1
		L61.2,280.1z"/>
	<path d="M262.5,218.9H104.9c-3.6,0-6.9-2.3-8.2-5.7c-26.8-71.5-26.8-89.5-26.8-143.1h17.5c0,51.1,0,67.5,23.6,131.2h145.4
		C280,137.5,280,121.1,280,70.1h17.5c0,53.6,0,71.6-26.8,143.1C269.4,216.6,266.1,218.9,262.5,218.9L262.5,218.9z"/>
	<path d="M262.5,253.9H104.9c-4.8,0-8.8-3.9-8.8-8.8v-35h17.6v26.2h140v-26.2h17.5v35c0,2.3-0.9,4.5-2.6,6.2
		S264.8,253.9,262.5,253.9z"/>
	<path d="M314.9,560.1H52.5c-4.8,0-8.8-3.9-8.8-8.8c0-151.1,35.1-282.9,54-311.1l14.6,9.7c-17,25.5-49.7,150.7-51,292.6h245
		c-1.3-141.9-34-267.2-51-292.6l14.6-9.7c18.8,28.3,53.9,160,53.9,311.1c0,2.3-0.9,4.5-2.6,6.2S317.3,560.1,314.9,560.1L314.9,560.1
		z"/>
	<path d="M61.2,306.3H17.4c-4.8,0-8.8-3.9-8.8-8.8v-26.2h17.5v17.5h26.2v-17.5h17.5v26.2c0,2.3-0.9,4.5-2.6,6.2
		S63.5,306.3,61.2,306.3z"/>
	<path d="M349.9,306.3h-43.8c-4.8,0-8.8-3.9-8.8-8.8v-26.2h17.5v17.5H341v-17.5h17.7v26.2c0,2.3-0.9,4.5-2.6,6.2
		S352.3,306.3,349.9,306.3z"/>
	<path d="M122.5,551.3H105c1.7-77.9,13.6-155.2,35.4-230.1l16.7,5.1l0,0C135.8,399.6,124.1,475.2,122.5,551.3L122.5,551.3z"/>
	<path d="M244.9,551.3c-1.7-76.2-13.3-151.8-34.6-224.9l16.7-5.1l0,0c21.8,74.8,33.7,152.2,35.4,230.1L244.9,551.3z"/>
	<path d="M52.5,507.6H315v17.5H52.5V507.6z"/>
</g>
</svg>
