<?xml version="1.0" encoding="utf-8"?>
<!-- Generator: Adobe Illustrator 26.0.0, SVG Export Plug-In . SVG Version: 6.00 Build 0)  -->
<svg version="1.1" id="katman_1" xmlns="http://www.w3.org/2000/svg" xmlns:xlink="http://www.w3.org/1999/xlink" x="0px" y="0px"
	 viewBox="0 0 402.7 507.6" style="enable-background:new 0 0 402.7 507.6;" xml:space="preserve">
<g>
	<path d="M393.7,365.5l-8-261.8c-0.6-18.8-13.1-35.2-31.2-40.6l-57.3-17.2l0,0c0.7-2.6,0.1-5.4-1.6-7.5c-1.6-2.1-4.2-3.4-6.9-3.4
		c-11.4,0-21.4-7.7-24.1-18.8C262.2,6.7,253.7,0,243.9,0h-85.3c-9.8,0-18.3,6.6-20.7,16.2C135.1,27.3,125.2,35,113.8,35
		c-2.7,0-5.2,1.2-6.9,3.4c-1.7,2.1-2.2,4.9-1.6,7.5l0,0L47.9,63.1c-18.1,5.4-30.6,21.7-31.2,40.6L8.8,365.5C3.4,370.3,0,377.2,0,385
		v43.7c0,4.8,3.9,8.8,8.8,8.8h78.8v43.8c0,14.5,11.8,26.3,26.3,26.3h175c14.5,0,26.2-11.8,26.2-26.2v-43.8h78.8
		c4.8,0,8.8-3.9,8.8-8.8V385C402.5,377.2,399,370.3,393.7,365.5L393.7,365.5z M358.7,376.2V420h-17.5v-43.8H358.7z M243.9,17.4
		c0.3,0,0.5,0.2,0.7,0.2c-2.8,10-16.1,52.3-43.4,52.3c-27.6,0-40.7-42.2-43.4-52.2c0.3-0.1,0.5-0.3,0.7-0.3L243.9,17.4z M145.9,37.5
		c7.9,20.2,24.8,50,55.3,50s47.3-29.8,55.3-50c5.4,6.3,12.5,11.1,20.6,13.4C270,68.6,249.4,105,201.3,105s-68.7-36.5-75.8-54.1
		C133.4,48.5,140.6,43.8,145.9,37.5z M61.2,376.2V420H43.7v-43.8H61.2z M17.4,385c0-4.8,3.9-8.8,8.8-8.8V420h-8.8V385z M78.7,420
		v-43.8h8.8V420H78.7z M297.4,481.2c0,4.8-3.9,8.8-8.8,8.8h-175c-4.8,0-8.8-3.9-8.8-8.8V354.8c0-19.6,3.4-38.9,10.1-57.4
		c16.5-45.4,14.8-94.6-4.8-138.7l-6-13.6c-2-4.4-7.1-6.4-11.6-4.4c-4.4,2-6.4,7.1-4.4,11.6l6,13.6c17.7,39.9,19.3,84.5,4.4,125.6
		c-7.4,20.4-11.2,41.7-11.2,63.4v3.9h-61L34,104.3c0.3-11.3,7.9-21.1,18.7-24.4l58.6-17.6c10.5,22.5,36.1,60.2,89.7,60.2
		s79.2-37.7,89.7-60.2l58.6,17.6c10.8,3.3,18.4,13,18.7,24.4l7.7,254.5h-61v-3.9c0-21.7-3.8-43-11.2-63.4
		c-14.9-41.1-13.4-85.7,4.4-125.6l6-13.6c2-4.4,0-9.6-4.4-11.6s-9.6,0-11.6,4.4l-6,13.6c-19.6,44.1-21.3,93.3-4.8,138.7
		c6.7,18.4,10.1,37.8,10.1,57.4L297.4,481.2z M314.9,376.2h8.8V420h-8.8V376.2z M384.9,420h-8.7v-43.8c4.8,0,8.8,3.9,8.8,8.8
		L384.9,420L384.9,420z"/>
	<path d="M201.2,52.5c4.8,0,8.8-3.9,8.8-8.8v-8.8c0-4.8-3.9-8.8-8.8-8.8s-8.8,3.9-8.8,8.8v8.8C192.4,48.5,196.4,52.5,201.2,52.5z"/>
</g>
</svg>
