<?xml version="1.0" encoding="utf-8"?>
<!-- Generator: Adobe Illustrator 26.0.0, SVG Export Plug-In . SVG Version: 6.00 Build 0)  -->
<svg version="1.1" id="katman_1" xmlns="http://www.w3.org/2000/svg" xmlns:xlink="http://www.w3.org/1999/xlink" x="0px" y="0px"
	 viewBox="0 0 488.2 503.9" style="enable-background:new 0 0 488.2 503.9;" xml:space="preserve">
<g>
	<path d="M243.6,93.7c-11.5,31-39.5,24.8-63.8,11c-9.1-5.3-18.6-5.8-28.5-8.1c-0.6,7.1-1.2,11.9-3.3,18.6
		c45.8,16.6,145.9,15.8,191.9-0.1c-2.2-6.6-2.8-11.5-3.3-18.5c-9.9,2.3-19.4,2.8-28.6,8.1C284.4,118.2,255.7,125,243.6,93.7
		L243.6,93.7z M277.9,136.6c5.5,40,11.2,80,16.9,121.6c5.8,42.1,11.5,84.5,17.1,127.2c0.4,2.8-1.6,5.4-4.4,5.8s-5.4-1.6-5.8-4.4
		c-5.5-42.2-11.3-84.5-17.2-127.2c-5.5-39.8-11.3-81-17.1-122.3c-15.6,0.7-31.3,0.7-47,0c-5.8,41.5-11.5,82.6-17.1,122.3
		c-5.8,42.7-11.5,85-17.1,127.2c-0.4,2.8-3.1,4.8-5.9,4.4s-4.8-2.9-4.4-5.8c5.6-42.7,11.3-85.1,17.2-127.2
		c5.6-41.5,11.3-81.6,16.9-121.6c-8.5-0.6-16.7-1.3-24.5-2.5c-9.8,41-18.5,88.7-39.5,125c-1.5,2.5-4.7,3.3-7.1,1.8
		c-2.5-1.3-3.3-4.5-2-7c20.4-35,28.8-81.8,38.3-121.4c-11.8-2-22.3-4.5-30.9-7.6c-16.9,18.8-48.8,68.5-74,133
		c-27.1,69.4-48,148.2-59.5,207.3c90.3,37.7,375.8,37.7,466.1,0c-11.5-59.1-32.4-137.9-59.5-207.3c-24.7-63.4-63.8-120.6-74-133.1
		c-9,3.2-19.5,5.6-30.9,7.7c9.4,39.5,17.9,86.4,38.3,121.4c1.5,2.5,0.6,5.6-1.8,7c-2.6,1.5-5.6,0.6-7.1-1.8
		c-21.1-36.3-29.8-84.2-39.6-125.1C294.4,135.2,286.2,136,277.9,136.6L277.9,136.6z M141.2,93c-20.9-11.5-25.5-39.6-25.5-61.2
		c0-2.2,1.5-4.2,3.6-4.9l55.1-24.2c13-5.6,17.1-1.8,23.4,4.2c26.7,25.1,65.6,25.1,92.4,0c6.5-6,10.6-9.8,23.4-4.2L369.2,27
		c1.8,0.9,2.9,2.7,3.1,4.5c0.9,21.1-5.4,50.4-25.5,61.5c0.9,10.6,1.3,15.3,5.8,26.7c27.8,29.9,53.2,79.4,74.7,134.5
		c28,71.8,49.3,153.2,60.8,213.2c0.4,2.3-0.7,4.7-2.9,5.6c-89.8,41.2-392,41.1-481.9,0.1c-2.3-0.9-3.7-3.2-3.2-5.8
		c11.4-60,32.9-141.5,60.8-213.2c21.5-55.1,46.7-104.5,74.6-134.5C140,108.3,140.5,103.5,141.2,93L141.2,93z M197.7,20.2
		c9.9,16.7,25.9,31.3,46.4,31.3c20.4,0,36.4-14.6,46.4-31.3C260.3,41.6,227.7,41.6,197.7,20.2z M306.5,11.1
		c-10.3,24.3-29.7,48-57.7,50.5c0.9,39.3,14.8,56.4,54.1,34c13-7.4,32-6.7,40.5-12.9c14.8-10.6,18-30.5,18.4-47.7L306.5,11.1z
		 M238.4,61.6c-27.6-3.1-46.7-26.4-56.9-50.4l-55.3,23.9c0.4,17.2,3.6,37.2,18.5,47.7c8.3,6.1,27.5,5.5,40.4,12.9
		C223.9,117.9,237.5,101.5,238.4,61.6L238.4,61.6z"/>
</g>
</svg>
