<?xml version="1.0" encoding="utf-8"?>
<!-- Generator: Adobe Illustrator 26.0.0, SVG Export Plug-In . SVG Version: 6.00 Build 0)  -->
<svg version="1.1" id="katman_1" xmlns="http://www.w3.org/2000/svg" xmlns:xlink="http://www.w3.org/1999/xlink" x="0px" y="0px"
	 viewBox="0 0 242.6 560" style="enable-background:new 0 0 242.6 560;" xml:space="preserve">
<style type="text/css">
	.st0{fill-rule:evenodd;clip-rule:evenodd;}
</style>
<g>
	<path class="st0" d="M116.3,130c-8.3-25.2-13.4-64.4-13.4-120.7c0-9.1-11.7-12.8-16.9-5.4c-0.5,0.8-1.5,2.2-2.9,4.1
		c-2.3,3.3-4.8,7-7.5,11.1C67.9,30.8,60.1,43,52.9,55.3c-4.5,7.6-8.6,15-12.4,22.1c-13.6,25.8-21.4,46.4-21.6,61
		c0,0.4-0.1,0.8-0.1,1.4c-0.9,15,1.7,33.6,10.9,52.4c5.9,12.1,7.9,22.7,7.9,41.1c0,5.2,4.2,9.3,9.3,9.3h149.3c5.2,0,9.3-4.2,9.3-9.3
		c0-18.4,2-29,7.9-41.1c9.2-18.8,11.8-37.4,10.9-52.4c0-0.6-0.1-1-0.1-1.4c-0.2-14.6-7.9-35.2-21.6-61c-3.8-7.1-7.9-14.5-12.4-22.1
		c-7.2-12.3-15-24.6-22.7-36.2c-2.7-4.1-5.2-7.8-7.5-11.1c-1.4-2-2.3-3.4-2.9-4.1c-5.3-7.4-17-3.7-17,5.4
		c0,56.2-5.2,95.5-13.6,120.7c-1.7,5.1-3.5,9.3-5.2,12.7C119.7,139.3,118,135.1,116.3,130L116.3,130z M174.2,64.8
		c4.3,7.4,8.3,14.5,12,21.3c12.4,23.5,19.4,42.1,19.4,52.7l0.1,1c0,0.1,0,0.4,0.1,1c0.2,4.2,0.1,9.6-0.8,15.9
		c-1.3,9.2-3.9,18.4-8.2,27.2c-6.2,12.6-8.9,24-9.6,39.9h-131c-0.7-15.9-3.4-27.3-9.6-39.9c-4.3-8.8-6.9-18-8.2-27.2
		c-0.9-6.3-1-11.7-0.8-15.9c0-0.6,0.1-0.9,0.1-1l0.1-1c0-10.6,7-29.2,19.4-52.7c3.6-6.8,7.6-14,12-21.3c5.1-8.6,10.4-17.2,15.8-25.6
		c1.5,42.6,6.4,74.3,13.8,96.7c3.3,10,6.9,17.6,10.7,23.1c2.6,3.8,5,6.2,6.8,7.4c3.1,2.1,7.2,2.1,10.4,0c1.9-1.2,4.3-3.6,6.9-7.4
		c3.8-5.5,7.5-13.1,10.9-23.1c7.5-22.4,12.5-54.1,14.1-96.7C163.8,47.6,169.1,56.2,174.2,64.8L174.2,64.8z"/>
	<path class="st0" d="M90.5,399.2c-3.3,0.9-6.5-1.5-6.5-4.9v-34.6c0-3.6,3.6-6,6.9-4.8l19.7,7.4c6.4,2.4,10.7,8.6,10.7,15.5
		c0,7.4-4.9,13.8-11.9,15.9L90.5,399.2z M140,377.9c0-14.7-9.1-27.8-22.8-32.9l-19.7-7.4c-15.5-5.9-32.1,5.6-32.1,22.2v34.6
		c0,15.8,15.2,27.2,30.4,22.8l18.9-5.5C129.6,407.3,140,393.5,140,377.9L140,377.9z"/>
	<path class="st0" d="M165.6,417.2c15.2,4.4,30.4-7,30.4-22.8v-34.6c0-16.6-16.6-28.1-32.1-22.2l-19.7,7.4
		c-13.7,5.2-22.8,18.3-22.8,32.9c0,15.7,10.4,29.4,25.4,33.8L165.6,417.2z M140,377.9c0-6.9,4.3-13,10.7-15.5l19.7-7.4
		c3.3-1.3,6.9,1.2,6.9,4.8v34.6c0,3.4-3.3,5.8-6.5,4.9l-18.9-5.5C144.9,391.7,140,385.2,140,377.9L140,377.9z"/>
	<path class="st0" d="M187.4,230.3l-39.7,116.9c-2.5,7.5,4.8,14.5,12.1,11.7l10.6-4c3.3-1.3,6.9,1.2,6.9,4.8v34.6
		c0,3.4-3.3,5.8-6.5,4.9l-18.9-5.5c-1.8-0.5-3.5-1.4-5.2-2.6c-5.2-3.8-12.5-1.4-14.4,4.7L84.4,547.7c-1.9,6,2.6,12.1,8.9,12.1h134.6
		c4.7,0,8.7-3.6,9.3-8.3c3.6-30.8,5.4-62.4,5.4-94.4c0-84.6-14.1-166.1-37.7-227.4C201.8,221.8,190.2,222,187.4,230.3L187.4,230.3z
		 M224,457.3c0,28.4-1.5,56.5-4.4,84H106.1l40.8-129.5l18.7,5.4c15.2,4.4,30.4-7,30.4-22.8v-34.6c0-14-11.8-24.3-24.8-23.8l25.1-74
		C213.8,317.4,224,386.2,224,457.3L224,457.3z"/>
	<path class="st0" d="M38.3,229.7C13.5,289.9,0,367.5,0,457.3c0,32,1.9,63.6,5.4,94.4c0.5,4.7,4.5,8.3,9.3,8.3h78.6
		c4.1,0,7.7-2.6,8.9-6.5l47.9-151.9c1.2-3.8-0.2-8-3.4-10.3c-4.3-3.1-6.8-8-6.8-13.3c0-6.9,4.3-13.1,10.7-15.5l9.1-3.4
		c2.6-1,4.6-3.1,5.5-5.7l39.7-116.9c2.1-6.1-2.4-12.3-8.8-12.3H46.9C43.1,224,39.7,226.2,38.3,229.7L38.3,229.7z M183.2,242.6
		L149.1,343l-5,1.9c-13.7,5.2-22.8,18.3-22.8,32.9c0,8.9,3.4,17.3,9.2,23.7L86.4,541.2H23c-2.9-27.5-4.4-55.6-4.4-84
		c0-84.5,12.2-157.7,34.5-214.7L183.2,242.6z"/>
</g>
</svg>
