<svg xmlns="http://www.w3.org/2000/svg" viewBox="0 0 268.5 384"><g id="katman_2" data-name="katman 2"><g id="katman_1-2" data-name="katman 1"><path d="M193.51,0c1.86,1.59,4,2.92,5.52,4.81q25.49,32.63,50.79,65.39c4.27,5.51,4.19,7-.44,12.29q-12.85,14.64-25.68,29.32c-4.44,5-7.59,5-11.92-.1-3.85-4.55-7.64-9.15-12-14.41-.89,8-1.57,15.08-2.5,22.17-2,15.38,1.05,29.86,6.58,44.2q26.32,68.24,52,136.71c4.71,12.59,8.12,25.67,12,38.56,1.64,5.39.09,8.05-5.44,9.22-13.06,2.77-26.14,5.4-39.21,8.09-.59.12-1.16.32-2.06.57.51,1.93,1,3.7,1.43,5.5,1.06,4.75-.55,7.63-5.29,8.55-25.59,5-50.93,11.43-77.13,12.66A13.79,13.79,0,0,0,138,384h-7.5c-8.79-1-17.66-1.55-26.36-3.07-17.81-3.1-35.55-6.66-53.29-10.17-4.35-.86-5.9-3.67-5-8.08.4-1.92.95-3.82,1.51-6l-34.68-7.12c-2.33-.47-4.65-.93-7-1.46-5-1.13-6.71-3.85-5.18-8.76C5.68,322.75,10.23,306,16.3,289.76c16.53-44.14,33.86-88,50.56-132a78.85,78.85,0,0,0,4.2-40.46c-1-6.28-1.47-12.64-2.18-19l-1.2-1.12a10.76,10.76,0,0,1-1.14,2.73c-3.53,4.37-7.09,8.73-10.78,13-3.06,3.5-6.65,3.68-9.66.29C36.46,102.34,27,91.41,17.43,80.49c-2.41-2.76-2.32-5.64-.1-8.51Q44,37.65,70.64,3.33C71.73,1.93,73.54,1.1,75,0Zm15.75,359.29c-.1-.49-.27-1.45-.51-2.4q-16-62.34-32.08-124.69-4.86-18.84-9.68-37.7c-1-3.79.65-6.86,3.88-7.76,3.52-1,6.44.79,7.65,4.68.22.71.43,1.44.61,2.16Q198,267,216.9,340.39c.39,1.51.92,3,1.41,4.59l36.9-7.55c-4.1-12.77-7.55-25.3-12.11-37.42-16.48-43.78-33.32-87.42-50.06-131.09-3.32-8.64-3.41-8.61-12.79-8.61-32.62,0-65.23,0-97.85-.06-2.66,0-4.07.72-4.89,3.3-1,3.2-2.48,6.26-3.68,9.41C57.35,216.2,40.75,259.39,24.49,302.72c-4.23,11.26-7.38,22.92-11.12,34.69L50.21,345c.34-1.06.65-1.86.86-2.67q15.34-59.44,30.67-118.88c2.71-10.51,5.4-21,8.17-31.52,1.14-4.31,4-6.15,7.63-5.19,3.36.87,4.87,4,3.93,8-.17.73-.33,1.47-.51,2.19Q80.32,277,59.7,357.15a16.93,16.93,0,0,0-.37,2.1C109.3,375,159.13,375,209.26,359.29Zm-158.58-259c5.86-7,11.45-13.75,17-20.48,1.86-2.26,4-3.92,7.08-3s4.34,3.46,4.65,6.55c.8,7.82,1.6,15.65,2.45,23.47.65,5.9,1.37,11.79,2.06,17.69H184.44c.23-1.13.52-2.09.62-3.06,1.31-11.92,2.64-23.83,3.86-35.75.37-3.67.36-7.53,4.73-8.86s6.3,1.94,8.54,4.64l15.67,18.81L239,76.11c-.71-1-1.3-2-2-2.83q-22.6-29.16-45.19-58.36c-1.53-2-3.15-2.53-5.56-2.87-6.2-.86-10.46,1.28-13.51,6.66-2.21,3.89-5,7.47-7.14,11.4A8.65,8.65,0,0,1,159,35c-7.84,1.25-14.38,4.46-18.76,11.57-2.28,3.71-7.26,3.91-9.45.3-4.57-7.55-11.58-10.46-19.68-12.23-2.09-.45-4.14-2.48-5.56-4.29-2.21-2.83-3.7-6.21-5.78-9.16C93.3,11.91,93.25,12,82,12.11a6,6,0,0,0-5.24,2.73C68.27,26,59.66,37,51.09,48,43.9,57.3,36.72,66.57,29.43,76,36.49,84,43.38,91.92,50.68,100.25Zm31.23,47.87h104.7a50.93,50.93,0,0,1-.93-6.8c0-3.87-1.74-4.79-5.49-4.77-30.61.16-61.23.09-91.84.09a10.19,10.19,0,0,0-3,.08c-.77.24-1.82,1-2,1.64C82.78,141.5,82.41,144.71,81.91,148.12ZM108.5,12.2c2.2,3.54,4.2,6.8,6.28,10a3.16,3.16,0,0,0,1.66,1.35,40.79,40.79,0,0,1,19,9.65,38.86,38.86,0,0,1,18-9.36,4.34,4.34,0,0,0,2.48-1.41c2.2-3.26,4.21-6.65,6.44-10.23Z"/></g></g></svg>