<?xml version="1.0" encoding="utf-8"?>
<!-- Generator: Adobe Illustrator 26.0.0, SVG Export Plug-In . SVG Version: 6.00 Build 0)  -->
<svg version="1.1" id="katman_1" xmlns="http://www.w3.org/2000/svg" xmlns:xlink="http://www.w3.org/1999/xlink" x="0px" y="0px"
	 viewBox="0 0 512.6 551.9" style="enable-background:new 0 0 512.6 551.9;" xml:space="preserve">
<style type="text/css">
	.st0{fill-rule:evenodd;clip-rule:evenodd;}
</style>
<g>
	<path class="st0" d="M338.5,79.3c-3.8-7.2-7.9-14.6-12.4-22.3c-7.4-12.6-15.2-25.2-23.1-37.2c-2.8-4.2-5.3-8-7.6-11.4
		c-1.4-2-2.4-3.5-2.9-4.3c-5.4-7.6-17.3-3.8-17.3,5.5c0,57.2-5.2,97.1-13.8,122.8c-1.7,5.2-3.5,9.4-5.2,12.9
		c-1.7-3.5-3.5-7.7-5.2-12.9c-8.6-25.7-13.8-65.6-13.8-122.8c0-9.3-11.9-13-17.3-5.4c-0.5,0.8-1.5,2.2-2.9,4.3
		c-2.3,3.4-4.9,7.2-7.6,11.4c-7.9,12-15.7,24.6-23.1,37.2c-4.5,7.7-8.6,15.1-12.4,22.3c-14,26.6-21.9,47.7-22.1,62.7
		c-1,16.7,1.6,35.6,11,54.7c9.2,18.8,10.2,39.7,2.6,57.9C123.6,354.5,68.6,449.6,2.8,515.5c-2.9,2.9-3.6,7.3-1.8,11
		c1.9,3.9,6,8.9,12.9,13.6c21.1,14.5,54.6,16.7,103,0.6c0.7-0.2,2-0.6,4-1.2c3.3-0.9,7.1-1.9,11.2-2.8c15.3-3.3,30.9-4.8,45.1-3.6
		c4,0.3,7.9,0.9,11.6,1.7c20,4.2,36.1,6.4,52,6.4h31c15.9,0,32-2.1,52-6.4c3.7-0.8,7.5-1.3,11.6-1.7c14.3-1.2,29.8,0.3,45.1,3.6
		c4.1,0.9,7.9,1.8,11.2,2.8c2,0.6,3.3,1,4,1.2c48.3,16.1,81.9,13.8,103-0.6c6.9-4.7,11-9.7,12.9-13.6c1.8-3.7,1.1-8.1-1.8-11
		c-65.9-65.9-120.8-161-162.7-260.8c-7.6-18.2-6.6-39.1,2.6-57.9c9.3-19.1,12-38,11.1-53.3C360.4,127,352.5,105.9,338.5,79.3
		L338.5,79.3z M487.8,524.3c-15.7,10.8-43.1,12.6-86.2-1.7c-0.9-0.3-2.6-0.8-4.8-1.4c-3.7-1-7.8-2.1-12.4-3c-17-3.6-34.3-5.3-50.7-4
		c-4.8,0.4-9.4,1.1-13.9,2c-18.9,4-33.7,6-48.1,6h-31c-14.4,0-29.2-2-48.1-6c-4.5-0.9-9.1-1.6-13.9-2c-16.4-1.4-33.7,0.3-50.7,4
		c-4.5,1-8.7,2-12.4,3c-2.3,0.6-3.9,1.1-4.8,1.4c-43.1,14.4-70.5,12.5-86.2,1.7c-0.9-0.6-1.7-1.2-2.3-1.8
		c65.3-67.6,119.2-161.9,160.6-260.7c9.8-23.4,8.5-49.9-3-73.6c-4.4-9-7.1-18.3-8.4-27.6c-0.9-6.4-1.1-11.9-0.8-16.2
		c0-0.6,0.1-2.1,0.1-2.1c0-10.9,7.2-30.1,19.9-54.3c3.6-6.9,7.6-14.1,12-21.6c5.1-8.8,10.6-17.7,16.1-26.3
		c1.6,43.2,6.6,75.4,14.2,98.1c3.4,10.2,7.1,17.9,11,23.5c2.7,3.9,5.1,6.3,7,7.5c3.2,2.1,7.3,2.1,10.5,0c1.9-1.3,4.3-3.7,7-7.5
		c3.9-5.6,7.6-13.3,11-23.5c7.6-22.7,12.6-54.8,14.2-98.1c5.5,8.6,10.9,17.5,16.1,26.3c4.3,7.4,8.4,14.7,12,21.6
		c12.7,24.3,19.9,43.5,19.9,54.3c0.1,1.2,0.1,1.5,0.1,2.1c0.3,4.3,0.1,9.8-0.8,16.2c-1.3,9.3-4,18.7-8.4,27.6
		c-11.5,23.6-12.8,50.2-3,73.6c41.4,98.8,95.4,193,160.6,260.7C489.4,523.1,488.7,523.7,487.8,524.3L487.8,524.3z"/>
	<path class="st0" d="M169.7,219.7c1.5,11.4,0.3,22.7-3.8,33.3c-2.4,6.2,2.2,12.9,8.8,12.9h162.9c6.7,0,11.3-6.7,8.8-12.9
		c-4.1-10.5-5.3-21.8-3.8-33.3c0.8-5.7-3.7-10.8-9.4-10.8H179.1C173.4,208.9,169,214,169.7,219.7L169.7,219.7z M323.1,227.9
		c-0.1,6.4,0.5,12.8,1.9,19H187.5c1.3-6.2,1.9-12.6,1.9-19H323.1z"/>
	<path class="st0" d="M91.1,547.1c37.3-24.9,79.7-82.6,79.7-119.9c0-5.2-4.2-9.5-9.5-9.5s-9.5,4.2-9.5,9.5
		c0,29.7-38.6,82.3-71.2,104.1c-4.4,2.9-5.5,8.8-2.6,13.2C80.8,548.8,86.7,550,91.1,547.1L91.1,547.1z"/>
	<path class="st0" d="M431.8,531.3c-28.9-19.3-61.7-72.3-61.7-104.1c0-5.2-4.2-9.5-9.5-9.5s-9.5,4.2-9.5,9.5
		c0,38.6,36.3,97.3,70.2,119.9c4.4,2.9,10.3,1.7,13.2-2.6C437.4,540.1,436.2,534.2,431.8,531.3L431.8,531.3z"/>
	<path class="st0" d="M215.1,530.6c1.1-4.2,1.9-7.1,4.7-16c5.8-18.4,7.9-27.9,7.9-40c0-5.2-4.2-9.5-9.5-9.5s-9.5,4.2-9.5,9.5
		c0,9.6-1.9,17.7-7,34.3c-2.9,9.4-3.8,12.4-5,17.1c-1.3,5.1,1.8,10.2,6.9,11.5C208.7,538.8,213.8,535.7,215.1,530.6L215.1,530.6z"/>
	<path class="st0" d="M332.4,522.8c-0.8-3.2-1.6-6.2-2.9-10.7c-0.6-2.1-0.6-2.1-1.2-4.2c-0.4-1.6-0.8-2.9-1.1-4.1
		c-3.2-11.8-4.6-19.9-4.6-29.2c0-5.2-4.2-9.5-9.5-9.5s-9.5,4.2-9.5,9.5c0,11.3,1.7,20.9,5.3,34.2c0.4,1.3,0.7,2.6,1.2,4.3
		c0.6,2.1,0.6,2.1,1.2,4.2c1.2,4.3,2,7.1,2.7,10.1c1.3,5.1,6.4,8.2,11.5,6.9S333.7,527.9,332.4,522.8L332.4,522.8z"/>
</g>
</svg>
