<?xml version="1.0" encoding="utf-8"?>
<!-- Generator: Adobe Illustrator 26.0.0, SVG Export Plug-In . SVG Version: 6.00 Build 0)  -->
<svg version="1.1" id="katman_1" xmlns="http://www.w3.org/2000/svg" xmlns:xlink="http://www.w3.org/1999/xlink" x="0px" y="0px"
	 viewBox="0 0 391.8 560" style="enable-background:new 0 0 391.8 560;" xml:space="preserve">
<style type="text/css">
	.st0{fill-rule:evenodd;clip-rule:evenodd;}
</style>
<g>
	<path class="st0" d="M47.8,542.5c36-24,73.4-76.4,73.4-113.2c0-5.2-4.2-9.3-9.3-9.3s-9.3,4.2-9.3,9.3c0,29.5-33.7,76.7-65.1,97.6
		c-4.3,2.9-5.4,8.7-2.6,12.9S43.5,545.3,47.8,542.5L47.8,542.5z"/>
	<path class="st0" d="M354.2,526.9c-31.4-20.9-65.1-68.1-65.1-97.6c0-5.2-4.2-9.3-9.3-9.3c-5.2,0-9.3,4.2-9.3,9.3
		c0,36.8,37.3,89.1,73.4,113.2c4.3,2.9,10.1,1.7,12.9-2.6C359.6,535.6,358.5,529.8,354.2,526.9L354.2,526.9z"/>
	<path class="st0" d="M148.8,552.9c0.6-2.2,1.1-4.4,1.9-6.9c0.1-0.4,2.9-9.9,3.6-12.7c2.8-10.5,4.2-19,4.2-29.3
		c0-5.2-4.2-9.3-9.3-9.3c-5.2,0-9.3,4.2-9.3,9.3c0,8.5-1.1,15.4-3.5,24.4c-0.7,2.6-3.4,11.9-3.5,12.5c-0.8,2.7-1.4,5.1-2,7.5
		c-1.2,5,1.8,10.1,6.8,11.3S147.6,557.9,148.8,552.9L148.8,552.9z"/>
	<path class="st0" d="M260.8,548.4c-0.6-2.4-1.2-4.8-2-7.5c-0.2-0.6-2.9-9.9-3.5-12.5c-2.4-9.1-3.5-16-3.5-24.4
		c0-5.2-4.2-9.3-9.3-9.3c-5.2,0-9.3,4.2-9.3,9.3c0,10.3,1.3,18.8,4.2,29.3c0.7,2.8,3.5,12.3,3.6,12.7c0.7,2.5,1.3,4.7,1.9,6.9
		c1.2,5,6.3,8,11.3,6.8C259.1,558.4,262.1,553.4,260.8,548.4L260.8,548.4z"/>
	<path class="st0" d="M147.4,3.9c-1.8-2.5-4.6-3.9-7.6-3.9h-37.3c-4.6,0-8.5,3.3-9.2,7.8c-0.1,0.5-0.2,1.4-0.4,2.7
		c-0.3,2.1-0.7,4.6-1.1,7.5c-1.1,8.1-2.2,17.4-3.2,27.7c-2.9,29.5-4.7,61.3-4.7,94.3c0,1.1,0,2.9,0.2,5.5c0.2,4.2,0.6,8.9,1.2,14
		c1.7,14.5,4.8,29.1,9.7,43.1c13,37.2,10.2,76.6-8.4,108.5c-13.4,23-31.9,47.9-56.2,74.6c-1.6,2-3.2,4.3-5.3,7.6
		c-3.4,5.3-6.9,11.2-10.1,17.5c-8.1,15.8-13.4,31.7-14.7,46.8c-1.3,15.7,1.9,30,10.5,41.9c4,5.5,7,11.9,9.2,19.3
		c7.6,25.3,36.3,41.2,91.9,41.2h168c55.6,0,84.3-16,91.9-41.2c2.2-7.3,5.2-13.8,9.2-19.3c8.6-11.9,11.8-26.2,10.5-41.9
		c-1.3-15.2-6.6-31-14.7-46.8c-3.2-6.3-6.6-12.2-10.1-17.5c-2.1-3.2-3.7-5.6-4.7-6.9c-24.8-27.4-43.4-52.3-56.8-75.3
		c-18.6-31.9-21.4-71.3-8.4-108.5c4.9-14,8-28.6,9.7-43.1c0.6-5.1,1-9.8,1.2-14c0.1-2.6,0.2-4.4,0.2-5.5c0-33-1.8-64.8-4.7-94.3
		c-1-10.3-2.1-19.6-3.2-27.7c-0.4-2.9-0.8-5.4-1.1-7.5c-0.2-1.3-0.3-2.2-0.4-2.7c-0.9-4.5-4.8-7.8-9.4-7.8h-37.3
		c-3,0-5.8,1.5-7.6,3.9c-22.7,31.8-38.3,75-48.4,122.7C185.7,78.8,170.1,35.7,147.4,3.9L147.4,3.9z M351,403.4
		c3.1,4.8,6.2,10.1,9.1,15.8c7.1,13.9,11.7,27.5,12.7,39.9c1,11.6-1.3,21.4-7.1,29.5c-5.2,7.3-9.2,15.6-11.9,24.8
		c-4.9,16.2-25.9,27.9-74,27.9h-168c-48.1,0-69.1-11.7-74-27.9c-2.8-9.2-6.7-17.5-11.9-24.8c-5.8-8-8-17.9-7.1-29.5
		c1-12.4,5.6-26.1,12.7-39.9c2.9-5.7,6-11,9.1-15.8c1.8-2.8,3.2-4.8,4-5.8c24.6-27,43.9-52.9,58-77.1c21.4-36.8,24.6-81.9,9.9-124.1
		c-4.4-12.6-7.2-25.9-8.8-39.2c-0.6-4.6-0.9-8.9-1.1-12.7c-0.1-2.2-0.2-3.8-0.2-4.6c0-32.3,1.7-63.5,4.6-92.4
		c1-10.1,2.1-19.2,3.2-27.1c0.1-0.6,0.2-1.3,0.3-1.8h24.4c23.4,34.7,38.8,84.4,47.5,138.1c2.5,15.1,24.2,15.1,26.7,0
		c8.8-53.7,24.2-103.4,47.5-138.1H281c0.1,0.6,0.2,1.2,0.3,1.8c1.1,7.9,2.2,17,3.2,27.1c2.9,28.9,4.6,60.1,4.6,92.4
		c0,0.8,0,2.3-0.2,4.6c-0.2,3.8-0.6,8.1-1.1,12.7c-1.6,13.2-4.4,26.6-8.8,39.2c-14.7,42.2-11.5,87.3,9.9,124.1
		c14,24.1,33.2,49.9,58.2,77.4C348,399,349.3,400.9,351,403.4L351,403.4z"/>
	<path class="st0" d="M101.9,234.3c1.3,11.8,1,23.5-0.8,34.9c-0.9,5.7,3.5,10.8,9.2,10.8h170.9c5.7,0,10.1-5.1,9.2-10.8
		c-1.8-11.3-2-23-0.8-34.9c0.6-5.5-3.7-10.3-9.3-10.3H111.2C105.6,224,101.3,228.8,101.9,234.3L101.9,234.3z M270.3,242.6
		c-0.3,6.3-0.1,12.5,0.4,18.7H120.9c0.5-6.2,0.6-12.4,0.4-18.7L270.3,242.6L270.3,242.6z"/>
</g>
</svg>
