<?xml version="1.0" encoding="utf-8"?>
<!-- Generator: Adobe Illustrator 26.0.0, SVG Export Plug-In . SVG Version: 6.00 Build 0)  -->
<svg version="1.1" id="katman_1" xmlns="http://www.w3.org/2000/svg" xmlns:xlink="http://www.w3.org/1999/xlink" x="0px" y="0px"
	 viewBox="0 0 504.1 560" style="enable-background:new 0 0 504.1 560;" xml:space="preserve">
<style type="text/css">
	.st0{fill-rule:evenodd;clip-rule:evenodd;}
</style>
<g>
	<path class="st0" d="M177.4,102.6c-5.2,0-9.3-4.2-9.3-9.3c0-37.7-18.5-74.7-37.3-74.7c-5.2,0-9.3-4.2-9.3-9.3
		c0-5.2,4.2-9.3,9.3-9.3c33,0,56,49.2,56,93.3C186.8,98.4,182.6,102.6,177.4,102.6"/>
	<path class="st0" d="M326.8,102.6c-5.2,0-9.3-4.2-9.3-9.3c0-44.1,23-93.3,56-93.3c5.2,0,9.3,4.2,9.3,9.3c0,5.2-4.2,9.3-9.3,9.3
		c-18.8,0-37.3,37-37.3,74.7C336.1,98.4,331.9,102.6,326.8,102.6"/>
	<path class="st0" d="M339.6,522.5c28.7,0,54.1,8.3,55.4,8.8c34.4,11.5,56.5,11.6,70.4,8.4c-89.8-9.3-168.6-59.8-213.3-137.4
		c-44.6,77.4-123.3,127.9-212.9,137.3c13.9,3.1,36,3,69.9-8.3c1.7-0.6,43.3-14.2,80.4-6.3l3.1,0.7c14.6,3.1,29.6,6.3,44.2,6.3h30.5
		c14.6,0,29.6-3.2,44.2-6.3l3.1-0.7C322.9,523.2,331.4,522.5,339.6,522.5 M56.3,560c-42.2,0-54.5-22.6-55.2-23.9
		c-1.5-2.9-1.4-6.3,0.3-9.1c1.7-2.8,4.7-4.5,8-4.5c100.7-0.2,190.4-55.5,234.3-144.1c3.1-6.4,13.6-6.4,16.7,0
		c43.9,88.7,133.7,143.9,234.3,144.1c3.3,0,6.3,1.7,8,4.5s1.8,6.2,0.3,9.1c-0.9,1.8-23.3,43-113.9,12.8c-0.4-0.1-38.6-12.6-70.6-5.8
		l-3.1,0.7c-15.5,3.3-31.5,6.7-48,6.7h-30.5c-16.5,0-32.5-3.4-48-6.7l-3.1-0.7c-32.1-6.8-70.3,5.7-70.7,5.8
		C90.9,557,71.7,560,56.3,560"/>
	<path class="st0" d="M261.9,270.6c5.1,51.9,52.5,96.3,108.6,102c-24.3-44.2-41.6-82.6-49.9-102H261.9z M386.8,391.9h-4
		c-74.6,0-140-61.1-140-130.7c0-5.2,4.2-9.3,9.3-9.3h74.7c3.8,0,7.2,2.3,8.6,5.7c7.6,18.1,28.5,66,59.5,120.3c1.6,2.9,1.6,6.4,0,9.3
		C393.1,390.1,390.1,391.9,386.8,391.9L386.8,391.9z"/>
	<path class="st0" d="M183.6,270.6c-8.3,19.4-25.6,57.8-49.9,102c56-5.8,103.4-50.1,108.6-102H183.6z M121.4,391.9h-4
		c-3.3,0-6.4-1.8-8.1-4.6c-1.7-2.9-1.7-6.4,0-9.3c31-54.4,51.9-102.3,59.5-120.3c1.4-3.5,4.8-5.7,8.6-5.7h74.7
		c5.2,0,9.3,4.2,9.3,9.3C261.4,330.8,196,391.9,121.4,391.9L121.4,391.9z"/>
	<path class="st0" d="M494.8,541.2c-2.4,0-4.8-0.9-6.6-2.7c-36-36-72.9-86.9-109.5-151.3c-2.6-4.5-1-10.2,3.5-12.7
		c4.5-2.6,10.2-1,12.7,3.5c35.8,62.9,71.7,112.5,106.5,147.4c3.6,3.6,3.6,9.5,0,13.2C499.5,540.3,497.2,541.2,494.8,541.2"/>
	<path class="st0" d="M9.4,541.2c-2.4,0-4.8-0.9-6.6-2.7c-3.6-3.6-3.6-9.5,0-13.2c34.8-34.8,70.7-84.4,106.5-147.4l16.2,9.2
		C88.8,451.5,52,502.4,16,538.4C14.2,540.3,11.8,541.2,9.4,541.2"/>
	<path class="st0" d="M167.5,185.4c11,13.2,17.8,36.8,19.1,65.9c30.8-4.3,54.8-30.2,56.2-61.9l-59.4-84.8c-2.2-3.1-7.8-2-8.6,1.7
		l-12,54.1c-1.9,8.5-0.2,17.4,4.5,24.7C167.3,185.1,167.3,185.2,167.5,185.4 M177.4,270.6c-5.1,0-9.3-4.2-9.3-9.3
		c-0.1-29.2-5.8-53.2-15.2-64.2c-0.3-0.3-0.5-0.6-0.7-1c-8-12.2-10.6-26.4-7.6-39.7l12-54.1c2.4-10.8,11.8-18.4,22.9-18.4
		c7.6,0,14.8,3.7,19.2,10l61.1,87.3c1.1,1.6,1.7,3.4,1.7,5.3C261.4,232.9,223.7,270.6,177.4,270.6"/>
	<path class="st0" d="M344.7,190.2L344.7,190.2L344.7,190.2z M261.5,189.4c1.4,31.9,25.7,57.9,56.8,61.9
		c2.1-25.8,8.4-48.6,17.8-65.1c0.1-0.2,0.6-1,0.8-1.2c4.7-7.2,6.4-16.2,4.5-24.7l-12-54.1c-0.8-3.7-6.4-4.8-8.6-1.7L261.5,189.4z
		 M327.1,270.6c-46.6,0-84.3-37.7-84.3-84c0-1.9,0.6-3.8,1.7-5.3l61.1-87.4c4.4-6.3,11.6-10,19.2-10c11.1,0,20.5,7.6,22.9,18.4
		l12,54.1c3,13.3,0.4,27.5-7.1,39l0,0l-0.5,0.8c-8.7,15.2-14.5,39.2-15.7,65.5C336.2,266.6,332.1,270.6,327.1,270.6L327.1,270.6z"/>
</g>
</svg>
