<?xml version="1.0" encoding="utf-8"?>
<!-- Generator: Adobe Illustrator 26.0.0, SVG Export Plug-In . SVG Version: 6.00 Build 0)  -->
<svg version="1.1" id="katman_1" xmlns="http://www.w3.org/2000/svg" xmlns:xlink="http://www.w3.org/1999/xlink" x="0px" y="0px"
	 viewBox="0 0 504 560" style="enable-background:new 0 0 504 560;" xml:space="preserve">
<style type="text/css">
	.st0{fill-rule:evenodd;clip-rule:evenodd;}
</style>
<g>
	<path class="st0" d="M177.4,102.6c-5.2,0-9.3-4.2-9.3-9.3c0-37.7-18.5-74.7-37.3-74.7c-5.2,0-9.3-4.2-9.3-9.3
		c0-5.2,4.2-9.3,9.3-9.3c33,0,56,49.2,56,93.3C186.8,98.4,182.6,102.6,177.4,102.6"/>
	<path class="st0" d="M326.8,102.6c-5.2,0-9.3-4.2-9.3-9.3c0-44.1,23-93.3,56-93.3c5.2,0,9.3,4.2,9.3,9.3c0,5.2-4.2,9.3-9.3,9.3
		c-18.8,0-37.3,37-37.3,74.7C336.1,98.4,331.9,102.6,326.8,102.6"/>
	<path class="st0" d="M186.6,251.9h131.7c2.1-26,8.4-49,17.9-65.6c0.1-0.2,0.7-1.1,0.8-1.3c4.7-7.2,6.3-16.2,4.5-24.6l-12-54.1
		c-0.8-3.7-6.4-4.8-8.6-1.7l-61.2,87.3c-3.5,5-11.8,5-15.3,0l-61.1-87.3c-2.2-3.1-7.8-2-8.6,1.7l-12,54.1
		c-1.9,8.5-0.2,17.4,4.5,24.7c0,0,0.1,0.2,0.2,0.3C178.5,198.7,185.3,222.6,186.6,251.9 M327.1,270.6H177.4c-5.1,0-9.3-4.2-9.3-9.3
		c-0.1-29.2-5.8-53.2-15.2-64.2c-0.3-0.3-0.5-0.6-0.7-1l-0.5-0.8c-7.5-11.4-10.1-25.6-7.1-38.9l12-54.1
		c2.4-10.8,11.8-18.4,22.9-18.4c7.7,0,14.8,3.7,19.2,10l53.5,76.4l53.4-76.4c4.4-6.3,11.6-10,19.2-10c11.1,0,20.5,7.6,22.9,18.4
		l12,54.1c3,13.3,0.4,27.5-7.1,39l-0.5,0.8c-8.7,15.1-14.5,39.2-15.6,65.5C336.2,266.6,332.1,270.6,327.1,270.6"/>
	<path class="st0" d="M233.6,270.6c4.7,132.4,108.6,240.3,239.6,251.1c-77.6-85.2-133.5-206.4-152.6-251.1H233.6L233.6,270.6z
		 M494.1,541.2L494.1,541.2c-154-0.4-279.4-126-279.4-280c0-5.2,4.2-9.3,9.3-9.3h102.7c3.8,0,7.2,2.3,8.6,5.7
		c12.1,28.9,77.1,177.7,166,266.6c1.7,1.7,2.7,4.1,2.7,6.6c0,1.3-0.3,2.6-0.8,3.8c-0.1,0.2-0.5,1.1-1.3,2.4
		C500.2,539.6,497.3,541.2,494.1,541.2L494.1,541.2z"/>
	<path class="st0" d="M56.3,560c-42.2,0-54.5-22.5-55.2-23.8c-1.5-2.9-1.4-6.3,0.3-9.1c1.7-2.8,4.7-4.5,8-4.5
		c100.2-0.2,190-56,234.3-145.5c2.3-4.6,7.9-6.5,12.5-4.2s6.5,7.9,4.2,12.5c-43,86.9-126.1,144.2-221.3,154.3c13.9,3.2,36,3,70-8.3
		c1.8-0.6,43.3-14.2,80.4-6.4l3.1,0.7c14.6,3.1,29.6,6.3,44.2,6.3h30.5c14.6,0,29.6-3.2,44.2-6.3l3.1-0.7
		c37.1-7.9,78.7,5.8,80.4,6.4c74.2,24.7,91.2-4.4,91.4-4.7c2.3-4.6,7.9-6.5,12.5-4.2s6.5,7.9,4.2,12.5c-0.9,1.8-23.3,44.2-114,14
		c-0.4-0.1-38.6-12.6-70.6-5.8l-3.1,0.7c-15.5,3.3-31.5,6.7-48.1,6.7h-30.5c-16.5,0-32.6-3.4-48.1-6.7l-3.1-0.7
		c-32.1-6.8-70.3,5.7-70.6,5.8C90.9,557.1,71.7,560,56.3,560"/>
	<path class="st0" d="M9.8,541.1c-2.9,0-5.7-1.4-7.5-4c-2.5-3.7-2.2-9,0.9-12.2c85.8-86,148.4-226.3,165.6-267.3c2-4.8,7.4-7,12.2-5
		c4.8,2,7,7.5,5,12.2c-17.4,41.5-80.8,183.4-168.3,271.9c-0.7,1.1-1.6,2-2.7,2.8C13.4,540.6,11.6,541.1,9.8,541.1"/>
</g>
</svg>
