<?xml version="1.0" encoding="utf-8"?>
<!-- Generator: Adobe Illustrator 26.0.0, SVG Export Plug-In . SVG Version: 6.00 Build 0)  -->
<svg version="1.1" id="katman_1" xmlns="http://www.w3.org/2000/svg" xmlns:xlink="http://www.w3.org/1999/xlink" x="0px" y="0px"
	 viewBox="0 0 439.3 437.6" style="enable-background:new 0 0 439.3 437.6;" xml:space="preserve">
<g>
	<path d="M132.2,262.6h52.5v17.5h-52.5V262.6z"/>
	<path d="M94.5,139.4l11.2,78.4c-6.8,18.5-52.3,144.1-52.3,211v8.8h332.5v-8.8c0-66.9-45.4-192.5-52.3-211l11.2-78.4l45.3,166.3
		l49.2-49.2L386.7,48.2l-0.5-1.4C373.6,18.4,345.3,0,314.2,0h-189c-31.1,0-59.3,18.4-72,46.8L0,256.5l49.2,49.2L94.5,139.4z
		 M313.5,17.6h0.7c23.9,0,45.7,14,55.7,35.7L420,251.2L399.2,272L339.5,53.3l-23.8,166.5l0.8,2.1c0.5,1.3,47.8,128.1,51.7,198.2
		H228.5V136l55-36.7l-14.6-29.2H296L313.5,17.6z M261.3,17.6h33.8l-11.7,35h-32.1L261.3,17.6z M260.9,93.3l-26.2,17.5l12.7-44.6
		L260.9,93.3z M243.1,17.6l-23.4,81.9l-23.4-81.9L243.1,17.6z M204.8,110.8l-26.3-17.5L192,66.2L204.8,110.8z M178.1,17.5l10,35H156
		l-11.7-35H178.1z M19.4,251.1L69.5,53.2c10-21.7,31.7-35.7,55.7-35.7h0.7L143.4,70h27.1l-14.6,29.2l55,36.7V420H71.2
		c3.9-70.1,51.2-196.9,51.7-198.2l0.8-2.1L99.9,53.1L40.2,271.8L19.4,251.1z"/>
	<path d="M254.7,262.6h52.5v17.5h-52.5V262.6z"/>
</g>
</svg>
