<?xml version="1.0" encoding="utf-8"?>
<!-- Generator: Adobe Illustrator 26.0.0, SVG Export Plug-In . SVG Version: 6.00 Build 0)  -->
<svg version="1.1" id="katman_1" xmlns="http://www.w3.org/2000/svg" xmlns:xlink="http://www.w3.org/1999/xlink" x="0px" y="0px"
	 viewBox="0 0 272.6 505.4" style="enable-background:new 0 0 272.6 505.4;" xml:space="preserve">
<g>
	<path d="M267.7,456.3l-50.5-218.8c-0.6-2.7-2.5-4.9-5.1-6c-4.2-11.2-4.9-23.4-1.8-35c2.8-11,6.5-21.7,11.1-32c2-4.7,4-9.4,5.8-14.2
		l0,0c6.8-15.8,9.6-33,8.1-50.1c-0.2-1.3-0.7-2.6-1.4-3.8c-9.8-14.6-15.7-31.4-17-48.9c-0.4-5-0.4-10.1,0-15.1
		c-0.1-0.8-0.1-1.7,0-2.5c2.1-5.8,1.3-12.3-1.9-17.5c-6.2-5.6-14-9.2-22.3-10.2c-2.1-0.5-4.2-1.1-6.3-1.8c-2.7-0.9-5.6-0.4-7.9,1.2
		c-1.6,0.8-2.8,2-3.6,3.6C164,27.1,153,48.9,142,70.7c-1.8,3.8-3.7,7.5-5.6,11.3c-1.8-3.8-3.6-7.6-5.5-11.4
		C120,48.9,109,26.8,98.1,5.2l0,0c-0.8-1.6-2-2.8-3.6-3.6c-2.3-1.6-5.2-2.1-7.9-1.2c-2.1,0.7-4.2,1.3-6.3,1.8
		c-8.4,1-16.4,4.6-22.7,10.3c-3.3,5.2-4,11.7-1.9,17.5c0.2,0.8,0.3,1.6,0.4,2.4c0.4,5.1,0.4,10.2,0,15.3c-1.3,17.5-7.2,34.4-17,48.9
		c-0.7,1.1-1.2,2.4-1.4,3.8c-1.4,17.1,1.4,34.3,8.1,50.1c1.8,4.7,3.7,9.4,5.8,14.2l0,0c4.6,10.3,8.3,21.1,11.1,32
		c3,11.6,2.4,23.8-1.8,35c-2.4,1-4.2,3.1-5,5.6c-9.4,33.5-18.9,78.1-28,121.3c-9.1,43.1-18.6,87.5-27.7,120.1l0,0
		c-1,4.6,1.9,9.2,6.5,10.3c42.4,10.8,85.9,16.4,129.7,16.4c43.7-0.1,87.3-5.6,129.7-16.4c4.6-1.2,7.4-5.8,6.3-10.4L267.7,456.3z
		 M241.5,423.4c-6.2-6.6-12.6-12.9-18.9-19.2c-4.8-4.7-9.5-9.4-14.1-14.1l0,0c-26.2-26.4-47.9-56.8-64.4-90.1
		c-2.8-5.8-5.2-11.2-7.3-16.5c-3.1-7.7-5.7-15.6-8-23.4h23.3l0,0c2.3,0,4.5-0.9,6.2-2.6c1.6-1.6,2.6-3.9,2.6-6.2v-3.2h39.8
		L241.5,423.4z M143.4,239.7v3.1h-14.1v-6.3h14.4L143.4,239.7z M187.2,19.3h0.7c4.1,0.9,8.1,2.2,12.1,3.7c-0.1,1.1-0.4,2.2-0.6,3.3
		c0,1.7-0.6,3.2-0.8,4.6l0,0c-0.4,6-0.4,12.1,0,18.1c1.5,19.8,7.9,38.9,18.7,55.6c0.6,13.6-2,27.2-7.4,39.6
		c-1.7,4.6-3.6,8.8-5.4,13.6c-5,11.3-9.1,23-12.2,35c-3.1,12.5-3.1,25.5,0,38h-31.1v-3.1c0-2.3-0.9-4.5-2.6-6.2
		c-1.6-1.6-3.9-2.6-6.2-2.6h-30.9c-2-20.1-0.7-40.3,3.8-59.9c7.6-27.9,18.5-54.8,32.4-80.2L187.2,19.3z M62.7,144
		c-5.4-12.5-8-26-7.4-39.6C66.1,87.7,72.5,68.6,74,48.8c0.4-6.1,0.4-12.1,0-18.2c0-1.2-0.4-2.8-0.8-4.5s-0.4-2.2-0.6-3.2l0,0
		c3.9-1.6,8-2.8,12.1-3.8h0.7l29.9,59.6c3.9,7.9,7.8,15.8,11.5,23.7l0,0c-7.9,16.8-14.1,34.4-18.5,52.5c-5.7,24.9-6.7,50.5-3.1,75.8
		H80.1c3.1-12.4,3.1-25.4,0-37.9c-3.1-12-7.1-23.7-12.2-35C66.5,153.1,64.4,148.6,62.7,144L62.7,144z M71.5,249c0,0,0.6,0,0.8-0.7
		h36.3l0,0c2.9,14.3,7.1,28.3,12.5,41.9c1.8,4.5,3.8,8.8,5.9,13.6c-16.2,31.9-37.3,61.1-62.6,86.5c-4.6,4.7-9.4,9.4-14.1,14.1
		s-11.9,11.9-17.5,18c4.4-19.6,8.8-40.2,13-60.4c8-40.2,16.7-81.3,25.3-113.4L71.5,249z M19.8,474.4c1.2-4.6,2.5-9.5,3.8-14.4l0,0
		c11.7-15.6,24.7-30.1,38.9-43.3c4.8-4.7,9.6-9.5,14.4-14.4l0,0c23.3-23.8,43.4-50.5,59.7-79.6c16.3,29,36.3,55.7,59.7,79.4
		l14.4,14.4l0,0c14.6,13.7,27.9,28.8,39.7,45l3,12.9C176.4,492.3,96.6,492.3,19.8,474.4L19.8,474.4z"/>
</g>
</svg>
