<svg xmlns="http://www.w3.org/2000/svg" viewBox="0 0 271.28 336.6"><g id="katman_2" data-name="katman 2"><g id="katman_1-2" data-name="katman 1"><path d="M135.66,62a76.23,76.23,0,0,1,28.16-18.09,4.15,4.15,0,0,0,1.89-3,137.73,137.73,0,0,1,8.84-34.73C176.55,1,180.5-1,184.74.74c4.09,1.71,5.38,5.68,3.53,10.75-3.82,10.46-7.4,21-7.64,32.27-.09,4.14.25,8.77,2,12.39,7.61,15.57,5.49,30.49-1.72,45.37-6.46,13.32-7.76,27-2.47,41,2.11,5.6,4.1,11.26,6.53,16.72,12.62,28.31,29.17,54.33,47.08,79.47,11.51,16.18,23.78,31.82,35.71,47.69.68.9,1.43,1.75,2.05,2.68a7.33,7.33,0,0,1-7,11.53c-34.3-4.23-66.07,3.74-95.6,20.82-30.06,17.39-61.61,18.41-94.21,10.1-24.42-6.22-46.87-17-67.85-30.84-6.14-4-6.67-7.86-2.07-13.64,26-32.58,50.38-66.2,70.7-102.64,8-14.4,15.16-29.2,20.09-45,3.94-12.65,2.24-24.56-2.73-36.48a148.64,148.64,0,0,1-6.54-19A29.39,29.39,0,0,1,86.3,63c6.12-12.2,5.14-24.39,1.44-36.8-1.49-5-3.12-10-4.83-14.95S82.56,2.09,86.65.54s8.09.4,10,5.3a138.82,138.82,0,0,1,9,35.09,4.15,4.15,0,0,0,1.93,3A76.56,76.56,0,0,1,135.66,62Z"/></g></g></svg>