<svg xmlns="http://www.w3.org/2000/svg" viewBox="0 0 258 378.38"><g id="katman_2" data-name="katman 2"><g id="katman_1-2" data-name="katman 1"><path d="M198.57,122.42c-2.9,9.53-6.25,19-8.6,28.61-2.94,12,.76,23.09,6.1,33.9C201.53,196,207,207.14,211.24,218.7c5.39,14.65,5.29,30.19,4.5,45.59-1.6,31.37-6.58,62.34-11.21,93.36-.77,5.2-3.33,8.8-7.81,10.55-6.59,2.57-13.33,5.25-20.25,6.35a295.34,295.34,0,0,1-96.63-.31c-6.54-1.1-12.88-3.79-19.07-6.32-4.21-1.73-6.58-5.21-7.31-10.09-5-33.35-10.61-66.62-11.52-100.45-.55-20.14,3.3-39.22,12.45-57.22,3.22-6.34,6.24-12.78,9.36-19.17,5.62-11.51,6.81-23.41,3-35.68-2.43-7.72-5.07-15.38-8.31-23.1-1.94,7.3-3.89,14.6-5.8,21.91q-9.8,37.5-19.56,75c-2.17,8.31-4.36,9.73-12.82,8.34-4.43-.73-8.87-1.43-13.29-2.23C2.06,224.35-.28,222,0,217.06.51,209.35,1.36,201.63,2.5,194c4.81-32.24,9.16-64.56,14.88-96.64C22.26,70,28.83,42.9,34.56,15.67c.93-4.44,3.49-7.15,7.43-9.13C50.06,2.46,58.64.63,67.57,0c2.74-.18,4.08.94,4.56,3.71,1.56,9,2.89,18,5.06,26.85C83.3,55.41,97,66.85,122.49,68.82A76.35,76.35,0,0,0,149.6,66.4c15.72-4.5,25.35-15.21,29.58-30.55,2.85-10.32,4.56-21,6.52-31.5.6-3.22,1.88-4.59,5.19-4.32,9.57.78,18.87,2.55,27.06,7.81a11,11,0,0,1,4.56,5.87c5.25,22.35,11.18,44.6,15,67.2,7.39,43.45,13.57,87.11,20.2,130.69a27.59,27.59,0,0,1,.15,6.36c-.36,4.33-2.38,6.45-6.72,7.23-4.67.85-9.36,1.56-14,2.37-7.6,1.32-10.16-.3-12.14-7.87q-7.5-28.6-15-57.23-4.87-18.66-9.74-37.32c-.22-.83-.52-1.64-.77-2.46ZM129,192.08c-20.36,0-40.73,0-61.1.08-1.31,0-3.37.8-3.82,1.8-4,9-8.43,17.86-11.53,27.18-6.24,18.79-5.42,38.27-3.38,57.56,2.34,22.22,5.67,44.33,8.37,66.52.37,3.06,1.55,5,4.3,5.8,8.76,2.39,17.44,5.49,26.37,6.68a325.37,325.37,0,0,0,81.49.13c9.3-1.11,18.56-2.76,27-7.2a7.33,7.33,0,0,0,3.4-4.69c3.06-22.89,6.47-45.76,8.56-68.75a276.9,276.9,0,0,0,.16-41.14c-.88-14.85-7.69-28-14.22-41.12-1.14-2.3-2.42-2.91-4.83-2.9C169.51,192.12,149.27,192.08,129,192.08ZM192,6.25c-2.33,10.56-4.07,20.8-6.92,30.71-4.58,15.95-13.94,28.24-30.15,33.85a84.12,84.12,0,0,1-17.87,3.79,76.1,76.1,0,0,1-31.52-2.8c-19.79-6.18-29.63-21-34.27-40.12-2-8.33-3.39-16.83-5.27-26.32-6.55,1.9-13,3.74-19.34,5.63-3.53,1-4.59,3.2-3.88,7,3.9,20.48,7.5,41,11.35,61.52,1.16,6.19,2.78,12.3,4.23,18.65L95,88c9.27-2.57,15.1,1.48,16,11.11a340.05,340.05,0,0,0,16.79,77.42,29.37,29.37,0,0,0,1.39,2.93,345.73,345.73,0,0,0,15.57-62.41c1-6.91,1.48-13.92,2.75-20.79,1.32-7.18,7-10.45,13.93-8.62,3.49.92,7,1.89,10.47,2.85L199.16,98c.39-.62.7-.91.76-1.24,5.15-27,10.31-53.95,15.3-80.95a4.48,4.48,0,0,0-1.88-3.67C206.73,8.34,199.45,6.76,192,6.25ZM38.29,27.66l-1.17-.05C33.23,46.8,28.84,65.9,25.59,85.2c-5.85,34.71-11,69.53-16.41,104.32-1.32,8.63-2.16,17.34-3.27,26-.34,2.69.81,3.83,3.42,4.16a103.93,103.93,0,0,1,12.19,2c3.55.9,4.77-.26,5.65-3.66,9-35,18.26-70,27.34-105a12.27,12.27,0,0,0,0-5.46c-3.88-18.43-8-36.82-11.79-55.27C41,44.11,39.76,35.87,38.29,27.66Zm182.56,0-1.16.13c-.23,1.08-.48,2.15-.69,3.23-3.13,16.69-6.09,33.41-9.44,50.05-1.94,9.66-6.34,19.21-6.25,28.78s4.33,19.35,6.76,29c.21.85.47,1.69.69,2.53,6.72,25.72,13.48,51.43,20.1,77.17.76,3,2,3.86,5,3.18a92.74,92.74,0,0,1,11.82-1.94c3.52-.32,4.88-1.89,4.33-5.31-.14-.85-.1-1.74-.23-2.61-6.17-40.74-12-81.53-18.67-122.19C229.7,68.94,225,48.37,220.85,27.7ZM189.8,186c-.66-1.53-1.11-2.66-1.62-3.77-5.48-12.05-6.84-24.47-3-37.21,2.67-8.82,5.77-17.51,8.59-26.29,1.55-4.81,2.92-9.68,4.44-14.74-12.64-3.48-24.75-6.84-36.88-10.16-5.64-1.55-7.82,0-8.39,5.9A342.17,342.17,0,0,1,138.24,171c-1.57,4.93-3.18,9.84-4.84,15Zm-65.2-.06c-1.35-4-2.64-7.76-3.87-11.53a348.75,348.75,0,0,1-15.76-75c-.52-5.56-2.86-7.09-8.33-5.59q-14.44,4-28.87,8c-2.59.72-5.17,1.47-8.32,2.36,3.61,10.81,7,21.21,10.56,31.59s6.53,21.14,4.1,32.3c-1.31,6-3.51,11.88-5.33,17.87Zm74.53,171.92c-47.3,11.38-93.19,11.44-140,.05,1.24,1.52,2.15,3.61,3.69,4.33,4.49,2.09,9.09,4.36,13.9,5.29,32.94,6.42,66.06,6.15,99.13,1.12,6.3-1,12.41-3.54,18.43-5.85C196.12,362.09,197.3,359.79,199.13,357.84Z"/></g></g></svg>