<svg xmlns="http://www.w3.org/2000/svg" viewBox="0 0 269.77 512"><g id="katman_2" data-name="katman 2"><g id="katman_1-2" data-name="katman 1"><path d="M84,0c8.17,2.74,12.79,8.59,16,16.46,9.58,23.22,19.6,46.25,29.64,69.26.94,2.14,3.3,3.65,5,5.44,1.86-1.81,4.34-3.31,5.45-5.5,2.93-5.77,5.18-11.89,7.85-17.79,2.08-4.6,6.06-6.35,10.1-4.7s5.54,5.85,3.64,10.53c-2.81,6.93-5.74,13.83-8.84,20.63-3.49,7.67-9.47,11.89-18.05,11.84s-14.58-4.24-17.93-12c-10.35-24-20.77-47.92-30.74-72-2.29-5.56-5.25-8-11.18-7.18A59.11,59.11,0,0,1,67,15c-7,0-7.62.65-8.93,7.76-4.62,25-9,50.11-14.09,75s2,46.51,16.75,66.48c6.84,9.25,14.51,13.39,26.65,13.07,35-1,70-.38,105-.27a10.52,10.52,0,0,0,8.31-3.41c14.94-15.37,25.76-32.94,26.63-54.85.36-9.15-1.6-18.47-3.16-27.6-3.85-22.47-8.13-44.85-12.14-67.29-1.55-8.67-1.69-9-10.45-8.9-17.69.24-13.15-2.61-20.4,13.41-2.58,5.69-6.42,7.81-10.75,5.82s-5.45-6-3-11.93c.84-2,1.88-3.92,2.55-6C172.55,8.21,177.69,2.57,186,0h25c9.69,3.68,14.08,10.86,15.8,21,4.32,25.59,9.47,51,14.17,76.57,5.34,29-3,54.27-21,76.92-1.24,1.57-2.33,3.39-3.91,4.53-7.65,5.49-8.76,13-8.32,21.83.63,12.8,0,25.66.3,38.48a18.08,18.08,0,0,0,3.05,9c9.87,14.81,21.15,28.79,29.83,44.24,14.71,26.15,21.17,55.16,25.11,84.69,5.1,38.19,4.63,76.43.94,114.7C266,502.3,260.71,508.82,251,512H107c-3.76-2.23-6.28-5.26-4.78-9.84s5.39-5.21,9.7-5.2q65.49.1,131,0c7.88,0,8.42-.63,9.2-8.26a480.88,480.88,0,0,0,.86-93.31c-3.47-37.08-10.71-73.22-30.56-105.48-7.31-11.87-16.23-22.76-24.6-34a6.38,6.38,0,0,0-4.58-2q-58.24-.16-116.48,0a6.59,6.59,0,0,0-4.65,1.88C56.1,276.4,40.43,297,31.88,322.14c-9,26.53-13.81,53.79-15.78,81.61a484.4,484.4,0,0,0,1.75,86.33c.66,6.07,1.54,6.91,7.86,6.92,11.5,0,23,.05,34.49,0,4.21,0,8.08.3,9.91,4.91s-1,7.45-4.14,10.12H18C7.14,507.82,3.38,499.54,2.43,488.37-2.07,435.94-1.23,384,12.8,332.78c7.68-28,20.66-53.36,39.49-75.44,7.46-8.75,10.76-17.86,9.87-29.4-.91-11.92-.31-24-.13-36a9.84,9.84,0,0,0-3.3-7.78c-19.88-19.86-32.27-43.32-31.36-72C27.73,100.88,31,89.63,33,78.34,36.33,59.17,40,40.06,43,20.83,44.6,10.7,49.12,3.48,59,0ZM77.7,192.28v46.34H192V192.28Z"/></g></g></svg>