<?xml version="1.0" encoding="utf-8"?>
<!-- Generator: Adobe Illustrator 26.0.0, SVG Export Plug-In . SVG Version: 6.00 Build 0)  -->
<svg version="1.1" id="Jumpsuit" xmlns="http://www.w3.org/2000/svg" xmlns:xlink="http://www.w3.org/1999/xlink" x="0px" y="0px"
	 viewBox="0 0 338.2 466.2" style="enable-background:new 0 0 338.2 466.2;" xml:space="preserve">
<g>
	<path d="M264,451.7l-1.2,0.3c-1.8,0.5-3,2.4-2.5,4.2c0.4,1.6,1.8,2.6,3.3,2.6c0.3,0,0.6,0,0.9-0.1l1.2-0.3c1.8-0.5,3-2.4,2.5-4.2
		C267.7,452.3,265.8,451.2,264,451.7z"/>
	<path d="M337.9,111.5c-19.7-40.6-53.5-84-53.9-84.4c-0.2-0.2-0.4-0.4-0.6-0.6C256,0.9,235.3,0,234.4,0c-1.5-0.1-2.9,0.9-3.4,2.4
		c-1.8,5.5-4,11.8-6.8,18.6l-55.1,4.8L113.3,21c-2.3-6.5-4.4-12.7-6.1-18.5c-0.4-1.5-1.8-2.5-3.4-2.5c-0.9,0-21.7,0.9-49.2,26.7
		c-0.1,0.1-0.2,0.2-0.2,0.3c0,0-0.1,0.1-0.1,0.1C53.9,27.5,20,70.9,0.3,111.5c-0.6,1.2-0.4,2.7,0.4,3.7c0.5,0.7,13.8,16.3,70.4,43.3
		l7.6,64c0,0.1,0,0.1,0,0.1v27.2L13.9,430.3c-0.5,1.5,0,3.1,1.3,4c2.1,1.4,46.8,31.8,118.8,31.8c7.7,0,15.7-0.3,23.9-1.1
		c1.5-0.1,2.7-1.2,3-2.7l8.1-35l8.1,35c0.3,1.5,1.6,2.5,3,2.7c20.5,1.9,41,1.3,60.9-1.7c1.9-0.3,3.2-2,2.9-3.9
		c-0.3-1.9-2-3.2-3.9-2.9c-18.6,2.8-37.7,3.4-56.8,1.9l-10.9-47.1c-0.4-1.6-1.8-2.7-3.4-2.7l0,0c-1.6,0-3,1.1-3.4,2.7l-10.9,47.1
		c-72.5,6-122.6-21.7-133.5-28.3l63.3-176h25.1l-8.4,33.2c-0.5,1.8,0.7,3.7,2.5,4.2c0.3,0.1,0.6,0.1,0.8,0.1c1.5,0,2.9-1,3.3-2.6
		l8.8-34.9h104.5l8.8,34.9c0.4,1.6,1.8,2.6,3.3,2.6c0.3,0,0.6,0,0.8-0.1c1.8-0.5,3-2.3,2.5-4.2l-8.4-33.2h25.1l63.3,176
		c-4.3,2.6-14.7,8.6-30.1,14.4c-1.8,0.7-2.7,2.7-2,4.4c0.5,1.4,1.8,2.2,3.2,2.2c0.4,0,0.8-0.1,1.2-0.2c21.4-8,33.3-16.2,33.8-16.6
		c1.3-0.9,1.8-2.5,1.3-4l-65-180.7v-27.3l7.7-63.8c56.6-27,69.9-42.6,70.4-43.3C338.3,114.2,338.5,112.7,337.9,111.5z M156.2,31.6
		c-7.2,4.2-15.6,10.8-18.2,19.6c-1.4,4.6-0.1,9.3,3.3,12.6c2.1,2,4.7,3.1,7.4,3.4c-0.7,10.3,0.8,21.3,4.5,32.7
		c0.5,1.5,1.8,2.4,3.3,2.4c0.4,0,0.7-0.1,1.1-0.2c1.8-0.6,2.8-2.5,2.2-4.3c-3.7-11.3-5-22.1-4-32.2c0.6-0.4,1.3-0.8,1.8-1.3
		c4.5-3.9,8.3-10.8,11.5-20.9c3.1,10.1,6.9,17,11.5,20.9c0.1,0.1,0.2,0.2,0.4,0.3c0.5,8.3-0.4,17.5-2.6,27.4
		c-0.4,1.9,0.8,3.7,2.6,4.1c0.3,0.1,0.5,0.1,0.8,0.1c1.6,0,3-1.1,3.4-2.7c2.1-9.4,3-18.2,2.9-26.3c0.2,0,0.3,0,0.5,0
		c2.7,0,5.4-0.9,7.6-2.7c4-3.2,5.6-8.3,4.2-13.3c-2.6-8.8-10.9-15.4-18.2-19.6l39.2-3.4c-17.2,40.3-44.8,88.7-53.8,104.2
		c-23-40.1-40.3-75.2-51.5-104.3L156.2,31.6z M156.9,39.2c-3,5.3-6,12.3-7.4,21c-1.2-0.1-2.4-0.6-3.4-1.5c-0.7-0.7-2.3-2.6-1.4-5.6
		C146.3,47.4,151.6,42.7,156.9,39.2z M181.7,39.5c5.3,3.6,10.3,8.2,11.9,13.6c0.7,2.3,0,4.5-1.8,5.9c-1,0.8-2.6,1.4-4.2,1.1
		C186.6,51.3,184.3,44.6,181.7,39.5z M71,150.7c-42.5-20.5-58.7-34-63.3-38.4c15.8-32,40.1-65.2,48.8-76.8
		C62.5,48.1,77.4,86.5,71,150.7z M252.4,247.2H85.7v-21.6h18.8c1.9,0,3.4-1.5,3.4-3.4c0-1.9-1.5-3.4-3.4-3.4H85.3l-7.7-64.7
		c7.9-73-10.7-113.8-16.3-124c12.4-11.2,23.1-16.8,30-19.6c4.4-1.8,7.9-2.6,10.1-3c1.7,5.8,3.8,11.9,6.1,18.2c0,0,0,0,0,0
		c0,0,0,0.1,0,0.1C119.3,57.2,138.4,96,164.4,141c20.7,35.9,40.2,65.9,48,77.6h-60.8c-1.9,0-3.4,1.5-3.4,3.4c0,1.9,1.5,3.4,3.4,3.4
		h100.7L252.4,247.2L252.4,247.2z M252.8,218.6h-32c-4.8-7.2-26.1-39.3-49.3-79.3c6.2-10.5,39.9-68.5,58.4-113.7
		c2.7-6.6,5-12.8,6.9-18.3c5.7,1,20.9,5.3,40.1,22.6c-5.5,10.2-24.2,51-16.3,124L252.8,218.6z M267.2,150.7
		c-6.5-64.2,8.5-102.7,14.5-115.2c8.7,11.5,33,44.8,48.8,76.8C326,116.7,309.7,130.2,267.2,150.7z"/>
	<path d="M128.9,218.6h-1.4c-1.9,0-3.4,1.5-3.4,3.4c0,1.9,1.5,3.4,3.4,3.4h1.4c1.9,0,3.4-1.5,3.4-3.4
		C132.3,220.2,130.8,218.6,128.9,218.6z"/>
</g>
</svg>
