<svg xmlns="http://www.w3.org/2000/svg" viewBox="0 0 212.31 310.37"><g id="katman_2" data-name="katman 2"><g id="katman_1-2" data-name="katman 1"><path d="M169.17,0c3.2,1.64,3.08,4.22,2.32,7.24-3.81,15.14-7.4,30.35-11.32,45.47-1.5,5.8-.91,11.48.31,17.06,1.58,7.27,3.63,14.45,5.87,21.55a14.76,14.76,0,0,1,.42,8.24c-3.07,12.88-6.79,25.52-13.29,37.16-1.37,2.46-3,4.78-4.55,7.3,11,11.23,16.88,25.27,21.19,39.95,2.86,9.74,4.74,19.78,6.9,29.72,4.7,21.53,10.51,42.68,21,62.25,3,5.64,6.74,10.73,12.38,14.22,1.14.7,2.23,3,1.89,4.17a5.43,5.43,0,0,1-3.71,3.09,15.9,15.9,0,0,0-9.24,4.68c-3.21,3.24-6.57,6.34-11.18,7.47-7.38,1.8-14,.1-19.13-5.4-8.06-8.57-14.66-8.75-23.3,0-8.22,8.35-19.18,8.1-27.85.17-1.42-1.3-2.76-2.68-4.23-3.9a11.15,11.15,0,0,0-14.94,0c-1.7,1.42-3.23,3-4.9,4.5C85.54,312.14,75,312,67,304.68c-1.72-1.56-3.35-3.23-5.17-4.66a10.91,10.91,0,0,0-13.72,0c-1.75,1.35-3.31,2.94-4.94,4.45-8.36,7.73-19,7.81-27.51.19-.75-.67-1.51-1.34-2.2-2.08a15.44,15.44,0,0,0-10-5.13,4.76,4.76,0,0,1-3.34-2.77c-.34-1.18.35-3.49,1.34-4.11,9.4-5.89,13.77-15.35,17.92-24.89,9-20.64,14.07-42.38,18.38-64.4,3.34-17.07,8.54-33.62,18.36-48.3,2.11-3.17,4.68-6,7.18-9.2-7.73-10.69-12.09-23-15.61-35.67a107.77,107.77,0,0,1-2.54-10.58,11.19,11.19,0,0,1,.6-5.27c3.71-10.61,7.05-21.32,7.12-32.64,0-4-1.18-8.13-2.14-12.12Q45.81,27,40.66,6.64c-.74-2.93-.34-5.15,2.45-6.64H57.66c1,1.52,2.57,2.91,3,4.59Q66.49,27.74,71.93,51a5.15,5.15,0,0,0,3.38,4.1,61.4,61.4,0,0,1,19.4,12.64c4,3.88,7.68,8.16,11.9,12.68a9.46,9.46,0,0,1,.66-1.24A73.54,73.54,0,0,1,138,54.45a4.65,4.65,0,0,0,2.07-2.92c3.89-15.64,7.6-31.32,11.54-46.94.42-1.68,2-3.07,3-4.59Zm29.64,292c-3.63-6.07-7.65-11.9-10.75-18.19C179.28,256,173.75,237,169.79,217.64c-2.91-14.23-5.54-28.5-10.94-42.07-3.51-8.84-7.64-17.34-14.19-24.44a7.52,7.52,0,0,0-6-2.64c-19.69.11-39.41.63-59.06-.2-8.58-.37-13.39,3.1-17.31,9.63l-.93,1.56c-9.07,15.1-13.64,31.77-17,48.85-5.86,29.55-13,58.63-31,83.51,2.58,2.3,5.18,4.85,8,7.07a16.38,16.38,0,0,0,5.52,2.91c4.68,1.27,8.43-.7,11.68-4s6.75-6.34,11.44-7.65c.76-.21,1.51-1.7,1.65-2.68,1.28-9.09,2.41-18.2,3.63-27.3.4-2.95,2.15-4.55,4.47-4.27s3.66,2.2,3.41,5.17c-.2,2.31-.58,4.61-.88,6.91-.93,7.29-1.86,14.58-2.66,20.79,4.52,3.52,8.39,6.64,12.39,9.58a20.7,20.7,0,0,0,5.93,3.39c4.48,1.35,8.11-.59,11.55-3.53a75.62,75.62,0,0,1,10.5-7.42c1.5-.88,2.25-1.49,2.23-3.28-.09-8.38,0-16.76,0-25.14,0-1.2-.23-2.7.38-3.54.89-1.23,2.45-2.75,3.7-2.73s2.7,1.63,3.6,2.87c.56.76.33,2.15.34,3.25,0,8.38,0,16.76,0,25.14,0,1,.42,2.6,1,2.76,5.32,1.52,8.85,5.45,12.76,8.93,4.89,4.35,11,4.26,15.86-.19,3.95-3.58,7.62-7.49,13.05-8.81-.06-1.1-.06-1.9-.17-2.69q-1.66-12.76-3.36-25.5c-.44-3.42.68-5.48,3.19-5.92s4.21,1.18,4.68,4.66c1,7.5,2.09,15,2.9,22.51.43,4,.72,7.53,5.8,8.62,2.16.47,4,2.62,5.87,4.13,1.34,1.06,2.47,2.38,3.79,3.47a11.16,11.16,0,0,0,14.94,0C193.48,296.9,196.34,294.23,198.81,292ZM106,140.59c9.58,0,19.2-.4,28.75.16,5.51.32,8.38-1.82,10.9-6.3,6.65-11.83,10.48-24.61,13.49-37.7a3.85,3.85,0,0,0-.22-2c-3.62-10.4-6.6-20.94-7.52-32-.06-.65-1-1.75-1.46-1.75-2.59,0-5.37-.24-7.74.6a48.94,48.94,0,0,0-19.06,12c-4.79,5-8.9,10.62-13.19,16.07-1.54,2-3.19,3.34-5.57,2a9.44,9.44,0,0,1-2.94-3.34A62.41,62.41,0,0,0,83.23,68.7c-6-4.06-11.9-8.44-19.79-7.88-1.66.11-2.38.42-2.75,2.27C59,71.87,57.51,80.75,55,89.3a23.85,23.85,0,0,0-.39,14c3.53,12.34,7.25,24.55,14.79,35.2a4.52,4.52,0,0,0,4.25,2.13C84.43,140.54,95.23,140.59,106,140.59ZM49.28,8.08C53,23.2,56.6,37.92,60.22,52.63h3.93C60.51,37.58,56.92,22.77,53.36,8.08ZM152.06,52.69c3.66-14.93,7.27-29.64,10.93-44.58H158.9c-3.57,14.78-7.15,29.57-10.77,44.58Z"/></g></g></svg>