<svg xmlns="http://www.w3.org/2000/svg" viewBox="0 0 344.61 384"><g id="katman_2" data-name="katman 2"><g id="katman_1-2" data-name="katman 1"><path d="M84.07,384c-7.67-2.51-15.62-4.39-22.92-7.69a40.5,40.5,0,0,1-20.87-20.64,5.85,5.85,0,0,0-3.34-2.43c-12.89-4.23-23.45-11.61-31-23-8.3-12.53-7.91-24.41,1-36.42,39.19-52.58,78.24-105.27,117.8-157.57,5.53-7.31,6.12-14.59,4.49-22.37-7.4-35.42-15.16-70.77-22.94-106.11-.67-3.08-.54-5.56,1.72-7.79h27.75c2.47,1.38,3.16,3.5,3.12,6.26-.13,8.17-.05,16.35-.05,24.41,13.55,2.71,18,3.27,33.83,18.08,8.84-10.1,19.8-16.46,33.54-17.8,0-8.18-.18-16,.1-23.86.09-2.39,1.45-4.73,2.22-7.09h27.75c3,1.73,3.25,4.16,2.54,7.36-7.76,35.08-15.5,70.16-22.93,105.3-1.07,5-.62,10.43-.53,15.66,0,1.28,1.28,2.62,2.16,3.79,39.69,53.27,79.11,106.75,119.3,159.63,12.74,16.76,8,32.39-1.49,43.54A57,57,0,0,1,305,354a8.16,8.16,0,0,0-5.71,4.59c-6.76,12.6-18.22,19.09-31.38,23.09-3.2,1-6.52,1.56-9.79,2.32Zm87-9c26.87,0,53.74.11,80.6-.05,13.66-.07,25.73-4.63,35.47-14.43,5.56-5.59,7.61-12.12,4.24-19.79Q249,244.49,206.84,148.21a3.86,3.86,0,0,0-4.19-2.7q-31.11.12-62.23,0c-2.4,0-3.49.85-4.42,2.93Q92.91,243.91,49.77,339.37A21.6,21.6,0,0,0,48,346.53c-.52,7.12,3.56,12.05,8.62,16.18A52.42,52.42,0,0,0,90.43,375C117.29,375.06,144.16,375,171,375ZM215.26,9.19c0,8.52,0,16.85,0,25.19,0,4.18-1.51,5.62-5.66,5.61a34.86,34.86,0,0,0-16.92,4.09,46.07,46.07,0,0,0-15.24,13.61c-1.6,2.16-3.44,3.94-6.24,2.91a9.39,9.39,0,0,1-3.56-3.13C159.18,46.72,148.87,39.62,134.54,40c-3.37.09-4.55-2.16-4.62-5.13-.09-3.62,0-7.24,0-10.87V9.26H115.83L138,110.68c.92.09,1.41.18,1.9.18,21.49,0,43,0,64.48.09,2.64,0,3-1.3,3.46-3.28q7.4-34,14.87-68c2.21-10.09,4.36-20.19,6.58-30.47Zm6,143.12-.83.35L303.11,344.9c9.14-1.36,20.42-8.27,26.74-17.15,9.62-13.5,6.75-21.21.16-29.94-26.41-35-52.51-70.2-78.73-105.32ZM37.79,344.07,119.38,159.6a7.63,7.63,0,0,0-2.79,2.52q-20.19,27-40.36,54.06-31.4,42-62.8,84.07C8.59,306.7,7.71,313.48,11,320.67,16.41,332.65,26.26,339.63,37.79,344.07Zm168.3-223.76H139.18v15.9h66.91Z"/></g></g></svg>