<svg xmlns="http://www.w3.org/2000/svg" viewBox="0 0 244.21 384"><g id="katman_2" data-name="katman 2"><g id="katman_1-2" data-name="katman 1"><path d="M110.88,384c-5.7-.5-11.4-1-17.1-1.5-18.8-1.76-37.44-4.36-55.21-11.19-10.79-4.14-10.64-4.2-11-15.61a634.57,634.57,0,0,1,3.12-87.19c3.78-35.86,10.52-71.07,23.93-104.75a35,35,0,0,1,1.72-4.14,8.58,8.58,0,0,0,.56-8c-2.06-5.42-.35-10.9,1.86-16,1-2.34.75-3.5-.93-5.4-2.57-2.93-5-4.23-9.14-3.64-8,1.14-15-1.63-20.84-7.23-2.76-2.67-5.86-3.78-9.63-4.32A32.42,32.42,0,0,1,7.3,111.67,13.4,13.4,0,0,1,.5,96.05C8.45,65.88,21,38,41.85,14.34a14.68,14.68,0,0,1,6.44-4A240.57,240.57,0,0,1,105,.6a35.58,35.58,0,0,0,3.65-.6h27.75c6.93.75,14,1,20.78,2.35C170.6,5,184,8.16,197.24,11.47a14.06,14.06,0,0,1,6.61,4.47c16.89,19.46,27.88,42.16,36,66.4,1.19,3.55,2,7.21,3.27,10.74,4.15,11.93-4,20.16-13.32,21.47a29.3,29.3,0,0,0-16.3,7.17c-5.73,5-13.09,6.14-20.51,4.77-4.66-.87-5.13,3.57-7.67,5.31-.57.39-.05,2.8.38,4.14,1.94,6,3.9,11.91.82,18.16a4.24,4.24,0,0,0,.32,3.07C201,189.64,208,223.93,212.14,258.89c1.32,11.16,2.12,22.39,3,33.59.41,5.15-1.23,7.35-5,7.56s-5.88-2.09-6.19-7.15c-2.15-36-7.24-71.55-18.1-106.07-3-9.37-6.65-18.51-10-27.63-8.9,1.36-17.13,2.64-25.36,3.88-1.73.26-3.55.09-5.21.56-2.4.68-4.69,1.78-7,2.66-3,1.12-5.92,2.86-9,3.16a76.2,76.2,0,0,1-16.47,0c-3.5-.43-6.79-2.56-10.17-3.95-1.54-.63-3-1.63-4.61-1.9-8.49-1.4-17.05-2.42-25.51-4-2.72-.51-3.93-.16-5.12,2.38-7.73,16.5-12.72,33.87-16.43,51.61-9.14,43.71-12.82,88-12.76,132.56,0,3.49.48,7,.48,10.48,0,2.16,1,2.94,2.85,3.67,16.08,6.33,32.91,9.2,50,10.88a376.08,376.08,0,0,0,68.52.11c.48,0,1-.14,1.86-.28v-4.42c0-45-2.31-89.94-6.15-134.79-.16-1.92.26-4.55,1.49-5.76a6.49,6.49,0,0,1,5.69-1.21,6.57,6.57,0,0,1,3.54,4.57c1,8,1.73,16.15,2.13,24.26,1.6,32.7,3,65.41,4.55,98.11,0,.48.15,1,.32,2l31.68-4.94c0-7.74,0-15.2,0-22.67,0-2.68.55-5,3.4-6,3.5-1.31,7.5.58,7.57,4.26.18,10,0,20-.34,30-.11,3-2.71,4.32-5.49,4.77-11.21,1.83-22.43,3.61-33.64,5.41-1.09.18-2.17.39-3.49.62,0,3.58.06,6.94,0,10.3-.08,4-1.73,5.93-5.8,6.38-7.31.81-14.64,1.47-22,2.19ZM84,14.25c-10.13,2-20,3.9-29.86,6-.83.18-1.74,1.89-1.9,3-3.21,22.37-4.2,44.78-.52,67.19,1.65,10,4.23,19.93,10.7,28C65.21,122,68.94,125.71,73,127c8.17,2.52,16.83,3.49,25.31,4.92a4.82,4.82,0,0,0,3.67-1c3.77-3.65,8.24-4.94,13.34-4.8,4.25.12,8.5,0,12.75,0a16.44,16.44,0,0,1,11.56,4.53,5.44,5.44,0,0,0,3.84,1.36c7.18-.92,14.3-2.27,21.48-3.16,10-1.23,16.13-7.37,20.25-15.86a74.07,74.07,0,0,0,5.17-13.6c5.9-22.87,5.24-46,2.57-69.25C191.73,20,191.48,20,181.56,18.09c-7.07-1.32-14.2-2.33-21.44-3.51-.22,1.28-.39,1.87-.43,2.47a213.45,213.45,0,0,1-12.1,55.82C142.9,86,137.27,98.62,127.67,109c-4.2,4.55-7.09,4.46-11.15-.19C105.34,96.08,98.78,80.91,93.74,65c-1.37-4.33-.27-7,3.27-8.17s5.82.36,7.42,4.73c2.37,6.43,4.52,13,7.41,19.18,2.75,5.91,6.33,11.44,10,18,18.18-26.3,23.7-55.16,26.85-84.81-12.22-2.71-46-2.49-53.3.35.8,6.09,1.57,12.28,2.45,18.45.62,4.33-.92,7-4.58,7.62-3.4.58-5.84-1.45-6.46-5.59C85.89,28.3,85.06,21.88,84,14.25ZM205.36,36.33c0,13.82.44,27-.12,40.2s-2.81,26.38-8.34,38.9c5,.66,8.56-1.16,11.7-4.06,4.4-4.09,9.23-7,15.53-7.29,8.86-.39,9.92-2.1,7.4-10.68C225.62,73.33,217.44,54.29,205.36,36.33Zm-167.1,1c-.56.82-1.13,1.63-1.67,2.47A203.09,203.09,0,0,0,12.4,94.7c-1.82,6.45-.67,8.78,5.9,9.18a26.72,26.72,0,0,1,18.49,8.53c2.73,2.83,6.29,3.65,10.25,2.93C37.3,90,37.44,63.79,38.26,37.37Zm82.71,121h7.12c3.11,0,4.59-1.53,4.57-4.62,0-3.87,0-7.74,0-11.62,0-3.08-1.46-4.72-4.49-4.76q-7.3-.12-14.62,0c-2.84.05-4.35,1.58-4.34,4.5q0,6,0,12c0,3.13,1.56,4.56,4.64,4.51C116.22,158.35,118.6,158.38,121,158.38Zm23.12-5.44c9.52-1.66,18.69-3.15,27.81-4.9,4.63-.89,5.85-4.6,3-8.57a2.93,2.93,0,0,0-2.39-.83c-9.39,1.69-18.77,3.49-28.38,5.31ZM97.8,143.65c-8.89-1.73-17.46-3.3-26-5.09-3.08-.65-3,1.79-3.39,3.27-.4,1.78-2.06,4.7,1,5.38,9.3,2.09,18.7,3.71,28.4,5.57Z"/></g></g></svg>