<svg xmlns="http://www.w3.org/2000/svg" viewBox="0 0 244.69 408.82"><g id="katman_2" data-name="katman 2"><g id="katman_1-2" data-name="katman 1"><path d="M4.21,408.82C-.66,406-.31,401.44.44,396.91c4.35-26.07,8-52.28,13.34-78.16,8.49-41.45,20.61-81.91,38.31-120.47,6.31-13.73,14-26.83,20.9-40.29a20.15,20.15,0,0,0,2-7.05c2.09-20.6-4.65-39.91-9-59.56-3.51-16-7.33-31.84-10.9-47.79a15,15,0,0,1-.1-5.86C57,27.54,59,17.38,61,7.22,62.13,1.67,64.1.05,69.74,0S80.91,0,86.5,0c5.78.05,8,2.22,8,7.93.06,9.31-.06,18.62.11,27.93,0,1.42.87,3.56,2,4.09a67.87,67.87,0,0,1,24.52,20.56,8.16,8.16,0,0,0,1.2,1.08c3.34-3.6,6.25-7.46,9.88-10.45a126.32,126.32,0,0,1,15-10.42c2.24-1.36,3.1-2.65,3.06-5.25-.17-9-.1-18.1-.06-27.14,0-6.23,2.16-8.3,8.46-8.33,5.72,0,11.44,0,17.16,0,4.55,0,6.67,1.6,7.6,6q3.47,16.37,6.55,32.82a12.87,12.87,0,0,1-.43,5.1c-6.25,27.32-13,54.53-18.61,82-1.86,9.09-.91,18.76-1.15,28.17a5.48,5.48,0,0,0,1.11,2.51c23.31,38.06,38.54,79.47,50.44,122.23A804,804,0,0,1,244.44,397.7c.54,4.4.56,8.52-3.89,11.12Zm9.2-13H231.08c-.1-1.54-.12-2.86-.29-4.16a815.37,815.37,0,0,0-19.88-102.06c-11.15-42.28-25.57-83.3-47.93-121.17-3.59-6.07-5.21-6.73-12.56-4.78q4.54,29.52,9.1,59.08c1.09,7.09,2.27,14.17,3.25,21.28.56,4-1.79,7.1-5.36,7.59s-6.21-1.53-7.16-5.4c-.19-.77-.36-1.55-.48-2.34q-4.12-27-8.25-54c-1.37-8.88-2.78-17.77-4.16-26.63h-8.58V290.7c0,5.82-2.18,8.76-6.4,8.76s-6.37-2.94-6.4-8.76V163.23h-8.59c-1.14,7.32-2.25,14.4-3.35,21.49-3.13,20.23-6.21,40.46-9.42,60.68-.74,4.65-3.84,6.91-7.66,6.13-3.62-.74-5.51-3.9-4.83-8.31q4-26.22,8.07-52.42c1.41-9.15,2.76-18.3,4.12-27.32-6.4-1.84-10,.15-13.29,5.89-14.56,25.36-25.9,52.09-35.18,79.73-13.18,39.28-22.11,79.59-28.7,120.45C15.76,378.18,14.68,386.87,13.41,395.81ZM175.92,46.31c-3.69.48-6.73.7-9.7,1.28-12.62,2.5-23.32,8.49-30.85,19-7.41,10.32-18.55,10.84-26.08-.15a40.62,40.62,0,0,0-7.43-7.74C92.49,50.77,81.53,47,68.9,46.6c5.94,25.71,11.77,51,17.59,76.2h71.79C164.11,97.51,169.93,72.3,175.92,46.31ZM156.71,136H88.2v13.93h68.51ZM73,13,68.91,33.5,81.51,35V13Zm90.29,0V35l12.6-1.5c-1.41-7-2.76-13.73-4.12-20.52Z"/></g></g></svg>