<svg xmlns="http://www.w3.org/2000/svg" viewBox="0 0 223.88 384"><defs><style>.cls-1{fill:#fff;}</style></defs><g id="katman_2" data-name="katman 2"><g id="katman_1-2" data-name="katman 1"><path d="M22.71,384a21.45,21.45,0,0,0-2-.83C9.79,379.75,3.15,372.54,1.55,361.08.91,356.51.6,351.89.36,347.27c-.2-3.69,2.1-6.29,5.32-6.46s5.51,2.12,5.86,5.93c.41,4.48.56,9,1.23,13.43a14.57,14.57,0,0,0,12.66,12.48,14.91,14.91,0,0,0,15.45-8.89c1-2.27,1.81-4.65,2.76-7C48.94,344,62,337.14,75.13,341.49c9.3,3.09,18-1.07,21.59-10.32,4.84-12.55,18.11-18.34,31.16-14.69,10.81,3,16.68.24,21.18-10,5.53-12.65,18.56-18.69,31.87-14.73,2.15.64,4.24,1.48,6.39,2.11,6.92,2.06,12.87.09,17.23-5.68,8.3-11,9.27-23.22,6.9-36.34-4.23-23.38-15.35-42.76-32.56-58.93-7.93-7.44-15.78-15-23.22-22.89-7.78-8.3-14.12-17.57-14.79-29.53-.12-2.22,0-4.46,0-7.07-3.3.9-6.21,1.87-9.19,2.48-12.54,2.57-23.47-.92-33-9.1-2.78-2.38-3.13-5.42-1.13-7.94s5.47-3,8.31-.58c12.65,10.82,27.52,8.29,39.09-.73,5.73-4.46,8.58-10.84,10.25-17.44,1.53-6.08,1.56-12.53,2.13-18.83.25-2.71-1.17-3.52-3.9-3.52-9.11,0-18.23-.3-27.35-.54a17.36,17.36,0,0,1-4.43-.63c-2.93-.88-4.19-3.06-3.82-6a4.94,4.94,0,0,1,5-4.67c1.73-.11,3.49.14,5.23.18,8.62.18,17.24.46,25.85.47s13.59,4.17,14.53,12.75c1.61,14.75-2,28.26-10.18,40.55-8.62,12.93-8.89,24.36.95,36.48,7.21,8.89,15.48,17,23.79,24.88,13.92,13.23,26.22,27.53,33,45.77,5,13.28,8.66,26.9,7.73,41.28a46.87,46.87,0,0,1-12,28.88c-7.2,8-16.38,10.57-26.89,7.69-2-.56-4-1.29-6.06-1.95-9-2.89-16.11.31-19.73,9-4.09,9.84-11.24,15.86-21.88,17a31.74,31.74,0,0,1-11.05-1.21c-9.38-2.46-16,.47-19.74,9.24-6,14-18.51,19.9-33.33,15.6-8.87-2.58-16.4.71-19.21,9.43C50.17,373.24,43.4,380.94,31.71,384Z"/><path d="M68.46,0c.55.26,1.08.56,1.65.77,7.51,2.65,12,8.74,12,16.31S77.75,30.85,70.31,33.55c-.58.21-1.18.36-2.29.69.63,1.34,1.1,2.54,1.74,3.67C76.39,49.69,87,56.31,99.36,60.63c1.3.45,2.65.76,3.91,1.29,3.08,1.3,4.39,4,3.49,7a5.42,5.42,0,0,1-6.83,3.69C82,67.25,67.13,58,58.48,40.65c-3.45-6.91-4.25-7.31-12.3-5.74,2.22,19.21-7,31.56-23.67,39.58-1.19.57-2.62,2.25-2.63,3.43-.07,13.45,2.82,26,11.76,36.61,10.87,12.87,28.85,16.69,43,5.1,3.2-2.62,6.47-2.28,8.58.47s1.32,5.89-1.83,8.46c-9.27,7.58-19.69,11.11-31.72,8.84a5.15,5.15,0,0,0-1.11-.1,1.33,1.33,0,0,0-.51.14c2.48,24.14-3,47.12-10,69.81-5.89,19.06-12.63,37.86-18.33,57a212.53,212.53,0,0,0-8.44,56.52,35.27,35.27,0,0,1-.24,4.11c-.5,3.6-2.75,5.53-6,5.29-3.08-.23-5.15-2.34-5-5.84.29-7.86.61-15.74,1.34-23.57C4,272.52,12.92,245.91,22.24,219.39c6.56-18.63,12.3-37.49,14.3-57.24a112.89,112.89,0,0,0,.48-19c-.42-6.17-3.65-11.39-8.26-15.53C13.56,114,8.46,96.36,8.57,76.73c0-5.46,2.92-9.33,7.79-11.87a62.4,62.4,0,0,0,9.93-5.94c7.83-6.15,10.28-14.37,8.31-24.25-1.13-.1-2.22-.18-3.3-.3A17.25,17.25,0,0,1,15.61,18.8C14.7,11,19.58,3.6,27.4.83,28.1.58,28.77.28,29.46,0h8.25l11,6.29L60.21,0ZM55.94,23.13c3.43,0,6.63.52,9.54-.18a7.81,7.81,0,0,0,5-4.13c.58-1.61-.31-4.53-1.59-5.91-3.36-3.63-10-1.71-11.4,3C56.83,18.07,56.53,20.29,55.94,23.13Zm-14.08.06a72.89,72.89,0,0,0-2-8.3c-1.16-3.13-4.89-4.46-8.58-3.46A6,6,0,0,0,26.86,18c.43,3.2,2.84,5.13,6.67,5.23C36.13,23.24,38.73,23.19,41.86,23.19Z"/><path class="cls-1" d="M60.21,0,48.73,6.29,37.71,0Z"/><path d="M43.64,292.2A360.31,360.31,0,0,1,55.71,204c1.22-4.6,3.8-6.66,7.17-5.87,3.59.83,4.93,4,3.7,8.75-7.3,28.28-11.78,57-11.44,86.23.12,10.31,1.73,20.61,2.63,30.92.14,1.61.75,3.69,0,4.74-1.24,1.72-3.26,3.58-5.21,3.92-2.84.5-5-1.61-5.46-4.53-1-5.9-2-11.83-2.48-17.78C44,303.41,43.85,296.41,43.64,292.2Z"/><path d="M90.44,248.85c1-11.06,2.25-25.35,3.69-39.61.5-5,3.6-7.33,7.4-6.12,3.53,1.13,4.09,3.81,3.81,7.14-1.13,13.18-2.55,26.34-3.07,39.54-.61,15.75.36,31.45,5.08,46.67.41,1.31.93,2.59,1.33,3.9,1.09,3.6-.23,6.69-3.24,7.72a5.35,5.35,0,0,1-7.26-4c-2.4-9.78-4.78-19.6-6.3-29.53C90.75,267.2,91,259.63,90.44,248.85Z"/><path d="M131.1,219.31c.35-4.86.62-9.59,1-14.31.43-4.93,2.78-7.4,6.42-7s5.27,3.27,4.75,8.28c-1.48,14.27-1.13,28.51,3.21,42.24,2.3,7.28,5.93,14.18,9.41,21,2.13,4.2,2.27,7.18-.77,9.19s-6,1-8.71-3c-8.42-12.35-12.5-26.24-14.21-40.9C131.62,229.67,131.46,224.43,131.1,219.31Z"/></g></g></svg>