<svg xmlns="http://www.w3.org/2000/svg" viewBox="0 0 221.82 353.46"><g id="katman_2" data-name="katman 2"><g id="katman_1-2" data-name="katman 1"><path d="M53.9,93.3c0,3.49.06,7,0,10.47s-1.36,4.43-4.74,3.86c-11.09-1.86-22.16-3.81-33.26-5.57-3.41-.54-4.53-2-3.55-5.36,1-3.58,1.8-7.24,2.73-11.07a38.44,38.44,0,0,1-3.69-1.84C8.09,81.7,6.93,78,8.61,73.88,16,56,23.27,38.07,31,20.34,34.73,11.8,42,6.29,51.14,6.23,62.63,6.17,73.3,3,84.2.49c4.65-1.08,5.63-.33,5.73,4.35.21,10.23-.27,20.55.88,30.68,1.63,14.33,8.87,26,20.11,35.54,9.3-7.77,15.73-17.14,18.64-28.56a92.46,92.46,0,0,0,2.29-17.75c.38-6.85.05-13.74.11-20.62,0-3.69,1.36-4.69,4.92-3.85,4,1,8,1.86,12,3A73.06,73.06,0,0,0,168.42,6c10.41.08,18.39,5.13,22.56,14.65,7.73,17.6,14.94,35.42,22.24,53.2,2.18,5.32.25,8.71-6.41,11.74.92,3.76,1.79,7.62,2.81,11.44.8,3-.21,4.5-3.23,5-11.47,1.88-22.91,3.85-34.37,5.72-2.66.44-4-.86-4.06-3.55,0-3.61,0-7.23,0-10.86-2.75-.43-4.26.69-4.78,3.12-2,9.13-4.5,18.2-5.53,27.44-.47,4.2,1.43,9.07,3.39,13.08,7,14.47,15.07,28.47,21.77,43.08,7.85,17.11,11.08,35.71,15.46,53.9q11.63,48.24,23.2,96.48c.69,2.87.63,4.93-2.78,5.63-26,5.39-51.66,12.75-78.17,15.74a272.06,272.06,0,0,1-92-5.59c-14.36-3.29-28.76-6.42-43.14-9.62-5.76-1.28-6.08-1.7-4.75-7.2,10-41.5,19.89-83,30-124.49,4.29-17.56,11.41-34.05,20.24-49.8,3.55-6.32,7-12.68,10.56-19a22.76,22.76,0,0,0,2.46-16.65c-1.72-7.66-3.33-15.35-5.34-22.93-.41-1.55-2.38-2.68-3.64-4ZM215.35,330.67c-7.78-32.38-15.41-64.17-23.06-96-4.38-18.19-7.68-36.76-15.6-53.85-6.5-14-14-27.58-21.28-41.24-3.61-6.79-5-13.76-3.37-21.32,1.05-4.88,1.91-9.8,3-14.68.46-2.09.16-3.36-2-4.42-13.23-6.48-26.36-13.19-39.6-19.64a6.21,6.21,0,0,0-4.77,0C95.37,86,82.24,92.63,69,99.13c-2,1-2.74,2.12-2.21,4.34,1,4.13,1.63,8.33,2.63,12.45a32.17,32.17,0,0,1-3.82,25.21c-3.43,5.65-6.46,11.55-9.69,17.33a199.17,199.17,0,0,0-20.15,50.62q-8.64,35.67-17.18,71.34c-4,16.61-8,33.21-12.09,50.25,34.26,7.15,67.77,16.72,103,16.93C145.76,347.82,180.15,338.17,215.35,330.67ZM137.94,6.74c0,6.57,0,12.79,0,19,0,18.13-6.39,33.63-19.26,46.45-.65.64-1.19,1.39-1.92,2.26L140,86.05c1.22-3.64,2.3-7,3.44-10.24.74-2.13,1.36-4.75,4.49-3.61,2.79,1,2,3.26,1.28,5.37-1.27,3.72-2.46,7.47-3.69,11.25l11.73,5.8c4.94-10.73,9-21.5,7.61-32.86-2-16.44-5.39-32.7-8.29-49a3,3,0,0,0-2-1.78C149.21,9.5,143.77,8.19,137.94,6.74ZM81.87,86.07l23.28-11.68A18.38,18.38,0,0,0,104,72.94c-14-13.51-20.5-30.08-20.07-49.47.12-5.46,0-10.92,0-16.76C78.07,8.2,72.61,9.48,67.24,11.06a4.2,4.2,0,0,0-2.16,2.82C63.57,20.58,62.21,27.3,60.91,34c-2.12,11-5,21.93-4,33.35a78.53,78.53,0,0,0,7.79,27.27l11.7-5.88C75.18,85.22,74,81.94,73,78.61c-.68-2.25-2.64-5.15.93-6.37,3.86-1.33,3.91,2.4,4.77,4.67C79.82,79.81,80.75,82.78,81.87,86.07Zm84.75,1c13.31-2.68,25.62-5.25,38-7.58,3.33-.62,3.8-1.91,2.56-4.85-7-16.67-13.88-33.42-20.94-50.08-4.18-9.85-12.54-14.14-23.5-12.32,1.11,5.63,2.16,11.27,3.36,16.87C170.14,48.15,174.55,67.12,166.62,87.11Zm-107.5-75c-11.41-1-19.08,2.46-22.8,11C28.82,40.47,21.73,57.93,14.45,75.3c-1,2.51-.27,3.63,2.37,4.13,8.84,1.66,17.64,3.5,26.45,5.25,3.73.75,7.47,1.47,11.56,2.27-.36-1.28-.55-2-.77-2.69a70.63,70.63,0,0,1-2.42-33.34C53.91,38,56.58,25.2,59.12,12.13Zm115.1,79.61v9.57l29.08-4.87-2.64-10ZM21.12,86.42c-.91,3.66-1.67,6.74-2.49,10l29.05,4.87V91.69Z"/></g></g></svg>