<svg xmlns="http://www.w3.org/2000/svg" viewBox="0 0 284.71 384"><g id="katman_2" data-name="katman 2"><g id="katman_1-2" data-name="katman 1"><path d="M79.26,384c-5.43-1.83-9.7-4.9-12-10.42-.37-.87-2.33-1.48-3.56-1.49C47.79,372,31.92,372,16,372,4,372-1.83,365,.51,353.12A598.29,598.29,0,0,1,68.15,171.51c1-1.83,2.1-3.66,3.41-5.94-6.65-4.7-6.13-11.69-6-18.61.15-5.92,2.9-10.12,8.07-13,1.06-.59,2.31-2,2.33-3.12.15-12,.09-24,.06-36a7.44,7.44,0,0,0-.46-1.47C71.92,95.2,68.4,97,64.86,98.68c-7.6,3.72-13.21,2.63-18.65-3.81q-12.7-15-25.25-30.2C15.67,58.26,16.14,51,22.18,45.28,36.35,31.9,50.53,18.52,64.86,5.3c2.4-2.21,5.58-3.55,8.4-5.3h15c4.5,1.7,8.53,4,11.24,8.21a5.23,5.23,0,0,0,2.1,1.48q41.6,20.91,83-.32a5.55,5.55,0,0,0,2.12-1.48c2.7-4,6.67-6.22,11-7.89h15c4.27,3.12,8.87,5.88,12.76,9.42,12.65,11.54,25,23.36,37.52,35.09,7.11,6.68,7.55,13.54,1.3,21.06q-12.09,14.57-24.29,29.05c-5.71,6.77-11.25,7.83-19.25,3.86l-10.47-5.2a27.62,27.62,0,0,0-.4,3.11c0,11.38,0,22.75-.07,34.12,0,2.08.73,3,2.48,4a13.59,13.59,0,0,1,7.32,12.24c.18,7,.78,14.23-6.45,19.09,2.33,4.16,4.63,8.11,6.81,12.13,3.38,6.25,6.74,12.53,10,18.85,2,3.82,1.14,7.12-2,8.66s-5.91.23-7.93-3.43c-5.71-10.4-11.45-20.77-17.09-31.21a4.6,4.6,0,0,0-4.67-2.75q-56.07.12-112.13,0a4.73,4.73,0,0,0-4.7,2.71,591.19,591.19,0,0,0-70.2,185.39c-.54,2.74.06,4.56,3.14,4.57,17.37,0,34.73,0,52.4,0,.87-7.08,1.66-14,2.59-20.88q1.5-11.13,3.22-22.24c.64-4.17,3-6.13,6.45-5.74s5.21,2.92,4.68,7.16C82,333.69,80,348.29,78.14,362.91a46.17,46.17,0,0,0-.39,4.85c-.07,3,1.58,4.6,4.49,4.94a25,25,0,0,0,3,.05h114c6.81,0,8-1.44,7.38-8.31A682.53,682.53,0,0,0,175.45,217.1a21.39,21.39,0,0,1-1.07-4c-.39-3.14.86-5.45,4-6.22s5.67.59,6.75,3.78c2,6,4,12.08,5.83,18.17A684.45,684.45,0,0,1,217.32,359c.05.48.19.95.33,1.62,1.17.07,2.26.2,3.35.2q23.82,0,47.63,0c4.57,0,5.23-.87,4.35-5.37a585.25,585.25,0,0,0-40.63-127.79c-.41-.91-.86-1.81-1.21-2.74-1.35-3.56-.26-6.71,2.71-7.93s6.11,0,7.58,3.52c6.21,15,12.69,29.87,18.31,45.07a571.22,571.22,0,0,1,24.67,89.4c1.79,9.19-4.59,17-14,17.07q-24.57.12-49.13,0c-2.36,0-3.8.39-4.76,2.88-2,5.06-6.4,7.41-11.22,9.14ZM198.67,132.61v-4.38c0-14.12,0-28.25,0-42.37,0-6.67,3.86-9.06,9.79-6.14s11.87,5.84,17.73,8.9c2.18,1.14,3.62.8,5.16-1.07q12.18-14.74,24.5-29.36c1.74-2.06,1.65-3.52-.34-5.37-14-13-27.87-26.19-41.88-39.21-4.86-4.52-14.7-3.31-18.48,2.07C186.62,27.85,178,40,169.56,52.2c-5.17,7.46-12.18,11.23-21.24,11.22-3.25,0-6.5-.05-9.75,0-9.66.2-17-3.77-22.49-11.76-8.27-12.05-16.75-24-25.15-35.92C87,10.18,77.23,9.09,72.18,13.8,58.37,26.67,44.68,39.66,30.83,52.48c-2.45,2.27-2.28,3.85-.25,6.23q12,14.13,23.78,28.5c1.9,2.33,3.6,2.48,6.09,1.16,5.51-2.91,11.13-5.63,16.71-8.43,6.39-3.2,10.19-.91,10.2,6.21,0,13.25,0,26.49,0,39.74v6.72c3.36,0,6.32,0,9.29,0,4.49,0,7,2,7.11,5.44s-2.64,5.8-7.19,5.84c-5.12,0-10.25-.07-15.37.06-1.25,0-3.49.64-3.56,1.21a31.92,31.92,0,0,0-.22,9.89c.16.9,3.53,1.75,5.43,1.75q59.81.15,119.62.08c.88,0,2,.31,2.58-.1a9.47,9.47,0,0,0,3.24-3.27c.54-1.12.14-2.7.13-4.07,0-5.22-.33-5.54-5.56-5.54q-39,0-78,0a15.21,15.21,0,0,1-4.43-.46,5,5,0,0,1-3.76-5.74,5.1,5.1,0,0,1,4.74-5,26,26,0,0,1,3.75-.11h73.5ZM173.28,27.3A111,111,0,0,1,113,27.15c4.87,7.4,9.76,14.59,15.18,21.36,1.44,1.81,4.43,3.05,6.83,3.29a67.87,67.87,0,0,0,15.67,0,13.82,13.82,0,0,0,8.19-4.47C164.07,40.94,168.53,34,173.28,27.3Z"/><path d="M110.56,211.74c-.51,1.87-.81,3.2-1.23,4.5a725.75,725.75,0,0,0-20.58,76.6,10,10,0,0,1-3.51,5.71c-1.2.86-4.37.66-5.39-.35-1.42-1.4-2.63-4.23-2.22-6.07,3.43-15.46,7-30.91,11-46.22,3.06-11.57,6.8-23,10.38-34.39,1.43-4.59,5.74-6.36,8.93-3.73C109.2,208.8,109.81,210.55,110.56,211.74Z"/></g></g></svg>