<svg xmlns="http://www.w3.org/2000/svg" viewBox="0 0 336.75 465.28"><g id="katman_2" data-name="katman 2"><g id="katman_1-2" data-name="katman 1"><path d="M119.21,465.28c-9.28-1.21-18.61-2.12-27.83-3.69-25.84-4.41-50.41-12.53-73-26-5.43-3.24-5.6-3.74-3.42-9.81q31-86.17,62-172.35a28.3,28.3,0,0,0,1.42-7.93c1.33-24.65-3.33-48.83-5.9-73.18a4.7,4.7,0,0,1-.14-.89c1.11-10.76-5-15.53-14.1-19.71-18.72-8.56-36.57-18.86-52.63-31.92-6.88-5.6-6.77-5.76-2.84-13.48a437.25,437.25,0,0,1,50-77.17C64.82,14.28,81.28,4.53,100.5.43c3.68-.79,5.76.55,6.83,4.06,1.37,4.48,3.09,8.86,4.31,13.37.68,2.51,1.94,3.28,4.41,3.48,16.9,1.34,33.76,3.67,50.67,4,13.7.26,27.45-1.85,41.17-2.91a8.1,8.1,0,0,1,1.8-.21c11.55,1.7,16.48-4.3,19-14.83C230.54-.68,232-1.1,240,1.23c18.51,5.35,34.5,15.18,46.25,30.4a493.59,493.59,0,0,1,49.13,76.71c2,4,2,6.86-1.66,9.35-11.46,7.84-22.72,16-34.56,23.27-9.39,5.75-19.44,10.44-29.32,15.34a6.94,6.94,0,0,0-4.35,6.13c-2.23,19.39-5.25,38.71-6.76,58.14-1.09,14-1.05,27.94,4.16,41.92,20.25,54.38,39.46,109.14,59.24,163.69,1.59,4.41,1.18,7.11-3.18,9.16-9.69,4.58-19.29,9.35-29,14-2.4,1.14-5.24,1.45-5.88-1.65-.27-1.29,1.86-3.86,3.48-4.65,9.21-4.5,18.59-8.63,28.26-13-.69-2.24-1.1-3.8-1.64-5.3q-29.91-83.19-59.75-166.4c-1.26-3.52-2.79-5-6.68-4.76-6.47.37-13,.1-20.08.1,2.18,8.8,4.25,17.12,6.31,25.44.55,2.2,1.53,4.41,1.5,6.6,0,1.72-1.32,3.42-2,5.13-1.47-1.18-3.84-2.09-4.27-3.57-2.69-9.44-5-19-7.38-28.53-.4-1.58-.87-3.15-1.4-5.07h-4.59c-31.64,0-63.28.06-94.92-.08-3.47,0-5,.8-5.78,4.39-2,9.15-4.5,18.19-6.82,27.27-.26,1-.26,2.36-.92,3a23.58,23.58,0,0,1-4.18,2.58c-.74-1.46-2.27-3.05-2.07-4.37.67-4.32,2-8.54,3-12.79,1.61-6.44,3.24-12.87,5-19.94-8.12,0-15.9-.12-23.67.16-.93,0-2.13,2.19-2.63,3.57q-16.44,45.39-32.74,90.84Q36.35,386.62,22.54,425c-.46,1.26-.88,2.54-1.69,4.87,9.89,4.46,19.54,9.43,29.62,13.27,31.69,12.08,64.59,16.56,98.44,14.85,4.4-.22,5.83-1.8,6.69-5.84,2.74-13,5.79-26,9-38.86.49-2,2.57-3.52,3.91-5.26,1.32,1.78,3.36,3.39,3.86,5.38q5,20,9.3,40.2c.68,3.21,2,4.33,5.1,4.21,16.62-.63,33.23-1.19,49.85-1.78.6,0,1.35-.42,1.77-.18,1.61.9,3.11,2,4.65,3-1.25,1.23-2.35,3.28-3.77,3.53-5.65,1-11.4,1.36-17.11,2-1.92.22-3.83.56-5.75.85H190.07a45.11,45.11,0,0,0-4.86-.79c-8-.46-8-.43-9.92-8.42q-3.19-13.63-6.41-27.27c-3.06,9.22-5.15,18.44-7.3,27.64-1.77,7.55-1.8,7.51-9.38,8.05a29.91,29.91,0,0,0-3.92.79ZM61,29.92c1.28,2.79,2.5,5.21,3.52,7.71,12.18,29.86,15.28,61.11,14.26,93-.38,11.91-2.43,23.77-.28,35.74,1.23,6.84,1.74,13.8,2.58,20.71,1.25,10.3,2.5,20.6,3.79,31.18,6.46,0,12.51-.19,18.52.14,1.36.07,3.16,1.69,3.71,3,.3.73-1.36,2.73-2.56,3.48-1,.63-2.63.33-4,.34-4.94,0-9.88,0-14.86,0v21.13H251.33V225.25H155.44c-1.51,0-3.21.33-4.48-.24s-3.21-2.32-3-3.15c.31-1.37,1.92-2.68,3.29-3.49.91-.53,2.36-.15,3.57-.15q25.67,0,51.31,0c1.57,0,3.14-.13,5.21-.22-43-67.47-84.55-135-110.76-210.59C85.08,11.05,72.78,19.62,61,29.92Zm175-22.51c-.64,1.57-1.19,2.95-1.76,4.33-4.88,11.71-9,23.79-14.78,35.05-15.25,29.87-31.22,59.38-46.77,89.1-.82,1.55-1.26,4.25-.46,5.55q22.85,37.34,46.12,74.4c.64,1,2,2.24,3,2.26,10.11.17,20.22.1,30.51.1,1.84-15.14,3.66-29.84,5.4-44.55.85-7.2,2.61-14.49,2.11-21.6-1.41-19.67-2.14-39.27-.21-58.92s5.93-38.83,13.78-57c2.76-6.41,2.82-6.44-2.53-10.78C260.27,17,249.26,10.35,236.05,7.41Zm30.42,143c4.42-2.18,8.48-3.82,12.17-6.06,16-9.72,31.84-19.62,47.76-29.44,2.65-1.64,3-3.35,1.41-6.28C314.68,83.69,299,60.38,282.4,37.7a12.79,12.79,0,0,0-1.92-1.62C264.84,73,262.9,111,266.47,150.41ZM7.26,112.32c19.27,15.74,40.72,27,63.2,38.12C73.89,111,72.14,72.84,56.11,35.51,37.81,60.35,21.15,85.1,7.26,112.32ZM181.72,31.58c2.23,1.6,3.5,2.21,4.35,3.19,4.34,4.93,9.5,9.44,12.6,15.07,3.58,6.51-.11,13.91-6.68,16.35a39.48,39.48,0,0,1-4.15,1c-1.1,8.32-2.14,16.4-3.25,24.46-.35,2.51-1.65,4.78-4.37,3.74-1.24-.48-2.3-3.26-2.22-4.93.19-3.9,1.42-7.75,1.67-11.66.31-4.93,1.45-10.47-.29-14.72-2.76-6.77-7.61-12.69-11.5-18.85a19.46,19.46,0,0,1-1.36,3.3c-3,5-6.07,10-9,15-1,1.72-2.58,3.7-2.41,5.4.88,8.84,2.13,17.64,3.5,26.41.42,2.64,1.54,5.43-2,6.32-3.17.8-4.22-1.94-4.61-4.37-1.41-8.77-2.76-17.56-3.82-26.37-.29-2.44-.33-4-3.24-4.89a11.06,11.06,0,0,1-7.57-13.29,22,22,0,0,1,4.35-9.23c3.6-4.26,8-7.87,12.4-12.1l-38.6-3.28c14.19,36.28,32.09,70.15,51.31,104,19.37-34.1,37.94-67.93,53.6-104Zm1.62,8.57-1.06.82q2.49,9.42,5,18.84c4.86-.47,7.28-3.41,5.12-7.36C190,48,186.4,44.22,183.34,40.15Zm-28.3.14c-4.82,3.14-8.63,6.83-10.62,12.1-1.52,4-.15,6.25,4.05,7.29Z"/><path d="M263.79,449.24c1.64,2.27,3.61,4.05,3.28,4.74a7.23,7.23,0,0,1-4.1,3.61c-.84.23-3.51-2.3-3.31-3.07C260.07,452.89,261.82,451.59,263.79,449.24Z"/><path d="M133.44,221.6c-2.71,1.74-4.2,3.46-5.6,3.39s-2.77-1.91-4.15-3c1.33-1.25,2.52-3.26,4-3.54C129,218.23,130.65,220,133.44,221.6Z"/></g></g></svg>