<svg xmlns="http://www.w3.org/2000/svg" viewBox="0 0 319.28 384"><g id="katman_2" data-name="katman 2"><g id="katman_1-2" data-name="katman 1"><path d="M153.57,384c-7.76-2.05-15.12-4.88-21.13-10.52a3.78,3.78,0,0,0-3-.35c-16.73,4.69-30.74.35-42.35-12.43a4.94,4.94,0,0,0-3.47-1.4c-16.93,1.07-30.76-4.81-41.56-18-.8-1-2.78-1.37-4.21-1.35-18,.24-33.29-11.16-37.45-28.47A15.08,15.08,0,0,1,1,302.86,590.71,590.71,0,0,1,89.11,153c1.63-2,2.18-3.58,1.21-6.25a18.94,18.94,0,0,1,12.48-24.44c1.07-.33,2.14-.63,3.27-1a46.77,46.77,0,0,0-5.93-28.95c-7.49,1.85-14.48,4.17-21.67,5.23C65.1,99.6,52.75,96.06,41.34,89c-2.91-1.81-4.22-4.37-3.26-7.63,7-23.75,18-45.05,38.91-59.62A178.9,178.9,0,0,1,117.5.91,10.32,10.32,0,0,0,119.07,0h81c9.58,4.47,19.23,8.79,28.73,13.43,28.19,13.75,43.28,37.78,52,66.74,1.21,4,.21,6.36-3.72,8.76-16.79,10.27-34.4,11.71-52.75,4.73-1.73-.66-3.4-1.44-5.29-2.25a46,46,0,0,0-6,28.51c.07.8,1.47,1.81,2.45,2.12,11.85,3.73,17.35,14.32,13,25.89-.89,2.38.26,3.46,1.39,4.87,22.41,27.76,42.58,57.08,59.17,88.65,10.6,20.18,19.81,41.1,29.4,61.8a13.23,13.23,0,0,1,.47,7.94C314.8,328.77,299.1,340.48,281,340a6.64,6.64,0,0,0-4.65,1.88C266,354,253,360.05,237.07,359.26a7.58,7.58,0,0,0-6.7,2.71c-11,11.67-24.38,15.5-39.87,11.4-2.35-.61-3.83-.45-5.64,1.22-5.65,5.23-12.73,7.61-20,9.41Zm144.64-94.61C287,258.16,235.69,175.27,219,160.67l-27.8,10.67c.4.83,1,2.07,1.58,3.28,5.62,11.15,11.28,22.27,16.86,33.44,2.23,4.47.52,8.75-3.79,9.89-3.09.82-5.86-.7-7.72-4.41-6.38-12.72-12.7-25.47-19.11-38.17-.57-1.13-1.54-2.8-2.46-2.89-3.53-.33-7.12-.13-10.87-.13,0,18.4,0,35.76,0,53.13a47.88,47.88,0,0,1-.12,5.62,5.72,5.72,0,0,1-5.34,5.38c-3.23.42-5.69-.91-6.75-4a15.34,15.34,0,0,1-.55-4.79q-.06-25.32,0-50.62v-4.31a54.82,54.82,0,0,1-7.39-.39c-3.24-.61-4.82.49-6.25,3.49-6.1,12.71-12.48,25.29-18.83,37.89-2,4-5.54,5.3-9,3.62s-4.33-5.37-2.43-9.31c1.52-3.15,3.13-6.25,4.7-9.37l14.1-28c-4.93-1.44-9.71-2.51-14.22-4.25s-9-4.23-13.45-6.39C78.21,182.81,29.44,262.41,21,289.27c5.59,4.76,12,7.13,19.34,5.55,5-1.09,8.12.29,10.91,4.67A33.46,33.46,0,0,0,86.14,314c5.13-1,6.37-.47,9.27,4.05,4.47,7,10.8,11.48,19,11.64,5.48.11,11-1.41,16.45-2.7,3.6-.86,6.55-.66,8.52,2.6,7.89,13,32.38,13.13,40.31-.16,1.84-3.08,4.73-3.86,8.13-2.56,1.4.53,2.82,1,4.26,1.44,13.79,4,24.2.34,32.19-11.4,2.13-3.14,4.86-3.77,8.45-3a33.24,33.24,0,0,0,35.18-14.48c2.7-4.22,5.68-5.7,10.57-4.59C285.82,296.47,292.27,294.16,298.21,289.39ZM116.87,14.28C108.09,18.89,99.48,23.36,90.94,28a3.4,3.4,0,0,0-1.32,2.67c1,15,4.16,29.33,12.47,42.22,4.67,7.23,11.33,10.77,19.63,11.22,3.81.2,7.67-.62,11.51-.92s6.43,1.69,7.21,5.11a6.5,6.5,0,0,1-4.53,7.6,15.92,15.92,0,0,1-4,.89c-4.93.36-9.87.58-15,.87,0,.3,0,.89.11,1.48.67,7.29,1.58,14.58,1.92,21.9.11,2.56.17,4.69,2.6,5.94,3.37,1.73,6.64,4,10.23,4.89,14.24,3.33,28.75,3.3,43.22,1.94a100.59,100.59,0,0,0,17.58-3.42c5.69-1.6,7.6-5.09,7.58-10.83,0-4.24.22-8.48.62-12.7.3-3.17,1-6.31,1.58-9.36-3.3,0-6.4.2-9.46,0a53.93,53.93,0,0,1-9.21-1.5,6.24,6.24,0,0,1-4.65-7.8c.75-3.26,3.78-5.24,7.4-4.81.62.08,1.22.28,1.83.42,13.23,2.85,23.54-1.56,30.52-13.17,6.43-10.71,9-22.58,10.72-34.79.76-5.28-.53-8.2-5.44-10.38-7.45-3.31-14.62-7.26-21.89-10.92C185.5,46,133.61,45.91,116.87,14.28ZM15.73,301.49c-3.73,4.46-2.94,8.63-.45,13a24.55,24.55,0,0,0,26,12.22c4.36-.88,7,.44,9.42,4,8.52,12.69,20.47,17.76,35.54,15.14,4.06-.7,6.89.3,9.1,4,4.23,7.07,10.59,11.59,18.89,11.74,5.36.09,10.82-1.17,16.1-2.42,4.67-1.1,6.77-1.05,9.37,2.86,8.33,12.56,31.63,12.42,39.63-.13,2.46-3.85,4.71-4.29,9-2.86,1.42.47,2.82,1,4.26,1.39,13.46,3.75,24,0,31.54-11.39,2.26-3.4,5.19-3.83,8.79-3.15,14.44,2.71,27.48-2.84,35.5-15.28,2.25-3.49,4.89-4.82,9.1-4,10.5,2,21-3.31,26.15-12.7,2.42-4.37,2.73-8.37-.68-12.43a36.22,36.22,0,0,1-23.75,6.25,3.89,3.89,0,0,0-2.69,1.46c-10.69,13-24.4,18.94-41.21,17.89a5.33,5.33,0,0,0-3.77,1.51c-11.52,12.71-25.47,16.84-42.05,12.47a5,5,0,0,0-3.89.78c-16.32,13.34-36.18,13.38-52.47.12a5.48,5.48,0,0,0-4.22-.83c-16.27,4.19-30,.22-41.51-12.12a6.74,6.74,0,0,0-4.7-1.87c-16.52.82-30-5-40.52-17.82a4.2,4.2,0,0,0-3-1.56C30.69,308.52,23,306.25,15.73,301.49ZM163.08,160c3.61-.22,10.61-.44,17.55-1.12,9.36-.91,18.56-2.84,26.86-7.41a31,31,0,0,0,8.44-7.12c2.34-2.78,1.4-6.55-1.32-8.59s-5.66-1.38-8.55.67c-3.68,2.61-7.54,5.58-11.77,6.69-20.22,5.32-40.75,5.15-61.28,2-7.64-1.19-15.15-2.81-20.76-9.11-2.48-2.79-7.07-1.8-9.11,1.32-2.14,3.28-1.43,6.72,1.31,8.74a63.07,63.07,0,0,0,14.32,8.41C131.9,159.47,145.83,159.8,163.08,160ZM77.18,37.9A97.39,97.39,0,0,0,52.7,78.26c-.26.83.85,2.74,1.77,3.15a42.9,42.9,0,0,0,21.12,3.82c5.54-.43,11-1.32,16.23-4.32A100,100,0,0,1,77.18,37.9Zm150,43.58c13.75,5.7,26.8,5.41,40.07-.85A98.35,98.35,0,0,0,242,38.27,101,101,0,0,1,227.16,81.48ZM130.91,13c9.49,10.66,20.89,13.55,33.45,12.22C176,23.94,185.21,18.55,187.1,13Z"/></g></g></svg>