<svg xmlns="http://www.w3.org/2000/svg" viewBox="0 0 331.44 337.94"><g id="katman_2" data-name="katman 2"><g id="katman_1-2" data-name="katman 1"><path d="M320.17,337.94c-16.18-7.11-32.34-14.26-48.58-21.23A6.76,6.76,0,0,0,267,317q-23.31,9.1-46.52,18.49a10.4,10.4,0,0,1-8.53-.08c-14.69-6.14-29.46-12.09-44.15-18.23a8.24,8.24,0,0,0-6.87-.1c-15,6.13-30.2,12-45.24,18.17a12.17,12.17,0,0,1-10.09-.13c-14.46-6.11-29-12-43.52-18a8.05,8.05,0,0,0-6.59-.11c-15,5.89-30.1,11.66-45.15,17.47-3,1.15-6,2.71-8.83-.28s-1.1-5.87.33-8.8Q38.06,251.2,74.2,177a20.61,20.61,0,0,0,1.93-8.47c.17-10.22.33-20.47-.26-30.67-.38-6.64-2.05-13.21-3.23-20.33L43.41,136.21,0,78.67c.52-.7,1-1.42,1.53-2.06q24.87-28.87,49.7-57.78c1.52-1.76,2.22-4.23,3.72-6,1.25-1.48,3-3.14,4.75-3.49C76,6.11,92.33,3.14,108.65.15c3.55-.65,5.62.76,7,4.43,2.58,6.76,4.56,13.84,7.9,20.21,3.49,6.64,7.52,13.32,12.64,18.73C152.11,60.29,177.08,59.3,192.43,42c8.49-9.59,13.43-21,17.37-33C213-.77,213.11-.79,223.12,1.09c14.46,2.72,29,5.22,43.4,8.13A17.66,17.66,0,0,1,276.92,15c17.67,20.77,35.54,41.38,53.34,62.05.35.41.67.84,1.18,1.49L288,136.21l-33.47-21.4c-1.33,9.38-3.09,18.11-3.67,26.92-.63,9.53-.23,19.13-.07,28.7a14.62,14.62,0,0,0,1.54,5.93q36.42,75.7,73,151.36c2.53,5.24,2.28,6.59-1.84,10.22Zm-106-158.07c.35,1.59.55,2.66.81,3.71q3.76,15.19,7.53,30.37c1.34,5.44.32,8.31-3.26,9.25s-6-1.18-7.3-6.52c-2.82-11.29-5.71-22.56-8.4-33.89-.54-2.26-1.42-3-3.74-3-6.82.15-13.64,0-20.46,0H169v4c0,10.67,0,21.34,0,32a13.34,13.34,0,0,1-.47,3.89,4.89,4.89,0,0,1-5.28,3.6,4.77,4.77,0,0,1-4.78-3.81,18.22,18.22,0,0,1-.43-4.24c0-10.56,0-21.12,0-31.67v-3.74c-11.05,0-21.59-.07-32.13.12-.82,0-2.06,1.68-2.35,2.78-3,11.68-5.9,23.42-8.87,35.13-1.08,4.24-3.66,6.15-6.92,5.31s-4.68-3.73-3.66-7.92c1.1-4.48,2.25-8.95,3.36-13.42,1.79-7.2,3.56-14.39,5.44-22-8.28,0-16.07.14-23.85-.07-2.94-.08-4.43.83-5.74,3.52Q50.77,250.13,18.08,316.85c-.45.94-.85,1.91-1.47,3.31,1.47-.52,2.48-.85,3.47-1.23,11.28-4.32,22.6-8.55,33.8-13.05a12.3,12.3,0,0,1,10.08.18q22,9.29,44.2,18.1a7.68,7.68,0,0,0,5.18,0q23.19-9,46.23-18.33a11.55,11.55,0,0,1,9.46,0q22.32,9.38,44.8,18.37a7.3,7.3,0,0,0,4.88,0q23.49-9.13,46.85-18.59a10.47,10.47,0,0,1,8.82.18c10.61,4.79,21.3,9.39,32,14.05,1,.44,2.09.79,3.66,1.38-.69-1.5-1.09-2.39-1.51-3.26q-13-27-26-54-19.53-40.51-39.12-81c-.59-1.22-1.87-3-2.87-3C231.94,179.77,223.38,179.87,214.21,179.87ZM86,130.55H241c6.57-37.13,13.12-74.1,19.69-111.22-1-.29-1.81-.6-2.65-.76-11.13-2.05-22.3-3.88-33.36-6.22-3.56-.75-4.71.22-5.74,3.43a99.48,99.48,0,0,1-14,28.2C192,61.75,174.79,69,153.18,65.32,139.71,63,130,54.77,122.12,44.11c-6.55-8.83-11-18.73-14.41-29.11-.84-2.52-1.74-3.4-4.64-2.77-7.72,1.69-15.55,2.9-23.32,4.34-4.49.83-9,1.73-13.53,2.62C72.84,56.53,79.37,93.41,86,130.55Zm1.21,38.2H239.69V144.84c0-2.3-1-3.13-3.45-3.13q-72.77.12-145.51,0c-2.68,0-3.55,1.08-3.56,3.38C87.15,152.89,87.16,160.69,87.16,168.75Zm183.62-144c-4.1,23.23-8.08,45.72-12,68.21-.61,3.44-2.42,7.51-1.22,10.19s5.44,4.08,8.39,6c6.44,4.15,12.9,8.27,19.46,12.46L317.48,79ZM46,121.58c7.09-4.53,13.92-9.13,21-13.3,2.87-1.7,3.43-3.45,2.85-6.59C66.48,83.34,63.3,65,60,46.57,59,41,58,35.4,56.86,29.13L13.94,79Z"/></g></g></svg>