<svg xmlns="http://www.w3.org/2000/svg" viewBox="0 0 231.39 408.65"><g id="katman_2" data-name="katman 2"><g id="katman_1-2" data-name="katman 1"><path d="M15.79,408.65C2.6,402.83-.63,396.89.1,382.16c1.31-26.45,3.54-52.8,7.73-79,7.32-45.69,18.4-90.32,38.41-132.32,7.5-15.77,16.29-30.79,28-43.91,2-2.26,2.55-4,.85-6.88A324.8,324.8,0,0,1,41.4,36.48a149.84,149.84,0,0,0-6.35-18c-2.74-6.94-.89-10.73,6.3-12.16,10.16-2,20.32-4.08,30.49-6.07,5.28-1,9.15,1.35,9.31,6.44.46,14.67,9.16,21.81,22.17,25.42a44.93,44.93,0,0,0,31.84-2.87c8.66-4,13.58-10.72,14.13-20.5C149.7,1.4,152.83-.9,160,.49c9.91,2,19.82,3.88,29.71,5.88,6.25,1.26,8.47,4.76,6.73,10.15-4.36,13.51-8.75,27-13,40.56a319.46,319.46,0,0,1-27.91,63.31c-1.39,2.42-1.28,4,.61,6.14,19.83,22.88,32.24,49.85,42.42,78,13.09,36.13,21.3,73.42,26.52,111.43a668.86,668.86,0,0,1,6.3,82.68c.05,4.38-1.12,7.69-4.82,10ZM81.65,140.34l-1.11-.47C76,146.8,71.17,153.55,67,160.7c-17.35,30.07-27.93,62.73-36.14,96.24a623.15,623.15,0,0,0-15.75,101.9c-.7,9.28-1.15,18.58-1.58,27.87-.27,6,2.6,8.57,8.47,7.87,3.3-.4,6.61-.66,9.88-1.21,46-7.67,82.71-45.58,89.16-91.73,1-6.82.55-13-2.51-19.6a409.5,409.5,0,0,1-35.1-123.22C82.72,152.68,82.25,146.5,81.65,140.34ZM217.53,388.71c0-2,0-2.71,0-3.37A689.46,689.46,0,0,0,209,300.5c-5.59-33.48-13.53-66.35-25.68-98.1-8.72-22.78-19.16-44.67-34.66-63.82a6.82,6.82,0,0,0-6-2.84c-12.11.12-24.21,0-36.31,0H95.48a18.14,18.14,0,0,0-.17,2.7c1.27,11.49,2.08,23.06,4,34.45a398,398,0,0,0,35.1,110.87c15.51,31.77,35.14,60.71,60.81,85.25C202.05,375.64,209.47,381.66,217.53,388.71Zm-54.9-373.8c-6.48,23.67-24.46,32-46,32.31C94,47.6,75.08,39.59,68,14.91l-17.92,3.6c1.44,4.51,3,8.72,4.14,13.07C62,62.45,73.51,91.75,90,119.05c1.17,1.94,2.21,3.21,4.84,3.18,13.7-.15,27.41,0,41.11-.18a5.85,5.85,0,0,0,4.3-2.42c5.59-10.11,11.18-20.24,16.25-30.61,8.85-18.1,14.68-37.29,19.79-56.72,1.2-4.57,2.82-9,4.34-13.8Zm-29.35,296a124.51,124.51,0,0,1-22.15,48.94c-10.75,14.34-24.22,25.65-40.74,34.91H203.48C174.52,371.2,151.94,343.43,133.28,310.86Z"/></g></g></svg>