<?xml version="1.0" encoding="utf-8"?>
<!-- Generator: Adobe Illustrator 26.0.0, SVG Export Plug-In . SVG Version: 6.00 Build 0)  -->
<svg version="1.1" id="katman_1" xmlns="http://www.w3.org/2000/svg" xmlns:xlink="http://www.w3.org/1999/xlink" x="0px" y="0px"
	 viewBox="0 0 35.5 56" style="enable-background:new 0 0 35.5 56;" xml:space="preserve">
<g id="Glyph">
	<path d="M17.7,9c0.8-0.1,1.6-0.5,2.1-1.2c1.8-2,2.8-4.5,2.9-7.2c-3.2,3.6-6.7,3.6-9.9,0c0.1,2.7,1.1,5.2,2.9,7.2
		C16.2,8.5,16.9,8.9,17.7,9z M15.7,4h4v2h-4V4z"/>
	<path d="M24.7,28v-2h1.2l2.8-14.2c-1.9-1-3-2.9-3-5V0h-1c0,3.4-1.2,6.7-3.5,9.2c-0.9,1-2.2,1.7-3.5,1.8c-1.4-0.1-2.6-0.7-3.5-1.8
		c-2.3-2.5-3.5-5.8-3.5-9.2h-1v5.7c0,2.1-1.2,4.1-3.1,5L9.5,26h1.2v2H9.4L0,51.1c11.8,6.5,23.7,6.5,35.5,0L26,28H24.7z M14.7,28h-2
		v-2h2V28z M18.7,28h-2v-2h2V28z M22.7,28h-2v-2h2V28z"/>
</g>
</svg>
