<?xml version="1.0" encoding="utf-8"?>
<!-- Generator: Adobe Illustrator 26.0.0, SVG Export Plug-In . SVG Version: 6.00 Build 0)  -->
<svg version="1.1" id="katman_1" xmlns="http://www.w3.org/2000/svg" xmlns:xlink="http://www.w3.org/1999/xlink" x="0px" y="0px"
	 viewBox="0 0 43.5 57" style="enable-background:new 0 0 43.5 57;" xml:space="preserve">
<g id="Layer_33">
	<path d="M26.3,32c0.3,0,0.5-0.2,0.5-0.5c0-0.1-0.1-0.3-0.2-0.4c-1.8-1.5-5.6-4.3-11.5-8.5c-0.2-0.2-0.5-0.1-0.7,0.1
		c-0.2,0.2-0.1,0.5,0.1,0.7C20.7,27.7,24,30.5,26.3,32z"/>
	<path d="M30.7,35.6c0.3,0,0.5-0.1,0.6-0.4s-0.1-0.5-0.4-0.6c-6.1-2.4-11.7-5.9-16.7-10.1c-0.5-0.4-1.1,0.4-0.6,0.8
		C18.7,29.6,24.5,33.1,30.7,35.6z"/>
	<path d="M23.5,18c-0.2,0.2-0.1,0.5,0.1,0.7c0.1,0.1,0.2,0.1,0.3,0.1c0.2,0,0.3-0.1,0.4-0.2c2.2-2.9,5.1-5.1,8.5-6.3
		c0.3-0.1,0.4-0.4,0.3-0.7s-0.4-0.4-0.7-0.3C28.9,12.7,25.8,15,23.5,18z"/>
	<path d="M32.5,13.9c-2.1,0.4-4,1.2-5.7,2.5c-0.2,0.2-0.3,0.5-0.1,0.7c0.1,0.1,0.2,0.2,0.4,0.2c1.8-1.1,3.6-2.2,5.5-2.4
		c0.3-0.1,0.4-0.4,0.3-0.6C33,14,32.8,13.9,32.5,13.9z"/>
	<path d="M23.1,46.3c-0.3,0-0.5,0.3-0.5,0.5s0.3,0.5,0.5,0.5c5.7-1.1,9.5-2.5,11.3-4c0.5-0.4-0.2-1.2-0.7-0.7
		C32.2,43.9,28.6,45.2,23.1,46.3z"/>
	<path d="M26.2,34.3c-4-2.1-7.7-4.6-11-7.6c-0.5-0.5-1.2,0.3-0.7,0.7c3.4,3.1,7.3,5.8,11.4,7.8c0.3,0,0.5-0.2,0.5-0.5
		C26.5,34.6,26.4,34.4,26.2,34.3z"/>
	<path d="M16.1,21.8c5.7,3.6,9.8,7.5,14.2,11.4c0.3,0,0.5-0.2,0.5-0.5c0-0.1-0.1-0.3-0.1-0.4c-4.2-4.3-8.9-8.1-14-11.4
		c-0.2-0.2-0.5-0.1-0.7,0.1S15.9,21.6,16.1,21.8z"/>
	<path d="M33.8,52.2c-5.9,1.7-13.1,1.9-21.4,0.6c-0.3,0-0.5,0.1-0.6,0.4c0,0.3,0.1,0.5,0.4,0.6c3.4,0.5,6.8,0.8,10.2,0.8
		c3.9,0,7.8-0.5,11.6-1.5c0.3-0.1,0.4-0.4,0.4-0.6C34.4,52.2,34.1,52.1,33.8,52.2z"/>
	<path d="M34.4,47.8c-5.9,3.7-14.5,4.4-25.3,2c-0.3-0.1-0.5,0.1-0.6,0.4c-0.1,0.3,0.1,0.5,0.4,0.6c8.9,2,19,2.4,26.1-2.1
		c0.3-0.1,0.3-0.5,0.2-0.7C35,47.7,34.7,47.7,34.4,47.8L34.4,47.8z"/>
	<path d="M9.6,45.9c6.9,0.8,12.6-0.3,20.8-2.7c0.3-0.1,0.4-0.4,0.3-0.6c-0.1-0.3-0.4-0.4-0.6-0.4c-8.2,2.5-15,3.5-20.4,2.7
		c-0.3,0-0.6,0.2-0.6,0.5C9.1,45.6,9.3,45.9,9.6,45.9z"/>
	<path d="M34.2,44.9c-9.3,3.9-17.7,4.7-25.1,2.2c-0.3-0.1-0.5,0.1-0.6,0.4c0,0.2,0.1,0.5,0.3,0.6c8.7,2.7,16.8,1.4,25.8-2.2
		c0.2-0.1,0.4-0.4,0.2-0.7C34.7,44.9,34.4,44.8,34.2,44.9z"/>
	<path d="M12.9,39.1c3.6,0.5,7.3-0.1,10.5-1.6c0.2-0.1,0.3-0.4,0.2-0.7c-0.1-0.2-0.4-0.3-0.7-0.2c-3.1,1.5-6.6,2-10,1.5
		c-0.3,0-0.5,0.3-0.5,0.5C12.5,38.9,12.7,39.1,12.9,39.1z"/>
	<path d="M11.8,41.2c5,1.2,10.4,0.3,14.7-2.5c0.2-0.1,0.3-0.5,0.2-0.7s-0.5-0.3-0.7-0.2c-4.1,2.7-9.2,3.5-14,2.4
		c-0.3,0-0.5,0.2-0.5,0.5C11.4,40.9,11.6,41.1,11.8,41.2z"/>
	<path d="M12.9,43.3c6.2-0.1,12.4-1.2,18.3-3.2c0.3-0.1,0.4-0.4,0.3-0.6c-0.1-0.3-0.4-0.4-0.6-0.4c-6.2,2.1-12.7,3.2-19.2,3.2
		c-0.3,0-0.5,0.2-0.5,0.5C11.3,43.5,12.4,43.2,12.9,43.3z"/>
	<path d="M14.4,37.7c2.3-0.1,4.4-0.8,6.4-1.9c0.3-0.1,0.4-0.4,0.3-0.6c-0.1-0.3-0.4-0.4-0.6-0.3c0,0,0,0-0.1,0
		c-3.1,1.6-5.6,2.1-7.3,1.6c-0.3-0.1-0.5,0.1-0.6,0.3C12.4,37.8,13.8,37.6,14.4,37.7z"/>
	<path d="M40.5,10.8c0-4.8-1.2-7.6-3.4-8.3c-2-0.3-3.9-0.8-5.7-1.7l0,0c-0.5-0.3-1.1-0.5-1.6-0.8c-5,0-10,0-15,0
		c-0.6,0.1-1.1,0.3-1.6,0.5l-0.5,0.1l0,0c-2,0.6-4.2,1.1-6.5,1.7c-1.9,0.8-3,3.2-3.3,7.4C3.2,13.9,3,21.1,2.3,31.1
		c0,4.8-0.7,12.3-2.2,22.1c0,0.3,0.1,0.5,0.4,0.6c0,0,0.1,0,0.1,0c1.7,0,3.4,0.2,5.1,0.6c0.3,0.1,0.5-0.1,0.6-0.4c0,0,0,0,0-0.1
		C7.1,45,8,37.4,8.7,31.3c0.7-3.4,1-6.8,0.8-10.2c0.6,2.2,1,4.2,1.4,6.1c0.5,4,0.4,7.5-0.6,9.9c-2.3,4.2-3.5,9.5-3.3,15.6
		c-0.1,2.2,3.6,3.4,12.1,4c6,0.7,15.7,0.3,17.9-3.7c0.1-0.8,0.2-1.6,0.2-2.4c0.1,1.2,0.2,2.3,0.3,3.4c0,0.2,0.2,0.4,0.4,0.5
		c2,0.4,4.4,0.3,5.8-0.9C42.2,41,40.2,25,40.5,10.8z M34.7,19c0,0,0,0.1,0,0.1l0,0l0,0c-1,3.3-1.8,6.7-2.4,10.1
		c-1.9-1.3-3.7-2.9-5.3-4.6c1.6-0.3,3.2-0.8,4.6-1.6c0.2-0.1,0.3-0.4,0.2-0.7c-0.1-0.2-0.4-0.3-0.7-0.2c-1.5,0.8-3.2,1.4-4.9,1.6
		c-1.5-1.7-2.9-3.5-4.1-5.4c3.6-3,6.9-6.3,9.8-10C33.9,12.2,34.9,15.8,34.7,19z M11.9,27.1c-0.4-2.8-1.1-5.6-2-8.3
		c0.1-0.6,0.2-1.3,0.4-2c0.5,1.3,0.8,1.9,1.2,2.1c0.6,0.3,1.1-0.5,0.5-0.9c-0.5-1-0.9-2-1.2-3c0.2-0.6,0.4-1.1,0.6-1.7
		c3.2,3,6.6,6.6,10.4,9.4c0.3,0,0.5-0.2,0.5-0.5c0-0.1-0.1-0.3-0.2-0.3c-3.7-3.2-7.1-6.4-10.3-9.5c0.1-0.3,0.3-0.6,0.5-0.9
		c2.9,2,5.4,4.6,7.3,7.7c0.1,0.2,0.4,0.3,0.7,0.2c0.2-0.1,0.3-0.4,0.2-0.7c0,0,0-0.1-0.1-0.1c-2-3.1-4.6-5.8-7.6-7.9
		c0.2-0.4,0.5-0.7,0.9-1c0.3,0.4,0.6,0.7,1,1c2.3,2.5,4.4,5.2,6.4,7.9l0,0c3.6,5.2,7.2,9.3,11.2,11.8c-0.2,1.6-0.1,3.2,0.3,4.7
		c0.3,1,0.6,2,0.9,2.9C21.7,34.3,14.5,30.7,11.9,27.1z M14.9,1c4.9,0,9.9,0,14.8,0c0.4,0.2,0.8,0.4,1.2,0.6c1.2,2.2,1.4,4,0.8,5.6
		c-3,3.8-6.3,7.2-10.1,10.3c-1.9-2.6-4-5.2-6.2-7.6c-2.2-1.8-2.8-4.5-2-8.4L14.9,1z M8.5,15.2L8.5,15.2L8.5,15.2L8.5,15.2
		c-0.6-1.9-0.9-3.9-1-5.9c0-0.3-0.2-0.5-0.5-0.5S6.5,9.1,6.5,9.4c0.1,2.1,0.4,4.1,1,6.1l0,0l0,0c1.3,4.4,1.4,9.6,0.2,15.6
		c-0.7,6-1.5,13.4-2.4,22.1c-1.4-0.3-2.8-0.4-4.2-0.5c1.5-9.7,2.2-17,2.2-21.7c0.8-10,1-17.2,0.6-21.5C4.1,5.9,5,3.8,6.5,3.2
		c2-0.5,3.9-0.9,5.7-1.4c-0.6,2.4-0.3,4.8,0.9,7c-1.8,1.7-3.2,5.3-3.8,8.3C8.9,16.5,8.7,15.9,8.5,15.2z M35.9,52.7
		c-2.3,2.8-7.9,3.8-16.8,3C8.9,55,7.9,53.4,7.9,52.7c-0.2-6,0.9-11,3.2-15.1c1-2.8,1.3-5.8,0.9-8.7c3.4,3.5,10.5,6.8,21.7,10.2
		C35.6,45.3,36.3,49.9,35.9,52.7z M34.6,38.5L34.6,38.5c-0.4-1.2-0.8-2.5-1.2-3.8c-0.7-1.9-0.3-6.1,1.2-11.7c-0.1,2.7-0.1,5.5,0,8.2
		c0.8,5.7,1.5,10.8,2,15.4C36.1,43.8,35.5,41.1,34.6,38.5z M38.3,53.5c-0.5-6.1-1.4-13.7-2.7-22.5c-0.3-4,0.2-8.4,0.1-11.9l0,0
		c0.8-3.4,1.3-6.8,1.5-10.3c0-0.3-0.2-0.5-0.5-0.5s-0.5,0.2-0.5,0.5l0,0c-0.2,2.6-0.4,4.7-0.7,6.5c-0.5-2.7-1.5-5.4-2.9-7.8
		c0.6-1.7,0.5-3.6-0.3-5.2c1.5,0.6,3,1,4.6,1.2c1.7,0.6,2.6,3.1,2.7,7.4c0,14.1,1.1,28.2,3.2,42.2C41.3,53.7,39.8,53.9,38.3,53.5
		L38.3,53.5z"/>
</g>
</svg>
