<?xml version="1.0" encoding="utf-8"?>
<!-- Generator: Adobe Illustrator 26.0.0, SVG Export Plug-In . SVG Version: 6.00 Build 0)  -->
<svg version="1.1" id="katman_1" xmlns="http://www.w3.org/2000/svg" xmlns:xlink="http://www.w3.org/1999/xlink" x="0px" y="0px"
	 viewBox="0 0 36.6 56.9" style="enable-background:new 0 0 36.6 56.9;" xml:space="preserve">
<g id="Layer_32">
	<path d="M18.7,39.7c3.3-2.7,5.9-6.1,7.6-9.9c0.1-0.3,0-0.5-0.3-0.6c-0.2-0.1-0.5,0-0.6,0.3c-1.7,3.6-4.1,6.8-7.1,9.4
		c-0.2,0.2-0.2,0.5,0,0.7C18.4,39.7,18.6,39.7,18.7,39.7z"/>
	<path d="M31,25.6c-1-0.4-1.3,1.8-1.3,2.6c0,0.3,0.2,0.5,0.5,0.5s0.5-0.2,0.5-0.5c0-0.7,0.1-1.3,0.5-1.9
		C31.3,26.1,31.2,25.8,31,25.6C31,25.6,31,25.6,31,25.6z"/>
	<path d="M35.1,13.9c0-2.1-1.3-3.6-3.7-4.4c-0.1-1.7-1.5-3.8-4.4-6.3c-2.2-2.2-5.3-3.3-8.5-3c-2.6-0.2-4.6-0.2-4.5,1.9
		c-0.2,4.5-1.2,5.8-1.9,6.1C10.4,8.3,8.6,8.9,7,9.7c-1.8,0.8-3.3,3.5-4.5,8.2l0,0c-0.6,2.6-1.4,5.1-2.4,7.5c-0.1,0.2,0,0.5,0.1,0.6
		c2.2,1.9,5.2,2.8,9,2.8c0.2,0,0.4-0.2,0.5-0.4c0.2-0.9,0.4-1.7,0.5-2.5c0.3,1.1,0.6,2.3,0.9,3.4c0.6,2.8,0.3,5.7-0.8,8.4l0,0l0,0
		c-0.8,2.2-1.5,4.5-1.9,6.9c0,0,0,0.1,0,0.1c-0.4,2.3-0.7,4.6-0.7,7c0,0,0,0,0,0.1c-0.1,0.7,0,1.4,0.1,2.1c1.6,2.5,6,3.4,9.6,2.9
		l0,0c3.8-0.4,7.7-0.7,11.5-0.6c2.9-0.4,4.9-0.9,4.3-2.7c0.3-5.1,0-10.2-1-15.2c-1.1-3.4-1.2-7.1-0.4-10.6c1.5,0,3.1-0.3,4.5-0.9
		c0.2-0.1,0.3-0.3,0.3-0.5C36.3,22.2,35.8,18,35.1,13.9z M18.5,1.1c2.9-0.3,5.7,0.7,7.8,2.8c2.6,2.3,3.9,4.2,4,5.6
		c-1.1,0.4-2.1,1.1-2.9,1.9c0-1.3-0.3-2.5-0.8-3.6c-1-2.7-6.5-2.5-9.7-2c-1-1.9-1.6-3.2-1.9-3.9S15.8,0.8,18.5,1.1z M25.3,20.9
		L24.8,21c-0.2-0.7-0.2-1.5,0-2.2l0.1-0.3c0.1-0.3,0.2-0.5,0.2-0.8C25,18.8,25,19.9,25.3,20.9z M24.7,16c-0.9-2-2.5-3.5-4.6-4.1
		c-1.1-2-2-3.8-2.7-5.2c4.8-0.6,7.6-0.1,8.3,1.5c0.8,1.5,0.9,3.3,0.4,4.9C25.6,14,25.1,15,24.7,16L24.7,16z M24.3,17.3
		c-0.1,0.2-0.2,0.5-0.2,0.7c-0.8-1.6-1.8-3.2-2.9-4.7C22.6,14.4,23.7,15.7,24.3,17.3L24.3,17.3z M15,4.1c0.8,1.7,2.1,4.2,3.8,7.4
		c-1.3-0.4-2.6-0.6-4-0.5C14.8,10.1,14.8,8.3,15,4.1z M9.9,22.6c-1-0.6-1.7-1.6-1.9-2.8c-0.1-0.3-0.3-0.4-0.6-0.4c0,0,0,0,0,0
		C7.2,19.5,7,19.7,7,20c0.3,1.6,1.3,2.9,2.7,3.6c-0.3,1.2-0.6,2.6-0.9,4.2c-2.8,0.1-5.5-0.8-7.7-2.4c1-2.4,1.7-4.8,2.3-7.3
		c1.4-4.9,2.7-6.8,3.7-7.4C9.5,14.2,10.5,18.4,9.9,22.6z M31,27.2c-0.9,3.8-0.8,7.8,0.3,11.5c0.9,3.8,1.1,9,1,15.2l0,0
		c0,0.1,0.2,0.3,0.1,0.3s-0.5,0.7-3.5,1.1c-3.9,0-7.8,0.2-11.6,0.6c-4.2,0.4-7.1-0.4-8.6-2.4v-0.4c2.5,2.4,6.1,2.9,10.6,1.6
		c3.9-0.7,7.9-1,11.8-0.8c0.3,0,0.5-0.2,0.5-0.5s-0.2-0.5-0.5-0.5c-4.1-0.2-8.1,0-12.1,0.8c-4.7,1.4-8,0.7-10.4-2
		C8.7,49.4,9,47.2,9.4,45c8.9-8,13.5-14.9,13.7-20.6c0-0.3-0.2-0.5-0.5-0.5s-0.5,0.2-0.5,0.5C21.9,29.7,17.7,36,9.7,43.4
		c0.2-0.8,0.4-1.7,0.6-2.5c5.1-4.2,8.1-9,8.8-14.2c0-0.3-0.1-0.5-0.4-0.6c-0.3,0-0.5,0.1-0.6,0.4c0,0,0,0,0,0
		c-0.7,4.6-3.1,8.8-7.2,12.5c0.1-0.3,0.2-0.6,0.3-0.9c0.6-1.4,1-2.8,1.1-4.3c1.7-2.6,3.1-5.3,4.3-8.2c0.1-0.3,0-0.5-0.3-0.6
		c-0.3-0.1-0.5,0-0.6,0.3l0,0c-0.9,2.3-2,4.5-3.3,6.6c0-0.9-0.2-1.8-0.4-2.7c-0.5-1.6-1-3.3-1.2-5c1.1-0.4,1.8-1.4,1.9-2.6
		c0-0.3-0.2-0.5-0.5-0.5c0,0,0,0,0,0c-0.3,0-0.5,0.2-0.5,0.5c0,0,0,0,0,0c0,0.6-0.4,1.2-0.9,1.5c0.7-4.4-0.4-8.9-2.9-12.6
		c1.4-0.6,2.9-1,4.4-1.2c0.6-0.2,1.2-0.7,1.5-1.3c-0.1,1.8-0.1,3.2-0.1,3.6c0,0.3,0.2,0.5,0.5,0.5c0,0,0,0,0,0
		c2.5-0.1,4.3,0.3,5.3,1.1c1.6,2,3,4.3,4,6.6c0,0.8,0,2.1,0.8,2.3c0.7-0.1,1.6,0,2-0.5c0.1-0.1,0.1-0.3,0-0.4
		c-0.7-1.3-0.4-3.9,0.7-7.6c0.9-1.5,2.2-2.6,3.8-3.2c2.1,0.7,3.2,1.9,3.2,3.6c0,0.3,0.1,0.5,0.1,0.8c-0.2-0.2-0.5-0.2-0.7,0
		c0,0-0.1,0.1-0.1,0.1c-1.2,2.8-1.4,5.2-0.6,7.1C33.3,23.8,32.4,25.5,31,27.2z M32.6,26.7c1.2-1.4,1.6-3.3,1.1-5.1
		c-0.7-1.6-0.5-3.8,0.6-6.3c0.8,5.2,1.3,8.8,1.3,10.7C34.6,26.4,33.6,26.6,32.6,26.7z"/>
	<path d="M16.2,21c-1.7-0.4-3.2-1.5-4.1-3c-0.1-0.2-0.5-0.3-0.7-0.2c-0.2,0.1-0.3,0.5-0.2,0.7c1.1,1.8,2.9,3,4.9,3.4
		c0.3,0,0.5-0.3,0.4-0.6C16.4,21.2,16.3,21,16.2,21z"/>
	<path d="M7,16.9c-1.1,2.5-2.2,4.1-3.4,4.7c-0.2,0.1-0.3,0.4-0.2,0.7c0.1,0.2,0.3,0.3,0.4,0.3c1.6-0.6,2.8-2.4,4.1-5.2
		c0.1-0.3,0-0.5-0.3-0.7C7.4,16.5,7.1,16.6,7,16.9z"/>
	<path d="M28.1,29.6c-3.2,6.9-6.4,11.2-9.5,13c-0.2,0.1-0.3,0.4-0.2,0.7c0.1,0.2,0.3,0.2,0.4,0.2c3.6-1.8,6.8-6.4,10.2-13.5
		c0.1-0.3-0.1-0.5-0.3-0.6C28.5,29.4,28.3,29.4,28.1,29.6z"/>
</g>
</svg>
