<?xml version="1.0" encoding="utf-8"?>
<!-- Generator: Adobe Illustrator 26.0.0, SVG Export Plug-In . SVG Version: 6.00 Build 0)  -->
<svg version="1.1" id="katman_1" xmlns="http://www.w3.org/2000/svg" xmlns:xlink="http://www.w3.org/1999/xlink" x="0px" y="0px"
	 viewBox="0 0 383.6 379.4" style="enable-background:new 0 0 383.6 379.4;" xml:space="preserve">
<g>
	<path d="M307.5,35.7c-0.4-0.7-1.1-1.2-1.8-1.4l-47.9-11.1L230.4,0.7c-0.3-0.3-0.7-0.2-1.1-0.4C229,0.2,228.8,0,228.5,0h-73.4
		c-0.3,0-0.6,0.3-0.9,0.4c-0.3,0.1-0.7,0.1-1,0.3l-27.3,22.6L78,34.4c-0.8,0.2-1.4,0.7-1.8,1.4L0.4,164.5c-0.6,1.1-0.5,2.4,0.3,3.4
		c15.3,18.7,36,32.3,59.2,39c1.1,0.3,2.4-0.1,3.1-1l26.4-34.3c-6.4,203.6-4.1,205.9-3,207v0c0.6,0.6,1.3,0.9,2.1,0.9h206.6
		c0.8,0,1.6-0.3,2.1-0.9c1.1-1.1,3.4-3.5-3-207l26.4,34.3c0.7,0.9,2,1.3,3.1,1c23.2-6.7,43.8-20.3,59.2-39c0.8-0.9,0.9-2.3,0.3-3.4
		L307.5,35.7z M191.8,41.9l-30.4-36h60.9L191.8,41.9z M154.7,7l33.2,39.3l-21.8,23.2l-34.8-43.1L154.7,7z M228.9,7l23.4,19.4
		l-34.8,43.1l-21.8-23.2L228.9,7z M95.5,162.6c0-1.3-0.7-2.4-1.9-2.8c-1.2-0.4-2.5,0-3.3,1l-30.7,39.9l0,0
		c-20.7-6.4-39.1-18.5-53.1-35l74-125.8l45.6-10.5l37.6,46.5c0.5,0.7,1.3,1.1,2.2,1.1h0.1c0.8,0,1.6-0.3,2.1-0.9l20.8-22.2v319.9H91
		C89.9,356.3,93,240.3,95.5,162.6L95.5,162.6z M324.1,200.6l-30.7-39.9v0c-0.8-1-2.1-1.4-3.3-1c-1.2,0.4-2,1.6-1.9,2.8
		c2.5,77.7,5.6,193.6,4.5,211l-97.9,0V53.7l20.8,22.2h0c0.6,0.6,1.3,0.9,2.1,0.9h0.1c0.8,0,1.6-0.4,2.2-1.1l37.6-46.5l45.6,10.5
		l74,125.8h0C363.1,182.1,344.7,194.3,324.1,200.6L324.1,200.6z"/>
	<path d="M267.4,114.1H227c-0.8,0-1.5,0.3-2.1,0.9c-0.5,0.5-0.9,1.3-0.9,2.1v63.4c0,0.8,0.3,1.5,0.9,2.1c0.5,0.5,1.3,0.9,2.1,0.9
		h40.5c0.8,0,1.5-0.3,2.1-0.9c0.5-0.5,0.9-1.3,0.9-2.1V117c0-0.8-0.3-1.5-0.9-2.1C268.9,114.4,268.2,114.1,267.4,114.1L267.4,114.1z
		 M264.5,177.5h-34.6v-57.6h34.6L264.5,177.5z"/>
</g>
</svg>
