<?xml version="1.0" encoding="utf-8"?>
<!-- Generator: Adobe Illustrator 26.0.0, SVG Export Plug-In . SVG Version: 6.00 Build 0)  -->
<svg version="1.1" id="katman_1" xmlns="http://www.w3.org/2000/svg" xmlns:xlink="http://www.w3.org/1999/xlink" x="0px" y="0px"
	 viewBox="0 0 469.3 404.5" style="enable-background:new 0 0 469.3 404.5;" xml:space="preserve">
<g>
	<path d="M467.6,110.8L389,29.9c-0.3-0.3-0.8-0.2-1.1-0.5c-0.3-0.2-0.3-0.6-0.6-0.7L328.6,0.5c-0.1,0-0.2,0-0.3,0
		c-0.6-0.2-1.3-0.2-1.9-0.1c-0.8-0.2-1.6-0.1-2.4,0.1c-0.1,0-0.2,0-0.3,0l0,0c-27.8,13.3-58.2,20.2-89,20.2s-61.2-6.9-89-20.2
		c-1.5-0.6-3.2-0.6-4.7,0.1l-0.3,0L82,28.7c-0.3,0.1-0.3,0.5-0.6,0.7c-0.3,0.2-0.8,0.2-1.1,0.5L1.7,110.8c-1.9,2-2.2,5.1-0.6,7.4
		l52.7,76c1.8,2.6,5.4,3.3,8,1.5L108,165v233.7c0,1.5,0.6,3,1.7,4.1s2.6,1.7,4.1,1.7h241.6c1.5,0,3-0.6,4.1-1.7s1.7-2.6,1.7-4.1V165
		l46.2,30.8c2.6,1.8,6.2,1.1,8-1.5l52.7-76C469.9,116,469.6,112.9,467.6,110.8L467.6,110.8z M234.6,32.4c26.7-0.2,53.1-5.3,77.9-15
		c-18.2,32.2-45.3,58.4-78,75.5c-12.6-6.9-67.1-38.6-82.3-77.3h0C178.4,26.5,206.4,32.2,234.6,32.4L234.6,32.4z M60,182.9
		l-46.7-67.4l70.9-73c17.1,17.1,25.7,40.8,23.7,64.8v43.5L60,182.9z M94,35.9l45.3-21.8c12.1,40.2,61.4,72.6,82.8,85.1h0
		c-23.1,10.3-46.9,19.1-71.1,26.3c-1.6,0.5-2.9,1.6-3.6,3.2c-0.7,1.5-0.7,3.3,0,4.8c0.7,1.6,69.8,157.3,80.8,259.4l-108.4,0V107.4
		C121.7,81,112.3,55,94,35.9L94,35.9z M349.6,392.8H240c-9.7-93.7-66.2-227.9-79.4-258.1c73.2-23.1,128.6-46.9,168.1-121.2
		l46.6,22.4C357,55,347.6,81,349.6,107.4L349.6,392.8z M409.2,182.9l-48-32v-43.6c-2-24,6.7-47.7,23.7-64.8l70.9,73L409.2,182.9z"/>
	<path d="M203.1,130.9c-5.5,0-10.8,2.2-14.7,6.1c-3.9,3.9-6.1,9.2-6.1,14.7c0,5.5,2.2,10.8,6.1,14.7c3.9,3.9,9.2,6.1,14.7,6.1
		s10.8-2.2,14.7-6.1c3.9-3.9,6.1-9.2,6.1-14.7c0-5.5-2.2-10.8-6.1-14.7C213.9,133.1,208.6,130.9,203.1,130.9L203.1,130.9z
		 M203.1,160.8L203.1,160.8c-3.7,0-7-2.2-8.4-5.6c-1.4-3.4-0.6-7.3,2-9.9s6.5-3.4,9.9-2c3.4,1.4,5.6,4.7,5.6,8.4
		C212.2,156.7,208.2,160.8,203.1,160.8L203.1,160.8z"/>
	<path d="M278.9,85.9c-4.2,0-8.3,1.7-11.3,4.7s-4.7,7.1-4.7,11.3c0,4.2,1.7,8.3,4.7,11.3s7.1,4.7,11.3,4.7c4.2,0,8.3-1.7,11.3-4.7
		s4.7-7.1,4.7-11.3c0-4.2-1.7-8.3-4.7-11.3C287.2,87.6,283.1,85.9,278.9,85.9L278.9,85.9z M278.9,106.2c-1.8,0-3.3-1.1-4-2.7
		c-0.7-1.6-0.3-3.5,0.9-4.7c1.2-1.2,3.1-1.6,4.7-0.9c1.6,0.7,2.7,2.2,2.7,4c0,1.1-0.5,2.2-1.3,3.1S280,106.2,278.9,106.2
		L278.9,106.2z"/>
	<path d="M245.7,108.9c-4.5,0-8.8,1.8-11.9,4.9c-3.2,3.2-4.9,7.4-4.9,11.9c0,4.5,1.8,8.8,4.9,11.9c3.2,3.2,7.4,4.9,11.9,4.9
		c4.5,0,8.8-1.8,11.9-4.9c3.2-3.2,4.9-7.4,4.9-11.9c0-4.5-1.8-8.7-4.9-11.9C254.4,110.7,250.1,108.9,245.7,108.9L245.7,108.9z
		 M245.7,130.9c-2.1,0-4-1.3-4.8-3.2c-0.8-1.9-0.4-4.2,1.1-5.6c1.5-1.5,3.7-1.9,5.6-1.1c1.9,0.8,3.2,2.7,3.2,4.8
		C250.8,128.6,248.5,130.9,245.7,130.9L245.7,130.9z"/>
</g>
</svg>
