<?xml version="1.0" encoding="utf-8"?>
<!-- Generator: Adobe Illustrator 26.0.0, SVG Export Plug-In . SVG Version: 6.00 Build 0)  -->
<svg version="1.1" id="katman_1" xmlns="http://www.w3.org/2000/svg" xmlns:xlink="http://www.w3.org/1999/xlink" x="0px" y="0px"
	 viewBox="0 0 480.5 471.6" style="enable-background:new 0 0 480.5 471.6;" xml:space="preserve">
<g>
	<path d="M477.3,224c2.4-1.2,3.6-3.8,3.1-6.4c-1.8-8.2-3.4-16.2-5.1-24.2c-14.4-69.3-26.8-129.2-76.6-171.6
		c-0.3-0.2-0.6-0.1-0.9-0.3c-0.5-0.3-0.7-0.8-1.3-0.9c-26.3-7-53-12.2-80-15.5l-0.2-0.1c-50.7-6.6-102-6.6-152.7,0l-0.3,0.1
		c-26.7,3.4-53.2,8.6-79.3,15.5c-0.5,0.1-0.7,0.6-1.2,0.9c-0.4,0.2-0.8,0.1-1.2,0.4C31.9,64.2,19.5,124.2,5.2,193.5
		c-1.6,7.9-3.3,15.9-5,24c-0.6,2.6,0.7,5.3,3.1,6.4c22.1,10.4,46.3,15.5,70.7,14.9c6.8,0,14-0.6,21.3-1.3v0
		c-5.1,60.1-15.7,119.7-31.6,177.9c-0.7,2.7,0.6,5.6,3.2,6.8c54.6,26.6,113.6,43.3,174,49.3c60.1-6.2,118.7-22.9,173-49.3
		c2.5-1.2,3.9-4,3.2-6.8c-15.9-58.2-26.4-117.8-31.6-177.9c7.2,0.6,14.4,1.2,21.1,1.2C431,239.5,455.2,234.4,477.3,224L477.3,224z
		 M309.9,15.9c-1.6,12.9-7.5,24.9-16.7,34.1c-9.2,9.2-21.3,15-34.2,16.4c-2.7,0.6-4.7,2.9-4.7,5.7v25.4l-14,33l-14.2-33V72.2
		c0-2.8-1.9-5.1-4.6-5.7c-12.9-1.5-25-7.3-34.3-16.5c-9.3-9.2-15.2-21.1-16.9-34.1C216.6,10.3,263.5,10.3,309.9,15.9L309.9,15.9z
		 M12.5,215.5c1.4-6.6,2.7-13.1,4.1-19.6C29.7,132.5,41.5,77.5,81.9,38C95,99.7,99.8,162.9,96.1,225.9
		C67.8,229.7,39,226.1,12.5,215.5L12.5,215.5z M240.8,460c-57.1-5.8-112.9-21.5-164.7-46.2c16-59.4,26.3-120.2,30.9-181.6
		c0.1-0.5,0.5-0.9,0.4-1.4c0-0.2-0.2-0.3-0.3-0.5h0c4.4-67-0.5-134.2-14.7-199.8c21.7-5.6,43.8-9.9,66-13
		c1.9,14.5,8.3,28.1,18.3,38.7c10,10.7,23.2,17.9,37.6,20.6v22c0,0.8,0.2,1.6,0.5,2.3l20.1,46.7v0c0.9,2.1,3,3.5,5.4,3.5h0
		c2.3,0,4.4-1.4,5.4-3.6l19.8-46.7c0.3-0.7,0.5-1.5,0.5-2.3v-22c14.4-2.7,27.6-9.9,37.6-20.6s16.4-24.3,18.1-38.8
		c22.4,3.1,44.6,7.4,66.5,13C374,96,369.1,163.1,373.5,230c-0.1,0.3-0.3,0.4-0.4,0.7c-0.1,0.8,0.4,1.4,0.6,2.1h0
		c4.6,61.2,14.9,121.7,30.8,181C353,438.4,297.6,454,240.8,460L240.8,460z M384.6,226L384.6,226c-3.7-63,1.1-126.1,14.1-187.8
		c40.3,39.5,52.1,94.4,65.2,157.6c1.4,6.5,2.7,13.1,4.1,19.7v0C441.6,226.1,412.8,229.7,384.6,226L384.6,226z"/>
	<path d="M372.1,312c-29.4,10.1-58,22.1-85.9,35.9c-2.1,0.9-3.5,3-3.5,5.3v17.3c0,1.6,0.6,3,1.7,4.1c1.1,1.1,2.6,1.7,4.1,1.7
		c0.8,0,1.5-0.2,2.3-0.5l91.1-38.4c1.5-0.6,2.7-1.9,3.2-3.4c0.6-1.5,0.4-3.2-0.3-4.7l-7.5-14.3C376.3,313.2,374.3,312,372.1,312
		L372.1,312z M294.4,361.7V357c25.6-11.1,62.4-27,74.9-32l2.2,4.2L294.4,361.7z"/>
	<path d="M194.4,347.8c-27.8-13.8-56.5-25.7-85.9-35.9c-2.2,0-4.2,1.2-5.2,3.1l-7.5,14.3h0c-0.8,1.4-0.9,3.1-0.3,4.7
		c0.6,1.5,1.7,2.8,3.2,3.4l91.1,38.4c0.7,0.3,1.5,0.5,2.3,0.5c1.6,0,3-0.6,4.1-1.7c1.1-1.1,1.7-2.6,1.7-4.1v-17.3
		C197.9,350.9,196.5,348.8,194.4,347.8L194.4,347.8z M186.2,361.7l-77.1-32.5l2.2-4.2c12.5,5,49.4,20.9,74.9,32L186.2,361.7z"/>
	<path d="M89.6,210.4L89.6,210.4c-22,0.8-43.8-2.1-64.7-8.7c-1.5-0.5-3.1-0.4-4.5,0.3c-1.4,0.7-2.5,1.9-3,3.4
		c-0.5,1.5-0.4,3.1,0.3,4.5s1.9,2.5,3.4,2.9c20.8,6.6,42.5,9.8,64.3,9.4c1.4,0,2.8,0,4.3,0c3.2,0,5.8-2.7,5.8-5.9
		C95.5,212.9,92.9,210.3,89.6,210.4L89.6,210.4z"/>
	<path d="M456,201.6c-19.6,6.2-40,9.2-60.5,8.8c-1.4,0-3.5-0.1-4.2,0v0c-1.5,0-3,0.6-4.1,1.7c-1.1,1.1-1.7,2.6-1.7,4.1
		c0,3.2,2.6,5.9,5.8,5.9c1.4,0,2.8,0,4.3,0c21.8,0.4,43.5-2.8,64.3-9.4c1.5-0.5,2.7-1.6,3.4-3s0.8-3,0.3-4.5c-0.5-1.5-1.6-2.7-3-3.3
		C459.1,201.2,457.5,201.1,456,201.6L456,201.6z"/>
	<path d="M238.1,158.4c-4.5,0-8.9,1.8-12.1,5c-3.2,3.2-5,7.6-5,12.1c0,4.5,1.8,8.9,5,12.1c3.2,3.2,7.6,5,12.1,5s8.9-1.8,12.1-5
		c3.2-3.2,5-7.6,5-12.1c0-4.5-1.8-8.9-5-12.1C247,160.2,242.6,158.4,238.1,158.4L238.1,158.4z M238.1,181c-2.2,0-4.2-1.3-5.1-3.4
		s-0.4-4.4,1.2-6c1.6-1.6,3.9-2,5.9-1.2c2,0.8,3.4,2.8,3.4,5C243.5,178.6,241.1,181,238.1,181L238.1,181z"/>
</g>
</svg>
