<?xml version="1.0" encoding="utf-8"?>
<!-- Generator: Adobe Illustrator 26.0.0, SVG Export Plug-In . SVG Version: 6.00 Build 0)  -->
<svg version="1.1" id="katman_1" xmlns="http://www.w3.org/2000/svg" xmlns:xlink="http://www.w3.org/1999/xlink" x="0px" y="0px"
	 viewBox="0 0 253 322" style="enable-background:new 0 0 253 322;" xml:space="preserve">
<g>
	<path d="M119.8,147.3c0,3.6-2.9,6.5-6.5,6.5s-6.5-2.9-6.5-6.5s2.9-6.5,6.5-6.5S119.8,143.7,119.8,147.3"/>
	<path d="M119.8,192.5c0,3.6-2.9,6.5-6.5,6.5s-6.5-2.9-6.5-6.5s2.9-6.5,6.5-6.5S119.8,188.9,119.8,192.5"/>
	<path d="M119.8,237.6c0,3.6-2.9,6.5-6.5,6.5s-6.5-2.9-6.5-6.5s2.9-6.5,6.5-6.5S119.8,234,119.8,237.6"/>
	<path d="M119.8,282.7c0,3.6-2.9,6.5-6.5,6.5s-6.5-2.9-6.5-6.5s2.9-6.5,6.5-6.5C116.9,276.3,119.8,279.2,119.8,282.7"/>
	<path d="M187.3,129.3l2.7-17l7.8,18.1l5.5,12.8c0.9,2.1,3,3.4,5.1,3.4c0.6,0,1.2-0.1,1.7-0.3c9.9-3.3,24.9-9.2,40.3-19.1
		c2.2-1.4,3.1-4.1,2.3-6.5l-9.3-27L229.7,54c-5.5-15.8-20.4-26.5-37.1-26.5H179l-0.6-2.9c-1.3-6-5.1-11-10.5-13.9l-0.9-0.5
		C141.7-3.3,111.4-3.4,86,9.8c-5.4,2.8-9.3,7.9-10.6,13.8l-0.8,3.8h-14h-0.1c-16.8,0-31.7,10.6-37.2,26.5L9.6,93.6l0,0l-9.3,27.1
		c-0.8,2.4,0.1,5.1,2.3,6.5C18,137.1,33,143,43,146.3c0.6,0.2,1.2,0.3,1.8,0.3c2.2,0,4.2-1.3,5.1-3.4l5.6-12.9l7.8-18.1l2.5,15.7
		c3,14.9,3.7,30.1,2,45.1c-0.6,5.4-1.9,10.6-2.9,14.5L36.3,295.3c-1.7,6.4-0.4,13.1,3.7,18.4c4,5.3,10.2,8.3,16.8,8.3h139.5
		c6.6,0,12.8-3,16.8-8.3s5.4-12,3.7-18.4L190,195.2c-4.8-17.9-6.5-35-5-50.9C185.6,139.3,186.3,134.4,187.3,129.3L187.3,129.3z
		 M211.6,133.9l-2.4-5.5l26.2-24.2l5.4,15.8C229.8,126.7,219,131.2,211.6,133.9L211.6,133.9z M86.5,26c0.6-2.7,2.4-5,4.9-6.3
		C113.6,8.2,139.9,8.3,162,20l0.9,0.5c2.5,1.3,4.2,3.6,4.8,6.4l0.9,4l3.6,24.1l-16,2.1c-1.8,0.2-3.4,1.4-4.3,3s-0.8,3.6,0.1,5.2
		l9.5,17.2l-25.2,23.9L152,37l0,0c0.8-3.4-0.4-6.9-3.1-9.1c-12.8-10.5-31.3-10.5-44.2,0c-2.7,2.2-4,5.7-3.2,9.2l15.7,69.3L92.3,82.6
		l9.5-17.2c0.9-1.6,0.9-3.6,0.1-5.2c-0.8-1.7-2.4-2.8-4.3-3l-16-2.1L85.4,31L86.5,26z M126.7,97.8l-14.1-62.1
		c8.3-6.1,19.8-6.1,28.1,0L126.7,97.8z M41.8,133.9c-8.1-2.9-18.5-7.4-29.3-13.9l5.5-15.8l26.2,24.2L41.8,133.9z M49,306.8
		c-1.9-2.5-2.5-5.6-1.7-8.6l28.6-107.8c1.1-4.3,2.6-10.1,3.2-16.2c1.8-16.2,1.1-32.6-2.2-48.4l-4.2-26.6c-0.7-3.4-3.5-6-6.9-6.4
		c-3.4-0.4-6.8,1.4-8.3,4.7l-10.9,25.3L20,98.4l0.4-1.2l13.7-39.7C38,46.2,48.7,38.6,60.7,38.6l0,0h12.1L69.6,59
		c-0.2,1.5,0.1,3,1,4.2c0.9,1.2,2.3,2,3.8,2.2L88,67.2L80.4,81c-1.2,2.2-0.8,5,1,6.8l41.5,39.6c0.1,0.1,0.1,0.1,0.2,0.1
		c0.3,0.2,0.6,0.4,0.9,0.6v182.8H57C53.8,310.7,50.9,309.3,49,306.8L49,306.8z M179.3,198.1l26.8,100.1c0.8,3,0.2,6.2-1.7,8.7
		c-1.9,2.5-4.8,3.9-7.9,3.9h-66.9V127.9c0.1-0.1,0.2-0.1,0.3-0.2c0.2-0.1,0.3-0.2,0.5-0.3c0.1-0.1,0.3-0.1,0.4-0.2l41.5-39.6
		c1.8-1.8,2.3-4.5,1-6.8L165.7,67l13.6-1.8c1.5-0.2,2.8-1,3.8-2.2c0.9-1.2,1.3-2.7,1.1-4.2l-3-20.3H193c12,0,22.6,7.6,26.5,18.9
		l13.7,39.7l0.4,1.2l-26.5,24.5l-11-25.5c-1.5-3.2-4.8-5-8.2-4.6c-3.5,0.4-6.2,3-7,6.6l-4.4,27.7c-1,5.2-1.8,10.6-2.3,15.9
		C172.4,160.5,174.2,178.9,179.3,198.1L179.3,198.1z"/>
</g>
</svg>
