<?xml version="1.0" encoding="utf-8"?>
<!-- Generator: Adobe Illustrator 26.0.0, SVG Export Plug-In . SVG Version: 6.00 Build 0)  -->
<svg version="1.1" id="katman_1" xmlns="http://www.w3.org/2000/svg" xmlns:xlink="http://www.w3.org/1999/xlink" x="0px" y="0px"
	 viewBox="0 0 466.7 560.1" style="enable-background:new 0 0 466.7 560.1;" xml:space="preserve">
<style type="text/css">
	.st0{fill-rule:evenodd;clip-rule:evenodd;}
</style>
<g>
	<path class="st0" d="M179.8,86.5c9.9,26.1,25.8,47.3,48.6,61.4c3,1.9,6.8,1.9,9.8,0c22.8-14.1,38.7-35.3,48.6-61.4
		c8.4-22,11.7-44.5,12.1-64.3c3.7,1.2,7,2.2,7.7,2.5c11.6,3.8,21.7,7.1,31.4,10.4c3.7,1.3,7.2,2.5,10.5,3.7
		c19.6,6.9,33.4,12.5,38.4,15.7c16.6,10.5,53.3,78.1,60.5,120c-0.6,0.6-1.2,1.4-2,2.1c-3.8,4-8.3,8-13.5,11.7
		c-12.8,9.3-27.1,15.3-42.7,16.6l-16.4-49.3c-2.6-7.9-13.5-8.7-17.2-1.2c-0.3,0.7-0.9,1.9-1.7,3.6c-1.3,2.9-2.8,6.2-4.3,9.9
		c-4.5,10.5-8.9,22.2-13.1,34.8c-11.1,33.5-18.1,66.9-19,98.3c-0.1,2.3-0.1,4.6-0.1,6.9c0,0.8,0.1,1.6,0.3,2.3
		c0.3,1.1,0.8,3.2,1.6,6.3c1.3,5.1,2.7,11,4.2,17.4c4.4,18.4,8.7,38.1,12.8,58.2c3.8,18.7,7.1,36.9,9.9,54.1
		c4.9,30.6,7.9,57,8.5,78.1c-1.9,0.4-3.8,0.8-5.9,1.3c-10.4,2.2-21.6,4.3-33.1,6.4c-12.7,2.2-25,4.2-36.6,5.7
		c-17.7,2.3-33.1,3.5-45.6,3.5s-27.9-1.2-45.6-3.5c-11.6-1.5-23.9-3.4-36.6-5.7c-11.5-2-22.7-4.2-33.1-6.4c-2.1-0.4-4.1-0.9-5.9-1.3
		c0.6-21.1,3.5-47.6,8.5-78.1c2.8-17.2,6.1-35.4,9.9-54.1c4.1-20.1,8.4-39.8,12.8-58.2c1.5-6.5,2.9-12.3,4.2-17.4
		c0.8-3.1,1.3-5.2,1.6-6.3c0.2-0.8,0.3-1.5,0.3-2.3c0-2.3,0-4.6-0.1-6.9c-0.9-31.4-7.9-64.8-19-98.3c-4.2-12.6-8.6-24.3-13.1-34.8
		c-1.6-3.7-3-7-4.3-9.9c-0.8-1.7-1.4-3-1.7-3.6c-3.7-7.5-14.6-6.7-17.2,1.2L77.3,205c-15.6-1.3-29.9-7.3-42.7-16.6
		c-5.1-3.7-9.7-7.8-13.5-11.7c-0.8-0.8-1.4-1.5-2-2.1c7.2-42,43.9-109.5,60.5-120c5.1-3.2,18.8-8.8,38.4-15.7
		c3.4-1.2,6.9-2.4,10.5-3.7c9.7-3.3,19.8-6.7,31.4-10.4c0.8-0.2,4-1.3,7.7-2.5C168.1,42,171.4,64.5,179.8,86.5L179.8,86.5z
		 M112.4,208.7c10.6,31.9,17.2,63.6,18.1,93c0.1,1.7,0.1,3.4,0.1,5.2c-0.3,1.2-0.8,3-1.3,5.3c-1.3,5.2-2.7,11.1-4.3,17.6
		c-4.4,18.6-8.8,38.5-12.9,58.8c-3.8,19-7.2,37.4-10,54.9c-5.7,35.2-8.8,65.2-8.8,88.6c0,4.4,3,8.1,7.2,9.1c0.7,0.2,1.9,0.4,3.7,0.8
		c2.9,0.6,6.3,1.4,10,2.1c10.6,2.2,21.9,4.4,33.6,6.5c13,2.3,25.5,4.2,37.5,5.8c18.4,2.4,34.6,3.7,48,3.7s29.6-1.3,48-3.7
		c11.9-1.5,24.5-3.5,37.5-5.8c11.7-2.1,23.1-4.3,33.6-6.5c3.7-0.8,7.1-1.5,10-2.1c1.8-0.4,3-0.7,3.7-0.8c4.2-1,7.2-4.7,7.2-9.1
		c0-23.4-3.1-53.4-8.8-88.6c-2.8-17.5-6.2-35.9-10-54.9c-4.1-20.3-8.5-40.2-12.9-58.8c-1.5-6.5-3-12.4-4.3-17.6
		c-0.6-2.3-1-4.1-1.3-5.3c0-1.7,0-3.4,0.1-5.2c0.9-29.4,7.5-61.1,18.1-93c2.8-8.4,5.7-16.4,8.7-23.9l10.9,32.8
		c1.3,3.8,4.8,6.4,8.9,6.4c22.6,0,42.8-7.7,60.3-20.4c10.5-7.6,17.8-15.3,21.8-20.6c1.5-1.9,2.1-4.4,1.8-6.8
		C460.5,129.6,419.3,53,397,38.9c-6.8-4.3-21.1-10.1-42.2-17.6c-3.4-1.2-7-2.4-10.7-3.7c-9.8-3.3-20-6.7-31.7-10.5
		c-1.9-0.6-17.9-5.8-20.1-6.5c-6.3-2.1-12.8,2.9-12.3,9.6c0,0.3,0.1,0.9,0.1,1.8c0.3,6.9,0.1,15.8-1,25.8
		c-1.6,14.6-4.7,28.9-9.7,42.2c-7.8,20.6-19.6,37.2-36.1,48.9c-16.4-11.7-28.3-28.3-36.1-48.9c-5.1-13.3-8.2-27.6-9.7-42.2
		c-1.1-10-1.3-18.9-1-25.8c0-0.9,0.1-1.6,0.1-1.8c0.5-6.7-5.9-11.7-12.3-9.6c-2.2,0.6-18.1,5.7-20,6.4c-11.7,3.8-21.9,7.2-31.7,10.5
		c-3.7,1.3-7.3,2.5-10.7,3.7c-21.2,7.5-35.5,13.3-42.2,17.6C47.4,52.9,6.2,129.5,0.1,176.1c-0.3,2.4,0.3,4.9,1.8,6.8
		c4,5.4,11.3,13,21.8,20.6c17.5,12.7,37.8,20.4,60.3,20.4c4,0,7.6-2.6,8.9-6.4l10.9-32.8C106.7,192.3,109.7,200.3,112.4,208.7
		L112.4,208.7z"/>
	<path class="st0" d="M289.3,0c-7.5,0-12.2,0.9-28.6,4.9c-9.4,2.3-14.8,3.4-20.5,4c-2.4,0.3-4.7,0.4-6.9,0.4s-4.5-0.1-6.9-0.4
		c-5.7-0.6-11-1.7-20.5-4c-16.4-4-21.1-4.9-28.6-4.9c-4.9,0-8.9,3.8-9.3,8.6c0,0.5-0.1,1.3-0.1,2.5c-0.9,22.2,2,49.2,11.9,75.4
		c9.9,26.1,25.8,47.3,48.6,61.4c3,1.9,6.8,1.9,9.8,0c22.8-14.1,38.7-35.3,48.6-61.4c10-26.2,12.8-53.3,11.9-75.4
		c0-1.2-0.1-2-0.1-2.5C298.2,3.7,294.2,0,289.3,0L289.3,0z M279.1,37.6c-1.6,14.6-4.7,28.9-9.7,42.2c-7.8,20.6-19.6,37.2-36.1,48.9
		c-16.4-11.7-28.3-28.3-36.1-48.9c-5.1-13.3-8.2-27.6-9.7-42.2c-0.7-6.6-1-12.7-1.1-18c3.5,0.7,8.1,1.7,15.1,3.4
		c10.2,2.5,16.1,3.7,22.9,4.4c3.1,0.3,6.1,0.5,8.9,0.5s5.9-0.2,8.9-0.5c6.7-0.7,12.7-1.9,22.9-4.4c7-1.7,11.6-2.8,15.1-3.4
		C280.1,25,279.8,31,279.1,37.6L279.1,37.6z"/>
	<path class="st0" d="M289.3,242.6c0,14.1-24.4,28-56,28s-56-13.9-56-28s24.4-28,56-28S289.3,228.6,289.3,242.6L289.3,242.6z
		 M308,242.6c0-27.2-34.1-46.7-74.7-46.7s-74.7,19.5-74.7,46.7s34.1,46.7,74.7,46.7S308,269.8,308,242.6L308,242.6z"/>
	<path class="st0" d="M224,252h18.7c5.2,0,9.3-4.2,9.3-9.3s-4.2-9.3-9.3-9.3H224c-5.2,0-9.3,4.2-9.3,9.3S218.8,252,224,252z"/>
</g>
</svg>
