<?xml version="1.0" encoding="utf-8"?>
<!-- Generator: Adobe Illustrator 26.0.0, SVG Export Plug-In . SVG Version: 6.00 Build 0)  -->
<svg version="1.1" id="katman_1" xmlns="http://www.w3.org/2000/svg" xmlns:xlink="http://www.w3.org/1999/xlink" x="0px" y="0px"
	 viewBox="0 0 528.4 539.8" style="enable-background:new 0 0 528.4 539.8;" xml:space="preserve">
<g>
	<path d="M475.2,112.9c-3.4-15-6.3-28-16.8-45.3c-11.3-18.6-47.2-25.7-79-32c-5.7-1.1-11.1-2.2-16.1-3.3L348.4,1.6
		c-0.2-0.4-0.5-0.8-0.9-1.1c-0.1-0.1-0.2-0.1-0.3-0.1c-0.3-0.1-0.5-0.3-0.8-0.3c-0.1,0-0.2,0-0.3,0C346,0.1,346,0,345.9,0H191.2
		h-0.1c-0.1,0-0.1,0-0.2,0c-0.4,0-0.9,0.2-1.2,0.4c-0.1,0.1-0.1,0.1-0.2,0.2c-0.2,0.2-0.5,0.4-0.7,0.6l-16.9,26.6
		c-3,0.2-6.3,0.5-9.8,0.5c-26.6,0.4-80.8,17.5-97.3,37.9c-14,17.2-17.7,33.1-22.9,55.1C36,146.1,28,180.1,1.2,235.7L0,238.2
		l88.7,42.2L90,278c9.5-17.8,14.8-46.1,16.8-58.6c10.6,12.7,38.6,48.8,34.3,72.3c-14.2,78.1-18.9,197.5-18.9,198.8v0.7l0.3,0.6
		c19.3,38.6,120.1,47.8,144,48h0.9c36.2,0,129-19.4,134.5-48.7c5.7-30.8-3.1-74.2-11.6-116.2c-7.1-35.4-13.9-68.8-12.3-94
		c0.9-14.8,22.2-50.3,29.7-62.4l29.6,56.3l2.2-0.7c31.3-9.7,84.2-42.9,86.5-44.3l2.4-1.5l-1.6-2.4
		C487,165.5,480.4,136.3,475.2,112.9L475.2,112.9z M275.9,205.1h-14.7V97.7l7.4-9.2l7.3,9.1V205.1z M176.6,30.8l15-23.5l67.6,70.9
		l5.4,5.6l-0.2,0.2l0.3,0.3l-9.2,11.4l0,0l-21.4,26.6L176.6,30.8z M281.9,65.9l-13.2,13.8l-0.1-0.2l-0.1,0.2L197.8,5.6h141.6
		L281.9,65.9z M281.5,95.6l-6.7-8.4l-2.5-3.1l72.9-76.4l13,26.9L303,122.3L281.5,95.6z M440,268.3l-31.9-60.7l-2.6,4
		c-1.3,2-32,49.8-33.1,69.2c-1.6,25.9,5.2,59.7,12.4,95.4c8.4,41.5,17,84.4,11.6,114c-4.3,23.3-90.2,44.1-129,44.1h-0.9
		c-31.1-0.3-121.2-11.3-138.7-44.2c0.4-10.2,5.3-122.7,18.8-197.2c5.7-31.4-37.8-79.6-39.7-81.6l-4.1-4.5l-0.8,6
		c-0.1,0.4-5,38.1-15.8,60.4L7.4,235.7c26-54.7,34-88.3,39.9-113c5.2-22.1,8.7-36.6,21.8-52.8c15.4-18.9,68.1-35.4,93.1-35.8
		c3.4,0,6.5-0.3,9.5-0.5l1.4,2.3l60.5,96.1l2.5-3l0,0l19.5-24.2v106.1h25.9V104.8l3.2,3.9l18.8,23.4l59.2-94
		c4.9,1.1,10.2,2.1,15.7,3.2c29.1,5.8,65.3,13,75.3,29.4c10,16.5,12.8,29.1,16.1,43.7c5.3,23.6,11.9,52.8,50.8,112.7
		C509.9,233.4,467.1,259.2,440,268.3L440,268.3z"/>
</g>
</svg>
