<?xml version="1.0" encoding="utf-8"?>
<!-- Generator: Adobe Illustrator 26.0.0, SVG Export Plug-In . SVG Version: 6.00 Build 0)  -->
<svg version="1.1" id="katman_1" xmlns="http://www.w3.org/2000/svg" xmlns:xlink="http://www.w3.org/1999/xlink" x="0px" y="0px"
	 viewBox="0 0 262.2 264.9" style="enable-background:new 0 0 262.2 264.9;" xml:space="preserve">
<g id="katman_2_00000148632507723829175450000004391371660358786709_">
	<g id="katman_1-2">
		<path d="M53.5,264.9c-3.5-2.2-3.9-3.2-3.3-7.2c2.8-16.9,5.9-33.8,8.3-50.8c0.8-5.3-0.1-10.8-0.5-16.2c-1.1-15.5-2.3-31-3.4-46.4
			c-0.5-6.3-1-12.5-1.4-18.9c-1.9,0.3-3.8,0.5-5.7,0.6c-4.4-0.1-8.5-2.1-11.3-5.4C25.9,109.5,15.8,98.3,5.7,87.3
			c-5.5-6-7.5-12.8-3.9-20.4c1.2-2.6,1.7-5.5,1.5-8.3C2.7,31.3,22,8.7,49.3,4.6c9-1.4,17.9-2.9,26.8-4.4c3.3-0.6,5.6,0.5,6.3,3.4
			c2.6,10.8,10.3,16.3,20,19.7c11.1,3.9,22.6,4.7,34.2,4.1c10.4-0.5,20.6-2.1,29.9-7.1c6.5-3.5,11.2-8.5,13.1-15.8
			c1.1-4.1,2.9-5,7.1-4.2C197,2,207.3,3.5,217.5,5.6c21.6,4.3,38.8,23.3,41,45.2c0.4,3.7,0.1,7.4,0.3,11.1c0,1,0.3,2,0.8,2.9
			c4.1,7,3.7,14.8-1.7,20.9c-10.6,12-21.3,23.8-32.1,35.5c-4.1,4.5-9.1,5.6-16.5,4.1c-0.3,3.5-0.6,7-0.9,10.5
			c-1.7,22.5-3.4,45.1-4.8,67.6c-0.3,4.5,1,9,1.8,13.5c2.3,13.9,4.6,27.7,6.9,41.6c0.5,3.1-0.8,5.1-3.5,6.5L53.5,264.9z
			 M126.9,255.2V252c0-52.3,0-104.6,0.1-156.8c0-2.6-0.8-3.5-3.2-4.2c-8.8-2.3-17.6-4.8-26.4-7.3c-5.1-1.4-6.1-5-2.6-9.1
			c1.5-1.8,3.1-3.5,4.7-5.2l4.7-5.4c-4-1.3-7.8-2.2-11.3-3.7C84.3,56.8,78,51,75.9,41.6c-1-4.9-1.8-9.8-2.2-14.8
			c-0.5-5.4-0.6-10.8-0.8-16.5c-8.6,1.5-17.1,2.7-25.6,4.4c-12,2.4-21.3,9-27.9,19.3c-5.1,7.9-7.4,17.3-6.5,26.6
			c0.2,2.5,0.9,5.1-0.9,7.5c-3.6,4.8-3.4,8,0.5,12.4c10,11.1,20,22.2,30,33.2c0.8,0.9,1.8,1.7,2.8,2.2c3.7,1.8,6.8-0.4,6.7-4.4
			c-0.2-5.6-0.3-11.2,0-16.8c0.4-7.6,2.7-15,6.6-21.5c0.8-1.4,2.1-2.4,3.7-2.8c1.7,0,3.3,0.6,4.5,1.7c1.6,1.5,1.2,3.7,0.1,5.5
			c-2.7,4.8-4.8,9.8-5.1,15.3c-0.4,7.6-0.3,15.2,0.1,22.7c1.8,26.8,4,53.5,5.9,80.2c0.2,3.4,0.8,7,0.4,10.3
			c-1.8,11.8-3.9,23.6-5.9,35.4c-0.7,4.5-1.4,8.9-2.2,13.5L126.9,255.2z M201.8,255.2c0.1-0.3,0.1-0.6,0.1-0.9
			c-1.9-11.6-4-23.3-5.8-34.9c-0.9-6-2.2-12.1-2-18.1c0.4-12.9,1.8-25.8,2.7-38.7c1.2-15.4,2.3-30.8,3.4-46.2
			c1-13.5,2-26.9-5.3-39.3c-1.3-2.1-0.6-4.9,1.5-6.1c0.2-0.1,0.3-0.2,0.5-0.2c2.3-1.2,5.1-0.3,6.2,2c0,0.1,0.1,0.2,0.1,0.2
			c1.6,3,3,6.2,4.2,9.4c3.4,9.8,3.1,19.9,2.4,29.9c-0.2,2.7,1.1,3.6,3.2,4c2.3,0.5,4.6-0.3,6.1-2.1c1.2-1.2,2.3-2.6,3.5-3.8
			c9.2-10.2,18.4-20.4,27.6-30.5c2.8-3.1,3.5-7,1.1-9.9s-2.4-6-2.2-9.4c1-17.9-6.3-31.5-21.5-41c-7-4.4-15-5.4-22.9-6.7
			c-5.1-0.9-10.3-1.7-15.6-2.5c-0.1,1-0.1,1.7-0.1,2.3c-0.5,7.6-0.9,15.3-1.6,22.9c-1.2,12.5-7.7,21-19.4,25.4
			c-2.9,1.1-5.9,1.9-9.2,2.9c3.4,3.8,6.6,7.4,9.8,11c3.4,3.8,2.3,7.5-2.7,8.9c-9,2.5-18.1,5.1-27.1,7.5c-2,0.5-2.5,1.4-2.5,3.3
			c0.1,52.6,0.1,105.2,0.1,157.9c0,0.9,0.1,1.8,0.1,2.8L201.8,255.2z M82.6,23.6c0.8,5,1.5,10,2.4,15c1.1,6.6,5.5,10.4,11.2,12.9
			c5.2,2.2,10.7,3.4,16.3,3.2c2.5-0.1,4.9,1.1,6.2,3.3c3.6,5.5,7.4,10.8,11.2,16.2c0.5,0.7,1,1.3,1.6,2.2c4.1-6.2,8-12.2,11.8-18.2
			c1.3-2.2,3.6-3.5,6.1-3.5c4-0.1,8.1-0.7,12-1.6c5.9-1.6,11.5-4.2,14.2-10.2s2.9-12.8,3.5-19.8c-14.3,11.6-30.9,14-48,14
			S97.4,34.8,82.6,23.6z M140.3,80.4l0.3,0.5l16.6-4.6l-8.2-9.2L140.3,80.4z M113.8,67.6l-7.8,8.7l16.2,4.5l0.3-0.5L113.8,67.6z"/>
	</g>
</g>
</svg>
