<?xml version="1.0" encoding="utf-8"?>
<!-- Generator: Adobe Illustrator 26.0.0, SVG Export Plug-In . SVG Version: 6.00 Build 0)  -->
<svg version="1.1" id="katman_1" xmlns="http://www.w3.org/2000/svg" xmlns:xlink="http://www.w3.org/1999/xlink" x="0px" y="0px"
	 viewBox="0 0 49.8 56.9" style="enable-background:new 0 0 49.8 56.9;" xml:space="preserve">
<g id="Layer_26">
	<path d="M32.1,27.2c-0.3,0-0.5,0.2-0.5,0.4c-0.8,8.2-3,14.7-6.5,19.5c-0.2,0.2-0.1,0.5,0.1,0.7c0.1,0.1,0.2,0.1,0.3,0.1
		c0.2,0,0.3-0.1,0.4-0.2c3.6-4.9,5.8-11.6,6.7-19.9C32.6,27.4,32.4,27.2,32.1,27.2z"/>
	<path d="M15.9,16.1c-0.1-0.3-0.3-0.4-0.6-0.4s-0.4,0.3-0.4,0.6c3.6,15,6.4,25.5,8.4,31.3c0.1,0.3,0.4,0.4,0.6,0.3
		c0.3-0.1,0.4-0.4,0.3-0.6C22.2,41.5,19.4,31,15.9,16.1z"/>
	<path d="M49.7,21.2c-1-1.8-2.7-4.9-4.9-8.9c-2.1-5-3.9-7.8-5.5-8.3c-2.4-1.1-4.7-2.4-6.9-3.9h-0.1l0,0C32.1,0,32,0,31.9,0h-0.1
		c-4.9,3.2-9.2,3.3-13.3,0.3l0,0c-0.2-0.1-0.3-0.1-0.5,0c-1.3,0.7-3.6,1.7-6.6,3.2C9.8,4.3,8.3,6,6.8,8.9l0,0
		c-0.9,1.7-3.1,5.7-6.7,12c-0.1,0.2-0.1,0.4,0,0.6c2.8,3.2,6.1,6.1,9.7,8.4l0,0c1.1-0.6,1.6-2,2.1-3.5c-0.1,2.3-0.3,4.6-0.6,6.9
		c0,14.5,0.2,14.9,1.5,15c5.4-0.4,7.8,0.3,8.9,1.1c-1.8,1.2-2.6,3.6-2.2,7c0,0.3,0.2,0.4,0.5,0.4c0.2,0,0.4-0.1,0.5-0.3
		c0.4-1.2,1.1-2.3,2-3.2c0.1-0.1,0.2-0.4,0.1-0.5c-0.4-0.7-0.1-1.5,0.5-1.9c0,0,0.1,0,0.1-0.1c0.2,0.5,0.6,1,1.1,1.4
		c1,1.2,1.7,2.5,2,4c0.1,0.3,0.4,0.4,0.6,0.3c0.1,0,0.2-0.1,0.2-0.1c0.9-0.9,1.5-2.8-0.5-4.9c-1.3-0.8-1.3-1.2-1.3-1.2
		s0-0.1,0.2-0.2c0.9-0.6,1.9-1.1,3-1.3h0.1c2.9-0.6,5.8-0.9,8.8-0.8c0.3,0,0.5-0.2,0.5-0.5c0.4-5,0.7-11.5,0.7-19.4
		c0.4,0.6,0.8,2,1.6,1.6c3.4-2.3,6.6-5.1,9.5-8.1C49.8,21.6,49.8,21.4,49.7,21.2z M31.1,1.6c-0.2,0.6-0.5,1.2-0.8,1.7
		c-3.8,1.5-7.4,1.6-10.5,0.1c-0.3-0.5-0.5-1-0.7-1.5C22.8,4.1,26.9,4,31.1,1.6z M29.2,4.8c-2,2.2-6.1,1.9-8,0.2
		C23.8,5.8,26.6,5.7,29.2,4.8z M17.9,1.5c1.4,4.3,4.2,6.2,8.5,5.8c2-0.3,3.7-1.5,4.7-3.2c0,0,0-0.1,0-0.1c0.5-0.9,0.9-1.8,1.2-2.7
		l0.3,0.2C31,6.2,28.5,8.2,25,7.8c-3.6-0.2-6.1-2.2-7.5-6.1L17.9,1.5z M26.1,52.4c1,1.1,1.1,2,0.8,2.6c-0.4-1.3-1-2.4-1.9-3.4
		C25.4,51.9,25.7,52.2,26.1,52.4L26.1,52.4z M40.1,28.7c-1-1.8-1.6-3.9-1.5-5.9c0.1-4.9,0.7-9.7,2-14.4c0.1-0.3-0.1-0.5-0.4-0.6
		c-0.3-0.1-0.5,0.1-0.6,0.4c-1.6,6.3-2.3,11.3-2.1,15c0.1,9.9-0.1,17.9-0.6,23.8c-2.5,0-4.9,0.2-7.3,0.6c2.8-4.4,4.9-11.3,6.2-20.6
		c0-0.3-0.2-0.5-0.4-0.6s-0.5,0.2-0.6,0.4l0,0c-1.3,9.8-3.6,16.9-6.7,21.1c-1.7,0.6-5.1,1.5-3.3,3.5c0,0-0.1-0.1-0.2-0.1
		c-0.3-0.4-0.5-0.8-0.7-1.3c-0.1-0.2-0.4-0.3-0.7-0.2c-1.5,0.7-2.1,1.8-1.7,3.1c-0.4,0.5-0.8,1-1.1,1.5c0.1-2.2,0.9-3.7,2.3-4.4
		c0.9-0.6-0.5-1.5-1.1-1.8c0.3,0,0.5-0.1,0.6-0.4c0-0.1,0-0.3-0.1-0.4C18.4,42.9,16,36,14.7,26.9c0-0.3-0.3-0.5-0.6-0.4
		s-0.5,0.3-0.4,0.6c1.3,9.3,3.8,16.3,7.6,21.1c-1.7-0.8-4.5-1-8.5-0.8c-0.2-0.6-0.6-3.3-0.5-14c0.7-4.5,0.8-9,0.2-13.5
		c0-0.1,0-0.1,0-0.2c-0.5-3.4-1.6-6.6-3.5-9.5C8.9,10,8.6,9.9,8.4,10.1c-0.2,0.1-0.3,0.4-0.1,0.7c1.8,2.8,2.9,6,3.3,9.3
		c0.1,4.2-0.5,7.1-1.8,8.7c-3.1-2.2-6-4.8-8.6-7.6C4.6,15,6.8,11,7.7,9.3c1.4-2.6,2.7-4.3,4-4.9l4.8-2.3c1.6,4.2,4.4,6.4,8.4,6.7
		C28.8,9.3,31.8,7,33.6,2c1.7,1.1,3.5,2,5.3,2.8c0.9,0.3,2.5,1.9,5,7.8c2.1,3.9,3.7,6.8,4.8,8.6C46.1,24.1,43.2,26.6,40.1,28.7
		L40.1,28.7z"/>
	<path d="M26.6,38.5c0.2,0,0.4-0.2,0.5-0.4c1.2-4.6,1.7-9.4,1.7-14.1c0-0.3-0.2-0.5-0.5-0.5s-0.5,0.2-0.5,0.5
		c0.1,4.7-0.5,9.3-1.7,13.9c-0.1,0.3,0.1,0.5,0.3,0.6C26.5,38.5,26.6,38.5,26.6,38.5z"/>
	<path d="M24.1,21.6c-0.3,0-0.5,0.1-0.6,0.4c-1.1,6.2-1.3,12.5-0.5,18.7c0,0.3,0.3,0.5,0.6,0.4s0.5-0.3,0.4-0.6l0,0
		c-0.8-6.1-0.6-12.3,0.5-18.4C24.6,21.9,24.4,21.6,24.1,21.6z"/>
</g>
</svg>
