<?xml version="1.0" encoding="utf-8"?>
<!-- Generator: Adobe Illustrator 26.0.0, SVG Export Plug-In . SVG Version: 6.00 Build 0)  -->
<svg version="1.1" id="katman_1" xmlns="http://www.w3.org/2000/svg" xmlns:xlink="http://www.w3.org/1999/xlink" x="0px" y="0px"
	 viewBox="0 0 47.4 57" style="enable-background:new 0 0 47.4 57;" xml:space="preserve">
<g id="Layer_28">
	<path d="M47.4,16.7c-2.8-4.8-4.5-8.1-4.8-9.7c-0.2-2-1.6-3.6-3.5-4.1c-3.4-0.2-6.4-1.6-9.4-2.9C25.5,1,21.2,1,17,0.1
		c-0.5,0-0.7,0.5-1.2,0.8l0,0.1c-2,1.2-4.2,2.1-6.4,2.6c-2.2,0-4,1.4-4.6,3.5c-0.5,2.2-2.1,5.3-4.6,9.3C0,16.5,0,16.7,0,16.8
		c0,0.1,0.1,0.2,0.2,0.3c2.1,1.1,5.1,2.9,8.9,5.4c0.7,0.7,1.5,0.5,2.4-0.2c1,4,1.4,8.2,1.2,12.3c-0.4,4.8-1.1,10.4-2.3,16.7
		c-0.4,1.6-1.6,4.2,0.8,4.7c7.5,0.2,14.1,0.5,19.9,0.9c5.3-0.3,9-0.7,8.9-3.3c-0.3-3-0.8-6-1.6-8.9c-2-5.3-2.9-8.9-2.5-10.2
		c-0.1-1.5-0.7-8.6,1.2-13.2c0.3,0.4,0.7,1,1.2,0.6c2.6-2,5.6-3.5,8.7-4.6C47.4,17.3,47.5,17,47.4,16.7
		C47.4,16.7,47.4,16.7,47.4,16.7z M17.1,1.2C21.3,2,25.6,2,29.7,1l0.1,0.1c0,1.6-1.4,2.8-4.2,3.6c-3.6,0.9-6.5-0.2-8.9-3.2L17.1,1.2
		z M38.2,20.9c-0.8-1-1.2-4.4,2.7-15c0.1-0.3,0-0.5-0.3-0.6c-0.3-0.1-0.5,0-0.6,0.3c0,0,0,0,0,0c-2.6,7.1-3.7,11.8-3.2,14.4
		c-0.2,0.3-0.3,0.7-0.5,1c-0.2-0.6-0.2-1.3,0-1.9c0-0.3-0.1-0.5-0.4-0.6c-0.3,0-0.5,0.1-0.6,0.4c0,0,0,0,0,0
		c-0.3,1.2-0.1,2.4,0.6,3.4c-0.2,0.7-0.4,1.5-0.5,2.2c-0.7-1.2-1.1-2.5-1.1-3.9c0-0.3-0.2-0.5-0.5-0.5c-0.3,0-0.5,0.2-0.5,0.5
		c0.1,2.4,0.8,4.1,1.9,5.2c-0.2,2-0.3,4-0.2,6c-1.3-2-2.2-5.4-2.8-9.9c0-0.3-0.3-0.5-0.5-0.5c0,0,0,0,0,0c-0.3,0-0.5,0.3-0.4,0.5
		c0,0,0,0,0,0c0.8,5.8,2,9.6,3.9,11.6c0,0.3,0,0.6,0.1,0.8c-0.5,1.9,1.4,7.4,2.6,10.5c0.7,2.7,1.2,5.5,1.5,8.2c-0.1,0.4,0.2,0.7,0,1
		c-0.4,0.5-1.8,1.4-7.7,1.7C25.7,55.5,19,55.2,11.6,55c-0.2,0-0.4-0.2-0.5-0.3c-0.4-0.7,0.5-2.3,0.6-3.2c1.1-6.4,1.9-12,2.3-16.8
		c0.5-10-2.8-18.7-6.8-28.3C7,6.2,6.7,6,6.5,6.2C6.2,6.2,6.1,6.5,6.2,6.8c0,0,0,0,0,0c2.1,4.7,3.8,9.5,5.2,14.5
		c-0.7,0.6-1.1,0.7-1.2,0.6c-3.5-2.3-6.9-4.3-8.9-5.4c2.5-3.9,4-6.9,4.5-9.1c0.4-1.7,2-2.9,3.8-2.8C11.7,4,13.9,3.2,15.9,2
		c2.7,3.4,6,4.6,10,3.6c3-0.9,4.6-2.2,4.9-4.1c2.6,1.2,5.3,2,8.1,2.3c1.5,0.4,2.6,1.8,2.7,3.3c0.4,1.7,1.9,4.8,4.6,9.5
		C43.3,17.7,40.6,19.1,38.2,20.9z"/>
</g>
</svg>
