<?xml version="1.0" encoding="utf-8"?>
<!-- Generator: Adobe Illustrator 26.0.0, SVG Export Plug-In . SVG Version: 6.00 Build 0)  -->
<svg version="1.1" id="Layer_2" xmlns="http://www.w3.org/2000/svg" xmlns:xlink="http://www.w3.org/1999/xlink" x="0px" y="0px"
	 viewBox="0 0 50.5 57" style="enable-background:new 0 0 50.5 57;" xml:space="preserve">
<path d="M1.8,57c-0.2,0-0.4-0.1-0.5-0.4c-0.5-1.6-0.8-3.3-1-5c0,0,0-0.1,0-0.1c-0.9-7,0-15.8,2.5-26.3C4.7,13.9,7.5,7.5,11.2,5.6
	c2.3-1.3,4.4-2.8,6.3-4.5c0.5-0.6,1.2-1,2-1.1c0.1,0,0.2,0,0.3,0c0.7,0.1,1.4,0.3,2,0.7c1.3,0.5,2.7,0.8,4.1,0.7
	c1.2,0,3.3-1.2,4.5-1.4h0.2c2,0.3,2.1,1.4,3.5,2.3l0,0c0.1,0,0.2,0.1,0.3,0.2c1.6,1.1,3.2,2.2,4.9,3.1c3.8,1.9,6.5,8.3,8.5,19.7
	c2.5,10.5,3.3,19.3,2.4,26.2c0,0,0,0.1,0,0.1c-0.2,1.7-0.5,3.4-1,5c-0.1,0.3-0.4,0.4-0.6,0.3c-0.1,0-0.1-0.1-0.2-0.1
	c-1.4-1.3-3.2-1.4-5.5-0.4c-0.3,0.1-0.5,0-0.7-0.3c0-0.1,0-0.1,0-0.2c0.2-5.8-0.5-12.6-2.1-21.4c0.2,3,0.3,5.9,0.3,8.9v0.1
	c0,2,0,3.9-0.1,5.9c0,0.3-0.3,0.5-0.5,0.5c-4.8-0.2-9.6,0-14.4,0.8c-4.8-0.7-9.6-1-14.5-0.8c-0.3,0-0.5-0.2-0.5-0.5c0,0,0,0,0,0
	c-0.1-2-0.1-3.9-0.1-5.9v-0.1c0-3,0.1-5.9,0.3-8.9C9,41.7,8.3,48.8,8.3,56c0,0.3-0.2,0.5-0.5,0.5c-0.1,0-0.2,0-0.2,0
	c-2.4-1-4.2-0.9-5.5,0.3C2,56.9,1.9,57,1.8,57z M1.4,51.9c0.2,1.2,0.4,2.5,0.7,3.7c1.6-1,3.6-1.1,5.3-0.3c0-1.1,0-2.2,0-3.4
	C6.3,51.2,4.2,51.2,1.4,51.9z M45.7,54.8c1,0,1.9,0.3,2.7,0.8c0.3-1.2,0.6-2.5,0.7-3.7c-2.9-0.7-4.9-0.7-6,0c0,1.2,0,2.3,0,3.4
	C43.9,54.9,44.8,54.8,45.7,54.8z M11.7,6.5c-3.4,1.7-6.1,8.1-8,19C1.3,35.6,0.5,44.1,1.2,50.9c2.8-0.7,4.8-0.7,6.2-0.1
	c0.4-8.6,2.3-17.9,3.9-25.5c0.2-1.2,0.3-2.5,0.5-3.7c0-0.3,0.3-0.5,0.6-0.4c0.3,0,0.5,0.3,0.4,0.6c0,0,0,0,0,0
	c-1.1,7.1-1.6,14.2-1.6,21.3c2.9,0.1,5.4,0.2,7.5,0.2c-0.5-11.5-1-22.7-1.6-33.1c0-0.3,0.2-0.5,0.4-0.5c0,0,0,0,0,0
	c0.3,0,0.5,0.2,0.5,0.5c0,0,0,0,0,0c0.6,10.4,1.2,21.6,1.6,33.2l2.1,0.1c-1.1-15.7-1.5-26.8-1.1-33c0-0.3,0.3-0.5,0.5-0.5
	c0.3,0,0.5,0.3,0.5,0.5c0,0,0,0,0,0c-0.4,6.2,0,17.3,1.1,33c0.9,0,1.7,0.1,2.3,0.1c0.6,0,1.5-0.1,2.6-0.2c1.1-15.7,1.5-26.8,1.1-33
	c0-0.3,0.2-0.5,0.5-0.5c0,0,0,0,0,0c0.3,0,0.5,0.2,0.5,0.5c0.4,6.2,0,17.3-1.1,33l2.1-0.1c0.5-11.6,1-22.7,1.6-33.2
	c0-0.3,0.3-0.5,0.5-0.5c0.3,0,0.5,0.3,0.5,0.5c-0.7,10.4-1.2,21.6-1.7,33.1c2.1-0.1,4.6-0.2,7.5-0.2c0-7.1-0.6-14.3-1.7-21.3
	c0-0.3,0.1-0.5,0.4-0.6c0,0,0,0,0,0c0.3,0,0.5,0.1,0.6,0.4c0.2,1.2,0.3,2.4,0.5,3.5c2.4,10.7,3.6,18.9,4,25.6
	c1.4-0.6,3.4-0.6,6.2,0.1c0.8-6.7-0.1-15.3-2.5-25.4c-1.9-10.9-4.6-17.3-8-19l0,0c-1.8-1.1-3.3-2-4.4-2.8c-0.3,0.8-0.7,1.5-1.1,2.1
	c4.5,4.9,7.5,10.9,8.9,17.4c0.1,0.3-0.1,0.5-0.4,0.6s-0.5-0.1-0.6-0.4c-1.3-6.3-4.2-12.1-8.5-16.8c-1.9,2.1-4.6,3.3-7.5,3.4l0,0
	c-2.8,0-5.4-1.3-7.2-3.4c-4.4,4.7-7.3,10.5-8.5,16.8c-0.1,0.3-0.3,0.5-0.6,0.4s-0.5-0.3-0.4-0.6l0,0c1.5-7,4.4-13,8.9-17.4
	c-0.5-0.7-0.8-1.4-1.1-2.2C14.7,4.6,13.3,5.6,11.7,6.5L11.7,6.5L11.7,6.5z M14.2,48.9c3.7,0,7.4,0.3,11,0.9c4.6-0.8,9.3-1.1,14-0.9
	c0-1.6,0.1-3.2,0.1-4.9c-6.2,0.2-9.4,0.3-13.7,0.5c-1.1,0-2.2,0-3.3-0.1c-2.6-0.1-6.3-0.2-11.1-0.4c0,1.6,0,3.2,0.1,4.9
	C12.2,48.9,13.2,48.9,14.2,48.9z M17,3c1.4,3.8,4,5.7,8.1,6c2.7,0,5.3-1.3,7-3.4l0,0c0.6-0.8,1-1.6,1.3-2.5c-1-0.7-1.2-1.3-2.3-1.9
	c0,1.2-0.3,2.5-1,3.5c0,0.1-0.1,0.2-0.2,0.2c-1.8,2.4-7.2,2.7-9.2,0.6c-1.1-1.2-1.6-2.7-1.6-4.3c-0.4,0.1-0.7,0.4-1,0.7
	C17.9,2.2,17.5,2.6,17,3z M21.7,4.8c1.4,1.4,5.3,1.2,6.9,0C26.3,4.6,24,4.6,21.7,4.8z M20.2,1.1c0,1,0.2,1.9,0.7,2.8
	c2.8-0.3,5.7-0.3,8.5,0c0.5-0.8,0.8-1.8,0.8-2.8c-1.3,0.6-2.6,1-4,1.3c-1.6,0.1-3.2-0.1-4.6-0.7C21.2,1.4,20.7,1.2,20.2,1.1z"/>
</svg>
