<?xml version="1.0" encoding="utf-8"?>
<!-- Generator: Adobe Illustrator 26.0.0, SVG Export Plug-In . SVG Version: 6.00 Build 0)  -->
<svg version="1.1" id="katman_1" xmlns="http://www.w3.org/2000/svg" xmlns:xlink="http://www.w3.org/1999/xlink" x="0px" y="0px"
	 viewBox="0 0 550.9 551.3" style="enable-background:new 0 0 550.9 551.3;" xml:space="preserve">
<g>
	<path d="M550.9,507.4c0.1-326-97.5-431.6-101.7-436l0,0c-0.4-0.4-0.8-0.7-1.3-0.9l-72.6-34.7c-4.1-23.6-25.9-33.7-37.9-35.7
		c-0.1,0-0.2,0-0.3,0c-0.1,0-0.2-0.1-0.4-0.1H214.2c-0.1,0-0.2,0.1-0.4,0.1c-0.1,0-0.2,0-0.3,0c-12.1,2-33.8,12-37.9,35.6L103,70.4
		c-0.5,0.2-0.9,0.5-1.3,0.9l0,0C97.5,75.6-0.1,181.3,0,507.3c0,3.9,1.7,7.3,4.3,9.7l0.1,20.7c-0.5,3.3,0.4,6.5,2.5,8.9
		c2.4,2.9,6.3,4.5,10.7,4.5h43.6c6.8,0,12.1-6.4,13.1-12.5l2.6-18.4c5.2-1.3,8.9-6.6,10.4-11.5c3.1-10.4,7.5-30.9,13.4-63.3
		c0.6,21.4,2,40.5,4.3,54.1c1.2,7,6.5,14.2,13.6,16.2l3.8,23c0.8,6.1,6,12.6,13.1,12.6h280c7.1,0,12.3-6.5,13.1-12.4l3.9-23.1
		c7.3-1.9,12.4-9.2,13.6-16.2c2.5-13.8,3.8-32.8,4.4-53.9c5.9,32.5,10.2,52.6,13.4,63.1c1.5,4.9,5.3,10.2,10.4,11.5l2.6,18.6
		c1,6,6.3,12.4,13.1,12.4h43.4c4.4,0,8.2-1.6,10.7-4.5c2.1-2.4,2.9-5.6,2.5-8.9l0.1-20.7C549.2,514.7,550.9,511.3,550.9,507.4
		L550.9,507.4z M367.3,43.8c0,22.8-32.3,67-43.6,80.7l-40.3-51.2c42.2-8.5,54.8-46.1,57.1-63.3C349.4,12.7,367.3,21,367.3,43.8z
		 M324.9,30.7h-99c-4.2-8.4-6.2-16.5-7-21.9h113C331.2,14.2,329.1,22.3,324.9,30.7L324.9,30.7z M319.8,39.4
		c-8.6,12.4-22.4,23.7-44.4,26.2c-22-2.5-35.8-13.8-44.4-26.2H319.8z M275.4,77.1l34.1,43.4c-10,7.5-21.4,13.9-34.1,19.2
		c-12.7-5.2-24.1-11.7-34.1-19.2L275.4,77.1z M210.2,10c2.3,17.2,15,54.8,57.1,63.3L227,124.5c-11.2-13.6-43.6-57.9-43.6-80.7
		C183.5,21.2,201.5,12.7,210.2,10L210.2,10z M174.9,45.8c1.8,29.8,43.5,83,49.4,88.7c0.8,0.8,1.9,1.2,3.1,1.2c0.1,0,0.2,0,0.3,0
		c1.2-0.1,2.4-0.7,3.1-1.7l5.2-6.6c11.1,8.3,23.7,15.4,37.9,21.1c0.5,0.2,1.1,0.3,1.6,0.3s1.1-0.1,1.6-0.3
		c14.1-5.7,26.8-12.8,37.9-21.1l5.2,6.6c0.8,1,1.9,1.6,3.1,1.7c0.1,0,0.2,0,0.3,0c1.1,0,2.2-0.4,3.1-1.2
		c5.8-5.7,47.6-58.8,49.4-88.7l64.9,31c-15.7,59.5-20.4,118.9-14,177.1L406.8,270l-41-32.8c-1.6-1.3-3.9-1.3-5.5,0l-41,32.8
		l-41-32.8c-1.6-1.3-3.9-1.3-5.5,0l-41,32.8l-41-32.8c-1.6-1.3-3.9-1.3-5.5,0l-41,32.8l-19.7-15.7c6.3-55.1,1.5-114.6-14.6-177.5
		L174.9,45.8z M117.8,294.2c2.2-9.7,3.9-19.6,5.4-29.6l18.3,14.6c1.6,1.3,3.9,1.3,5.5,0l41-32.8l41,32.8c1.6,1.3,3.9,1.3,5.5,0
		l41-32.8l41,32.8c1.6,1.3,3.9,1.3,5.5,0l41-32.8l41,32.8c0.8,0.6,1.8,1,2.7,1c1,0,1.9-0.3,2.7-1l18.7-15c1.3,10,2.9,20,4.9,29.9
		c0.2,0.8,0.3,1.8,0.5,2.7l-26.9,21.5l-41-32.8c-1.6-1.3-3.9-1.3-5.5,0l-41,32.8l-41-32.8c-1.6-1.3-3.9-1.3-5.5,0l-41,32.8l-41-32.8
		c-1.6-1.3-3.9-1.3-5.5,0l-41,32.8l-26.8-21.6C117.5,295.9,117.6,295,117.8,294.2L117.8,294.2z M115.6,306.6l25.8,20.7
		c1.6,1.3,3.9,1.3,5.5,0l41-32.8l41,32.8c1.6,1.3,3.9,1.3,5.5,0l41-32.8l41,32.8c0.8,0.6,1.8,1,2.7,1c1,0,1.9-0.3,2.7-1l41-32.8
		l41,32.8c1.6,1.3,3.9,1.3,5.5,0l25.7-20.6c1.3,9.5,2.5,21.2,3.5,34.1l-31.9,25.5l-41-32.8c-1.6-1.3-3.9-1.3-5.5,0l-41,32.8
		l-41-32.8c-1.6-1.3-3.9-1.3-5.5,0l-41,32.8l-41-32.8c-1.6-1.3-3.9-1.3-5.5,0l-41,32.8l-32.2-25.8
		C112.9,327.7,114.2,316.1,115.6,306.6L115.6,306.6z M61,542.6H17.4c-1.7,0-3.2-0.5-4-1.4c-0.3-0.4-0.7-1-0.5-2.2
		c0-0.3,0.1-0.5,0.1-0.8v-17.5h0.1h54.7l-2.3,16.8C65.1,539.9,62.8,542.6,61,542.6L61,542.6z M78.7,506.3c-0.9,3.1-3.3,5.6-4.6,5.6
		h-61c-2.4,0-4.4-2-4.4-4.6c-0.1-278.2,73.4-395.9,94-423.4c18.5,75.2,20.8,145.2,6.6,208.2c-4.5,20.7-7.8,61.4-8.8,102.9
		C93.9,433.8,84.4,487.2,78.7,506.3L78.7,506.3z M415.4,542.6h-280c-1.9,0-4.1-2.4-4.4-5.1l-3.5-21.2h295.9l-3.6,21.3
		C419.5,540.1,417.3,542.6,415.4,542.6L415.4,542.6z M437.4,498.1c-0.8,4.6-4.6,9.5-8.8,9.5H122.3c-4.3,0-8-4.9-8.8-9.5
		c-4-23.2-5.2-62.7-4.3-101.7c0,0,0,0,0-0.1s0-0.1,0-0.2c0.4-15.4,1-30.8,2-45l30.3,24.2c1.6,1.3,3.9,1.3,5.5,0l41-32.8l41,32.8
		c1.6,1.3,3.9,1.3,5.5,0l41-32.8l41,32.8c0.8,0.6,1.8,1,2.7,1c1,0,1.9-0.3,2.7-1l41-32.8l41,32.8c1.6,1.3,3.9,1.3,5.5,0l30-24
		C442.6,401.5,443.1,465.7,437.4,498.1L437.4,498.1z M450.2,394.4c-1.2-41.3-4.5-81.7-8.6-102c-13.5-68-11.3-138.1,6.5-208.4
		c20.5,27.2,94.1,144.4,94,423.5c0,2.5-2,4.6-4.4,4.6h-61.1c-1.3,0-3.6-2.5-4.6-5.6C466.4,487.2,456.9,433.5,450.2,394.4
		L450.2,394.4z M537.8,538.9c0.2,1.2-0.2,1.9-0.5,2.2c-0.8,0.9-2.2,1.4-4,1.4h-43.6c-1.7,0-4-2.6-4.4-5l-2.3-16.9h54.7h0.1
		l-0.1,17.5C537.8,538.4,537.8,538.7,537.8,538.9L537.8,538.9z"/>
</g>
</svg>
