<?xml version="1.0" encoding="utf-8"?>
<!-- Generator: Adobe Illustrator 26.0.0, SVG Export Plug-In . SVG Version: 6.00 Build 0)  -->
<svg version="1.1" id="katman_1" xmlns="http://www.w3.org/2000/svg" xmlns:xlink="http://www.w3.org/1999/xlink" x="0px" y="0px"
	 viewBox="0 0 293 318.6" style="enable-background:new 0 0 293 318.6;" xml:space="preserve">
<g>
	<path d="M292,92.7c-0.7-25.6-6.7-60.2-31.3-79.9C245.5,0.6,230.5,0,229.9,0c-0.6,0-1.5,0-2.1,0h-18c-3.4,0-6.3,2.6-6.6,6.1
		c-1.3,10.3-4.3,20.2-9,29.5c-9.9,18.9-25.2,28.6-45.5,28.6h-4.3c-20.3,0-35.5-9.5-45.4-28.3l0,0c-4.8-9.3-7.9-19.4-9.2-29.8
		c-0.3-3.4-3.2-6-6.6-6.1h-18c-0.6,0-1.5,0-2.1,0S47.5,0.7,32.3,12.8C7.7,32.6,1.7,67.2,1,92.7c-2.3,84.6,0,182.5,0,183.5l0,0
		c0.1,3.6,3,6.4,6.6,6.4l0,0l31.6-0.2c-5.6,16.2-10.7,27.2-10.7,27.4c-0.9,1.9-0.8,4.2,0.3,6s3.1,2.9,5.3,2.8H259
		c2.1,0,4.1-1,5.3-2.8c1.1-1.8,1.3-4.1,0.3-6c-0.1-0.2-5.2-11.2-10.7-27.4l31.6,0.2l0,0c3.6,0,6.5-2.9,6.6-6.4
		C292,275.2,294.3,177.4,292,92.7L292,92.7z M280.9,271.4l-30.7-0.2c-2.2-7.1-4.2-14.8-6-22.7c-0.2-0.9-18.9-92.8-13.5-134.1l0,0
		c0.1-2.9-2-5.5-4.9-5.8s-5.6,1.5-6.2,4.4c-5.6,43.1,12.9,133.9,13.7,137.8c5.3,24.4,13.6,45.9,18,56.6H41.7
		c4.5-10.7,12.8-32.3,18.1-56.7c0.8-3.8,19.3-94.7,13.7-137.8l0,0c-0.4-3.1-3.2-5.2-6.3-4.8c-3.1,0.4-5.2,3.2-4.8,6.3
		c5.4,41.2-13.3,133.1-13.5,134c-1.7,8-3.8,15.7-6,22.8l-30.7,0.2c-0.4-20.3-1.9-104.4,0.1-178.3C13.2,60.2,22.4,35.6,38.9,22
		c12.3-10.1,24.6-10.8,24.7-10.8h1.7h14.1c1.7,10.3,4.9,20.2,9.7,29.5c11.8,22.6,31,34.6,55.5,34.6h4.3c24.5,0,43.7-11.9,55.5-34.6
		l0,0c4.7-9.3,8-19.2,9.7-29.5h14.1h1.7c0.1,0,12.4,0.7,24.7,10.8c16.5,13.6,25.7,38.2,26.6,71.1C282.8,167,281.3,251.1,280.9,271.4
		L280.9,271.4z"/>
</g>
</svg>
