<?xml version="1.0" encoding="utf-8"?>
<!-- Generator: Adobe Illustrator 26.0.0, SVG Export Plug-In . SVG Version: 6.00 Build 0)  -->
<svg version="1.1" id="katman_1" xmlns="http://www.w3.org/2000/svg" xmlns:xlink="http://www.w3.org/1999/xlink" x="0px" y="0px"
	 viewBox="0 0 507.5 507.5" style="enable-background:new 0 0 507.5 507.5;" xml:space="preserve">
<g>
	<path d="M507,487.2l-8.8-26.2c-0.1-0.3-0.3-0.5-0.5-0.8c5.4-6,7.9-14.4,6.2-22.8l-54.5-278.1c-7.7-46.7-47.6-80.6-95-80.6h-22
		c-4.8,0-8.8-3.9-8.8-8.8c0-0.5-0.2-1-0.3-1.5c10.3-3.5,17.8-13.2,17.8-24.7V26.2c0-14.5-11.8-26.2-26.2-26.2H192.5
		c-14.5,0-26.2,11.8-26.2,26.2v17.5c0,11.5,7.5,21.2,17.8,24.7c-0.1,0.5-0.3,1-0.3,1.5c0,4.8-3.9,8.8-8.8,8.8h-22
		c-47.3,0-87.3,33.9-94.9,80.3L3.5,437.2C1.7,445.6,4.3,454,9.7,460c-0.1,0.3-0.4,0.5-0.5,0.9l-8.8,26.2c-0.8,2.4-0.5,5.1,0.8,7.3
		s3.5,3.7,6.1,4.1l52.5,8.8c0.5,0.1,1,0.1,1.4,0.1c1.9,0,3.8-0.6,5.3-1.8c1.9-1.5,3.1-3.6,3.4-6l2.4-21.7
		c8.8-1.3,16.6-6.9,20.3-15.4l4.6-10.4c1.4,2.2,2.9,4.3,4.7,6.3c1.1,1.1,2.3,2,3.5,3.1c-0.2,0.7-0.4,1.4-0.4,2.2v17.5
		c0,14.5,11.8,26.3,26.2,26.3h245c14.5,0,26.2-11.8,26.2-26.2v-17.6c0-0.8-0.3-1.5-0.4-2.2c1.2-1,2.4-1.9,3.5-3.1
		c1.8-1.9,3.3-4.1,4.7-6.3l4.6,10.4c3.7,8.5,11.5,14.2,20.3,15.4l2.4,21.7c0.3,2.4,1.5,4.6,3.4,6c1.5,1.2,3.4,1.8,5.3,1.8
		c0.5,0,1,0,1.4-0.1l52.5-8.8c2.5-0.4,4.7-1.9,6.1-4.1C507.5,492.3,507.8,489.6,507,487.2L507,487.2z M183.7,26.2
		c0-4.8,3.9-8.8,8.8-8.8H315c4.8,0,8.8,3.9,8.8,8.8v17.5c0,4.8-3.9,8.8-8.8,8.8H192.5c-4.8,0-8.8-3.9-8.8-8.8V26.2z M20.2,483
		l4.8-14.4l29.9,7.2l-1.4,12.8L20.2,483z M76.6,455.5c-1.7,3.9-5.9,6-10,5L26.8,451c-4.4-1.3-7.1-5.7-6.1-10.3l54.6-278.6
		c6.3-38.2,39-65.9,77.7-65.9h22c14.5,0,26.2-11.8,26.2-26.2H245v72.4c-5.2,3-8.8,8.6-8.8,15.1c0,9.7,7.8,17.5,17.5,17.5
		s17.5-7.8,17.5-17.5c0-6.4-3.5-12-8.8-15.1V70h43.8c0,14.5,11.8,26.2,26.2,26.2h22c19.2,0,36.9,6.8,50.7,18.4
		c-65.4,7.4-116.4,63-116.4,130.4c0,61.1,43.4,115,103.1,128.2c0.5,0.1,1,0.1,1.5,0.2l6.3,53.4c0.6,7.4-1.9,14.4-6.9,19.9
		c-5,5.4-11.9,8.4-19.3,8.4H134c-7.4,0-14.2-3-19.3-8.4c-5-5.4-7.5-12.5-6.9-19.5l1-8.3c4.5,0.7,9.1,1.2,13.7,1.2
		c48.2,0,87.5-39.3,87.5-87.5c0-46-35.7-83.7-80.8-87.2l2-16.8c0.6-4.8-2.9-9.1-7.7-9.7c-4.8-0.6-9.2,2.9-9.7,7.7L90.6,423.7
		L76.6,455.5z M127.1,262.7c36.4,2.4,65.3,32.7,65.3,69.8c0,38.6-31.4,70-70,70c-3.9,0-7.8-0.4-11.6-1.1L127.1,262.7z M385,481.2
		c0,4.8-3.9,8.8-8.8,8.8h-245c-4.8,0-8.8-3.9-8.8-8.8v-10.5c3.8,1,7.6,1.8,11.5,1.8h239.4c3.9,0,7.8-0.7,11.5-1.8L385,481.2
		L385,481.2z M430.8,455.5l-14-31.9l-23.2-197.2c-0.6-4.8-4.9-8.3-9.7-7.7c-4.8,0.6-8.2,4.9-7.7,9.7l14.9,126.4
		c-49.5-13.1-84.9-58.5-84.9-109.9c0-62.7,51-113.7,113.7-113.8c6.1,9.1,10.4,19.7,12.3,31.2l54.6,278.4c0.9,4.5-1.8,8.9-5.8,10.1
		l-40.1,9.6C436.7,461.5,432.5,459.4,430.8,455.5L430.8,455.5z M453.9,488.6l-1.4-12.8l29.9-7.2l4.8,14.4L453.9,488.6z"/>
	<path d="M262.5,437.5c24.1,0,43.8-19.6,43.8-43.8s-19.6-43.8-43.8-43.8s-43.8,19.7-43.8,43.8S238.3,437.5,262.5,437.5z
		 M262.5,367.5c14.5,0,26.2,11.8,26.2,26.2s-11.8,26.2-26.2,26.2s-26.2-11.8-26.2-26.2S248,367.5,262.5,367.5z"/>
</g>
</svg>
