<?xml version="1.0" encoding="utf-8"?>
<!-- Generator: Adobe Illustrator 24.1.2, SVG Export Plug-In . SVG Version: 6.00 Build 0)  -->
<svg version="1.1" id="Warstwa_3" xmlns="http://www.w3.org/2000/svg" xmlns:xlink="http://www.w3.org/1999/xlink" x="0px" y="0px"
	 viewBox="0 0 430 430" style="enable-background:new 0 0 430 430;" xml:space="preserve">
<style type="text/css">
	.st0{fill:#16a9c7;}
	.st1{fill:#000000;}
	.st2{fill:none;}
	.st3{fill:#16a9c7;fill-opacity:0;}
</style>
<g>
	<path class="st1" d="M196.18,381.34h-69.07c-3.48,0-6.3-2.82-6.3-6.3v-90.61c0-3.48,2.82-6.3,6.3-6.3h69.07
		c3.48,0,6.3,2.82,6.3,6.3v90.61C202.48,378.52,199.66,381.34,196.18,381.34z M133.41,368.74h56.47v-78.01h-56.47V368.74z"/>
	<path class="st1" d="M161.77,378.9c-3.48,0-6.3-2.82-6.3-6.3v-85.62c0-3.48,2.82-6.3,6.3-6.3c0.08,0,0.15,0,0.23,0
		c3.48,0,6.3,2.82,6.3,6.3v85.5c0,2.51-1.47,4.67-3.59,5.69C163.83,378.64,162.83,378.9,161.77,378.9z"/>
	<path class="st1" d="M77.9,381.34c-1.67,0-3.27-0.66-4.45-1.84c-1.18-1.18-1.85-2.79-1.85-4.46V55.15c0-3.48,2.82-6.3,6.29-6.3
		l168.49-0.19c0,0,0,0,0.01,0c1.67,0,3.27,0.66,4.45,1.84c1.18,1.18,1.85,2.79,1.85,4.46v319.89c0,3.48-2.82,6.3-6.29,6.3
		L77.9,381.34C77.91,381.34,77.9,381.34,77.9,381.34z M246.39,374.85L246.39,374.85L246.39,374.85z M84.2,61.44v307.29l155.89-0.18
		V61.26L84.2,61.44z"/>
	<path class="st0" d="M134.43,113.38c-3.48,0-6.3-2.82-6.3-6.3V82.3c0-3.48,2.82-6.3,6.3-6.3s6.3,2.82,6.3,6.3v24.78
		C140.73,110.56,137.91,113.38,134.43,113.38z"/>
	<path class="st0" d="M161.18,113.38c-3.48,0-6.3-2.82-6.3-6.3V82.3c0-3.48,2.82-6.3,6.3-6.3s6.3,2.82,6.3,6.3v24.78
		C167.48,110.56,164.66,113.38,161.18,113.38z"/>
	<path class="st0" d="M187.93,113.38c-3.48,0-6.3-2.82-6.3-6.3V82.3c0-3.48,2.82-6.3,6.3-6.3s6.3,2.82,6.3,6.3v24.78
		C194.23,110.56,191.41,113.38,187.93,113.38z"/>
	<path class="st0" d="M134.43,162.94c-3.48,0-6.3-2.82-6.3-6.3v-24.78c0-3.48,2.82-6.3,6.3-6.3s6.3,2.82,6.3,6.3v24.78
		C140.73,160.12,137.91,162.94,134.43,162.94z"/>
	<path class="st0" d="M161.18,162.94c-3.48,0-6.3-2.82-6.3-6.3v-24.78c0-3.48,2.82-6.3,6.3-6.3s6.3,2.82,6.3,6.3v24.78
		C167.48,160.12,164.66,162.94,161.18,162.94z"/>
	<path class="st0" d="M187.93,162.94c-3.48,0-6.3-2.82-6.3-6.3v-24.78c0-3.48,2.82-6.3,6.3-6.3s6.3,2.82,6.3,6.3v24.78
		C194.23,160.12,191.41,162.94,187.93,162.94z"/>
	<path class="st0" d="M134.43,212.5c-3.48,0-6.3-2.82-6.3-6.3v-24.78c0-3.48,2.82-6.3,6.3-6.3s6.3,2.82,6.3,6.3v24.78
		C140.73,209.68,137.91,212.5,134.43,212.5z"/>
	<path class="st0" d="M161.18,212.5c-3.48,0-6.3-2.82-6.3-6.3v-24.78c0-3.48,2.82-6.3,6.3-6.3s6.3,2.82,6.3,6.3v24.78
		C167.48,209.68,164.66,212.5,161.18,212.5z"/>
	<path class="st0" d="M187.93,212.5c-3.48,0-6.3-2.82-6.3-6.3v-24.78c0-3.48,2.82-6.3,6.3-6.3s6.3,2.82,6.3,6.3v24.78
		C194.23,209.68,191.41,212.5,187.93,212.5z"/>
	<path class="st0" d="M134.43,262.07c-3.48,0-6.3-2.82-6.3-6.3v-24.78c0-3.48,2.82-6.3,6.3-6.3s6.3,2.82,6.3,6.3v24.78
		C140.73,259.25,137.91,262.07,134.43,262.07z"/>
	<path class="st0" d="M161.18,262.07c-3.48,0-6.3-2.82-6.3-6.3v-24.78c0-3.48,2.82-6.3,6.3-6.3s6.3,2.82,6.3,6.3v24.78
		C167.48,259.25,164.66,262.07,161.18,262.07z"/>
	<path class="st0" d="M187.93,262.07c-3.48,0-6.3-2.82-6.3-6.3v-24.78c0-3.48,2.82-6.3,6.3-6.3s6.3,2.82,6.3,6.3v24.78
		C194.23,259.25,191.41,262.07,187.93,262.07z"/>
	<path class="st0" d="M214.68,113.38c-3.48,0-6.3-2.82-6.3-6.3V82.3c0-3.48,2.82-6.3,6.3-6.3s6.3,2.82,6.3,6.3v24.78
		C220.98,110.56,218.16,113.38,214.68,113.38z"/>
	<path class="st0" d="M214.68,162.94c-3.48,0-6.3-2.82-6.3-6.3v-24.78c0-3.48,2.82-6.3,6.3-6.3s6.3,2.82,6.3,6.3v24.78
		C220.98,160.12,218.16,162.94,214.68,162.94z"/>
	<path class="st0" d="M214.68,212.5c-3.48,0-6.3-2.82-6.3-6.3v-24.78c0-3.48,2.82-6.3,6.3-6.3s6.3,2.82,6.3,6.3v24.78
		C220.98,209.68,218.16,212.5,214.68,212.5z"/>
	<path class="st0" d="M214.68,262.07c-3.48,0-6.3-2.82-6.3-6.3v-24.78c0-3.48,2.82-6.3,6.3-6.3s6.3,2.82,6.3,6.3v24.78
		C220.98,259.25,218.16,262.07,214.68,262.07z"/>
	<path class="st0" d="M107.68,113.38c-3.48,0-6.3-2.82-6.3-6.3V82.3c0-3.48,2.82-6.3,6.3-6.3s6.3,2.82,6.3,6.3v24.78
		C113.98,110.56,111.16,113.38,107.68,113.38z"/>
	<path class="st0" d="M107.68,162.94c-3.48,0-6.3-2.82-6.3-6.3v-24.78c0-3.48,2.82-6.3,6.3-6.3s6.3,2.82,6.3,6.3v24.78
		C113.98,160.12,111.16,162.94,107.68,162.94z"/>
	<path class="st0" d="M107.68,212.5c-3.48,0-6.3-2.82-6.3-6.3v-24.78c0-3.48,2.82-6.3,6.3-6.3s6.3,2.82,6.3,6.3v24.78
		C113.98,209.68,111.16,212.5,107.68,212.5z"/>
	<path class="st0" d="M107.68,262.07c-3.48,0-6.3-2.82-6.3-6.3v-24.78c0-3.48,2.82-6.3,6.3-6.3s6.3,2.82,6.3,6.3v24.78
		C113.98,259.25,111.16,262.07,107.68,262.07z"/>
	<path class="st1" d="M352.1,380.88H245.88c-3.48,0-6.3-2.82-6.3-6.3s2.82-6.3,6.3-6.3h99.92V153.21h-99.92
		c-3.48,0-6.3-2.82-6.3-6.3s2.82-6.3,6.3-6.3H352.1c3.48,0,6.3,2.82,6.3,6.3v227.67C358.4,378.06,355.58,380.88,352.1,380.88z"/>
	<path class="st0" d="M327.52,187.65h-57.15c-3.48,0-6.3-2.82-6.3-6.3s2.82-6.3,6.3-6.3h57.15c3.48,0,6.3,2.82,6.3,6.3
		S331,187.65,327.52,187.65z"/>
	<path class="st0" d="M327.52,214.32h-57.15c-3.48,0-6.3-2.82-6.3-6.3s2.82-6.3,6.3-6.3h57.15c3.48,0,6.3,2.82,6.3,6.3
		S331,214.32,327.52,214.32z"/>
	<path class="st0" d="M327.52,240.99h-57.15c-3.48,0-6.3-2.82-6.3-6.3s2.82-6.3,6.3-6.3h57.15c3.48,0,6.3,2.82,6.3,6.3
		S331,240.99,327.52,240.99z"/>
	<path class="st0" d="M327.52,267.67h-57.15c-3.48,0-6.3-2.82-6.3-6.3s2.82-6.3,6.3-6.3h57.15c3.48,0,6.3,2.82,6.3,6.3
		S331,267.67,327.52,267.67z"/>
	<path class="st0" d="M327.52,294.34h-57.15c-3.48,0-6.3-2.82-6.3-6.3s2.82-6.3,6.3-6.3h57.15c3.48,0,6.3,2.82,6.3,6.3
		S331,294.34,327.52,294.34z"/>
	<path class="st0" d="M327.52,321.01h-57.15c-3.48,0-6.3-2.82-6.3-6.3s2.82-6.3,6.3-6.3h57.15c3.48,0,6.3,2.82,6.3,6.3
		S331,321.01,327.52,321.01z"/>
	<path class="st0" d="M327.52,347.68h-57.15c-3.48,0-6.3-2.82-6.3-6.3s2.82-6.3,6.3-6.3h57.15c3.48,0,6.3,2.82,6.3,6.3
		S331,347.68,327.52,347.68z"/>
</g>
</svg>
