<?xml version="1.0" encoding="utf-8"?>
<!-- Generator: Adobe Illustrator 26.0.0, SVG Export Plug-In . SVG Version: 6.00 Build 0)  -->
<svg version="1.1" id="katman_1" xmlns="http://www.w3.org/2000/svg" xmlns:xlink="http://www.w3.org/1999/xlink" x="0px" y="0px"
	 viewBox="0 0 315.2 524.2" style="enable-background:new 0 0 315.2 524.2;" xml:space="preserve">
<g>
	<path d="M312.4,290.2l-9.4-51.6c-3.9-21.7-12.2-42.3-24.5-60.6l0,0l0,0c-0.8-1.2-1.8-2.1-3-2.8l-60.3-33.5l7.6-28l0,0
		c3.2-11.6,4.1-23.8,2.8-35.8L223.5,59l0,0c-1.6-14.4-7.8-27.8-17.8-38.3c-9.9-10.5-23-17.5-37.3-19.8c-18-3-36.4,1.5-51,12.5
		S93.5,40.9,91.5,59l-1.6,14.6l0,0c-1.6,14.6-1.1,29.4,1.5,43.8l4.1,22.7l-56.4,35.2c-1.1,0.7-2,1.5-2.6,2.6l0,0l0,0
		c-12.2,18.3-20.6,38.9-24.5,60.6l-9.4,51.6c-1.7,9.6-2.6,19.2-2.6,29v161.2c0,2.3,0.9,4.5,2.6,6.2s3.9,2.6,6.2,2.6v26.3
		c0,2.3,0.9,4.5,2.6,6.2s3.9,2.6,6.2,2.6h280c2.3,0,4.5-0.9,6.2-2.6s2.6-3.9,2.6-6.2v-26.2c2.3,0,4.5-0.9,6.2-2.6s2.6-3.9,2.6-6.2
		V319.2C315,309.4,314.1,299.8,312.4,290.2L312.4,290.2z M262.5,332.1l14.2-120.8c4.1,9.8,7.2,20,9.1,30.4l9.4,51.6
		c1.5,8.5,2.3,17.2,2.3,25.8v152.5h-35V332.1z M115.6,153l-0.2-0.9c8.4,12,21.6,19.9,36.1,21.6s29.2-2.9,40.1-12.7
		c-4.6,15.8-15.6,29-30.3,36.3c-2.7,1.4-5.9,1.5-8.7,0.4l-0.8-0.3C132.9,189.9,119.2,173.1,115.6,153L115.6,153z M119.5,75.2
		c24.5-9.2,51.5-9.2,76,0c5.1,1.9,9.1,5.9,11.1,10.9s1.7,10.7-0.7,15.5L187.7,138c-3.8,7.5-10.2,13.3-18,16.4c-7.8,3-16.5,3-24.3,0
		s-14.2-8.9-18-16.4l-1.5-3c0,0,0,0,0-0.1l-16.8-33.3c-2.4-4.8-2.7-10.5-0.7-15.5S114.4,77.1,119.5,75.2L119.5,75.2z M149.4,18.1
		L149.4,18.1c5.3-0.9,10.8-0.9,16.1,0C176,19.9,185.6,25,193,32.7c7.3,7.7,11.9,17.6,13.1,28.2c-1.4-0.8-2.9-1.5-4.5-2
		c-28.5-10.7-59.8-10.7-88.3,0c-1.5,0.6-3,1.3-4.5,2c1.2-10.6,5.8-20.4,13.1-28.2C129.3,25,139,19.8,149.4,18.1L149.4,18.1z
		 M17.5,319.2c0-8.7,0.8-17.3,2.3-25.8l9.4-51.6c1.9-10.4,4.9-20.6,9.1-30.4l14.2,120.7v139.5h-35V319.2z M26.2,489.1h26.3v17.5
		H26.3v-17.5H26.2z M70,480.4V331.6c0-0.3,0-0.7-0.1-1L53,187.4l45.8-28.6c2.5,11.5,7.6,22.4,14.9,31.6c-0.1,0.4-0.1,0.9-0.1,1.3
		v19.2c0,6.9-3.5,13.4-9.2,17.2c-10.6,7.1-17,19-17,31.8v1.7c0,4.8,3.9,8.8,8.8,8.8s8.8-3.9,8.8-8.8v-1.7c0-6.9,3.5-13.4,9.2-17.2
		c10.6-7.1,17-19,17-31.8v-4.6c4.4,3,9.2,5.4,14.1,7.4l0.8,0.3c7.5,3,15.9,2.6,23.1-1c5.2-2.6,10.1-5.8,14.5-9.5v7.3
		c0,12.8,6.4,24.7,17,31.8c5.8,3.8,9.2,10.3,9.2,17.2v1.7c0,4.8,3.9,8.8,8.8,8.8s8.8-3.9,8.8-8.8v-1.7c0-12.8-6.4-24.7-17-31.8
		c-5.8-3.8-9.2-10.3-9.2-17.2v-27.9c3.4-5.8,5.9-11.9,7.7-18.4l1.5-5.5l51.4,28.6l-16.8,143c0,0.3-0.1,0.7-0.1,1v175H70V480.4z
		 M288.7,506.6h-26.2v-17.5h26.2V506.6z"/>
	<path d="M210,387.6v-12.2c0-2.3-0.9-4.5-2.6-6.2s-3.9-2.6-6.2-2.6h-87.5c-4.8,0-8.8,3.9-8.8,8.8v12.2c0,18.8-5.6,37.3-16,52.9
		c-1,1.4-1.5,3.1-1.5,4.9v35c0,2.3,0.9,4.5,2.6,6.2s3.9,2.6,6.2,2.6h122.5c2.3,0,4.5-0.9,6.2-2.6s2.6-3.9,2.6-6.2v-35
		c0-1.7-0.5-3.4-1.5-4.9C215.6,424.8,210,406.4,210,387.6L210,387.6z M210,471.6H105v-23.7c11.4-18.1,17.5-39,17.5-60.4V384h70v3.5
		c0,21.4,6.1,42.3,17.5,60.4V471.6z"/>
</g>
</svg>
