<?xml version="1.0" encoding="utf-8"?>
<!-- Generator: Adobe Illustrator 26.0.0, SVG Export Plug-In . SVG Version: 6.00 Build 0)  -->
<svg version="1.1" id="katman_1" xmlns="http://www.w3.org/2000/svg" xmlns:xlink="http://www.w3.org/1999/xlink" x="0px" y="0px"
	 viewBox="0 0 437.6 525" style="enable-background:new 0 0 437.6 525;" xml:space="preserve">
<g>
	<path d="M437.6,463.5l-8.1-293c-0.5-16.6-8.8-32-22.4-41.6l-57.5-40.2c0.3-1.7,0.5-3.5,0.5-5.2V72.3c0-7.2-2.8-14.2-7.7-19.5
		c-4.9-5.3-11.7-8.5-18.9-9c-2.4-12.3-8.9-23.4-18.6-31.4S283.1,0,270.6,0H167c-12.5,0-24.7,4.4-34.3,12.4
		c-9.7,8-16.2,19.1-18.6,31.4c-7.2,0.5-14,3.7-18.9,9S87.5,65,87.5,72.3v11.2c0,1.8,0.2,3.5,0.5,5.2l-57.5,40.2
		c-13.6,9.6-21.9,25-22.4,41.6L0,463.5c-0.1,2.4,0.9,4.7,2.6,6.4l14.9,14.9v31.4c0,2.3,0.9,4.5,2.6,6.2s3.9,2.6,6.2,2.6h78.8
		c2.3,0,4.5-0.9,6.2-2.6s2.6-3.9,2.6-6.2V490h210v26.2c0,2.3,0.9,4.5,2.6,6.2s3.9,2.6,6.2,2.6h78.8c2.3,0,4.5-0.9,6.2-2.6
		s2.6-3.9,2.6-6.2v-31.4l14.9-14.9C436.7,468.2,437.6,465.9,437.6,463.5L437.6,463.5z M332.6,72.3v11.2c0,4.3-2.5,8.3-6.5,10.1
		l-80.2,36.5l-11.8-7.8L315,63.5l0,0c3.4-2.4,7.8-2.8,11.5-0.9C330.2,64.3,332.5,68.2,332.6,72.3L332.6,72.3z M167,17.5h103.6
		c8.6,0,17,3.1,23.5,8.7c6.6,5.6,10.9,13.3,12.4,21.8c-0.6,0.4-1.2,0.8-1.8,1.2l-14.9,10.9c-7.8-12.2-20.1-20.8-34.2-23.9L252,53.3
		l0,0c9.9,2.2,18.5,8.3,23.6,17.1l-56.8,41.3L162,70.4c5.2-8.7,13.7-14.9,23.6-17.1L182,36.2l0,0c-14.1,3.1-26.4,11.7-34.2,23.9
		l-14.9-10.8c-0.6-0.4-1.2-0.8-1.8-1.2l0,0c1.4-8.5,5.8-16.3,12.3-21.8C150,20.6,158.4,17.5,167,17.5L167,17.5z M105,72.3
		c0-4.2,2.3-8,6-9.9c3.7-1.9,8.2-1.5,11.5,0.9l80.9,58.8l-11.8,7.8l-80.2-36.5c-3.9-1.8-6.5-5.7-6.5-10.1L105,72.3z M25.7,171
		c0.3-11.1,5.9-21.3,14.9-27.7l55.9-39.1c2.3,2.2,4.9,4,7.8,5.3l79.5,36.1v116.9h17.5V144.7l17.5-11.7l17.5,11.7v117.8h17.5V145.6
		l79.5-36.1c2.9-1.3,5.5-3.1,7.8-5.3l55.9,39.1c9.1,6.4,14.6,16.6,14.9,27.7l8,289.2l-12.2,12.3h-63.9l6-24.1
		c0.2-0.7,0.3-1.4,0.3-2.1V263.5l17.3-77.8l-17.1-3.8l-10.6,47.9l-7.5-22.5l-16.6,5.5l17.1,51.2v173.5H105V263.9l17.1-51.2
		l-16.6-5.5L98,229.7l-10.6-47.9l-17.1,3.8l17.3,77.8v182.8c0,0.7,0.1,1.4,0.3,2.1l6,24.1H30l-12.3-12.3L25.7,171z M107.5,455h222.6
		l-4.4,17.5H111.9L107.5,455z M96.3,507.5H35.1V490h61.2V507.5z M402.5,507.5h-61.2V490h61.2V507.5z"/>
	<path d="M157.6,411.3h122.5c7,0,13.6-2.8,18.6-7.7c4.9-4.9,7.7-11.6,7.7-18.6v-8.8c0-3.3-1.9-6.3-4.8-7.8l-3.7-1.8l0,0
		c-8-4-14.7-10.1-19.4-17.6c-4.7-7.6-7.1-16.3-7.1-25.2c0-2.3-0.9-4.5-2.6-6.2s-3.9-2.6-6.2-2.6h-87.5c-4.8,0-8.8,3.9-8.8,8.8
		c0,8.9-2.4,17.6-7.1,25.2s-11.4,13.7-19.4,17.6l-3.7,1.8c-3,1.5-4.8,4.5-4.8,7.8v8.8c0,7,2.8,13.6,7.7,18.6
		C143.9,408.5,150.6,411.2,157.6,411.3L157.6,411.3z M148.8,381.6c18.8-9.8,31.7-28.1,34.4-49.1h71.2l0,0
		c2.8,21,15.6,39.4,34.4,49.1v3.4c0,4.8-3.9,8.7-8.8,8.8H157.6c-4.8,0-8.7-3.9-8.8-8.8V381.6z"/>
</g>
</svg>
