<?xml version="1.0" encoding="utf-8"?>
<!-- Generator: Adobe Illustrator 26.0.0, SVG Export Plug-In . SVG Version: 6.00 Build 0)  -->
<svg version="1.1" id="katman_1" xmlns="http://www.w3.org/2000/svg" xmlns:xlink="http://www.w3.org/1999/xlink" x="0px" y="0px"
	 viewBox="0 0 498.2 555.1" style="enable-background:new 0 0 498.2 555.1;" xml:space="preserve">
<g>
	<path d="M93.3,513.3H26c-6.4,0-11.7-5.2-11.7-11.7s5.2-11.7,11.7-11.7h67.3c6.4,0,11.7,5.2,11.7,11.7S99.7,513.3,93.3,513.3z"/>
	<path d="M472.2,513.3h-67.2c-6.4,0-11.7-5.2-11.7-11.7s5.2-11.7,11.7-11.7h67.2c6.4,0,11.7,5.2,11.7,11.7S478.6,513.3,472.2,513.3z
		"/>
	<path d="M249,225.1c-1.9,0-3.8-0.5-5.5-1.4c-1.9-1-3.4-2.5-4.5-4.3c-17.9-20.7-56.4-68.8-56.4-101.5c0-40,28.7-72.8,65.3-74.7
		c0.4,0,0.8-0.1,1.2-0.1c37.6,1.7,66.5,34.6,66.5,74.8c0,33-39.2,81.8-56.9,102.1c-1,1.4-2.2,2.5-3.6,3.3
		C253.2,224.5,251.1,225.1,249,225.1L249,225.1z M248.8,66.5c-23.9,1.3-42.8,23.8-42.8,51.4c0,17.3,20.5,49.6,43.1,77.3
		c22.7-27.6,43.1-59.9,43.1-77.3C292.2,90.3,273.2,67.7,248.8,66.5L248.8,66.5z"/>
	<path d="M486.5,555.1h-77.8c-5,0-9.5-3.2-11.1-8l-41.3-125.8v122.1c0,6.4-5.2,11.7-11.7,11.7H153.5c-6.4,0-11.7-5.2-11.7-11.7
		V421.3l-41.3,125.8c-1.6,4.8-6,8-11.1,8H11.7c-3.6,0-7.1-1.7-9.3-4.6s-2.9-6.6-2-10.1l88-323.2c0.7-2.4,2.1-4.6,4.1-6.2l53.9-41.9
		c5.1-4,12.4-3,16.4,2.1c3.9,5.1,3,12.4-2,16.4l-50.8,39.5L26.9,531.8H81l61.4-187.1c1.8-5.4,7.3-8.6,12.9-7.9
		c5.6,0.9,9.8,5.8,9.8,11.5v183.5h167.9V348.3c0-5.7,4.2-10.6,9.8-11.5c5.8-0.8,11.2,2.4,12.9,7.9l61.4,187.1h54.1l-82.9-304.7
		l-50.8-39.5c-5.1-4-6-11.3-2-16.4c4-5.1,11.3-6,16.4-2.1l53.9,41.9c2,1.5,3.4,3.7,4.1,6.2l87.9,323.2c1,3.5,0.2,7.3-2,10.1
		C493.6,553.4,490.2,555.1,486.5,555.1L486.5,555.1z"/>
	<path d="M249,292.5c-4.3,0-8.3-2.2-10.3-6.2c-0.4-0.6-0.7-1.2-0.9-1.8c-15.1-30.2-45.5-74-69.6-74c-4.3,0-8.2-2.4-10.2-6.1
		C151,191.2,132.5,98.9,165.3,44c17.4-29.2,45.5-44,83.5-44c0.2,0,0.5,0,0.8,0c38,0,66.1,14.8,83.5,44
		c32.7,54.9,14.3,147.2,7.2,160.4c-2,3.8-6,6.1-10.2,6.1c-24.2,0-54.9,44.4-69.9,74.6c-1.4,3.4-4.4,6.2-8.1,7.1
		C250.9,292.4,250,292.5,249,292.5L249,292.5z M176.9,188c30.9,6.1,57.7,43.7,72.2,68.3c14.5-24.6,41.3-62.2,72.2-68.3
		c5.8-21.5,16.5-93.3-9.8-134.2c-13.1-20.4-33.4-30.4-62-30.4c-1.4,0.3-1.1,0.1-2.4-0.2c-26.9,0.2-47.2,10.1-60.3,30.5
		C160.4,94.6,171.1,166.2,176.9,188L176.9,188z"/>
	<path d="M249.2,555.1c-6.4,0-11.7-5.2-11.7-11.7l-0.1-278.8c0-6.4,5.2-11.7,11.7-11.7s11.7,5.2,11.7,11.7l0.1,278.7
		C260.9,549.9,255.7,555.1,249.2,555.1L249.2,555.1z"/>
	<path d="M207.1,373.4c-6.1,0-11.8-6.2-12.2-12.2l-0.9-10.8c-1.4-7.4-2.2-18.5-2.4-33.7c-0.3-6.5-0.5-12.6-0.5-17.6
		c0.1-15,0-43.2,0-57.2c-6.8-4.2-7.9-11-7.9-15.3c0-11.4,12.9-13.3,17.8-14c3.4-0.4,6.9,0.5,9.5,2.9c2.6,2.3,4,5.6,3.9,9.1
		c0,0.2-0.1,2.9,0,6.6c0.4,1,0.6,2,0.6,2.9c0,1,0.2,3,0,68.9l0,13c0.6,10.9,1.5,22.6,2.1,31.2c0.1,0.7,0.3,1.2,0.4,1.5
		c1.7,2,2.6,4.6,2.6,7.3c0,6.3-1.4,10.8-4.4,13.9C213.5,372,210.2,373.4,207.1,373.4L207.1,373.4z"/>
	<path d="M291.1,373.4c-3.1,0-6.4-1.4-8.6-3.6c-3-3.1-4.5-7.6-4.4-13.9c0-2.7,1-5.2,2.6-7.3c0.1-0.4,0.2-0.8,0.4-1.5
		c0.7-8.6,1.6-20.5,2.1-31.4l0-11c0-1.7-0.2-67.2,0-70.8c0-0.9,0.3-1.9,0.6-2.9c0.1-3.7,0-6.4,0-6.6c-0.1-3.5,1.3-6.8,3.9-9.1
		c2.6-2.4,6-3.4,9.5-2.9c4.9,0.7,17.8,2.6,17.8,14.1c0,4.3-1.2,11.2-7.9,15.4c0,13.8,0,42.1,0,57.1c0,5-0.2,11-0.5,17.5
		c-0.2,15.3-1,26.5-2.4,33.9l-0.9,10.8C302.9,367.3,297.2,373.4,291.1,373.4L291.1,373.4z"/>
</g>
</svg>
