<svg xmlns="http://www.w3.org/2000/svg" viewBox="0 0 307.57 307.24"><g id="katman_2" data-name="katman 2"><g id="katman_1-2" data-name="katman 1"><path d="M252,288.61c0,4.86,0,9.22,0,13.58,0,3.44-1.62,5.08-5,5.05H64c-8.36,0-8.5-.14-8.5-8.67v-10H6.41C1,288.6,0,287.67,0,282.39V108C0,86.43,4,65.77,15.12,47,29.78,22.09,52.19,8.12,80,2.12a136.94,136.94,0,0,1,13.7-2c5.2-.59,6.4.62,6.67,5.88,1.12,21.44,10.78,37.8,29.87,47.77,32.4,16.92,70.51-2.7,76-38.82.49-3.2.66-6.46.86-9.69C207.37,1,208.73-.22,213,.05c47.9,3,84.15,35.37,92.16,82.65a161.69,161.69,0,0,1,2.2,26.46c.23,57.62.17,115.24.2,172.85,0,5.91-.69,6.6-6.73,6.6H252ZM55.49,280.83v-4.51c0-23.25-.18-46.5.08-69.75.13-11.65-2.93-21.83-10.65-30.7a42,42,0,0,1-9.65-20.45C32.19,138,33.88,121.31,43.45,106c5.25-8.41,8.78-17.36,9-27.41.06-2.72,1-4.84,4-4.75s3.7,2.32,3.64,5a53.66,53.66,0,0,1-8.91,29c-8,12.06-10.14,25.32-9.36,39.35a40.09,40.09,0,0,0,9.46,24.37c8.44,9.91,12,21.26,11.92,34.18-.19,29.63-.06,59.25-.06,88.88v4.62H244.36v-4.73c0-29.37.18-58.75-.07-88.12-.12-13.34,3.48-25,12.23-35.21,5.76-6.73,8.61-14.87,9.15-23.72.85-14.07-1.73-27.31-9.31-39.44a56.29,56.29,0,0,1-9-29.37c0-2.55.6-4.64,3.47-4.81,3-.18,4.11,1.8,4.16,4.58a49.71,49.71,0,0,0,7.79,25.48,69.92,69.92,0,0,1,9.91,27.25c2.37,16.75.23,32.48-11,45.89-6.85,8.16-9.81,17.43-9.75,28,.12,23.87,0,47.75,0,71.63v4H300v-3.3c-.06-56.26,0-112.51-.28-168.76a151.39,151.39,0,0,0-2-24.24c-6.51-39.12-31.43-65.67-69.55-74.48-4.29-1-8.71-1.45-13.1-2.16-3.41,39.61-31.85,58.89-58.15,59.81-28.92,1-61.45-20.7-64.52-59.62-2.45.28-4.9.45-7.31.87-28.89,5-51.45,19.27-65.37,45.64-8.95,17-12,35.32-12,54.32q0,84,0,168c0,1.33.12,2.66.18,4.09Z"/></g></g></svg>