<?xml version="1.0" encoding="utf-8"?>
<!-- Generator: Adobe Illustrator 26.0.0, SVG Export Plug-In . SVG Version: 6.00 Build 0)  -->
<svg version="1.1" id="katman_1" xmlns="http://www.w3.org/2000/svg" xmlns:xlink="http://www.w3.org/1999/xlink" x="0px" y="0px"
	 viewBox="0 0 527 504.3" style="enable-background:new 0 0 527 504.3;" xml:space="preserve">
<g>
	<path d="M484,504.2h-1.6l-55.1-10.9l0,0c-4.2-0.8-7.1-4.6-6.7-8.9l9.3-91.9c0.2-23.1,2.9-46.1,8.2-68.5
		c-17.5-18.6-32.6-39.4-45-61.7c-6.2,74.1-6.2,148.6,0,222.8c0.5,4.1-2.1,7.9-6.1,9c-81.6,13.5-164.8,13.5-246.4,0
		c-4.3-0.7-7.3-4.6-6.8-9c6.2-74,6.2-148.4,0-222.4c-12.4,22.3-27.5,43-45,61.7c5.3,22.5,8.1,45.4,8.2,68.5l9.4,91.4
		c0.4,4.2-2.5,8.1-6.7,8.9l-54.9,10.9c-4.1,0.8-8.1-1.6-9.4-5.5c-21.3-64-33.2-130.7-35.3-198.1c-0.1-0.7-0.1-1.4,0-2.1
		c18.6-75,56.3-143.8,109.4-199.9c0.7-0.7,1.5-1.3,2.3-1.7L190.6,58c4.1-2,9-0.3,11,3.8s0.3,9-3.8,11l-77.5,38
		C70,164.5,34.3,230.1,16.5,301.4c2.1,62.9,13,125.1,32.3,185l40.5-8.2l-8.2-84.9v-1.1c-0.4-23.4-3.4-46.7-9.1-69.3
		c-0.5-2.7,0.3-5.5,2.2-7.4c23.5-25,43-53.6,57.6-84.7c1.7-3.3,5.3-5.1,8.9-4.4c3.6,0.7,6.3,3.6,6.7,7.3c8.1,81.5,9.2,163.6,3,245.3
		c74.8,11.6,151,11.6,225.8,0c-6.1-81.7-5.1-163.8,3-245.3c-0.2-4.1,2.7-7.7,6.8-8.4c4-0.7,8,1.6,9.3,5.6
		c14.7,31.1,34.1,59.7,57.6,84.7c2,2,2.9,4.9,2.2,7.7c-5.7,22.7-8.8,46-9.1,69.3v1.1l-8.2,84.9l40.5,8.2l0,0
		c19.3-59.9,30.2-122.3,32.3-185.2c-17.8-71.3-53.5-137-103.8-190.6l-77.4-38c-4.1-2-5.8-6.9-3.8-11s6.9-5.8,11-3.8l78.7,38.7
		c0.9,0.5,1.6,1,2.3,1.7c53.1,56.1,90.7,125,109.4,199.9c0.1,0.7,0.1,1.4,0,2.1c-2.2,67.4-14.1,134.1-35.3,198.1
		C490.7,501.9,487.5,504.2,484,504.2L484,504.2z"/>
	<path d="M37.5,475.9c-4.5,0.4-8.6-2.9-9-7.5c-0.4-4.5,2.9-8.6,7.5-9l55.1-10.9c4.6-0.9,9,2.1,9.8,6.6c0.9,4.5-2.1,9-6.6,9.8
		l-55.1,10.7L37.5,475.9z"/>
	<path d="M489.7,475.9h-1.6L433,465.1c-4.4-0.9-7.4-5.2-6.5-9.6c0.4-2.3,1.7-4.3,3.6-5.5s4.2-1.7,6.5-1.1l55.1,10.9
		c4.5,0.5,7.9,4.5,7.4,9.1c-0.5,4.5-4.5,7.9-9.1,7.4L489.7,475.9z"/>
	<path d="M333.1,73.6c-3.2-0.1-6.1-2-7.4-4.9c-6-13.3-29.2-26.8-62.1-26.8s-56.1,13.4-61.9,26.8c-1.3,2.9-4.1,4.9-7.3,4.9
		c-3.2,0.1-6.2-1.7-7.6-4.6c-2.1-5.9-3.2-12.1-3.3-18.4c0-28.4,35.2-50.6,80.1-50.6s80.1,22.2,80.1,50.6c0,6.3-1.1,12.5-3.2,18.4
		C339.1,71.9,336.3,73.6,333.1,73.6L333.1,73.6z M263.6,25.5c22.3-0.8,44.2,5.8,62.4,18.5c-6-15.5-32.1-27.5-62.4-27.5
		s-56.3,12-62.3,27.5C219.5,31.2,241.4,24.7,263.6,25.5z"/>
	<path d="M228.9,136.2c-11.9,0.1-23.5-3.4-33.4-9.8c-6.7-3.8-12.1-9.6-15.5-16.5s-4.6-14.8-3.5-22.4c2-9,5.5-17.7,10.3-25.6
		c1.4-2.9,4.4-4.7,7.6-4.6s6.1,2,7.3,4.9c6.8,15.4,27.7,36.8,64,46.1c3.1,0.8,5.5,3.3,6.1,6.4c0.6,3.1-0.7,6.3-3.3,8.2
		C257,131.4,243.2,136,228.9,136.2L228.9,136.2z M195.1,83c-0.9,2-1.6,4-2.2,6.1c0.1,0.4,0.1,0.8,0,1.2c-0.5,4.5,0.4,9.1,2.5,13
		c2.1,3.9,5.4,7.3,9.4,9.4c11.2,7.1,24.9,8.9,37.6,5.1C223.8,110.6,207.5,98.6,195.1,83L195.1,83z"/>
	<path d="M298.3,136.2c-14.2-0.1-28-4.8-39.4-13.3c-2.6-1.9-3.9-5.1-3.3-8.2c0.6-3.1,2.9-5.7,6-6.5c36.4-9.3,57.6-30.7,64-46.1
		c1.3-3,4.2-4.9,7.4-4.9c3.2-0.1,6.2,1.7,7.6,4.6c4.7,7.9,8.2,16.6,10.2,25.6c1.1,7.7-0.1,15.5-3.5,22.4c-3.4,7-8.8,12.7-15.6,16.5
		C321.7,132.8,310.1,136.2,298.3,136.2L298.3,136.2z M285.1,117.8L285.1,117.8c12.6,3.8,26.3,2,37.5-5.1c4-2.1,7.3-5.3,9.5-9.3
		c2.1-4,3-8.6,2.5-13.1c0-0.6,0-1.3,0-1.9c0,0-0.4-1.3-2.2-5.4C319.9,98.6,303.6,110.6,285.1,117.8L285.1,117.8z"/>
	<path d="M227.4,213.5h-1.1c-2.2-0.3-4.2-1.4-5.5-3.1c-1.3-1.7-1.9-3.9-1.7-6.1l10-77.2c0.3-2.2,1.4-4.2,3.1-5.5s3.9-1.9,6.1-1.7
		c4.5,0.6,7.7,4.7,7.1,9.2l-10,77.3C234.9,210.5,231.5,213.5,227.4,213.5L227.4,213.5z"/>
	<path d="M242.4,216.6c0,8.8-7.2,16-16,16s-16-7.2-16-16s7.2-16,16-16C235.2,200.6,242.4,207.8,242.4,216.6"/>
	<path d="M299.9,213.5c-4.1,0-7.7-3-8.2-7.1l-10.8-77.3c-0.3-2.2,0.3-4.4,1.6-6.1s3.3-2.9,5.5-3.2c4.5-0.6,8.7,2.6,9.3,7.1
		l10.8,77.2c0.6,4.5-2.5,8.7-7,9.3L299.9,213.5z"/>
	<path d="M319.4,216.6c0,8.8-7.2,16-16,16s-16-7.2-16-16s7.2-16,16-16C312.2,200.6,319.4,207.8,319.4,216.6"/>
</g>
</svg>
