<svg xmlns="http://www.w3.org/2000/svg" viewBox="0 0 377.96 345.92"><g id="katman_2" data-name="katman 2"><g id="katman_1-2" data-name="katman 1"><path d="M91.37,272.08c-1.69,4.36-3.41,8.71-5.08,13.08q-9.87,25.89-19.72,51.78c-3.2,8.4-8,10.64-16.43,7.74q-20.34-7-40.71-14c-9-3.1-11.2-7.61-8.13-16.72q33.42-99.16,66.83-198.31c7.52-22.48,21.34-39.26,42.58-49.87,1-.5,1.94-1.11,3.12-1.8-1.68-1.55-3.28-2.92-4.74-4.43-5.1-5.28-6.28-13.58-1.82-19.26,9.17-11.7,18.65-23.2,30.79-32.1A40.17,40.17,0,0,1,163.22,0C180.1.33,197,.42,213.86,0c10.73-.26,20.34,2.65,27.91,9.81,10,9.5,19.47,19.71,28.58,30.13,4.93,5.63,3.61,14.35-1.8,19.83-1.39,1.41-2.91,2.7-4.51,4.18,3.36,1.88,6.57,3.55,9.67,5.42C290.06,79.23,301.86,93,308,111.08q34.78,102,69.07,204.28c2.44,7.25-.21,12.44-7.56,15q-21.39,7.44-42.87,14.65c-7.21,2.42-12.16.07-14.9-7.05q-12-31.09-23.79-62.25a9.34,9.34,0,0,0-2.12-3.51L285,291.44c-.22,4.87-.34,9.75-.67,14.61-.39,5.55-4,9.21-9.49,9.83a35.38,35.38,0,0,1-4.12.15H107.16c-10,0-13.27-3-13.79-13-.48-9.11-.79-18.23-1.17-27.35,0-1.17-.13-2.35-.19-3.53ZM61.62,324a15.33,15.33,0,0,0,.79-1.55Q76.47,285.76,90.46,249a9.6,9.6,0,0,0,.57-3.65c-.76-19.86-1.59-39.72-2.38-59.58q-1.25-31.29-2.44-62.58c-.14-3.74,1.45-5.71,4.33-5.77s4.5,1.82,4.65,5.53l3.72,93.68c1.14,28.6,2.37,57.2,3.33,85.81.14,3.93,1.55,4.67,5.12,4.66,35.14-.12,70.28-.07,105.42-.07,19.5,0,39-.06,58.52,0,3,0,4.24-.75,4.26-3.93,0-6.25.42-12.49.67-18.74q2.52-63.51,5-127c.46-11.61,1-23.23,1.42-34.84.09-2.51.92-4.8,3.55-4.89a7.3,7.3,0,0,1,4.85,2.37c.81.86.61,2.83.55,4.3q-2.34,60.13-4.71,120.28a14.28,14.28,0,0,0,1,5.43c5.17,13.79,10.46,27.53,15.71,41.29C307.72,302.15,311.84,313,316,324c1.45-.47,2.62-.83,3.77-1.23,11.9-4.15,23.81-8.28,35.69-12.5,2.89-1,5.25-.74,6.63,2.17,1.23,2.61-.17,5-3.56,6.26-4.92,1.8-9.88,3.48-14.83,5.22l-24.15,8.53c.47,4,2,4.9,5.61,3.61,13.4-4.78,26.87-9.34,40.39-13.79,3.13-1,3.63-2.39,2.6-5.44q-32-94.5-63.81-189a193.13,193.13,0,0,0-8.66-22.31C288,89.6,274.9,79.31,259.36,71.66a6.37,6.37,0,0,0-6.76.12c-10.38,5.42-20.85,10.7-31.53,15.49-5.29,2.38-11.11,3.57-16.78,5.32,2.51,15.53,5.34,31,7.43,46.57s3.55,31.26,5.11,46.91c.4,4-1.34,6.15-4.25,6.21s-4.48-2-4.7-6c-.18-3.49-.07-7-.57-10.48-3.8-26.32-7.74-52.62-11.56-78.94-.31-2.15-.91-3.06-3.29-2.75a31.22,31.22,0,0,1-7.1,0c-2-.22-2.86.28-3.2,2.41-4.85,29.95-10.78,59.75-12.2,90.17-.05,1,0,2.34-.6,2.85-1.3,1.13-3.06,2.63-4.46,2.47s-2.79-2-3.73-3.42c-.53-.78-.26-2.2-.13-3.3,2.42-20.33,4.71-40.68,7.38-61,1.4-10.61,3.47-21.14,5.26-31.84-1.13-.34-2.06-.67-3-.9-14.55-3.55-28.44-9-40.93-17.13-6.07-4-10.26-3.45-16.28-.14C95.85,84,83.69,97.87,77.27,116.9q-33.73,100-67.59,200c-1.06,3.11-.39,4.36,2.68,5.37,13.51,4.47,26.94,9.15,40.4,13.75,4.25,1.45,4.62,1.2,5.33-3.66-3-1.07-6.06-2.16-9.12-3.23-9.77-3.43-19.56-6.83-29.32-10.29-3.69-1.31-5.17-3.69-3.9-6.39,1.5-3.16,4.1-3.19,7-2.05,1.74.68,3.52,1.27,5.29,1.88ZM203.15,84.42c7.13-2.45,14.41-4.56,21.39-7.43A125.27,125.27,0,0,0,261,54.5c4.07-3.65,4.22-6.83.76-11A93.51,93.51,0,0,0,255.48,36c-7.17-7.11-14.23-14.36-21.81-21-5.11-4.47-11.54-6.06-18.48-6-16.5.2-33,.46-49.5-.08-10.48-.35-19.3,2.83-26.54,9.92C131.22,26.67,123.8,35,116.34,43.19c-4,4.41-3.63,7.58.78,11.56,9.08,8.18,19.43,14.43,30.39,19.7a110.87,110.87,0,0,0,27.58,9.44c1.47-3.52.43-9.43,6.54-8.22,5.51,1.09,2.82,5.91,2.9,9.5h8.8c.1-3.67-2.68-8.67,3.27-9.55S201.23,80.54,203.15,84.42Z"/><path d="M188.56,299.54H113.18c-5.3,0-7.58-1.41-7.51-4.6s2.26-4.39,7.33-4.39H266.76c3,0,5.19,1.11,5.42,4.4.19,2.76-2,4.54-5.62,4.57-8.5.06-17,0-25.5,0Z"/><path d="M156.5,239.81a39.38,39.38,0,0,1-1.85,4,98.69,98.69,0,0,1-30.89,31c-2.6,1.66-5.12,2.22-7.25-.58-1.72-2.26-.89-4.87,2.19-6.84a91.1,91.1,0,0,0,28.52-28.64c1.34-2.13,3.23-3.48,5.61-2.46C154.29,236.88,155.3,238.59,156.5,239.81Z"/><path d="M226.5,235.22c1.54,1.25,3.08,2,3.87,3.21a93.3,93.3,0,0,0,29.13,29.09c2.57,1.61,3.67,3.94,1.85,6.64s-4.38,2.4-6.9.81a97.42,97.42,0,0,1-31.36-31.54,6.9,6.9,0,0,1-.46-5.15C223,237.1,224.9,236.41,226.5,235.22Z"/><path d="M188.68,72.5c-17-.09-37-13.86-43.46-29.84-1.11-2.75-1.19-5.19,1.74-6.75,2.48-1.32,5,0,6.51,3.16,6.32,13,16.68,21.06,30.72,23.89,12,2.43,21.82-3,30.27-10.68,3.88-3.52,6.78-8.23,9.63-12.71,2.16-3.38,4-4.86,6.63-3.77s3.33,3.77,1.6,7.69C225.2,59.59,205.64,72.59,188.68,72.5Z"/></g></g></svg>