<svg xmlns="http://www.w3.org/2000/svg" viewBox="0 0 508.33 512"><g id="katman_2" data-name="katman 2"><g id="katman_1-2" data-name="katman 1"><path d="M270.94,0c10.21,1.31,20.59,1.88,30.59,4.11,12.61,2.82,25,6.74,37.32,10.69,5.13,1.64,6.8,6.68,4.6,10.82-1.89,3.56-5.85,4.76-10.42,3.05-46.88-17.57-94.55-17.3-142.38-5.18-10.44,2.64-20.69,7.64-29.84,13.42-18.94,12-24.08,29.24-16.17,50.27,8.84,23.51,25.13,41,45.78,54.56,9,5.86,18.87,10.24,28.35,15.29l1.61-1.15c0-2.71-.11-5.43,0-8.13.25-5.09,3.15-8.33,7.38-8.45,4.39-.13,7.54,3.28,7.86,8.54.06,1,0,2,0,3,.22,12.1-1.82,9.55,10,10.71,7.87.77,15.94-.2,23.89-.79,1.19-.08,2.92-2.23,3.18-3.64.51-2.74.12-5.64.16-8.47.06-5.81,2.83-9.28,7.43-9.37s7.56,3.41,7.66,9.13c0,2.45,0,4.91,0,8.06,2.78-1,5-1.6,7.07-2.49,30.7-13.19,54.66-33.56,67.92-64.86,6.8-16.05,6.27-31.46-6.33-45.07a7.34,7.34,0,0,1,.19-10.76c3.3-3.1,7.58-2.93,11.06.77,14.7,15.58,17.42,33.81,11.64,53.83-.88,3-2,6-3.17,9.44,1.81,1,3.52,1.87,5.23,2.75C402.12,110.66,421.47,123,438.24,139A23.76,23.76,0,0,1,443.8,147a972.59,972.59,0,0,1,53.08,185.88c3.37,18.5,5.89,37.16,8.34,55.8.59,4.47-.7,9.17-1.05,13.78-.27,3.39-1,6.86-.53,10.16,1.22,8.73,3.21,17.35,4.43,26.08,1.38,9.87-2.76,17.75-11.54,22.36A77.85,77.85,0,0,1,456,470c-9.3-.44-17.22-7.48-19.13-17-1.58-7.82-2.5-15.79-4.2-23.58a15.08,15.08,0,0,0-4.18-7.31,37.77,37.77,0,0,1-10.65-18.27Q403,349.73,388,295.66a2.53,2.53,0,0,0-1.63-1.84v4.88c0,42-.1,84,.06,126,0,11.6-2.48,22.07-10.26,31a7.05,7.05,0,0,0-1.46,4c-.47,9.83-5.21,17.4-12.35,23.68-13.14,11.54-29,17.63-45.68,21.31-13.6,3-27.56,4.36-41.36,6.46-1.46.22-2.9.56-4.34.85h-33c-1.29-.27-2.57-.6-3.87-.81-15.09-2.4-30.33-4.15-45.25-7.35-14.54-3.12-28.26-8.88-40.11-18.26-8.53-6.74-14.76-14.87-14.88-26.45a6.09,6.09,0,0,0-1.55-3.46c-7.53-8.8-10.35-19.05-10.32-30.49.12-42.15.05-84.31.05-126.46v-5.17a10.26,10.26,0,0,0-2.18,4.53Q105,351.69,90.11,405.31a34.63,34.63,0,0,1-11,17.44A10.93,10.93,0,0,0,76,428.48c-1.56,7.66-2.69,15.41-4,23.11-1.81,10.28-9.72,17.92-19.52,18.39a77.73,77.73,0,0,1-40.49-8.88C2.71,456.28-1.41,447.41.43,437.26c1.62-9,3.36-18,4.87-27,.3-1.85-.18-3.85-.37-5.77-.58-5.73-2.4-11.64-1.58-17.17C7.16,361.47,11,335.59,16.11,310A926.83,926.83,0,0,1,63.9,149c1.66-4.15,4.31-8.55,7.75-11.24q19-14.9,39-28.59c6.66-4.58,14.14-8,21.4-12-.53-1.57-1-3-1.48-4.36-10.41-28.8-2.69-52.67,22.72-69.48,16.11-10.66,34.23-16.15,53.08-19.32,10.13-1.7,20.38-2.72,30.58-4ZM77.08,157.16c-.8,1.78-1.41,3-1.87,4.17A978.61,978.61,0,0,0,18.15,389.84c-1.12,9,2.89,16,11.62,18.46a197.53,197.53,0,0,0,25.82,5.47c11.1,1.58,17.27-2.94,20.27-13.77q18-65.17,36-130.36c3.42-12.34,6.77-24.71,10.24-37,1.17-4.16,4-6.7,8.45-6.1s6.57,3.56,6.56,8c0,1.5,0,3,0,4.5v89.49q0,48.74,0,97.49c0,12.84,5.34,22.58,17.57,26.86,14.24,5,28.65,9.94,43.39,12.89,30.42,6.09,61.29,6,92.09,3,21.28-2,42-6.51,61.88-14.9,13.27-5.61,19.19-15,19.13-29.53-.28-62-.12-124-.1-186,0-2.15-.48-4.83.58-6.33,1.65-2.34,4.3-5.1,6.78-5.37,2.22-.25,5,2.4,7.1,4.22,1,.83,1,2.76,1.39,4.2q22.93,82.72,45.86,165.44c2.81,10.13,8.77,14.59,19.13,13.26a193.46,193.46,0,0,0,25.88-5.21c9.45-2.56,13.79-9.13,12.2-18.89q-7.49-45.81-15.76-91.48c-2.17-11.89-5.52-23.56-8.31-35.23-24.63,2.38-40.73-8.3-47.43-31.15-2.94-10-2.89-20.06,1.2-29.85s11.4-15.67,21.77-18.47c-3.36-9-6.55-17.52-9.71-26a10.76,10.76,0,0,0-1.39.32,19.61,19.61,0,0,0-1.77.9c-15.74,9.24-27.93,21.4-33.15,39.52-1.84,6.39-7.71,8.62-12.25,5-3.19-2.56-3.29-5.88-2.25-9.52,5.25-18.24,16.39-32.13,31.72-42.91,3-2.08,6-4,9.29-6.19-16.25-13.8-33.89-24.55-52.67-33.65-.66.88-1.09,1.38-1.45,1.92-18.67,28.26-44,47.88-76.23,58.29-3.34,1.07-3.71,2.87-3.71,5.82q.12,58,.05,116a27,27,0,0,1-.2,5.48c-.77,3.69-3.41,6.37-7,5.81-2.67-.41-5.39-2.68-7.3-4.82-1-1.19-.61-3.82-.61-5.8q0-55.74,0-111.49v-5.58H235.66v5.2q0,38.25,0,76.49a34.59,34.59,0,0,1-.16,5c-.65,4.44-3.62,7-7.78,6.83-4.34-.21-6.63-2.74-7.19-6.9a37.66,37.66,0,0,1-.16-5c0-27-.05-54,0-81,0-3.18-.54-5.06-4-6.16-27.64-8.76-50.14-25-68.25-47.52-3.21-4-6-8.26-9.14-12.56-18.77,9.27-36.4,19.82-52.13,33.32.29.53.38.92.62,1.09,1.1.75,2.23,1.44,3.36,2.15,17.62,11.16,30.81,25.82,36.59,46.32,1.52,5.41-.49,9.57-5,10.81-4.18,1.15-8-1.33-9.5-6.54C107.37,179.13,94.23,166.79,77.08,157.16Zm77.54,314c3.79,2.6,7.3,5.87,11.45,7.65,9.59,4.11,19.26,8.4,29.31,11,32.68,8.42,65.85,8.93,99.1,3.95,17.32-2.59,34.25-6.89,49.59-15.82,3.45-2,6.53-4.64,9.78-7C287.35,491.19,221.37,491.22,154.62,471.17ZM60,430.54l-41.28-8.77c-1.12,6-2.81,12.44-3.32,19-.17,2.28,2,5.83,4.11,7a56.67,56.67,0,0,0,30.27,7c2.35-.11,6-2.57,6.59-4.64C58.27,443.63,59,436.8,60,430.54Zm388.25-.68c1.17,6.76,2.23,13.45,3.54,20.1.67,3.39,3.17,5,6.55,5,10.82.05,21.24-2,30.73-7.26,2-1.08,3.95-4.52,3.77-6.69-.53-6.7-2.1-13.31-3.26-19.89-7.08,1.95-13.55,4.07-20.17,5.47C462.66,428,455.72,428.74,448.29,429.86ZM447,198.92c-7.23.35-11.49,3.73-13.84,10.4-4.6,13,2.14,30.75,14.27,37.27,4.36,2.35,8.94,3.63,14.31.59Z"/><path d="M258.62,114.61c-34.28-.81-61.32-9-82.84-31.17a33.3,33.3,0,0,1-5-6.18,6.9,6.9,0,0,1,1.59-9.43c3.06-2.6,6.38-2.48,9.59-.1a12.2,12.2,0,0,1,1.76,1.76c22.27,24.94,51,32,82.84,28.91,23.1-2.24,43.34-11.22,58.75-29.41,3.2-3.78,7.79-4,11-1s3.47,7.11.16,11.14c-13.84,16.9-32,26.91-52.94,31.76C274,113.05,264.18,113.8,258.62,114.61Z"/><path d="M206.16,344.06c-3.57,8.89-6.4,17.43-10.33,25.43a61.59,61.59,0,0,1-29.7,29.24c-1.47.69-2.77,2.91-3.09,4.63-.52,2.73.25,5.7-.22,8.45-1,6.15,1.75,9.08,7.38,10.52A61.35,61.35,0,0,1,180,426c4.08,1.84,5.67,5.64,4.26,9.42s-5.07,6.08-9.23,4.6a213,213,0,0,1-23-9.46c-2.08-1-3.9-4.68-4-7.23-.47-9.47-.16-19-.2-28.48,0-3.79,1.63-6.63,5.19-7.68,22.39-6.57,32.05-24,36.71-44.65,3.57-15.82,5.09-14.72,18-13.55,33.3,3,66.56,2.43,99.82-.51,5.86-.51,8.61,1.6,9.7,7.5,2.14,11.57,5.69,22.56,12.41,32.38,6,8.81,13.85,15.29,24.22,18.25,4.95,1.41,7.08,4.46,7,9.47-.08,8.33-.21,16.67,0,25,.17,5.6-2.12,8.91-7.21,11.18a235.38,235.38,0,0,1-102.4,20.87c-14.42-.33-28.79-2.71-43.19-4.18a16.6,16.6,0,0,1-2.92-.65c-4.53-1.32-6.93-4.81-6.12-8.85.85-4.25,4.63-6.73,9.49-5.82A242,242,0,0,0,261.72,438a237,237,0,0,0,80.14-17.13c3-1.18,3.6-2.91,3.91-5.94,1-9.57-1.11-15.74-10.93-21-16.87-9-25.09-25.74-29.79-43.77-1.45-5.51-3.77-6.3-8.85-5.83a485.35,485.35,0,0,1-83.87.13C210.18,344.32,208,344.19,206.16,344.06Z"/></g></g></svg>