<svg xmlns="http://www.w3.org/2000/svg" viewBox="0 0 384 365.79"><g id="katman_2" data-name="katman 2"><g id="katman_1-2" data-name="katman 1"><path d="M384,258a8.66,8.66,0,0,1-6.69,4.1c-15.06,2.25-30.1,4.69-45.15,7-4.85.75-6.78-.59-8.17-5.48q-12-42.12-23.91-84.25a12.05,12.05,0,0,0-1.48-3.58c.94,22.29-2.07,43.37-17.31,60.67.14.53.12.84.27,1,14.2,14.54,19.35,32.67,21.52,52.27,1.89,17.12,4.65,34.14,7.1,51.2.87,6.07-.13,7.72-6.14,9.41A412.48,412.48,0,0,1,167.6,365.08a415.94,415.94,0,0,1-88.45-14.94c-4.94-1.39-6.18-3.42-5.45-8.57q3.63-25.41,7.23-50.81c.69-4.87,3.07-7.18,6.8-6.55,3.48.6,5,3.49,4.35,8.21-.78,5.52-1.56,11-2.32,16.46,46.18,14.94,159.63,14.94,204.45,0-.82-6-1.66-12.18-2.48-18.32-1.48-11.15-2.66-22.43-8.8-32.24a124.35,124.35,0,0,0-9.83-13.16,6,6,0,0,0-4.42-1.56c-4.72.34-9.4,1.29-14.13,1.63-3.11.23-4.38,1.8-4.82,4.6-1.08,6.93,1.39,12.15,7.28,15.95,9,5.81,13.22,14.17,12.16,24.82a32.09,32.09,0,0,1-3.09,9.9,5.28,5.28,0,0,1-7.55,2.59c-2.69-1.4-3.64-4.26-2.46-7.4,3.86-10.34,2.37-15.23-6.52-21.37-4.84-3.33-7-6.3-11.6-14.61.38,2.61.57,5.28,1.17,7.84,3.08,13-3.25,25.9-15.25,30.77-4.33,1.76-7.41.83-8.8-2.65-1.3-3.26.14-5.8,4.39-7.72,7.22-3.26,10.71-9.9,8.66-17.42a28.57,28.57,0,0,1,2.76-22.74c-3.75.18-6.95.3-10.15.49a535.61,535.61,0,0,1-105.42-4.68,6.05,6.05,0,0,0-4.44,1.55,58.57,58.57,0,0,0-14,21.94c-.26.7-.47,1.42-.77,2.11-1.44,3.28-4.18,4.65-7.21,3.62a5.36,5.36,0,0,1-3.25-7.35c3-6.68,6.33-13.25,10-19.62,1.82-3.2,4.6-5.87,7.24-9.14-15.16-17.43-18.61-38.46-17.81-60.94-.36,1.06-.75,2.12-1.06,3.2q-12,42.32-24,84.62c-1.38,4.89-3.32,6.23-8.16,5.49-15.05-2.33-30.09-4.77-45.15-7-2.95-.44-5.17-1.58-6.69-4.1v-4.5a8.25,8.25,0,0,0,.7-1.66Q18.42,154.33,36.1,56.87c3.79-20.82,15.67-34.31,36.22-40,14.8-4.07,29.56-8.28,44.38-12.25C123.3,2.9,130,.34,136.7.26,173.56-.17,210.44.05,247.31.08a22,22,0,0,1,5.55.62c20.7,5.67,41.49,11,62,17.26,17.75,5.38,28.45,17.88,32.36,36,1.86,8.66,3.23,17.43,4.82,26.15q13.37,73.51,26.75,147c1.61,8.81,3.45,17.57,5.19,26.35ZM59.6,223.49c.42-1.34.78-2.39,1.08-3.45Q69.76,188,78.81,155.93q3.41-12.06,6.83-24.13c.91-3.23,2.76-5.36,6.4-5.05,3,.26,4.78,2.64,4.89,6.43,0,1.13,0,2.25,0,3.38,0,17.62,0,35.25,0,52.87.05,14.9,4.63,28.25,14.3,39.67a8.79,8.79,0,0,0,5.18,3.08c21.12,2,42.25,4.4,63.43,5.36,29.14,1.32,58.19-.9,87-5.26a10.42,10.42,0,0,0,5.87-3.26c9.79-11.51,14.26-25,14.27-40.05,0-18.13,0-36.25,0-54.37,0-1.71-.08-3.88.87-5a8,8,0,0,1,5.21-2.73c3.22-.12,4.51,2.52,5.31,5.36q7.49,26.67,15.07,53.31c3.56,12.58,7.14,25.15,10.79,38l41.18-5.37c-.17-1.53-.24-2.75-.45-3.95Q350.88,136.1,336.65,58c-2.85-15.63-11.94-25.73-27.26-30.09-9.12-2.6-18.27-5.09-27.41-7.59-1.85-.51-3.74-.87-5.68-1.31a37.92,37.92,0,0,1-1.11,5.18c-2.91,7.8-5.73,15.65-9,23.3a5.21,5.21,0,0,1-7.53,2.68c-2.95-1.51-3.81-4.61-2.19-8,.42-.9,1-1.76,1.4-2.65a70.09,70.09,0,0,0,7.33-23.74l-9.66-2.6C250.07,48,222.94,68.25,194.64,69.44a61.46,61.46,0,0,1-37.93-10.7c-16.06-10.88-25.22-26.2-28.16-45.7l-9.71,2.8c4.43,34.6,34.17,62,68.41,63.69,21.32,1,39.78-5.57,55.52-20,3-2.75,6.36-2.87,8.63-.49s2,5.89-.89,8.59c-14.79,13.77-32.22,21.67-52.43,23-6.65.43-13.35.07-20.31.07v3.7q0,23.63,0,47.24c0,4.88-1.95,6.83-6.79,6.86-8,0-16,0-24,0-5.81,0-7.5-1.74-7.5-7.65,0-21.5,0-43,0-64.49a6.6,6.6,0,0,0-2.59-5.72,83.7,83.7,0,0,1-27.19-42.58c-.83-3-1.4-6-2.15-9.24L75.24,27.73c-16,4.37-25.12,14.79-28,31.09q-12,67.08-24.37,134.12c-1.51,8.3-3,16.61-4.51,25.19ZM298.69,340.21c-1-6.77-1.87-13.12-2.83-19.8a487.36,487.36,0,0,1-207.74,0c-.54,3.82-1,7-1.44,10.21s-.85,6.34-1.29,9.6C156.63,359.29,227.38,359.25,298.69,340.21ZM140.28,11.48C141,32,160.9,59.39,194,58.15c26.1-1,52.18-25.87,49.44-46.67Zm-124,217.74c-1.39,7.74-2.66,14.82-4,22.27l37.82,5.88c2.17-7.65,4.26-15,6.5-22.9Zm351.54,0-40.33,5.22,6.49,22.91,37.83-5.89C370.42,244.05,369.16,237,367.77,229.25ZM166.51,137.14c0-16.36,0-32.33,0-48.29a2.59,2.59,0,0,0-1.07-2c-4.76-2.07-9.58-4-14.45-6v56.28Z"/></g></g></svg>