<?xml version="1.0" encoding="utf-8"?>
<!-- Generator: Adobe Illustrator 26.0.0, SVG Export Plug-In . SVG Version: 6.00 Build 0)  -->
<svg version="1.1" id="katman_1" xmlns="http://www.w3.org/2000/svg" xmlns:xlink="http://www.w3.org/1999/xlink" x="0px" y="0px"
	 viewBox="0 0 427.8 560" style="enable-background:new 0 0 427.8 560;" xml:space="preserve">
<g>
	<path d="M214.2,115.2c-1.5,0-3-0.4-4.3-1.1c-27.1-14.1-54.4-36.3-50.8-94.6c0.2-3.1,1.9-5.9,4.6-7.5C191-4.1,239.3-4,264.9,12.2
		c2.6,1.6,4.2,4.4,4.4,7.4c3.7,58.3-23.6,80.5-50.8,94.6C217.2,114.9,215.7,115.2,214.2,115.2L214.2,115.2z M177.7,26
		c-1.1,38.6,13.6,56.2,36.5,69.1c22.9-12.9,37.7-30.6,36.5-69.2C231.5,16.6,198,16.7,177.7,26L177.7,26z"/>
	<path d="M162.4,144.9c-1.1,0-2.2-0.2-3.3-0.6c-2.6-1-4.7-3.1-5.6-5.7c-1.2-3.5-2.6-7.1-4-11c-12.2-32.4-30.7-81.5,13.3-115
		c4.1-3.1,10-2.4,13.2,1.8c3.2,4.1,2.4,10.1-1.8,13.2c-32.8,25-18.6,62.9-7.1,93.4c0.1,0.3,0.2,0.5,0.3,0.8l42.1-24.2
		c4.5-2.6,10.3-1,12.9,3.5s1,10.3-3.5,12.9l-51.8,29.7C165.7,144.5,164.1,144.9,162.4,144.9L162.4,144.9z"/>
	<path d="M48.7,417.2c-16.2,0-31.1-4.5-44.5-13.4c-3.1-2.1-4.7-5.9-4-9.6C4.7,370.1,8,323.3,11.1,278C16.8,195.9,21,145,30,131
		c19.4-30,41.3-39.3,60.7-47.5c16.8-7.1,32.6-13.9,47.4-33.6c3.1-4.2,9-5,13.2-1.9s5,9,1.9,13.2c-17.8,23.7-36.7,31.8-55.1,39.6
		c-18.5,7.9-36,15.3-52.2,40.4c-7,10.9-12.1,84.4-15.9,138.1c-3.1,44-6,85.8-10.1,111.8c22,11.8,48.7,9.1,81.4-8.4
		c4.6-2.5,10.3-0.7,12.8,3.9c2.4,4.6,0.7,10.3-3.9,12.8C87.8,411.3,67.4,417.2,48.7,417.2L48.7,417.2z"/>
	<path d="M63.4,538.3c-0.4,0-0.7,0-1.1-0.1c-5.2-0.6-8.9-5.3-8.3-10.4c4.3-37.1,15.5-65.6,26.4-93.2c20.1-51.1,37.5-95.2-1-179.9
		c-2.1-4.7-0.1-10.3,4.7-12.5s10.3-0.1,12.5,4.7c41.8,92,22.1,141.8,1.3,194.6c-10.4,26.4-21.2,53.7-25.2,88.4
		C72.2,534.7,68.1,538.3,63.4,538.3L63.4,538.3z"/>
	<path d="M266.3,144.9c-1.6,0-3.2-0.4-4.6-1.2c-17.6-9.9-34.9-19.8-52.1-29.8c-4.5-2.6-6.1-8.4-3.5-12.9s8.4-6.1,12.9-3.5
		c14,8.1,28.1,16.1,42.3,24.2c0.2-0.5,0.4-1.1,0.6-1.6c14.3-38.4,22.7-69.6-7.6-92.5c-4.1-3.1-5-9.1-1.8-13.2s9.1-5,13.2-1.8
		c43.9,33.2,25.8,81.9,13.9,114.1c-1.5,4.1-3,8.1-4.3,11.8c-0.9,2.7-2.9,4.8-5.6,5.8C268.6,144.7,267.4,144.9,266.3,144.9
		L266.3,144.9z"/>
	<path d="M217.9,560c-51.3,0-103.8-7.3-157.1-22.1c-5-1.4-8-6.6-6.6-11.6s6.5-8,11.6-6.6c100.4,27.7,197.6,28.5,289,2.3
		c-4.7-30.9-14.6-56-24.1-80.3c-20.8-52.8-40.5-102.7,1.4-194.9c2.2-4.7,7.7-6.9,12.5-4.7c4.7,2.2,6.8,7.7,4.7,12.5
		c-38.6,84.9-21.2,129-1,180.1c10.8,27.5,22,55.8,26.4,92.9c0.5,4.5-2.3,8.8-6.6,10.1C319.5,552.6,269.3,560,217.9,560L217.9,560z"
		/>
	<path d="M379,417.2c-18.7,0-39.1-5.9-61.2-17.8c-4.6-2.5-6.3-8.2-3.8-12.8c2.5-4.6,8.2-6.3,12.8-3.8c32.1,17.2,59.4,20.1,81.3,8.4
		c-4.2-26.3-7.3-68.7-10.4-113.5c-3.8-53-8.9-125.7-15.9-136.5c-16.1-25.1-33.6-32.5-52.1-40.4C311.2,93,292.2,85,274.4,61.3
		c-3.1-4.2-2.3-10.1,1.9-13.2c4.2-3.1,10.1-2.3,13.2,1.9c14.7,19.7,30.6,26.4,47.4,33.5c19.4,8.2,41.5,17.6,60.7,47.6
		c8.9,13.9,13,64.2,18.8,145.4c3.3,45.9,6.6,93.4,11.3,117.8c0.7,3.7-0.9,7.5-4,9.6C410.2,412.7,395.3,417.2,379,417.2L379,417.2z"
		/>
</g>
</svg>
