<?xml version="1.0" encoding="utf-8"?>
<!-- Generator: Adobe Illustrator 26.0.0, SVG Export Plug-In . SVG Version: 6.00 Build 0)  -->
<svg version="1.1" id="katman_1" xmlns="http://www.w3.org/2000/svg" xmlns:xlink="http://www.w3.org/1999/xlink" x="0px" y="0px"
	 viewBox="0 0 560 560.1" style="enable-background:new 0 0 560 560.1;" xml:space="preserve">
<g>
	<path d="M306.2,140.1c-4.8,0-8.8-3.9-8.8-8.8c0-4.1,0.6-40.7,22.3-51.6c3.9-1.9,7.8-3.5,11.5-5c12.8-5.1,18.7-7.4,18.7-22.2
		c0.2-6-1.7-12-5.6-16.6c-4.8-3.4-7.6-9-7.4-14.9s3.4-11.3,8.5-14.3c9.5-4.9,20-7.1,30.7-6.6c35.9,0,47.3,16.4,50.9,26.8
		c23.1,3.6,28,26.2,28,60.7c0,2.3-0.9,4.5-2.6,6.2c-28,24.7-64.2,38.1-101.6,37.6l-42.9,8.6C307.4,140,306.8,140.1,306.2,140.1
		L306.2,140.1z M376.2,17.6c-7.5-0.5-15,0.9-21.8,4.2c12.7,8.8,13.1,28.6,13.1,30.8c0,26.7-16.5,33.2-29.8,38.5
		c-3.3,1.3-6.7,2.6-10.1,4.4c-6.8,3.4-10.3,15.1-11.8,25.1l32.4-6.5c0.6-0.1,1.2-0.2,1.8-0.2c31.8,0.3,62.7-10.4,87.5-30.1
		c-0.6-39.9-9.2-39.9-17.5-39.9c-4.8,0-8.7-3.8-8.8-8.6C411.1,33.3,409.3,17.6,376.2,17.6L376.2,17.6z"/>
	<path d="M315,245.1h-17.5V131.3c0-2.3,0.9-4.5,2.6-6.2c24.6-24.6,55.9-34.6,81.1-42.7c3.4-1.1,6.7-2.1,9.8-3.2
		c19.7-6.6,20.3-43.8,20.3-44.2h17.5c0,2-0.4,50.2-32.2,60.8c-3.2,1.1-6.6,2.1-10,3.2c-23.6,7.6-50.3,16.1-71.5,35.9L315,245.1z"/>
	<path d="M533.8,227.6h17.5v271.2h-17.5V227.6z"/>
	<path d="M533.8,192.6h17.5v17.5h-17.5V192.6z"/>
	<path d="M551.2,175.1h-17.5v-20.8l-100.2-50l7.8-15.7l105,52.5l0,0c3,1.5,4.8,4.5,4.8,7.8L551.2,175.1z"/>
	<path d="M542.5,560.1H455c-4.6,0-9.1-1.8-12.4-5.1s-5.1-7.7-5.1-12.4v-35c0-4.6,1.8-9.1,5.1-12.4c3.3-3.3,7.7-5.1,12.4-5.1h87.5
		c4.6,0,9.1,1.8,12.4,5.1s5.1,7.7,5.1,12.4v35c0,4.6-1.8,9.1-5.1,12.4S547.1,560.1,542.5,560.1z M455,507.6v35h87.5v-35H455z"/>
	<path d="M350,560.1c-4.8,0-8.8-3.9-8.8-8.8V122.6h17.5v419.8c43.3-2.2,78.8-20,78.8-34.8H455C455,539,400.8,560.1,350,560.1
		L350,560.1z"/>
	<path d="M446.2,227.6h17.5v227.5h-17.5V227.6z"/>
	<path d="M446.2,472.6h17.5v26.2h-17.5V472.6z"/>
	<path d="M463.8,227.6h-17.5c0-32.9,46.6-87.5,96.2-87.5v17.5C504.2,157.6,463.8,203.1,463.8,227.6z"/>
	<path d="M253.8,140.1c-0.6,0-1.2-0.1-1.8-0.2l-42.9-8.6c-37.3,0.5-73.5-12.9-101.6-37.6c-1.6-1.6-2.6-3.9-2.6-6.2
		c0-34.5,4.9-57.1,28-60.7c3.7-10.3,15.1-26.7,50.9-26.7c10.6-0.5,21.2,1.8,30.7,6.6c5.1,3,8.3,8.4,8.5,14.3s-2.5,11.5-7.4,14.9
		c-3.9,4.7-5.8,10.6-5.6,16.6c0,14.8,5.9,17.1,18.7,22.2c3.7,1.5,7.6,3,11.5,5c21.7,10.9,22.3,47.5,22.3,51.6c0,2.3-0.9,4.5-2.6,6.2
		S256.1,140.1,253.8,140.1L253.8,140.1z M122.5,83.7c24.8,19.8,55.7,30.4,87.5,30.1c0.6,0,1.2,0.1,1.8,0.2l32.4,6.5
		c-1.5-10-5-21.7-11.8-25.1c-3.4-1.8-6.8-3.1-10.1-4.4c-13.3-5.2-29.8-11.7-29.8-38.5c0-2.2,0.4-22,13-30.9
		c-6.8-3.2-14.3-4.6-21.8-4.1c-33.2,0-34.9,15.9-35,17.7c-0.2,4.7-4,8.4-8.8,8.6C131.7,43.8,123,43.8,122.5,83.7L122.5,83.7z"/>
	<path d="M262.5,245.1H245v-110c-21.2-19.8-47.9-28.3-71.5-35.9c-3.4-1.1-6.8-2.2-10-3.2c-31.9-10.7-32.3-58.9-32.3-60.9h17.5
		c0,10.4,3.7,38.7,20.3,44.2c3.2,1.1,6.4,2.1,9.8,3.2c25.2,8.1,56.5,18.1,81.1,42.7l0,0c1.6,1.6,2.6,3.9,2.6,6.2V245.1z"/>
	<path d="M8.8,472.6h17.5v26.2H8.8V472.6z"/>
	<path d="M26.2,455.1H8.8V148.9c0-3.3,1.9-6.3,4.8-7.8l105-52.5l7.8,15.7l-100.1,50L26.2,455.1z"/>
	<path d="M105,560.1H17.5c-4.6,0-9.1-1.8-12.4-5.1S0,547.3,0,542.6v-35c0-4.6,1.8-9.1,5.1-12.4s7.7-5.1,12.4-5.1H105
		c4.6,0,9.1,1.8,12.4,5.1s5.1,7.7,5.1,12.4v35c0,4.6-1.8,9.1-5.1,12.4S109.6,560.1,105,560.1z M17.5,507.6v35H105v-35H17.5z"/>
	<path d="M210,560.1c-50.8,0-105-21.1-105-52.5h17.5c0,14.8,35.5,32.6,78.8,34.8V122.6h17.5v428.7c0,2.3-0.9,4.5-2.6,6.2
		S212.3,560.1,210,560.1L210,560.1z"/>
	<path d="M96.2,227.6h17.5v17.5H96.2V227.6z"/>
	<path d="M96.2,262.6h17.5v236.2H96.2V262.6z"/>
	<path d="M113.8,227.6H96.3c0-24.5-40.5-70-78.8-70v-17.5C67.1,140.1,113.8,194.7,113.8,227.6z"/>
	<path d="M280,148.9c-19.6,0-35-11.5-35-26.2h17.5c0,3.6,6.8,8.8,17.5,8.8s17.5-5.2,17.5-8.8H315C315,137.3,299.6,148.9,280,148.9z"
		/>
	<path d="M210,8.9h140v17.5H210V8.9z"/>
	<path d="M210,507.6h140v17.5H210V507.6z"/>
</g>
</svg>
