<?xml version="1.0" encoding="utf-8"?>
<!-- Generator: Adobe Illustrator 26.0.0, SVG Export Plug-In . SVG Version: 6.00 Build 0)  -->
<svg version="1.1" id="katman_1" xmlns="http://www.w3.org/2000/svg" xmlns:xlink="http://www.w3.org/1999/xlink" x="0px" y="0px"
	 viewBox="0 0 384 338.1" style="enable-background:new 0 0 384 338.1;" xml:space="preserve">
<g id="katman_2_00000116229655305793922240000012331276036706724762_">
	<g id="katman_1-2">
		<path d="M384,275.5v8.2c-1.3,2.2-2.1,5.2-4,6.5c-4.3,2.9-4.4,6.8-4.1,11.1c0.1,1.5,0,3,0,4.5c-0.2,6.4-4.5,11-10.8,11.1
			c-10.4,0.2-20.7,0.2-31.1,0c-6.3-0.1-10.6-4.8-10.7-11.2c-0.1-2.8,0.2-5.5-0.1-8.2c-0.2-1.6-0.9-3-2.1-4.1
			c-4.1-2.8-6.8-7.2-7.4-12.1c-0.8-6.4-1.6-12.9-2.4-19.3c-2.5-20-6.6-39.6-14.2-58.4c-0.4-0.8-0.8-1.5-1.2-2.3
			c-0.4,0.6-0.6,1.3-0.6,2c-0.2,16.2,0,32.5-0.6,48.7c-0.6,15.9-2.4,31.6-6.5,47c-1.5,5.5-4.5,10.2-9.7,12.2
			c-4.5,1.8-5.2,4.5-4.7,8.5c0.1,0.5,0,1,0,1.5c1,9.3-4.9,17-16.9,16.9c-40.2-0.4-80.5-0.1-120.7-0.1c-4.1,0-8.2,0.1-12.4,0
			c-7.7-0.3-13.3-6-13.5-13.7c-0.1-2.5-0.1-5,0-7.5c0.2-2.3-0.6-3.5-2.8-4.4c-5.9-2.2-10.2-7.2-11.6-13.4
			c-1.4-5.8-2.7-11.7-3.6-17.6c-3.9-25.3-4-50.8-3.6-76.3c0-1.3,0-2.5,0-3.8c-1.4,1.8-2.5,3.9-3.2,6.1
			c-8.3,21.6-11.7,44.3-14.3,67.2c-0.7,5.8-0.2,12.5-5.5,16.2c-5,3.5-5.3,7.7-5,12.7c0.1,0.9,0.1,1.8,0,2.6
			c-0.3,6-4.5,10.6-10.4,10.8c-10.6,0.2-21.2,0.2-31.9,0c-5.9-0.1-10.2-4.8-10.4-10.7C8,302.8,8.2,299.4,8,296c-0.1-1-0.4-2-1-2.9
			c-2.3-3.2-4.7-6.3-7-9.4v-7.5c0.5-7,1.2-13.9,1.5-20.9c1-24.8,3.7-49.3,9.8-73.4c6.5-25.4,16.4-49.9,29.5-72.6
			c2.2-3.8,5.3-4.9,8.4-3s3.4,4.8,1.5,8.5c-1.8,3.3-3.9,6.4-5.3,9.9c-1.1,2.8-2,6-1.6,8.9c3.4,24.4,19.1,38.8,40.4,49.2
			c2.3-4.5,5.8-8.5,6.3-12.9c2.9-22.8,3.4-45.6-1.2-68.3c-1.9-9.3-4.9-18.3-11-26.5l-12.3,16c-2.5,3.2-5.7,4-8.4,2s-3.1-5.3-0.7-8.6
			c3.6-4.8,7.4-9.5,11-14.2c8.4-11.1,19-19.4,32.2-24.2c0.7-0.2,1.4-0.5,2-0.9c1.1-1.2,2.7-2.5,3-4c1-4.4,1.4-8.9,2.2-13.3
			c1.8-11.2,10.2-18.8,21.3-20c1.9-0.3,3.7-1.1,5.1-2.3c4.1-3.4,8.5-5.7,13.9-5.8c29.6,0,59.3,0,88.9,0c5.5,0,10.1,2.3,14.2,5.9
			c1.4,1.2,3,1.9,4.8,2.2c11.4,1.2,19.5,8.7,21.5,20.1c0.7,3.3,1.2,6.6,1.4,10c0.1,4.7,2.4,7,6.6,8.5c9.6,3.5,18.2,8.7,25.1,16.5
			c36.6,41.4,59,89.7,67.8,144.1c2.7,17.1,3.2,34.6,4.7,51.8L384,275.5z M283.6,186.5l-73.6,5v59.9c1.6,0,3,0,4.3,0
			c4.9-0.2,9.7-0.5,14.6-0.5c3.6,0,5.8,2.3,5.9,5.5c0.1,3.2-2,5.4-5.6,5.7c-1.2,0.1-2.5,0.2-3.7,0.2c-5.2,0-10.4,0-15.5,0v40.2
			c0.5,0.2,0.7,0.4,0.9,0.4c19.1,0,38.2,0.1,57.4,0c5.1,0,8-2.7,9.2-7.7c1.4-6.1,2.7-12.2,3.6-18.4s1.4-12.5,2-19
			c-9,0.9-17.3,1.9-25.6,2.6c-4.5,0.4-7.4-1.7-7.6-5.3c-0.1-3.4,2.3-5.5,6.7-5.9c8.9-0.9,17.8-1.9,26.9-2.9L283.6,186.5z
			 M174.1,191.6l-73.7-5.1v59.8c24.4,3.2,49,4.9,73.7,5.3V191.6z M174,119.7l-70.2-4.8c-0.4,19.6-0.8,39.5-1.3,60.4l71.4,4.9V119.7z
			 M210,179.6c23.9-0.3,47.7-2,71.4-5c-0.4-20.5-0.8-40.4-1.2-59.7l-70.2,4.7V179.6z M209.8,107.1c0.6,0.3,0.7,0.5,0.8,0.4
			c23.5-1.6,47.1-3.1,70.6-4.8c1-0.3,1.8-1,2.2-2c2.6-12.1,6.6-23.7,14.5-33.9c-2.1-1.5-3.7-3.2-5.7-4.1c-8.7-4-17.3-8.5-26.3-11.6
			c-10.6-3.6-21.2-1.9-31.3,3c-2.5,1.2-3.7,2.7-3.6,5.7c0.3,7.5,0.1,15,0,22.5c0.1,2.9-2.2,5.4-5.2,5.5c-0.1,0-0.2,0-0.3,0
			c-3.2-0.1-5.1-1.9-5.6-5c-0.2-1.2-0.2-2.5-0.1-3.7c0-5.3,0-10.7,0-16.6c-3.4,1.8-6.2,3.3-8.9,5c-0.7,0.5-1,1.3-1.1,2.1
			C209.8,82.2,209.8,94.7,209.8,107.1L209.8,107.1z M86.3,67.2c7.7,9.8,11.5,21,14,32.7c0.4,2.1,1.3,2.9,3.4,3.1
			c17.8,1.4,35.6,3,53.4,4.3c5.6,0.4,11.2,0.1,16.7,0.1c0.1-0.2,0.3-0.5,0.3-0.7c0-12.2,0.1-24.5,0.1-36.7c0-0.8-0.3-1.6-0.9-2.2
			c-2.8-1.7-5.7-3.3-9.1-5.2c0,6.5,0,12.3,0,18c0,4.7-2,7.3-5.5,7.4s-5.7-2.6-5.7-7.2c0-4.9,0-9.8,0-14.6c0-11.4-0.2-11.9-11.4-14.9
			C120.2,45.6,103.1,55.7,86.3,67.2z M300.7,182.7c4.3-2.6,8.9-5,13.2-7.9c12.8-8.8,21.8-20.3,25.6-35.6c1.5-6.3,1.6-12.1-2.3-17.8
			c-7.3-11-14.1-22.4-21.4-33.4c-2.9-4.4-6.5-8.3-10.7-13.6c-3,6.9-6.1,12.7-8,18.8c-6.5,21.1-6.1,42.8-5,64.6
			C292.6,166.8,294,175.3,300.7,182.7L300.7,182.7z M78.6,192.7c-19.8-9.6-36-23.3-43.5-45.5c-0.3,0.4-0.6,0.9-0.8,1.3
			c-9,21.9-15.2,44.9-18.3,68.4c-0.1,1.9,0.7,3.7,2,5c12.9,11.4,28.5,14.8,45.2,14.2c1.3-0.3,2.3-1.2,2.8-2.5
			c1.2-3.6,1.7-7.3,2.8-10.9C71.9,212.9,75.2,203,78.6,192.7L78.6,192.7z M305.9,192.5c4.2,14.3,8.1,27.9,12.2,41.5
			c0.5,1.1,1.5,1.9,2.8,2.2c16.6,0.6,32-2.8,45-13.8c1.9-1.4,2.8-3.8,2.3-6.1c-2.5-17.3-6.5-34.3-12.1-50.9c-2-6-4.4-11.9-6.9-18.9
			c-3.4,10.6-9.3,20.3-17.2,28.2C324.1,182.3,315,188,305.9,192.5L305.9,192.5z M185.5,70.8v223.6c0,8.7,0,8.5,8.5,8.8
			c3.6,0.1,4.6-0.9,4.6-4.5c-0.1-74.5-0.1-149-0.1-223.5v-4.2H185.5z M173.9,303v-39.6l-72.9-5c0.3,3.7,0.4,7.5,1,11.4
			c1.2,8,2.4,16,4.1,24c1.6,7.4,4.3,9.3,12.1,9.3c17.2,0,34.5,0,51.7,0L173.9,303z M320.8,247.6c0.1,1.8,0.2,3.1,0.3,4.4
			c1.2,9,2.4,18,3.6,27.1c0.5,4.1,1.9,5.5,6,5.5c11.9,0.1,23.7,0.1,35.6,0c5,0,6.6-1.6,6.3-6.5c-0.5-9.4-1.1-18.7-1.7-28
			c-0.3-5.3-0.7-10.6-1.1-16.6C354.9,244.4,338.4,247.8,320.8,247.6L320.8,247.6z M14.1,235c0.1-0.3-0.1,0-0.1,0.4
			c-0.9,14.7-1.9,29.4-2.7,44.1c-0.2,3.5,1.9,5,5.1,5.1c12.5,0.1,25,0.1,37.5,0c3.3,0,5-1.8,5.3-5.1s0.8-6.2,1.2-9.3
			c1-7.4,1.9-14.8,2.8-21.8c-8.7-1.3-17.3-1.7-25.4-3.9S22.2,238.4,14.1,235z M192,52.2c6.8-7.1,13.5-15.2,21.4-22
			s17.1-12.1,25.7-18.1v-0.9c-31.4,0-62.7,0-94,0.4c8.6,6.5,17.7,11.8,25.6,18.6S185.2,45.1,192,52.2z M121.5,314.4v6.7
			c0,5.5,0.1,5.7,5.7,5.7h129.7c1,0.2,2,0.1,3-0.1c1-0.5,2.4-1.4,2.4-2.3c0.3-3.3,0.1-6.6,0.1-10L121.5,314.4z M180.8,58.8
			c-11-18.2-28.1-29.2-46.3-38.6c-5.8-3-13.1,0.4-15.3,6.7c-1.4,3.9-1.7,8.1-2.6,12.5c0.7,0,1.4-0.1,2.2-0.1
			c14.6-2.7,28.2,0.1,40.9,7.8C166.6,51.2,173.7,54.9,180.8,58.8z M267.2,38.9c-0.5-3.4-0.9-6.9-1.7-10.2c-1.8-7.7-10.5-12-17.3-7.9
			c-9.7,5.8-19.2,12-28.4,18.7c-6.9,5-12.3,11.7-16.8,19.1c8.1-4.1,15.9-8.9,24-12.8c6-2.9,12.4-5.5,18.9-6.6
			C252.6,38.1,259.7,38.9,267.2,38.9z M49.3,305.5v-9.3H19.6v9.3H49.3z M364.4,296.2h-29.8v9.3h29.8V296.2z"/>
	</g>
</g>
</svg>
