<?xml version="1.0" encoding="utf-8"?>
<!-- Generator: Adobe Illustrator 26.0.0, SVG Export Plug-In . SVG Version: 6.00 Build 0)  -->
<svg version="1.1" id="katman_1" xmlns="http://www.w3.org/2000/svg" xmlns:xlink="http://www.w3.org/1999/xlink" x="0px" y="0px"
	 viewBox="0 0 513.8 559.9" style="enable-background:new 0 0 513.8 559.9;" xml:space="preserve">
<g>
	<path d="M213.1,437.5h-59.8c-4.8,0-8.8,3.9-8.8,8.8s3.9,8.8,8.8,8.8h59.8c4.8,0,8.8-3.9,8.8-8.8S218,437.5,213.1,437.5z"/>
	<path d="M370.7,446.2c0-2.3-0.9-4.5-2.6-6.2s-3.9-2.6-6.2-2.6h-59.8c-4.8,0-8.8,3.9-8.8,8.8s3.9,8.8,8.8,8.8h59.8
		c2.3,0,4.5-0.9,6.2-2.6S370.7,448.6,370.7,446.2z"/>
	<path d="M256.9,253.8c0,4.8-3.9,8.8-8.8,8.8s-8.8-3.9-8.8-8.8s3.9-8.8,8.8-8.8S256.9,248.9,256.9,253.8"/>
	<path d="M256.9,376.2c0,4.8-3.9,8.8-8.8,8.8s-8.8-3.9-8.8-8.8s3.9-8.8,8.8-8.8S256.9,371.4,256.9,376.2"/>
	<path d="M256.9,315c0,4.8-3.9,8.8-8.8,8.8s-8.8-3.9-8.8-8.8s3.9-8.8,8.8-8.8S256.9,310.2,256.9,315"/>
	<path d="M256.9,437.5c0,4.8-3.9,8.8-8.8,8.8s-8.8-3.9-8.8-8.8s3.9-8.8,8.8-8.8S256.9,432.7,256.9,437.5"/>
	<path d="M256.9,498.8c0,4.8-3.9,8.8-8.8,8.8s-8.8-3.9-8.8-8.8s3.9-8.8,8.8-8.8S256.9,493.9,256.9,498.8"/>
	<path d="M513.5,519L438,238.4c-6.6-28.5-24.9-51.2-53-66.3c2.1-7.6,3.2-15.4,3.2-23.3c0-22-8.4-43-24.1-60.8
		c-5.1-5.8-10.9-11-17-15.7c-0.5-4.8-1.6-9.5-3.2-14c-13-35.4-47.1-58.3-87-58.3s-74,22.9-86.9,58.3c-1.6,4.5-2.7,9.2-3.2,14
		c-0.7,0.5-1.3,1-2,1.5c-25.3,19.9-39.2,46.5-39.2,74.9c0,7.9,1.1,15.7,3.2,23.3c-28.1,15.1-46.4,37.9-53,66.3l-75.5,281
		c-0.6,2.3-0.3,4.7,0.9,6.7c1.2,2,3.2,3.5,5.4,4l59.8,14.7c4.5,1.1,9-1.5,10.4-5.9l46.6-147.7l-11.9,159.4c-0.2,2.4,0.7,4.8,2.3,6.6
		c1.7,1.8,4,2.8,6.4,2.8h211.7c4.8,0,8.8-3.9,8.8-8.8s-3.9-8.8-8.8-8.8H283V235.2c0-2.6-0.4-5.2-1.2-7.7h26.7
		c3.8,2.2,8,3.6,12.4,4.2c1.6,0.2,3.3,0.3,4.9,0.3c7.8,0,15.3-2.6,21.5-7.3c13.7-10.4,24.2-22.7,31.1-36.3
		c22.8,12.7,37.1,30.8,42.5,54c0,0.1,0,0.2,0.1,0.3l73.3,272.2l-43.2,10.8l-66.8-211.6c-1.3-4.2-5.6-6.8-10-6s-7.4,4.8-7.1,9.2
		l16.8,225h-17l0,0c-4.8,0-8.8,3.9-8.8,8.8s3.9,8.8,8.8,8.8h26.5c2.4,0,4.8-1,6.4-2.8c1.7-1.8,2.5-4.2,2.3-6.6l-11.9-159.4
		l46.6,147.8c1.4,4.4,6,7,10.5,5.9l59.8-15c2.3-0.6,4.2-2,5.4-4.1C513.8,523.7,514.1,521.2,513.5,519L513.5,519z M265.7,235.2v307.3
		H129.8l16.8-225c0.3-4.4-2.7-8.4-7.1-9.2c-4.4-0.8-8.7,1.7-10,6L62.7,525.9l-43.2-10.6l73.3-272.4c0-0.1,0.1-0.2,0.1-0.3
		c5.4-23.2,19.6-41.3,42.5-54c6.9,13.5,17.4,25.8,31.1,36.3l0,0c7.5,5.8,17.1,8.3,26.4,7c9.2-1.2,17.5-6.1,23-13.6
		c5.5-7.4,7.9-16.7,6.6-25.8s-6.1-17.4-13.5-23c-8.3-6.3-13.2-14-13.2-20.6c0-14.6,23.3-35,61.2-35s61.2,20.4,61.2,35
		c0,6.6-4.9,14.3-13.2,20.6c-6.1,4.6-10.5,11.1-12.5,18.4c-2.1,7.3-1.7,15.1,1.1,22.2h-48.4c-4.8,0-8.8,3.9-8.8,8.8s3.9,8.8,8.8,8.8
		h12.9C262.2,227.5,265.6,230.9,265.7,235.2L265.7,235.2z M336.9,210.8L336.9,210.8c-3.8,2.9-8.7,4.2-13.4,3.6
		c-4.6-0.6-8.7-3-11.4-6.7c-2.7-3.7-3.9-8.3-3.2-12.9c0.7-4.6,3.1-8.7,6.8-11.4c12.8-9.7,20.2-22.3,20.2-34.5
		c0-25.4-31.6-52.5-78.8-52.5s-78.8,27.1-78.8,52.5c0,12.2,7.4,24.8,20.2,34.5c3.7,2.8,6.1,6.9,6.8,11.4s-0.5,9.2-3.3,12.9
		s-6.9,6.1-11.4,6.7c-4.8,0.7-9.6-0.6-13.4-3.6c-21.8-16.6-33.8-38.6-33.8-62c0-48.2,51-87.5,113.8-87.5c3.2,0,6.4,0.1,9.5,0.3
		c4.8,0.3,8.9-3.4,9.2-8.2c0.3-4.8-3.3-8.9-8.1-9.3c-3.5-0.2-7.1-0.3-10.6-0.3c-23.6-0.1-46.9,5.1-68.3,15.2
		c11.7-25.4,37.9-41.5,68.3-41.5s56.6,16.1,68.3,41.5c-6.9-3.3-14.1-6.2-21.4-8.4c-2.2-0.7-4.6-0.4-6.7,0.6c-2,1.1-3.6,2.9-4.3,5.2
		c-1.4,4.6,1.2,9.5,5.8,10.9c21,6.5,39,17.7,52,32.3c12.9,14.6,19.7,31.6,19.7,49.2C370.6,172.2,358.6,194.2,336.9,210.8
		L336.9,210.8z"/>
</g>
</svg>
