<?xml version="1.0" encoding="utf-8"?>
<!-- Generator: Adobe Illustrator 26.0.0, SVG Export Plug-In . SVG Version: 6.00 Build 0)  -->
<svg version="1.1" id="katman_1" xmlns="http://www.w3.org/2000/svg" xmlns:xlink="http://www.w3.org/1999/xlink" x="0px" y="0px"
	 viewBox="0 0 330.7 434.7" style="enable-background:new 0 0 330.7 434.7;" xml:space="preserve">
<g>
	<path d="M315.8,312.1c1.2-8.6,4.4-37.7-6.6-58.9c0.9-8,3.5-38.7-7.7-57.6c1-9.2,3.2-41.6-10.2-55.6c0-9.2-0.8-38-9.4-50
		c-9.5-13.3-31.8-25.5-32.6-26h-0.6l-25.3-10.6l-3.2-30.6c-0.1-0.5-0.2-0.9-0.3-1.4C219.1,19.2,210.6,0,164.2,0
		s-54.8,19.2-55.7,21.4c-0.2,0.4-0.3,0.9-0.3,1.4L105,53.2L79.7,63.8h-0.6c-0.9,0.5-23.1,12.7-32.6,26c-8.6,12-9.4,40.8-9.4,50
		c-13.5,14.1-11.2,46.4-10.2,55.6c-11.2,18.9-8.6,49.7-7.7,57.6c-11.2,21.2-7.8,50.4-6.6,58.9c-10.6,16.4-8,51.1-7,60.5l0,0
		c-3.7,6.7-5.6,14.3-5.6,22v4.6c0,11.9-0.4,26.8,12.3,32.5l0,0c0.7,0.3,1.5,0.4,2.3,0.4h56c2,0,3.8-1,4.8-2.7
		c0.5-0.8,10.6-18.6,5.6-48.6c27.7,4.3,55.8,4.3,83.5,0c28.2,4.4,56.9,4.4,85.1,0c-0.1,11.9,0.9,23.8,3.1,35.5
		c1.7,5.6,5.8,10.1,11.2,12.3c10.6,4.4,22.1,6.5,33.6,6.2c6.6,0.3,13.1-0.7,19.4-2.8c6.1-2.9,10.6-8.5,12.2-15.2
		c3.3-14.8,1.3-30.3-5.6-43.8C323.7,363.5,326.6,328.6,315.8,312.1L315.8,312.1z M169.8,321v-49.4c10.1,0.7,20.9,0.9,31.1,0.9
		c20.8,0,39.2-0.9,44.8-1.2c6,8.8,6.3,29.8,4.7,46.2l-0.3,3.1l0,0C223.4,323.4,196.5,323.5,169.8,321L169.8,321z M78.2,321l-0.3-3.2
		c-1.6-16.3-1.4-37.3,4.6-46.1c6.7,0.3,24.2,1.2,43.7,1.2c10.6,0,21.8,0,32.3-1v49.3l0,0c-26.7,2.6-53.7,2.5-80.4-0.3L78.2,321z
		 M16.6,368.6c-1.1-13.3-1.6-37.7,4.8-49.1c8.4,0.8,30.7,3.1,46,3.6c0,1.5,0.3,2.9,0.5,3.8c-6.2,13.8-3.4,32.4-1.2,42.1
		c-13.2,0.7-36.9-0.1-50.2-0.6L16.6,368.6z M28.5,260.4c9.4,1,33.2,3.4,45.6,3.8c-8.3,11.2-8.7,32.5-7.7,47.7
		c-14.2-0.6-34.1-2.5-42.8-3.4c-1.2-9.1-2.9-31.5,4.8-48.2L28.5,260.4z M35.4,202.9c8.3,1.1,28.7,3.5,40.3,3.5l0.8,2
		c-7.2,13.8-6.6,31.9-4.9,44.4c-11.2-0.5-30.6-2.4-41.8-3.5C29,237.7,28.8,216.2,35.4,202.9L35.4,202.9z M44.6,148.2l22,1.8
		c0.3,0.8,0.7,1.6,1,2.1c-1.6,14.5-0.2,29.1,4.3,42.9c-10-0.4-25-2.1-34.2-3.2c-1-14.4,0-35.4,7.2-43.7L44.6,148.2z M131.3,158.1
		c10.4,0,20,0,27-0.7v46.3l0,0c-23.9,1.9-47.9,1.8-71.8-0.3c-6.3-14.6-9.1-30.5-8.3-46.4c10.2,0.4,33,1.1,53.3,1.1L131.3,158.1z
		 M249.7,157L249.7,157c0.8,15.8-2.1,31.7-8.3,46.3c-23.8,2.1-47.8,2.3-71.6,0.6v-46.4c6.9,0.4,16.1,0.6,25.9,0.6
		c21.1,0,44.9-0.8,54.3-1.1L249.7,157z M283.3,148.2c7.2,8.2,8.2,29.2,7,43.7c-9.1,1.2-24.1,2.9-34.2,3.3l0,0
		c4.4-13.9,5.9-28.5,4.3-43c0-0.6,0.6-1.3,1-2.1L283.3,148.2z M304.7,308.3c-8.7,0.9-28.6,2.9-42.8,3.4c1-15.1,0.6-36.3-7.7-47.7
		c12.4-0.3,36.2-2.7,45.6-3.8c8,16.5,6.3,38.9,5.2,48L304.7,308.3z M169.8,260.3v-45.2c9.1,0.9,18.3,1.3,27.5,1.2
		c19.4,0,38.1-1.3,44.8-1.9c7.2,14.8,3.6,36.7,1.7,45.6l0,0C219.2,261.4,194.5,261.5,169.8,260.3L169.8,260.3z M84.5,260.3
		c-1.8-8.8-5.6-30.8,1.7-45.6c7.5,0.6,25.3,1.8,43.7,1.8c9.6,0,19.2-0.5,28.7-1.6v45.3l0,0c-24.7,1.2-49.4,1.2-74.1-0.1L84.5,260.3z
		 M298.3,249.1c-11.2,1.2-30.6,3-41.8,3.5c1.7-12.4,2.4-30.6-4.9-44.4c0-0.6,0.5-1.2,0.8-2c11.2,0,31.9-2.5,40.2-3.5
		c7.4,14.3,6.4,37,5.9,46.4H298.3z M260.6,326.8c0-1,0.3-2.3,0.5-3.8c15.3-0.5,37.6-2.7,46-3.6c6.3,11.2,5.6,35.8,4.8,49.1
		c-13.3,0.6-37,1.3-50.1,0.4C264,359.2,266.8,340.6,260.6,326.8L260.6,326.8z M272.8,96.5c5,7.1,7,26.9,7.3,40.7l-14,1.2l0,0
		c3.1-9,4.4-18.5,3.9-28c-0.3-3.1-3-5.4-6.1-5.1c-3.1,0.3-5.4,3-5.1,6.1c0.2,11.8-2.3,23.6-7.5,34.2c-10.9,0.4-60.4,2.2-81.5,0.6
		V79.7c17.6-0.5,34.7-6.1,49.2-16.1L244.1,74C246.5,75.2,265,85.9,272.8,96.5L272.8,96.5z M164.2,11.2c34.7,0,43.5,11.5,44.8,13.7
		l3.1,29.7c-14.2,9.5-30.9,14.4-47.9,14.1c-17.1,0.4-33.9-4.5-48-14.1l3.2-29.6C120.8,22.5,129.9,11.2,164.2,11.2L164.2,11.2z
		 M55.6,96.5c7.6-10.6,26.3-21.2,28.6-22.4l25.1-10.4l0,0c14.5,10,31.6,15.5,49.2,16v66.5c-19.7,1.7-68.3,0-81.5-0.4l0,0
		c-5.2-10.7-7.7-22.4-7.5-34.3c0.3-3.1-2-5.8-5.1-6.1s-5.8,2-6.1,5.1c-0.6,9.5,0.8,19,3.9,28l-14-1.2
		C48.6,123.3,50.6,103.5,55.6,96.5L55.6,96.5z M66.8,420.9H15.7c-4.6-2.9-4.9-10.5-4.7-21.6v-4.8c0-5.2,1.2-10.3,3.5-15
		c6.8,0,22.4,0.9,36.5,0.9c6.8,0,13.2,0,18.1-0.5l0,0c3.1,13.6,2.3,27.8-2.3,40.9V420.9z M78,369c-1.7-7.2-5.2-25,0-37l0,0
		c13.8,1.5,27.7,2.2,41.6,2.1c13.1,0,26.2-0.7,39.2-2.1v38C131.9,373.7,104.7,373.4,78,369L78,369z M169.8,370.1v-37.9
		c12.7,1.3,25.4,2,38.1,2c14.3,0,28.5-0.7,42.7-2.2c5,11.9,1.5,29.8,0,37.1l0,0C223.9,373.4,196.6,373.7,169.8,370.1L169.8,370.1z
		 M317.8,413.4L317.8,413.4c-0.7,3.5-2.9,6.4-6,8.1c-14.4,3.2-29.4,2.1-43.2-3.2c-3.1-1.5-4.9-3.2-5.6-4.8c-2-11-3-22.1-2.9-33.3
		c4.8,0.3,10.8,0.4,16.8,0.4c14.1,0,29.6-0.6,36.4-0.9l0,0C318.4,390.1,319.9,401.9,317.8,413.4L317.8,413.4z"/>
	<path d="M131.7,34.7c11.4,3,23.2,4.5,35,4.6c10,0.2,19.9-1.4,29.3-4.7c1.4-0.5,2.5-1.6,3.1-2.9c0.6-1.4,0.7-2.9,0.1-4.3
		c-1.1-2.8-4.2-4.2-7.1-3.2c-23.7,9-57,0-57.3,0c-2.9-0.6-5.7,1.1-6.5,4c-0.8,2.8,0.7,5.8,3.5,6.8L131.7,34.7z"/>
</g>
</svg>
