<svg xmlns="http://www.w3.org/2000/svg" viewBox="0 0 345.61 384"><g id="katman_2" data-name="katman 2"><g id="katman_1-2" data-name="katman 1"><path d="M252.32,384H93.3c-7.54-2.66-10.67-8.07-10.12-15.93a71,71,0,0,0,0-9,4.85,4.85,0,0,0-1.25-3.23c-4-3.34-5.16-7.62-5.15-12.66q.1-63.92,0-127.84v-5.07c-3.64,4.54-6.47,8.28-9.54,11.81A13.08,13.08,0,0,0,64,231.27q.19,43.5-.05,87c0,3.18-.74,7.36-2.81,9.29-3.59,3.36-3.67,7-3.56,11.07q.11,3.38,0,6.75c-.26,7.73-5.35,12.93-13,13.05q-12.56.19-25.12,0c-7.58-.13-12.83-5.52-13-13.14-.09-4,0-8-.07-12a4.2,4.2,0,0,0-1-2.93C.94,327,0,322.52,0,317.38q.12-47.79,0-95.6a52.82,52.82,0,0,1,5.2-23.14q21.89-46.17,43.51-92.47A23.45,23.45,0,0,1,61.79,93.6c10.28-4.15,20.4-8.68,30.55-13a8.66,8.66,0,0,0-.09-1.36c-5.23-18.52-3-36.39,5.16-53.54a27.35,27.35,0,0,1,7.43-9.17c9.93-8,22-11.1,34.15-13.4C146.2,1.74,153.53,1,160.81,0h24c1.34.23,2.68.46,4,.71,11,2,22.18,3.54,33,6.25C239.8,11.44,250.46,23,254,41.44c2.53,13.09,3,26-.9,39,10.8,4.64,21.41,9.29,32.09,13.78a20.44,20.44,0,0,1,11.05,10.6c15,31.85,30.12,63.61,44.79,95.59a45.88,45.88,0,0,1,4.29,18c.42,33.74.29,67.48.13,101.22,0,2.68-.82,6.33-2.65,7.84-3.88,3.19-3.58,7-3.54,11,0,2.25.06,4.5,0,6.75-.22,7.62-5.45,13-13,13.12q-12.56.21-25.12,0c-7.66-.12-12.78-5.33-13-13.07-.11-3.87.05-7.75-.08-11.62,0-1.13-.33-2.68-1.09-3.3-4.36-3.47-5.4-8-5.38-13.32q.13-43.11,0-86.22c0-1.83.05-4-.9-5.41-3.48-4.94-7.37-9.59-11.1-14.35l-.75.27v4c0,42.74.07,85.47-.12,128.21,0,3.39-1,7.57-3.11,9.95a11.47,11.47,0,0,0-3.21,9.32c.14,1.74-.09,3.51.05,5.25C263,375.91,259.87,381.34,252.32,384ZM179.47,64.05V260.9L256.05,245v-4.38q0-26.25,0-52.49c0-16.48,2.17-32.7,7.5-48.28,4-11.76,9.11-23.15,13.87-35.07l-29.63-12.7c-1.95,2.6-3.57,5-5.4,7.17-2.76,3.34-6.68,3.95-9.55,1.64s-2.93-6-.46-9.66a85.57,85.57,0,0,0,7.46-12.48c4.52-10.14,4-20.69,1.88-31.53C222.71,60.31,201.22,62.41,179.47,64.05ZM67.38,105.21c.6,1.22,1,2.12,1.48,3a167.05,167.05,0,0,1,20.72,81.5c0,17.12,0,34.24,0,51.36V245l76.58,15.86V64.05c-21.88-1.63-43.46-3.8-62.28-16.8-3.35,16.26-1.4,31.05,9.29,44.06,2.86,3.47,2.57,7.2-.37,9.62s-6.76,1.76-9.54-1.59c-1.89-2.28-3.58-4.72-5.45-7.21ZM287.3,116a12.92,12.92,0,0,0-1.1,1.48,155.62,155.62,0,0,0-17.26,70.19,7.55,7.55,0,0,0,1.73,4.28c6.23,8,12.57,15.85,18.92,23.72a20.18,20.18,0,0,1,4.81,13.81c-.09,2.44,0,4.88,0,7.68,12.48-2.61,24.43-5.06,36.35-7.68a3.3,3.3,0,0,0,1.95-2.41c.46-8.18-.38-16.05-4.09-23.65-8.89-18.27-17.38-36.74-26-55.13ZM59.38,116l-1.09.28c-.56,1.09-1.15,2.16-1.67,3.26-13,27.63-25.89,55.33-39.13,82.86A47,47,0,0,0,13,226.71a3.94,3.94,0,0,0,2.33,2.79c7.16,1.68,14.39,3.09,21.59,4.58l14.37,3c0-1.76.11-3,0-4.23-.78-7.7,1.83-14.05,6.89-19.85,5.82-6.67,11.23-13.71,16.6-20.76a10,10,0,0,0,2-5.68,142.13,142.13,0,0,0-6.8-43.09C66.82,134.17,62.9,125.15,59.38,116ZM169,12.77c-16.34.67-32.82,2.36-48.31,9.09a40.88,40.88,0,0,0-8.92,5.38c-3.85,3.05-3.91,6.27-.15,9.34A41,41,0,0,0,120.46,42c12,5.41,24.76,7.6,37.74,8.55,20.82,1.52,41.46.57,61.37-6.36A60.38,60.38,0,0,0,234,36.56c4-2.78,3.88-6.39-.08-9.26a53.8,53.8,0,0,0-12.35-6.83C204.72,14.12,187.09,12.72,169,12.77ZM89.68,345.44h76.71c0-7.93-.14-15.65.08-23.36.08-2.8-1.09-3.57-3.52-4.07-17.85-3.62-35.68-7.38-53.52-11.07-6.52-1.35-13-2.62-19.75-4ZM255.84,303l-18.21,3.76q-27.67,5.7-55.34,11.48c-1.1.23-2.88,1.33-2.89,2-.21,8.33-.14,16.66-.14,25.18h76.58ZM89.58,258.12c0,10.18-.06,20,.12,29.88,0,.79,1.54,2,2.54,2.24,16.71,3.58,33.45,7,50.19,10.52,7.79,1.61,15.58,3.19,23.7,4.85.11-1.52.25-2.61.25-3.7,0-8.12-.12-16.25.08-24.36.07-2.85-.94-3.85-3.61-4.38-13.46-2.68-26.89-5.54-40.34-8.31C111.66,262.62,100.79,260.42,89.58,258.12Zm166.46,0c-25.17,5.24-50,10.36-74.72,15.66-.88.19-2,2-2,3.09-.18,7.74-.1,15.49-.1,23.24v5.55c3.64-.71,6.69-1.28,9.72-1.91,21.38-4.43,42.76-8.85,64.12-13.4,1.11-.24,2.83-1.54,2.84-2.37C256.11,278.11,256,268.26,256,258.1Zm76.72-15.81c-12.39,2.56-24.24,5-36.05,7.52-.89.2-2.21,1.43-2.22,2.2-.15,9.85-.1,19.7-.1,29.92,12.44-2.57,24.52-5,36.57-7.64a3,3,0,0,0,1.72-2.29C332.8,262.27,332.76,252.55,332.76,242.29ZM51.23,281.88c0-10.18.05-20-.1-29.9,0-.76-1.33-2-2.24-2.19-4.35-1.1-8.76-2-13.16-2.87-7.5-1.54-15-3-22.87-4.62,0,10.23,0,20,.08,29.69a3,3,0,0,0,1.73,2.29C26.72,276.88,38.81,279.33,51.23,281.88Zm-.25,38V294.93L13.1,287.11v32.75Zm281.6-32.76-38,7.91v24.81h38ZM166.16,358.69H96.38V371h69.78Zm83.22,0H179.51V371h69.87ZM19.26,345.42H44.44V333.17H19.26Zm307.11-12.31H301.2v12.55h25.17Z"/><path d="M204.88,211.64c0-1.37-.08-2.75,0-4.12.41-5.76.34-10.73-6.09-14.15-4.7-2.49-6.61-8-6.68-13.54-.08-6.74-.18-13.49,0-20.22.31-10.72,8.45-18.66,18.91-18.72a18.92,18.92,0,0,1,19.33,18.37c.31,6.85.31,13.74,0,20.59A18.41,18.41,0,0,1,220,196.09a3.84,3.84,0,0,0-2.38,4q.15,11.42,0,22.84c-.05,4.81-2.92,7.66-7,7.3-3.28-.28-5.55-2.66-5.67-6.28-.13-4.12,0-8.24,0-12.36Zm0-42.16c0,3.12-.09,6.24,0,9.36.13,4,2.49,6.54,6.1,6.64a6.12,6.12,0,0,0,6.56-6.23c.21-6.48.22-13,0-19.47a6.14,6.14,0,0,0-6.71-6.08c-3.45.17-5.78,2.59-5.93,6.41C204.81,163.23,204.9,166.36,204.9,169.48Z"/><path d="M204.77,83.25a6.28,6.28,0,0,1,6.36,6.4A6.35,6.35,0,0,1,204.66,96a6.56,6.56,0,0,1-6.25-6.25A6.48,6.48,0,0,1,204.77,83.25Z"/><path d="M140.74,211.87c0,3.87.07,7.74,0,11.6-.11,4.31-2.51,6.83-6.3,6.84s-6.35-2.61-6.42-6.81c-.13-7.61-.15-15.23,0-22.84.06-2.46-.73-3.7-2.9-4.88-6.45-3.52-9.66-9.27-9.9-16.52-.21-6.48-.19-13,0-19.47a19.06,19.06,0,0,1,19.22-18.91c10.63,0,18.77,8,19.08,19,.18,6.36.09,12.73,0,19.09-.07,7.82-3.65,13.65-10.52,17.25a3.8,3.8,0,0,0-2.31,4.09C140.82,204.12,140.75,208,140.74,211.87Zm0-42h0c0-3.24.1-6.49,0-9.74-.15-3.84-2.45-6.26-5.9-6.45a6.12,6.12,0,0,0-6.74,6c-.23,6.61-.23,13.24,0,19.84a6,6,0,0,0,6.48,5.9c3.49-.08,5.95-2.47,6.12-6.23C140.82,176.14,140.71,173,140.71,169.89Z"/><path d="M147.21,89.67a6.55,6.55,0,0,1-6.56,6.3,6.33,6.33,0,0,1-6.15-6.63,6.27,6.27,0,0,1,6.29-6.09A6.49,6.49,0,0,1,147.21,89.67Z"/></g></g></svg>