<svg xmlns="http://www.w3.org/2000/svg" viewBox="0 0 377.43 377.82"><g id="katman_2" data-name="katman 2"><g id="katman_1-2" data-name="katman 1"><path d="M202.94,0c7.78,1,15.63,1.64,23.32,3.13a94.84,94.84,0,0,1,16.37,5.09c5.28,2.07,8.44,6.15,9.89,11.85,2.77,10.88,6,21.64,9,32.46.57,2.07,1.41,3.33,3.78,3.92,11.13,2.78,21.75,6.65,29.89,15.33.66.7,2,.89,3.05,1.08,18.72,3.44,31.13,14.2,36.45,32.45,13.89,47.67,27.5,95.42,41.25,143.12,2.75,9.52,1.79,18.47-3.32,27a7.24,7.24,0,0,0-.63,4.84c1.1,5.12,2.6,10.15,3.86,15.24,1.95,7.91-1.73,14.25-9.63,16.33q-17.37,4.59-34.8,8.94c-8.31,2.07-14.51-1.74-16.68-10.09-1.13-4.35-2.47-8.66-3.25-13.07-.67-3.75-2.56-6-6.5-7.16-.1,1.31-.26,2.59-.29,3.88q-.63,28.49-1.2,57c-.3,15.94-10.82,26.45-26.78,26.46q-88.09,0-176.2,0c-15.75,0-26.29-10.55-26.6-26.26-.38-19.61-.86-39.23-1.3-58.84,0-.7-.13-1.39-.2-2.17-3.79,1.06-5.76,3.21-6.44,7-.82,4.54-2.16,9-3.35,13.44-2.14,8-8.22,11.76-16.21,9.82q-17.82-4.35-35.55-9.05c-7.63-2-11.22-8.41-9.32-16.19,1.24-5.09,2.69-10.14,3.81-15.25a6.73,6.73,0,0,0-.42-4.54c-5.4-8.9-6.15-18.12-3.25-28.07,11.86-40.72,23.52-81.5,35.25-122.26,1.9-6.59,3.68-13.22,5.65-19.79q8.3-27.54,36.63-32.77a6.15,6.15,0,0,0,3.29-1.37c7.45-7.83,16.94-11.86,27.14-14.24,4.27-1,6.07-3.07,7.08-7.18,2.44-9.93,5.67-19.67,8.05-29.61,1.56-6.53,5.49-10.42,11.31-12.93C146.43,3,157.46,1.74,168.54.74c2-.18,3.93-.49,5.9-.74Zm-20.5,365V156.11a7,7,0,0,0-.07-2.59c-.4-1-1.13-2.24-2-2.44-11.75-2.87-15.12-10.8-8.89-21.24l6.94-11.63c-29.9-5.88-51-22.35-63.69-49.4-2.87.84-5.39,1.53-7.89,2.3-15.81,4.82-25.54,18-25.23,34.48q1.83,97.67,3.77,195.31c.13,6.59,0,13.18,0,20.13h70.09c9.32,0,14.29,5,14.31,14.41q0,12.75,0,25.5V365Zm108.82-44c.11-.95.21-1.43.22-1.91q2.14-107.22,4.23-214.43C296,86.8,283.77,72.3,262.64,69.34a82.84,82.84,0,0,1-25.23,32.42,83.82,83.82,0,0,1-38,16.53c.79,1.46,1.34,2.53,2,3.56,2.1,3.55,4.37,7,6.29,10.64,4.12,7.82-.42,17.2-9,18.25-3.09.38-3.78,1.45-3.78,4.39q.12,102.93.07,205.86c0,1.32.13,2.64.2,4h12.19c.07-1.38.18-2.59.18-3.81q0-12.56,0-25.12c0-10.19,4.77-15,14.84-15h68.9ZM306.54,88.72c.57,6,1.69,12,1.59,17.85-.89,53.33-2.06,106.64-2.89,160a16.7,16.7,0,0,0,3.27,9.52c4.67,6.23,11.35,8.39,19,6.63s15-3.6,22.45-5.78c12.16-3.58,17.24-13.05,13.79-25.19-2.82-9.95-5.7-19.89-8.56-29.84Q339,165.63,322.81,109.37C320.17,100.16,315,93,306.54,88.72ZM71.36,88.46c-9,4.52-14.18,11.7-16.83,21Q45,142.95,35.33,176.35,24.47,214.11,13.6,251.84c-3.43,12,1.91,21.75,13.86,25.24,4.19,1.22,8.44,2.25,12.72,3.1,5.11,1,10.28,2.42,15.44,2.49,8.75.11,16.82-7.76,16.67-15.51-.82-42.2-1.9-84.41-2.44-126.62C69.63,123.29,67.24,105.93,71.36,88.46ZM86.55,334.14c0,5.95-.08,11.44,0,16.93.16,9.84,4.76,14.35,14.6,14.36q26.06,0,52.11,0c1.21,0,2.41-.12,3.61-.19v-31.1Zm133.76,31.08c19.64,0,39,.15,58.29-.1,5.71-.07,10.57-3.22,11.5-9,1.17-7.28.95-14.79,1.33-22.19H220.31ZM234.08,38.36A72.58,72.58,0,0,0,236.8,31c3.18-12.82,4.48-11.39-8.37-14.41-20.88-4.91-42.13-4.92-63.33-2.6-8,.87-15.88,3-23.75,4.87-1.12.26-2.84,2.23-2.66,3.08,1.12,5.53,2.69,11,4.17,16.67C173.75,29.09,203.75,29.16,234.08,38.36ZM189.32,85.72c5.36-9.93,13.78-17.26,23.58-23.47,5.19-3.29,9.57-7.83,14.32-11.81l-.6-1.17a136.24,136.24,0,0,0-76.15.61,141.78,141.78,0,0,0,13.25,12c3.32,2.62,7.39,4.39,10.39,7.3C179.42,74.3,184.17,80,189.32,85.72Zm6.46,20.09a24.11,24.11,0,0,0,2.79-.15q36.12-7.53,52.18-40.76c.32-.67.87-1.5.7-2.08-1.75-6.25-3.62-12.46-5.63-19.27-2.25,3.78-3.91,6.85-5.84,9.74-6.12,9.2-14.2,16.28-23.6,22C205.14,82.19,198.42,92.28,195.78,105.81ZM131.67,43.27c-1.67,5.8-2.84,10.61-4.47,15.27a11,11,0,0,0,.94,9.27c9.86,18.93,25.49,30.58,45.77,36.39,2.46.7,5,1.18,8,1.87-2.51-13.34-9-23.22-19.71-30.31-2.6-1.72-5.29-3.32-7.82-5.13C144.72,63.76,137.47,54.83,131.67,43.27ZM13.57,299.39l36.57,9.42c1.11-4.43,2.12-8.47,3.08-12.29l-36.48-9.36C15.82,290.74,14.76,294.79,13.57,299.39Zm347.1-12.16-36.53,9.37c1,3.84,2,7.86,3.14,12.21l36.49-9.34C362.66,295.09,361.64,291,360.67,287.23ZM196.41,138.47l-7.73-12.94L181,138.47Z"/><path d="M138.37,270.48c0,8.12,0,16.24,0,24.35-.06,8.42-5.15,13.47-13.56,13.55-3.75,0-7.49.05-11.24,0-7.8-.13-12.86-5-13-12.95-.16-12.61,0-25.22-.06-37.83,0-4-.11-8,0-12,.31-7.51,5.05-12.29,12.56-12.61,4.11-.17,8.24-.16,12.36,0,7.81.3,12.74,5.35,12.83,13.16C138.44,254.25,138.37,262.37,138.37,270.48ZM125.5,295.62v-50H113.33v50Z"/><path d="M276.82,270.75c0,7.87.05,15.74,0,23.6-.08,9.23-4.93,14-14.18,14-3.75,0-7.49.08-11.24,0-6.89-.2-12.22-5.15-12.3-12.07q-.28-25.66,0-51.32c.08-6.61,5.09-11.48,11.69-11.89,4.35-.27,8.74-.24,13.1-.1,7.89.25,12.74,5.11,12.89,13.06C276.94,254.27,276.81,262.51,276.82,270.75ZM264,295.56V245.68H251.9v49.88Z"/></g></g></svg>