<svg xmlns="http://www.w3.org/2000/svg" viewBox="0 0 300.05 384"><g id="katman_2" data-name="katman 2"><g id="katman_1-2" data-name="katman 1"><path d="M223.49,384h-147c-6.37-2.47-12.25-5.92-13.76-13-1.15-5.4-1.06-11.15-.88-16.72.09-3,2.63-4.88,5.8-4.62a5.2,5.2,0,0,1,5.13,5.42c.11,2.49,0,5,0,7.49,0,7.74,2.42,10.18,10,10.19h49.81V315.1c-20.07,4.08-39.79,3.28-59.84.1,0,6,.06,11.51,0,17,0,3.62-2.15,5.92-5.28,6.06-3.3.15-5.64-2.16-5.91-5.89-.08-1,0-2,0-3V263.61c-3.5,12.95-6.26,26-9.12,39-1.29,5.83-2.07,11.94-4.49,17.3a21.61,21.61,0,0,0-2.27,9.81c0,1.5,0,3,0,4.5-.18,7.18-4.91,12.4-12.09,12.76-6.11.31-12.25.28-18.37,0C7.84,346.66,3.07,341.44,3,334c0-2.87.06-5.75,0-8.62a17,17,0,0,0-.68-3.57c-.76-3.07-2.31-6.14-2.24-9.17C1,274.92,3.56,237.29,9.81,200c5.23-31.11,13.1-61.48,25.34-90.66,6.28-15,15.09-27.84,28.64-37.12C66.44,70.4,69.22,68.77,72,67c-.3-.73-.53-1.3-.77-1.87-10.54-25,2.58-51.76,28.81-58.63,5.31-1.39,10.68-2.58,16.09-3.48C123.39,1.83,130.7,1,138,0h24c8.75,1.25,17.56,2.24,26.25,3.83s17.71,3.33,25.3,8.67c3.22,2.26,4.1,5.18,2.4,8-1.79,3-4.87,3.36-8.5,1.47-3.19-1.67-6.41-3.52-9.85-4.43a182.69,182.69,0,0,0-95.18,0C81.13,23.16,72.21,46.84,84.18,65.31c3,4.61,6.3,9,9.41,13.53,2,3,4.7,4.46,8.32,3.72,3.36-.69,4.94-3.09,5.79-6.18,2.6-9.4,4.89-18.82,4.07-28.73-.3-3.48-.06-7,0-10.49,0-8,3.55-11.55,11.72-11.56q26.44,0,52.87,0c.5,0,1,0,1.5,0,6.64.18,10.43,3.94,10.41,10.61-.05,13.34-.72,26.71,3.84,39.63,1.15,3.24,2.41,6.06,6.16,6.75s6.24-1,8.25-3.89q3.92-5.72,8-11.34c6.39-8.87,8.35-18.48,5.22-29.08-1.16-4,.32-6.79,3.67-7.72a5.21,5.21,0,0,1,6.88,4.49,88.32,88.32,0,0,1,1.58,18.09c-.2,4.71-2.15,9.35-3.39,14.26.25.15.77.48,1.3.78,15.38,8.62,26.83,21,33.23,37.33s12.67,32.6,17.3,49.38c14.41,52.26,18.31,105.93,19.82,159.84.05,1.79-.75,3.61-1.2,5.4a61.51,61.51,0,0,0-1.77,7,64.76,64.76,0,0,0-.08,7.11c-.15,7-4.69,12.27-11.71,12.69a166.89,166.89,0,0,1-19.11,0c-7.17-.38-11.77-5.65-11.9-12.91-.05-2.87.06-5.75-.05-8.62a9.49,9.49,0,0,0-.85-3.1c-1-2.38-2.46-4.62-3.06-7.09-1.86-7.63-3.4-15.35-5.06-23q-3.09-14.34-6.19-28.7l-.67.1v4.08q0,48,0,96c0,5.9-1.49,11.27-6,15.14C229.79,381,226.47,382.29,223.49,384Zm-67.8-11.42V201.41a30.55,30.55,0,0,1,.17-4.49,5.11,5.11,0,0,1,5.4-4.71,5,5,0,0,1,5.35,4.31,19.79,19.79,0,0,1,.28,5.59c-.27,2.67.71,3.94,3.39,4.11,10.7.68,21.39,2,32.08,2,8.13,0,16.26-1.66,24.45-2.59-.44-12.83-.86-24.9-1.29-37.28-19.5,3-38.84,3.5-58.36-.29-.09,1.52-.17,2.62-.22,3.72s.05,2.5-.1,3.74c-.41,3.4-2.53,5.36-5.63,5.33s-5.16-2-5.46-5.47c-.11-1.24-.07-2.5-.07-3.75V67H144.54V372.58Zm11.49.17h50.25c7.12,0,9.7-2.6,9.71-9.75q0-22.12,0-44.25c0-1.08-.12-2.15-.21-3.55-20,3.3-39.76,3.85-59.74-.05Zm-.08-69.26c19,4.74,45.34,3.53,59.83-.09V266.73c-10.14.71-20.08,1.92-30,1.94s-19.77-1.16-29.81-1.83ZM73,266.17v37.2c12.8,3.94,44.12,4.26,57.67.79,2.13-.55,2.35-1.65,2.34-3.44,0-8.86,0-17.73,0-26.59v-8.08C112.72,269.94,93,269.38,73,266.17ZM167,217c0,12.35-.06,23.93.12,35.51,0,.86,1.68,2.22,2.76,2.46,13,2.86,26.27,2.95,39.5,2,5.9-.43,11.77-1.44,17.57-2.18V216.67C207,220.34,187.25,221,167,217ZM73,254.5c16.75,3.73,40.31,3.87,56.62.79,3-.56,3.55-1.76,3.48-4.4-.14-5.62,0-11.25,0-16.87V217c-20.3,4-40.11,3.28-60.06-.17Zm.2-49.41a8.29,8.29,0,0,0,1.16.46c18.57,3.48,37.16,4.1,55.81.63,2.33-.44,3-1.51,2.93-3.77-.1-10.48,0-21-.06-31.45a25.82,25.82,0,0,0-.37-3c-19.53,3.89-38.77,3.29-58.2.32C74,180.65,73.59,192.71,73.16,205.09ZM109.6,121.9c-.08.68-.12,1.3-.23,1.9-1.18,6.49-2.19,13-3.65,19.45-.73,3.23-3.64,4.63-6.68,3.8s-4.36-3.12-4-6.25c.13-1.11.5-2.19.69-3.29q1.37-7.81,2.7-15.66l-25.83-2.72c.63,12.78,1.25,25.18,1.88,37.7,18.93,3.19,37.63,3.8,56.38.1,2.43-.48,2.17-1.92,2.18-3.52V119.29Zm117.77-2.82-26,2.82c1.16,6.14,2.3,12,3.35,17.89.78,4.33-1.33,7.39-5.09,7.44-3.48.05-5.27-2-5.89-5.17-1.33-6.7-2.54-13.43-3.81-20.21l-23-2.56c0,12.06,0,23.79.11,35.51,0,.72,1.45,1.93,2.33,2,8.3,1,16.62,2.5,24.94,2.52,10.41,0,20.83-1.21,31.14-1.89C226.14,144.13,226.74,131.8,227.37,119.08Zm53.34,92.45c-13.87,4.21-27.17,3.84-40.56.87a5.28,5.28,0,0,0-.15,1.4c2.76,13,5.51,26.1,8.38,39.13a3.62,3.62,0,0,0,2.09,2.19c10.83,3.45,21.74,4.14,32.77.8,2-.6,2.46-1.52,2.2-3.5-.55-4.08-.76-8.2-1.24-12.29C283.09,230.73,281.91,221.35,280.71,211.53Zm-266.53,43a6.71,6.71,0,0,0,1,.8c11.53,4.19,23,3.41,34.5-.28.93-.3,1.8-1.89,2.06-3,1.86-8.14,3.57-16.32,5.31-24.49,1.06-4.93,2.11-9.87,3.26-15.27-14,3.24-27.31,3.43-41.16-.7Q16.6,233.43,14.18,254.5ZM21,199.67a11.55,11.55,0,0,0,1.75,1.09c12.55,4,25.09,3.36,37.56-.33.85-.26,1.74-1.92,1.82-3,.38-4.6.57-9.22.62-13.83.09-8.43,0-16.86,0-25.63-10.88,2.78-21.45,3-32.5-.84C27.09,171.65,24,185.71,21,199.67ZM269.67,157c-11.19,4.29-21.83,3.5-32.08,1.2v41.72c14,4.22,27.51,5.15,41.49.18C275.93,185.64,272.87,171.66,269.67,157ZM10.92,314.22c9,0,17.34.07,25.67-.12.82,0,2.09-1.5,2.33-2.5,1.87-8,3.55-16.06,5.27-24.1,1.4-6.53,2.77-13.07,4.16-19.64-6.14.5-11.82,1.39-17.49,1.31S19.5,268,13.25,267.35C12.5,282.57,11.72,298.1,10.92,314.22Zm278.1,0c-.79-16.06-1.56-31.59-2.35-47.58-11.85,3.6-23.3,3.14-35.2.73,3.32,15.55,6.47,30.41,9.76,45.23a3.06,3.06,0,0,0,2.4,1.55C271.85,314.27,280.07,314.22,289,314.22ZM123.24,37V55.29h53.54V37ZM33.63,146.29c9.4,3.55,18.21,3.15,27,.38.89-.28,1.82-2.17,1.79-3.29-.19-6.86-.42-13.73-1.08-20.55-.94-9.62-2.26-19.2-3.42-28.79l-1.22-.19C45.2,109.48,40.13,128,33.63,146.29ZM243.31,93.88l-1.91.21c-1.32,16.64-2.68,33.28-3.91,49.92a3.08,3.08,0,0,0,1.4,2.5c9,3,18,3.4,27.41-.24C259.86,128,254.77,109.55,243.31,93.88ZM121.72,67c-1,4-2.16,7.86-3,11.74a19.64,19.64,0,0,1-9.91,13.4,4.54,4.54,0,0,0-2.12,2.7c-1,5.38-.65,10.61,2.76,15.88,6.65-.86,13.42-1.86,20.22-2.57,2.73-.29,3.49-1.42,3.45-4.06-.13-11.36,0-22.72-.06-34.07,0-1-.19-1.91-.3-3ZM167,67c0,13.12,0,26,.1,38.77,0,.75,1.45,2,2.35,2.13,6.28.92,12.6,1.58,18.91,2.38,2,.25,3.48-.12,3.77-2.42a100.64,100.64,0,0,0,1.3-11.7,6,6,0,0,0-2.69-4.24,19.88,19.88,0,0,1-9.19-12.23c-1.1-4.2-2.17-8.4-3.27-12.69Zm55,9.64C220.89,78,220.13,79,219.41,80c-3.8,5.21-7,11-13.76,13.21-.44.14-.84,1.16-.85,1.78-.06,5,0,10,0,15.49,7-1,14.6-1.93,22.2-3.17.9-.14,2.06-1.62,2.27-2.64,1.21-6.1,2.24-12.25,3.18-18.4.16-1,0-2.73-.74-3.24C228.61,80.71,225.31,78.75,222,76.6Zm-143.86,0c-3.42,2.2-6.73,4.14-9.8,6.41-.69.51-.91,2.19-.75,3.24.93,6.16,2,12.29,3.15,18.41.17.94.89,2.43,1.54,2.53,7.94,1.26,15.91,2.3,22.91,3.27,0-5.34.11-10-.08-14.7a5.1,5.1,0,0,0-1.8-3c-2.92-2.63-6.21-4.87-8.92-7.69C82,82.67,80.35,79.69,78.09,76.55ZM34.23,325.75h-20c0,2.64.08,5,0,7.36-.08,1.93.72,2.74,2.62,2.71,2.87-.05,5.75,0,8.62,0C35,335.81,35,335.81,34.23,325.75Zm231.29-.11c0,2.67.11,4.92,0,7.15s.88,3.12,3.08,3c2.75-.09,5.5.05,8.25,0,10.37-.3,8.93,2.29,8.84-9.47,0-.2-.25-.4-.43-.69Z"/></g></g></svg>