<svg xmlns="http://www.w3.org/2000/svg" viewBox="0 0 334.68 384"><g id="katman_2" data-name="katman 2"><g id="katman_1-2" data-name="katman 1"><path d="M246.85,384V372.75c5.5,0,10.45,0,15.4,0,5.55,0,7.43-2,7.17-7.5-.24-5-.76-10-.81-15,0-2.89-1.17-3.51-3.83-3.49-18.5.09-37,.05-55.5.05h-4.66v-72h59c-3.63-55.77-7.22-111-10.83-166.62l11.21-.78,12.24,187.75,46.44-15.43-3.41-27.61q-5.06-40.73-10.12-81.43T299,89.32c-.34-2.73-.89-5.44-1-8.17-.4-6.88-3.72-12.06-9.69-15-7.37-3.64-15.35-6.05-22.58-9.92-9.46-5.06-17.94-4.69-27.12.89-7.32,4.44-15.46,7.56-23.34,11-2.34,1-3,2.34-3,4.8.15,9,.05,18,0,27a7,7,0,0,1-.18,1H201.18V74.82c-9.33,4.35-18.13,8.43-26.88,12.6a3.19,3.19,0,0,0-1.25,2,13.53,13.53,0,0,0-.08,3V372.57h40.12V384H66.83c-2.34-1.34-4.92-2.4-7-4.08-4.47-3.63-6.29-8.53-5.9-14.29q1.81-27.67,3.58-55.37c.06-1,.1-2,.17-3.33-2.9-1-5.79-2.07-8.71-3.05-15.27-5.08-30.53-10.23-45.85-15.15C.41,287.86-.26,286.64.08,284q5.12-40.34,10.08-80.68l10.17-81.8c.86-6.91,1.74-13.82,2.64-21L34.09,102C26.72,161.28,19.39,220.35,12,279.74L58.47,295.2c4.1-62.85,8.16-125.14,12.23-187.69l11.21.7C78.31,163.7,74.72,219,71.11,274.59H130v72.24H125.6c-18.25,0-36.51.13-54.75-.11-3.93-.05-4.88,1.21-4.85,4.84,0,5-.61,10-.78,15-.14,3.9,2,6.17,5.87,6.18q44.44.09,88.88,0a11.47,11.47,0,0,0,1.74-.36v-4.48q0-137.8.07-275.62c0-3.17-.8-4.88-3.85-6.19-8-3.43-15.84-7.28-24.25-11.2v26.17H122.33V97.54c0-8.37-.06-16.75,0-25.12,0-2-.5-3.15-2.42-4C108.28,63,96.66,57.52,85,52.19a6.1,6.1,0,0,0-4.18-.25C71.21,55.53,61.71,59.31,52.18,63l-.36.13C41.92,67.09,36.2,74,36.12,85a47,47,0,0,1-.73,5.71L24.8,89.33C25.21,70.63,29,60.8,48.09,52.59c9.28-4,18.83-7.34,28.21-11.11A7.72,7.72,0,0,0,80,38.7C87.45,25.85,94.74,12.91,102.08,0H232.6c6.28,11.07,12.86,22,18.72,33.29,2.81,5.4,6.69,8.34,12.27,10.36,9.83,3.57,19.61,7.45,29,12,9.18,4.41,15,12,16.32,22.34,1.89,14.62,3.61,29.25,5.43,43.88q5.06,40.71,10.13,81.43,5,40.33,10.08,80.68c.34,2.64-.27,3.94-3,4.81-12.25,3.88-24.42,8-36.61,12.09-6,2-12,4-18,6.07.11,1.61.2,2.85.28,4.09,1.17,18.33,2.41,36.66,3.47,55,.46,7.9-3.48,13.82-10.63,16.84-.77.32-1.48.77-2.22,1.16ZM117.18,11.43C134.11,33,150.64,54,167.35,75.26L217.5,11.43ZM68.87,308.63c-.56,9-1.11,17.8-1.67,26.74h51.58V308.63Zm196.93.13H215.87v26.52h51.62C266.92,326.28,266.36,317.6,265.8,308.76Zm-78.26-241,.67.64L243.82,42.5c-5.18-9-10.17-17.76-15.34-26.81ZM106.2,15.67,90.89,42.48l55.69,26,.55-.69ZM69.67,296.89h49.1V286.15H70.39C70.15,289.77,69.92,293.2,69.67,296.89ZM264.3,286.26H215.89v10.67H265C264.76,293.22,264.53,289.79,264.3,286.26Z"/><path d="M224.35,384V373H235.6v11Z"/><path d="M102.42,127.59h33.21V206H102.42Zm11.14,67.11h10.8V139h-10.8Z"/><path d="M284,77.59c-1.34,3.53-2.57,6.75-4,10.4l-10.5-3.92,4-10.46Z"/><path d="M263,69.51l-4,10.38L248.52,76c1.34-3.51,2.6-6.79,4-10.48Z"/></g></g></svg>