<svg xmlns="http://www.w3.org/2000/svg" viewBox="0 0 384 384"><g id="katman_2" data-name="katman 2"><g id="katman_1-2" data-name="katman 1"><path d="M284.25,384H99c-7.52-3.32-10.14-9.29-9.46-17.18a47.62,47.62,0,0,0-.05-8.61,5.35,5.35,0,0,0-1.91-3.54c-8.21-5.38-12.13-13-12.33-22.66q-.31-15-.55-29.95c0-2.32,0-4.63,0-7.21-4.47,1.52-6.91,3.66-7.55,8s-2.09,8.46-3.22,12.67c-2.43,9.1-8.31,12.67-17.41,10.41q-17.41-4.32-34.79-8.84c-8.21-2.13-12-8.53-10-16.83,1.27-5.2,2.7-10.37,4-15.58a6.57,6.57,0,0,0,0-3.6C3.92,276.33,1.92,271.68,0,267v-9c.51-1.65,1-3.29,1.51-4.94Q22.63,179.7,43.78,106.33C47.68,92.86,56,82.47,69.15,77.66c9-3.3,17.32-7.09,25.21-12.66,5.22-3.67,12.08-5.18,18.38-7.11,3.25-1,4.88-2.44,5.75-5.77,2.83-10.86,6.24-21.57,9-32.45,1.51-5.93,5-9.82,10.43-11.82A98.11,98.11,0,0,1,154.4,3.1c8-1.44,16.06-2.1,24.1-3.1h27c4.7.5,9.41.94,14.11,1.51,9.68,1.17,19.44,2.37,28.1,7.15,3.16,1.75,6.72,4.76,7.79,8,3.94,11.8,7,23.9,10.19,36,.8,3,2.34,4.46,5.33,5.2,10.92,2.69,21.17,6.73,29.12,15.18a5.54,5.54,0,0,0,3,1.21c19.25,3.3,31.77,14.36,37.27,33,8.23,27.86,16.11,55.82,24.13,83.74q9.75,33.92,19.46,67.86V267c-1.59,4.17-3.32,8.3-4.72,12.53a12.25,12.25,0,0,0-.76,5.88c1,5,2.49,9.91,3.71,14.88,2,8.15-1.6,14.6-9.62,16.73q-18.08,4.82-36.27,9.24c-7.69,1.87-14-2-16-9.62-1.25-4.57-2.75-9.12-3.46-13.78-.66-4.34-3.11-6.44-7.13-7.83-.1,1.33-.25,2.53-.27,3.73q-.37,16.49-.69,33c-.13,7.72-2.08,15.19-8.47,19.57-5.62,3.85-6.47,8.38-5.88,14.17.09.86,0,1.75,0,2.62C295,375.94,291.82,381.38,284.25,384ZM85.45,192.21c0,5.48-.1,10.71,0,15.93q1.28,61.47,2.63,123c.23,10,5.13,14.56,15,14.56h82.23V192.21ZM198.67,345.66h81.89c10.36,0,15.13-4.52,15.37-15q1.56-68.22,3-136.44a9.3,9.3,0,0,0-.33-2H198.67ZM181.6,120.17c-30.29-5.94-51.68-22.59-64.71-50.16-2.16.6-4.19,1.14-6.19,1.72C92.42,77,83,89.66,83.28,108.73c.38,22.73,1,45.46,1.48,68.19a16.06,16.06,0,0,0,.32,2.08H185.31V153.91c-13.58-1-17.19-13.47-10.65-22.22C177.25,128.22,179.17,124.26,181.6,120.17Zm16.94,58.76H299.25c.5-25.38,1.24-50.47,1.36-75.56,0-9.7-4.72-17.69-12.09-24C283.47,75,277.33,73,271.1,71c-2.89-.91-4.09-.29-5.37,2.39-7.86,16.38-19.7,29.22-35.89,37.45-8.33,4.23-17.44,7-26.45,10.45,2.29,3.83,5.06,8.24,7.6,12.78,4.82,8.61-.14,18.3-9.92,19.56-.82.11-1.63.25-2.53.39ZM22.92,225c-3.11,10.81-6.12,21.09-9,31.4-3.29,11.66,2,21.73,13.63,25.16,8.25,2.42,16.62,4.53,25,6.17,11.36,2.21,21.73-7,21.43-18.57-.19-7.62-.31-15.24-.54-22.85-.21-7,1.15-5.41-5.57-7.51C53.06,234.12,38.16,229.63,22.92,225Zm338.14.3c-16.54,5.06-32.37,10-48.25,14.73-2.09.63-2.21,1.91-2.24,3.65-.14,8.36-.3,16.73-.56,25.1-.38,12.55,10.29,21.68,22.69,19,8-1.73,16-3.77,23.91-6.14,11.54-3.48,16.74-13.29,13.53-24.86-1.53-5.52-3.18-11-4.77-16.53C364,235.35,362.56,230.47,361.06,225.27ZM238.35,38.83c1.09-3.13,2.43-6,3.08-9,2.36-10.9,3.72-9.39-7.46-12.72-1-.28-1.93-.5-2.91-.69-22.4-4.51-44.95-4.62-67.51-1.81-6.76.84-13.39,2.87-20,4.62-1,.27-2.54,2.12-2.37,2.95,1.16,5.65,2.71,11.23,4.12,16.78C188.84,29.64,194.74,29.64,238.35,38.83Zm-6.93,12.1c-15.57-7.79-62.39-7.81-78.18-.34a59.54,59.54,0,0,0,16.9,14.61A57.5,57.5,0,0,1,190.71,86a23.5,23.5,0,0,0,1.48,2c6-11.32,15.07-18.85,25.37-25.35C222.54,59.52,226.66,55,231.42,50.93Zm18.78-6.26c-.47.37-.87.53-1,.82-6.76,13.93-17.4,24-30.48,32.08-10,6.15-16.05,15.5-18.84,26.9a30,30,0,0,0-.4,3.49c25.66-4.85,44.09-18.38,55.34-41.44a6.19,6.19,0,0,0,.72-3.87C253.92,56.67,252,50.77,250.2,44.67Zm-65.15,63.1c-.43-2-.65-3.39-1-4.7-3.18-11.46-9.74-20.48-19.95-26.59C151.55,69,141.67,59.05,135.08,46a15.38,15.38,0,0,1-.59-1.65c-1.26,2.38-1.51,4.18-2.29,5.71-6.29,12.39-1.51,22.32,6.59,31.8C150.9,96,166.24,104.17,185.05,107.77ZM70.93,160.6c0-9.35,0-18.41,0-27.46,0-14.27-2-28.61,1.87-43.26-8.49,4.34-13.9,10.68-16.47,19.28-4.1,13.71-8,27.5-11.9,41.27a9.29,9.29,0,0,0,0,2.25ZM311.58,90.1c4.42,23.45-.05,46.87,1.31,70.49l27.51-8.31c-4.95-16.23-9.47-32.16-14.75-47.82C323.4,97.81,318,93.27,311.58,90.1ZM185.45,358.73H102.66v12.2h82.79Zm95.89,0H198.68V371h82.66Zm68.88-171.43-6.32-22.62c-8,2.42-15.53,4.69-23,6.94-8.56,2.57-8.6,2.56-8.73,11.59-.08,5.15,0,10.31,0,15.91ZM40.31,164.67c-2.16,7.88-4.16,15.15-6.21,22.65l37.95,11.75V174.19ZM311,227.25l46.45-14.32c-1.42-4.48-2.69-8.47-4-12.68-13.74,4.11-27.2,8.11-40.61,12.24a3.19,3.19,0,0,0-1.72,2.36C310.94,218.8,311,222.78,311,227.25Zm-238.29-.36c0-4.19-.1-7.9,0-11.6.07-2-.72-2.82-2.59-3.36-6.1-1.75-12.15-3.69-18.24-5.53-7.13-2.15-14.27-4.26-21.78-6.49L26.6,212.69ZM54.31,301.52l-37.15-9.61c-1,3.93-2.05,8.1-3.15,12.48l37.17,9.49Zm275.37.07c1,3.83,2,7.88,3.18,12.31l37.19-9.47c-1.22-4.67-2.28-8.75-3.24-12.41ZM184.23,140.65h15.52l-7.74-13Z"/></g></g></svg>