<svg xmlns="http://www.w3.org/2000/svg" viewBox="0 0 268.9 384"><g id="katman_2" data-name="katman 2"><g id="katman_1-2" data-name="katman 1"><path d="M140.44,384H129.19a21.16,21.16,0,0,0-2.9-.63c-17.55-1.52-35.1-3.07-52.65-4.5-14.76-1.2-21.64-9.49-20.13-24.2,2.93-28.45,5.87-56.9,8.58-85.37.91-9.47,1.13-19,1.67-28.77-.66.36-1,.43-1.06.6-.44.9-.84,1.81-1.24,2.73A162.34,162.34,0,0,0,49.09,290c-1.9,16.23-2.76,32.59-3.89,48.9-.53,7.67-5.45,12.87-13.13,13-6.49.12-13,.14-19.5,0C5.46,351.7.42,346.55.18,339.46c-.12-3.5-.1-7-.14-10.5-.39-41.83,1.85-83.43,11.43-124.33C16.56,182.89,23.64,161.9,36,143c1.13-1.72,2.28-3.43,3.42-5.15-19.21-12-16.1-35.28-2.13-44.07.83-.52,1.27-2.24,1.29-3.42.18-8.94,3.59-16.16,10.79-21.63A8.12,8.12,0,0,0,52,64.65C54.72,55,60.64,48.36,70.42,45.82c3.54-.92,5.22-2.86,6.34-6,1.91-5.28,3.82-10.57,5.95-15.76A37.71,37.71,0,0,1,105.57,2.27c2.56-.93,5.24-1.52,7.87-2.27h42a11.39,11.39,0,0,0,1.74.64c14.41,2.85,24.17,11.28,29.58,24.82,1.94,4.86,3.68,9.81,5.48,14.73a8.14,8.14,0,0,0,6.2,5.62c9.64,2.47,15.49,9,18.38,18.45a9.79,9.79,0,0,0,3,4.67c6.87,5.4,10.38,12.4,10.37,21a5.25,5.25,0,0,0,2.53,4.82,25.43,25.43,0,0,1-.76,41.35c-.79.55-1.57,1.11-2.41,1.71,2.34,3.65,4.71,7,6.74,10.57,14.84,25.87,21.75,54.28,26.4,83.37,5.66,35.4,6.68,71.09,6,106.86-.14,8-5.12,13.13-13.1,13.26-6.12.1-12.24.09-18.37,0-8.13-.11-13.12-5.24-13.55-13.36-.65-12.46-1.09-25-2.35-37.37-2-19.81-6-39.21-14-57.6-.47-1.1-1.08-2.14-1.63-3.2l-1,.32c1.77,22,3.34,44.07,5.37,66.08,1.56,17,3.85,34,5.5,51,1.07,11-6.55,19.9-17.41,20.89-12.32,1.13-24.65,2.05-37,3.15C154.28,382.46,147.36,383.27,140.44,384Zm64.27-243.56c-6,.55-12.51.48-18.72,1.85-27.38,6-45.1,28.91-45.14,58q-.1,83,0,166.07c0,1.32.11,2.65.19,4.3l10.41-.87Q174,367.89,196.62,366c3.33-.29,6.1-1.94,6.1-5.43,0-4.91-.79-9.82-1.26-14.87-5.38,0-10.12,0-14.85,0-12-.12-20-8-20.2-19.92-.11-5.74.11-11.5-.12-17.24a7.18,7.18,0,0,0-1.92-4.39,14.22,14.22,0,0,1-4.43-10.37c0-5.49,0-11,0-16.49,0-9.91,4.84-14.78,14.66-14.8h18.7c-.41-11.2-.9-21.92-1.18-32.64-.51-19.52-.31-39,3.91-58.19C198.31,161.32,201.66,151.28,204.71,140.44ZM127.8,370.63c.1-1.43.21-2.29.21-3.15q0-84.15,0-168.31c0-12.21-3.09-23.53-10.23-33.47C104.51,147.21,86.21,139.49,64.11,141c2.73,9.1,5.89,17.9,8,27,5.85,25.33,5.22,51.09,4.2,76.83-.23,5.8-.53,11.6-.79,17.2.54.26.65.36.76.36,6.62,0,13.24,0,19.86.14a12.57,12.57,0,0,1,12.8,12.84c.1,6.25,0,12.5,0,18.75a13.89,13.89,0,0,1-4.37,10,7.29,7.29,0,0,0-1.92,4.41c-.22,5.61,0,11.24-.11,16.86-.21,12.45-8.14,20.24-20.58,20.32-4.73,0-9.46,0-14.14,0-.26,1.09-.51,1.81-.6,2.55-.38,3-.79,5.94-1,8.92-.55,6.26,1.38,8.43,7.56,8.94,10.33.86,20.65,1.82,31,2.7C112.28,369.41,119.85,370,127.8,370.63Zm77.63-242.57c3.57,0,7.29.08,11,0,7.07-.19,12.23-4.25,13.31-10.35,1.17-6.63-1.9-11.82-8.71-14.73-4.43-1.89-5.65-4.32-4.45-8.86,2-7.67-.26-12.92-7.31-16.29a7.26,7.26,0,0,1-4.6-7c-.26-8.12-5.06-12.78-13.28-13.13a7.21,7.21,0,0,1-6.74-4.44c-3.26-6.7-7-8.91-14.34-8.17a8.87,8.87,0,0,1-7.72-2.76c-4.14-4.07-9.11-5-14.47-2.59a8.84,8.84,0,0,1-8.23,0,11.21,11.21,0,0,0-10.48-.18c-3.2,1.62-6.07,1.38-9.29,0a11.61,11.61,0,0,0-13.5,2.5,9.88,9.88,0,0,1-8.72,3c-6.53-.68-10.81,1.83-13.49,7.79-1.53,3.41-3.87,4.84-7.57,4.89A12.26,12.26,0,0,0,64.3,70c-.15,4.22-1.86,6.56-5.64,8.25a12.13,12.13,0,0,0-6.87,14c1.64,7.68,1.44,8.09-5.59,11.43a12.68,12.68,0,0,0-7.26,12.48c.34,5.15,3.68,10.16,8.62,11.07,5.29,1,10.78.81,16.21,1.14.35-3.31.55-5.79.88-8.26,2.81-21.12,15.08-44.87,44-52.74,14.11-3.83,28.36-4.16,42.72-2,26.42,4,45.12,21,51.37,46.92C204,117.29,204.5,122.51,205.43,128.06Zm-173.19,211c.07-1.15.14-1.87.16-2.6.4-22.78,2.31-45.4,7.59-67.61,4.5-18.94,10.55-37.23,23-52.69a4.59,4.59,0,0,0,1-2.7c-.2-20.45-2.22-40.64-9.38-60-1.09-2.95-2.58-5.75-4.1-9.09-1.63,2.11-2.83,3.54-3.9,5.06C35.76,165,30,182.63,25.74,200.78,15.09,245.8,12.41,291.6,13,337.69a5.12,5.12,0,0,0,.4,1.36Zm186.11-194.6c-1.1,2.25-2,3.88-2.7,5.59-8.42,20.33-10.5,41.74-10.77,63.46a4.53,4.53,0,0,0,1,2.69c11.87,14.61,17.85,31.88,22.34,49.77,5.71,22.77,7.8,46,8.28,69.4,0,1.19.1,2.37.15,3.52H256c0-1.11,0-2,0-2.81a632.53,632.53,0,0,0-6.19-100.87c-3.13-21.51-7.49-42.77-15.56-63.08C230.34,162.36,225.67,153,218.35,144.45ZM135,159c-.21.19,0,.07.12-.12,7.32-15.68,14.72-31.32,21.88-47.07a29.53,29.53,0,0,0,2.86-10.31c.66-13.07-10.2-23.84-24.37-24.67-18.59-1.09-31.93,17.53-24.11,33.88C119.06,126.89,127.06,142.92,135,159ZM93.63,32.91c2.7-1,4.9-1.82,7.08-2.68,3.45-1.37,6.82-3.74,10.34-4,8.94-.56,17.94.41,26.91-.34,1.08-.09,2.2.51,3.31.58a18.87,18.87,0,0,0,5.41,0,26.9,26.9,0,0,1,21.52,3.62c2,1.22,4.34,1.75,7,2.78a24.57,24.57,0,0,0-23.1-20c-11.74-.32-23.49-.3-35.23,0C105.75,13.15,95.82,21.62,93.63,32.91Zm76.23,52.88c6,14.24,2.09,26.9-5.2,39.24-3.06,5.19-5.51,10.73-8.24,16.12a81.62,81.62,0,0,1,35.69-13C190.84,110.53,185.09,95.79,169.86,85.79Zm-70.17-.41C86.49,92.17,76,112.61,77.22,128.23a76.57,76.57,0,0,1,35,13.15c-2.94-6.5-5.85-12.84-9.33-18.85C96.17,110.9,93.62,99,99.69,85.38ZM199.8,332.8c-.85-8.28-1.6-16-2.5-23.62a2.62,2.62,0,0,0-1.74-1.81c-5.31-.15-10.64-.09-16.24-.09,0,7-.18,13.59.08,20.15.13,3.32,2.66,5.13,5.8,5.3C189.89,333,194.61,332.8,199.8,332.8ZM89.53,307.25h-11c-6.61,0-6.69,0-7.46,6.37s-1.34,12.54-2,19.13c5.27,0,10.11.22,14.92-.08,3-.19,5.33-2.09,5.45-5.23C89.7,320.88,89.53,314.3,89.53,307.25Zm6.37-13.07V275.5H74.52c-.53,6.32-1,12.38-1.56,18.68Zm77-18.8v18.81h23.05c-.55-6.4-1.07-12.54-1.61-18.81Z"/></g></g></svg>