<svg xmlns="http://www.w3.org/2000/svg" viewBox="0 0 504.21 512"><g id="katman_2" data-name="katman 2"><g id="katman_1-2" data-name="katman 1"><path d="M274,0c8.74,1,17.55,1.58,26.2,3.09,9,1.57,18.08,3.29,26.67,6.25,25.79,8.88,33.89,23,29.27,49.79,6.21,3.27,12.62,6.38,18.76,10,7.33,4.27,14.34,9.09,21.64,13.42,23.92,14.16,35.65,37.51,46.4,61.54C462.22,187.19,474,232.5,481,279.1c1.67,11,3.06,22.08,4.64,33.55,11.29,1.42,15.59,9,16.42,19.6a73.56,73.56,0,0,0,1.31,7.88c2.55,13.78-.61,19.27-13.7,23.81,0,9.12-.3,18.24.1,27.32.26,5.82-1.85,9.73-6.43,13.1-18,13.21-37.61,16.8-59.16,11.47-5.69-1.41-8.59-4.52-10.08-10.19-11.57-44.09-23.38-88.12-35.12-132.17a9,9,0,0,0-2-4.12c.38,5.8.7,11.61,1.13,17.4q6.8,92.22,13.63,184.42.5,6.72,1,13.46c.45,6.31-1.33,9-7.42,10.42q-15.06,3.52-30.21,6.7c-5.19,1.09-9.2-1.32-10.09-5.67s1.69-8,7-9.17c8.12-1.77,16.27-3.42,25.11-5.28-.51-7.69-1-15.26-1.52-22.84Q371.78,407.2,368,355.62q-4.32-58.81-8.63-117.63c-1.3-17.78-3.22-35.55-3.64-53.35-.66-28.21,12.14-50.6,32.52-69.13,3.92-3.56,8.21-6.72,12.63-10.3C385.51,92,368.38,82,350,73.35c-.93,1.52-1.64,2.78-2.44,4-8.48,12.54-16.42,25.51-25.61,37.51-12.89,16.83-37.29,16.67-50.79.34-3.57-4.31-6.89-8.82-10.94-14v58.28c4.61,0,9.1.36,13.47-.2,1.51-.19,3.13-2.46,4-4.14,5.29-10.15,16.39-16.29,27.22-14.82a26.93,26.93,0,0,1,6.21,52c-12.42,4.59-26.53-.27-32.53-12.1-2.31-4.55-4.87-6-9.51-5.45a80,80,0,0,1-8.8.06v74.3c4.61,0,9.38.21,14.11-.16,1.07-.09,2.28-2,2.93-3.36,5.53-11.18,16.67-17.21,28.75-15.42A26.94,26.94,0,0,1,310.94,282c-12.41,4.48-26.59-.52-32.49-12.34-2.26-4.54-4.78-6-9.44-5.47a77,77,0,0,1-8.77.06v74.62c4.57,0,9.05.3,13.45-.18,1.36-.15,2.91-2.2,3.68-3.73a27,27,0,0,1,28.42-15.09,26.57,26.57,0,0,1,22.34,21.31,26.92,26.92,0,0,1-17.44,30.63c-12.64,4.42-26.81-1-32.62-13.16-1.85-3.87-3.91-5.08-7.85-4.71-3.27.3-6.58.06-10.08.06V497c12.71-.84,25.13-1.54,37.52-2.52,7.47-.59,14.89-1.74,22.35-2.44,5.9-.55,9.46,1.93,9.94,6.54s-2.58,7.91-8.34,8.49c-14.58,1.46-29.18,2.75-43.76,4.15-1.64.15-3.26.52-4.88.79H232c-3-.32-5.93-.76-8.9-.94a575.79,575.79,0,0,1-103.52-15.87c-6.75-1.68-8.14-3.6-7.71-10.59q1.08-17.46,2.38-34.9,5.79-78.51,11.61-157c.54-7.4,1-14.81,1.45-22.22a7.13,7.13,0,0,0-2.19,3.91q-5,18.81-10,37.62-12.59,47.25-25.13,94.53c-1,3.71-2.33,7-6.39,8.21-23.74,7.17-45.48,3.47-64.65-12.48-2.19-1.82-3.72-5.58-3.86-8.52-.42-8.64,0-17.32.16-26,.07-2.61-.24-4.08-3.33-4.94C3.18,360.41-1.2,352.88.28,344c.6-3.61,1.39-7.21,1.79-10.84,1.17-10.58,4.65-19.21,16.74-20.37.4-2.89.79-5.19,1-7.51A596,596,0,0,1,41.64,197.76c1.86-6.1,5.35-8.61,9.9-7.22,4.74,1.44,6.12,5.28,4.7,11.34-5.7,24.29-11.63,48.52-16.7,72.93-2.73,13.14-3.9,26.6-5.82,40.28,8,1.38,15.36,2.67,22.72,3.89,10.33,1.73,15.75,8.62,14.53,19-.7,6-1.86,11.84-3,17.73-1.77,9.6-9.08,14.85-18.82,13.5-6-.84-12.08-1.87-19.2-3,0,7.71-.24,14.83.14,21.93a8.64,8.64,0,0,0,3.11,5.94c11.18,7.67,23.57,10.26,37.06,8.25,3.87-.58,5.63-2,6.64-5.86q27.74-104.68,55.71-209.31a20,20,0,0,0,1-6.36c-2-28.43-17.88-48.08-40.41-63.92a39.35,39.35,0,0,0-2.41,3.74Q79.49,144,68.23,167.35c-.36.75-.61,1.54-.92,2.31-2.56,6.26-6.2,8.43-10.83,6.46s-5.94-6-3.34-11.82q10.24-22.74,21-45.26a79,79,0,0,1,29.49-33.18C117,77.27,130.8,69.18,144.66,61.28c3.1-1.76,3.75-3,3-6.43a41.61,41.61,0,0,1-1.11-13.31c1.65-14.86,11.2-24.16,24.19-29.25C181.48,8.07,193,5.52,204.29,3.12,212.69,1.34,221.4,1,230,0ZM244.45,100.78c-4.06,5.28-7.11,9.41-10.32,13.41-14.2,17.66-38.68,17.68-52.44-.27-7-9.1-13.31-18.72-19.77-28.22-2.68-3.93-4.94-8.14-7.48-12.37-18.38,8.76-35.58,18.61-50.19,31.37,7.87,7.58,16,14.34,22.82,22.2,14.65,16.79,22.67,36.51,21.69,59-.86,19.63-2.76,39.21-4.2,58.81q-4.31,58.56-8.6,117.12-3.3,44.86-6.59,89.71c-.72,9.91-1.37,19.82-2.07,29.94,38.81,8.93,77.53,14.33,117,15.17V354a79.41,79.41,0,0,1-9.3-.07c-4.51-.55-6.86.92-9,5.25-6.15,12.37-21.12,17.35-33.8,12a26.87,26.87,0,1,1,34.65-36.53c.8,1.59,2.18,3.88,3.5,4,4.55.5,9.19.19,13.87.19v-74.6c-3.25,0-6.11.31-8.87-.07-4.77-.66-7.2,1.13-9.45,5.52C219.59,282,204.69,286.89,192,281.44a26.91,26.91,0,0,1-15.1-32.7c3.2-10.3,12.62-18,23-18.76,11.76-.88,21.84,4.84,27,15.16.74,1.46,2,3.63,3.15,3.74,4.71.42,9.48.17,14.2.17v-74.3c-3.89,0-7.38.17-10.85-.05-3.3-.2-5.17.6-6.77,4a26.37,26.37,0,0,1-33.22,13.55C181.81,188,175,177.22,175.89,164.44c.82-11.72,9.84-21.48,22.06-23.86,11.43-2.23,23.23,3.74,28.77,14.4.84,1.62,2.11,4.06,3.4,4.2,4.68.51,9.44.2,14.33.2Zm167.36,16.36c-15.05,7.84-31.07,26.8-37,43.77-3.07,8.85-5.42,17.79-2.86,27.34q15.81,58.8,31.42,117.66c8.11,30.38,16.19,60.76,24.47,91.1.5,1.85,2.3,4.39,3.91,4.74,14.39,3.16,27.77.33,39.95-7.9a5.82,5.82,0,0,0,2.49-3.84c.24-7.8.12-15.61.12-23.77-6.79,1.07-12.68,2.11-18.59,2.93-10.54,1.46-17.78-3.86-19.64-14.38-.9-5.08-1.62-10.19-2.49-15.28-1.94-11.24,3.42-18.7,14.76-20.58,7.18-1.19,14.34-2.48,22.11-3.82C462.42,245.34,447.22,178.3,411.81,117.14ZM238.94,83c-8.71-3.23-16.82-5.47-24.2-9.18A129.36,129.36,0,0,1,194,60.35c-3.53-2.73-3-7.84,0-10.66s7.28-2.62,10.81.3c2.93,2.43,5.79,5.32,9.21,6.71,10.75,4.38,21.66,8.43,32.71,12a20,20,0,0,0,11.1,0C273,64.28,288.52,60.8,300.51,49.3c2.8-2.69,6.58-2.44,9.57.22,3.15,2.81,3.67,6.37,1.19,9.85A17.3,17.3,0,0,1,306,64.63C298.21,69,290.31,73.22,282.19,77c-5.17,2.38-10.79,3.81-16.83,5.88,6.5,8.34,12.23,16.54,18.84,24,6.79,7.63,18.36,7.07,25.22-.61a106.82,106.82,0,0,0,7.31-9.49c9.47-13.29,19-26.57,24.4-42.2,4.14-12,1.3-20.84-10-26.36a106.28,106.28,0,0,0-26.81-8.9c-27.35-5.09-55-4.94-82.67-2.91-14.45,1.06-28.81,3-42.39,8.59-17.11,7-21.53,17.18-14.33,34,7.46,17.45,18.43,32.78,30.27,47.42,6.06,7.5,18,8.06,24.5,1C226.59,99.81,232.46,91.29,238.94,83Zm212.64,271.5,37.78-6.38c-1.25-7.15-2.34-13.46-3.5-20.11l-37.65,6.37C449.36,341.26,450.42,347.57,451.58,354.52ZM15,348.18l37.8,6.32c1.17-7.06,2.24-13.48,3.34-20.13L18.53,328ZM313.43,167a11.74,11.74,0,0,0-11.77-11.7,11.72,11.72,0,0,0,0,23.44A11.77,11.77,0,0,0,313.43,167ZM214.17,256.7A11.56,11.56,0,0,0,202.46,245,11.74,11.74,0,0,0,191,256.46a11.61,11.61,0,1,0,23.21.24Zm-11.4,78.13A11.48,11.48,0,0,0,191,346.34,11.61,11.61,0,0,0,202.65,358a11.6,11.6,0,0,0,.12-23.2Zm11.39-167.89a11.64,11.64,0,0,0-11.8-11.62,11.73,11.73,0,0,0,.22,23.46A11.65,11.65,0,0,0,214.16,166.94Zm99.29,89.65A11.73,11.73,0,0,0,301.56,245a11.93,11.93,0,0,0-11.48,11.54,11.69,11.69,0,1,0,23.37,0ZM301.85,358a11.64,11.64,0,0,0,11.6-11.81,11.69,11.69,0,0,0-23.37.12A11.77,11.77,0,0,0,301.85,358Z"/><path d="M460.16,350.22a7.21,7.21,0,0,1-7.49-7.52,7.44,7.44,0,0,1,7.71-7.4,7.71,7.71,0,0,1,7.36,7.36A7.54,7.54,0,0,1,460.16,350.22Z"/><path d="M51.86,342.73a7.6,7.6,0,0,1-7.65,7.54,7.27,7.27,0,0,1-7.38-7.18,7.52,7.52,0,0,1,7.27-7.89A7.79,7.79,0,0,1,51.86,342.73Z"/></g></g></svg>