<svg xmlns="http://www.w3.org/2000/svg" viewBox="0 0 257.11 384"><g id="katman_2" data-name="katman 2"><g id="katman_1-2" data-name="katman 1"><path d="M137.59,0c6.47,1.24,13,2.1,19.41,3.79,16.05,4.26,30.21,11.9,40.83,25,14.67,18.1,15.56,40.42,2.64,59.79-.41.62-.79,1.26-1.46,2.32,6.08,1.25,11.93,2.27,17.68,3.69a57.46,57.46,0,0,1,12,4c5.12,2.57,8.05,7.25,10,12.61a7.25,7.25,0,0,0,3,3.72c10,5.28,15.35,13.38,15.36,24.69q.07,92.06.05,184.11a12.08,12.08,0,0,1-4.41,9.87,5.71,5.71,0,0,0-1.43,3.86c-.29,10.65-3.75,14.13-14.31,14.13-1.75,0-3.51.07-5.25,0-5.34-.24-10.46-.84-12.89,6.05-.82,2.34-4.27,4.13-6.9,5.33-2.36,1.09-3.27,2.27-2.94,4.72.14,1,0,2,0,3,.56,6.59-2.19,11.07-8.42,13.36h-144c-6.43-2.36-9.14-7.05-8.38-13.73.45-4-.43-6.36-4.6-8.25-3.09-1.41-5.5-4.9-7.49-7.93-1.21-1.85-2.17-2.62-4.28-2.56-4.63.12-9.25.09-13.88,0C10.34,351.42,6.11,347.3,6,339.67c0-3.1-.3-5.61-3.06-7.81C1.46,330.64.86,328,.27,325.93a18.59,18.59,0,0,1-.18-4.85C.08,261.72.19,202.35,0,143c0-13,4.32-22.82,16.52-28.46a4.47,4.47,0,0,0,1.8-2.56c2.91-9.19,9.11-14.65,18.49-16.61,6.94-1.44,13.88-2.9,21.22-4.44-.53-.94-.89-1.66-1.34-2.32C43.08,68.18,45,43.93,61.78,26,75,11.84,91.73,4.76,110.4,1.5c3.06-.53,6.12-1,9.19-1.5ZM124.65,356.39V115.91a14.59,14.59,0,0,1,0-1.87c.3-2.33-.87-2.81-3-3.1-5.42-.75-10.77-2-16.19-2.8a9.8,9.8,0,0,0-5.48.65c-7,3.48-14,3.73-20.75-.27C75,106,71.13,102.72,67,100c-1.42-.91-3.41-1.78-4.94-1.51q-12.34,2.17-24.57,5c-9.4,2.15-14,10.63-10.95,19.84,1.63,5,3.49,9.89,4.94,14.92,6.82,23.71,11.39,47.65,11.06,72.59-.59,44.6-.17,89.2-.17,133.81,0,8.44,3.3,11.72,11.82,11.72h70.51Zm7.88,0h70.05c9.2,0,12.26-3.1,12.26-12.41q0-73.65,0-147.3A102.61,102.61,0,0,1,216,182.13a296.69,296.69,0,0,1,14.54-58.36c3.44-9.53-1.3-18.1-11.11-20.32q-12-2.74-24.21-4.88a7.8,7.8,0,0,0-5,1.41c-4,2.55-7.64,5.62-11.65,8.12-7.2,4.47-14.58,4.4-22,.34a6.8,6.8,0,0,0-4.1-.5c-5.28.89-10.49,2.4-15.79,2.87-3.44.31-4.27,1.33-4.26,4.65q.14,118.24.07,236.5ZM126.78,8C123.9,8.21,119,8.35,114.2,9,96.59,11.56,80.58,17.7,68.06,30.9,58.41,41.08,53.81,53.18,56.39,67.27c3.07,16.74,14,27.46,28.42,35a12.52,12.52,0,0,0,7.61.72,11.78,11.78,0,0,0,9.84-10c1-5.54-1-10-5.59-13.34-3.91-2.85-8-5.63-11.21-9.2-5.57-6.3-5.61-13.77-.06-20.07a40.84,40.84,0,0,1,11.29-9c15.45-8.15,31.89-9.39,48.79-5.62,8.77,2,16.93,5.3,23.62,11.52,8.75,8.13,8.86,17.84.16,26a74,74,0,0,1-8.74,6.41c-5.94,4.14-7.68,11.49-4.07,17.49s11.29,8.4,17.24,4.47a102,102,0,0,0,17.08-13.81,37.85,37.85,0,0,0,10.58-25c.8-15.85-6.33-28-18.3-37.51C167.21,12.69,148.62,8.29,126.78,8Zm96.14,319.63h19.89c6.14,0,6.39-.24,6.39-6.26q0-89.58,0-179.15a32.38,32.38,0,0,0-.67-7.43,16.93,16.93,0,0,0-8.8-11.7c-.33.23-.48.28-.51.37-.81,2.22-1.62,4.44-2.4,6.68-8.83,25.4-14.16,51.37-13.95,78.45.3,38,.08,75.95.08,113.93Zm-188.72,0v-4.75c0-37.35-.15-74.71,0-112.06a216.09,216.09,0,0,0-3.16-40.24,260.16,260.16,0,0,0-13.24-47.35,3.51,3.51,0,0,0-.87.1,4.66,4.66,0,0,0-1,.55c-6,4.37-8.06,10.45-8,17.62Q8,231.6,8,321.73c0,1-.31,2.2.14,2.95.68,1.13,1.87,2.75,2.88,2.78C18.58,327.69,26.17,327.59,34.2,327.59Zm114.61-227c-4.56-14.29-2-21.33,10.34-29.49a31,31,0,0,0,6.16-5.39c3.26-3.73,3.53-7.24-.05-10.64a42.59,42.59,0,0,0-12.11-8.44c-14.93-6.38-30.33-6.37-45.71-1.47C101.58,47,96.13,49.85,92,54.66c-3.4,4-3.55,7.57.09,11.32a53.07,53.07,0,0,0,8.8,6.87,20.79,20.79,0,0,1,8.46,24.56c-.34,1-.63,2-1,3.17A74.57,74.57,0,0,0,148.81,100.58ZM56.06,364.65v4.5c0,6.79,0,6.79,6.93,6.79H194.52c1.12,0,2.44.34,3.33-.12,1.24-.63,2.88-1.76,3.08-2.9.46-2.63.15-5.39.15-8.27ZM34,343.48v-7.67H14.26c-.78,5.76-.2,7.52,2.82,7.62C22.64,343.61,28.2,343.48,34,343.48Zm189.12-7.65v7.65c5.77,0,11.34.19,16.89-.15,1.13-.07,2.5-1.91,3.12-3.23.52-1.12.1-2.66.1-4.27Z"/><path d="M83.46,268.41c6.87,0,13.74,0,20.61,0,2.41,0,4.65.21,5.38,2.92.67,2.47-.66,3.86-2.85,5-.73.37-1.16,2-1.18,3.06-.09,8.37,0,16.74-.06,25.11,0,9.15-5.86,15-15,15-4.74,0-9.49.05-14.24,0-8.53-.1-14.39-5.7-14.57-14.26s0-17-.15-25.48c0-1.28-1.21-2.54-1.83-3.82-.75-1.55-2.31-3.36-2-4.61s2.61-2.72,4.09-2.78C69,268.26,76.22,268.41,83.46,268.41Zm-14,8.14c0,9.82-.09,19.17,0,28.52.07,4.15,2.46,6.26,6.75,6.34,4.61.09,9.23.07,13.85,0,5.14-.06,7.2-2.1,7.24-7.31.07-8.36,0-16.72,0-25.08a14.86,14.86,0,0,0-.4-2.48Z"/><path d="M105.37,165.11c0,9.12,0,18.24,0,27.36s-5.78,15-14.93,15.17c-4.74.09-9.49.1-14.24,0-8.75-.21-14.48-5.91-14.63-14.68-.14-8.37,0-16.75,0-25.12,0-1.75.1-3.22-2.14-4.15-1.07-.45-2-2.93-1.77-4.28.19-1.11,2.09-2,3.38-2.83.55-.34,1.46-.14,2.21-.14h40.49c2.62,0,5.58.15,5.71,3.33.07,1.8-1.82,3.67-2.83,5.52Zm-35.89-.56c0,9.92-.12,19.52.06,29.11.07,3.66,2.65,5.79,6.48,5.86q7.31.15,14.62,0c4.41-.08,6.59-2.26,6.68-6.78.11-5.75,0-11.5,0-17.25,0-3.58,0-7.17,0-10.95Z"/><path d="M173.72,268.41c6.86,0,13.73,0,20.6,0,2.38,0,4.69.15,5.4,2.89.62,2.4-.54,3.92-2.81,5-.74.35-1.19,2-1.2,3.1-.1,8.12,0,16.23-.07,24.35-.06,10.23-5.59,15.73-15.76,15.76-4.62,0-9.25.07-13.87,0a14,14,0,0,1-14.18-14.3c-.09-8.49,0-17-.11-25.47,0-1.27-1.2-2.52-1.82-3.78-.75-1.54-2.34-3.34-2-4.57s2.6-2.76,4.07-2.82C159.22,268.26,166.47,268.41,173.72,268.41Zm-13.81,8.13c0,10-.11,19.74.07,29.44.06,3.3,2.3,5.27,5.61,5.37,5.36.15,10.73.11,16.1,0,3.36-.05,5.73-2,5.82-5.2.28-9.81.11-19.62.11-29.64Z"/><path d="M173.82,156.42h20.25c2.29,0,4.73,0,5.57,2.69s-.42,4.17-2.84,5.31c-.72.34-1.08,2.05-1.1,3.14-.09,8.12,0,16.24-.06,24.36-.07,10.12-5.71,15.67-15.88,15.73-4.5,0-9,.11-13.5,0-8.69-.26-14.39-6.16-14.44-14.88-.06-8.49,0-17-.09-25.49,0-1-1-2.09-1.57-3.11-.84-1.51-2.7-3.36-2.32-4.4a5.81,5.81,0,0,1,4.24-3.15c7.24-.32,14.49-.14,21.74-.14Zm-13.9,8.12c0,10.05-.11,19.78.06,29.5.06,3.33,2.33,5.31,5.6,5.42,5.37.2,10.75.15,16.12,0,3.34-.07,5.73-2.1,5.82-5.26.28-9.82.1-19.66.1-29.69Z"/></g></g></svg>