<?xml version="1.0" encoding="utf-8"?>
<!-- Generator: Adobe Illustrator 26.0.0, SVG Export Plug-In . SVG Version: 6.00 Build 0)  -->
<svg version="1.1" id="katman_1" xmlns="http://www.w3.org/2000/svg" xmlns:xlink="http://www.w3.org/1999/xlink" x="0px" y="0px"
	 viewBox="0 0 40 57" style="enable-background:new 0 0 40 57;" xml:space="preserve">
<g id="Layer_7">
	<path d="M40,35.4c-1.1-11-2.6-17.5-4.7-20.4c-0.4-0.7-1.1-1.2-1.8-1.5c-1.2-0.7-2.4-1.2-3.7-1.7c0-2.3-0.3-4.5-0.9-6.7
		c-0.1-0.3-0.2-0.6-0.3-0.9l0,0c-1.5-3-4.4-4.5-8.6-4.3c-4.2-0.2-7.1,1.2-8.6,4.3l0,0c-0.1,0.3-0.3,0.6-0.3,0.9
		c-0.6,2.2-0.9,4.4-0.9,6.7c-1.3,0.5-2.5,1-3.7,1.7c-0.7,0.3-1.3,0.8-1.7,1.4c-0.1,0.1-0.1,0.1-0.2,0.2c-2,3-3.5,9.6-4.6,20.2
		c-0.1,1,1.2,3,7.6,9.4c0.2,3.2,0.2,6.5,0.1,9.7c0,0,0,0.1,0,0.1c0,0,0,0.1,0,0.1l0,0c0,0.1,0.1,0.2,0.3,0.3c2.6,1.2,6.7,1.9,12,2.1
		l0,0c5.3-0.2,9.4-0.9,12-2.1l0,0c0.2-0.1,0.3-0.3,0.3-0.5l0,0c-0.1-3.2-0.1-6.5,0.1-9.7C38.8,38.4,40.1,36.4,40,35.4z M27.4,42.8
		l0.1-0.1c0.5-0.5,1-0.2,1.9,0.4c1.2,1.2,1,2,0.5,2.6c-0.5,0.4-1.3,0.8-2.5-0.3C27.2,45,27,44.6,27,44.2
		C27,43.7,27.2,43.2,27.4,42.8z M31.3,44.4c-0.2-0.9-0.7-1.7-1.5-2.2c-0.4-0.3-0.9-0.5-1.4-0.7c0.6-0.8,1-1.3,1.2-1.6
		c0.4-0.5,0.8-1,1.1-1.6c0,0,0.1-0.1,0.1-0.1c0.4-0.7,0.7-1.4,1-2.1c1-1.3,2.8-1.4,5.6-0.3c0.3,0.1,0.5,0,0.6-0.3
		c0.1-0.3,0-0.5-0.3-0.6c-2.4-0.9-4.2-1.1-5.5-0.4c0.4-1.9,0.6-3.8,0.5-5.8c-0.3-4.2,0.4-8.4,2.1-12.2c1.4,2.5,2.9,8,4,19.1
		C39,36,37.7,38,31.3,44.4z M19.5,8v6.4h-3.4V8H19.5z M20.5,14.4c0-3.1,0-5.4,0-6.4h3.3v6.4H20.5z M20,7h-4.3
		c-0.5-0.1-0.9-0.4-1.2-0.8l0,0c0.3-0.2,1.4-0.5,5.5-0.4l0,0c4.1-0.1,5.2,0.2,5.5,0.4C25.2,6.7,24.7,7,24.2,7L20,7z M11.4,12.5
		c1-0.3,2-0.6,3.1-0.8c0.3,0,0.5-0.3,0.4-0.6c0-0.3-0.3-0.5-0.6-0.4c-1,0.2-2.1,0.4-3.1,0.8c0-1.3,0.2-2.7,0.4-4
		c0.9,1.2,2.2,2.2,3.6,2.8v4.1C13.2,14.3,12,13.7,11.4,12.5z M19.9,3.9L19.9,3.9c2.6-0.4,4.7,0.1,6.2,1.6C25.6,5,24.2,4.7,20,4.8
		c-4.2-0.1-5.6,0.2-6.1,0.6C15.5,4,17.8,3.4,19.9,3.9z M24.8,7.9c0.6-0.2,1.1-0.6,1.5-1.1c0.3-0.3,0.3-0.8,0.1-1.1
		c0.4,0.4,0.7,0.9,1,1.4c-0.7,0.8-1.6,1.5-2.6,2L24.8,7.9z M13.7,6.8c0.3,0.5,0.9,0.9,1.5,1.1v1.2c-1-0.5-1.9-1.2-2.6-2
		c0.3-0.5,0.6-1,1-1.4C13.4,6,13.4,6.5,13.7,6.8z M24.8,10.3c1.4-0.6,2.6-1.5,3.6-2.8c0.2,1.3,0.3,2.7,0.4,4c-1-0.3-2-0.6-3.1-0.8
		c-0.3,0-0.5,0.1-0.6,0.4s0.1,0.5,0.4,0.6c1,0.2,2.1,0.4,3.1,0.8c-0.6,1.2-1.8,1.8-3.8,1.9L24.8,10.3z M20,1L20,1
		c3.9-0.2,6.4,1,7.7,3.7c0.1,0.2,0.2,0.5,0.2,0.7c0,0.2,0,0.4,0,0.6c-1.8-2.6-4.5-3.6-7.9-3.1c-3.5-0.5-6.1,0.6-7.9,3.1
		c0-0.2,0-0.4,0-0.6c0-0.2,0.2-0.4,0.2-0.7l0,0C13.6,2,16.1,0.8,20,1z M1,35.5C2.1,24.5,3.6,19,5,16.5c1.7,3.8,2.4,8.1,2.1,12.3
		c-0.1,1.9,0.1,3.9,0.5,5.8c-1.3-0.6-3.2-0.5-5.5,0.4c-0.3,0.1-0.4,0.4-0.3,0.6c0.1,0.3,0.4,0.4,0.6,0.3c2.8-1.1,4.7-1,5.7,0.3
		c0.3,0.7,0.6,1.4,1,2.1c0,0,0,0.1,0.1,0.1c0.7,1.1,1.5,2.1,2.4,3.1c-0.5,0.1-1,0.3-1.4,0.6c-0.8,0.5-1.3,1.3-1.5,2.2
		C2.3,38,1,36,1,35.5z M10,45.7c-0.4-0.6-0.7-1.5,0.5-2.6c0.9-0.6,1.4-0.8,1.9-0.4l0.1,0.1c0.2,0.4,0.4,0.8,0.5,1.3
		c0,0.4-0.2,0.8-0.4,1.1C11.3,46.4,10.5,46.1,10,45.7L10,45.7z M9.3,46.4L9.3,46.4L9.3,46.4c1.2,1,2.6,0.8,4-0.5
		c0.4-0.5,0.7-1.2,0.7-1.8c-0.1-0.6-0.2-1.2-0.5-1.8l0,0c-1.2-1.6-2-2.6-2.4-3l0,0c-0.4-0.5-0.7-1-1-1.5c-0.7-2,0-4.2,1.7-5.4
		c0.2-0.2,0.2-0.5,0-0.7c-0.2-0.2-0.4-0.2-0.6-0.1c-1.2,0.9-2,2.1-2.3,3.5c-0.6-2.1-0.9-4.3-0.8-6.5l0,0c0.3-4.6-0.5-9.2-2.5-13.3
		C6,15,6.4,14.7,6.9,14.5c1.2-0.6,2.4-1.2,3.6-1.6c1.2,3.1,6,2.6,9.1,2.6v9.2c-4.3,0.6-7.8,0-10.6-1.7c-0.2-0.1-0.5-0.1-0.7,0.2
		c0,0,0,0,0,0c-0.1,0.2-0.1,0.5,0.1,0.7c0,0,0,0,0,0c1.3,0.8,2.7,1.3,4.1,1.6c-0.5,1.5-1.5,2.8-2.7,3.8c-0.2,0.2-0.2,0.5-0.1,0.7
		c0.1,0.1,0.2,0.2,0.4,0.2c1.7-1,2.9-2.6,3.4-4.5l1.1,0.1c-0.1,0.1-0.2,0.2-0.2,0.4c0.1,4.1-1.2,8.2-3.5,11.6
		c-0.2,0.2-0.1,0.5,0.1,0.7c0.1,0.1,0.2,0.1,0.3,0.1c0.2,0,0.3-0.1,0.4-0.2c2.6-3.6,3.9-8,3.6-12.5c1.4,0.1,2.8,0,4.2-0.2v28.2
		c-3.6-0.3-7.1-0.2-10.7,0.1c0.1-2.6,0.1-5.3,0-8.1L9.3,46.4z M20,56c-3.2,0-6.5-0.4-9.6-1.3c3.2-0.2,6.4-0.2,9.6,0.1
		c3.2-0.2,6.5-0.3,9.7-0.1C26.5,55.6,23.2,56,20,56z M31.3,53.9c-3.6-0.3-7.2-0.4-10.8-0.1c0-2.8,0-16.4,0-28.2
		c1.4,0.2,2.8,0.3,4.2,0.2c-0.3,4.5,1,8.9,3.6,12.5c0.1,0.1,0.2,0.2,0.4,0.2c0.3,0,0.5-0.2,0.5-0.5c0-0.1,0-0.2-0.1-0.3
		c-2.4-3.4-3.6-7.4-3.5-11.6c0-0.2-0.1-0.3-0.2-0.4l1.1-0.1c0.5,1.9,1.8,3.5,3.4,4.5c0.3,0,0.5-0.2,0.5-0.5c0-0.2-0.1-0.3-0.2-0.4
		c-1.3-0.9-2.2-2.3-2.7-3.8c1.5-0.3,2.9-0.9,4.2-1.6c0.2-0.1,0.3-0.4,0.2-0.7c0,0,0,0,0,0c-0.1-0.2-0.5-0.3-0.7-0.2c0,0,0,0,0,0
		c-2.7,1.7-6.3,2.2-10.6,1.7c0-3.4,0-6.5,0-9.2c3.1,0,7.8,0.5,9-2.6c1.2,0.5,2.5,1,3.6,1.6c0.5,0.2,0.9,0.5,1.2,0.9
		c-1.9,4.2-2.8,8.8-2.5,13.3c0.1,2.2-0.1,4.4-0.8,6.5c-0.3-1.4-1.1-2.7-2.3-3.5c-0.5-0.4-1.1,0.4-0.6,0.8c1.7,1.2,2.5,3.3,1.8,5.3
		c-0.3,0.5-0.6,1-1,1.5l0,0c-0.4,0.4-1.2,1.5-2.4,3l0,0c-0.3,0.5-0.6,1.1-0.6,1.8c0,0.7,0.3,1.4,0.8,1.9c1,1.2,2.8,1.4,4,0.4
		c0.2-0.2,0.4-0.4,0.6-0.6C31.2,48.6,31.2,51.3,31.3,53.9z"/>
</g>
</svg>
