<?xml version="1.0" encoding="utf-8"?>
<!-- Generator: Adobe Illustrator 26.0.0, SVG Export Plug-In . SVG Version: 6.00 Build 0)  -->
<svg version="1.1" id="katman_1" xmlns="http://www.w3.org/2000/svg" xmlns:xlink="http://www.w3.org/1999/xlink" x="0px" y="0px"
	 viewBox="0 0 560 560" style="enable-background:new 0 0 560 560;" xml:space="preserve">
<g>
	<path d="M315,245h-17.5c0-30.9,27.6-49.4,82.6-86c20.6-13.6,40.4-28.3,59.4-44.1c9.9-8.3,15.5-20.5,15.5-33.4V70
		c0-51.9-33.6-52.5-35-52.5H140V0h280c0.5,0,52.5,0.8,52.5,70v11.5c0,18.1-7.9,35.2-21.8,46.8c-19.5,16.1-39.8,31.2-60.9,45.2
		C340,206.8,315,223.4,315,245L315,245z"/>
	<path d="M262.5,245H245c0-21.6-25-38.2-74.9-71.5c-21.1-14-41.4-29.1-60.9-45.2c-13.8-11.6-21.8-28.8-21.8-46.8V70
		c0-69.2,52-70,52.5-70l0.1,17.5c-3.5,0.1-35,2.1-35,52.5v11.5c0,12.9,5.6,25.1,15.5,33.4c19,15.7,38.8,30.5,59.4,44.1
		C234.9,195.6,262.5,214.1,262.5,245L262.5,245z"/>
	<path d="M533.8,525h-70c-7,0-13.6-2.8-18.6-7.7s-7.7-11.6-7.7-18.6V455H455v43.8c0,2.3,0.9,4.5,2.6,6.2s3.9,2.6,6.2,2.6h70
		c2.3,0,4.5-0.9,6.2-2.6s2.6-3.9,2.6-6.2V177.2c0-31.4-15.3-60.8-41.1-78.9l-42.7-29.9l10-14.3L511.5,84
		c30.4,21.3,48.5,56.1,48.5,93.2v321.6c0,7-2.8,13.6-7.7,18.6S540.7,525,533.8,525L533.8,525z"/>
	<path d="M455,297.5h-17.5v-5.6c0.4-10.6,4-20.9,10.4-29.4c15.7-19.1,15.9-52.2,15.9-52.5h17.5c0,1.6-0.2,39.8-19.9,63.7
		c-3.8,5.4-6,11.7-6.4,18.2V297.5z"/>
	<path d="M341.3,531.9c-11.6,0-22.8-4.6-31-12.8s-12.8-19.3-12.9-30.9v-217H315v216.9c0,7.5,3.2,14.6,8.8,19.5
		c5.6,5,13,7.4,20.4,6.6c27-2.5,53.4-9.4,78.2-20.5c4.5-2.1,8.4-5.5,11.1-9.7s4.1-9.1,4.1-14.1V315H455v155c0,8.3-2.4,16.4-6.9,23.5
		c-4.5,7-10.8,12.6-18.3,16.2c-26.5,11.8-54.8,19.3-83.8,22C344.4,531.8,342.9,531.9,341.3,531.9L341.3,531.9z"/>
	<path d="M315,253.8h-17.5v-47.5c0-10.9,2.9-21.5,8.4-30.9c2.2-3.8,4.6-8.4,7.3-13.4c18.2-34.4,48.6-92,106.9-92v17.5
		c-47.7,0-74,49.7-91.4,82.6c-2.8,5.2-5.2,9.9-7.6,13.9l0,0c-3.9,6.7-6,14.4-6,22.2L315,253.8z"/>
	<path d="M533.8,560h-70c-4.6,0-9.1-1.8-12.4-5.1s-5.1-7.7-5.1-12.4v-26.2h17.5v26.2h70v-26.2h17.5v26.2c0,4.6-1.8,9.1-5.1,12.4
		S538.4,560,533.8,560z"/>
	<path d="M420,560h-96.2c-4.6,0-9.1-1.8-12.4-5.1s-5.1-7.7-5.1-12.4v-35h17.5v35H420v-43.8h17.5v43.8c0,4.6-1.8,9.1-5.1,12.4
		S424.6,560,420,560z"/>
	<path d="M434.9,259.9l-12.4-12.4c32-32,32.4-115.4,32.4-116.3h17.5C472.5,135,472.1,222.8,434.9,259.9L434.9,259.9z"/>
	<path d="M367.5,350h-26.2c-4.8,0-8.8-3.9-8.8-8.8V192.5H350v140h8.8V175h17.5v166.2c0,2.3-0.9,4.5-2.6,6.2S369.8,350,367.5,350z"/>
	<path d="M96.2,525h-70c-7,0-13.6-2.8-18.6-7.7S0,505.7,0,498.8V245h17.5v253.8c0,2.3,0.9,4.5,2.6,6.2s3.9,2.6,6.2,2.6h70
		c2.3,0,4.5-0.9,6.2-2.6s2.6-3.9,2.6-6.2V455h17.5v43.8c0,7-2.8,13.6-7.7,18.6S103.2,525,96.2,525L96.2,525z"/>
	<path d="M0,210h17.5v17.5H0V210z"/>
	<path d="M17.5,192.5H0v-15.3c0-37.1,18.1-71.9,48.5-93.2l42.7-29.9l10,14.3L58.5,98.3c-25.7,18-41,47.4-41.1,78.9L17.5,192.5z"/>
	<path d="M122.5,437.5H105V291.9c-0.4-6.5-2.6-12.8-6.4-18.2c-19.7-23.9-19.9-62-19.9-63.7h17.5c0,0.3,0.3,33.5,15.9,52.5
		c6.4,8.5,10,18.7,10.3,29.3L122.5,437.5z"/>
	<path d="M218.7,531.9c-1.6,0-3.1-0.1-4.7-0.2c-29-2.7-57.3-10.1-83.8-22.1c-7.5-3.6-13.9-9.2-18.3-16.2c-4.5-7-6.9-15.1-6.9-23.5
		v-15h17.5v15c0,5,1.4,9.9,4.1,14.1c2.7,4.2,6.5,7.6,11.1,9.7c24.8,11.1,51.2,18,78.2,20.5c7.4,0.8,14.8-1.6,20.4-6.6
		c5.6-4.9,8.8-12.1,8.8-19.5V206.3c0-7.8-2.1-15.4-6-22.2c-2.3-4-4.8-8.8-7.6-13.9c-17.5-33-43.8-82.7-91.5-82.7V70
		c58.3,0,88.7,57.6,106.9,92c2.6,5,5,9.6,7.3,13.4c5.4,9.4,8.3,20,8.4,30.9v281.9c0,11.6-4.6,22.7-12.9,30.9
		C241.4,527.3,230.3,531.9,218.7,531.9L218.7,531.9z"/>
	<path d="M96.2,560h-70c-4.6,0-9.1-1.8-12.4-5.1s-5.1-7.7-5.1-12.4v-26.2h17.5v26.2h70v-26.2h17.5v26.2c0,4.6-1.8,9.1-5.1,12.4
		S100.9,560,96.2,560z"/>
	<path d="M236.2,560H140c-4.6,0-9.1-1.8-12.4-5.1s-5.1-7.7-5.1-12.4v-43.8H140v43.8h96.2v-35h17.5v35c0,4.6-1.8,9.1-5.1,12.4
		S240.9,560,236.2,560z"/>
	<path d="M125.1,259.9c-37.1-37.1-37.6-125-37.6-128.7H105c0,0.9,0.4,84.3,32.4,116.3L125.1,259.9z"/>
	<path d="M218.8,350h-26.2c-4.8,0-8.8-3.9-8.8-8.8V175h17.5v157.5h8.8v-140h17.5v148.8c0,2.3-0.9,4.5-2.6,6.2S221.1,350,218.8,350z"
		/>
	<path d="M245,533.8h70v17.5h-70V533.8z"/>
	<path d="M183.8,87.5h-17.5c0-34.3,46.1-61.2,105-61.2h17.5c19.1-0.2,38.1,3,56.2,9.3L339,52c-16.2-5.6-33.2-8.4-50.3-8.2h-17.5
		C223.8,43.7,183.8,63.8,183.8,87.5L183.8,87.5z"/>
	<path d="M393.8,87.5h-17.5c0-9.8-7.2-19.6-20.3-27.5l9.1-14.9C383.6,56.3,393.7,71.4,393.8,87.5L393.8,87.5z"/>
</g>
</svg>
