<?xml version="1.0" encoding="utf-8"?>
<!-- Generator: Adobe Illustrator 26.0.0, SVG Export Plug-In . SVG Version: 6.00 Build 0)  -->
<svg version="1.1" id="katman_1" xmlns="http://www.w3.org/2000/svg" xmlns:xlink="http://www.w3.org/1999/xlink" x="0px" y="0px"
	 viewBox="0 0 420.2 507.8" style="enable-background:new 0 0 420.2 507.8;" xml:space="preserve">
<g>
	<path d="M347.1,128.8l-31.2-10.1c5.7-12.5,8.7-26.1,8.8-39.9c0-36-19.9-78.8-114.6-78.8S95.4,42.8,95.4,78.8
		c0.1,13.8,3,27.4,8.8,39.9L73,128.8c-21.2,6.7-39.7,20-52.9,38C7,184.8-0.1,206.5,0,228.7v226.4c0,2.3,0.9,4.5,2.6,6.2
		s3.9,2.6,6.2,2.6v17.5c0,2.3,0.9,4.5,2.6,6.2s3.9,2.6,6.2,2.6H67v8.8c0,2.3,0.9,4.5,2.6,6.2c1.6,1.6,3.9,2.6,6.2,2.6h268.5
		c2.3,0,4.5-0.9,6.2-2.6c1.6-1.6,2.6-3.9,2.6-6.2v-8.8h49.5c2.3,0,4.5-0.9,6.2-2.6s2.6-3.9,2.6-6.2v-17.6c2.3,0,4.5-0.9,6.2-2.6
		s2.6-3.9,2.6-6.2V228.7c0.1-22.2-7-43.9-20.1-61.9C386.8,148.8,368.3,135.5,347.1,128.8L347.1,128.8z M210,17.6
		c64.5,0,97.1,20.6,97.1,61.2c0,18.4-6.3,36.3-17.9,50.6c-1,1.3-2.2,2.4-3.2,3.7c-1,1.3-1.9,2.2-2.9,3.1c3-7.6,4.5-15.6,4.6-23.7
		c0.8-9.4-2.4-18.7-8.8-25.6c-10.7-10.1-27.6-8.8-47.2-8l0,0c-14.2,0.8-28.5,0.8-42.7,0c-19.6-1.1-36.5-2.1-47.2,8l0,0
		c-6.4,6.9-9.5,16.2-8.8,25.6c0.1,8.2,1.6,16.3,4.6,24c-5-5.1-9.4-10.8-13-16.9c-7.5-12.3-11.6-26.4-11.8-40.8
		C112.9,38.1,145.5,17.6,210,17.6L210,17.6z M218.8,165.6h-1.3h-5.1h-2c-2.4,0.1-4.7,0.1-7.1,0c-30.1-2.9-53.6-25.7-53.6-53.5l0,0
		c-0.6-4.6,0.8-9.3,3.7-12.9c5.3-3.2,11.4-4.5,17.5-3.8c5,0,10.5,0,16.2,0.6l0,0c14.9,0.8,29.9,0.8,44.8,0s28.9-1.7,34,3.2l0,0
		c2.9,3.7,4.2,8.3,3.7,12.9c-0.6,13.5-6,26.4-15.4,36.2C244.8,158.1,232.2,164.3,218.8,165.6L218.8,165.6z M61.2,472.6h-35v-8.8h35
		V472.6z M335.5,490h-251V227.6c0-4.8-3.9-8.8-8.8-8.8c-4.8,0-8.8,3.9-8.8,8.8v218.8H17.4V228.7c0-18.6,6-36.7,17-51.7
		s26.5-26.1,44.2-31.6l34.4-11l0.5,0.7l0,0c0.6,0.9,1.3,1.8,2,2.7c1.1,1.4,2,2.7,3.1,4c0.7,0.9,1.5,1.8,2.3,2.7
		c1.1,1.2,2.2,2.4,3.4,3.7l0,0c0.8,0.9,1.6,1.7,2.5,2.5c1.2,1.2,2.4,2.3,3.7,3.4l2.7,2.4c1.3,1.1,2.6,2.1,4,3.1l2.9,2.2l4.4,2.9
		l2.9,1.8c1.7,1.1,3.4,1.9,5.1,2.9l2.6,1.4l2.6,1.2v116.7c0,4.8,3.9,8.8,8.8,8.8s8.8-3.9,8.8-8.8V178.8l3.9,1l4,1
		c2.6,0.6,5.2,1.1,8,1.5h1.7c3.1,0,6.3,0.7,9.5,1c3.2,0.3,5.2,0,8,0h6.1h3l0,0c8.9-0.7,17.7-2.2,26.2-4.6v75.1
		c0,4.8,3.9,8.8,8.8,8.8c4.8,0,8.8-3.9,8.8-8.8V175c0-1-0.2-1.9-0.5-2.8c3.1-1.4,5.9-3,8.8-4.6l3.6-2.1c2.4-1.6,4.9-3.2,7.3-5
		l4.4-3.3c2-1.7,3.9-3.3,5.8-5.2c1.9-1.8,3.1-2.9,4.6-4.5s3.1-3.4,4.6-5.2c1.5-1.8,2.9-3.5,4.2-5.3c1.3-1.8,1.4-1.8,2-2.6l34.5,11
		l0,0c17.5,5.8,32.8,16.9,43.6,31.9s16.6,32.9,16.5,51.4v217.6H353V227.6c0-4.8-3.9-8.8-8.8-8.8c-4.8,0-8.8,3.9-8.8,8.8L335.5,490z
		 M393.8,472.6h-35v-8.8h35V472.6z"/>
</g>
</svg>
