<?xml version="1.0" encoding="utf-8"?>
<!-- Generator: Adobe Illustrator 26.0.0, SVG Export Plug-In . SVG Version: 6.00 Build 0)  -->
<svg version="1.1" id="katman_1" xmlns="http://www.w3.org/2000/svg" xmlns:xlink="http://www.w3.org/1999/xlink" x="0px" y="0px"
	 viewBox="0 0 507.5 429.1" style="enable-background:new 0 0 507.5 429.1;" xml:space="preserve">
<g>
	<path d="M507,304.9l-94.3-245c-0.9-2.4-2.9-4.3-5.4-5.2L385,47.4c0.5-2.7,0.6-5.4-0.1-8.1c-1.6-6.4-6.4-11.3-12.8-13.1l-34.6-9.4
		C312.4,5.7,285,0,256.2,0c-47.1,0-82,14.8-86.4,16.8l-34.4,9.4c-6.4,1.8-11.2,6.7-12.8,13.1c-0.7,2.7-0.6,5.5-0.1,8.1l-22.2,7.3
		c-2.5,0.8-4.5,2.7-5.4,5.2l-94.3,245c-1.3,3.3-0.4,7,2.1,9.5l48.9,46.8c2.1,2,5,2.9,7.9,2.2c2.8-0.6,5.2-2.6,6.2-5.3l66.1-167.5
		v186.2c0,3.1,1.7,5.8,4.2,7.3v36.2c0,4.8,3.9,8.8,8.8,8.8h217.9c4.8,0,8.8-3.9,8.8-8.8v-36.2c2.5-1.5,4.2-4.2,4.2-7.3V190.6
		l66.1,167.5c1.1,2.7,3.4,4.7,6.2,5.3c2.9,0.6,5.8-0.2,7.9-2.2l48.9-46.8C507.4,311.9,508.2,308.2,507,304.9L507,304.9z M366.5,46
		c-16.4,15.2-33.3,26.1-50.1,32.5c-5.6,2.1-11.3,3.7-16.9,4.8c-1.8,0.4-3.5,0.5-5.3,0.7c-2.6,0.4-5.2,0.6-7.8,0.8
		c0.1-0.1,0.2-0.2,0.3-0.2c3.8-2.3,7.5-4.8,11-7.4c0.6-0.5,1.1-0.9,1.7-1.4c2.9-2.2,5.7-4.5,8.3-6.8c1-0.9,1.9-1.8,2.9-2.6
		c2.2-2,4.3-4,6.3-6.1c0.8-0.8,1.6-1.6,2.3-2.4c2.6-2.7,5-5.4,7.2-7.9c2.3-2.6,4.3-5.1,6.1-7.4c0.6-0.7,1.1-1.4,1.7-2.1
		c1.3-1.6,2.4-3.1,3.4-4.5c0.2-0.3,0.5-0.7,0.7-0.9l29.5,8.4L366.5,46z M321.2,28.9c-0.2,0.2-0.4,0.5-0.6,0.7
		c-2.1,2.7-4.5,5.6-7.4,9c-1.4,1.6-2.9,3.3-4.6,5.1c-0.2,0.2-0.5,0.5-0.7,0.7c-1.5,1.6-3.1,3.3-4.9,5c-0.5,0.5-1.2,1.1-1.8,1.6
		c-1.5,1.5-3,2.9-4.7,4.4c-0.9,0.8-1.8,1.5-2.7,2.3c-1.5,1.3-3,2.5-4.6,3.8c-1.1,0.9-2.3,1.7-3.5,2.6c-1.5,1.1-3,2.2-4.6,3.3
		c-1.3,0.9-2.7,1.7-4.1,2.5c-1.6,1-3.1,1.9-4.7,2.8c-1.5,0.8-3,1.5-4.6,2.3c-1.6,0.8-3.3,1.6-5,2.3c-1.6,0.7-3.2,1.2-4.8,1.8
		c-1.4,0.5-2.8,1-4.3,1.5c-1.2-0.4-2.4-0.8-3.6-1.2c-1.6-0.6-3.3-1.1-4.8-1.7c-1.6-0.6-3.1-1.4-4.6-2.1c-1.5-0.7-3-1.3-4.4-2.1
		c-1.6-0.8-3.1-1.8-4.6-2.7c-1.3-0.8-2.6-1.5-3.9-2.3c-1.6-1-3.1-2.1-4.6-3.2c-1.1-0.8-2.3-1.6-3.4-2.4c-1.6-1.2-3.1-2.5-4.6-3.7
		c-0.9-0.8-1.9-1.5-2.7-2.3c-1.7-1.4-3.2-2.9-4.8-4.4c-0.6-0.6-1.3-1.2-2-1.8c-1.7-1.7-3.3-3.3-4.9-5c-0.4-0.4-0.8-0.8-1.2-1.2
		c-1.9-2-3.7-4.1-5.4-6c-2.9-3.2-5.2-6.1-7.2-8.6c-0.2-0.3-0.4-0.5-0.6-0.8c13.4-4.6,38.9-11.6,69.8-11.6
		C279.1,17.5,300.9,21.4,321.2,28.9L321.2,28.9z M169,35.1c0,0,0.1,0.1,0.1,0.1c1,1.3,2.2,3,3.6,4.7c0.5,0.7,0.9,1.2,1.5,1.9
		c2,2.5,4.3,5.2,6.9,8.1c2.2,2.6,4.7,5.2,7.2,7.9c0.8,0.8,1.6,1.6,2.4,2.4c2,2,4,4,6.2,5.9c1,0.9,2,1.8,3,2.8c2.4,2.2,5,4.3,7.7,6.3
		c0.8,0.6,1.5,1.3,2.3,1.9c3.4,2.6,7,5,10.7,7.3c0.2,0.1,0.5,0.3,0.7,0.5c-0.4,0-0.8,0-1.2-0.1c-5.1-0.4-10.3-1.2-15.5-2.5
		c-0.9-0.2-1.7-0.5-2.6-0.7c-5.5-1.5-11-3.3-16.6-5.8c-14.5-6.1-29.4-16.2-44.2-29.9l-1.1-1.1c0,0,0-1.9,0-2L169,35.1z M153.6,411.6
		v-26H354v26H153.6z M453.2,339.5l-78.2-198.2c-1.5-3.9-5.5-6.1-9.8-5.4c-4.1,0.8-7.1,4.4-7.1,8.6V368l-208.8,0V144.5
		c0-4.2-3-7.8-7.1-8.6c-4.2-0.8-8.2,1.5-9.8,5.4L54.3,339.5L19,305.7L109.8,70l23.3-7.6c1.7,1.5,3.4,2.8,5.1,4.2
		c1.5,1.3,3.1,2.6,4.6,3.8c2.4,1.9,4.9,3.7,7.3,5.4c1.6,1.1,3.1,2.3,4.6,3.3c2.6,1.7,5.1,3.2,7.7,4.7c1.4,0.8,2.8,1.8,4.2,2.5
		c3.9,2.1,7.9,4.1,11.8,5.7c16.2,7.2,32.6,10.8,48.6,10.8c4.1,0,7.7-0.3,11-0.7c0.9-0.1,1.8-0.2,2.6-0.3
		c-7.5,20.9-18.1,39.9-25,39.9c-4.8,0-8.8,3.9-8.8,8.8s3.9,8.8,8.8,8.8c16.7,0,29.2-20.9,37.3-40.1c11.4,26.5,29.3,38.2,30.3,38.8
		c1.5,0.9,3.1,1.4,4.7,1.4c2.9,0,5.7-1.4,7.4-4c2.6-4.1,1.4-9.5-2.7-12.1c-0.2-0.1-19-12.4-27.4-41.5h0.1c1.6,0.3,3.3,0.5,5.1,0.7
		c0.7,0.1,1.4,0.1,2.2,0.2c2.5,0.2,5.2,0.4,8,0.4c13.8,0,27.9-2.7,41.9-8c4.6-1.7,9.1-3.8,13.6-6.1c1.7-0.9,3.4-1.9,5.1-2.9
		c2.8-1.6,5.7-3.1,8.5-4.9c1.9-1.2,3.8-2.6,5.6-3.9c2.6-1.8,5.2-3.6,7.8-5.6c2-1.5,3.9-3.2,5.9-4.8c1.8-1.5,3.6-2.9,5.4-4.5
		l23.3,7.7l90.8,235.7L453.2,339.5z"/>
	<path d="M319.1,237.2H188.4c-4.8,0-8.8,3.9-8.8,8.8v87.2c0,4.8,3.9,8.8,8.8,8.8h130.8c4.8,0,8.8-3.9,8.8-8.8V246
		C327.9,241.1,324,237.2,319.1,237.2z M310.4,324.4H197.1v-69.7h113.3V324.4z"/>
</g>
</svg>
