<?xml version="1.0" encoding="utf-8"?>
<!-- Generator: Adobe Illustrator 26.0.0, SVG Export Plug-In . SVG Version: 6.00 Build 0)  -->
<svg version="1.1" id="katman_1" xmlns="http://www.w3.org/2000/svg" xmlns:xlink="http://www.w3.org/1999/xlink" x="0px" y="0px"
	 viewBox="0 0 437.6 494.4" style="enable-background:new 0 0 437.6 494.4;" xml:space="preserve">
<style type="text/css">
	.st0{fill-rule:evenodd;clip-rule:evenodd;}
</style>
<g>
	<path class="st0" d="M169.5,66.5l49.3,103.7l49.3-103.7C235.1,49.7,202.7,49.7,169.5,66.5L169.5,66.5z M218.8,184.7
		c-1.7,0-3.2-1-3.9-2.5L159.8,66.5c-1-2.1-0.2-4.6,1.9-5.7c38-20.6,76.4-20.6,114.2,0c2,1.1,2.8,3.6,1.8,5.7l-55,115.7
		C222,183.7,220.5,184.7,218.8,184.7L218.8,184.7z"/>
	<path class="st0" d="M152.7,132.8c29.9,35.7,61.6,42.4,66.1,43.2c4.5-0.8,36.2-7.5,66.1-43.2l-8.6-10.5c-1-1.2-1.3-2.9-0.7-4.4
		c0.6-1.5,2-2.5,3.6-2.7c13.1-1.2,25.5-9.8,30.2-20.9c2.7-6.5,4-16.6-5.2-27.9C272.2,27,245,8.7,218.8,8.7
		c-26.2,0-53.4,18.3-85.4,57.7c-9.2,11.3-7.9,21.4-5.2,27.9c4.6,11.1,17,19.6,30.2,20.9c1.6,0.1,3,1.2,3.6,2.7s0.4,3.2-0.7,4.4
		L152.7,132.8L152.7,132.8z M218.8,184.7c-0.2,0-0.4,0-0.5,0c-1.6-0.2-39.5-5.4-74.6-49.2c-1.3-1.6-1.3-3.9,0-5.5l6.2-7.6
		c-13.3-3.6-24.7-12.9-29.7-24.8c-5.1-12.3-2.8-25.3,6.5-36.8C160.5,19.4,189.8,0,218.8,0s58.3,19.3,92.2,60.9
		c9.3,11.5,11.6,24.5,6.5,36.8c-5,11.9-16.4,21.2-29.7,24.8l6.2,7.6c1.3,1.6,1.3,3.9,0,5.5c-35.1,43.8-73,49-74.6,49.2
		C219.2,184.7,219,184.7,218.8,184.7L218.8,184.7z"/>
	<path class="st0" d="M4.3,446.1c-2.4,0-4.3-1.9-4.3-4.3c0-36.6,7.2-104.6,23.2-167.2c13.1-51.4,36.3-114.9,72.3-125.8
		c4-1.2,7.5-2.2,10.5-3.1c14.3-4.1,20.2-5.8,39-16.6c2.1-1.2,4.7-0.5,5.9,1.6c1.2,2.1,0.5,4.7-1.6,5.9
		c-19.6,11.3-26.3,13.2-40.9,17.4c-3,0.9-6.5,1.9-10.4,3.1c-25,7.5-48.6,50-66.4,119.6c-15.8,61.9-23,128.9-23,165
		C8.6,444.1,6.7,446.1,4.3,446.1L4.3,446.1z M433.3,446.1c-2.4,0-4.3-1.9-4.3-4.3c0-36.1-7.1-103.1-23-165
		c-17.8-69.6-41.4-112.1-66.4-119.6c-4-1.2-7.4-2.2-10.4-3.1c-14.6-4.2-21.3-6.1-40.9-17.4c-2.1-1.2-2.8-3.9-1.6-5.9
		c1.2-2.1,3.8-2.8,5.9-1.6c18.7,10.8,24.6,12.5,38.9,16.6c3.1,0.9,6.5,1.9,10.5,3.1c36,10.8,59.2,74.4,72.3,125.8
		c16,62.6,23.3,130.5,23.2,167.2C437.6,444.1,435.7,446.1,433.3,446.1L433.3,446.1z M327.1,494.4H110.4c-2.4,0-4.3-1.9-4.3-4.3
		c-0.1-12,0.2-28.2,0.5-47c0.9-55.5,2.2-136.2-5.5-174.2C81.4,320.7,71.9,406,68.6,442.2c-0.2,2.4-2.3,4.2-4.7,3.9
		c-2.4-0.2-4.2-2.3-3.9-4.7c3.6-39.5,14.5-136.7,38.1-187.6c0.7-1.6,2.3-2.6,4.1-2.5s3.3,1.2,3.9,2.8
		c11.8,31.3,10.3,122.5,9.2,189.1c-0.3,16.6-0.5,31.2-0.5,42.5h208c0-11.4-0.2-25.9-0.5-42.5c-1.1-66.6-2.6-157.8,9.2-189.1
		c0.6-1.6,2.2-2.7,3.9-2.8c1.8-0.1,3.4,0.9,4.1,2.5c23.6,50.9,34.5,148.1,38.1,187.6c0.2,2.4-1.6,4.5-3.9,4.7
		c-2.4,0.2-4.5-1.5-4.7-3.9c-3.3-36.2-12.8-121.5-32.5-173.2c-7.7,37.9-6.4,118.7-5.5,174.1c0.3,18.8,0.6,35.1,0.5,47.1
		C331.5,492.5,329.5,494.4,327.1,494.4L327.1,494.4z"/>
	<path class="st0" d="M170.7,276.6c-2.4,0-4.3-1.9-4.3-4.3V156.6c0-2.4,1.9-4.3,4.3-4.3s4.3,1.9,4.3,4.3v115.6
		C175,274.7,173.1,276.6,170.7,276.6z"/>
	<path class="st0" d="M266.9,276.6c-2.4,0-4.3-1.9-4.3-4.3V156.6c0-2.4,1.9-4.3,4.3-4.3c2.4,0,4.3,1.9,4.3,4.3v115.6
		C271.3,274.7,269.3,276.6,266.9,276.6z"/>
	<path class="st0" d="M327,466.8H110.6c-2.4,0-4.3-1.9-4.3-4.3s1.9-4.3,4.3-4.3h216.3c2.4,0,4.3,1.9,4.3,4.3
		C331.3,464.9,329.4,466.8,327,466.8L327,466.8z"/>
	<path class="st0" d="M326.6,441.7c-1,0-2.1-0.4-2.9-1.1c-2.4-2.1-56.5-50.2-66.4-80.3h-76.9c-10,30.1-64,78.2-66.4,80.3
		c-1.8,1.6-4.5,1.4-6.1-0.4s-1.4-4.5,0.4-6.1c0.6-0.5,58.6-52.1,64.6-79.1c0.4-2,2.2-3.4,4.2-3.4h83.5c2,0,3.8,1.4,4.2,3.4
		c6,27,64.1,78.6,64.6,79.1c1.8,1.6,2,4.3,0.4,6.1C329,441.2,327.8,441.7,326.6,441.7L326.6,441.7z"/>
	<path class="st0" d="M218.8,494.4c-2.4,0-4.3-1.9-4.3-4.3V180.3c0-2.4,1.9-4.3,4.3-4.3s4.3,1.9,4.3,4.3V490
		C223.2,492.4,221.2,494.4,218.8,494.4L218.8,494.4z"/>
	<path class="st0" d="M8.7,461.3H60v-15.2H8.7V461.3z M64.3,470h-60c-2.4,0-4.3-1.9-4.3-4.3v-23.9c0-2.4,1.9-4.3,4.3-4.3h60
		c2.4,0,4.3,1.9,4.3,4.3v23.9C68.6,468,66.7,470,64.3,470L64.3,470z"/>
	<path class="st0" d="M377.7,461.3H429v-15.2h-51.3V461.3L377.7,461.3z M433.3,470h-60c-2.4,0-4.3-1.9-4.3-4.3v-23.9
		c0-2.4,1.9-4.3,4.3-4.3h60c2.4,0,4.3,1.9,4.3,4.3v23.9C437.6,468,435.7,470,433.3,470L433.3,470z"/>
</g>
</svg>
