<?xml version="1.0" encoding="utf-8"?>
<!-- Generator: Adobe Illustrator 26.0.0, SVG Export Plug-In . SVG Version: 6.00 Build 0)  -->
<svg version="1.1" id="katman_1" xmlns="http://www.w3.org/2000/svg" xmlns:xlink="http://www.w3.org/1999/xlink" x="0px" y="0px"
	 viewBox="0 0 412.6 560.1" style="enable-background:new 0 0 412.6 560.1;" xml:space="preserve">
<g>
	<path d="M76.1,180.1c-3.7,4.7-8.4,8.4-12.1,13.1c-1.9,2.8-3.7,4.7-4.7,5.6C36,235.2,20.1,286.5,10.8,350S-1.3,479.7,0.5,537.6v9.3
		v3.7c0,4.7,4.7,8.4,9.3,8.4h37.3c3.7,0,7.5-1.9,8.4-5.6l27.1-65.3c1.9,0,1.9-1.9,1.9-2.8c-4.7-134.4-2.8-220.3,2.8-268.8
		c0.9-9.3,1.9-16.8,3.7-21.5c0.9-2.8,1.9-6.5,1.9-6.5C93.8,179.2,82.6,173.6,76.1,180.1L76.1,180.1z M65.8,483.5l-24.3,57.9H20v-2.8
		c-1.9-56.9,0.9-122.3,9.3-184.8c8.4-54.1,20.5-98.9,38.3-131.6C63,272.5,61.2,356.5,65.8,483.5L65.8,483.5z"/>
	<path d="M383.2,353.7c9.3,62.5,11.2,127.9,9.3,184.8v2.8h-22.4l-24.3-57.9c4.7-127.9,2.8-211.9-1.9-261.3
		C362.6,253.9,374.8,299.6,383.2,353.7L383.2,353.7z M336.5,180.1c-6.5-6.5-17.7-0.9-15.9,8.4c0,0,0.9,3.7,1.9,6.5
		c0.9,4.7,1.9,12.1,3.7,21.5c5.6,48.5,7.5,134.4,2.8,267.9c0,0.9,0,2.8,0.9,3.7l27.1,65.3c1.9,3.7,4.7,5.6,8.4,5.6h37.3
		c4.7,0,9.3-3.7,9.3-8.4v-3.7v-9.3c1.9-57.9-0.9-124.1-10.3-187.6c-9.3-63.5-25.2-114.8-47.6-150.3c-1.9-1.9-2.8-3.7-5.6-6.5
		C344.9,189.5,340.2,184.8,336.5,180.1L336.5,180.1z"/>
	<path d="M262.8,504h-113c-17.7,0-35.5-5.6-50.4-16.8c-6.5-4.7-14.9,0-14.9,7.5v46.7c0,10.3,8.4,18.7,18.7,18.7h205.3
		c10.3,0,18.7-8.4,18.7-18.7v-45.7c0-7.5-8.4-12.1-14.9-7.5C298.2,498.4,280.5,504,262.8,504L262.8,504z M308.5,541.3H103.2v-29.9
		c14,7.5,30.8,11.2,46.7,11.2h112.9c15.9,0,31.7-3.7,45.7-11.2V541.3z"/>
	<path d="M340.2,504v1.9c0,0.9,0,2.8,0.9,3.7l14.9,44.8c1.9,3.7,4.7,5.6,8.4,5.6h37.3c4.7,0,9.3-3.7,9.3-9.3V547v-11.2V505
		c0-5.6-3.7-9.3-9.3-9.3h-56C340.2,494.7,340.2,498.4,340.2,504L340.2,504z M393.4,513.3v21.5v6.5H371l-11.2-28H393.4z"/>
	<path d="M41.6,541.3H20.1v-6.5v-21.5h34.5L41.6,541.3z M76.1,504c0-5.6-3.7-9.3-9.3-9.3H9.9c-5.6,0-9.3,4.7-9.3,9.3v30.8V546v3.7
		c0,4.7,4.7,9.3,9.3,9.3h37.3c3.7,0,7.5-1.9,8.4-5.6l16.8-44.8c0.9-0.9,2.8-2.8,2.8-3.7L76.1,504z"/>
	<path d="M173.2,84.9c1.9-16.8,15.9-28.9,32.7-28.9c16.8,0,30.8,12.1,32.7,28.9l7.5,55.1c2.8,19.6-13.1,37.3-32.7,37.3h-14.9
		c-20.5,0-35.5-17.7-32.7-37.3L173.2,84.9z M198.4,196h14.9c31.7,0,56-28,51.3-58.8l-7.5-55.1c-2.8-25.2-25.2-44.8-51.3-44.8
		s-48.5,19.6-51.3,44.8l-7.5,55.1C143.3,168,167.6,196,198.4,196L198.4,196z M294.5,77.5C288.9,33.6,250.6,0,205.8,0
		s-83.1,33.6-88.7,77.5l-6.5,68.1c-14.9,13.1-31.7,28.9-35.5,36.4c-0.9,0.9-0.9,1.9-0.9,3.7c0.9-7.5-2.8,9.3-5.6,26.1
		c-5.6,44.8-7.5,129.7-2.8,264.1c0,1.9,0.9,3.7,1.9,5.6c19.6,26.1,49.5,41.1,82.1,41.1h112.9c32.7,0,62.5-14.9,82.1-41.1
		c0.9-1.9,1.9-3.7,1.9-5.6c4.7-135.3,2.8-219.3-2.8-265.1c-1.9-16.8-6.5-33.6-5.6-26.1c0-0.9-0.9-1.9-0.9-3.7
		c-4.7-7.5-21.5-24.3-36.4-37.3L294.5,77.5z M322.5,194.1c0.9,4.7,1.9,10.3,3.7,19.6c5.6,43.9,6.5,126.9,2.8,259.5
		c-15.9,19.6-40.1,31.7-65.3,31.7H149.8c-25.2,0-49.5-11.2-65.3-31.7c-4.7-132.5-2.8-214.7,2.8-259.5c0.9-8.4,1.9-14.9,3.7-19.6
		c0-0.9,0.9-1.9,0.9-2.8c3.7-5.6,20.5-22.4,34.5-33.6c1.9-1.9,2.8-3.7,2.8-6.5l7.5-70.9c3.7-35.5,33.6-61.6,69.1-61.6
		s65.3,26.1,70,61.6l6.5,70.9c0,2.8,1.9,4.7,3.7,6.5c14,11.2,30.8,28,35.5,34.5C321.6,192.3,322.5,193.2,322.5,194.1L322.5,194.1z"
		/>
	<path d="M283.3,144.7c-19.6,48.5-30.8,112.9-30.8,182c0,70.9,12.1,136.3,32.7,184.8c1.9,4.7,7.5,6.5,11.2,5.6
		c19.6-6.5,36.4-18.7,48.5-35.5c0.9-1.9,1.9-3.7,1.9-5.6c4.7-135.3,2.8-219.3-2.8-265.1c-1.9-16.8-6.5-33.6-5.6-26.1
		c0-0.9-0.9-1.9-0.9-3.7c-4.7-7.5-21.5-25.2-37.3-37.3C297.3,137.2,287,137.2,283.3,144.7L283.3,144.7z M321.6,191.3
		c0,0.9,0.9,1.9,0.9,2.8c0.9,4.7,1.9,10.3,3.7,19.6c5.6,43.9,6.5,126.9,2.8,259.5c-8.4,10.3-18.7,17.7-29.9,23.3
		c-17.7-45.7-28-105.5-28-169.9c0-60.7,8.4-117.6,24.3-161.5C306.6,175.5,317.8,186.7,321.6,191.3L321.6,191.3z"/>
	<path d="M75.2,182c-0.9,0.9-0.9,1.9-0.9,2.8c0.9-7.5-2.8,9.3-5.6,26.1c-5.6,45.7-7.5,130.7-2.8,265.1c0,1.9,0.9,3.7,1.9,5.6
		c12.1,15.9,28.9,28,47.6,35.5c4.7,1.9,10.3-0.9,12.1-5.6c20.5-48.5,31.7-114.8,31.7-184.8c0-69.1-11.2-133.5-30.8-182
		c-3.7-8.4-14.9-7.5-17.7,0C95.7,158.7,78.9,174.5,75.2,182L75.2,182z M84.5,472.3c-4.7-132.5-2.8-214.7,2.8-259.5
		c0.9-8.4,1.9-14.9,3.7-19.6c0-0.9,0.9-1.9,0.9-2.8c2.8-4.7,14-15.9,25.2-25.2c15,44.8,23.4,100.8,23.4,161.5
		c0,63.5-10.3,124.1-27.1,168.9C102.2,490,92,482.5,84.5,472.3L84.5,472.3z"/>
	<path d="M343,357.5l48.5-18.7c3.7-1.9,6.5-5.6,5.6-10.3c-3.7-18.7-7.5-36.4-12.1-52.3c-1.9-5.6-7.5-8.4-12.1-6.5l-37.3,14.9
		c-3.7,1.9-5.6,4.7-5.6,9.3c0,16.8,0.9,35.5,0.9,55.1C330.9,355.6,337.4,359.3,343,357.5L343,357.5z M348.6,299.6l21.5-8.4
		c2.8,10.3,5.6,21.5,7.5,32.7l-28.9,11.2C349.6,322,348.6,310.8,348.6,299.6L348.6,299.6z"/>
	<path d="M252.5,326.7c0,17.7,0.9,35.5,1.9,52.3c0.9,6.5,6.5,10.3,13.1,7.5l75.6-29.9c3.7-0.9,5.6-4.7,5.6-8.4v-56
		c0-6.5-6.5-11.2-13.1-8.4l-77.5,30.8c-3.7,1.9-5.6,4.7-5.6,8.4v0.9C252.5,325.7,252.5,325.7,252.5,326.7L252.5,326.7z M330,306.1
		v35.5l-57.9,23.3c-0.9-12.1-0.9-23.3-0.9-35.5L330,306.1z"/>
	<path d="M78,462l67.2-26.1c2.8-0.9,5.6-3.7,5.6-7.5c2.8-18.7,5.6-38.3,7.5-59.7c0-6.5-6.5-12.1-13.1-9.3l-75.6,29.9
		c-3.7,1.9-5.6,4.7-5.6,8.4c0,18.7,0.9,36.4,0.9,56C64.9,460.1,71.4,463.9,78,462L78,462z M82.6,404.1l55.1-21.5
		c-0.9,13.1-2.8,26.1-4.7,38.3l-49.5,19.6C82.6,427.5,82.6,415.3,82.6,404.1L82.6,404.1z"/>
	<path d="M13.6,487.2L78,462c3.7-1.9,5.6-4.7,5.6-9.3c-0.9-19.6-0.9-38.3-0.9-55.1c0-6.5-6.5-11.2-13.1-8.4L8.9,412.5
		c-3.7,0.9-5.6,4.7-5.6,8.4c-0.9,19.6-1.9,38.3-2.8,57.9C0.5,484.4,7,489.1,13.6,487.2L13.6,487.2z M22,427.5l42-16.8
		c0,11.2,0.9,23.3,0.9,35.5l-44.8,17.7C20.1,452.7,21,439.6,22,427.5L22,427.5z"/>
	<path d="M103.2,158.7V252c0,5.6,3.7,9.3,9.3,9.3s9.3-3.7,9.3-9.3v-93.3c0-5.6-3.7-9.3-9.3-9.3C106.9,149.3,103.2,153.1,103.2,158.7
		L103.2,158.7z"/>
	<path d="M289.8,158.7V252c0,5.6,3.7,9.3,9.3,9.3c5.6,0,9.3-3.7,9.3-9.3v-93.3c0-5.6-3.7-9.3-9.3-9.3
		C293.6,149.3,289.8,153.1,289.8,158.7L289.8,158.7z"/>
</g>
</svg>
