<?xml version="1.0" encoding="utf-8"?>
<!-- Generator: Adobe Illustrator 26.0.0, SVG Export Plug-In . SVG Version: 6.00 Build 0)  -->
<svg version="1.1" id="katman_1" xmlns="http://www.w3.org/2000/svg" xmlns:xlink="http://www.w3.org/1999/xlink" x="0px" y="0px"
	 viewBox="0 0 45.4 57.1" style="enable-background:new 0 0 45.4 57.1;" xml:space="preserve">
<g id="Layer_24">
	<path d="M17.1,22.9c-0.3,0-0.5,0.3-0.5,0.5c0.3,2.4-0.2,4.8-1.5,6.8c-0.1,0.2-0.1,0.6,0.2,0.7c0.1,0,0.2,0.1,0.3,0.1
		c0.2,0,0.3-0.1,0.4-0.2c1.4-2.2,2-4.9,1.7-7.5C17.7,23.1,17.5,22.9,17.1,22.9C17.2,22.9,17.2,22.9,17.1,22.9z"/>
	<path d="M45.4,23.8c-0.6-2-1.2-4.7-1.9-8.2c0.2-2.2-0.5-4.3-1.8-6l0,0c-1.1-1.2-3.4-2.4-7-3.8C34.5,4.5,34,3.2,33.4,2
		c0-1.6-1.6-1.5-4.1-1c-0.4-0.5-0.9-0.8-1.5-0.9c-2.8,0.6-5.7,0.6-8.6,0c-1.2-0.3-2.1,0-2.4,1.1c-1,0.2-1.9,0-2.8-0.4
		c-0.1-0.1-0.3-0.1-0.4,0c-0.7,0.6-1.3,1.2-1.8,2c0,0-0.1,0.1-0.1,0.1C11.3,3.6,11,4.5,11,5.4c-5.9,1.9-9.1,4.7-9.6,8.3
		c-0.1,3.1-0.6,6.2-1.3,9.2c-0.7,1.7,1.2,2.3,7.7,2.9c1.3,0,1.5-1,1.5-3.7c0.1,2.5,0.2,5.1,0.1,7.8c0,3.8,0,7.2,0,10.1v0
		c0,1.6,0,3.1-0.1,4.5v0.1c0,1.5-0.1,2.8-0.2,4c-0.6,3.4-0.5,5.4,0.9,6.4c7,2.9,15.5,2.1,23.7,0.3c1.7-1,2.2-3.2,1.5-6.5
		c0.1-1.4,0.1-2.8,0.2-4.1c0,0,0,0,0-0.1c0-0.8,0-1.6,0.1-2.3v-0.3c0.4-8.4-0.8-14.6-0.3-21.3c0.6,1.5,0.8,3.2,0.8,4.8
		c0.5,0.9,2,1.5,9.1-1.4C45.3,24.2,45.4,24,45.4,23.8z M33.6,5.7c-1.7,0.3-3.3,0.5-5,0.6c1.6-0.8,3-1.9,4.1-3.2
		C33.2,3.9,33.5,4.7,33.6,5.7z M32.3,1.8c0,0,0,0.1,0,0.1l0,0c0,0,0,0,0,0.1c-0.3,0.4-0.7,0.8-1.1,1.2c-0.3-0.6-0.8-1-1.3-1.3
		C32,1.4,32.3,1.8,32.3,1.8z M28.9,3.4l0.5-0.7c0.5,0.2,0.9,0.7,1.1,1.2C29.1,5,27.6,5.8,26,6.2c1.1-0.7,2-1.6,2.8-2.6
		C28.8,3.5,28.8,3.4,28.9,3.4z M23.2,6.5c-1.4-0.9-2.8-1.9-3.9-3.1c2.7-0.1,5.5-0.1,8.2,0.1C26.3,4.9,24.9,5.9,23.2,6.5L23.2,6.5z
		 M17.9,1c0.1-0.1,0.4-0.2,1,0c2.9,0.6,5.9,0.6,8.8,0c0.3,0.1,0.6,0.4,0.8,0.7c0,0,0,0,0,0.1l0.1,0.2c-0.1,0.2-0.3,0.4-0.5,0.7
		c-3.2-0.3-6.4-0.4-9.7-0.2c-0.3-0.3-0.5-0.7-0.7-1C17.7,1.2,17.8,1.1,17.9,1z M17,2.1c0.3,0.4,0.6,0.8,0.8,1.1l0.1,0.1
		c1,1.2,2.2,2.3,3.6,3.2h-0.6c-3.6-1.3-5.7-2.8-6.4-4.5C15.2,2.2,16.1,2.2,17,2.1z M13.4,2.1c0.5,1.4,1.7,2.7,3.7,3.8l-0.6-0.1
		c-1.5-0.5-2.8-1.5-3.8-2.8C12.9,2.7,13.2,2.4,13.4,2.1L13.4,2.1z M8.8,16.3c-0.4-1-0.7-2.1-0.9-3.1c0-0.3-0.3-0.5-0.6-0.4
		c-0.3,0-0.5,0.3-0.4,0.6c0.3,1.9,1,3.7,2,5.4v0.1c-2-1.1-3.7-3.4-5.1-6.6c-0.1-0.3-0.4-0.4-0.6-0.3c-0.3,0.1-0.4,0.4-0.3,0.6
		c0,0,0,0.1,0,0.1c1.5,3.5,3.4,5.9,5.6,7.2c-0.1,0.5-0.2,1-0.2,1.5c0.2,3.3-0.3,3.5-0.3,3.5c-6.4-0.5-7-1.3-7-1.5
		c0-0.1,0.1-0.1,0.1-0.2c0.3-1.5,0.6-3,0.8-4.3C2.1,20.5,3,22,4.4,23.1c0.2,0.2,0.5,0.1,0.7-0.1c0.2-0.2,0.1-0.5-0.1-0.7
		c-1.3-1-2.1-2.5-2.2-4.2c0-0.3-0.3-0.5-0.6-0.4c0,0-0.1,0-0.1,0c0.2-1.4,0.3-2.7,0.4-4.1c0.4-3.2,3.5-5.7,9.2-7.6
		c0.1,0,0.2-0.1,0.3-0.2l0,0c0.2-0.6-0.1-1.1,0.3-2c0.8,1,1.8,1.8,3,2.4C10.9,8.4,8.7,11.8,8.8,16.3z M33.3,54.4
		c-9.8,2.1-17.4,2-22.8-0.3c-0.8-0.7-0.9-2.6-0.4-5.4c0-0.2,0-0.3,0-0.5l0.4,1.7c0.1,0.2,0.2,0.4,0.5,0.4c7.4,0.4,14.7,0.4,22.1,0
		c0.2,0,0.4-0.1,0.4-0.3l0.8-2.1c0,0.4,0,0.8,0,1.1C34.9,51.8,34.6,53.7,33.3,54.4z M10.3,44.5c0-1.3,0.1-2.8,0.1-4.3
		c1.2-1,2.4-3.4,3.5-7.3c7.3,0.1,13.2,0.1,17.7,0c0.7,4.9,1.7,8,2.9,9.6c0,0.7,0,1.4-0.1,2.1l-1.7,4.7c-4.6,0.3-11.8,0.3-21.3,0
		C11.2,48.2,10.8,46.6,10.3,44.5L10.3,44.5z M34.6,19.7c-0.3,0.3-0.5,1.1-0.5,3.1C34,28.1,34.9,34,34.6,40.6c-1-2.7-1.7-5.4-2-8.3
		c0-0.3-0.3-0.4-0.5-0.4c-4.6,0.1-10.8,0.1-18.5,0c-0.2,0-0.4,0.1-0.5,0.4c-1,3.6-1.9,5.5-2.6,6.5c0-2.7,0-5.6,0-8.9
		c0.1-3.7,0-7.5-0.3-11.2l0,0l0,0c-1-5.6,1.1-9.5,6.4-11.8C16.9,6.9,17.3,7,17.7,7c0.7,4.8,0.8,9.6,0.4,14.5c0,0.3,0.2,0.5,0.5,0.5
		c0.3,0,0.5-0.2,0.5-0.5c0.5-4.8,0.4-9.6-0.3-14.4c0.6,0.1,1.3,0.2,1.9,0.2h0.1c0.8,0.1,1.6,0.1,2.4,0.1h0.1c1.6,0,3.2-0.1,4.7-0.2
		c-0.8,2.5-1,5.1-0.5,7.7c0,1.8-0.2,3.6-0.5,5.3c-0.1,0.3,0.1,0.5,0.4,0.6s0.5-0.1,0.6-0.4c0.3-1.9,0.4-3.8,0.4-5.6
		c-0.5-2.6-0.3-5.3,0.6-7.7c0.5,0,0.9-0.1,1.3-0.1c1.7,1,3.2,2.2,4.5,3.7C35.8,13,35.7,16,34.6,19.7z M36.9,25.4
		c0.1-1.8-0.2-3.6-1-5.2c2.8-2.9,4.3-5.5,4.6-7.9c0-0.3-0.2-0.5-0.4-0.6c-0.3,0-0.5,0.2-0.6,0.4l0,0c-0.2,2-1.4,4.1-3.6,6.5
		c0.3-1.1,0.4-2.2,0.5-3.3c1-3.3,1.5-4.2,1.6-4.4c0.4-0.5-0.3-1.2-0.7-0.7c-0.5,0.6-0.8,1.4-1,2.1c-0.1-0.8-0.4-1.6-0.7-2.3
		c-1.1-1.2-2.4-2.3-3.7-3.2c0.7-0.1,1.4-0.2,2.1-0.4c3.5,1.4,5.8,2.6,6.8,3.6c1.2,1.6,1.8,3.6,1.6,5.5c0.6,3.3,1.2,5.9,1.8,7.9
		C38.5,25.9,37.2,25.6,36.9,25.4z"/>
	<path d="M28.9,24.2c1.5,2.2,2.7,4.7,3.3,7.3c0,0.2,0.3,0.4,0.5,0.4c1.7-0.1-1.9-6.7-3-8.3c-0.2-0.2-0.5-0.2-0.7,0
		C28.8,23.8,28.8,24,28.9,24.2z"/>
	<path d="M42.2,19c-0.2,1.7-0.9,3.3-2.2,4.5c-0.2,0.2-0.2,0.5,0,0.7c0.1,0.1,0.2,0.1,0.3,0.1c1.8-1,2.6-3.4,2.8-5.2
		c0-0.3-0.2-0.5-0.5-0.5C42.4,18.6,42.2,18.8,42.2,19z"/>
</g>
</svg>
