<?xml version="1.0" encoding="utf-8"?>
<!-- Generator: Adobe Illustrator 26.0.0, SVG Export Plug-In . SVG Version: 6.00 Build 0)  -->
<svg version="1.1" id="katman_1" xmlns="http://www.w3.org/2000/svg" xmlns:xlink="http://www.w3.org/1999/xlink" x="0px" y="0px"
	 viewBox="0 0 402.7 509.3" style="enable-background:new 0 0 402.7 509.3;" xml:space="preserve">
<g>
	<path d="M401.6,462.8c8.8-56.9-38.5-286.1-53.4-303.6c-11.4-13.1-46.4-31.5-58.6-37.6c0-0.9,0.9-1.8,0.9-1.8v-0.9v-2.6v-0.9v-0.8
		c-21-50.8-49-89.2-83.1-112.9c-3.5-2.6-7.9-1.8-10.5,0c-36.8,28.9-63.9,66.5-82.3,112.9v0.9v0.9v2.6c0,0.9,0.9,1.8,0.9,2.6v0.9
		c-16.6,7.9-49.9,23.6-59.5,35.9C41.1,175.9-6.1,405.2,2.6,462L0,493.5c0,4.4,3.5,8.8,7.9,8.8l42,5.2h0.9c3.5,0,7-2.6,7.9-6.1
		l7.9-22.8c2.6-2.6,7.9-11.4,14-21.9c0.9,2.6,0.9,5.2,1.8,6.1v25.4c0,5.2,3.5,8.8,8.8,8.8H310c5.2,0,8.8-3.5,8.8-8.8v-23.6
		c0-1.8,0.9-3.5,0.9-6.1c6.1,10.5,12.2,18.4,14,21.9l7.9,22.8c0.9,3.5,4.4,6.1,7.9,6.1h0.9l42-5.2c4.4-0.9,7.9-4.4,7.9-8.8
		L401.6,462.8z M201.2,186.4c-25.4-14-47.2-34.1-65.6-61.2c43.8-7,87.5-7,131.2,0C251.1,149.6,228.3,169.7,201.2,186.4z
		 M303.6,453.2c-32.4-3.5-63-5.2-93.6-5.2v-96.2h51.6c1.8,14,10.5,42,44.6,67.4C305.3,437.5,304.5,448,303.6,453.2z M201.2,21
		c25.4,20.1,47.2,49,64.8,86.6c-43.8-6.1-87.5-6.1-130.4,0C152.2,72.6,174.1,43.7,201.2,21L201.2,21z M17.4,486.5l0.9-12.2l29.8,7
		l-3.5,8.8L17.4,486.5z M56,465.5l-38.5-9.6c-5.2-60.4,39.4-269.5,49.9-285.2c7-7.9,35.9-22.8,56-32.4c10.5,14.9,21,27.1,34.1,38.5
		c0,0.9-0.9,1.8-0.9,2.6V322c0,5.2,3.5,8.8,8.8,8.8s8.8-3.5,8.8-8.8V190.7c6.1,4.4,11.4,7.9,18.4,11.4v133h-60.4
		c-2.6,0-4.4,0.9-6.1,2.6s-2.6,4.4-2.6,6.1c0,0.9,0,26.2-28,53.4v-28.9v-21.9c0.9-70,0.9-108.5-6.1-145.2c-0.9-4.4-5.2-7.9-10.5-7
		c-4.4,0.9-7.9,5.2-7,10.5c7,35,7,72.6,6.1,141.8v21.9c0,21.9,0,39.4,0.9,52.5C75.2,435.7,63,455,56,465.5L56,465.5z M97.1,419.1
		c33.2-25.4,41.1-52.5,43.8-66.5h51.6v96.2c-30.6,0-61.2,1.8-93.6,5.2c-0.9-5.2-1.8-14.9-2.6-31.5C96.2,420.9,97.1,420,97.1,419.1z
		 M100.6,470.7c31.5-3.5,62.1-4.4,91.9-5.2v14.9h-91.9V470.7z M210,480.4v-14.9c29.8,0,60.4,1.8,91.9,5.2v9.6L210,480.4L210,480.4z
		 M324.6,367.5v-21.9c-0.9-69.1-0.9-106.8,6.1-141.8c0.9-4.4-1.8-9.6-7-10.5c-4.4-0.9-9.6,1.8-10.5,7c-7,36.8-7,75.2-6.1,145.2v21.9
		v28.9c-28-26.2-28-51.6-28-53.4c0-2.6-0.9-4.4-2.6-6.1s-4.4-2.6-6.1-2.6H210v-133c5.2-3.5,10.5-6.1,15.8-9.6v97.1
		c0,5.2,3.5,8.8,8.8,8.8s8.8-3.5,8.8-8.8V179.3v-0.9c14.9-12.2,27.1-26.2,37.6-41.1c18.4,8.8,47.2,25.4,54.2,34.1
		c10.5,15.8,55.1,224.9,49.9,285.2l-38.5,9.6c-7.9-11.4-21-32.4-22.8-49C323.7,403.3,324.6,387.6,324.6,367.5L324.6,367.5z
		 M357.8,490l-3.5-8.8l29.8-7l0.9,12.2L357.8,490z"/>
</g>
</svg>
