<svg xmlns="http://www.w3.org/2000/svg" viewBox="0 0 378.18 378.12"><g id="katman_2" data-name="katman 2"><g id="katman_1-2" data-name="katman 1"><path d="M295.74,261.58q1.59,31.83,3.17,63.67c.32,6.24.69,12.48,1,18.73.55,11-1.57,14.53-11.87,19.38,0,1.75.07,3.62,0,5.48-.23,5.32-3.72,8.86-9,9.14-1.25.07-2.5,0-3.75,0-57.39,0-114.77-.13-172.16.11-10,.05-14-4.17-13.13-13.05,0-.5,0-1,0-1.76l-2.62-1.16c-6.5-3-9.72-8-9.36-15.18q1.32-25.85,2.61-51.69c.57-11.23,1.12-22.45,1.15-33.81-2,7.18-4,14.35-6,21.52q-5,17.86-9.88,35.74c-1.49,5.37-4.24,9.51-10.15,10.89-.95.23-1.92,1.77-2.26,2.89-1.12,3.7-1.82,7.52-2.94,11.22-1.84,6.09-5.5,8.08-11.69,6.55q-15.63-3.84-31.25-7.76C1,340.84-1,337.46.47,330.59c.38-1.71.68-3.44,1.1-5.13a18.35,18.35,0,0,0-.39-11.39c-1.52-4.27-1-9.64-.17-14.33,7.52-44.2,14.91-88.43,23.09-132.51C31.75,126,40.64,85,52.37,44.64c3.07-10.57,8.79-17.36,18.41-22.31C90.31,12.28,111,6,132.44,2.1c1-.18,2-.4,2.95-.56C142.12.39,148.24.15,155.17,3.22c7.76,3.44,16.84,4.43,25.47,5.26A98,98,0,0,0,216,5.88c4.17-1.14,8.09-3.17,12.16-4.73C229.5.64,231-.16,232.33,0c24.85,3.49,49.28,8.8,71.55,20.81,20.24,10.91,16.18,6.84,22.3,26.44,10.31,33.05,17.69,66.88,24,100.88,9.62,51.81,18.48,103.77,27.57,155.68.81,4.59.66,9.19-2.05,13.4a5.39,5.39,0,0,0-.23,3.51c.64,3.44,1.49,6.83,2.23,10.25,1.37,6.37-.69,9.83-6.95,11.42q-16.15,4.08-32.34,8c-5.05,1.25-8.89-.69-10.55-5.72-1.33-4-2.08-8.23-3.31-12.29-.34-1.11-1.35-2.61-2.31-2.84-6.06-1.47-8.69-5.8-10.2-11.3q-7.11-25.81-14.28-51.62c-.48-1.75-1.08-3.48-1.63-5.22ZM246.24,8.3c-.34,1.75-.64,3.32-1,4.89-2.27,11-7,20.82-15.29,28.62-12.63,11.91-28.07,15.69-44.92,15-26.73-1.16-46.32-17.48-51.95-43.13-.39-1.77-.76-3.53-1.16-5.36-3.74.77-7.06,1.37-10.34,2.13C102.07,15,83.19,21.24,66.15,32.21c-2,1.29-2.54,2.4-1.78,4.8C68.9,51.28,72.75,65.79,77.73,79.9c9.88,28,15.42,56.74,15,86.29-.36,28-2.49,55.94-3.87,83.9-1.6,32.21-3.15,64.42-4.94,96.62-.36,6.51,4.3,10.42,10.22,10.4q94.31-.27,188.62,0c8.84,0,11.71-5,11.25-11.6-1-14.34-1.54-28.71-2.27-43.07-1.41-27.71-3.05-55.42-4.14-83.14-1-25.7-4.47-51.39-1-77.12,1.66-12.36,3-24.9,6.21-36.86C299,82.7,306.37,60.4,313.45,38c1.05-3.31.24-4.8-2.52-6.51C291.08,19.23,269.18,12.76,246.24,8.3ZM59.77,42.51c-.61,1.82-1,2.85-1.31,3.91C48.06,80,40.5,114.21,33.92,148.65c-8.46,44.25-16.11,88.67-24,133C8.37,290.39,7,299.17,6.12,308c-.54,5.35.89,6.58,6,7.67l37,7.85c6.39,1.36,9.25-.31,11-6.72,5.52-19.83,11.09-39.65,16.43-59.53,3.29-12.24,7.72-24.17,7.9-37.19.37-25.83,4.33-51.62.94-77.47-1.51-11.5-2.7-23.14-5.57-34.32-4.2-16.42-9.77-32.49-14.77-48.7C63.43,54.1,61.7,48.66,59.77,42.51Zm259.53.7-1.19.2c-.29.8-.62,1.6-.87,2.42q-8.61,27.9-17.2,55.8c-7,22.68-8.9,46.06-8.75,69.59.1,15.49,1.39,31,2.2,46.44.25,4.86-.12,9.91,1.11,14.53,7.66,28.69,15.66,57.29,23.62,85.9,1.27,4.56,4.54,6.69,9.11,5.75C340.9,321,354.41,318,368,315.11a4.6,4.6,0,0,0,4-4.72,31.41,31.41,0,0,0-.15-6c-.77-5.31-1.74-10.59-2.59-15.89-10-62.13-20.78-124.11-34.78-185.47C329.84,83,324.36,63.15,319.3,43.21ZM96,363.14c0,1.74.07,3.11,0,4.48-.19,3.24,1.38,4.41,4.52,4.41q88.5-.06,177,0c3.15,0,4.71-1.16,4.52-4.41-.08-1.44,0-2.9,0-4.48ZM234.33,6.47c-6.25,17.93-8,21.22-15.06,27.14A46.16,46.16,0,0,1,190.5,44.8a45.86,45.86,0,0,1-27.23-8A41.84,41.84,0,0,1,144,6.29l-5.66,1c1,10.51,4.71,19.55,10.72,26.68,18.41,21.86,59.33,22.76,78.66,1.69,7.32-8,11.1-17.53,12.3-28.5ZM8.77,321c-1,4.27-2.06,8.23-2.59,12.26-.13,1,1.39,2.92,2.48,3.21,10.59,2.83,21.28,5.32,31.89,8.1,2.44.64,3.66-.2,4.23-2.28,1.14-4.17,2.12-8.39,3.24-12.87Zm321.28,8.44c1.1,4.42,1.9,8.6,3.26,12.59.39,1.17,2.58,2.76,3.57,2.53,11.06-2.52,22.06-5.31,33-8.21a3.61,3.61,0,0,0,2-2.86c-.63-4.13-1.68-8.2-2.63-12.49ZM221,22.59a121.58,121.58,0,0,1-64,0C173.71,44.83,206.79,43.27,221,22.59ZM150.87,8.91c.07,3.16.89,5.73,4.3,6.46,8.39,1.78,16.74,4.16,25.24,5a94.51,94.51,0,0,0,42.78-5.08C226.44,14.09,227.34,12,227,9A123.85,123.85,0,0,1,150.87,8.91Z"/><path d="M240.24,119.9c8.5,0,17,0,25.5,0,5.14,0,7.29,2.16,7.3,7.31,0,16.51.08,33,0,49.51-.08,12-9.15,21-21.18,21.18q-11.82.14-23.63,0a20.89,20.89,0,0,1-21.15-21.2c-.09-16.51,0-33,0-49.52,0-5.14,2.16-7.26,7.32-7.28C223,119.87,231.62,119.9,240.24,119.9ZM213.1,144.09c0,11.61-.27,23,.09,34.31.24,7.36,6.71,13.28,14.16,13.46q12.74.3,25.49,0c7.13-.18,13.62-5.71,13.94-12.81.52-11.57.14-23.18.14-34.95Zm53.78-17.93H213.35V137.7h53.53Z"/></g></g></svg>