<svg xmlns="http://www.w3.org/2000/svg" viewBox="0 0 312.16 360.13"><g id="katman_2" data-name="katman 2"><g id="katman_1-2" data-name="katman 1"><path d="M251.13,319.53l-11,4.6c0,5.09,0,10.69,0,16.28s-2.06,7.69-7.69,7.69H79.74c-5.64,0-7.66-2-7.69-7.68s0-11,0-16.29l-11-4.58c-2.14,3.76-4.42,7.61-6.51,11.56a7.23,7.23,0,0,0-.5,3.24c0,6.25,0,12.5,0,18.75-.05,4.7-2.24,7-6.87,7q-17.07.09-34.14,0c-4.82,0-6.95-2.27-7-7.24,0-6.12.1-12.25-.08-18.37a8.61,8.61,0,0,0-1.62-4.65A19.38,19.38,0,0,1,0,317.72Q0,204.26.09,90.81C.14,67,16,46.54,38.73,39.79c6.46-1.92,12.88-4,19.36-5.8a4.58,4.58,0,0,0,3.67-3.57A41.72,41.72,0,0,1,102.25.07q53.83-.13,107.66,0c19.12,0,35,12,40.48,30.35A4.59,4.59,0,0,0,254.06,34c6.25,1.76,12.43,3.75,18.65,5.61,24.26,7.25,39.4,27.54,39.42,53.08q.06,98.46,0,196.91c0,9.12-.05,18.25,0,27.38a19.7,19.7,0,0,1-4.57,13.14,6.91,6.91,0,0,0-1.39,4c-.14,6.25,0,12.5-.07,18.75,0,5.1-2.2,7.23-7.37,7.25q-16.69,0-33.39,0c-5.1,0-7.21-2.19-7.24-7.37,0-6.13.05-12.25-.05-18.38a9,9,0,0,0-1-3.8C255.23,326.84,253.16,323.22,251.13,319.53Zm-101-214.14v71.83a27,27,0,0,1-.07,3.37,5.89,5.89,0,0,1-6.09,5.43c-3.3-.21-5.26-2.11-5.77-5.36a21,21,0,0,1-.07-3.37c0-25.38-.05-50.76.06-76.14a6.23,6.23,0,0,0-3.16-6C110.8,79.14,86.72,63,62.55,47a5.54,5.54,0,0,0-4-.51C53,48,47.52,49.64,42,51.32c-17.91,5.47-29.95,21.28-30,40Q11.94,204,12,316.74c0,5.17,2.14,7.32,7.25,7.35,6.5.05,13,0,19.51,0,7.68,0,9.24-1.54,9.24-9.15V135.3a33.48,33.48,0,0,1,.06-3.75,5.87,5.87,0,0,1,6.08-5.43c3.31.2,5.26,2.1,5.78,5.35a23.29,23.29,0,0,1,.08,3.74q0,78.76,0,157.52c0,12.62,6.8,19.37,19.51,19.37H232.23c13.22,0,19.89-6.61,19.89-19.75V135.21a23.42,23.42,0,0,1,.08-3.75c.51-3.25,2.47-5.14,5.78-5.34a5.89,5.89,0,0,1,6.08,5.44,33.44,33.44,0,0,1,.06,3.75q0,90.2,0,180.4c0,6.6,1.81,8.39,8.48,8.39q9.75,0,19.51,0c6.08,0,8-2,8-8.12q0-28.5,0-57,0-83.27,0-166.52c0-18.63-10.53-34.12-27.52-40.27-6.45-2.34-13.11-4.09-19.71-6a4.11,4.11,0,0,0-3,.52q-36.67,24.38-73.3,48.82A5.07,5.07,0,0,0,174,100.4c.09,25.63.06,51.26.05,76.88A18.6,18.6,0,0,1,174,181a5.78,5.78,0,0,1-5.71,5,5.86,5.86,0,0,1-6-5.06,24.57,24.57,0,0,1-.11-3.74q0-33.57,0-67.14V104.9C158,109.2,154.19,108.46,150.08,105.39ZM84.29,324.17v11.68H227.81V324.17ZM137.46,82.39a9.22,9.22,0,0,0-.31-1.68Q118.48,47.44,99.66,14.24c-.53-.93-2.64-1.6-3.85-1.4-11,1.84-20.56,11.44-23,22.52-.56,2.51-.16,4,2.17,5.49C87.49,49,99.89,57.4,112.35,65.7Zm37-.34a11.48,11.48,0,0,0,1.53-.49c20.66-13.76,41.34-27.49,61.93-41.37a4.71,4.71,0,0,0,1.49-3.88c-1.74-11.1-11-20.71-22.09-23.44-2.67-.66-4.17-.19-5.62,2.42-11.67,21-23.52,42-35.31,63C175.79,79.3,175.28,80.38,174.44,82.05Zm-18.35,7.76,30.12-53.58H125.94ZM112.42,12.16c2.13,3.8,3.84,7.12,5.85,10.26A4,4,0,0,0,121.21,24q34.88.12,69.75,0a3.68,3.68,0,0,0,2.74-1.25c2.09-3.33,3.93-6.81,6.05-10.58ZM41.87,336.37H18.33v11.54H41.87Zm228.51-.09v11.55H294V336.28Z"/></g></g></svg>