<svg xmlns="http://www.w3.org/2000/svg" viewBox="0 0 446.32 512"><g id="katman_2" data-name="katman 2"><g id="katman_1-2" data-name="katman 1"><path d="M122,512c-7-3.69-9.48-9.54-8.94-17.28.4-5.63.08-11.31.08-17.8-3.77,0-7.35,0-10.93,0-9.25-.12-14.19-5-14.2-14.25q-.06-39.75,0-79.49v-5.34l-.76-.08Q81.69,404,76.13,430.32c-2.44,11.57-4.79,23.14-7.23,34.7-1.75,8.29-6.16,11.86-14.72,11.89q-18,.06-36,0c-9,0-13.64-4.37-14.32-13.15A1281.22,1281.22,0,0,1,1,314.4c.21-5.56,2.94-8.65,7.55-8.62,4.77,0,7.45,3.34,7.45,9.21,0,33.49-.19,67,.19,100.46.17,15.29,1.51,30.57,2.33,46.15H54.16c2.56-12,5.16-24,7.69-36.05q12.79-60.82,25.51-121.66A29.57,29.57,0,0,0,88,298q0-68.23,0-136.48a17.42,17.42,0,0,0-.84-5.85Q75.65,124,63.94,92.38a30.93,30.93,0,0,0-1.79-3.09c-5.37,12.4-10.73,23.57-15.11,35.12C35.24,155.55,28.64,188,24.1,220.86,22,236,20.65,251.3,19,266.52c-.58,5.23-3.94,8.48-8.32,8.05s-7.1-3.72-6.63-8.9c5.17-57.91,13.63-115.1,38.23-168.58,3.82-8.29,8.87-16,13.16-24.07C58.07,68,61.9,64.7,67.61,63.83c9.45-1.43,13.49-6.09,14.67-16.42C85.12,22.56,98.43,5.61,124.2.53c.3-.06.56-.35.83-.53h14c15.85,3.14,27,13.26,37.55,24.63,13.94,15,28.5,29.39,42.7,44.12,1.24,1.29,1.81,3.22,2.84,5.11,17.46-18,33.61-34,49.16-50.69C281.61,12.11,292.68,2.79,308.05,0h14c7.5,3.36,15.67,5.73,22.35,10.27,13.3,9.05,18.9,23.3,20.19,38.58.75,8.91,4,13.06,12.37,14.3,7.3,1.06,12.27,5.43,15.38,12,7.55,16.08,16.33,31.7,22.45,48.3,16.25,44,22.87,90.19,27.19,136.68a1011.11,1011.11,0,0,1,4.1,115.31c-.61,28.63-2,57.25-3.29,85.86-.55,11.85-4.91,15.58-16.67,15.58q-16.75,0-33.49,0c-9.2,0-13.35-3.34-15.27-12.43-4.49-21.15-8.88-42.33-13.33-63.49-1.63-7.72-3.32-15.43-5-23.15-.8,28.48-.76,56.79-.82,85.11,0,9-4.94,13.82-13.92,14-3.61.06-7.22,0-11.22,0,0,6.58-.34,12.56.08,18.5.54,7.66-2.18,13.19-9.12,16.58ZM74.56,77.33c.71,2.11,1.25,3.83,1.88,5.52,8.21,22.33,16.52,44.62,24.59,67A32.28,32.28,0,0,1,103,160.5q.15,147.5.08,295v6.16H343.23V455c0-91,.29-182-.24-273-.11-18.33,2.4-35.47,9.5-52.38s12.91-34.58,19.42-52.28c-14.82-4.89-29.46-9.32-43.79-14.6-7.14-2.63-12.29-2-18.94,2.43C297.12,73.29,283.79,79.5,271,86.5l-.87-1.09v5.47q0,31,0,62c0,5.5-2.78,8.86-7.2,9-4.6.17-7.76-3.35-7.78-9-.06-13.5,0-27,0-40.5,0-7.47,0-14.94,0-21.58H191.15c0,11.44,0,23.42,0,35.4,0,9.33.26,18.68-.21,28a9.41,9.41,0,0,1-4.12,6.6c-1.82,1-5.82.81-7.19-.55a12.75,12.75,0,0,1-3.35-8.22q-.41-31-.05-62c0-3.76-1.15-5.28-4.59-6.84-10.58-4.8-21.81-9-31-15.81-8.84-6.59-16.23-7.51-26.12-3.51C101.63,69.11,88.14,72.85,74.56,77.33Zm309,12.54c-.82,2-1.41,3.41-1.92,4.8-7.2,19.51-14.45,39-21.5,58.55a29.46,29.46,0,0,0-1.76,9.68q-.16,66.49,0,133a44.24,44.24,0,0,0,.86,8.9Q372.8,370,386.6,435.2c1.87,8.88,3.77,17.76,5.62,26.47h35.41c.45-6.16,1-12.09,1.31-18,3-56.13,3.46-112.24-.83-168.33-3.11-40.74-8.54-81.12-19.22-120.64C402.9,132.46,395.26,110.86,383.51,89.87ZM317.93,477.5H128.54v19.11H317.93ZM241.62,75.78c26.12-3.25,48-13,67.12-28.87,4.06-3.37,7.73-4.27,12.74-2.41,9.28,3.43,18.76,6.29,28.73,9.58-.78-8.69-2.65-16.37-6.89-23.27-11.43-18.62-37.08-21.33-53-5.38C274.67,41.1,259.38,57.12,243.94,73,243.39,73.55,242.93,74.2,241.62,75.78Zm-36.87,0c-1.07-1.39-1.41-1.93-1.84-2.38-15.56-16-31-32.06-46.72-47.88-10.78-10.84-25.78-13.4-39.07-7.22C104.8,24,95.75,39.75,96.76,54c9.66-3.23,19.32-6.27,28.83-9.71,4.63-1.69,8-.76,11.81,2.34C156.69,62.51,178.62,72.51,204.75,75.75Z"/><path d="M151.58,417.88c8.55,0,16.34,0,24.14,0,6,0,9.28,2.68,9.31,7.34s-3.36,7.58-9.15,7.63c-8.49.08-17,.11-25.49,0-8.73-.13-13.68-4.9-13.83-13.63-.19-11.33,0-22.66-.06-34a13.55,13.55,0,0,1,6.94-12.41c17.23-10.62,29.07-25.11,32.72-45.57,1-5.51,5.17-8.82,10.82-9.57a31,31,0,0,1,4-.23q32.25,0,64.49,0c9.12,0,13.52,3.15,15.1,11.31,3.63,18.68,14.25,32.45,30,42.34,6.88,4.32,9.87,9.61,9.51,17.67-.45,10,0,20-.13,30-.1,8.94-5.08,14-14,14.08-23.66.09-47.32,0-71,0-4.25,0-7.65-1.43-8.76-5.83-.91-3.62.43-6.74,3.88-8.31a14.46,14.46,0,0,1,5.82-.83c21-.06,42,0,63,0h6c0-10.6.09-20.71-.11-30.82,0-1.11-1.48-2.49-2.61-3.24-17.71-11.8-30.27-27.32-35.59-48.29a4.9,4.9,0,0,0-3.63-2.83q-29.74-.27-59.49,0a4.85,4.85,0,0,0-3.55,2.83c-5.44,20.9-18,36.46-35.62,48.34-1.2.8-2.53,2.47-2.56,3.77C151.48,397.45,151.58,407.26,151.58,417.88Z"/></g></g></svg>