<?xml version="1.0" encoding="utf-8"?>
<!-- Generator: Adobe Illustrator 26.0.0, SVG Export Plug-In . SVG Version: 6.00 Build 0)  -->
<svg version="1.1" id="katman_1" xmlns="http://www.w3.org/2000/svg" xmlns:xlink="http://www.w3.org/1999/xlink" x="0px" y="0px"
	 viewBox="0 0 48.6 57" style="enable-background:new 0 0 48.6 57;" xml:space="preserve">
<g id="Layer_19">
	<path d="M47.5,36.3C46.9,26,45.1,15.8,42.3,5.8c-4.7-2.1-8.9-3.9-12.2-5.5l0,0C26.3,1.1,22.4,1,18.7,0l0,0h-0.1
		c-0.5,0.2-1.1,0.4-1.7,0.7h0c-3,1.2-6.4,2.8-10,4.8C6.7,5.5,6.6,5.6,6.6,5.7c-0.8,2.7-2.1,8-4,15.7C0.9,30.5,0,42.1,0,55.9
		c0,0.3,0.2,0.5,0.4,0.5c2.5,0.3,5,0.5,7.4,0.6l0,0C7.9,57,8,57,8,57l0,0c0.1,0,0.1-0.1,0.2-0.1l0,0c0,0,0.1-0.1,0.1-0.2l0,0
		c0-0.1,0-0.1,0-0.2c0-1.6,0.3-4.3,0.7-8.3c0,2.5,0.1,5,0.4,7.5c0,0.3,0.3,0.4,0.5,0.4c9.8-0.4,19.6-0.3,29.4,0.3
		c0.3,0,0.5-0.2,0.5-0.5c0,0,0,0,0-0.1c-0.3-3.3-0.4-6.3-0.5-8.9c0.3,3,0.6,6.2,1,9.3c0,0.1,0.1,0.3,0.2,0.3
		c0.1,0.1,0.2,0.1,0.4,0.1c2.3-0.3,4.6-0.4,6.9-0.2c0.1,0,0.3,0,0.4-0.1C49,49.5,48.3,42.5,47.5,36.3z M29.6,1.3c0,0.1,0,0.2,0,0.3
		c-3.3,1-6.7,1-10,0.1c-0.1-0.2-0.1-0.3-0.1-0.5C22.7,2,26.2,2.1,29.6,1.3L29.6,1.3z M29.6,2.7C29.3,4.5,28,5.6,25.9,6
		C23,5.9,21.1,4.9,20,2.9C23.2,3.6,26.4,3.6,29.6,2.7L29.6,2.7z M18.4,1.2c0.7,3.7,3.4,5.8,7.7,5.8c2.9-0.6,4.4-2.3,4.5-4.9V1.6
		L31.4,2c-1,3.5-2.8,5.3-5.6,5.3l0,0c-4,0.4-6.6-1.5-8-5.8L18.4,1.2z M47.4,55.4c-2-0.1-4.1-0.1-6.1,0.2c-0.6-5.7-1.2-11.3-1.6-16.7
		l0,0c-0.3-8.2-0.1-17.4,0.5-27.2c0-0.3-0.3-0.5-0.5-0.5c-0.2,0-0.4,0.1-0.4,0.3c-0.6,9.9-0.8,19-0.5,27.2
		c-0.5,3.7-0.5,9.3,0.1,16.6c-3.8-0.2-7.7-0.4-11.5-0.5c-1.4-5.5-2.1-11.1-2.1-16.7c0-0.3-0.2-0.5-0.5-0.5s-0.5,0.2-0.5,0.5
		c0,5.6,0.7,11.2,2.1,16.7c-5.6-0.1-10.9,0-16,0.2c-0.3-2.5-0.4-7.4-0.3-14.8c1.7-8.3,1.5-18.5-0.4-30.3c0-0.3-0.3-0.5-0.6-0.4
		s-0.5,0.3-0.4,0.6c1.9,11.8,2,21.8,0.4,30l0,0C8,48.1,7.4,53.3,7.4,56c-2.1-0.1-4.3-0.3-6.4-0.5c0-13.6,0.9-25,2.6-33.8
		C5.3,14.2,6.6,9,7.4,6.3c3.4-1.8,6.5-3.2,9.3-4.4c1.6,4.7,4.6,6.8,9,6.4c3.2,0,5.4-2,6.5-5.9c2.7,1.3,5.8,2.6,9.2,4.1
		c2.7,9.8,4.4,19.8,5,29.9C47.4,42.7,47.7,49.1,47.4,55.4L47.4,55.4z"/>
	<path d="M6.2,25c-0.3-0.1-0.5,0.1-0.6,0.3c0,0,0,0,0,0c-1.7,6-1.9,12.3-0.6,18.4c0,0.2,0.3,0.4,0.5,0.4c0.3,0,0.5-0.2,0.5-0.5
		c0,0,0-0.1,0-0.1c-1.2-6-1-12.1,0.6-18C6.6,25.3,6.4,25,6.2,25z"/>
	<path d="M43.6,28c-0.3,0-0.5,0.3-0.4,0.6c0.9,6.5,1,13.2,0.3,19.7c0,0.3,0.2,0.5,0.4,0.6c0.3,0,0.5-0.2,0.6-0.4
		c0.8-6.7,0.7-13.4-0.3-20C44.2,28.1,43.9,27.9,43.6,28C43.6,28,43.6,28,43.6,28z"/>
	<path d="M36.1,19.8c0.1-0.3-0.1-0.6-0.4-0.6c-0.3-0.1-0.6,0.1-0.6,0.4c-0.9,3.4-0.9,9.2,0,17.2c0,0.3,0.3,0.5,0.6,0.4
		s0.5-0.3,0.4-0.6l0,0C35.3,28.8,35.3,23.1,36.1,19.8z"/>
	<path d="M29,24.7c0-0.3-0.2-0.5-0.5-0.5c0,0,0,0,0,0c-0.3,0-0.5,0.3-0.5,0.5c0,0,0,0,0,0c0.3,3.9,1.2,7.7,2.6,11.3
		c0.1,0.3,0.4,0.4,0.7,0.3c0.3-0.1,0.4-0.4,0.3-0.7C30.1,32.2,29.3,28.5,29,24.7z"/>
	<path d="M16.3,20.6c0-0.3-0.1-0.5-0.4-0.6c0,0,0,0,0,0c-0.3,0-0.5,0.2-0.6,0.4c-1.1,6.8-1,13.6,0.1,20.4c0,0.2,0.3,0.4,0.5,0.4
		c0.3,0,0.5-0.2,0.5-0.5c0,0,0-0.1,0-0.1C15.3,34.1,15.3,27.3,16.3,20.6z"/>
</g>
</svg>
