<svg xmlns="http://www.w3.org/2000/svg" viewBox="0 0 280.9 374.64"><g id="katman_2" data-name="katman 2"><g id="katman_1-2" data-name="katman 1"><path d="M152.75,0c5.74.94,11.52,1.72,17.22,2.87a106,106,0,0,1,39.42,16.67c4.75,3.26,8.09,7.38,8.91,13.2,1.38,9.76,2.6,19.54,4.07,29.28a5.61,5.61,0,0,0,2.25,3.58c4.39,2.62,9,4.85,13.47,7.35,16.18,9.08,23.71,23.26,25.17,41.48,2.36,29.28,5.21,58.51,7.83,87.77q3.81,42.62,7.59,85.23c.59,6.68,1.17,13.36,1.89,20,.76,7.05.37,14-3,20.31A17.46,17.46,0,0,0,275.49,339a55.19,55.19,0,0,1,.25,6.57c.18,5.9-.2,6.43-5.81,7.69-6.06,1.35-12.13,2.68-18.21,3.95-4.19.88-5.79-.23-6.65-4.45-.3-1.43-.56-2.87-.82-4.3a41.2,41.2,0,0,0-5.15-14.55,40.86,40.86,0,0,1-5-15.77c-3-24.67-5.59-49.41-8.32-74.12,0-.2-.25-.38-.91-1.37,0,2.19,0,3.58,0,5,.37,23.65.65,47.3,1.16,70.95.15,7.2-1.52,13.44-6.82,18.57a5.46,5.46,0,0,0-1.24,3.54c-.11,6.71-.15,13.42,0,20.12.07,3.5-1.17,5.26-4.77,6a341.82,341.82,0,0,1-112.35,5.49c-11.23-1.3-22.33-3.74-33.51-5.54-3.44-.55-4.73-2.35-4.67-5.73.13-6.7.11-13.42,0-20.12a6,6,0,0,0-1.3-3.88c-5.16-5.05-6.9-11.15-6.76-18.22.5-23.77.78-47.55,1.14-71.32a7.38,7.38,0,0,0-.81-4.12Q53,261,51,278.54c-1.67,14.77-3.23,29.56-5.17,44.29-.45,3.4-1.51,7.18-3.53,9.83-4.39,5.73-5.38,12.35-6.62,19-1.07,5.73-2.27,6.59-7.89,5.35-6.19-1.35-12.33-2.89-18.54-4.12-3.42-.69-4.81-2.52-4.45-5.89.08-.72,0-1.46.08-2.19a41.31,41.31,0,0,0-3-20.53c-2.07-5-2.1-11.24-1.67-16.82C2,284,4.29,260.6,6.41,237.17q3.51-38.79,7-77.57C15,143,16.33,126.33,18,109.71c1.71-16.8,10.51-29,25.14-37.14,4.15-2.31,8.33-4.57,12.58-6.68,1.86-.93,2.46-2.13,2.71-4.21C59.59,52,61,42.38,62.32,32.74c.79-5.68,4-9.8,8.61-13a110.9,110.9,0,0,1,53.42-19A33.24,33.24,0,0,0,127.87,0ZM113.21,94.86c-.68-.25-1.12-.43-1.56-.58-16.76-5.35-33.08-11.65-47.71-21.7a4.16,4.16,0,0,0-3.55-.07C55,75.27,49.6,78.16,44.33,81.2A37.54,37.54,0,0,0,30.17,96.13c-3.85,7.08-4.39,14.85-5.07,22.63q-3.44,39-7,77.94Q15,231.47,11.81,266.25c-1.33,14.69-2.59,29.39-4,44.07a26.53,26.53,0,0,0,3.41,16.17A5.63,5.63,0,0,0,14.38,329c5.35,1.2,10.74,2.26,16.16,3,1.31.18,3.6-.73,4.07-1.76,1.64-3.6,3.4-7.4,3.84-11.27q8.31-73.2,16.22-146.44c.29-2.65,1-5,4.19-4.94,3.41.07,3.91,2.59,4,5.41.19,14,.68,28,.62,42.06-.15,34.87-.52,69.75-.85,104.62-.07,7.71,3.26,12.88,10,14.61a267.58,267.58,0,0,0,134.52.2c7.39-1.89,11.11-6.54,10.92-14.22-.17-6.46-.74-12.92-.74-19.37q0-54.51.2-109c0-6.59.18-13.17.38-19.75.1-3.55,2.9-5.82,5.37-4.18a7.29,7.29,0,0,1,2.63,4.74c1.68,13.92,3.11,27.86,4.65,41.79,3.83,34.64,7.59,69.29,11.61,103.91.46,4,2.3,7.85,3.69,11.71.71,2,2.32,2.47,4.44,2,5.24-1.09,10.56-1.88,15.77-3.09a6.09,6.09,0,0,0,3.4-2.71,25.83,25.83,0,0,0,3.36-15.81c-.62-6.43-1.11-12.88-1.7-19.31q-4.23-46.6-8.47-93.22-3.84-42.62-7.57-85.23c-.91-10.33-4.09-20-12.3-26.46-7.1-5.59-15.41-9.66-23.31-14.2-.75-.44-2.43.36-3.51.91-9.19,4.73-18.18,9.86-27.54,14.2-6.68,3.1-13.84,5.16-21,7.76v4.39q0,52.86,0,105.73c0,2.88-.66,5.41-3.93,5.45s-4.14-2.47-4.1-5.35c0-.85,0-1.71,0-2.56V96.41c-12.87,5.34-25.36,5.14-38.18.13V202.79c0,1.1,0,2.2,0,3.3-.14,2.66-1.39,4.6-4.21,4.47-2.57-.11-3.79-1.93-3.77-4.5,0-1,0-1.95,0-2.93V94.86ZM78.26,49.75c1.82,1.55,3.43,2.85,5,4.25,16.65,15.31,35.92,26.75,55.6,37.56a4.27,4.27,0,0,0,3.59-.31c14-8.66,28.06-17.16,41.7-26.32,6.46-4.34,12-10,18.17-15.21C171.78,27.48,109.54,27.47,78.26,49.75Zm128.59-7c5.21-7.88,4.53-12.77-3-17.21a150.33,150.33,0,0,0-21.44-10.78c-17.85-7-36.59-7.63-55.44-6.24a103.35,103.35,0,0,0-50.9,17.35c-6.8,4.57-7.52,10.4-2.06,16.72,20.2-12.81,42.55-17.77,66.3-17.77S186.42,29.82,206.85,42.8Zm2.9,299.27a277.38,277.38,0,0,1-138.9,0v17.26a334.63,334.63,0,0,0,138.9,0ZM111.37,85.35c-15.6-10.69-31.44-21-43.95-37-.42,5.53-.87,10-1,14.42a4.1,4.1,0,0,0,1.69,2.84C81.28,74.86,96,80.8,111.37,85.35Zm101.83-37c-12.53,16-28.42,26.36-44.07,37.06,15.7-4.62,30.68-10.7,44.06-20.25a2.88,2.88,0,0,0,1.05-2.1C214,58.49,213.62,53.94,213.2,48.33ZM29.86,340.08l-16.67-3v8.5l14.9,3.26C28.69,345.83,29.22,343.24,29.86,340.08Zm220.87,0,1.81,8.69c4.67-1,9.08-1.88,13.43-2.95A2.72,2.72,0,0,0,267.6,344c.22-2.14.08-4.31.08-7Z"/></g></g></svg>