<?xml version="1.0" encoding="utf-8"?>
<!-- Generator: Adobe Illustrator 26.0.0, SVG Export Plug-In . SVG Version: 6.00 Build 0)  -->
<svg version="1.1" id="katman_1" xmlns="http://www.w3.org/2000/svg" xmlns:xlink="http://www.w3.org/1999/xlink" x="0px" y="0px"
	 viewBox="0 0 551.8 551.3" style="enable-background:new 0 0 551.8 551.3;" xml:space="preserve">
<g>
	<path d="M389.9,175.2h-78.8c-4.8,0-8.8,3.9-8.8,8.8v74.4c0,16.9,13.7,30.6,30.6,30.6h35c16.9,0,30.6-13.7,30.6-30.6V184
		C398.6,179.1,394.7,175.2,389.9,175.2z M389.9,183.9v17.5h-78.8v-17.5H389.9z M368,280.2h-35c-12.1,0-21.9-9.8-21.9-21.9v-48.1
		h78.8v48.1C389.9,270.4,380,280.2,368,280.2z"/>
	<path d="M547,464.1c4.7-4.5,4.7-11.1,4.7-17.7c0-0.2,0-0.5-0.1-0.7c-52-329.3-82.2-396.6-83.5-399.3c0-0.1-0.1-0.1-0.2-0.2
		c-0.2-0.3-0.4-0.6-0.7-0.9c-0.1-0.1-0.2-0.3-0.4-0.4c-0.1-0.1-0.1-0.1-0.2-0.2C433.3,20.3,388.1,8.5,356,2.9
		c-0.1,0-0.2-0.1-0.4-0.1c-0.1,0-0.1,0-0.1,0c-6.5-1.1-12.6-2-17.8-2.7c-0.1,0-0.2,0-0.3,0c-0.1,0-0.2-0.1-0.3-0.1
		c-0.2,0-0.3,0.1-0.5,0.1c-0.3,0-0.6,0.1-0.9,0.2c-0.2,0.1-0.5,0.2-0.7,0.3c-0.1,0.1-0.3,0.1-0.4,0.2c-12,8.2-31.7,12.4-58.6,12.4
		c-26.8,0-47.2-4.3-59-12.4c-0.1-0.1-0.3-0.1-0.4-0.2c-0.2-0.1-0.4-0.2-0.7-0.3c-0.3-0.1-0.6-0.2-0.9-0.2c-0.1,0-0.3-0.1-0.4-0.1
		s-0.2,0-0.3,0.1c-0.1,0-0.2,0-0.3,0c-30.9,4-88.6,15-128.9,44.6c-0.1,0.1-0.1,0.1-0.2,0.2c-0.1,0.1-0.2,0.2-0.4,0.4
		c-0.3,0.3-0.5,0.6-0.7,0.9c0,0.1-0.1,0.1-0.2,0.2c-1.3,2.7-31.5,70-83.5,399.3c0,0.2-0.1,0.8-0.1,1c0,6.3,0,12.8,4.7,17.3
		l-4.6,20.8C0,485.1,0,485.4,0,485.7c0,4.7,0,9.5,6.9,12.7c0.3,0.1,0.5,0.2,0.8,0.3l52.5,13.1c0.4,0.1,0.7,0.1,1.1,0.1
		c3.9,0,10.7-1.6,13-12.1L79,481c7.2-0.8,14.1-4.2,17.1-16.1l24.1-87.3l-6.5,129.9c0,13.8,9.1,18.9,15.9,21.6c0.5,0.2,1,0.3,1.6,0.3
		v8.8c0,7.2,5.9,13.1,13.1,13.1h262.5c7.2,0,13.1-5.9,13.1-13.1v-8.8c0.5,0,1.1-0.1,1.6-0.3c6.8-2.6,15.9-7.8,15.9-21.8l-5.9-129.5
		l24.1,87.2c3.1,11.9,10,15.3,17.2,16.2l4.7,18.7c2.4,10.6,9.2,12.2,13,12.2c0.4,0,0.7,0,1.1-0.1l52.5-13.1c0.3-0.1,0.5-0.2,0.8-0.3
		c6.9-3.2,6.9-8,6.9-12.7c0-0.3,0-0.6-0.1-0.9L547,464.1z M276.5,65.8c30.1,0,62.1-22.4,65-56.3c2.9,0.4,6,0.9,9.2,1.4
		c-4.6,39.3-32.7,63.6-74.4,63.6s-69.8-24.3-74.4-63.7c3.1-0.5,6.1-0.9,8.9-1.3C213.7,43.4,246.1,65.8,276.5,65.8L276.5,65.8z
		 M228.5,32.8c13.4,4.4,29.8,6.8,47.8,6.8c17.9,0,34.3-2.4,47.6-6.8c-10.8,15.1-29.5,24.3-47.4,24.3C258.3,57,239.4,47.9,228.5,32.8
		L228.5,32.8z M332.3,12.4c-0.5,2.9-1.1,5.7-2.1,8.4c-13.4,6.4-32.4,10-53.9,10c-21.3,0-40.9-3.6-54.2-10c-1-2.7-1.6-5.5-2.1-8.4
		c13.4,6.4,32.3,9.6,56.3,9.6C300.1,22.1,318.9,18.8,332.3,12.4L332.3,12.4z M62.2,503.3l-51.5-12.9c-1.4-0.7-1.5-0.9-1.5-4.1l4-18
		l57.3,12.3L66.2,498C65.2,502.6,63.4,503.2,62.2,503.3L62.2,503.3z M88.1,462.8c-1.9,7.5-4.8,9.8-12.8,9.8l-60.4-12.8
		c-0.9-0.3-1.6-0.6-2.3-1c0,0-0.1-0.1-0.2-0.1c-3-1.7-3.3-4.6-3.3-11.9C49.6,190.3,77.3,92.5,87.5,62l31.1,101
		c4.4,20.5,8.6,60.4,8.6,82l-4.6,92.8L88.1,462.8z M411.7,538.3c0,2.4-2,4.4-4.4,4.4H144.9c-2.4,0-4.4-2-4.4-4.4v-8.8h271.2
		L411.7,538.3L411.7,538.3z M419.6,520.8h-287c-7-2.9-9.6-6.5-9.6-12.9l8.4-168.7l0.1-0.4c0.2-0.7,0.2-1.4,0-2.1l4.6-91.5
		c0-22.2-4.3-63.1-8.9-84.4L93.1,50c30.3-21.2,70.2-32.1,100.2-37.7c5.3,43.2,37.3,70.9,83,70.9s77.7-27.7,83-70.9
		c30,5.6,69.7,16.5,99.8,37.6L425,160.8c0,0.1-0.1,0.2-0.1,0.4c-4.5,21-8.8,61.8-8.8,84.3l13.1,262.3
		C429.2,514.3,426.6,517.9,419.6,520.8L419.6,520.8z M464.1,462.8l-34.5-124.7c0-0.1-0.1-0.1-0.1-0.2l-4.6-92.7
		c0-21.7,4.2-61.5,8.6-82L464.6,62c10.2,30.5,37.9,128.3,78.4,384.8c0,7.1-0.2,10-2.8,11.8c-0.3,0.1-0.6,0.3-0.8,0.5
		c-0.5,0.2-1.1,0.4-1.7,0.6l-60.8,13C468.9,472.6,466,470.3,464.1,462.8L464.1,462.8z M541.5,490.4L490,503.3c-1.2-0.1-3-0.7-4-5.4
		l-4.3-17.3l57.3-12.3l4,18C543,489.5,542.9,489.7,541.5,490.4L541.5,490.4z"/>
</g>
</svg>
