<?xml version="1.0" encoding="utf-8"?>
<!-- Generator: Adobe Illustrator 26.0.0, SVG Export Plug-In . SVG Version: 6.00 Build 0)  -->
<svg version="1.1" id="katman_1" xmlns="http://www.w3.org/2000/svg" xmlns:xlink="http://www.w3.org/1999/xlink" x="0px" y="0px"
	 viewBox="0 0 452.1 492.3" style="enable-background:new 0 0 452.1 492.3;" xml:space="preserve">
<g>
	<path d="M427.9,18.6C392.1-8.8,324.1-5.9,226.1,26.9C128-5.8,60-8.7,24.2,18.6C-1.5,38.2,0,65.8,0,66.9c0.6,9.1,1.1,24.1,1.1,33.2
		v175.6c0,12,6.9,26.8,16,34.5l55.8,46.9c3.6,3,6.9,4.5,9.8,5v22.8c0,7.8,2.7,14.9,7.1,20.6C77.4,411,66.6,421.2,62,433.4l-7.8,20.9
		c-3.6,9.6-2.7,19.2,2.3,26.5c5.1,7.3,13.8,11.4,24,11.4h290.9c10.2,0,19-4.2,24-11.4c5-7.3,5.9-16.9,2.3-26.5l-7.8-20.9
		c-4.5-12.2-15.4-22.5-27.9-27.8c4.4-5.7,7.1-12.8,7.1-20.6v-22.8c2.9-0.5,6.2-1.9,9.8-5l55.8-46.9c9.1-7.7,16-22.5,16-34.5V100.2
		c0-9.1,0.5-24.1,1.1-33.2C452.1,65.8,453.6,38.2,427.9,18.6L427.9,18.6z M237.5,123.9c-6.6,6.4-17.7,6.3-24.2-0.1L105,17.8
		c4.4,0.3,8.9,0.6,13.7,1.1l87.4,85.6c5.4,5.2,12.4,7.9,19.5,7.9c7,0,14-2.6,19.4-7.7l89-85.7c4.8-0.5,9.3-0.9,13.7-1.1L237.5,123.9
		z M217.3,42.4c2.1,2.4,5.5,3.5,8.7,2.7c3.3,0.8,6.6-0.3,8.7-2.7c26.3-8.7,49.3-14.8,69.1-18.7l-71,68.4c-3.9,3.8-10.6,3.8-14.5-0.1
		l-69.8-68.3C168.2,27.6,191.2,33.7,217.3,42.4L217.3,42.4z M34.8,32.5c9.2-7,23.7-13.1,46.3-14.6l-0.5,0.5l82.7,81V164
		c0,4.8,3.9,8.8,8.8,8.8s8.8-3.9,8.8-8.8v-47.5l20.2,19.8c6.7,6.6,15.6,9.9,24.4,9.9c8.8,0,17.5-3.2,24.2-9.7l21.6-20.8V164
		c0,4.8,3.9,8.8,8.8,8.8s8.8-3.9,8.8-8.8l0-65.2l82.7-79.7l-1.3-1.3c22.9,1.5,37.5,7.5,46.8,14.4c18.4,13.8,17.7,32.8,17.6,33.6
		c-0.6,9.4-1.1,24.9-1.1,34.3V215l-64.2,56.9V121.1c0-4.8-3.9-8.8-8.8-8.8s-8.8,3.9-8.8,8.8v263.8c0,9.2-7.5,16.6-16.6,16.6H116.9
		c-9.2,0-16.6-7.5-16.6-16.6v-40.5l0-43.2V121.1c0-4.8-3.9-8.8-8.8-8.8s-8.8,3.9-8.8,8.8v150.4l-64.2-56.9l0-114.5
		c0-9.4-0.5-24.9-1.1-34.3C17.5,65.6,16.5,46.5,34.8,32.5L34.8,32.5z M28.4,296.8c-5.1-4.3-9.8-14.4-9.8-21.1V238l64.2,56.9v47.6
		L28.4,296.8z M373.7,439.5l7.8,20.9c1.6,4.2,1.5,7.9-0.3,10.5c-1.8,2.5-5.2,3.9-9.7,3.9l-290.9,0c-4.5,0-7.9-1.4-9.7-3.9
		s-1.9-6.2-0.3-10.4l7.8-20.9c4-10.9,17.8-20.5,29.5-20.5h236.3C355.8,419,369.6,428.6,373.7,439.5L373.7,439.5z M423.7,296.8
		l-54.4,45.7v-47.8l0.3,0.4l63.8-56.6v37.3C433.5,282.4,428.8,292.5,423.7,296.8L423.7,296.8z"/>
	<path d="M163.3,371.9h125.6c15.1,0,27.4-12.3,27.4-27.4v-37.4h-8.8c-20.2,0-36.9-16.5-37.2-36.8l-0.1-8.6h-88.4v8.8
		c0,20.4-16.6,37-37,37h-8.8v37C135.9,359.7,148.2,371.9,163.3,371.9L163.3,371.9z M153.4,324.4c23.1-3.7,41.3-22,45.1-45.1h55.1
		c4,22.9,22.3,40.9,45.1,44.7v20.6c0,5.4-4.4,9.9-9.9,9.9H163.3c-5.4,0-9.9-4.4-9.9-9.9L153.4,324.4L153.4,324.4z"/>
</g>
</svg>
