<?xml version="1.0" encoding="utf-8"?>
<!-- Generator: Adobe Illustrator 26.0.0, SVG Export Plug-In . SVG Version: 6.00 Build 0)  -->
<svg version="1.1" id="katman_1" xmlns="http://www.w3.org/2000/svg" xmlns:xlink="http://www.w3.org/1999/xlink" x="0px" y="0px"
	 viewBox="0 0 490.2 525" style="enable-background:new 0 0 490.2 525;" xml:space="preserve">
<g>
	<path d="M297.5,385v-26.2c0-2.3-0.9-4.5-2.6-6.2s-3.9-2.6-6.2-2.6h-87.5c-4.8,0-8.8,3.9-8.8,8.8V385c0,10.8-25.5,17.5-43.8,17.5
		H140c-4.8,0-8.8,3.9-8.8,8.8v70c0,2.3,0.9,4.5,2.6,6.2s3.9,2.6,6.2,2.6h210c2.3,0,4.5-0.9,6.2-2.6s2.6-3.9,2.6-6.2v-70
		c0-2.3-0.9-4.5-2.6-6.2s-3.9-2.6-6.2-2.6h-8.8C323,402.5,297.5,395.8,297.5,385z M341.2,472.5H148.8V420c24.6,0,61.2-9.3,61.2-35
		v-17.5h70V385c0,25.7,36.6,35,61.2,35V472.5z"/>
	<path d="M183.8,437.5H175c-4.8,0-8.8,3.9-8.8,8.8s3.9,8.8,8.8,8.8h8.8c4.8,0,8.8-3.9,8.8-8.8S188.6,437.5,183.8,437.5z"/>
	<path d="M280,437.5h-61.2c-4.8,0-8.8,3.9-8.8,8.8s3.9,8.8,8.8,8.8H280c4.8,0,8.8-3.9,8.8-8.8S284.8,437.5,280,437.5z"/>
	<path d="M0,113.7v315c0,3.5,2,6.6,5.2,8l73.6,32.7v46.8c0,2.3,0.9,4.5,2.6,6.2s3.9,2.6,6.2,2.6h315c2.3,0,4.5-0.9,6.2-2.6
		s2.6-3.9,2.6-6.2v-46.8l73.6-32.7c3.2-1.4,5.2-4.5,5.2-8v-315c0-21.5-11.3-41.4-29.8-52.4c7.3-6.2,11.7-15.2,12.2-24.7
		c0.5-9.6-3-18.9-9.6-25.8S447.2,0,437.7,0h-385C43.1,0,34,3.9,27.4,10.8c-6.6,6.9-10.1,16.3-9.6,25.8c0.5,9.6,4.9,18.5,12.2,24.7
		C11.3,72.4,0,92.3,0,113.7L0,113.7z M78.8,450.3l-61.2-27.2v-16.4l31.8,12.7l0,0c4.5,1.8,9.6-0.4,11.4-4.9
		c1.8-4.5-0.4-9.6-4.9-11.4l-38.2-15.3v-16.9l61.2,20.4L78.8,450.3z M78.8,372.9l-61.2-20.4v-95.3l61.2,20.4V372.9z M78.8,259.1
		l-61.2-20.4v-51.6l61.2,20.4V259.1z M393.8,507.5H96.2v-418l96.2,50.4v123.9c-11.1,2.9-20.1,11-24.1,21.7s-2.5,22.8,4.1,32.2
		c6.5,9.4,17.3,15,28.7,15s22.2-5.6,28.7-15s8.1-21.4,4.1-32.2s-13-18.9-24.1-21.7V149l30.9,16.2c0.2,0.1,0.4,0.1,0.6,0.2
		s0.4,0.2,0.6,0.2l0,0c1.8,0.7,3.9,0.7,5.7,0c0.2-0.1,0.4-0.1,0.6-0.2c0.2-0.1,0.4-0.1,0.6-0.2l30.9-16.2v70.9
		c-11.1,2.9-20.1,11-24.1,21.7s-2.5,22.8,4.1,32.2c6.5,9.4,17.3,15,28.7,15s22.2-5.6,28.7-15s8.1-21.4,4.1-32.2s-13-18.9-24.1-21.7
		v-80.1l96.2-50.4L393.8,507.5z M201.2,306.3c2.3,0,4.5-0.9,6.2-2.6s2.6-3.9,2.6-6.2v-15.1c4.5,2.6,7.6,7,8.5,12.1
		s-0.5,10.3-3.8,14.3s-8.2,6.3-13.4,6.3s-10.1-2.3-13.4-6.3s-4.7-9.2-3.8-14.3c0.9-5.1,4-9.5,8.5-12.1v15.1c0,2.3,0.9,4.5,2.6,6.2
		S198.9,306.3,201.2,306.3L201.2,306.3z M210.1,70h69.8c-12.7,22.8-26.5,50.3-34.9,67.5C236.6,120.3,222.8,92.8,210.1,70z
		 M288.7,262.5c2.3,0,4.5-0.9,6.2-2.6s2.6-3.9,2.6-6.2v-15.1c4.5,2.6,7.6,7,8.5,12.1s-0.5,10.3-3.8,14.3s-8.2,6.3-13.4,6.3
		s-10.1-2.3-13.4-6.3s-4.7-9.2-3.8-14.3c0.9-5.1,4-9.5,8.5-12.1v15.1c0,2.3,0.9,4.5,2.6,6.2S286.4,262.5,288.7,262.5L288.7,262.5z
		 M472.5,387.8l-38.2,15.3l0,0c-4.5,1.8-6.7,6.9-4.9,11.4s6.9,6.7,11.4,4.9l31.8-12.7v16.4l-61.2,27.2v-50.8l61.2-27.2L472.5,387.8z
		 M472.5,353.1l-61.2,27.2v-94.6l61.2-27.2V353.1z M472.5,239.3l-61.3,27.2v-50.8l61.2-27.2L472.5,239.3L472.5,239.3z M472.5,113.8
		v55.6l-61.3,27.1V80.3l19.3-10.1c11.3,0.5,21.9,5.3,29.7,13.4C468.1,91.7,472.5,102.5,472.5,113.8L472.5,113.8z M358.7,17.5h78.8
		c6.3,0,12,3.3,15.2,8.8s3.1,12.1,0,17.5s-8.9,8.8-15.2,8.8h-8.8c-1,0-2.1,0.2-3,0.6c-0.2,0.1-0.4,0.1-0.6,0.2
		c-0.2,0.1-0.3,0.1-0.4,0.2l-160.1,83.9c10.3-20.8,25.6-50.9,37.9-71.6l0.1-0.1c3.2-5.5,6-10,8.4-13.5c0.8-1.2,1.6-2.3,2.3-3.3
		C319.7,40.4,336.7,17.5,358.7,17.5L358.7,17.5z M317.8,17.5l-0.4,0.4c-1.9,1.7-3.6,3.4-5.3,5.1l-0.8,0.9c-1.6,1.7-3.1,3.4-4.5,5
		l-0.6,0.7c-1.4,1.6-2.6,3.2-3.7,4.6l-0.2,0.3c-1.1,1.5-2.2,2.9-3,4c-1.3,1.8-2.6,3.7-4.1,5.9c-0.4,0.7-0.9,1.5-1.4,2.2
		c-1.1,1.8-2.2,3.5-3.4,5.4c-0.1,0.2-0.2,0.4-0.4,0.6l-90-0.1c-0.1-0.2-0.2-0.4-0.4-0.6c-1.2-1.9-2.2-3.6-3.3-5.3
		c-0.5-0.7-1-1.6-1.4-2.2c-1.4-2.2-2.8-4.1-4.1-5.9c-0.8-1.1-1.8-2.4-2.9-3.8l-0.4-0.5c-1.1-1.4-2.4-3-3.7-4.6l-0.6-0.7
		c-1.4-1.6-2.9-3.3-4.5-5l-0.8-0.9c-1.7-1.8-3.4-3.4-5.3-5.1l-0.4-0.3L317.8,17.5z M52.5,17.5h78.8c8.1,0.2,15.9,2.9,22.4,7.7
		c8.9,6.6,16.7,14.7,23.1,23.8c0.7,1,1.5,2.1,2.4,3.3c2.4,3.5,5.2,8,8.4,13.4l0.1,0.1c12.2,20.7,27.5,50.8,37.9,71.6L65.3,53.5
		c-0.1-0.1-0.3-0.1-0.4-0.2c-0.1-0.1-0.4-0.1-0.6-0.2c-1-0.4-2-0.6-3.1-0.6h-8.8c-6.3,0-12-3.3-15.2-8.8s-3.1-12.1,0-17.5
		S46.3,17.5,52.5,17.5L52.5,17.5z M59.5,70.2l19.3,10.1v108.8l-61.2-20.4v-54.9c0-11.3,4.4-22.1,12.2-30.2
		C37.5,75.4,48.2,70.7,59.5,70.2L59.5,70.2z"/>
</g>
</svg>
