<?xml version="1.0" encoding="utf-8"?>
<!-- Generator: Adobe Illustrator 26.0.0, SVG Export Plug-In . SVG Version: 6.00 Build 0)  -->
<svg version="1.1" id="katman_1" xmlns="http://www.w3.org/2000/svg" xmlns:xlink="http://www.w3.org/1999/xlink" x="0px" y="0px"
	 viewBox="0 0 525.1 525.2" style="enable-background:new 0 0 525.1 525.2;" xml:space="preserve">
<g>
	<path d="M17.5,458.7v31.4c0,2.3,0.9,4.5,2.6,6.2s3.9,2.6,6.2,2.6h87.5v17.5c0,2.3,0.9,4.5,2.6,6.2s3.9,2.6,6.2,2.6h280
		c2.3,0,4.5-0.9,6.2-2.6s2.6-3.9,2.6-6.2v-17.5h87.5c2.3,0,4.5-0.9,6.2-2.6s2.6-3.9,2.6-6.2v-31.4l14.9-14.9l0,0
		c1.9-1.9,2.8-4.5,2.5-7.1l-17.5-166.2c-0.1-0.7-0.2-1.3-0.4-2L428.1,49.3c-1-2.6-3.3-4.6-6-5.2L393.7,37V8.8c0-2.3-0.9-4.5-2.6-6.2
		S387.2,0,384.9,0h-245c-4.8,0-8.8,3.9-8.8,8.8V37l-28.4,7.1l0,0c-2.7,0.7-5,2.6-6,5.2L17.8,268.4c-0.2,0.6-0.4,1.3-0.4,2L0.1,436.7
		c-0.3,2.6,0.6,5.2,2.5,7.1L17.5,458.7z M35,481.3v-17.5h65.3l11.7,17.5H35z M393.7,507.6H131.3v-17.5h262.5L393.7,507.6
		L393.7,507.6z M490,481.3h-77l11.7-17.5H490V481.3z M439.1,127.5l51,145.7L507,434.3l-12,12h-67.3l-16.6-149.2v-51L439.1,127.5z
		 M353.1,17.6h23.2v26.2c0,4,2.7,7.5,6.6,8.5l30.6,7.7l9.7,24.2l-62.6-13.9c-0.6-0.1-1.2-0.2-1.9-0.2h-71.3L353.1,17.6z M325.1,17.6
		l-62.6,50l-62.6-50H325.1z M111.5,60l30.6-7.7c3.9-1,6.7-4.5,6.7-8.5V17.6H172l65.6,52.5h-71.3c-0.6,0-1.3,0.1-1.9,0.2l-62.6,13.9
		L111.5,60z M167.2,87.6h60.3v166.2H245V87.6h26.2v183.8h17.5V87.6h69l69.1,15.4l-32.9,140.1c-0.1,0.7-0.2,1.3-0.2,2v52.5
		c0,0.3,0,0.6,0.1,1l17.1,154.3l-13.1,19.7H127.2l-13.1-19.7l17.1-154.3l0,0c0-0.3,0-0.6,0-1v-52.5c0-0.7-0.1-1.3-0.2-2L98,103
		L167.2,87.6z M34.8,273.3l12.9-36.9h23.8l7,35l-7,35H31.3L34.8,273.3z M22.2,393.8h56.6v-17.5H24l1.8-17.5h52.9v-17.5H27.6
		l1.8-17.5h49.2c4.2,0,7.7-2.9,8.6-7L96,273c0.2-1.1,0.2-2.3,0-3.4l-8.8-43.8c-0.8-4.1-4.4-7.1-8.6-7.1H53.7l32-91.3L113.6,246v51
		L97,446.2H29.7l-12-12L22.2,393.8z"/>
	<path d="M148.7,455.1h227.5c2.5,0,4.9-1,6.5-2.9c1.7-1.8,2.5-4.3,2.2-6.8l-8.8-87.5c-0.2-2-1.1-3.9-2.5-5.3l-35-35
		c-1.7-1.7-3.9-2.6-6.2-2.6H192.5c-2.3,0-4.5,0.9-6.2,2.6l-35,35c-1.4,1.4-2.3,3.3-2.5,5.3l-8.8,87.5c-0.2,2.5,0.6,4.9,2.2,6.7
		C143.9,454.1,146.3,455.1,148.7,455.1L148.7,455.1z M160.1,420.1h58.6v-17.5h-56.9l4-39.8l30.3-30.2h132.8l30.2,30.2l4,39.8h-30.6
		v17.5h32.4l1.8,17.5H158.4L160.1,420.1z"/>
	<path d="M315,175.1h70c2.3,0,4.5-0.9,6.2-2.6s2.6-3.9,2.6-6.2v-52.5c0-2.3-0.9-4.5-2.6-6.2s-3.9-2.6-6.2-2.6h-70
		c-4.8,0-8.8,3.9-8.8,8.8v52.5c0,2.3,0.9,4.5,2.6,6.2S312.7,175.1,315,175.1z M323.7,122.6h52.5v35h-52.5V122.6z"/>
	<path d="M297.5,402.6H315v17.5h-17.5V402.6z"/>
</g>
</svg>
