<?xml version="1.0" encoding="utf-8"?>
<!-- Generator: Adobe Illustrator 26.0.0, SVG Export Plug-In . SVG Version: 6.00 Build 0)  -->
<svg version="1.1" id="katman_1" xmlns="http://www.w3.org/2000/svg" xmlns:xlink="http://www.w3.org/1999/xlink" x="0px" y="0px"
	 viewBox="0 0 356.5 459.3" style="enable-background:new 0 0 356.5 459.3;" xml:space="preserve">
<g id="Hooded_top">
	<path d="M351.8,418.7l2.1-0.5c1.7-0.4,2.9-2.1,2.6-3.8l-35.1-250c-10.1-84.2-39.3-102.8-52.1-107l2.6-3.2c0,0,0.1-0.1,0.1-0.2
		c0.1-0.2,0.2-0.3,0.3-0.5l0.1-0.2c0.1-0.2,0.1-0.4,0.2-0.6c0-0.1,0-0.1,0-0.2c0-0.3,0-0.5,0-0.8c0,0,0-0.1,0-0.1
		c0-0.2-0.1-0.4-0.1-0.6c0,0,0-0.1,0-0.1L262,21.1c-6.8-23.9-75.1-21.3-83.8-20.8c-0.9,0-4.9-0.2-10.7-0.2l0,0
		c-1.9,0-3.4,1.5-3.4,3.5c0,1.9,1.5,3.4,3.4,3.4c6.4,0,10.6,0.2,10.6,0.2c0.1,0,0.2,0,0.4,0c27-1.4,70.8,1.5,76.6,14.8
		c-2.7,6-6.1,11.5-10.3,16.5c-28.9-8.7-63.7-8.4-66.4-8.3c-30-1.5-58.5,6-66.5,8.4c-4.2-5-7.7-10.6-10.3-16.6
		c2-4.5,8.6-8.2,19.2-10.8c1.9-0.4,3-2.2,2.6-4.1c-0.4-1.9-2.2-3-4.1-2.6c-0.1,0-0.1,0-0.2,0C104.9,8,96.7,13.6,94.5,21.1L84.2,50.9
		c0,0,0,0.1,0,0.1c-0.1,0.2-0.1,0.4-0.1,0.6c0,0,0,0.1,0,0.1c0,0.3,0,0.5,0,0.8c0,0.1,0,0.1,0,0.2c0,0.2,0.1,0.4,0.2,0.6
		c0,0.1,0.1,0.2,0.1,0.2c0.1,0.2,0.2,0.3,0.3,0.5c0,0,0.1,0.1,0.1,0.2l2.5,3.2c-12.9,4.2-42,22.8-52.1,106.8L0,414.4
		c-0.2,1.8,0.9,3.4,2.6,3.8l2.1,0.5l-4.3,26.5c-0.3,1.8,0.9,3.5,2.7,3.9l29.4,6.4c0.4,0.4,0.9,0.7,1.4,0.8c0.3,0.1,0.6,0.1,0.9,0.1
		c0.4,0,0.7-0.1,1.1-0.2l13,2.8c0.2,0.1,0.5,0.1,0.7,0.1c1.5,0,2.8-0.9,3.3-2.3l8.5-24.6l3.9,0.9c0.3,0.1,0.5,0.1,0.8,0.1
		c1.2,0,2.4-0.7,3-1.7l3.6-6.3h211l3.6,6.3c0.6,1.1,1.8,1.7,3,1.7c0.3,0,0.5,0,0.8-0.1l3.9-0.9l8.5,24.6c0.5,1.4,1.8,2.3,3.3,2.3
		c0.2,0,0.5,0,0.7-0.1l13-2.8c0.4,0.1,0.7,0.2,1.1,0.2c0.3,0,0.6,0,0.9-0.1c0.5-0.2,1-0.4,1.4-0.8l29.5-6.4c1.8-0.4,3-2.1,2.7-3.9
		L351.8,418.7z M209,87.5c0-2.6-0.1-5.3-0.2-8c0-1.9-1.6-3.4-3.5-3.4c-1.9,0-3.4,1.6-3.4,3.5c0,0.1,0,0.1,0,0.2
		c0.2,3.4,0.2,6.7,0.2,9.9c-5.2,1.6-9.6,2.6-12.8,3.3c5.4-12.1,17.4-23.1,27.7-28.4l1.3-0.7c0.4-0.1,0.8-0.3,1.1-0.5
		c1.8-0.8,3.6-1.7,5.4-2.4c6.1-2.7,12.4-5.4,18.3-10.7c6.1-5.5,11.2-12,15.1-19.1l7,20.1C247.4,70.6,225.6,81.5,209,87.5z M181.5,94
		H175c-5.2-15.1-19.9-29.2-32.4-35.6l-0.6-0.3l-1.6-5.9c9.5,1,29.4,3.2,37.9,3.3c7.6,0,28.2-2.2,37.8-3.3l-1.6,5.9l-0.6,0.3
		C201.3,64.9,186.7,78.9,181.5,94z M151.4,76.2c-1.9-0.1-3.5,1.4-3.6,3.3c-0.1,2.7-0.2,5.3-0.2,8c-16.7-5.9-38.5-16.8-56.2-36.2
		l7-20.1c2.7,4.9,6,9.5,9.7,13.7l0,0l0,0c1.7,1.9,3.5,3.7,5.4,5.4c5.9,5.3,12.2,8,18.2,10.7c1.8,0.8,3.7,1.6,5.6,2.5
		c0.2,0.1,0.5,0.3,0.8,0.4l1.5,0.7c10.3,5.3,22.3,16.3,27.7,28.4c-3.2-0.7-7.6-1.7-12.8-3.3c0-3.2,0.1-6.5,0.2-9.9
		C154.7,77.9,153.3,76.3,151.4,76.2L151.4,76.2z M178.1,37.1h0.2c0.4,0,33.3-0.5,61.1,7.1c-0.3,0.3-0.6,0.6-1,0.9
		c-4.8,4.4-10.1,6.8-15.7,9.2l1.5-5.2c0.5-1.8-0.6-3.7-2.4-4.3c-0.4-0.1-0.9-0.2-1.3-0.1c-0.3,0-32.7,3.8-42.1,3.8
		c-10.6-0.1-41.9-3.8-42.2-3.8c-1.9-0.2-3.6,1.1-3.8,3c-0.1,0.4,0,0.9,0.1,1.3l1.4,5.2c-5.6-2.5-10.9-4.9-15.7-9.2
		c-0.3-0.3-0.6-0.6-0.9-0.9C127.9,41.4,152.7,35.8,178.1,37.1z M11.5,420.3l10.5,2.5L16.3,445l-8.5-1.8L11.5,420.3z M38.2,426.7
		l-5.7,21.8l-9.5-2.1l5.7-22L38.2,426.7z M47.4,451.8l-8.2-1.8l5.7-21.7l9.8,2.4L47.4,451.8z M64.4,425.9l-36.9-8.8l-0.4-0.1
		c-0.2,0-0.3-0.1-0.5-0.1l-19.3-4.6L42,165.2c6.3-52.7,20.2-77.7,30.7-89.4C83.4,64,92.4,63.2,93.4,63.2
		c18,16.8,38.5,26.3,54.1,31.6c0.3,13.1,1.6,26.1,3.9,39c1.5,8.9,1.7,18,0.6,27c-0.5,3.7-1.3,7.3-2.6,10.9c-0.6,1.8,0.3,3.8,2.1,4.4
		c0.4,0.1,0.8,0.2,1.2,0.2c1.5,0,2.8-0.9,3.2-2.3c1.4-4,2.4-8.1,2.9-12.3c1.2-9.7,1-19.5-0.6-29.1c-2.1-11.8-3.4-23.7-3.8-35.6
		c5.8,1.8,11.6,3.1,17.6,4h0.4h1.1v287.6H65.6c-5.7-31-3.8-63.9-1.4-95l0.5-5.9c1.2-15.8,2.4-32,5.4-47.4l0.1-0.7
		c0.2-0.9,0.4-1.8,0.5-2.7c4.5-24.9,7.5-50.1,8.8-75.4c0.8-13.9,1.3-29,1.6-47.7c0-1.9-1.5-3.5-3.4-3.5h-0.1c-1.9,0-3.4,1.5-3.4,3.4
		c-0.3,18.6-0.8,33.6-1.6,47.4c-1.3,25-4.2,49.9-8.6,74.6c-0.2,0.9-0.3,1.8-0.5,2.6l-0.1,0.7c-3.1,15.8-4.3,32.3-5.6,48.2l-0.5,5.9
		c-2.5,32.5-4.5,67,2,99.7l0,0l0,0c0,0.1,0,0.1,0,0.2l7.7,28.4L64.4,425.9z M67.2,395.5h106.5v22.9H73.4L67.2,395.5z M289.5,421.3
		l7.5-27.6l0.2-0.8c0-0.1,0-0.1,0-0.2c6.5-32.7,4.5-67.1,2-99.7l-0.5-5.9c-1.2-16-2.5-32.4-5.5-48.2l-0.1-0.7
		c-0.2-0.9-0.3-1.8-0.5-2.7c-4.5-24.7-7.4-49.6-8.7-74.6c-0.8-13.8-1.3-28.8-1.6-47.3c-0.1-1.9-1.8-3.3-3.7-3.2
		c-1.8,0.1-3.2,1.6-3.2,3.3c0.3,18.6,0.8,33.7,1.6,47.6c1.3,25.3,4.2,50.6,8.8,75.5c0.2,0.9,0.3,1.8,0.5,2.7l0.1,0.7
		c3,15.4,4.2,31.7,5.5,47.4l0.5,5.9c2.4,31.1,4.3,64-1.4,95h-0.2H268c-1.9,0-3.4,1.5-3.4,3.5c0,1.9,1.5,3.4,3.4,3.4h21.4l-6.2,22.9
		H180.6v-22.9h40.2c1.9,0,3.4-1.5,3.4-3.5c0-1.9-1.5-3.4-3.4-3.4h-40.2V100.9h3.5h0.4c6-0.9,11.8-2.2,17.6-4
		c-0.4,11.9-1.6,23.8-3.8,35.6c-1.6,9.6-1.8,19.4-0.6,29.1c0.5,4.2,1.5,8.3,2.9,12.3c0.5,1.4,1.8,2.3,3.2,2.3c0.4,0,0.8-0.1,1.2-0.2
		c1.8-0.6,2.7-2.6,2.1-4.4c-1.2-3.5-2.1-7.2-2.5-10.9c-1.1-9-0.9-18.1,0.6-27c2.3-12.9,3.6-25.9,3.9-39
		c15.6-5.3,36.1-14.8,54.1-31.6c1.2,0.1,10.2,0.9,20.7,12.6c19.1,21.2,27.2,60.3,30.8,89.4l34.6,247l-19,4.5c-0.3,0-0.5,0-0.8,0.1
		c-0.2,0.1-0.5,0.1-0.7,0.3l-36.6,8.8L289.5,421.3z M324,448.5l-5.7-21.8l9.5-2.3l5.7,22L324,448.5z M301.8,430.6l9.8-2.4l5.6,21.7
		l-8.2,1.8L301.8,430.6z M340.3,445l-5.8-22.1l10.5-2.5l3.7,22.8L340.3,445z"/>
	<path d="M252.9,258.7c-1.8,0.7-2.7,2.7-2,4.4c0,0,0,0,0,0l32.2,82.8c0.5,1.3,1.8,2.2,3.2,2.2c0.4,0,0.9-0.1,1.2-0.2
		c1.8-0.7,2.7-2.7,2-4.4c0,0,0,0,0,0l-32.2-82.8C256.7,258.9,254.7,258,252.9,258.7C252.9,258.7,252.9,258.7,252.9,258.7z"/>
	<path d="M142.9,7.8h0.3l1.1-0.1c1.9-0.1,3.3-1.8,3.2-3.7c-0.1-1.9-1.8-3.3-3.7-3.2c0,0,0,0-0.1,0L142.6,1c-1.9,0.2-3.3,1.9-3.1,3.8
		C139.7,6.5,141.2,7.8,142.9,7.8L142.9,7.8z"/>
	<path d="M68.9,347.9c0.4,0.2,0.8,0.2,1.2,0.2c1.4,0,2.7-0.9,3.2-2.2l32.2-82.8c0.7-1.8-0.2-3.8-2-4.5s-3.8,0.2-4.5,2l0,0
		l-32.2,82.8C66.2,345.3,67.1,347.3,68.9,347.9C68.9,347.9,68.9,347.9,68.9,347.9z"/>
	<path d="M245,388.6h-1.1c-1.9,0-3.4,1.5-3.4,3.5c0,1.9,1.5,3.4,3.4,3.4h1.1c1.9,0,3.4-1.5,3.4-3.5
		C248.4,390.1,246.9,388.6,245,388.6z"/>
</g>
</svg>
