<svg xmlns="http://www.w3.org/2000/svg" viewBox="0 0 512 509.19"><g id="katman_2" data-name="katman 2"><g id="katman_1-2" data-name="katman 1"><path d="M0,427.21C2.92,416,6,404.83,8.74,393.57Q34,289.28,59.16,184.93c3.79-15.69,10-30.32,19.53-43.42,3.92-5.37,10.36-5.91,13-.71,1,2,1.34,5.78.14,7.38-15,19.9-18.87,43.77-24.52,67Q44.26,310,21.39,404.88c-.15.63-.22,1.28-.43,2.62l62.88,15.24c1.35-5.29,2.64-10.23,3.85-15.19,3-12.45,6.11-24.89,9-37.37a39.75,39.75,0,0,0,.85-8.92q.08-77,0-154a54.34,54.34,0,0,1,.24-6c.46-4.1,3-6.37,7-6.49,4.2-.12,7,2.16,7.48,6.47.37,3.13.36,6.3.55,9.91h66c4.11-21.31,8.16-42.33,12.31-63.9-4.67-2.92-10.52-5.88-15.52-9.88-8.95-7.16-17.51-14.81-25.94-22.58-2.29-2.11-4.09-3-6.9-1.65q-13,6.19-26.1,12.27c-2.21,1-4.88,2.82-6.78,2.29a11.31,11.31,0,0,1-6.45-5.26c-1.64-3.35.31-6.68,3.47-8.42,8.15-4.48,16.44-8.68,24.72-12.92,1.75-.89,3.66-1.45,5.51-2.17-2.13-5.21-4.55-10-6-15-5.72-19.26,1-35.07,14.69-48.38,16.92-16.45,38.09-24.86,60.61-29.83C246.24-3.12,285.8-2,324.64,11.21,342,17.13,358,25.64,370.23,39.79c15,17.31,16.51,34.92,4.91,54.6-.67,1.14-1.29,2.3-2,3.61,6.31,2.81,12.64,5.23,18.6,8.35,32.47,17,52.65,43.49,61.23,79.06q28.59,118.67,57.35,237.27a40,40,0,0,0,1.7,4.53v8c-2.93,7.94-8.82,11.74-17,13.53-17.87,3.94-35.61,8.5-53.4,12.78-12.44,3-19.8-1.51-23-14-1.12-4.38-2.22-8.77-3.34-13.15-.85,14.68-1,29.17-.76,43.65.11,6-1.46,10.51-7.19,12.87-10.1,4.18-19.95,9.43-30.44,12.13-28,7.2-56.69,7.29-85.38,4.45-9.45-.94-10.67-2.39-10.69-11.85V480.78H231.16c0,6.24.09,12.06,0,17.88-.11,5.43-2.44,8.26-7.73,8.51-15.13.72-30.27,1.17-45.41,1.64a14.63,14.63,0,0,1-4.93-.63,6.77,6.77,0,0,1-5.06-7.63c.32-3.54,2.31-5.89,5.91-6.41a53.66,53.66,0,0,1,6.48-.18l35.47-.66V281.63h-103a20.31,20.31,0,0,0-.3,2.35q0,95.5.09,191c0,1.69,1.5,4.33,3,4.91,8.62,3.45,17.4,6.47,26.17,9.54,4.76,1.67,7.15,5.22,6.07,9.42s-5.07,6.3-9.94,5.13c-12.19-2.93-23.91-7-34.6-13.81-4.14-2.63-5.88-5.89-5.83-10.69.14-13.67,0-27.34,0-41v-4A74.93,74.93,0,0,0,93.22,448c-3,11.81-10.65,16.51-22.37,13.69-18-4.32-35.84-8.95-53.88-12.92C8.8,447,3,443.12,0,435.21ZM231.52,161.64V431h49.31v-5.88q0-33,0-66a35.77,35.77,0,0,1,.21-5.49c.62-3.84,3.38-6.39,6.86-5.9,2.59.36,5.4,2.72,7.08,5,1.18,1.59.82,4.48.82,6.79q.06,63.75,0,127.51c0,1.92.15,3.84.24,5.76,21.39,2,42.17,1.8,62.85-1.26,12.55-1.85,24.81-4.77,36.24-10.64,3.25-1.67,4.34-3.73,4.34-7.38q-.18-93.27-.1-186.53c0-1.77-.16-3.53-.26-5.47H295.84c0,11.68,0,23.13,0,34.58,0,8-2.49,11.76-7.71,11.67s-7.28-3.55-7.29-11.43V159.86C264.17,165.17,248,164.61,231.52,161.64ZM491,407.52c-.26-1.39-.4-2.35-.63-3.28q-22.92-94.85-45.93-189.66c-4.38-17.89-7-36.34-16.22-52.77C414,136.41,393,119.71,364.9,112.06a6.39,6.39,0,0,0-4.76,1.07c-12.84,9.46-25.51,19.15-38.37,28.57-2.23,1.63-2.92,2.75-2.15,5.6,2.81,10.44,5.52,20.92,7.64,31.51s3.55,21.58,5.29,32.44h67c0-3.31-.17-6.29,0-9.24.32-4.45,2.83-7.06,7.35-7.27,4-.19,6.86,2.71,7.34,7.25a52.89,52.89,0,0,1,.14,5.49q0,77,0,154a40.28,40.28,0,0,0,.9,8.91c2.48,10.86,5.16,21.68,7.8,32.51,1.6,6.55,3.28,13.08,5,19.86ZM255.91,43.29c-5.5,0-11-.38-16.48.07-13.64,1.13-27.14,3.21-39.63,9.25-17.1,8.28-23.3,22.44-16.3,40.09,10.58,26.69,29.73,45,57.15,54.07,9.34,3.09,19,3.55,28.35-.63,24.37-10.92,44.29-27.11,57.39-50.64,9.79-17.59,4.48-33.36-13.47-42.51a59.42,59.42,0,0,0-6.86-3C289.84,44.22,273,42.86,255.91,43.29Zm-72.26,80.42c-1.43-2-3.16-3.9-4.23-6.11-4.11-8.48-9.13-16.74-11.77-25.69-5.92-20.1,1.37-38,19.23-49a84.46,84.46,0,0,1,18.51-8.48c23.75-7.6,48.22-7.53,72.72-5.62,15,1.17,29.62,4.46,43.09,11.59,17.66,9.35,26.61,24.65,24.65,43.06-1.22,11.36-6.48,21.22-13,30.41-.68,1-1.19,2-1.78,3,13.63-9.23,25.83-19.67,33.68-34.25,4.45-8.27,4.22-16.63-.19-24.85-7-13-18.47-21-31.42-26.66-46.5-20.34-93.92-21-141.76-5.2-14,4.62-26.9,11.57-37.25,22.49-10.88,11.48-12.86,24.44-5.73,38.52C156.32,102.65,168.81,114.19,183.65,123.71Zm-70.8,142.21H216V227.05H193.6c0,3.56.21,6.73,0,9.85-.44,5.15-3.58,8.26-7.75,8.09s-7-3.44-7.12-8.61c-.07-3.09,0-6.19,0-9.33H112.85ZM296,266h103V227H333.33c0,3.39.06,6.38,0,9.36-.13,5.17-2.88,8.44-7.13,8.61s-7.26-3-7.76-8.09c-.31-3.26-.32-6.55-.48-10H296Zm21-54.63c-2.22-20.82-5.84-40.69-11.89-60.11-9.29,2.82-9.29,2.82-9.29,11.81v48.3ZM231.45,465.06h48.93v-18.3H231.45Zm-15.3-253.72c0-17.45,0-34.54-.09-51.63A4,4,0,0,0,214,157c-2.47-1.17-5.12-2-8.87-3.3-3.73,19.56-7.32,38.36-11,57.68Zm-135.9,226L17.5,422.12c-.46,1.4-.81,2.32-1.07,3.26-1.94,7.22-1.93,7.2,5.46,9,15.66,3.79,31.28,7.71,47,11.36C78.74,448,77.58,449.85,80.25,437.35Zm351.48,0c.36,1.8.56,2.94.83,4.06,1.56,6.46,1.57,6.47,8.18,4.89q23.73-5.69,47.45-11.41c9.75-2.36,9.74-2.39,6.65-11.92-.08-.25-.49-.39-.93-.71Z"/><path d="M198.16,419.9c-.21,9.66-3.31,14.91-9.36,18.14a16.11,16.11,0,0,1-18.29-1.44,83.46,83.46,0,0,1-8.35-7.85c-9.43-9.39-18.91-18.73-28.2-28.25-7.5-7.68-7.71-17.94-.81-25s17.58-7.17,25.35.44c11.4,11.17,22.8,22.37,33.78,34C195.39,413.17,197,417.87,198.16,419.9ZM145.63,385c-.78.7-1.92,1.32-1.85,1.73a7.35,7.35,0,0,0,1.43,3.83q16.13,16.35,32.5,32.43c1,1,3,.86,4.57,1.25-.43-1.54-.39-3.55-1.37-4.55-10.59-10.82-21.33-21.49-32-32.17A35.34,35.34,0,0,0,145.63,385Z"/><path d="M313.74,420.27c1.16-2.16,2.5-6.67,5.39-9.72,11.33-11.94,23-23.54,34.82-35,7.37-7.18,17.72-7.11,24.63-.32s7.19,17.27.06,24.63q-17.36,17.93-35.29,35.29c-5.5,5.34-12.25,6.6-19.35,3.3C317.35,435.33,314.14,429.82,313.74,420.27ZM369,387.75c-.59-.8-1.18-2-1.5-1.95-1.46.3-3.22.59-4.21,1.56q-16.15,15.88-32,32.07c-1.06,1.09-1.07,3.21-1.56,4.86,1.67-.55,3.81-.62,4.94-1.73,10.69-10.43,21.22-21,31.77-31.62A39.59,39.59,0,0,0,369,387.75Z"/><path d="M255.91,107.25c-3,0-6,0-9,0-10.55-.25-18-7.24-18-17.83A35.33,35.33,0,0,1,231.61,75c2.65-5.84,8.4-8.37,14.76-8.61s12.64-.33,18.94,0c11.85.6,18.28,8.53,18,21.68-.27,11.85-7.29,19-18.91,19.16C261.56,107.29,258.73,107.25,255.91,107.25Zm0-15c2.49,0,5-.12,7.47,0,3.73.21,4.92-1.62,4.94-5.12s-.71-5.89-4.83-5.84c-4.48.06-9,.14-13.43,0-4.16-.17-6.53.88-6.49,5.76s2.57,5.48,6.37,5.22C252,92.14,254,92.25,255.94,92.25Z"/></g></g></svg>