<?xml version="1.0" encoding="utf-8"?>
<!-- Generator: Adobe Illustrator 26.0.0, SVG Export Plug-In . SVG Version: 6.00 Build 0)  -->
<svg version="1.1" id="katman_1" xmlns="http://www.w3.org/2000/svg" xmlns:xlink="http://www.w3.org/1999/xlink" x="0px" y="0px"
	 viewBox="0 0 39.1 57" style="enable-background:new 0 0 39.1 57;" xml:space="preserve">
<g id="Layer_8">
	<path d="M39,49.7c0.2-4.9,0-9.8-0.3-14.7c0.3-5-0.5-12.5-2.4-22.1c-0.9-3.3-3.6-5.4-8-6.3c0.2-1.8-0.3-3.6-1.4-5
		c-1.1-1.7-4.2-2-9.6-0.8l0,0C11.1,2,6.3,3.9,7.2,8.5c-3.8,1.6-5.8,3.8-5.7,6.6C1,21.9,0.8,27.2,0.6,32.7C0.2,35.7,0,44.1,0,50.4
		c0,0.2,0.1,0.3,0.2,0.4C1,51.3,2,51.5,2.9,51.5c0.7,0.1,1.5-0.1,2.2-0.4c0,0.2-0.1,0.4-0.1,0.6c1.2,2.8,4.1,4.2,7.3,4.2
		c0.4,0,0.8-0.1,0.8-0.5c0-0.8,0-1.7,0-2.5c0.1,1.1,0.1,2.2,0.2,3.4c0,0.3,0.2,0.5,0.5,0.5C14.8,57,15.9,57,17,57
		c7.5,0,12.3-2,13.5-6.3c-1.7-7.8-2.2-13.7-1.6-17.5c0-0.7,0-1.5,0-2.2c0.1-3.5,0.2-6.7,0.4-9.5c0.7,3.6,1.3,7.3,1.9,11
		c0,0,0,0.1,0,0.1c0,0,0,0.1,0,0.1c-0.1,3.1,0.1,9.9,0.8,20.3c0,0.1,0.1,0.3,0.2,0.4c1.5,1.1,4,1.1,6,0.7c0.2,0,0.4-0.2,0.4-0.4
		c0.2-1,0.2-2.2,0.3-3.4C39.1,50.1,39.1,49.9,39,49.7z M38,49.3c-1.7-0.4-3.6-0.2-5.1,0.7c-0.4-6.1-0.6-10.7-0.6-13.9h0.5
		c1.6,0.1,3.2-0.6,4.2-1.9c0.2-0.2,0.1-0.5-0.1-0.7c0,0,0,0,0,0c-0.2-0.2-0.5-0.1-0.7,0.1c-0.8,1.1-2,1.5-3.9,1.4c0-0.8,0-1.4,0-2
		c2-0.1,3.9-0.8,5.4-2.2c0.1,1.4,0.1,2.7,0,4.1C38,39.8,38.1,44.6,38,49.3L38,49.3z M27.2,6.6c-2.2,1-4.6,1.7-7,2.1
		c3.3-1.6,5.5-3.5,6.3-5.6C27.1,4.1,27.4,5.4,27.2,6.6z M14.1,9.4c-1.7-0.5-1.9-1.4-1.9-2.2c1-0.9,3.3-0.9,6.7,0.1
		c-0.8,0.7-1.7,1.4-2.6,1.9C15.5,9.5,14.8,9.5,14.1,9.4z M17.4,1.8c5.8-1.3,7.9-0.7,8.6,0.2c-0.6,2.2-2.6,4.1-6.1,5.8
		C20,7.7,20,7.6,20.1,7.5l0.1-0.1c0.7-0.8,1.4-1.8,1.8-2.8c0.3-2.7-1.8-2.4-4.6-1.2c-0.2,0.1-0.3,0.4-0.2,0.7
		c0.1,0.2,0.4,0.3,0.6,0.2c2.7-1.1,3.4-1,3.2,0c-0.4,0.8-0.8,1.5-1.4,2.2c-4.3-1.4-7-1.3-8.3,0.1c-0.4,1,0,2.2,0.9,2.9
		c-2,0.1-3.4-0.2-4.1-1C7.2,4.5,11.8,3,17.4,1.8z M1,50.1c0-0.8,0-1.7,0-2.6c0.9,0.4,1.9,0.5,2.9,0.6c0.2,0,0.4,0,0.7,0
		c-0.1,0.8-0.2,1.5-0.3,2.3C3.1,50.6,2,50.5,1,50.1z M7.1,33.1c0.1-1.7,0.2-3.3,0.1-5c0.1,1.2,0.3,2.3,0.4,3.4
		c-0.4,4.2-0.9,8.3-1.4,12.3C6.7,40.3,7,36.7,7.1,33.1L7.1,33.1z M12,55c-2.4,0-4.7-1.2-6-3.2c1.1-6.4,2-13.1,2.6-20.2
		C8.2,27,7.4,22.5,6.3,18.1c0-0.1,0-0.3-0.1-0.4C6,17,5.9,16.4,5.7,15.8c-0.1-0.3-0.4-0.4-0.6-0.4c-0.3,0.1-0.4,0.4-0.4,0.6
		c0.2,0.8,0.4,1.5,0.6,2.2c0.9,4.9,1.1,9.9,0.8,14.9c0.1,2.2-0.4,6.9-1.4,13.9c-1.3,0.2-2.6,0-3.7-0.6c0.1-5.4,0.3-11.2,0.6-13.7
		v-1.3c0.7,0.2,1.4,0.3,2.2,0.4c0.4,0,0.8,0,1.2-0.1c0.3-0.1,0.5-0.3,0.4-0.6c-0.1-0.3-0.3-0.5-0.6-0.4c-1,0.2-2.1,0.1-3.1-0.3
		c0.1-4.7,0.4-9.5,0.7-15.3c0-2.4,1.7-4.3,5.2-5.7c0.7,0.6,1.6,1,2.5,1.1C9.1,17,9.3,23.6,10.8,30c0.1,0.3,0.4,0.4,0.6,0.4
		c0.3-0.1,0.4-0.4,0.4-0.6c-1.5-6.3-1.7-12.8-0.7-19.2c0.9,0,1.9,0,2.8-0.2c0.2,0,0.5,0.1,0.7,0.1c-1.3,10-2.1,20-2.4,30.1l0,0
		C12.1,45.1,12,49.9,12,55L12,55z M29.9,11.1c-0.6,2.3-1,4.5-1.2,6.9c0,0,0,0.1,0,0.1c-0.4,3.5-0.7,7.7-0.8,12.7
		c-3.1,2.6-6.8,4.4-10.7,5.5c-0.3,0-0.5,0.3-0.4,0.6c0,0.3,0.3,0.5,0.6,0.4c3.8-1,7.4-2.7,10.6-5.1c0,0.3,0,0.7,0,1
		c-0.2,1.3-0.3,2.5-0.3,3.8c-1.8,1-3.9,1.3-6,1.1c-0.3,0-0.5,0.2-0.5,0.4c0,0,0,0,0,0c0,0.8,1.2,0.5,1.8,0.6c1.7,0,3.3-0.4,4.8-1.1
		c0.2,4.3,0.8,8.6,1.8,12.8c-1.5,3.9-6.7,5.7-15.2,5.2c-0.4-7.2-0.7-12.5-0.9-15.4c0.2-10.1,1-20.1,2.4-30.1c0.3,0,0.5-0.1,0.9-0.1
		c1.4-0.1,2.6-0.3,3.9-0.6c-2,6.2-2.5,13.8-1.5,22.5c0,0.3,0.2,0.4,0.5,0.4c0.3,0,0.5-0.2,0.5-0.5c0,0,0,0,0-0.1
		c-1-8.9-0.5-16.5,1.6-22.6c2.2-0.4,4.3-1.1,6.3-2c4.2,0.8,6.7,2.7,7.5,5.6c1.2,5.7,2,11.5,2.4,17.3c-0.2-0.2-0.5-0.3-0.7-0.1
		c0,0,0,0,0,0c-1.4,1.1-3,1.7-4.8,1.8c-0.7-4.7-1.5-9.4-2.5-13.9c0.2-2.3,0.6-4.5,1.2-6.7c0-0.3-0.2-0.5-0.5-0.5
		C30.1,10.9,30,11,29.9,11.1z M33,52.8c0-0.6-0.1-1.2-0.1-1.7c1.5-0.9,3.3-1.1,5-0.7c-0.1,1.1-0.2,2.1-0.3,2.9
		C36.1,53.7,34.5,53.5,33,52.8z"/>
</g>
</svg>
