<svg xmlns="http://www.w3.org/2000/svg" viewBox="0 0 509.52 512"><g id="katman_2" data-name="katman 2"><g id="katman_1-2" data-name="katman 1"><path d="M272,0c10.2,1.32,20.46,2.33,30.6,4,19,3.18,37.27,8.75,53.54,19.5,24.76,16.34,32.78,40.15,23.12,68.15-.65,1.87-1.27,3.75-1.77,5.22,12.58,7.63,25,15,37.27,22.66,4.09,2.54,7.78,5.71,11.72,8.51,11.3,8,18.73,18.36,23.6,31.69,23.55,64.43,41.51,130.26,52.05,198.06,1.66,10.7,3.35,21.4,4.38,32.16.43,4.51-.87,9.18-1.3,13.78-.29,3.06-1,6.21-.54,9.19,1.3,8.88,3.24,17.68,4.58,26.56,1.45,9.56-2.15,17.22-10.48,21.95a75.2,75.2,0,0,1-42.31,9.49c-8.86-.53-16.56-7.51-18.44-16.51-1.65-8-2.56-16.12-4.3-24.08a15,15,0,0,0-4.19-7.29A37,37,0,0,1,419,405.28q-14.83-53.88-29.83-107.72a7.16,7.16,0,0,0-2-3.6v22.55q0,20.25,0,40.49c0,7.12-2.62,10.68-7.68,10.57-4.85-.11-7.47-3.71-7.48-10.37v-120c0-6.36,2.07-9.58,6.47-10.22,4.64-.68,7.58,1.9,9.34,8.28Q410.4,317.06,433,398.83c3.81,13.81,9.51,17.71,23.65,15.46a200.8,200.8,0,0,0,21.46-4.47c10.27-2.82,14.32-9.29,13.05-19.82-9.51-78.53-28.92-154.6-57.08-228.47-.46-1.21-1-2.38-1.74-4-16.36,9-29.13,20.77-35.22,38.69-.37,1.1-.63,2.24-1,3.33-1.71,4.68-5.44,6.7-9.75,5.35-3.9-1.23-5.84-5.1-4.69-9.67a68.41,68.41,0,0,1,19.65-33.62c6.38-6,13.6-11.14,21-17.09-15.25-13.44-33.05-23.82-51.78-33.24a20.09,20.09,0,0,0-1.91,2.21A139.51,139.51,0,0,1,320.31,159c-2.93,1.69-3.65,3.65-3.63,6.79.12,21,.07,42,0,63a23,23,0,0,1-.53,5.93c-1,3.66-3.61,5.51-7.42,5.38a6.82,6.82,0,0,1-7-5.91,28.42,28.42,0,0,1-.34-5.47q0-27,0-54v-6c-4.44,1.45-8.23,2.54-11.87,4-.9.36-1.56,1.85-1.89,3a12.15,12.15,0,0,0-.09,3.47V470.47c9.9-1.55,19.38-2.25,28.42-4.62a390.49,390.49,0,0,0,39.85-12.62C366.9,449,372,439.87,372,428c0-12,0-24,0-36,0-5.87,2.74-9.23,7.38-9.36,4.94-.14,7.74,3.17,7.76,9.4,0,12.33,0,24.66,0,37a41.28,41.28,0,0,1-9.77,27.14,8.77,8.77,0,0,0-2,4.84c-.34,10.12-5.4,17.66-12.76,23.94-11.26,9.61-24.64,15.24-38.72,18.88-11.89,3.07-24.1,4.89-36.16,7.28a27.41,27.41,0,0,0-2.8.86h-8c-3.84-2.79-5-6.6-4.8-11.24.26-6.47.07-13,.07-19.45V467.8h-35c0,11.35-.15,22.61.07,33.87.09,4.6-1.17,8.11-5.32,10.33h-7c-10.61-2-21.31-3.57-31.8-6.08-16.27-3.9-32-9.43-45.26-20.1-8.13-6.53-13.51-14.63-13.85-25.48a6.05,6.05,0,0,0-1.33-3.57c-8.26-9.3-10.53-20.38-10.49-32.44.15-41.33.06-82.67.06-124v-5.19a8.16,8.16,0,0,0-2.4,4.41Q105.3,352.22,90.76,404.91c-2.09,7.6-5.68,14.1-11.94,19.15-1.46,1.18-2.39,3.5-2.77,5.45-1.53,7.84-2.67,15.75-4.12,23.61-1.8,9.76-9.58,17.3-18.93,17.84a77.22,77.22,0,0,1-41.45-9C2.66,457.17-1.37,448.24.41,438.33c1.66-9.17,3.44-18.32,5-27.51.29-1.69-.21-3.52-.4-5.29C4.4,399.8,3,394,3.32,388.35c.53-8.78,2.17-17.51,3.49-26.23A1004.06,1004.06,0,0,1,63.2,150.81,36.09,36.09,0,0,1,73.32,136.3c16.48-14.53,34.8-26.25,54.29-36.24,1.57-.81,3.12-1.67,4.76-2.55-.78-2.2-1.41-3.91-2-5.63-9.79-28.11-1.61-52.28,23.34-68.54C169.9,12.79,188,7.21,206.83,4.07,217.14,2.36,227.57,1.33,238,0ZM139.63,111.42c-15.83,6.33-45.94,25.85-52.34,33.83.08.13.13.31.25.39l3.8,2.39c14.51,9.25,26.23,21,33.12,37.05A56.87,56.87,0,0,1,128.14,197c.73,3.89-1.25,6.93-5.16,8s-7.28-.25-9-4.21c-.75-1.66-1.16-3.46-1.76-5.19-6.08-17.7-18.84-29.12-34.71-37.91a13.09,13.09,0,0,0-1.17,1.8A974.93,974.93,0,0,0,18.12,391.75c-1,8.16,3.28,15,11.27,17.23a234.16,234.16,0,0,0,25.78,5.66C66.35,416.49,72.94,411.91,76,401Q94,335.79,112,270.61q5.12-18.53,10.25-37c1.21-4.35,3.81-7.14,8.62-6.54s6.57,4,6.73,8.49c0,1.49,0,3,0,4.5q0,93.24-.07,186.49c0,13.38,5.4,23,18,27.62a338,338,0,0,0,34.64,11c10.22,2.56,20.82,3.65,31.85,5.5V325.17a22.91,22.91,0,0,1,.19-5c.91-4,3.41-6.49,7.76-6.29s6.68,2.65,7.13,6.89a48.83,48.83,0,0,1,.1,5q0,60,0,120v6.38h35V132.38c0-7.79.92-8.93,8-11.91,15.82-6.71,30.67-14.67,39.67-30.4a7.21,7.21,0,0,1,10-2.7c3.61,2,5.32,6.58,2.83,10.31-3.86,5.76-7.66,12.08-13,16.25-8.83,6.91-18.88,12.28-28.36,18.38-1.41.9-3.52,2.22-3.58,3.43-.34,6.94-.17,13.91-.17,21a11.8,11.8,0,0,0,2-.21c6.53-2.12,13.84-3.2,12.3-13.32-.27-1.84,3.36-5.64,5.69-6.11s5.39,1.9,8,3.31c.81.44,1.14,1.78,1.9,3.06,4.43-3.36,8.72-6.26,12.62-9.61,16.42-14.11,30-30.28,36.08-51.64,4.91-17.27.12-31.48-13.87-42.65-9.26-7.4-19.86-12.27-31.12-15.45-40.77-11.49-81.88-11.7-123.08-2.65-14.21,3.13-27.77,8.26-39.59,17.12C143.34,50,138.08,65,143.65,83.11c8.14,26.46,26.44,44.87,48.7,60.46,2-4.72,4.66-8,10-6.76,5.73,1.4,5.93,6,5.76,10.7a4.51,4.51,0,0,0,0,2c.6,1.19,1.18,2.82,2.22,3.3,3.58,1.65,7.36,2.89,11.68,4.52,0-6.45-.22-12.24.08-18,.19-3.8-.67-6.09-4.6-7.48a68.24,68.24,0,0,1-11.54-5.9c-11.76-7-22.28-15.27-28.87-27.62-2.38-4.45-1.28-8.73,2.51-10.87s7.84-.84,10.66,3.33a73.55,73.55,0,0,0,5.8,8.11c9,10,20.49,16.33,32.79,21.31,7.72,3.13,8.35,3.94,8.36,12.1q0,77.76,0,155.5a33.58,33.58,0,0,1-.15,4.49c-.57,4.06-3.19,6.26-7.07,6.49a7,7,0,0,1-7.48-5.4,19.63,19.63,0,0,1-.46-5.43q0-43.26,0-86.5V173.19l-13.95-4.46c0,11.3,0,21.79,0,32.28s.08,21-.07,31.5c-.06,4.68-3.19,7.63-7.48,7.63s-7.24-3-7.55-7.64c-.09-1.33,0-2.66,0-4,0-21,.07-42-.11-63,0-1.92-1.08-4.73-2.56-5.6C169.67,147.75,152.57,132,139.63,111.42ZM18.82,422.69c-1.11,6-2.8,12.78-3.4,19.67-.18,2.08,2.18,5.35,4.24,6.47a58.41,58.41,0,0,0,30.23,6.95c2.29-.08,5.94-2.22,6.46-4.11,1.89-6.78,2.72-13.87,3.83-20.2Zm430.59,8.78c1,6,2,12.33,3.19,18.68.68,3.81,3.06,5.8,6.93,5.8a67.66,67.66,0,0,0,30.32-6.89c3.22-1.57,4.89-4,4.29-7.59-1.09-6.49-2.3-13-3.33-18.73ZM155.34,471.54C174.4,487.93,197.79,492.2,222,496c0-2.18,0-3.81,0-5.45s-.15-3.22-.25-5.16C198.87,483.36,176.78,479.06,155.34,471.54Zm199-.44a10.28,10.28,0,0,0-1.85.37C334,478.63,314.81,482.3,295.3,484.7c-8.36,1-8.36,1.06-7.58,9.66a6.18,6.18,0,0,0,.77,1.62C312,492.05,335.48,487.91,354.29,471.1Z"/><path d="M327.7,357.2c4.43.06,7.24,3.35,7.42,8.8.53,15.78,4.44,30.54,13.39,43.7,2.42,3.56,5.41,6.73,8.13,10.09,3.14,3.89,3.08,8.19-.14,11.12s-7.5,2.8-11.06-.92c-17.28-18.07-25.22-39.89-25.41-64.67C320,360.47,323.44,357.15,327.7,357.2Z"/><path d="M189.63,367.52c-1.06,22.75-8,42.48-22.51,59.28a29.11,29.11,0,0,1-4.57,4.58c-3.24,2.37-6.63,2.16-9.55-.62s-3.23-6.22-1.09-9.53c1.52-2.35,3.7-4.27,5.46-6.48,10.18-12.76,15.49-27.41,16.69-43.61.14-1.83.12-3.67.25-5.5.38-5.25,3.59-8.64,7.95-8.43,4.2.21,7.1,3.57,7.36,8.57C189.67,366.61,189.63,367.44,189.63,367.52Z"/><path d="M254.83,94.73c-3.49,0-7,.14-10.46,0-4.94-.24-8.21-3.36-8.26-7.56s3.22-7.5,8.13-7.62c7.13-.18,14.28-.2,21.41,0,4.78.15,7.63,3.19,7.66,7.45s-2.82,7.32-7.53,7.66c-3.63.25-7.3,0-10.95,0Z"/></g></g></svg>