<svg xmlns="http://www.w3.org/2000/svg" viewBox="0 0 359.7 384"><g id="katman_2" data-name="katman 2"><g id="katman_1-2" data-name="katman 1"><path d="M117.63,0H242.14c1,.25,1.9.57,2.86.73,16.91,2.8,30.87,16.64,32.67,33.1.49,4.53-.71,9.25-1.15,14,5.46,1.5,11.28,2.91,17,4.71C315,59.3,331.15,72,338.2,94.13a120.69,120.69,0,0,1,5.06,23.35c1.81,16.89,2.85,33.86,4.15,50.8q3.27,42.6,6.47,85.21c1.91,25.29,3.77,50.59,5.75,75.87.57,7.39-2.05,10.52-9.4,10.52h-61.7c0,11.46-.15,22.44.07,33.42.1,4.65-1.09,8.28-5.21,10.69h-207c-4.12-2.41-5.32-6-5.21-10.69.24-9.74.08-19.5.06-29.25,0-1.31-.12-2.62-.2-4.17H66.16q-28.87,0-57.75,0c-5.75,0-8.74-3.29-8.38-9,.22-3.5.51-7,.78-10.47q4-52.32,8-104.65c2.53-33,5-66,7.67-99a86.18,86.18,0,0,1,7.74-29.57C33.65,67,50.73,56.71,71.3,51c4.17-1.16,8.37-2.17,11.83-3.06-.4-5.16-1.57-9.93-1-14.48C84,19.1,92.61,9.5,105.51,3.67,109.32,1.94,113.58,1.2,117.63,0Zm155.9,368.88V364.5c0-17-.12-34,.1-51,0-3.61-1.07-5.56-4.19-7.32-11.85-6.69-23.58-13.6-35.23-20.63a11.92,11.92,0,0,1-4.64-5c-1.28-2.95-.3-5.95,2.36-8s5.74-2.17,8.75-.41q14.53,8.52,29.1,17c1.09.64,2.24,1.19,3.75,2V142.29a39.72,39.72,0,0,1,.11-4.5,7.32,7.32,0,0,1,6.7-6.49,7.18,7.18,0,0,1,7.55,4.94,19.65,19.65,0,0,1,.62,5.53q0,68.25,0,136.49v4.25H341c-.8-10.94-1.56-21.53-2.35-32.11-2.16-28.78-4.27-57.57-6.54-86.34-1.34-17.06-2.52-34.15-4.56-51.13-2.8-23.29-15.25-39.16-38.14-46-8-2.38-16.15-4.31-24.29-6.24a6,6,0,0,0-4.06.94c-11,6.91-21.9,14-32.9,20.88a4.92,4.92,0,0,0-2.62,4.8c.11,14.49.09,29,0,43.49,0,5.34-3.17,8.78-7.73,8.65s-7.23-3.38-7.24-8.69c0-10.87,0-21.74,0-32.62,0-1.18-.12-2.35-.22-4.13-7,4.45-13.41,8.71-20,12.68-2.36,1.42-3,3-3,5.72q.1,126.18.06,252.36v4.07Zm-124.34-275v4.5c0,11,0,22,0,33,0,4.92-3,8.11-7.43,8.11s-7.35-3.27-7.53-8.1c0-1,0-2,0-3,0-13.62-.07-27.25.06-40.87a5.17,5.17,0,0,0-2.8-5.08c-9.12-5.67-18.38-11.17-27.09-17.43-5.46-3.93-10.5-5-16.87-2.75-8.2,2.92-16.91,4.53-24.95,7.8-19,7.71-28.07,23.25-30.25,42.69-2.66,23.7-4.24,47.52-6.13,71.31-2,25.4-3.86,50.83-5.77,76.25-.55,7.4-1.05,14.81-1.59,22.34H71.23V142c0-7,2.65-10.72,7.64-10.67s7.36,3.52,7.36,10.45q0,72.38,0,144.75v4.83L104,280.9c5.17-3,10.31-6.11,15.53-9.07a7,7,0,0,1,8.67,1,6.51,6.51,0,0,1,1.91,7.84,12.27,12.27,0,0,1-4.73,5c-12,7.22-24.05,14.27-36.17,21.25a5.27,5.27,0,0,0-3.06,5.28c.13,17.75.06,35.5.07,53.25,0,1.09.14,2.17.22,3.37h85.92V150.12c0-12.75.05-25.5-.07-38.25,0-1.4-.57-3.41-1.58-4.1C163.93,103.16,156.93,98.82,149.19,93.88Zm-13-78.7c14.68,25,29.07,49.56,43.73,74.56l43.7-74.56ZM71.06,298.06H17.6c-.67,8.95-1.33,17.71-2,26.58H71.06Zm271.09,0H288.84v26.48h55.34C343.49,315.58,342.82,306.89,342.15,298.1Zm-139-218.26.59.6c18.36-11.78,36.76-23.5,55-35.39,3.54-2.3,4.76-6.13,4-10.24-1.92-9.84-8.47-15.4-17.57-18.58-2.87-1-4.58-.66-6.29,2.31-11,19.13-22.25,38.12-33.41,57.16C204.7,77.07,204,78.46,203.18,79.84ZM156,80.39l.64-.59Q138.22,48.38,119.74,17a3.69,3.69,0,0,0-3-1.23c-8.25.94-17.19,8.83-19.31,16.85-1.64,6.14-.07,10.19,5.38,13.73,5.86,3.8,11.75,7.55,17.64,11.31Q138.2,69,156,80.39Z"/></g></g></svg>