<?xml version="1.0" encoding="utf-8"?>
<!-- Generator: Adobe Illustrator 26.0.0, SVG Export Plug-In . SVG Version: 6.00 Build 0)  -->
<svg version="1.1" id="katman_1" xmlns="http://www.w3.org/2000/svg" xmlns:xlink="http://www.w3.org/1999/xlink" x="0px" y="0px"
	 viewBox="0 0 551.5 551" style="enable-background:new 0 0 551.5 551;" xml:space="preserve">
<g>
	<path d="M301.9,227.5c-7.2,0-13.1,5.9-13.1,13.1s5.9,13.1,13.1,13.1s13.1-5.9,13.1-13.1S309.2,227.5,301.9,227.5z M301.9,245
		c-2.4,0-4.4-2-4.4-4.4s2-4.4,4.4-4.4s4.4,2,4.4,4.4S304.4,245,301.9,245z"/>
	<path d="M301.9,306.2c-7.2,0-13.1,5.9-13.1,13.1s5.9,13.1,13.1,13.1s13.1-5.9,13.1-13.1S309.2,306.2,301.9,306.2z M301.9,323.7
		c-2.4,0-4.4-2-4.4-4.4s2-4.4,4.4-4.4s4.4,2,4.4,4.4S304.4,323.7,301.9,323.7z"/>
	<path d="M301.9,385c-7.2,0-13.1,5.9-13.1,13.1s5.9,13.1,13.1,13.1s13.1-5.9,13.1-13.1S309.2,385,301.9,385z M301.9,402.5
		c-2.4,0-4.4-2-4.4-4.4s2-4.4,4.4-4.4s4.4,2,4.4,4.4S304.4,402.5,301.9,402.5z"/>
	<path d="M301.9,463.7c-7.2,0-13.1,5.9-13.1,13.1s5.9,13.1,13.1,13.1S315,484,315,476.8S309.2,463.7,301.9,463.7z M301.9,481.2
		c-2.4,0-4.4-2-4.4-4.4s2-4.4,4.4-4.4s4.4,2,4.4,4.4S304.4,481.2,301.9,481.2z"/>
	<path d="M428.8,371.8h-87.5c-4.8,0-8.8,3.9-8.8,8.8v17.5c0,4.8,3.9,8.8,8.8,8.8h87.5c4.8,0,8.8-3.9,8.8-8.8v-17.5
		C437.6,375.8,433.6,371.8,428.8,371.8z M341.3,398.1v-17.5h87.5v17.5H341.3z"/>
	<path d="M210.1,406.8c4.8,0,8.8-3.9,8.8-8.8v-17.4c0-4.8-3.9-8.8-8.8-8.8h-87.5c-4.8,0-8.8,3.9-8.8,8.8v17.5c0,4.8,3.9,8.8,8.8,8.8
		L210.1,406.8L210.1,406.8z M122.6,380.6h87.5v17.5h-87.5V380.6z"/>
	<path d="M546.6,477.1c5.6-5.1,5.1-12.7,4.6-18.5c-52-329.4-94.9-413.6-96.7-417c-0.6-1.1-1.6-1.9-2.8-2.2L325.1,0.2
		c-0.2-0.1-0.5,0-0.7-0.1c-0.2,0-0.5-0.1-0.7-0.1c-0.3,0-0.6,0-0.9,0.1c-0.4,0.1-0.7,0.2-1.1,0.4c-0.1,0.1-0.3,0.1-0.4,0.1
		s-0.1,0.1-0.1,0.1c-0.1,0.1-0.2,0.1-0.4,0.2c-9.2,8-24.4,12-45.2,12c-20.9,0-36.1-4.1-45.2-12c-0.1-0.1-0.2-0.1-0.2-0.1
		c-0.1,0-0.1-0.1-0.2-0.2c-0.1,0.1-0.3,0-0.4,0c-0.3-0.2-0.7-0.3-1.1-0.4c-0.2-0.1-0.5-0.1-0.7-0.1c-0.4,0-0.7,0-1.1,0.1
		c-0.1,0-0.3,0-0.4,0L99.5,39.6c0,0,0,0-0.1,0c-1.1,0.3-2.1,1-2.7,2.1C94.9,45.1,52.2,129.3,0.2,459c-0.4,5.4-0.9,12.9,4.7,18
		l-4.6,20.7c-0.1,0.3-0.1,0.6-0.1,0.9c0,4.7,0,9.5,6.9,12.7c0.3,0.1,0.5,0.2,0.8,0.3l52.5,13.1c0.4,0.1,0.7,0.1,1.1,0.1
		c3.9,0,10.7-1.6,13-12.1l4.7-18.8c7.2-0.8,14.1-4.3,17.2-16.3l0.4-2c0.8,14.8,2.1,27.6,3.9,36.9c1.3,6.3,6.1,10.6,13,11.8v13.6
		c0,7.2,5.9,13.1,13.1,13.1h297.5c7.2,0,13.1-5.9,13.1-13.1V524c6.6-2.3,11.7-9.2,13-15.8c1.7-8.7,3-20.4,3.7-34l0.9,3.6
		c3.1,11.9,10,15.3,17.2,16.2l4.7,18.7c2.4,10.6,9.2,12.2,13,12.2c0.4,0,0.7,0,1.1-0.1l52.5-13.1c0.3-0.1,0.5-0.2,0.8-0.3
		c6.9-3.2,6.9-8,6.9-12.7c0-0.3,0-0.6-0.1-0.9L546.6,477.1z M275.7,159.3C258.3,116.9,245,73.4,238,41.9c9.9,4.1,22.6,6.2,37.7,6.2
		c15.2,0,27.8-2.1,37.8-6.2C306.4,73.4,293.1,116.9,275.7,159.3L275.7,159.3z M224.1,14.3c0.6,5.7,1.8,12.5,3.3,20.3l0,0
		c7,34.5,22.7,87.2,43.9,136.8v32.8c-35.5-74.3-56.5-159.8-60.6-190l13-4C223.8,11.4,223.9,12.8,224.1,14.3L224.1,14.3z
		 M280.1,171.5C301.3,121.8,317,69.1,324,34.6l0,0c1.6-7.8,2.7-14.6,3.3-20.3c0.2-1.5,0.3-2.9,0.4-4.2l13,4
		c-4.1,30.3-25.1,115.8-60.6,190.1L280.1,171.5z M318.6,13.1c0,0.1,0,0.1,0,0.2c-0.6,5-1.5,10.9-2.8,17.6
		c-9.3,5.6-22.8,8.4-40.1,8.4c-17.3,0-30.7-2.8-40-8.4c-1.3-6.7-2.3-12.7-2.8-17.7c0-0.1,0-0.1,0-0.2c10.6,5.8,24.9,8.7,42.9,8.7
		C293.7,21.9,308,18.9,318.6,13.1L318.6,13.1z M62,516.2l-51.5-12.9c-1.4-0.7-1.5-0.9-1.5-4.1l4-18l57.3,12.3L66,510.9
		C65,515.5,63.2,516.1,62,516.2L62,516.2z M87.9,475.8c-1.9,7.5-4.8,9.8-12.8,9.8l-60.4-12.9c-0.9-0.3-1.6-0.6-2.3-0.9
		c-0.1-0.1-0.2-0.1-0.3-0.2c-3.1-1.7-3.7-4.5-3.2-11.6c41.7-263.5,78-370.7,90.8-402.9c16.6,70.6,19.1,167.2,5.6,235.1
		c-5.5,27.3-9.7,92.3-9.4,147.3L87.9,475.8z M109.4,511c-9-44.8-3.7-176.5,4.5-217c14.3-71.8,11-175-7.7-247.3l96.1-29.9
		c5,34.4,29,129.8,69.1,207.1v292.3H118.2C115.3,516.2,110.3,515.5,109.4,511L109.4,511z M424.5,542.5H127c-2.4,0-4.4-2-4.4-4.4V525
		h306.2v13.1C428.8,540.5,426.9,542.5,424.5,542.5z M442,506.6c-0.9,4.4-5,9.6-8.8,9.6H280.1V223.9c40.1-77.3,64.1-172.6,69.1-207.1
		l96.1,29.9c-18.7,72.3-22,175.5-7.7,247.3l0,0C445.8,334.8,451,461.8,442,506.6L442,506.6z M463.7,475.8l-8.1-33.8
		c-0.1-0.2-0.2-0.4-0.3-0.6c0.5-54.9-3.7-121.6-9.3-149.2c-13.5-68-11-164.6,5.6-235.2c12.8,32.1,49.3,139.2,90.9,402.6
		c0.7,9-0.4,11.3-5.3,12.9l-60.8,13C468.5,485.5,465.6,483.3,463.7,475.8L463.7,475.8z M541.1,503.3l-51.5,12.9
		c-1.2-0.1-3-0.7-4-5.4l-4.3-17.3l57.3-12.3l4,18C542.6,502.4,542.5,502.7,541.1,503.3L541.1,503.3z"/>
</g>
</svg>
