<svg xmlns="http://www.w3.org/2000/svg" viewBox="0 0 300.17 360.14"><g id="katman_2" data-name="katman 2"><g id="katman_1-2" data-name="katman 1"><path d="M66.06,330.38c0,7.52,0,14.75,0,22,0,5.66-2,7.74-7.63,7.75q-25.5,0-51,0C2.23,360.11,0,358,0,352.88Q0,229.51.1,106.14c0-26.51,19.17-48.35,45.38-52.76,8-1.34,16-2.73,24-3.86,2.75-.39,4-1.51,4.65-4.23,3.14-13.11,6.46-26.17,9.76-39.24,1.2-4.75,2.8-6,7.59-6q55.52,0,111,0c4.11,0,6.41,1.66,7.81,5.5,4.79,13.13,9.92,26.13,14.63,39.29,1.09,3,2.67,4.23,5.72,4.69,9,1.36,18,2.81,26.95,4.58,23.5,4.65,41.51,25.92,42.44,49.85.07,1.75.07,3.5.07,5.25q0,120.95,0,241.87c0,7.47-1.6,9.1-8.92,9.1H242.86c-7.07,0-8.72-1.69-8.72-8.91,0-6.86,0-13.72,0-20.84ZM234.14,318v-4.8q0-89.43,0-178.86c0-5.39,2.09-8.21,6-8.2s6,2.82,6,8.24V347.82h42V262q0-77.25,0-154.49c0-21.93-14.31-38.66-35.9-42.35-8.24-1.41-16.5-2.78-24.73-4.26a11,11,0,0,0-7.82,1.27C204,71.06,188.28,79.73,172.57,88.47c-.81.45-1.56,1-2.66,1.73,3.85,1.88,4.24,4.93,4.23,8.38q-.06,107.43,0,214.86V318ZM12,347.89h42V134c0-5.08,2.14-7.85,6-7.87s6,2.77,6,7.83v183.9h59.82a7.09,7.09,0,0,0,.18-1q0-113.43-.07-226.87a5.1,5.1,0,0,0-2.32-3.59Q101.5,73.81,79.16,61.57a5.94,5.94,0,0,0-3.47-.91c-11.09,1.82-22.32,3.11-33.18,5.85-18.47,4.68-30.45,21.31-30.46,41Q12,226.23,12,344.9ZM162.1,317.94V104.05a6.89,6.89,0,0,0-.06-2.23c-.26-.71-.78-1.65-1.4-1.86-7.37-2.54-14.79-5-22.36-7.47V317.94ZM111.31,12.12l-.26.66c4.12,2.75,8,6,12.43,8.15,6.9,3.45,9.6,8.76,9.49,16.22-.05,3.61.83,7.24,1.27,10.69h31.83c.47-4.25,1.19-8.33,1.29-12.42.15-5.92,2.23-10.39,7.41-13.7,4.08-2.61,7.66-6,12.11-9.6ZM94,15.88c-.39,1.26-.71,2.19-1,3.14-2.41,9.55-4.73,19.13-7.28,28.64-.71,2.68,0,3.9,2.4,5.19C99.47,59,110.66,65.28,121.9,71.51c.78.43,1.64.72,2.86,1.25-1.41-12.92-2.74-25.32-4.17-37.71a3.77,3.77,0,0,0-1.5-2.39C110.84,27.06,102.52,21.56,94,15.88ZM214.7,51.33c-4.46-11.86-8.77-23.36-13.3-35.41-7.22,5.8-14.13,11.28-20.92,16.9-.71.59-.88,2-1,3.09q-1.17,9.84-2.22,19.7c-.6,5.61-1.15,11.22-1.8,17.5Zm-79.14,8.94c.34,3.18.69,6.13,1,9.08.94,10.15.93,10.14,10.76,13.39,5.1,1.69,10.19,3.42,14.69,4.92.87-9.34,1.7-18.29,2.55-27.39Z"/><path d="M222.08,228.88c-2,16.15-4,32.11-6.06,48.05a5.89,5.89,0,0,1-6.71,5.11c-3.44-.51-5.55-3.46-5.07-7.48,1.29-10.64,2.68-21.27,4-31.9.62-4.95,1.19-9.9,1.88-14.84.52-3.75,3.28-6,6.61-5.66S222.25,225.31,222.08,228.88Z"/><path d="M96,275.6c0,3.52-2.21,6.16-5.46,6.46a5.84,5.84,0,0,1-6.4-5.06q-3.15-24.12-6-48.26a5.81,5.81,0,0,1,5.21-6.61c3.38-.4,6.2,1.83,6.68,5.58,2,15.58,4,31.18,5.93,46.77C96,274.85,96,275.23,96,275.6Z"/></g></g></svg>