<svg xmlns="http://www.w3.org/2000/svg" viewBox="0 0 372.1 372.01"><g id="katman_2" data-name="katman 2"><g id="katman_1-2" data-name="katman 1"><path d="M366.09,300.35c0,5.63,0,11,0,16.37,0,5.12-2.18,7.26-7.34,7.27q-22.68,0-45.37,0c-5.12,0-7.23-2.17-7.27-7.34,0-5.37,0-10.74,0-16.4-4.49-.72-5.78-3.84-6.41-7.91q-7.94-50.5-16.09-101-3-19-6.1-38l-1,0c-.15,1.75-.42,3.51-.42,5.26q0,84,.06,168c0,4.22-.84,7.7-4.3,10.14-6.69,4.71-9,11-7.85,19,.43,2.93.1,6,.07,9-.07,5.13-2.18,7.28-7.33,7.29q-30.93,0-61.86,0H116.53c-6.63,0-8.42-1.8-8.44-8.44,0-3.5-.39-7.05.09-10.48.87-6.32-1.22-11.11-6.28-14.79-4.78-3.48-6-8.15-5.93-14,.2-55.24.13-110.48.1-165.72,0-1.76-.27-3.52-.42-5.27l-1,0c-1.76,10.82-3.54,21.65-5.27,32.48q-8.62,53.8-17.17,107.62c-.58,3.71-2.3,5.95-6.17,6.81,0,5.48,0,11,0,16.43,0,5.16-2.16,7.32-7.28,7.33q-22.69,0-45.37,0c-5.16,0-7.29-2.15-7.33-7.28,0-5.37,0-10.74,0-16.45-5.35-1-6.55-4.71-5.95-9.43,1.82-14.36,3.34-28.76,5.64-43,6.17-38.33,12.69-76.6,19.07-114.9,2.28-13.67,4.13-27.43,7-41C36.06,71.58,48.4,57.87,68,51.07,85,45.2,102.1,39.67,119.14,34c.94-.31,1.88-.65,2.12-.73-.4-8.74-.9-17.14-1.13-25.55C120,2.05,122.13,0,127.77,0h116.6c5.65,0,7.84,2,7.68,7.65-.22,8.31-.72,16.62-1.13,25.58,8,2.67,16.92,5.7,25.89,8.69,8.64,2.88,17.3,5.69,25.93,8.6,22.1,7.46,34.74,22.84,38.54,45.78,8.65,52.22,17.51,104.41,26,156.65,2.1,12.91,3.36,26,4.69,39C372.51,297.1,371.27,298.35,366.09,300.35Zm-54.92-12.67h49.37c-2-13-3.83-25.58-5.91-38.13Q342,173.44,329.27,97.35c-2.88-17.3-12.38-29.2-29-34.95-17.45-6-35.05-11.64-52.52-17.59-2.38-.81-3.5-.3-4.9,1.62a46,46,0,0,1-26,17.88c-4.05,1.08-8.28,1.44-12.46,2.13V336c15,0,29.72-.21,44.44.12,4.91.11,8.74-.86,11.61-4.91,1.19-1.68,3.41-3.24,3.52-4.95.41-6.83.16-13.69.16-20.6-.75-.2-1.21-.33-1.68-.44-18.71-4.13-31.41-17-33.73-35.93-1.21-9.85-.59-20-.43-29.94.06-3.42,2.65-5.25,6.13-5.32,3.25-.08,6.5,0,9.75,0h20v-4.53c0-24.38,0-48.75,0-73.12,0-9.72,7.13-17.54,16.35-18.29,4.43-.36,7,1.47,7.65,5.81q9,56,18,112Q308.63,271.8,311.17,287.68ZM167.85,336V66.13c-16.47-.69-29.55-7.32-39.27-20.48a3.75,3.75,0,0,0-3.33-.93c-18.5,6.05-37.09,11.86-55.37,18.51-14.42,5.25-23.42,16-26.29,31.15-3.05,16.07-5.52,32.24-8.22,48.37q-10,59.83-19.93,119.69c-1.37,8.32-2.4,16.71-3.63,25.36H60.92c.46-2.66.95-5.23,1.36-7.81Q73.13,212.33,84,144.65c.89-5.53,3.71-7.44,9.19-6.4,9,1.7,14.9,8.95,14.92,18.43q.06,36.56,0,73.11V234c9.84,0,19.2,0,28.55,0,5.35,0,7.43,2.13,7.44,7.54,0,7.75.07,15.5,0,23.25a40,40,0,0,1-5,19C132.33,296,122,303,108.09,305.62c0,4.66.42,9.3-.1,13.85-.68,5.92,1.14,10.41,5.9,13.81,1.36,1,2.8,2.59,4.21,2.6C134.58,336.07,151.07,336,167.85,336Zm-6-323.84c.63.69.78.89,1,1.05a24.37,24.37,0,0,0,2,1.66c11.18,7.65,15.48,18.18,15.44,31.72q-.37,154.27-.14,308.53v4.7h12v-4.95q0-155.2-.07-310.41c0-11.94,4.16-21.33,13.8-28.33,1.52-1.11,2.92-2.37,4.89-4ZM108.2,293.42c12.31-3.33,20.51-10.63,22.87-22.66,1.56-7.93,1-16.28,1.36-24.5H108.2Zm131.55-47.28c.37,8.35,0,16.4,1.23,24.22,1.78,11.62,12.64,21.73,22.89,22.56V246.14ZM239.6,11.49c-3.64.6-8,.17-10.83,2-6.38,4.08-12,9.27-18,14-3.55,2.85-6,6.57-6.39,11.06-.44,5-.1,10.13-.1,15.18C225.62,55,243,34.62,239.6,11.49Zm-107.23.93c-3.27,28.24,19.92,42.69,35.72,41.23,0-3.67-.05-7.38,0-11.1a18.69,18.69,0,0,0-7.68-15.84c-4.12-3.22-8.46-6.24-12.21-9.87C143.69,12.48,138.68,10.89,132.37,12.42Zm-12.13,347.3H167.9v-11.5H120.24Zm84,0h47.52V348.19H204.27ZM18.37,300.16V311.7H53.88V300.16Zm335.5,11.66V300.25H318.38v11.57Z"/></g></g></svg>