<svg xmlns="http://www.w3.org/2000/svg" viewBox="0 0 258.92 304.57"><g id="katman_2" data-name="katman 2"><g id="katman_1-2" data-name="katman 1"><path d="M172.75,0c3.11,1.18,6.19,2.43,9.32,3.53,9.24,3.27,18.44,6.64,27.76,9.63,5.49,1.76,9.42,5.23,12.76,9.66,8.77,11.64,14.19,24.89,18.44,38.67a261.58,261.58,0,0,1,10.82,58.88c1.71,24.61,2.88,49.26,4.21,73.89,1,17.71,2,35.42,2.63,53.15.39,10.19.79,20.62-3.31,30.2-3.17,7.4-4.69,15-6,22.82-.46,2.71-2,4.15-4.9,4.14q-13.68-.06-27.36,0c-2.69,0-4.29-1.23-4.78-3.88-.31-1.65-.62-3.31-.91-5a41.49,41.49,0,0,0-4.93-14.63c-3.24-5.51-4.7-12.07-6.9-18.18a27.33,27.33,0,0,1-.7-2.9H59.81c-.81,3.12-1.55,6.18-2.38,9.22a48.2,48.2,0,0,1-7.53,15.69c-1.34,1.85-1.49,4.61-2,7-.63,2.9-1,5.85-1.58,8.77-.49,2.65-2.09,3.89-4.78,3.88q-13.68,0-27.36,0c-2.88,0-4.4-1.44-4.91-4.14-.42-2.24-.86-4.47-1.2-6.72A48.07,48.07,0,0,0,4,279.86C.7,273-.09,265.37,0,257.81Q.25,239.39,1.1,221c1-21.19,2.29-42.35,3.26-63.54,1.18-25.84,2.71-51.64,8.31-77C16.49,63.17,21.61,46.36,30.61,31q1.8-3.07,3.86-6c4-5.68,8.69-10.18,15.75-12.32C61.38,9.28,72.3,5.1,83.32,1.23A25.2,25.2,0,0,0,85.89,0h3c.72.65,1.77,1.16,2.1,2,2.54,6.14,8,8.63,13.69,9.75a158.76,158.76,0,0,0,24.07,3c9,.36,18-.34,26.69-3.27,5-1.7,9.86-3.7,12.11-9.18.37-.9,1.48-1.49,2.25-2.23ZM83.69,9.61,51.9,20.76c8.83,13.58,11.87,28.18,10.77,43.73-.89,12.39-4.5,24.06-9.68,35.3a21.52,21.52,0,0,0-1.92,6.47c-.65,5.71-1.1,11.45-1.43,17.18a507,507,0,0,0,2.42,81.63c.78,7.45,1.94,14.86,2.92,22.25h70.17v-171C100.45,50.4,88.39,33.49,83.69,9.61Zm91-.08a56.58,56.58,0,0,1-13.06,30.12C154.2,48.41,145,54.17,133.6,56V227.33H204c1.34-13.08,2.82-26,4-38.87a458.68,458.68,0,0,0,.35-75.14,47.87,47.87,0,0,0-4.1-17.16,95,95,0,0,1-5.65-16.22c-3.92-15-4.2-30,1.06-44.74,1.77-5,4.33-9.64,6.6-14.63Zm39.14,15.23c-.67.95-1.15,1.55-1.55,2.21-7,11.71-9.46,24.44-8.32,37.93,1,11.7,4.63,22.63,9.7,33.15a16.43,16.43,0,0,1,1.69,5.63c.79,9.68,1.91,19.37,1.92,29,0,18.23.15,36.51-1.28,54.66-1.49,19-4.72,37.9-7.27,56.83-.55,4.11-2.25,8.23-2,12.25a49.93,49.93,0,0,0,6.57,21.1,3.81,3.81,0,0,0,3.83,2.11c6.83-.11,13.68,0,20.52,0,9.55,0,10.2-.56,11.88-10.22,0-.1,0-.2,0-.3.29-10.77,1.12-21.57.75-32.33-.67-19.6-2-39.19-3.17-58.78-1.33-22.35-2.34-44.73-4.34-67a213.81,213.81,0,0,0-13.56-59.16C225.5,42.21,220.88,33,213.82,24.76Zm-169,0c-1.22,1.52-2.32,2.76-3.28,4.11C32.19,42,26.9,56.89,22.87,72.28c-6.69,25.53-9,51.65-10.17,77.91-1,21.58-2.33,43.15-3.29,64.73-.67,14.94-1.34,29.9-1.23,44.85.05,5.89,2.19,11.77,3.42,17.64.4,1.87,1.68,2.29,3.52,2.27,8.63-.09,17.26-.17,25.87,0,2.56.06,4-.94,4.79-3,2-5.46,3.92-10.95,5.57-16.52a13.86,13.86,0,0,0,.41-6.42,516.88,516.88,0,0,1-8.92-61.4,509.6,509.6,0,0,1-.31-81.95,50.76,50.76,0,0,1,4.51-17c7.16-16,10.3-32.62,6.08-50A51.8,51.8,0,0,0,44.83,24.79Zm48.93-8.08C96.37,28.35,106,40.29,116.82,45.26a28.61,28.61,0,0,0,26-.51A41,41,0,0,0,158.39,30.8,41.15,41.15,0,0,0,165,16.61C141.15,25.12,117.51,25,93.76,16.71Zm-37.33,219c.89,4.61,1.93,8.85,2.46,13.16.33,2.65,1.5,3.08,3.87,3.07,19.72-.08,39.45,0,59.18,0,1,0,2.09-.1,3.14-.15v-16Zm77.07,16.18c21.53,0,42.73,0,63.93-.05.63,0,1.72-.55,1.82-1,1.06-5,2-10,2.91-15H133.5Zm-118.28,36c.42,2.5.67,4.85,1.26,7.11a2.7,2.7,0,0,0,2,1.52c6.71.11,13.43.06,20.43.06l1.57-8.69Zm203-.05a57.79,57.79,0,0,0,1.19,6.72,3.19,3.19,0,0,0,2.21,1.94c6.13.16,12.26.15,18.39,0a2.88,2.88,0,0,0,2.18-1.62,68.25,68.25,0,0,0,1.25-7.05Z"/></g></g></svg>