<?xml version="1.0" encoding="utf-8"?>
<!-- Generator: Adobe Illustrator 26.0.0, SVG Export Plug-In . SVG Version: 6.00 Build 0)  -->
<svg version="1.1" id="Short_x5F_pants_x5F_men" xmlns="http://www.w3.org/2000/svg" xmlns:xlink="http://www.w3.org/1999/xlink"
	 x="0px" y="0px" viewBox="0 0 346.9 355.4" style="enable-background:new 0 0 346.9 355.4;" xml:space="preserve">
<g>
	<path d="M181.5,19.3c0-3.8-3.1-6.9-6.9-6.9c-3.8,0-6.9,3.1-6.9,6.9c0,3.8,3.1,6.9,6.9,6.9C178.4,26.2,181.5,23.1,181.5,19.3z"/>
	<path d="M76.4,6.9h1.1c1.9,0,3.4-1.5,3.4-3.4C81,1.5,79.4,0,77.5,0h-1.1c-1.9,0-3.4,1.5-3.4,3.4C72.9,5.4,74.5,6.9,76.4,6.9z"/>
	<path d="M330.6,218.8l0.1,1.2c0.1,1.8,1.7,3.2,3.4,3.2c0.1,0,0.2,0,0.3,0c1.9-0.2,3.3-1.8,3.2-3.7l-0.1-1.2
		c-0.2-1.9-1.8-3.3-3.7-3.2C331.9,215.2,330.5,216.9,330.6,218.8z"/>
	<path d="M339.5,242.4c-0.2-1.9-1.8-3.3-3.7-3.2c-1.9,0.2-3.3,1.8-3.2,3.7l5.5,66.7l-69.8,8.1c-8.5-47.6-24.1-152.1-24.3-153.2
		c-0.3-1.9-2-3.2-3.9-2.9c-1.9,0.3-3.2,2-2.9,3.9c0.2,1.1,15.7,105.1,24.2,153l-76.8,8.9l-7.7-95.9c-0.1-1.8-1.6-3.2-3.4-3.2
		s-3.3,1.4-3.4,3.2l-7.6,95.9l-76.8-8.9c8.5-47.9,24-151.9,24.2-153c0.3-1.9-1-3.6-2.9-3.9c-1.9-0.3-3.6,1-3.9,2.9
		c-0.2,1.1-15.8,105.6-24.3,153.2l-69.8-8.1L24,124.9c37.1-28,54.6-75,58.4-86.3h86.4v101.6c0,1.9,1.5,3.5,3.4,3.5
		c14.6,0,26.5-11.9,26.5-26.5V38.5h65.7c3.8,11.3,21.4,58.3,58.4,86.3l5.8,70.9c0.1,1.8,1.7,3.2,3.4,3.2c0.1,0,0.2,0,0.3,0
		c1.9-0.2,3.3-1.8,3.2-3.7L319.9,3.2c-0.1-1.8-1.6-3.2-3.4-3.2H100.5c-1.9,0-3.4,1.5-3.4,3.4c0,1.9,1.5,3.4,3.4,3.4h8.1v24.7h-77
		l2-24.7h19.7c1.9,0,3.4-1.5,3.4-3.4c0-1.9-1.5-3.4-3.4-3.4H30.5c-1.8,0-3.3,1.4-3.4,3.2l-27,330c-0.2,1.9,1.2,3.5,3,3.7l73.5,8.4
		c0,0,0.1,0,0.1,0l86.9,10c0.9,0.1,1.9-0.2,2.6-0.8c0.7-0.6,1.2-1.5,1.2-2.4l1.6-20.4c0-0.1,0-0.2,0-0.3l4.5-56.3l4.5,56.4
		c0,0,0,0,0,0c0,0,0,0,0,0l1.6,20.6c0.1,0.9,0.5,1.8,1.2,2.4c0.6,0.5,1.4,0.8,2.2,0.8c0.1,0,0.3,0,0.4,0l86.9-10c0,0,0,0,0,0
		l73.5-8.4c1.9-0.2,3.2-1.9,3-3.7L339.5,242.4z M191.9,117.1c0,9.6-7,17.6-16.1,19.2V38.5h16.1V117.1z M322.1,115.4
		c-29.8-25.3-45.6-63.9-50.3-76.9h44L322.1,115.4z M238.3,6.9h75l2,24.7h-77L238.3,6.9L238.3,6.9z M115.5,6.9h115.9v24.7h-36.1h-23
		h-56.8V6.9z M31.1,38.5h44c-4.7,13-20.5,51.6-50.3,76.9L31.1,38.5z M74.7,338.2l-67.5-7.7l1.1-13.9l69.2,8
		C76,332.3,75.2,336.2,74.7,338.2z M160.7,348.1L81.6,339c0.1-0.6,0.3-1.2,0.4-1.8c0.6-2.9,1.4-6.8,2.4-11.8l77.5,8.9L160.7,348.1z
		 M186.2,348.1l-1.1-13.8l77.5-8.9c1.1,6.3,2,10.7,2.7,13.7L186.2,348.1z M272.2,338.2c-0.5-2-1.4-5.9-2.8-13.7l69.2-8l1.1,13.9
		L272.2,338.2z"/>
</g>
</svg>
