<?xml version="1.0" encoding="utf-8"?>
<!-- Generator: Adobe Illustrator 26.0.0, SVG Export Plug-In . SVG Version: 6.00 Build 0)  -->
<svg version="1.1" id="katman_1" xmlns="http://www.w3.org/2000/svg" xmlns:xlink="http://www.w3.org/1999/xlink" x="0px" y="0px"
	 viewBox="0 0 476 386.2" style="enable-background:new 0 0 476 386.2;" xml:space="preserve">
<g>
	<path d="M383.1,30.9V0H92.9v30.9H383.1z"/>
	<path d="M200.6,359.6L10,324.9c-0.4-0.1-0.8-0.2-1.2-0.4L0,353.9l191,32.3l10.2-26.6C201,359.6,200.8,359.6,200.6,359.6
		L200.6,359.6z"/>
	<path d="M467.2,324.6c-0.4,0.1-0.7,0.3-1.1,0.3l-190.7,34.8c-0.2,0-0.3,0-0.5,0l10.1,26.5l191-32.3L467.2,324.6z"/>
	<path d="M271.4,337.6l189.4-34.5l-74.5-250c-0.7,0.1-1.4,0.2-2.2,0.2H249.7v150.9c0,6.2-5,11.2-11.2,11.2s-11.2-5-11.2-11.2V53.3
		H92.9c-1.1,0-2.2-0.2-3.2-0.5L15.1,303.1l189.5,34.5c1.6,0.3,3,0.9,4.3,1.7l29.1-76l29.1,76.1C268.4,338.6,269.8,337.9,271.4,337.6
		L271.4,337.6z"/>
</g>
</svg>
