<?xml version="1.0" encoding="utf-8"?>
<!-- Generator: Adobe Illustrator 26.0.0, SVG Export Plug-In . SVG Version: 6.00 Build 0)  -->
<svg version="1.1" id="katman_1" xmlns="http://www.w3.org/2000/svg" xmlns:xlink="http://www.w3.org/1999/xlink" x="0px" y="0px"
	 viewBox="0 0 448 373.3" style="enable-background:new 0 0 448 373.3;" xml:space="preserve">
<g>
	<path d="M20.9,52.9c-3,0.3-5.7,2.1-7.2,4.8C5.6,72.2,0,88.5,0,106.5v237.8v0c0,4.8,3.5,8.8,8.2,9.4l159.4,19.5
		c3.5,0.4,6.9-1.2,8.9-4.2l47.6-74.1l47.5,74.1h0c1.9,3,5.4,4.6,8.9,4.2l159.4-19.5h0c4.7-0.6,8.2-4.6,8.2-9.4V106.5
		c0-18-5.6-34.3-13.8-48.8l0,0c-1.7-3-4.7-4.8-8.1-4.8H21.9C21.6,52.9,21.3,52.9,20.9,52.9L20.9,52.9z M28.6,72h390.8
		c5.5,11,9.9,22.3,9.9,34.5v229.4l-145.4,17.7l-52.1-81.2c-1.7-2.7-4.6-4.3-7.8-4.3c-3.1,0-6.1,1.6-7.8,4.2l-52.2,81.2L18.7,335.9
		V106.5C18.7,94.3,23.1,83,28.6,72L28.6,72z"/>
	<path d="M23.8,0c-2.5,0-4.9,1-6.6,2.8c-1.8,1.8-2.7,4.2-2.7,6.8v47.9c0,5.3,4.2,9.5,9.3,9.5s9.3-4.3,9.3-9.5V19.1h381.7v38.4
		c0,5.3,4.2,9.5,9.3,9.5s9.3-4.3,9.3-9.5V9.6c0-2.5-1-5-2.7-6.8C429.1,1,426.7,0,424.2,0L23.8,0z"/>
	<path d="M237.4,55.3c-4.8,0.6-8.4,4.7-8.3,9.6V183c0,15.7-10,29.9-26.2,37.9h0c-2.2,1.1-3.9,3.1-4.8,5.5s-0.7,5,0.4,7.3
		c1.1,2.3,3,4,5.3,4.9c2.3,0.8,4.9,0.7,7.1-0.4c21.5-10.6,36.8-31.1,36.8-55.1V64.9c0-2.8-1.1-5.4-3.1-7.2S240,55,237.4,55.3
		L237.4,55.3z"/>
</g>
</svg>
