<?xml version="1.0" encoding="utf-8"?>
<!-- Generator: Adobe Illustrator 26.0.0, SVG Export Plug-In . SVG Version: 6.00 Build 0)  -->
<svg version="1.1" id="katman_1" xmlns="http://www.w3.org/2000/svg" xmlns:xlink="http://www.w3.org/1999/xlink" x="0px" y="0px"
	 viewBox="0 0 410.7 352.8" style="enable-background:new 0 0 410.7 352.8;" xml:space="preserve">
<g>
	<path d="M5.3,341.5l145.6,11.2h0.6c2.8,0,5-1.7,5.6-3.9c15.7-60.5,38.6-128.8,48.7-133.8l0,0c9.5,5.6,32.5,73.9,48.7,133.8
		c0.6,2.8,3.4,4.5,5.6,3.9l145.6-11.2c1.7,0,2.8-1.1,3.9-2.2c1.1-1.1,1.1-2.8,1.1-4.5l-56-296.2v-33c0-3.4-2.2-5.6-5.6-5.6H62.9
		c-3.4,0-5.6,2.2-5.6,5.6v33L0.2,334.8c-0.6,1.7,0,3.4,1.1,4.5C2.5,341,3.6,341.5,5.3,341.5L5.3,341.5z M206.4,203.8h-1.1
		c-12.3,0-26.9,35.3-40.9,77.8C91,313,27.7,285,21.6,282.2L67,45.3h103.6c-8.4,9.5-19.6,27.4-12.9,50.4c6.2,21.8,0.6,41.4-2.2,49.3
		c-1.1,0-2.2-0.6-3.4-0.6c-9,0-15.7,7.3-15.7,15.7s7.3,15.7,15.7,15.7c8.4,0,15.7-7.3,15.7-15.7c0-3.4-1.1-6.7-2.8-9
		c3.4-7.8,11.2-31.4,3.4-58.8c-7.8-26.9,16.2-45.4,17.4-45.9c0.6,0,0.6-0.6,1.1-1.1h33.6c0,0.6,0.6,0.6,1.1,1.1
		c0,0,25.2,19.6,17.4,45.9c-7.8,27.4,0.6,51.5,3.4,58.8c-2.2,2.8-3.9,6.2-3.9,10.6c0,9,7.3,15.7,15.7,15.7c8.4,0,15.7-7.3,15.7-15.7
		c0-8.4-7.3-15.7-15.7-15.7h-1.7c-2.8-7.3-9.5-28-2.8-51c6.7-23-4.5-40.3-12.9-50.4h108.1l45.1,237c-0.6,0-1.1,0-1.7,0.6
		c-73.4,31.4-136.1,2.8-141.1,0.6c-0.6-2.2-1.1-3.9-2.2-6.2C222.6,209.4,213.6,203.8,206.4,203.8L206.4,203.8z M157.1,160.1
		c0,2.2-2.2,4.5-4.5,4.5c-2.2,0-4.5-2.2-4.5-4.5c0-2.2,2.2-4.5,4.5-4.5C154.8,155,157.1,157.3,157.1,160.1z M254,156.7
		c2.2,0,4.5,2.2,4.5,4.5c0,2.2-2.2,4.5-4.5,4.5c-2.2,0-4.5-2.2-4.5-4.5C249.5,159,251.7,156.7,254,156.7z M264.6,341.5
		c-2.2-7.8-7.3-25.2-12.9-44.8c12.3,5,35.8,11.8,65.5,11.8c22.4,0,48.2-3.9,75.6-15.7l7.3,38.1L264.6,341.5z M68.6,11.1h275v22.4
		h-275V11.1z M19.9,293.4c9,3.9,36.4,14.6,72.8,14.6c20.2,0,43.1-3.4,67.8-12.3c-4.5,15.1-9,30.8-12.9,45.9L12.6,331L19.9,293.4z"/>
</g>
</svg>
