<?xml version="1.0" encoding="utf-8"?>
<!-- Generator: Adobe Illustrator 26.0.0, SVG Export Plug-In . SVG Version: 6.00 Build 0)  -->
<svg version="1.1" id="katman_1" xmlns="http://www.w3.org/2000/svg" xmlns:xlink="http://www.w3.org/1999/xlink" x="0px" y="0px"
	 viewBox="0 0 472.8 472.5" style="enable-background:new 0 0 472.8 472.5;" xml:space="preserve">
<g>
	<path d="M472.5,461.7L455.1,61.1V8.8c0-4.8-3.9-8.8-8.8-8.8h-420c-4.8,0-8.8,3.9-8.8,8.8v52.3L0,463.4c-0.1,2.4,0.8,4.7,2.4,6.4
		s3.9,2.7,6.3,2.7h190.4c4.3,0,8-3.2,8.7-7.4l28.5-187.9l28.4,187.9c0.7,4.3,4.3,7.4,8.7,7.4h190.4c0.1,0,0.1,0,0.2,0
		c4.8,0,8.8-3.9,8.8-8.8C472.7,463.1,472.6,462.4,472.5,461.7L472.5,461.7z M443.2,191.4c-11.9-0.8-34.3-4.8-53.4-22.4
		c-22.4-20.6-34.4-54-35.7-99H438L443.2,191.4z M35,17.5h402.5v35h-169c-4.7-15.1-12.3-23.1-12.8-23.6c-3.4-3.4-8.8-3.5-12.3-0.1
		c-3.5,3.3-3.6,8.9-0.3,12.3c0.3,0.3,3.8,4.1,6.9,11.4h-27.3c3.1-7.3,6.5-11.1,6.9-11.4c3.3-3.5,3.3-9-0.2-12.3
		c-3.4-3.4-9-3.4-12.4,0.1c-0.6,0.6-8.1,8.5-12.8,23.6H35V17.5z M34.7,70.1h83.9c-1.4,45-13.3,78.3-35.7,99
		c-19.1,17.6-41.6,21.6-53.5,22.4L34.7,70.1z M17.9,455.1l0.4-8.8H193l-1.3,8.8H17.9z M236.3,210.1c-4.3,0-8,3.2-8.7,7.4l-32,211.3
		H19.1L28.7,209c14.1-0.6,41.7-4.9,65.8-26.9c26.3-24,40.2-61.8,41.6-112.1h64.6c-0.7,8.6-0.3,18.4,2,29.6
		c5.6,26.6-0.8,36.2-3.2,37.5c-4.6,1.5-7.1,6.5-5.6,11.1c1.2,3.7,4.6,6,8.3,6c0.9,0,1.8-0.1,2.7-0.4c2.6-0.9,24.9-9.7,14.8-57.7
		c-2.1-10.1-2.3-18.7-1.6-26h36c0.8,7.3,0.6,15.9-1.5,26c-10.1,48,12.3,56.9,14.8,57.7c0.9,0.3,1.9,0.5,2.8,0.5
		c3.7,0,7.3-2.3,8.5-5.9c1.5-4.6-0.7-9.4-5.3-11c-2.9-1.5-9.3-11.1-3.7-37.7c2.3-11.2,2.7-21,2-29.6h64.6
		c1.5,50.3,15.3,88.1,41.6,112.1c24.1,22,51.8,26.3,65.8,26.9l9.5,219.8H276.9l-32-211.3C244.3,213.2,240.6,210,236.3,210.1
		L236.3,210.1z M280.9,455.1l-1.3-8.8h174.7l0.4,8.8H280.9z"/>
</g>
</svg>
