<?xml version="1.0" encoding="utf-8"?>
<!-- Generator: Adobe Illustrator 26.0.0, SVG Export Plug-In . SVG Version: 6.00 Build 0)  -->
<svg version="1.1" id="katman_1" xmlns="http://www.w3.org/2000/svg" xmlns:xlink="http://www.w3.org/1999/xlink" x="0px" y="0px"
	 viewBox="0 0 387.1 339.3" style="enable-background:new 0 0 387.1 339.3;" xml:space="preserve">
<g>
	<path d="M169.7,338.8h1.1c1.1,0,2.2-0.6,3.4-1.1c1.1-1.1,2.2-2.2,2.2-3.9l17.4-112.6l17.4,113.1c0,1.7,1.1,2.8,2.2,3.9
		s2.8,1.1,3.9,1.1L382.5,313c2.8-0.6,5-3.4,4.5-6.2L361.2,5c0-2.8-2.8-5-5.6-5H31.4c-2.8,0-5.6,2.2-5.6,5L0,306.8
		c0,2.8,1.7,5.6,4.5,6.2L169.7,338.8z M102,32.5V11.8h46.5v20.7H102z M34.2,43.7h51c-1.1,9-3.9,26.9-14,43.7
		c-9,14.6-19.6,17.9-42,18.5L34.2,43.7z M159.6,11.2h28.6v20.7h-28.6V11.2z M199.4,11.2h11.8v20.7h-11.8V11.2z M359,105.3
		c-22.4-0.6-32.5-3.9-41.4-18.5c-10.1-16.8-13.4-34.7-14-43.7H354L359,105.3z M222.4,32.5V11.8h63.8v20.7H222.4z M211.2,43.7v88.5
		c0,1.7-1.1,12.3-11.8,15.7V43.7L211.2,43.7L211.2,43.7z M221.2,327.1l-21.8-142.2v-0.6v-25.8c16.8-2.8,22.4-17.9,23-26.3V43.7h70
		c0.6,9.5,3.9,30.2,15.7,49.3c11.8,19,25.8,23.5,52.1,23.5l15.6,185.9L221.2,327.1z M352.3,32.5h-55.5V11.8h53.8L352.3,32.5z
		 M90.8,11.2v20.7h-56l1.7-20.7H90.8z M28,116.5c26.3-0.6,40.3-4.5,52.1-23.5c11.8-19,15.1-39.8,15.7-49.3h92.4v140v0.6l-21.8,143.4
		L11.8,303L28,116.5z"/>
</g>
</svg>
