<?xml version="1.0" encoding="utf-8"?>
<!-- Generator: Adobe Illustrator 26.0.0, SVG Export Plug-In . SVG Version: 6.00 Build 0)  -->
<svg version="1.1" id="katman_1" xmlns="http://www.w3.org/2000/svg" xmlns:xlink="http://www.w3.org/1999/xlink" x="0px" y="0px"
	 viewBox="0 0 600 560" style="enable-background:new 0 0 600 560;" xml:space="preserve">
<style type="text/css">
	.st0{fill-rule:evenodd;clip-rule:evenodd;}
</style>
<g>
	<path class="st0" d="M597.8,489.1L597.8,489.1l-15.3-279.6c-0.3-5.3-4.7-9.4-10-9.4C507.3,200,460,153.7,460,90V60h95.4l4.6,110.4
		c0.2,5.4,4.7,9.6,10,9.6c0.1,0,0.3,0,0.4,0c5.5-0.2,9.8-4.9,9.6-10.4l-5-120C573.8,22.7,548.6,0,520,0H80C51.9,0,26.8,22.6,25,49.6
		l-5,120c-0.2,5.5,4.1,10.2,9.6,10.4s10.2-4.1,10.4-9.6L44.6,60H140v30c0,63.7-47.6,110-113.1,110c-5.3,0-9.7,4.2-10,9.5L0,529.5
		c-0.3,5.4,3.8,10.1,9.2,10.5l260,20c5.2,0.4,9.9-3.3,10.6-8.5L300,417.4l20.1,134.1c0.7,4.9,5,8.5,9.9,8.5c0.2,0,0.5,0,0.8,0
		l260-20c5.4-0.4,9.5-5.1,9.2-10.5L597.8,489.1z M80,20h440c12.6,0,26.5,7.9,32.2,20H48C53.6,28.6,66.4,20,80,20L80,20z M350,200
		c5.5,0,10,4.5,10,10s-4.5,10-10,10s-10-4.5-10-10S344.5,200,350,200z M250,170c5.5,0,10,4.5,10,10s-4.5,10-10,10s-10-4.5-10-10
		S244.5,170,250,170z M338.5,539.3l-28.6-190.8c-0.7-4.9-4.9-8.5-9.9-8.5s-9.2,3.6-9.9,8.5l-28.6,190.8l-241-18.6l1-19.7l207.6,19
		c0.3,0,0.6,0,0.9,0c5.1,0,9.5-3.9,10-9.1c0.5-5.5-3.6-10.4-9.1-10.9L22.6,481.1l13.8-261.4C107.5,215.3,160,161,160,90V60h80v91.8
		c-11.6,4.1-20,15.1-20,28.2c0,16.5,13.5,30,30,30s30-13.5,30-30c0-13-8.4-24-20-28.2V60h80v121.8c-11.6,4.1-20,15.1-20,28.2
		c0,16.5,13.5,30,30,30s30-13.5,30-30c0-13-8.4-24-20-28.2V60h80v30c0,72.2,51.2,125.4,123,129.7l14.3,261.2L369.1,500
		c-5.5,0.5-9.5,5.4-9.1,10.9c0.5,5.2,4.8,9.1,9.9,9.1c0.3,0,0.6,0,0.9-0.1l207.5-19.1l1.1,19.9L338.5,539.3z"/>
</g>
</svg>
