<?xml version="1.0" encoding="utf-8"?>
<!-- Generator: Adobe Illustrator 26.0.0, SVG Export Plug-In . SVG Version: 6.00 Build 0)  -->
<svg version="1.1" id="Layer_1" xmlns="http://www.w3.org/2000/svg" xmlns:xlink="http://www.w3.org/1999/xlink" x="0px" y="0px"
	 viewBox="0 0 59.5 63.3" style="enable-background:new 0 0 59.5 63.3;" xml:space="preserve">
<g>
	<path d="M57.6,12.5H1.9c-0.9,0-1.6,0.6-1.7,1.5c-0.1,0.6-0.1,1-0.1,1.5v37c0,5.9,4.8,10.8,10.8,10.8h16c0.9,0,1.7-0.7,1.7-1.7
		l1.1-30h2.1l1.2,30c0,0.9,0.8,1.7,1.7,1.7h13.9c5.9,0,10.8-4.8,10.8-10.8v-37c0-0.4,0-0.9-0.1-1.4C59.2,13.2,58.5,12.5,57.6,12.5z
		 M28.7,28.1c-0.2,0-0.7,0-0.7,0c-0.9,0-1.7,0.7-1.7,1.7l-1.1,30H10.9c-4,0-7.2-3.3-7.2-7.2V28.7c4.7-0.2,8.4-4,8.4-8.7
		c0-1-0.8-1.8-1.8-1.8S8.5,19,8.5,20c0,2.8-2.2,5-4.9,5.2V16h29C32.3,24,29.8,28.1,28.7,28.1z M48.7,59.8H36.5l-1.2-30
		c0-0.9-0.8-1.7-1.7-1.7h-0.2c1.7-3,2.6-7.5,2.8-12.1H56v9.2c-2.7-0.2-4.9-2.4-4.9-5.2c0-1-0.8-1.8-1.8-1.8S47.5,19,47.5,20
		c0,4.7,3.7,8.6,8.4,8.7v23.8C55.9,56.5,52.7,59.8,48.7,59.8z"/>
	<path d="M27.1,10.5h5.4c2.8,0,5.2-2.3,5.2-5.1s-2.3-5.2-5.2-5.2h-5.4c-2.8,0-5.2,2.3-5.2,5.2C21.9,8.2,24.2,10.5,27.1,10.5z
		 M27.1,3.7h5.4c0.9,0,1.7,0.7,1.7,1.7S33.5,7,32.5,7h-5.4c-0.9,0-1.7-0.7-1.7-1.6S26.2,3.7,27.1,3.7z"/>
	<path d="M57.7,0H37.5c1,0.9,1.7,2.1,2.1,3.5H56v3.8H39.6c-0.4,1.4-1.1,2.6-2.1,3.5h20.2c1,0,1.8-0.8,1.8-1.8V1.7
		C59.5,0.8,58.7,0,57.7,0z"/>
	<path d="M1.8,10.8H22c-1-0.9-1.7-2.1-2.1-3.5H3.6V3.5H20c0.4-1.4,1.1-2.6,2.1-3.5H1.8C0.8,0,0,0.8,0,1.8v7.3
		C0.1,10,0.8,10.8,1.8,10.8z"/>
	<path d="M5.7,39.1v6.5c0,3.8,3.9,7,8.7,7s8.7-3.1,8.7-7v-6.5c0-3.8-3.9-7-8.7-7S5.7,35.3,5.7,39.1z M14.4,49.1
		c-2.8,0-5.2-1.6-5.2-3.5v-3.5h10.3v3.5C19.6,47.5,17.2,49.1,14.4,49.1z M14.4,35.6c2.6,0,4.7,1.3,5.1,3H9.3
		C9.7,37,11.8,35.6,14.4,35.6z"/>
</g>
</svg>
