<?xml version="1.0" encoding="utf-8"?>
<!-- Generator: Adobe Illustrator 26.0.0, SVG Export Plug-In . SVG Version: 6.00 Build 0)  -->
<svg version="1.1" id="Capa_1" xmlns="http://www.w3.org/2000/svg" xmlns:xlink="http://www.w3.org/1999/xlink" x="0px" y="0px"
	 viewBox="0 0 190.6 149.3" style="enable-background:new 0 0 190.6 149.3;" xml:space="preserve">
<g>
	<path d="M179.8,75.5c-5.6-21.4-11.2-42.9-16-64.5c-0.1-0.5-0.4-1-0.7-1.3c1.5-3.8-2-9.5-6.6-7.6c-39.1,16.1-86.4,9.4-125.9-1.8
		c-2.6-0.8-4.6,0.5-5.5,2.3c-1.4-0.4-2.8,0-3.1,1.8C18.8,27.8,13.4,51,8.2,74.1c-3.6,15.6-12.2,40.6-6,56.2c0.4,1.1,1.2,1.9,2.1,2.4
		c0.2,1,0.9,2,2.1,2.6c24,12,53.3,18,79.6,10.9c5.8-1.6,4.9-9,0.6-10.9c3.8-4.5,5.6-11.9,6.9-16.6c2-7.4,3.2-15,4.4-22.6
		c2.1,5.4,4,10.9,5.8,16.4c2.8,8.6,4.1,19.8,9.2,27.4c-2.1,2.7-0.9,7.3,3.6,7.8c22.7,2.3,48,0.4,66.2-14.6c0.6-0.5,1-1,1.3-1.5
		c2.7,0.7,6.1-1.7,6.4-4.7C191.8,110.6,183.9,91.2,179.8,75.5z M156.9,13.7c0.3,4.9,0.8,9.9,1.4,14.8c-0.9-0.6-2.1-0.9-3.5-0.5
		c-0.8-2-1.6-4-2.4-6c-0.7-1.8-1.2-4-1.9-5.9C152.6,15.3,154.8,14.6,156.9,13.7z M144.6,17.8c0.6,1.8,1.6,3.6,2.4,5.3
		c1,2.2,2.2,4.2,3.4,6.3c-1.9,0.6-3.8,1.2-5.6,1.8c0.1-2.3,0.2-4.6-0.1-6.9c-0.2-1.9-0.4-4.4-1.4-6.2
		C143.7,18.1,144.2,18,144.6,17.8z M133.5,32.6l0.4-6.4c0.1-2.1,0.4-4-0.3-5.8c1-0.2,2-0.4,3-0.6c0.1,1.8,1,3.6,1.5,5.4
		c0.6,2.5,0.9,5,1.1,7.5c-2.1,0.5-4.1,1-6.2,1.5C133.3,33.8,133.5,33.3,133.5,32.6z M100.2,38.3c2.7-4.3,3.2-9.5,3.7-14.5
		c0-0.2,0-0.4-0.1-0.6c7.8,0,15.6-0.6,23.2-1.7c-0.2,1.2-0.1,2.6,0,4c0.1,2.3,0.3,4.7,0.4,7c0.1,1.3,0.7,2.1,1.5,2.5
		c-3.2,0.6-6.4,1.2-9.6,1.7c-0.1-0.8-0.2-1.7-0.2-2.5c-0.1-3,0.9-6.4-0.2-9.2c-0.9-2.2-3.7-2.2-4.5,0c-1.2,3-0.2,6.7,0.3,9.8
		c0.1,0.8,0.3,1.6,0.5,2.4c-5.1,0.7-10.3,1.1-15.5,1.4C99.9,38.7,100,38.5,100.2,38.3z M89.3,29.8c0.2-2.3,0.6-4.7,0.3-6.9
		c2.6,0.2,5.1,0.3,7.7,0.4c0,0.2-0.1,0.4-0.1,0.6c0.3,4.3,0.2,8.7-1.2,12.8c-0.3,1,0.1,1.9,0.9,2.3c-2.8,0.1-5.6,0.2-8.4,0.2
		C88.9,36,89.1,32.9,89.3,29.8z M78.1,28.4c0.1-2.2,0.3-4.5,0.1-6.7c1.9,0.2,3.9,0.4,5.8,0.6c-0.4,2.4,0.1,4.9,0.2,7.4
		c0.2,3.1,0.5,6.2,0.7,9.4c-2.4,0-4.9-0.1-7.3-0.2C77.8,35.4,78,31.9,78.1,28.4z M65.7,20c0-0.1-0.1-0.1-0.2-0.2
		c2.3,0.4,4.7,0.8,7,1.1c-0.2,1.9-0.1,3.8-0.1,5.8c0.1,4,0.3,8,0.5,11.9c-2.9-0.2-5.9-0.4-8.8-0.6c0.8-2.2,1.4-4.5,1.7-6.9
		C66.4,27.7,67.5,23.2,65.7,20z M40.8,14c2.9,0.9,5.9,1.6,8.9,2.4c-0.2,2.4,0.1,4.9,0.1,7.4c0.1,3.7,0.3,7.4,0.5,11.1
		c0.1,2.4,3.7,2.4,3.8,0c0.2-3.7,0.4-7.4,0.5-11.1c0.1-2,0.2-4.1,0.2-6.1c2.5,0.6,5.1,1.1,7.7,1.6c-0.3,0.2-0.6,0.4-0.7,0.7
		c-1.6,2.8-0.8,6.1-0.7,9.2c0,2.9-0.2,5.7-1.1,8.5c-8.6-0.9-17.2-2.1-25.7-3.6c1.4-3.4,2.8-6.8,4.1-10.2
		C39.7,20.7,41.6,17.5,40.8,14z M27.8,9.8c0.1,0,0.1,0.1,0.2,0.1c2.8,1,5.8,2,8.7,2.9c-2.3,2.1-2.7,4.9-3.6,8
		c-1.2,4.1-2.3,8.3-3.4,12.5c-0.9-0.2-1.7-0.3-2.6-0.5C27.9,25.2,28.3,17.6,27.8,9.8z M174.7,125.2c-15.6,12.2-35.2,11.6-54,12.7
		c0.4-9.1-4.4-19.4-7.1-28.1c-3.6-11.6-7.9-22.9-13.1-33.9c-2-4.3-8.5-2.8-9.6,1.3c-5,18-3.3,41.4-13.6,57.3
		c-0.4,0.6-0.5,1.2-0.5,1.8c-22.3,3.6-44-2.7-65.6-8.8c1.5-7.1,1-14.7,2.1-21.8C14.9,94.4,17.6,83.2,20,72
		c2.5-11.4,4.9-22.6,6.4-33.9c41.4,13.5,89.8,16,130.5-1c1.1-0.4,1.8-1.1,2.3-1.9c2.1,12.9,5.1,25.6,8.1,38.2
		c3.9,16.1,6.2,34.7,12,50.5C177.9,123.7,176.2,124,174.7,125.2z"/>
</g>
</svg>
