<svg xmlns="http://www.w3.org/2000/svg" viewBox="0 0 265.16 330.62"><g id="katman_2" data-name="katman 2"><g id="katman_1-2" data-name="katman 1"><path d="M260.46,330.62H148.73a10.24,10.24,0,0,1-4.8-7.5c-2.81-15.31-5.83-30.59-8.78-45.88-.73-3.78-1.5-7.55-2.42-12.19a18.31,18.31,0,0,0-.74,1.82c-3.49,18.46-7,36.92-10.43,55.39-.65,3.52-1.62,6.67-5.13,8.36H4.7C1,328.87,0,325.91,0,322Q.12,213.48.1,105a23.27,23.27,0,0,1,1.14-6.92C4.63,87.67,8.17,77.3,11.71,66.93,18.24,47.77,26.23,29,23.56,7.87,22.87,2.48,25.85,0,31.35,0H233.81c5.49,0,7.88,2.4,7.91,7.87,0,7.11-.05,14.21.05,21.31a17.67,17.67,0,0,0,.86,5.35c7,21.09,14.16,42.15,21.17,63.25a23.46,23.46,0,0,1,1.25,7.22q.1,108.48.11,217C265.17,325.91,264.13,328.87,260.46,330.62ZM64.64,39.47c-.2,1.23-.37,2.28-.53,3.33C61.86,58,58,72.69,50.62,86.28,42.6,101,31.54,112.48,15.23,118c-2.34.78-2.47,2.15-2.47,4.11q0,96.2,0,192.39c0,1,.13,2.06.21,3.18h96.1c.26-1.05.54-2,.72-2.9q6.25-32.78,12.48-65.55c1.4-7.49,3.65-15,3.68-22.53.31-61.22.17-122.45.17-183.67V39.47Zm103.19,0c-.06,1.17-.15,2.21-.15,3.26V139.3a70.75,70.75,0,0,1-.08,8.37c-2,16.74-10.62,28.72-26.09,35.6-1.82.81-2.57,1.69-2.55,3.76.1,13.56,0,27.11.06,40.67a19.84,19.84,0,0,0,.37,3.52q5.33,28,10.7,56,2.9,15.15,5.85,30.25h96.44V314q0-95.88.06-191.75c0-2.6-.76-3.79-3.21-4.61-11.6-3.88-20.67-11.24-28-20.91-9.67-12.8-14.89-27.5-18.24-43-1-4.7-1.74-9.47-2.62-14.28Zm-28.62,0V170.23a24.22,24.22,0,0,0,10.21-8.92A34.78,34.78,0,0,0,155,141.77q.06-49.68,0-99.37c0-.93-.12-1.86-.19-2.89ZM12.65,105.41a44.05,44.05,0,0,0,19-13.77C44,76.58,48.72,58.52,51.74,39.37c-5,0-9.71.12-14.41,0-2.19-.08-3.13.58-3.84,2.72C26.92,61.91,20.2,81.73,13.55,101.57,13.2,102.63,13,103.76,12.65,105.41Zm201.1-65.87a12.26,12.26,0,0,0,0,1.36,122.06,122.06,0,0,0,9.47,34c4.18,9.43,9.79,18,18.15,24.26,3.21,2.43,6.87,4.29,10.32,6.4l.95-.93q-10.94-32.56-21.86-65.1ZM93.2,26.18H126V13H93.2Zm45.92.22H172V13.07H139.12Zm-102.72,0H61.54V13.08H36.4Zm167.16,0h25.15V13.08H203.56Zm-128.9-.07h5.26V13.1H74.66ZM190.52,13.05h-5.4V26.3h5.4Z"/></g></g></svg>