<svg xmlns="http://www.w3.org/2000/svg" viewBox="0 0 340.11 408.87"><g id="katman_2" data-name="katman 2"><g id="katman_1-2" data-name="katman 1"><path d="M322.62,408.87H188.44c-4.81-2.71-4.39-7.45-4.56-11.91q-2.56-70.21-5.1-140.43c-.38-10.37-.73-20.74-1.3-31.11-.29-5.35-3.39-8-8.21-7.57-4.24.38-6.46,2.91-6.68,8.36-1,25.4-2,50.8-2.9,76.2q-1.83,48.85-3.61,97.73c-.12,3.72-1.08,6.74-4.38,8.73H17.52c-3.17-2.11-4.09-5.1-4.2-8.83-.42-14.89-1.09-29.78-1.67-44.67Q9,286.58,6.32,217.78q-1.83-47.07-3.69-94.12Q1.31,89.76,0,55.86A15,15,0,0,1,4.14,44.6a8.92,8.92,0,0,0,2.27-5.38c.22-10,.09-19.95.11-29.93C6.54,2,8.57,0,15.76,0H324.37c7.19,0,9.24,2.05,9.25,9.28,0,10.12,0,20.23.05,30.34,0,1.35.22,3.26,1.1,3.94,5.2,4.08,5.52,9.56,5.28,15.49Q336.95,136,334,213q-3.63,93.31-7.13,186.65C326.69,403.47,326,406.66,322.62,408.87ZM190.1,53.94V83.36c0,24.09.05,48.17,0,72.25,0,12.36-8.16,20.65-20.28,21-2.22.06-4.43,0-6.75,0v29.28l1.75-.35c13.78-2.76,24.34,5.11,25.51,19.08.28,3.31.36,6.64.48,10q2.16,59,4.3,118.07c.2,5.27.51,10.54.77,15.87H315.22l8.44-219c-1.86-.31-3.16-.56-4.48-.74-24.88-3.34-45.45-20.93-50.8-45.42C266,92.56,266.63,81.15,266.09,70c-.25-5.28,0-10.58,0-16.09ZM144,368.62c5.86-105,7.19-209.74,5.72-314.57H74.09c0,11.24.18,22.14,0,33C73.55,112.43,62.38,131.55,39.6,143c-7,3.5-15,5-23.08,7.55,2.78,72.12,5.59,145,8.41,218.1ZM324.14,136.29c1.07-27.6,2.12-54.9,3.18-82.22H279.13c0,13-.82,25.69.18,38.25A47.38,47.38,0,0,0,324.14,136.29Zm-168-95.68h96V13.06h-96ZM13.75,54c0,8.88,0,17.24,0,25.59,0,2.28,1.34,2.5,3.14,2.49,5.45,0,10.9-.12,16.35,0,7.88.23,12.88,5,13.37,12.92.26,4.1.11,8.24.12,12.36,0,4.71,0,9.42,0,14.13,8.08-7.2,13.11-16,13.77-26.26.87-13.37.53-26.82.69-40.23,0-.34-.35-.67-.54-1ZM143.49,381.88H26v13.91H143.49Zm53.19,14.06H314.16v-14H196.68Zm-33.61-342V163.44c10.06,1.35,14.49-.12,14.35-11.86-.36-31-.12-61.94-.12-92.91V53.9ZM19.61,13V40.55H74.72V13Zm245.87,0V40.55h55.11V13ZM142.91,13H88V40.56h54.93Zm-109,82.1H14.36c.57,13.93,1.13,27.54,1.72,42,5.58-1.58,10.56-2.87,15.45-4.47a3.83,3.83,0,0,0,2.24-2.7C33.92,118.44,33.87,106.89,33.87,95.14Z"/><path d="M170.07,20.65a6.26,6.26,0,0,1,6.38,6.19,6.45,6.45,0,0,1-6.28,6.37,6.55,6.55,0,0,1-6.41-6.28A6.25,6.25,0,0,1,170.07,20.65Z"/></g></g></svg>