<svg xmlns="http://www.w3.org/2000/svg" viewBox="0 0 384 384"><g id="katman_2" data-name="katman 2"><g id="katman_1-2" data-name="katman 1"><path d="M102,0H332.25c10.95,3.69,14.95,11.48,14.52,22.76-.52,13.35-.18,26.74-.07,40.11a25.52,25.52,0,0,0,1.13,7.31,368.2,368.2,0,0,1,15.29,75.06c.91,9.54,2,19.06,3.07,28.53,13.11,1.29,14.86,3.06,16.47,16.15.33,2.71.89,5.39,1.34,8.08v7.5c-2,4.87-4.46,9.38-9.32,12.15-.69.39-1,2.15-.85,3.2,2.28,20,4.7,39.9,6.95,59.85.23,2,.19,4.5-.76,6.18-1.84,3.27-1.35,6.48-1,9.8.66,6.45,1.31,12.91,2,19.35.94,8.16,2,16.31,2.95,24.47v8.25c-2.9,7.59-7.72,12.88-16.21,14.18Q311,371.57,254.15,380.36c-7,1.07-13.94,2.42-20.9,3.64h-7.5c-8.93-3-14-8.84-14.79-18.48-3.23-37.31-6.63-74.6-10-111.89-.55-6.17-1.15-12.34-1.73-18.5H184.89a9.75,9.75,0,0,0-.32,1.35c-3.81,42.52-7.7,85-11.36,127.55-.84,9.86-4.81,16.86-14.71,19.69-.1,0-.17.19-.25.28h-7.5c-2.28-.5-4.53-1.12-6.83-1.47Q100.08,375.74,56.23,369c-3.95-.61-5.94-3.24-5.31-6.73.56-3.17,3.31-4.95,7.11-4.37,11.85,1.79,23.68,3.66,35.52,5.5q29.79,4.61,59.57,9.19c4,.61,7.49-1.29,8.08-4.89.87-5.25,1.2-10.6,1.78-16.22L13,328.88c-.58,5-1.13,9.47-1.58,13.92-.55,5.47,1.62,8.17,7,9s10.62,1.55,15.91,2.49c3.55.63,5.6,3.19,5.28,6.17-.35,3.22-3,5.28-6.74,4.87-4.34-.46-8.63-1.48-13-1.8-9.83-.74-16.62-5.33-19.91-14.77V340.5a5.88,5.88,0,0,0,.52-1.39Q3,315.47,5.36,291.82c.1-1-.52-2.11-.69-3.18-.48-3-1.56-6.11-1.24-9,2.11-19.72,4.55-39.41,6.8-59.12.11-.93-.25-2.48-.9-2.85C4.46,214.89,2,210.39,0,205.5V198c.51-3.43,1.17-6.86,1.52-10.31,1-10.14,5-13.73,15.28-13.59a4.27,4.27,0,0,0,1.13-.38c.75-7.08,1.62-14.13,2.22-21.2A371.62,371.62,0,0,1,36.34,69.76a22.23,22.23,0,0,0,1-6.59c.09-14.73,0-29.46.06-44.19C37.41,9.71,41.79,3.7,50.5.7A7.76,7.76,0,0,0,51.75,0h31.5c2.5,1.88,4.64,4,3.36,7.48s-4.15,3.94-7.36,3.79c-1.83-.09-3.66,0-5.5,0V62H111.8V57.79c0-6.88-.07-13.75,0-20.62.06-3.73,2.49-6.11,5.77-6s5.39,2.36,5.4,6q.1,21.38,0,42.74c0,3.59-2.25,5.81-5.46,5.86s-5.49-2.17-5.71-5.67c-.13-2.08,0-4.17,0-6.42H98.47c-1.08,5.65-1.7,11.27-3.27,16.61-8.34,28.44-25.92,48-55.1,55.84-7.93,2.14-8.08,1.9-9,10-.75,6.42-1.27,12.87-1.91,19.48,1.84.26,3.3.5,4.78.67q21.39,2.53,42.79,5.05c5,.59,8.52,3.34,9.76,8.07.76,2.9.48,6.19.16,9.25-1.28,12-2.77,24.07-4.17,36.1-2.09,17.86-4.08,35.74-6.29,53.59C75.1,297.1,70.4,300.84,61.65,300c-7.83-.73-15.63-1.8-23.45-2.69-7.14-.82-14.29-1.62-21.72-2.45L14.1,317.67l149.84,22.54c3.22-35.85,6.4-71.13,9.59-106.57-1.55-.44-2.73-.8-3.91-1.1L130,222.69c-4.43-1.1-6.45-3.8-5.51-7.36.86-3.28,3.9-4.63,8.23-3.59,4.12,1,8.23,2.08,12.34,3.11L173.69,222V11.28h-4.38c-21.12,0-42.24,0-63.36,0-3.22,0-6.1-.41-7.35-3.84S99.48,1.86,102,0ZM310.38,62V11.44H185.5V62.19c10.26,0,20.24,0,30.22,0,4.17,0,6.63,2,6.73,5.41s-2.54,5.72-6.81,5.82c-1.81,0-3.62,0-5.61,0v5c0,25.5.06,51,0,76.48a30.16,30.16,0,0,1-21.56,28.86l-2.9.91v38.72c10.17.32,19.9.29,29.59-2.56,12-3.52,24.17-6.2,36.28-9.19,4.27-1.05,7.33.45,8.1,3.78s-1.07,6-5.34,7.16c-5.2,1.35-10.41,2.59-15.62,3.9l-28.07,7.07c3.21,35.6,6.38,70.87,9.6,106.63L370,317.7c-.86-7.86-1.67-15.33-2.49-22.82l-45.64,5.23c-5,.57-9.42-.85-11.89-5.31-1.45-2.61-2-5.88-2.36-8.92-2-16.23-3.87-32.49-5.76-48.73-1.62-13.9-3.36-27.78-4.78-41.69-.88-8.49,3-13.24,11.51-14.39,7.43-1,14.89-1.72,22.33-2.59L355,175.62c-.81-7.54-1.56-14.71-2.34-21.88-.66-6-.7-5.84-6.29-7.15-30.6-7.16-48.89-27-57.6-56.44-1.58-5.33-2.19-11-3.26-16.51H272.2c0,1.78,0,3.38,0,5-.06,4.65-2.15,7.19-5.83,7.09s-5.4-2.49-5.41-7q0-15.75,0-31.5c0-3.5-.09-7,.05-10.49a5.4,5.4,0,0,1,5.45-5.51,5.59,5.59,0,0,1,5.69,5.34,37.69,37.69,0,0,1,.06,4.12c0,7.08,0,14.16,0,21.41Zm60.67,266.9L221.11,351.47c.43,5,.69,9.46,1.22,13.91.71,5.84,3.75,7.94,9.56,7q23.3-3.65,46.62-7.19,43.85-6.74,87.69-13.51c4.58-.71,6.83-3.5,6.46-8.06C372.28,338.94,371.65,334.25,371.05,328.92ZM311.87,226.08q3.6,30.81,7.38,63l50.51-5.89c-2.48-21.22-4.89-41.86-7.33-62.75Zm-239.75,0-50.56-5.58c-2.46,21.09-4.86,41.74-7.31,62.76l50.52,5.85Q68.57,256.55,72.12,226.06ZM86.52,73.45c-12.8,0-25.28,0-37.75.11-.86,0-2.18,1.44-2.47,2.45-2.53,8.87-5.21,17.72-7.19,26.72-2.38,10.78-4.13,21.71-6.19,32.78C59.88,133,84.93,105.87,86.52,73.45Zm264.16,62.21A321.11,321.11,0,0,0,337.5,75.52c-.32-1-2.32-2-3.55-2-11.24-.15-22.49-.09-33.73-.07a25.67,25.67,0,0,0-2.78.29C299.35,106,323.5,132.36,350.68,135.66ZM13.18,185.13c-.65,5.91-1.5,11.44-1.79,17-.18,3.53,2.53,5.94,6.5,6.43q24.12,2.91,48.27,5.71c3.7.43,6.93-1.27,7.58-4.62,1.09-5.56,1.57-11.24,2.35-17.18Zm294.75,7.35c.74,5.88,1.22,11.45,2.22,16.92.61,3.37,3.81,5.31,7.42,4.89q24.53-2.81,49-5.79c3.53-.42,6.06-2.64,6-6.1-.15-5.66-1.09-11.31-1.73-17.24ZM185.5,73.6v99.07c8.1-2.28,13.25-9.45,13.26-18.48q.06-39,0-78c0-.83-.13-1.67-.21-2.63ZM61.9,62.09V11.28H58.64c-8.24,0-10,1.75-10,10.12q0,18.35,0,36.69c0,1.31.12,2.62.19,4Zm273.41,0c0-15.18.09-30-.07-44.83,0-3.42-2.5-5.43-5.79-5.86a55.85,55.85,0,0,0-7.32-.07V62.09Z"/><path d="M147.87,58.56c0,6.86,0,13.72,0,20.58,0,4.22-2,6.52-5.48,6.56s-5.7-2.34-5.72-6.42q-.1-20.77,0-41.53c0-4.07,2.26-6.56,5.59-6.6,3.53,0,5.6,2.42,5.63,6.83C147.9,44.84,147.87,51.7,147.87,58.56Z"/><path d="M236.13,58.52c0-6.86,0-13.72,0-20.58,0-4.4,2.13-6.86,5.66-6.8,3.33.07,5.54,2.57,5.56,6.64q.07,20.58,0,41.16c0,4.38-2.2,6.81-5.77,6.75s-5.43-2.39-5.45-7C236.11,72,236.13,65.26,236.13,58.52Z"/><path d="M210.66,42.2c-2.12,0-4.24.09-6.36,0-3.22-.15-5.05-2-5.45-5.11a5.3,5.3,0,0,1,5-5.88,109.74,109.74,0,0,1,13.45,0A5.28,5.28,0,0,1,222.41,37c-.36,3.1-2.14,5-5.39,5.16C214.91,42.28,212.78,42.2,210.66,42.2Z"/></g></g></svg>