<svg xmlns="http://www.w3.org/2000/svg" viewBox="0 0 336.03 336.11"><g id="katman_2" data-name="katman 2"><g id="katman_1-2" data-name="katman 1"><path d="M240,60h29.86C280,60,280,60,290.69,55.5c1.61,9.26,3.22,18.42,4.8,27.59Q306.92,149.54,318.35,216q8.72,50.58,17.45,101.15A16.06,16.06,0,0,1,320.2,336q-55.33.21-110.67,0c-10.44-.05-18.6-8.51-19.7-19-3-28.2-5.59-56.45-9.3-84.55-1.88-14.3-5.73-28.35-8.86-42.47-.61-2.75-2-5.32-3.47-9.08-1.29,2.64-2.47,4.24-2.89,6-3.19,13.46-7.27,26.82-9.1,40.48-4,29.7-6.92,59.54-10.08,89.35-1.17,11-9.49,19.3-20.61,19.33q-54.58.12-109.17,0C5.63,336-1.55,326.92.29,316.29Q15.17,229.9,30,143.51q7.47-43.38,15-86.75a11.06,11.06,0,0,1,.48-1.42C57.15,63.07,70.21,59.09,82.71,60c4.21.3,8.47.05,12.93.05,1.31,16.67-.51,32.54-8.92,47.15-9.29,16.16-22.73,27.37-40.5,33.15-2.73.89-3.89,2.17-4.38,5.05Q29.38,218.5,16.7,291.57c-1.53,8.86-3.09,17.72-4.59,26.58-.68,4,.87,5.9,5.05,5.9q53.84,0,107.66,0c6,0,8.88-3.35,9.4-9.77,3.07-37.61,6.43-75.2,14.38-112.17a174.09,174.09,0,0,1,7.45-23.88c2-5.27,5.37-10,11.79-10.08,6.63-.07,10.32,4.75,12.06,10.2,3.7,11.61,7.34,23.34,9.68,35.28,6,30.68,8.91,61.8,11.49,92.93.22,2.74.5,5.48.67,8.22.4,6.17,3.59,9.27,9.86,9.28q28.52,0,57,0h49.15c5.58,0,6.74-1.53,5.78-7.14Q309.86,237.37,296.2,157.8c-.85-4.92-.36-10.83-3-14.47-2.51-3.45-8.36-4.41-12.64-6.66-25.95-13.61-39.54-35-40.55-64.36C239.88,68.34,240,64.37,240,60Z"/><path d="M201.84,112.34c-5.06-18.81-10.09-37.35-15-55.93-.55-2.08-1.55-2.44-3.4-2.42q-15.57.09-31.13,0c-2,0-2.77.62-3.29,2.57-4.69,17.86-9.54,35.68-14.2,53.55a4.42,4.42,0,0,0,1.16,3.53c2.24,2.18,3.17,4.59,1.79,7.4s-4,4-7.21,3.18c-3-.78-6-1.61-9-2.44-4.87-1.36-6.94-3.45-6.7-6.73s2.43-5.1,7.68-5.91C127.41,91,132.3,72.67,137.3,54h-4.42q-35.64,0-71.26,0C49.41,54,42,46.58,41.92,34.46c0-5,0-10,0-15C42,7.55,49.44,0,61.33,0H208q33.18,0,66.38,0C286.54,0,294,7.44,294,19.59c0,5.25,0,10.5,0,15.75C293.91,46.27,286.25,54,275.3,54c-24.25,0-48.5,0-72.75,0h-3.91c5,18.55,9.84,36.79,14.78,55.24.89.1,1.73.14,2.55.28a5.68,5.68,0,0,1,5,5.28,5.26,5.26,0,0,1-3.57,6c-4.37,1.45-8.82,3-13.34,3.46-1.87.21-4.88-1.68-5.79-3.44-.82-1.56.38-4.31,1-6.43C199.58,113.59,200.82,113.13,201.84,112.34Z"/></g></g></svg>