<svg xmlns="http://www.w3.org/2000/svg" viewBox="0 0 271.44 273.99"><g id="katman_2" data-name="katman 2"><g id="katman_1-2" data-name="katman 1"><path d="M136.15,225.57c-2.28,6.09-4.27,11.46-6.3,16.82C122.39,262,106,273.47,85.08,272.9,58.72,272.19,32.37,271,6,270c-4.25-.16-6.26-2.39-6-6.84,1-17.59,2.2-35.17,3.27-52.75,1.4-23.07,2.74-46.15,4.15-69.22q2.35-38.35,4.79-76.69Q14,36.29,15.66,8c.38-6.55,1.82-8,8.47-8H247.27c6.65,0,8.1,1.5,8.49,8q2.82,46.76,5.73,93.52,2.42,39.46,4.8,78.94,2.44,39.85,4.95,79.69c.07,1.12.19,2.25.2,3.37,0,4.16-1.85,6.26-6,6.5-22.34,1.27-44.67,2.64-67,3.66-7.06.33-14.34.63-21.21-.71-14.36-2.81-24.7-11.55-31-24.75C142.75,241.07,139.73,233.68,136.15,225.57ZM130.29,49.46H64.49c0,1.55,0,2.67,0,3.79q2.53,56.82-44,89.52a6.54,6.54,0,0,0-2.3,4.24c-.55,5.08-.7,10.21-1,15.33q-2.78,45.65-5.53,91.3c-.11,1.81-.2,3.62-.3,5.57,1.14.1,1.87.2,2.61.22,23.73.83,47.46,1.7,71.2,2.44,16.07.51,28.44-7.82,34.2-22.91,3.57-9.32,7-18.7,10.43-28.07,1-2.8,2.16-5.4,5.75-5.5s4.89,2.4,6.08,5.15q6.71,15.45,13.46,30.89c6.54,14.86,18.35,22.45,34.61,21.81,15-.59,30-1.53,44.93-2.36,8.45-.47,16.89-1,25.47-1.55-.07-1.5-.11-2.61-.17-3.72q-1.36-22.08-2.72-44.15c-1.31-21.45-2.57-42.91-4-64.35a6.83,6.83,0,0,0-2.5-4.5c-30.26-21.49-45-50.68-43.81-87.8.06-1.82,0-3.64,0-5.53H141.14v4.64q0,46.49,0,93A29.62,29.62,0,0,1,141,151a5,5,0,0,1-5.43,4.62,4.94,4.94,0,0,1-5.15-4.51,28.23,28.23,0,0,1-.14-4.12V49.46ZM24.94,37.41H246.51c-.53-8.82-1-17.37-1.58-26.1H26.49C26,20,25.47,28.56,24.94,37.41Zm-.75,11.81c-1.65,27-3.28,53.52-4.94,80.6C47.7,109.15,57.57,72,52.61,49.22Zm228,79.9q-2.44-39.87-4.91-79.78h-29C215.34,82,226.31,108.57,252.14,129.12Z"/></g></g></svg>