<svg xmlns="http://www.w3.org/2000/svg" viewBox="0 0 384 356.71"><g id="katman_2" data-name="katman 2"><g id="katman_1-2" data-name="katman 1"><path d="M0,310.46c2.48-9.64,5.07-19.25,7.42-28.91Q31.66,181.88,55.8,82.17a33.7,33.7,0,0,0,1-7.75c.08-19.75,0-39.5.05-59.25C56.82,5,61.8,0,72,0h36.37c.88,0,1.76,0,2.63,0,3.44.28,5.8,2.66,5.74,5.73s-2.42,5.43-6,5.45c-11.75.08-23.5,0-35.25,0-8.24,0-7.5-.94-7.5,7.34q0,25.13,0,50.25v4.65H143.1c8.27,0,12.09,2.57,15.17,10.18,1.77,4.39,3.61,8.77,5.24,13.22.81,2.18,2,3.09,4.4,3.08q24-.14,48,0c2.57,0,3.8-1,4.65-3.28,1.7-4.69,3.69-9.27,5.52-13.92,2.49-6.33,7.12-9.32,13.9-9.31q35.43.06,70.87,0h4.92c.07-1.36.17-2.54.17-3.73,0-18-.08-36,.08-54,0-3.73-1.3-4.6-4.79-4.59q-85.13.13-170.24.06c-1.25,0-2.51.07-3.75,0-3.16-.28-5.07-2-5.33-5.2a5.43,5.43,0,0,1,5-5.93,21.4,21.4,0,0,1,3-.07H312c10.18,0,15.15,5,15.16,15.2,0,17.63.39,35.26-.13,52.87-.33,11.28,3,21.7,5.56,32.33,10.13,42.23,20.46,84.41,30.71,126.61,1,4.25-.36,7.15-3.78,8.08s-6-1.08-7.1-5.35c-.16-.6-.35-1.2-.49-1.81q-9.13-37.65-18.25-75.31c-1.23-5.08-2.51-10.16-3.86-15.65-3.81,3.77-7.35,7.25-10.85,10.77-5.73,5.75-11.39,11.58-17.17,17.29a8,8,0,0,0-2.34,8.18l35.76,147c.12.46.32.91.65,1.81l36.73-8.88c-1.81-7.57-3.54-14.92-5.32-22.26q-3.9-16-7.85-32c0-.12-.06-.24-.08-.37-1.11-4.8.27-8,3.83-8.71s6,1.38,7.14,5.93c1.83,7.52,3.61,15,5.44,22.57q3.66,15.09,7.39,30.18a14.26,14.26,0,0,0,.82,2v5.25c-1.81,4.81-5.19,7.58-10.26,8.8q-65.31,15.72-130.56,31.61c-8.26,2-13.25-1.1-15.25-9.31Q210.68,275.91,193.45,205c-.33-1.34-.73-2.67-1.1-4a11,11,0,0,0-1.86,4.34q-17.13,70.36-34.24,140.71c-2.29,9.4-7,12.14-16.52,9.83Q75.56,340.27,11.37,324.75c-5.4-1.3-9.46-3.66-11.37-9ZM66.81,84.77c-3.06,12.58-6.14,24.92-9,37.33-.27,1.17.79,3,1.78,4q15.28,15.74,30.76,31.28a18.15,18.15,0,0,1,5,18.2Q83.14,226.19,70.9,276.77c-3.85,15.85-7.71,31.71-11.65,47.93l85.41,20.76c.37-1.26.68-2.18.91-3.12q9.72-39.82,19.41-79.66,7.83-32.2,15.69-64.39c1.57-6.34,5.74-9.59,11.71-9.45s9.64,3.66,11.49,11.27Q218.65,261.06,233.41,322c1.88,7.73,3.81,15.45,5.8,23.53l85.47-20.76c-.4-1.82-.7-3.26-1-4.69q-17.38-71.49-34.83-143c-2-8.16-.3-14.84,5.79-20.78,10.1-9.87,19.84-20.11,29.85-30.08a5.14,5.14,0,0,0,1.53-5.63c-1.59-6-3-12.12-4.45-18.18-1.44-5.89-2.93-11.77-4.4-17.68-26.05,0-51.67,0-77.29.11a4.88,4.88,0,0,0-3.41,2.59c-2.22,4.87-4.1,9.91-6.09,14.89-2.36,5.87-6.68,8.84-13,8.84H166.7c-6.33,0-10.66-3-13-8.81-2-5-3.85-10-6.11-14.89a5.2,5.2,0,0,0-3.76-2.62C118.32,84.73,92.82,84.77,66.81,84.77ZM48.23,322c.3-1.14.47-1.73.61-2.32q17.69-72.76,35.42-145.5c1-4,.22-6.93-2.68-9.8-8.45-8.34-16.72-16.86-25.08-25.29-.65-.66-1.42-1.22-2.41-2.05C39.78,196,25.58,254.45,11.33,313.08Z"/><path d="M191.74,64c-7.36,0-14.72,0-22.08,0S159,60.54,158.9,53.21c0-6-.06-12,0-18s3.66-9.85,9.76-9.88q23.38-.13,46.78,0c5.87,0,9.52,3.78,9.61,9.65.11,6.36.1,12.72,0,19.09-.08,6.14-3.59,9.78-9.76,9.89C207.47,64.13,199.6,64,191.74,64Zm21.86-11.4V36.79H170.4V52.63Z"/></g></g></svg>