<svg xmlns="http://www.w3.org/2000/svg" viewBox="0 0 203.89 372.08"><g id="katman_2" data-name="katman 2"><g id="katman_1-2" data-name="katman 1"><path d="M101.48,208.57c-.59,5.12-1.22,10.24-1.79,15.36q-4.77,42.82-9.53,85.66Q87.09,337.33,84,365.08c-.59,5.27-2.44,7-7.73,7q-28.3,0-56.63,0c-5.65,0-7.52-1.9-7.83-7.6q-4-75.06-8-150.12C2.38,186.27.56,158.19,0,130.09c-.55-29.67,5.84-58.27,16.53-85.92a20.19,20.19,0,0,0,1.25-6.89c.13-9.87,0-19.75.06-29.62C17.89,2,19.92,0,25.58,0H178.22c5.19,0,7.63,2,7.67,6.54.09,11-1.26,22.2.4,32.94s6.62,20.85,9.54,31.4c6.9,25,9.11,50.53,7.62,76.46-2,35.55-3.71,71.13-5.58,106.69q-2.93,55.79-5.93,111.57c-.23,4.22-2.44,6.42-6.67,6.43q-29.45.07-58.89,0c-3.87,0-6-2-6.47-5.86q-4.16-36.68-8.21-73.36-4.61-41.53-9.17-83.06a6.93,6.93,0,0,0-.37-1.23ZM23.6,359.78H72.52c2.41-21.75,4.79-43.23,7.19-64.7q4.33-38.93,8.68-77.84,3.77-33.7,7.54-67.41c.39-3.48,2.72-5.68,5.81-5.78,3.25-.1,5.73,2.12,6.16,5.78,1,8.8,2,17.62,3,26.44q3.93,35.37,7.84,70.76l8.67,77.84c1.3,11.64,2.59,23.27,3.91,35h48.92c.24-4.83.47-9.56.72-14.28l5.73-108.2c1.4-26.46,2.93-52.91,4.16-79.38.57-12.34.55-24.72.81-37.08,0-2.31-.81-3.76-2.94-5.07-19.57-12-32.81-28.95-39.5-50.9-1.67-5.46-2.79-11.09-4.2-16.8H58.93a3.77,3.77,0,0,0-.44.81c-.32,1.33-.64,2.67-.9,4-5.23,27.32-19.13,48.73-43.06,63.39a5.39,5.39,0,0,0-2.2,3.81c-.22,8.11-.5,16.25-.1,24.35C14,180.15,16,215.71,17.84,251.28q2.41,45.86,4.78,91.73C22.91,348.6,23.27,354.2,23.6,359.78Zm102-323.85V12.26H78.18V35.93ZM65.72,12.19H30.09V35.75H65.72Zm108,0H138.15V35.73h35.59ZM157.58,48c3.55,22.38,13.54,40.46,31.93,54.1a10.57,10.57,0,0,0,.15-1.7,221.48,221.48,0,0,0-13.27-50.57c-.3-.75-1.27-1.73-1.94-1.75C168.86,48,163.28,48,157.58,48ZM46.2,48c-5.31,0-10.42.12-15.51-.06-2.17-.08-3.14.73-3.71,2.68-3.47,11.94-7.16,23.82-10.43,35.82-1.34,4.89-1.82,10-2.68,15C32.61,88.41,42.6,70.42,46.2,48Z"/></g></g></svg>