<svg xmlns="http://www.w3.org/2000/svg" viewBox="0 0 189.31 384"><g id="katman_2" data-name="katman 2"><g id="katman_1-2" data-name="katman 1"><path d="M156.3,0c6.14,3,8.63,7.91,7.87,14.57-1.09,9.52,1.55,18,6,26.43C176.58,53.36,183,65.81,186.3,79.55c4.36,18.1,3.75,36.09-.26,54.17-3.58,16.2-6.7,32.5-10.06,48.75-2.06,10-.76,19.86.85,29.76,2,12.32,3.81,24.67,5.75,37,1.48,9.42.11,18.64-1.45,27.91q-8.16,48.36-16,96.75c-.73,4.49-2.38,8-6.54,10.12H127c-4.11-2.35-5.73-5.91-6.33-10.62-4-31.84-8.27-63.65-12.47-95.47-1.14-8.67-2.33-17.33-3.48-26-.63-4.73,2.25-8.13,6.37-7.39,3,.53,4.36,2.55,4.74,5.49q4,31,8.17,62,3.85,29.35,7.69,58.69a11.67,11.67,0,0,0,.55,1.82h21.51c2.58-15.4,5.16-30.64,7.7-45.89,3.11-18.72,5.95-37.48,9.38-56.15,2-11.11.28-21.87-1.38-32.73-2-12.84-4.12-25.65-5.63-38.54-1.49-12.64,2.47-24.75,4.81-37,2.89-15.08,6.39-30.06,8.66-45.22,2.74-18.37-.58-36.09-8.4-52.91-4.11-8.82-8.51-17.51-12.61-26.34a3.91,3.91,0,0,0-4.3-2.58c-4.37.14-8.75.09-13.12,0-3.81-.06-6.28-2.24-6.38-5.45S135,24.08,139,24c4.48-.07,9,0,13.7,0V11.43H36.9V24h4.32q34.32,0,68.63,0a11.59,11.59,0,0,1,4.7.81c2.45,1.13,3.63,3.58,2.6,5.92-.78,1.78-2.78,3.19-4.53,4.32-.89.57-2.43.17-3.68.17-23.63,0-47.25,0-70.88-.06-2.61,0-4,.73-5.05,3.17C27.49,50.79,21,62.83,16.32,75.55c-6.88,18.71-5.85,38-1.51,57.24,3.86,17.17,7.13,34.47,10.4,51.76,2.13,11.27-.3,22.38-2,33.49-1.83,11.84-4.3,23.65-5.16,35.56-.57,8,.68,16.19,2,24.16,5,31.18,10.34,62.31,15.56,93.46.06.36.18.71.34,1.29H57.52c.9-6.55,1.83-13.2,2.7-19.84Q66.9,302,73.56,251.27q6.54-50,13-99.93c.82-6.26,3.84-9.66,8.57-9.39,4.19.24,6.94,3.1,7.65,8.28,1.39,10.14,2.65,20.3,4,30.46q2.46,18.75,4.95,37.51c.22,1.73.48,3.47.53,5.22.1,3.29-1.93,5.8-4.91,6-3.17.19-5.45-1.33-6-4.49-1.09-6.77-1.93-13.59-2.84-20.4-1.12-8.4-2.2-16.8-4.14-25.29-.6,4.29-1.25,8.58-1.81,12.88q-6.69,50.7-13.34,101.4c-3.55,27-7.18,54-10.56,81A12.12,12.12,0,0,1,62.54,384H31c-3.94-2.07-5.75-5.34-6.47-9.75C18.71,338,12.65,301.86,6.77,265.65c-1.59-9.8.69-19.4,2.15-29,1.78-11.72,3.75-23.41,5.41-35.15,1.48-10.47-1.11-20.59-3.14-30.76C7.66,153,3.66,135.33,1,117.45-1.88,98,1.59,79.12,9.66,61.2c4.4-9.77,9.36-19.3,13.81-29.06a26.4,26.4,0,0,0,1.86-8.21,51.23,51.23,0,0,0,0-9.35C24.8,7.91,27.14,3,33.28,0Z"/></g></g></svg>