<?xml version="1.0" encoding="utf-8"?>
<!-- Generator: Adobe Illustrator 26.0.0, SVG Export Plug-In . SVG Version: 6.00 Build 0)  -->
<svg version="1.1" id="katman_1" xmlns="http://www.w3.org/2000/svg" xmlns:xlink="http://www.w3.org/1999/xlink" x="0px" y="0px"
	 viewBox="0 0 236.3 551.3" style="enable-background:new 0 0 236.3 551.3;" xml:space="preserve">
<g>
	<path d="M231.4,192.5C248,107.7,218,38.3,210.1,25.2V8.8c0-4.8-3.9-8.8-8.8-8.8H35.1c-4.8,0-8.8,3.9-8.8,8.8v16.3
		c-8.9,14.8-45.7,100.5-12.9,199.4c6.5,19.6,21.7,72.5,21.7,138.8c0.2,4.9-0.5,11.2-1.3,19.1c-3,28.7-8,76.8,14.6,156.9
		c1.7,5.9,6.7,11.9,13,11.9h28.5c3.3,0,10.9-1.3,10.9-13.1V363.5c8.8-59.9,8.8-140.7,8.8-184.1c0-6.4,5.6-17.5,8.8-17.5
		s8.8,11.1,8.8,17.5c0,49.5,0,124.2,8.8,184.1l0.2,174.5c-0.2,4.5,0.8,8,3,10.3c1.3,1.4,3.7,3,7.6,3h28.5c6.3,0,11.3-6,13-11.9
		c22.6-80.2,17.6-128.2,14.6-156.9c-0.8-7.9-1.5-14.2-1.3-19.2c0-66.2,15.1-119,21.7-138.6c1.5-4.5,2.8-8.9,4-13.4l0,0
		c1.7-6.1,3.1-12.2,4.3-18.1C231.3,192.8,231.3,192.6,231.4,192.5L231.4,192.5z M208.2,243.9l-71.7,14.8c-0.1-2.9-0.2-5.7-0.2-8.5
		l74.4-15.4C209.9,237.6,209,240.6,208.2,243.9L208.2,243.9z M214.7,221.8c-0.3,1-0.7,2.2-1.1,3.4l-77.4,16
		c-0.1-2.9-0.1-5.7-0.1-8.5l80.5-16.7C215.9,218,215.3,219.9,214.7,221.8L214.7,221.8z M219.2,206.6l-83.3,17.2
		c0-2.9-0.1-5.7-0.1-8.5l85.6-17.7C220.7,200.6,220,203.6,219.2,206.6L219.2,206.6z M201.3,8.8v13.1H35.1V8.8H201.3z M118.2,153.2
		c-10.9,0-17.5,18.2-17.5,26.2c0,43.3,0,123.8-8.7,183.1c0,0.2,0,0.4,0,0.6v175c0,4.4-1,4.4-2.1,4.4H61.4c-1.3,0-3.7-2.6-4.5-5.6
		c-22.1-78.6-17.2-125.6-14.3-153.7c0.9-8.3,1.5-14.8,1.4-20.2c0-67.4-15.5-121.3-22.1-141.4c-32.5-97.3,4.7-177.9,11.4-190.9h169.8
		c5.9,11.5,35.5,75.6,20.2,157.5l-87.6,18.1c0-9.5,0-18.6,0-26.9C135.7,171.4,129.1,153.2,118.2,153.2L118.2,153.2z M193.9,383.4
		c2.9,28.1,7.8,75.1-14.3,153.7c-0.8,2.9-3.2,5.6-4.5,5.6h-28.5c-0.6,0-1.1-0.1-1.3-0.3c-0.1-0.1-0.8-0.9-0.6-4.1l-0.2-175
		c0-0.2,0-0.4,0-0.6c-4.3-29.6-6.5-62.9-7.6-95l69-14.3c-6.5,26.9-13.2,65.4-13.2,109.8C192.4,368.6,193.1,375.1,193.9,383.4
		L193.9,383.4z"/>
</g>
</svg>
