<?xml version="1.0" encoding="utf-8"?>
<!-- Generator: Adobe Illustrator 26.0.0, SVG Export Plug-In . SVG Version: 6.00 Build 0)  -->
<svg version="1.1" id="katman_1" xmlns="http://www.w3.org/2000/svg" xmlns:xlink="http://www.w3.org/1999/xlink" x="0px" y="0px"
	 viewBox="0 0 347.3 560.1" style="enable-background:new 0 0 347.3 560.1;" xml:space="preserve">
<g>
	<path d="M347.1,479L302.3,48.2c0.8-1.8,1.1-3.7,1.1-5.8V14.9c0-8.3-6.7-14.9-15-14.9H59c-8.3,0-15,6.7-15,14.9v27.6
		c0,2,0.4,4,1.1,5.8L0.3,479.2c-1.7,16,4.5,30.8,14.9,39.5l-1.8,21.7c-0.7,8.6,4.9,16.2,12.8,17.1h0.4c0.2,0,17.4,1.2,34.4,2
		c8.2,0.3,15,0.6,20.5,0.6h3.6c8.1-0.1,18.3-0.3,18.9-9.2l1.6-19.2c3.6-1.2,6.9-3.1,10.1-5.6c8.6-6.8,14.2-17.6,15.5-29.7
		c12.2-102.7,31.6-256,42.4-324.8c10.9,68.9,30.2,222.1,42.4,324.8c1.2,12.1,6.9,22.8,15.5,29.7c3.1,2.5,6.5,4.4,10.1,5.6l1.6,19.2
		c0.8,8.8,10.9,9.1,18.9,9.2h3.6c5.4,0,12.3-0.2,20.5-0.6c17-0.8,34.3-2,34.4-2h0.4c8-1,13.6-8.5,12.8-17.1l-1.8-21.7
		C342.6,509.9,348.6,495,347.1,479L347.1,479z M60.5,16.5h226.4V41h-92.3c-4.6-12-11.3-20.5-20.9-20.5s-16.4,8.4-20.9,20.5H60.5
		L60.5,16.5z M176.6,41h-5.7c1-1.9,2-3.1,2.9-3.8C174.6,37.9,175.5,39.1,176.6,41L176.6,41z M30,541.2l1.2-15.2
		c0.4,0.1,0.9,0.1,1.2,0.2l56.4,6.8l-0.9,10.5C77.6,543.9,52.3,542.7,30,541.2L30,541.2z M232.6,494.7v-0.1
		c-0.1-0.9-11-91.8-22.6-181.7c-6.8-52.8-12.5-94.9-17.1-125c-2.7-18-4.9-31.9-6.8-41.4c-1-5.4-1.9-9.3-2.7-12.1
		c-0.9-3.2-2.8-10.2-9.7-10.2c-7.1,0-8.8,6.8-9.7,10.2c-0.8,2.8-1.7,6.8-2.7,12.1c-1.8,9.5-4.1,23.5-6.8,41.4
		c-4.5,30.1-10.3,72.2-17.1,125c-11.6,89.8-22.5,180.8-22.6,181.7v0.1c-0.8,7.7-4.3,14.4-9.4,18.6c-2.5,2-6.6,4.3-11.9,3.6l-59-7.1
		c-11.1-1.3-19.2-14.7-17.7-29l44-423.4h87.4c-3,14.7-4.1,31-4.1,43.7c0,4.6,3.7,8.2,8.3,8.2s8.3-3.7,8.3-8.2
		c0-17.9,2-32.8,4.6-43.7h17.2c2.6,10.9,4.6,25.8,4.6,43.7c0,4.6,3.7,8.2,8.3,8.2s8.3-3.7,8.3-8.2c0-12.7-1.1-29-4.1-43.7H287
		l44,423.4c1.5,14.3-6.6,27.7-17.7,29l-59,7.1c-5.3,0.7-9.3-1.6-11.9-3.6C236.9,509.1,233.4,502.4,232.6,494.7L232.6,494.7z
		 M317.4,541.2c-22.3,1.6-47.6,2.7-58.1,2.2l-0.9-10.5l56.4-6.8c0.4,0,0.9-0.1,1.2-0.2L317.4,541.2z"/>
</g>
</svg>
