<?xml version="1.0" encoding="utf-8"?>
<!-- Generator: Adobe Illustrator 26.0.0, SVG Export Plug-In . SVG Version: 6.00 Build 0)  -->
<svg version="1.1" id="katman_1" xmlns="http://www.w3.org/2000/svg" xmlns:xlink="http://www.w3.org/1999/xlink" x="0px" y="0px"
	 viewBox="0 0 234.8 501.9" style="enable-background:new 0 0 234.8 501.9;" xml:space="preserve">
<g>
	<path d="M8.8,501.9h78.5c4.6,0,8.4-3.5,8.7-8.1l20.8-286.6h1.2l20.8,286.6c0.3,4.6,4.1,8.1,8.7,8.1H226c4.8,0,8.8-3.9,8.8-8.8
		v-34.9c0-0.1,0-0.1,0-0.2s0-0.1,0-0.2V8.8c0-4.8-3.9-8.8-8.8-8.8H8.8C4,0,0,3.9,0,8.8v449.1c0,0.1,0,0.1,0,0.2s0,0.1,0,0.2v34.9
		C0,498,3.9,501.9,8.8,501.9L8.8,501.9z M217.3,484.4h-61.6l-1.3-17.6h62.9V484.4L217.3,484.4z M217.3,94.4
		c-19-4-33.3-20.9-33.3-41.1c0-2.5,0.3-5,0.7-7.4h32.6L217.3,94.4z M17.5,17.6h199.8v10.9H17.5V17.6z M17.5,46h32.6
		c0.4,2.4,0.7,4.9,0.7,7.4c0,20.2-14.3,37-33.3,41.1L17.5,46z M17.5,112.2c28.7-4.3,50.8-29,50.8-58.8c0-2.5-0.3-4.9-0.6-7.4h32
		l-23.3,64.2c-1.7,4.5,0.7,9.6,5.2,11.2c4.5,1.6,9.6-0.7,11.2-5.2l24.6-67.4l24.6,67.4c1.3,3.6,4.6,5.8,8.2,5.8c1,0,2-0.2,3-0.5
		c4.5-1.7,6.9-6.7,5.2-11.2L135,46h32c-0.3,2.4-0.6,4.9-0.6,7.4c0,29.8,22.1,54.5,50.8,58.8v337.2h-64.1l-18.3-251.5
		c-0.3-4.6-4.1-8.1-8.7-8.1h-17.5l0,0c-4.6,0-8.4,3.5-8.7,8.1L81.6,449.4H17.5L17.5,112.2z M17.5,466.9h62.9l-1.3,17.6H17.5V466.9
		L17.5,466.9z"/>
</g>
</svg>
