<svg xmlns="http://www.w3.org/2000/svg" viewBox="0 0 328.9 512"><g id="katman_2" data-name="katman 2"><g id="katman_1-2" data-name="katman 1"><path d="M295.19,0c7.43,2.86,10.44,8.49,9.71,16.14-1.69,17.87,2.79,34.17,9.78,50.63,16,37.67,14.15,27.9,14.16,70.92q0,158,0,316c0,7.6-.81,14.62-7.35,19.75-.83.65-1.14,2.3-1.2,3.51a65.49,65.49,0,0,0,0,9.5c1.16,12.24-3.43,21-15.12,25.57h-83c-11.76-4-16.73-12.4-15.85-24.57.08-1.16-.06-2.34,0-3.5.32-4.88-.09-8.92-4.82-12.42-2.9-2.14-4.76-6.9-5.35-10.74-4.1-26.66-7.74-53.39-11.52-80.09-.75-5.29,1.66-9.11,6.1-9.73,4.6-.63,7.83,2,8.63,7.5q5.51,37.82,10.77,75.66c1.1,7.9,1,7.92,8.72,7.93h87.5c7.1,0,7.45-.31,7.45-7.18q0-170-.18-340c0-7.13-1.78-14.55-4.18-21.32-4.67-13.16-10.29-26-15.76-38.85-.66-1.55-2.86-3.46-4.37-3.48-21-.22-42-.14-63-.12a17.91,17.91,0,0,0-2.43.4V57q0,30.5,0,61c0,12.48-5.92,18.47-18.26,18.6-3,0-6,.1-9-.06-9.75-.53-15.71-6.56-15.78-16.35-.12-18.66,0-37.33,0-56V51.42H148.17v6.51q0,30.5,0,61c0,11.22-6,17.36-17.13,17.63-3,.07-6,.07-9,0-10.83-.29-16.88-6.47-16.89-17.32q0-31,0-62V51.41c-1.74-.13-3.17-.32-4.61-.32-19.83,0-39.67.07-59.5-.1-3.37,0-4.91,1-6.14,4.15C29.75,68.31,23.94,81.23,19.1,94.51a56.77,56.77,0,0,0-3.77,18.89q-.35,171-.16,342c0,6.28.34,6.65,6.4,6.65,30,0,60-.08,90,.1,4.61,0,6.3-1.34,6.93-6.05C126.65,395,135.09,334,143.31,272.94c4.18-31,8.06-62.09,12.08-93.13.06-.5.17-1,.25-1.48,1.12-6.88,4-10.13,8.93-10.06s7.82,3.5,8.7,10.26q9.76,75.3,19.58,150.59c.06.5.15,1,.2,1.49.46,5.24-2.2,9-6.68,9.39s-7.55-2.43-8.22-7.5q-5.49-41.85-10.91-83.72a156.7,156.7,0,0,0-3.11-18.33q-1.95,14.53-3.89,29.05-9.39,70.31-18.78,140.61c-2.71,20.13-5.3,40.28-8.59,60.32-.73,4.39-4.27,8.31-6.44,12.49-.92,1.76-2.13,3.56-2.39,5.45a44.26,44.26,0,0,0-.07,9c.83,12.15-4.1,20.55-15.8,24.64h-83C13.66,507.57,8.8,499.15,10,487c.19-2-.13-4,.06-6,.34-3.7-.89-6.13-3.7-9C3.34,469,2,464.13.3,459.93c-.58-1.44-.14-3.3-.14-5q0-169.71,0-339.42A72.23,72.23,0,0,1,5.76,86.89C11.19,74,16.51,61.1,21.51,48.06A42.74,42.74,0,0,0,24,35.57a139.79,139.79,0,0,0,0-19C23.49,8.88,26.22,3.38,33.17,0h48c3.14,2.63,6.06,5.36,4.22,10.07s-5.65,5-9.86,5c-8.33-.1-16.66,0-25,0H39.4V35.79h65.4c1.14-10.45,3.6-12.6,14.12-12.61,6.32,0,12.66-.12,19,.05s9.71,3.56,10.27,9.87c.08.92.22,1.84.31,2.56h32c1.3-10.41,3.67-12.47,13.9-12.48h14.49c11.67,0,13.14,1.18,15.64,12.47h65.11V15h-6.19q-78.18,0-156.37,0c-4.32,0-8.2-.63-9.69-5.22s1-7.61,4.8-9.82ZM108.87,477.36H25c0,4.63.12,8.93,0,13.23-.17,4.78,2.15,6.53,6.71,6.45,7.65-.14,15.32,0,23,0,15.82,0,31.64,0,47.46,0,3.64,0,6.44-1,6.66-5C109.07,487.26,108.87,482.45,108.87,477.36Zm196.39,0H221.35c0,4.6,0,8.9,0,13.19-.06,4.64,2.18,6.62,6.78,6.49,5.33-.14,10.66,0,16,0,18.16,0,36.31-.06,54.47,0,4.56,0,6.87-1.7,6.71-6.47C305.15,486.28,305.26,482,305.26,477.35ZM120.5,38.44v82.65h12.32V38.44Zm75.77,0v82.72h12.29V38.46Z"/></g></g></svg>