<?xml version="1.0" encoding="utf-8"?>
<!-- Generator: Adobe Illustrator 26.0.0, SVG Export Plug-In . SVG Version: 6.00 Build 0)  -->
<svg version="1.1" id="katman_1" xmlns="http://www.w3.org/2000/svg" xmlns:xlink="http://www.w3.org/1999/xlink" x="0px" y="0px"
	 viewBox="0 0 203.9 372.1" style="enable-background:new 0 0 203.9 372.1;" xml:space="preserve">
<g id="katman_2_00000034066645057797061970000011497173244342865343_">
	<g id="katman_1-2">
		<path d="M101.5,208.6c-0.6,5.1-1.2,10.2-1.8,15.4c-3.2,28.5-6.4,57.1-9.5,85.7c-2,18.5-4.1,37-6.2,55.5c-0.6,5.3-2.4,7-7.7,7
			c-18.9,0-37.7,0-56.6,0c-5.7,0-7.5-1.9-7.8-7.6c-2.7-50-5.3-100.1-8-150.1c-1.4-28.1-3.2-56.2-3.8-84.3
			c-0.6-29.7,5.8-58.3,16.5-85.9c0.8-2.2,1.2-4.5,1.2-6.9c0.1-9.9,0-19.8,0.1-29.6C17.9,2,20,0,25.6,0h152.6c5.2,0,7.6,2,7.7,6.5
			c0.1,11-1.3,22.2,0.4,32.9s6.6,20.9,9.5,31.4c6.9,25,9.1,50.5,7.6,76.5c-2,35.6-3.7,71.1-5.6,106.7c-2,37.2-3.9,74.4-5.9,111.6
			c-0.2,4.2-2.4,6.4-6.7,6.4c-19.6,0-39.3,0-58.9,0c-3.9,0-6-2-6.5-5.9c-2.8-24.5-5.5-48.9-8.2-73.4c-3.1-27.7-6.1-55.4-9.2-83.1
			c-0.1-0.4-0.2-0.8-0.4-1.2L101.5,208.6z M23.6,359.8h48.9c2.4-21.8,4.8-43.2,7.2-64.7c2.9-26,5.8-51.9,8.7-77.8
			c2.5-22.5,5-44.9,7.5-67.4c0.4-3.5,2.7-5.7,5.8-5.8c3.2-0.1,5.7,2.1,6.2,5.8c1,8.8,2,17.6,3,26.4c2.6,23.6,5.2,47.2,7.8,70.8
			l8.7,77.8c1.3,11.6,2.6,23.3,3.9,35h48.9c0.2-4.8,0.5-9.6,0.7-14.3l5.7-108.2c1.4-26.5,2.9-52.9,4.2-79.4
			c0.6-12.3,0.6-24.7,0.8-37.1c0-2.3-0.8-3.8-2.9-5.1c-19.6-12-32.8-29-39.5-50.9c-1.7-5.5-2.8-11.1-4.2-16.8H59
			c-0.2,0.3-0.3,0.5-0.4,0.8c-0.3,1.3-0.6,2.7-0.9,4c-5.2,27.3-19.1,48.7-43.1,63.4c-1.2,0.9-2,2.3-2.2,3.8
			c-0.2,8.1-0.5,16.3-0.1,24.3c1.8,35.6,3.8,71.2,5.6,106.8c1.6,30.6,3.2,61.2,4.8,91.7C22.9,348.6,23.3,354.2,23.6,359.8z
			 M125.6,35.9V12.3H78.2v23.7L125.6,35.9z M65.8,12.2H30.1v23.6h35.6V12.2z M173.8,12.2h-35.6v23.5h35.6L173.8,12.2z M157.6,48
			c3.6,22.4,13.5,40.5,31.9,54.1c0.1-0.6,0.1-1.1,0.1-1.7c-2.4-17.3-6.9-34.3-13.3-50.6c-0.3-0.8-1.3-1.7-1.9-1.8
			C168.9,48,163.3,48,157.6,48z M46.2,48c-5.3,0-10.4,0.1-15.5-0.1c-2.2-0.1-3.1,0.7-3.7,2.7c-3.5,11.9-7.2,23.8-10.4,35.8
			c-1.3,4.9-1.8,10-2.7,15C32.6,88.4,42.6,70.4,46.2,48z"/>
	</g>
</g>
</svg>
