<svg xmlns="http://www.w3.org/2000/svg" viewBox="0 0 152.55 337.94"><g id="katman_2" data-name="katman 2"><g id="katman_1-2" data-name="katman 1"><path d="M17,337.94c-.78-.34-1.55-.71-2.34-1-6-2.28-9.31-6.69-9.33-13a20,20,0,0,0-2.83-11.12c-4-6.5-2.69-13.24.89-19.73A13.32,13.32,0,0,0,5.08,287q.13-101.8.09-203.61c0-18,2.09-35.7,10.08-52,3.42-6.95,4.46-13.72,4.28-21.16C19.3,0,19.48,0,29.82,0h97c5.41,0,6.63,1,6.33,6.29a55.27,55.27,0,0,0,5.42,27.85c7.32,15.4,8.94,32.29,8.95,49.24q0,101.81.08,203.61a13.32,13.32,0,0,0,1.74,6.07c4.17,7.61,4.44,14.86-.45,22.38-1.33,2.05-1.27,5.17-1.37,7.81-.27,7-3.48,11.6-10.07,13.91-.59.21-1.14.52-1.72.78h-31C96.07,335,92.2,329,93.22,319.8A3.93,3.93,0,0,0,92,317c-5.06-4.74-6.27-10.6-5.33-17.18a24,24,0,0,0,.38-4.91q-1.41-19.41-3-38.81-2.86-36.17-5.76-72.34c-.51-6.38-1.06-12.77-1.59-19.16a5.27,5.27,0,0,0-1,3.06q-1.44,18.41-2.88,36.83c-2.1,26.3-4.31,52.59-6.28,78.91-.47,6.31-.23,12.69-.17,19,.06,4.78-.61,9.48-4.14,12.8-2.5,2.37-2.89,4.81-2.87,7.87,0,7.34-3.12,11.63-10.06,14.1a9.84,9.84,0,0,0-1.35.73Zm-3.77-260v4.45q0,103.26,0,206.51a11.42,11.42,0,0,1-2.34,7.6,11.43,11.43,0,0,0-1.54,12.41,4.12,4.12,0,0,0,4.32,2.7q19.29-.21,38.6,0c2.64,0,4.3-1,5.11-3.22.66-1.81,1.34-3.94,1-5.73-1.57-7.84,0-15.56.56-23.29,1.74-23.68,3.72-47.34,5.61-71,1.67-20.92,3.43-41.84,5-62.78,1.1-14.79,2.38-29.59,2.8-44.4.49-17,.12-34.09.12-51.13v-4.4c-1.2,7.42-1.93,14.84-2.67,22.27-.27,2.66-1.23,4.77-4.35,4.74-2.49,0-3.83-1.92-3.6-5.2.28-3.84.72-7.66,1.1-11.49.91-9.15,1.83-18.29,2.78-27.9-7.23,0-14.12.09-21-.06-2.27-.05-3.25.68-3.89,2.87-2.86,9.8-5.86,19.56-8.91,29.3C28.92,69.4,24.16,76.82,13.18,77.94ZM80.81,45.73l-.47-.07v7.9c0,19-.68,38.08.27,57.06,1.25,25.12,3.8,50.18,5.8,75.27q4.28,53.75,8.48,107.49c.26,3.34-.51,6.75-.59,10.13-.13,5.49,2.4,8,7.74,8h35.64c4.42,0,6.6-1.56,6.57-6a18.16,18.16,0,0,0-2.41-8.93,14.68,14.68,0,0,1-2.29-8q0-103.08,0-206.17V78C134,77.13,129,75.32,126,70.53a54.57,54.57,0,0,1-5.31-11.25C117.57,49.92,114.78,40.43,112,31c-.63-2.12-1.48-3.06-3.83-2.95-4.17.2-8.36.06-12.54.06H87.06c.77,7.61,1.48,14.59,2.17,21.58C89.84,55.77,90.52,61.89,91,68c.23,3.14-1.85,5.1-4.52,4.59S83.21,70,83,67.69C82.28,60.36,81.54,53.05,80.81,45.73Zm44.26-37.5H27.74V20c12.37,0,24.46,0,36.55,0a6.5,6.5,0,0,0,2.17-.87,9.84,9.84,0,0,1-1.92-1.56c-1-1.37-2.72-3-2.54-4.27A5,5,0,0,1,65.6,10C72.74,9.7,79.9,9.7,87,10c1.35.06,3.19,1.81,3.78,3.21.81,1.92-.53,3.49-2.51,4.34A11.58,11.58,0,0,0,86.24,19,9.44,9.44,0,0,0,89,20c9.9.07,19.8,0,29.7.05h6.37ZM51.21,319.71H13.61C12.43,327.2,14.73,330,22.07,330c6.71,0,13.42,0,20.13,0C49.94,330,51.94,327.75,51.21,319.71Zm88,0h-37.6c-1,7.84,1.13,10.27,8.81,10.29,6.71,0,13.42,0,20.13,0C137.92,330,140.12,327.42,139.19,319.7ZM139,69.48c-.23-2-.39-3.64-.6-5.27a106,106,0,0,0-9.94-33.64c-1-2-2.22-2.78-4.37-2.54-1.37.15-2.78,0-5.13,0,4.18,12.38,8,24.14,12.19,35.77C132.28,67,135,69.16,139,69.48ZM33.2,28.34c-7.64-.79-8.05-.87-10.36,5.51-2.81,7.8-5.16,15.78-7.35,23.78-1,3.79-1.25,7.81-1.88,12,4.91-.72,7.41-3.58,8.76-7.33C24.92,55.18,27.2,48,29.51,40.79,30.81,36.75,31.93,32.66,33.2,28.34Z"/></g></g></svg>