<svg xmlns="http://www.w3.org/2000/svg" viewBox="0 0 271.38 494.83"><g id="katman_2" data-name="katman 2"><g id="katman_1-2" data-name="katman 1"><path d="M32.14,494.83c-.09-4.18-.4-8.38-.22-12.55,1.06-25.72-2.63-51.11-5.09-76.59-3-30.78-6.13-61.54-9.21-92.31-3.41-34-7.11-67.92-10.15-101.93-2.82-31.58-8.07-63-7.41-94.84A229.85,229.85,0,0,1,13.52,44.29a40.24,40.24,0,0,0,2.14-12.18c.29-10.59.1-21.2.1-32.11H255.5c0,5.67.26,11.41-.05,17.13-.71,13,1.39,25.3,5.55,37.78,10.7,32.14,12.21,65.32,8.66,98.86-3.23,30.59-6.17,61.21-9.24,91.82Q255.28,296.8,250.16,348c-3,30.44-6.49,60.86-8.95,91.36-1.49,18.42-1.44,37-2.09,55.47H159.81c.46-27.25-1.16-54.39-3.76-81.52-3-31.75-5.46-63.55-8.18-95.32q-4.67-54.64-9.4-109.29c-.69-8-1.46-16.07-2.19-24.11a5.53,5.53,0,0,0-1.67,3.9Q133,207.27,131.37,226l-8.31,96.28c-2.45,28.41-5.14,56.79-7.25,85.22-1.76,23.59-2.89,47.23-4.19,70.86-.3,5.46-.13,11-.17,16.43ZM118.42,48.16a16.76,16.76,0,0,0-2.42-.45c-27.88,0-55.77,0-83.65-.08-2.74,0-3.64,1.31-4.2,3.57C25,64.14,21.79,77.1,18.44,90c-1,3.76-.18,6.62,2.12,9.75,10.1,13.77,19.73,27.89,30,41.55,3.87,5.17,5.47,10.52,5.89,16.84,1.47,22.18,3.35,44.33,5.1,66.49q4.12,52,8.29,104.05c2.82,35.49,5.55,71,8.46,106.46,1,11.81,1.19,11.56,13.06,11.82,4.42.1,5.34-1.61,5.61-5.51.9-13.34,2.1-26.65,3.25-40Q104.8,348,109.45,294.6q4.77-55.37,9.56-110.72c.89-10.11,7.68-16.56,16.79-16.44s15.55,6.46,16.44,16.29c2.08,23.1,4,46.22,6,69.32l8.34,96.77c2.43,28.25,4.73,56.5,7.35,84.73,1.23,13.27,1.5,13.18,15,12.35,2.48-.15,3.42-1,3.55-3.41.29-5,.72-10,1.11-14.94q3.57-45.76,7.14-91.54,4.18-53,8.4-106c2.05-26,4-52,6.25-78a17.82,17.82,0,0,1,3.18-8.3c10.8-15.44,21.89-30.68,32.73-46.1,1.16-1.66,2.21-4.22,1.81-6-3-13.49-6.44-26.87-9.59-40.32-.85-3.62-2.67-4.69-6.4-4.67-26.43.18-52.86.09-79.3.11-1.48,0-3,.2-5.13.35,14.74,19,22.64,39.54,22.67,63.25H161.2c-2.75-10.81-4.84-21.36-8.18-31.5-3.39-10.3-10-18.86-17.42-27.11-7.43,8.47-14.13,17-17.48,27.41-3.27,10.13-5.37,20.64-8,31.08H95.86C95.94,87.36,103.93,66.8,118.42,48.16ZM239.12,16H32.29V31.37H239.12ZM240,289.2c-7.29,7.27-13.69,13.58-20,20a5.39,5.39,0,0,0-1.14,3c-.43,4-.69,8-1,12q-3.69,46.47-7.38,92.95c-.76,9.72-1.47,19.44-2.25,29.65,4.26,0,8-.21,11.6,0,3.49.26,4.61-.89,4.94-4.5,1.89-20.85,4.12-41.66,6.2-62.48C234,350.12,236.9,320.33,240,289.2ZM31.5,290.38c.11,1.78.13,2.51.2,3.23q4.62,46.62,9.25,93.23,2.82,28.35,5.79,56.69c.12,1.14,1.23,3.05,2,3.1,4.73.28,9.47.14,14.37.14l-2.89-36.48q-3.84-48.39-7.71-96.78a5.33,5.33,0,0,0-.94-3.11C45.16,303.89,38.65,297.5,31.5,290.38Zm13.62-65.21a9.44,9.44,0,0,0,.36-1.93c-1.65-21-3.4-42.05-4.94-63.09a20.68,20.68,0,0,0-4.42-11.39c-6-8-11.64-16.22-17.47-24.32a35.68,35.68,0,0,0-2.88-3.06c0,1.83-.06,2.63,0,3.42q3.31,38,6.67,76a4.53,4.53,0,0,0,.91,2.63C30.45,210.6,37.61,217.69,45.12,225.17Zm180.71-1.75,1.33.73c3.39-3.64,6.43-7.7,10.24-10.82,8.4-6.89,12.66-15,13.11-26.29.8-20.08,3.22-40.09,4.92-60.13.14-1.59,0-3.2,0-4.8-5,5.36-8.61,11.12-12.92,16.28-8.08,9.66-12.64,20.1-12.87,33.15C229.36,188.85,227.19,206.13,225.83,223.42ZM48,463.17v15.31H95.51V463.17Zm127.83,0v15.31h47.5V463.13ZM221,283.93l.9.73c6.63-6.69,13.3-13.35,19.83-20.14.78-.8,1-2.33,1.11-3.57q1.51-14.13,2.87-28.28c.14-1.44,0-2.9,0-5.46-7.42,7.51-14,14.09-20.46,20.79a6.64,6.64,0,0,0-1.62,3.77C222.7,262.48,221.88,273.21,221,283.93ZM26.33,229l-1.1.49c.93,8.94,1.83,17.88,2.81,26.81.33,3-.19,6.93,1.5,8.82,6.34,7.14,13.43,13.61,20.85,20.93-1-11.95-1.82-23-2.79-34a5.16,5.16,0,0,0-1.34-2.91C39.67,242.42,33,235.74,26.33,229Z"/><path d="M111.23,143.32H96.15v-15.6h15.08Z"/></g></g></svg>