<svg xmlns="http://www.w3.org/2000/svg" viewBox="0 0 237.35 384"><g id="katman_2" data-name="katman 2"><g id="katman_1-2" data-name="katman 1"><path d="M18.91,384c-2.88-2.15-3.57-5.08-3.44-8.52.18-4.73,0-9.47,0-14.5-4.84-.49-6-3.65-6.53-7.78C1.24,297.73-1,242,.4,186,1.32,149.66,4,113.36,12.29,77.82,15.55,63.91,20.73,50.45,25,36.76a22.45,22.45,0,0,0,1.21-6.13c.14-7.75.17-15.5,0-23.25-.07-3.38,1-5.82,4-7.38H62.41c2.35,2.08,4.12,4.45,2.81,7.76s-4.42,3.59-7.54,3.5c-2.37-.06-4.74,0-7.12,0H37.68V29.58H199.37V11.25h-4.58q-52.26,0-104.53,0c-3.12,0-6.18-.06-7.49-3.55C81.52,4.41,83.18,2,85.66,0H207.17c1.22,2.16,3.66,4.43,3.48,6.46-1.67,18.21,3,35.06,8.67,52.16,8,24.24,11.47,49.56,14.15,74.92,4.24,40.12,4.67,80.32,2.9,120.57-.73,16.47-2,32.92-3.15,49.37-.31,4.48-2.6,6.64-6.21,6.38-3.45-.25-5.25-2.66-5-7,.88-13.71,2-27.41,2.71-41.14,1.73-32.47,2.23-65-.19-97.4-1.44-19.41-4.05-38.74-6-58.11-.27-2.79-1.52-3.7-4-4.45C204,98.54,193.46,95,182.86,91.7a19,19,0,0,1-13.2-13.13c-3.69-11.53-7.44-23-11.34-34.49-.41-1.2-1.92-2.86-2.94-2.88-10.24-.22-20.48-.13-31.34-.13v4.17q0,27.56,0,55.11c0,3.3-.68,6.05-4.29,6.92-4,1-6.94-1.79-7-6.54-.06-13.37,0-26.74,0-40.11V41.06H96.5c-4.5,0-9,.19-13.49-.06-2.81-.16-3.89.94-4.69,3.49-3.45,11.07-7.27,22-10.67,33.12C65.32,85.22,60.51,89.9,53,92.18c-10.15,3.06-20.19,6.5-30.36,9.51-2.8.83-3.93,2.19-4.36,5a645,645,0,0,0-6.83,74.59c-1.64,45.79.55,91.44,5.13,137,1,10.29,2.16,20.57,3.26,31H96.48c.36-4.31.75-8.63,1.06-12.95q4.65-65.43,9.27-130.85c1.14-15.95,2.35-31.9,3.53-47.85.37-5.08,3.25-8.18,7.8-8.36s8.08,2.82,8.5,8.06c1,11.58,1.68,23.18,2.51,34.77q3.24,45.23,6.5,90.47,2.32,32.32,4.66,64.67c0,.61.13,1.21.23,2H217c.73-6.11,1.44-12.27,2.19-18.42.57-4.71,3.83-7.05,7.68-5.56a5,5,0,0,1,3.55,5.54c-.91,8.44-1.68,16.91-3.15,25.26-.38,2.12-3.18,3.8-4.86,5.69l-1-.68c0,5-.16,10,.06,15,.16,3.45-.83,6.09-3.81,7.9h-78c-2.89-2.13-3.6-5.05-3.48-8.5.17-4.83,0-9.67,0-14.36-5.58-1.39-6.52-2.56-6.92-8.22q-4.64-65.39-9.27-130.77c-.4-5.74-.94-11.46-1.41-17.19a33.79,33.79,0,0,0-.88,6.77q-5.1,70.61-10.22,141.22c-.42,5.84-1.13,6.75-6.85,8.28,0,4.92-.17,9.91.06,14.89.15,3.45-.83,6.08-3.83,7.88ZM67.72,41.06c-9.95,0-19.41.1-28.87-.06-2.66,0-4.16.68-4.9,3.32-3.72,13.2-7.56,26.36-11.29,39.56-.55,1.92-.79,3.94-1.27,6.46C32,87,41.87,83.92,51.65,80.56a7.49,7.49,0,0,0,4.18-3.9C59.92,65,63.68,53.29,67.72,41.06ZM215.66,90.34C212.29,73.68,208.42,58,202.21,43c-.4-.94-2.22-1.79-3.41-1.82-6-.19-12-.09-18-.09H169.23c4.09,12.38,7.84,24.12,11.93,35.73a7.47,7.47,0,0,0,4.26,3.83C195.21,84,205.09,87,215.66,90.34ZM89.25,361.05H27v11.5H89.25ZM210,360.91H147.74v11.63H210Z"/></g></g></svg>