<?xml version="1.0" encoding="utf-8"?>
<!-- Generator: Adobe Illustrator 26.0.0, SVG Export Plug-In . SVG Version: 6.00 Build 0)  -->
<svg version="1.1" id="katman_1" xmlns="http://www.w3.org/2000/svg" xmlns:xlink="http://www.w3.org/1999/xlink" x="0px" y="0px"
	 viewBox="0 0 288.8 551.2" style="enable-background:new 0 0 288.8 551.2;" xml:space="preserve">
<g>
	<path d="M284.4,140c0-23.5-8.4-47.8-16.6-71.3c-3.6-10.4-7-20.3-9.7-30V13.1C258.1,5.9,252.2,0,245,0H43.8
		c-7.2,0-13.1,5.9-13.1,13.1v25.6c-2.7,9.7-6.1,19.5-9.7,30c-8.1,23.5-16.6,47.8-16.6,71.1L0,284.3C0,336.9,5.4,495,17.7,539.2
		c1.9,7,9.2,12,17.6,12h56.6c9,0,16.9-7.7,17.5-17.2c13.3-202.5,22.5-309.7,30.5-358c1.1-4.3,2.7-7.5,4.5-9.1
		c1.8,1.6,3.4,4.7,4.4,8.8c8.1,48.6,17.2,155.8,30.6,358.3c0.6,9.5,8.5,17.2,17.5,17.2h56.6c8.4,0,15.6-4.9,17.6-12
		c12.2-44.2,17.7-202.3,17.7-255L284.4,140z M39.4,13.1c0-2.4,2-4.4,4.4-4.4H245c2.4,0,4.4,2,4.4,4.4V35h-82
		c-2.5-3.5-4.7-7-5.5-13.7c-0.3-2.4-2.5-4.1-4.9-3.8c-2.4,0.3-4.1,2.5-3.8,4.9c0.7,5.5,2.2,9.4,3.9,12.6H132c1.6-3.1,2.9-6.9,3.6-12
		c0.3-2.4-1.4-4.6-3.8-4.9s-4.6,1.4-4.9,3.8c-0.8,6.3-2.8,9.8-5.1,13.1H39.4V13.1z M26.1,536.9C14.7,495.6,8.8,341.1,8.8,284.4
		l4.4-144.5c0-22,8.2-45.6,16.1-68.4c3.3-9.6,6.5-18.8,9.1-27.8h8.4c-2.4,8.1-5.2,16.3-8.2,25C30.5,92.2,22,116.5,22,139.8
		l-4.4,144.5c0,48,8.6,203.8,19.7,258.1h-1.9C31.5,542.5,27.1,540.6,26.1,536.9L26.1,536.9z M188.1,533.4
		c-13.3-202.8-22.5-310.2-30.7-359.5c-2.2-8.6-6-14-11.4-16.1c-1-0.4-2.2-0.4-3.2,0c-5.4,2.1-9.2,7.5-11.5,16.5
		c-8.2,48.9-17.3,156.4-30.7,359.2c-0.3,4.8-4.4,9-8.8,9H46.1c-11.1-51.8-19.9-209.8-19.9-258L30.6,140c0-22,8.2-45.6,16.1-68.4
		c3.3-9.6,6.5-18.8,9.1-27.8h60.5c-1.5,3.3-2.6,7.4-2.6,13.1c0,9.2,1.2,13.9,2.3,18.5c1.1,4.4,2.1,8.5,2.1,17c0,7.8-2.3,11-5.3,15
		c-3.1,4.2-6.5,8.9-7.7,18.4c-0.3,2.4,1.4,4.6,3.8,4.9c0.2,0,0.4,0,0.5,0c2.2,0,4.1-1.6,4.3-3.8c0.9-7.2,3.3-10.5,6.1-14.3
		c3.3-4.5,7-9.5,7-20.2c0-9.6-1.2-14.5-2.3-19.1c-1.1-4.3-2-8.3-2-16.4c0-6.4,1.6-9.8,3.8-13.1h36.5c2,3.1,3.4,6.5,3.4,12.6
		c0,8.1-1,12.1-2,16.4c-1.1,4.7-2.3,9.5-2.3,19.1c0,10.7,3.7,15.7,7,20.2c2.8,3.8,5.2,7.1,6.1,14.3c0.3,2.2,2.2,3.8,4.3,3.8
		c0.2,0,0.4,0,0.5,0c2.4-0.3,4.1-2.5,3.8-4.9c-1.2-9.5-4.7-14.2-7.7-18.4c-3-4-5.3-7.2-5.3-15c0-8.6,1-12.7,2.1-17
		c1.1-4.6,2.3-9.3,2.3-18.5c0-5.4-0.9-9.4-2.3-12.6H233c2.6,9.1,5.7,18.2,9.1,27.8c7.9,22.8,16.1,46.4,16.1,68.6l4.4,144.2
		c0,48.3-8.8,206.4-19.9,258.1H197C192.5,542.5,188.5,538.2,188.1,533.4L188.1,533.4z M262.7,536.9c-1,3.6-5.4,5.5-9.2,5.5h-1.9
		c11.1-54.3,19.7-210.1,19.7-258.3l-4.4-144.2c0-23.5-8.4-47.8-16.6-71.3c-3-8.6-5.8-16.9-8.2-25h8.4c2.6,9.1,5.7,18.2,9.1,27.8
		c7.9,22.8,16.1,46.4,16.1,68.6l4.4,144.2C280,341.1,274.1,495.6,262.7,536.9L262.7,536.9z"/>
</g>
</svg>
