<?xml version="1.0" encoding="utf-8"?>
<!-- Generator: Adobe Illustrator 26.0.0, SVG Export Plug-In . SVG Version: 6.00 Build 0)  -->
<svg version="1.1" id="katman_1" xmlns="http://www.w3.org/2000/svg" xmlns:xlink="http://www.w3.org/1999/xlink" x="0px" y="0px"
	 viewBox="0 0 306.7 507.7" style="enable-background:new 0 0 306.7 507.7;" xml:space="preserve">
<g>
	<path d="M269.7,65.5V8.8c0-4.8-3.9-8.8-8.8-8.8H45.7c-4.8,0-8.8,3.9-8.8,8.8v56.7L0,487.5c-0.4,4.8,3.1,9.1,7.9,9.5l120.5,10.7
		c2.3,0.2,4.6-0.5,6.4-2s2.9-3.7,3.1-6L153.3,305l15.3,194.6c0.2,2.3,1.3,4.5,3.1,6c1.6,1.3,3.6,2.1,5.7,2.1c0.3,0,0.5,0,0.8,0
		L298.7,497c4.8-0.4,8.4-4.7,7.9-9.5L269.7,65.5z M252.2,17.6v39.6h-74.1l-3.3-18.8c-0.8-4.8-5.4-7.9-10.1-7.1
		c-4.8,0.8-7.9,5.4-7.1,10.1l2.8,15.8h-14.1l2.8-15.8c0.8-4.8-2.3-9.3-7.1-10.1c-4.8-0.8-9.3,2.3-10.1,7.1l-3.3,18.8H54.5V17.6
		H252.2L252.2,17.6z M162,74.6h1.4l7,39.6c0.7,4.2,4.4,7.2,8.6,7.2c0.5,0,1,0,1.5-0.1c0.7-0.1,1.3-0.5,1.9-0.7v30.6
		c0,5.8-4.4,10.4-10.1,10.4h-10.4v-87H162z M182.5,81.8l-1.3-7.2h1.3V81.8z M121.2,489.5l-103-9.1L53.7,74.7h71.7l-6.5,36.6
		c-0.8,4.8,2.3,9.3,7.1,10.1c0.5,0.1,1,0.1,1.5,0.1c4.2,0,7.9-3,8.6-7.2l7-39.7h1.4v118.6L121.2,489.5z M185.4,489.5l-23.3-296.2
		v-14.2h10.4c15.2,0,27.6-12.5,27.6-27.9V74.6H253l35.5,405.7L185.4,489.5z"/>
</g>
</svg>
