<?xml version="1.0" encoding="utf-8"?>
<!-- Generator: Adobe Illustrator 26.0.0, SVG Export Plug-In . SVG Version: 6.00 Build 0)  -->
<svg version="1.1" id="katman_1" xmlns="http://www.w3.org/2000/svg" xmlns:xlink="http://www.w3.org/1999/xlink" x="0px" y="0px"
	 viewBox="0 0 168 354.1" style="enable-background:new 0 0 168 354.1;" xml:space="preserve">
<g id="katman_2_00000024722654457517225610000008463269303365100984_">
	<g id="katman_1-2">
		<path d="M83.7,156.1c-1,7.4-1.8,14-2.7,20.6c-3.7,29.4-7.3,58.8-11,88.1c-2.3,18.5-5,36.9-6.8,55.4c-0.9,9.5-0.2,19.2-0.2,28.9
			c0,4.4-0.7,5-5,5c-12.6,0-25.2,0-37.9,0c-4.4,0-5.2-0.6-5.1-4.9c0.9-32.2-2.9-64.1-5.1-96.2c-2-29-4.2-58.1-6.3-87.1
			c-1-14.2-2-28.4-3.1-42.6C-2,91.5,4.2,59.6,18.7,31.1c1.7-3.2,2.5-6.8,2.3-10.4c-0.2-5.4,0-10.8-0.1-16.1C20.9,1.5,22,0,25.3,0
			c39.1,0.1,78.3,0.1,117.4,0c3.3,0,4.6,1.5,4.3,4.6c-1.5,14,2.2,26.7,7.9,39.6c12.2,27.5,14.8,56.8,12.1,86.6
			c-2,22.2-3.4,44.4-5,66.6c-2.2,29.7-4.6,59.3-6.4,89c-1.3,20.6-1.8,41.2-2.6,61.8c-0.2,5.8-0.3,6.1-6.2,6.1c-12.2,0-24.5,0-36.8,0
			c-4.4,0-5.2-0.6-5-5c1.4-26.6-3.3-52.8-6.5-79.1c-3.3-26.9-6.7-53.8-10.1-80.7c-1.3-10.5-2.6-21.1-3.9-31.6
			C84.3,157.2,84,156.6,83.7,156.1z M57.2,318c0.2-0.5,0.3-1.1,0.4-1.7c3.8-30.1,7.5-60.2,11.3-90.3c4-31.9,8-63.7,11.9-95.6
			c0.3-2.1,0.5-4.2,3.2-4.2s2.9,2.2,3.2,4.3c2.2,18.1,4.5,36.2,6.8,54.3c5,39.8,9.9,79.6,14.9,119.4c0.6,4.6,1.2,9.3,1.9,13.8h36.5
			c0.3-4,0.5-7.7,0.8-11.4c2.2-29.5,4.3-59.1,6.5-88.6c1.6-22.3,3.4-44.6,4.9-66.9c1-15.3,1.7-30.7,2.6-46c0.1-2.2-0.6-3.1-3-3.8
			c-11.1-3-18.1-10.2-20.5-21.5c-1-4.6-1.4-9.4-2-14.1c-1.6-11.7-3.1-23.5-4.7-35.3H88.7c1.4,12.5,2.8,24.8,4.2,37
			c0.2,2.2,0.1,4.3-2.5,4.7s-3.3-1.6-3.5-3.9c-0.7-6.6-1.4-13.2-2.2-19.7c-0.4-3.1-0.8-6.3-1.2-9.4c-0.6,0.4-1,1-1.1,1.7
			C80,53.7,77.6,67,75.2,80.3c-0.4,2.2-1.2,4.1-3.8,3.6s-2.6-2.6-2.1-4.8c1.1-5.8,2.2-11.5,3.2-17.3c1.9-10.4,3.8-20.9,5.7-31.5
			H36.4c-0.2,0.4-0.3,0.8-0.4,1.2c-2,15.2-4,30.5-6.1,45.7c-1.7,12-8.2,20.3-20,23.7c-3.5,1-4.2,2.5-4,5.6c1,16,1.8,31.9,2.9,47.9
			c3.5,49.6,7.1,99.2,10.8,148.8c0.4,4.9,0.8,9.9,1.2,14.9L57.2,318z M79.3,23.9l1-5.8c-2.9,0-5.5,0.4-7.8-0.1c-1.3-0.3-2.3-2-3.4-3
			c1.1-0.9,2.2-2.7,3.3-2.7c7.7-0.2,15.5-0.2,23.2,0c1.1,0,2.2,1.8,3.3,2.7c-1.1,1-2.1,2.8-3.4,3c-2.5,0.5-5.2,0.1-8,0.1
			c0.2,2.2,0.3,4,0.5,5.8h52.8V6.3H27.2v17.5H79.3z M56.8,324.4H21.2v23.5h35.7V324.4z M111.2,347.9h35.5v-23.6h-35.5V347.9z
			 M138.2,29.2c-0.1,0.9-0.1,1.8-0.1,2.6c2,15.3,3.9,30.7,6.2,46c1.4,9.1,8.6,16.3,17,17.4c0-0.8,0.1-1.5,0-2.2
			c-2.1-21.3-8.3-42-18.2-61C142.4,30.8,140.2,30.3,138.2,29.2L138.2,29.2z M6.2,95.5c10-2,16.5-9.2,17.8-18.6
			c1.5-10.9,2.9-21.8,4.4-32.7c0.6-4.6,1.1-9.3,1.7-13.9c-4.1-0.3-4.1-0.3-5.6,2.7c-6.2,12-10.8,24.7-13.8,37.9
			C8.8,78.8,7.7,86.9,6.2,95.5z"/>
		<path d="M38.7,18c-1,0-2.2,0.4-2.9-0.1c-1.1-0.7-2.6-1.9-2.6-2.9s1.5-2.5,2.7-2.8c1.8-0.5,3.7-0.5,5.5,0c1.3,0.4,2.3,1.9,3.5,2.9
			c-1.1,1.1-2.3,2-3.6,2.9C40.7,18.4,39.6,18.1,38.7,18L38.7,18z"/>
		<path d="M56.9,18c-0.8,0-1.7,0.3-2.2,0c-1.3-0.9-2.5-1.8-3.6-2.9c1.1-1,2.1-2.5,3.5-2.9c1.5-0.5,3.2-0.5,4.8,0
			c1.4,0.5,2.4,1.8,3.6,2.8c-1.1,1.1-2.2,2.1-3.5,3C58.8,18.4,57.8,18,56.9,18z"/>
		<path d="M111,18c-0.9,0-2,0.3-2.6-0.1c-1.2-0.9-2.3-2-3.4-3.1c1.1-0.9,2.1-2.3,3.3-2.7c1.5-0.5,3.2-0.1,4.8-0.1
			c2.2,0,4,0.9,3.6,3.1c-0.2,1.2-2.2,2-3.6,2.8C112.7,18.3,111.8,18,111,18z"/>
		<path d="M129.1,12.1c1,0,2.2-0.4,2.9,0.1c1.1,0.7,2.6,1.9,2.7,2.9s-1.5,2.5-2.6,2.9c-1.8,0.5-3.7,0.5-5.5,0
			c-1.4-0.4-2.4-1.9-3.6-2.8c1.1-1.1,2.3-2.1,3.5-3C127.2,11.7,128.3,12,129.1,12.1L129.1,12.1z"/>
	</g>
</g>
</svg>
