<?xml version="1.0" encoding="utf-8"?>
<!-- Generator: Adobe Illustrator 26.0.0, SVG Export Plug-In . SVG Version: 6.00 Build 0)  -->
<svg version="1.1" id="katman_1" xmlns="http://www.w3.org/2000/svg" xmlns:xlink="http://www.w3.org/1999/xlink" x="0px" y="0px"
	 viewBox="0 0 273.1 320" style="enable-background:new 0 0 273.1 320;" xml:space="preserve">
<g id="Skirt">
	<circle cx="136.5" cy="21.5" r="8"/>
	<path d="M136.5,67.9c4.4,0,8-3.6,7.9-8.1s-3.6-8-8-7.9c-4.4,0-7.9,3.6-7.9,7.9c0,4.4,3.5,8,7.9,8.1
		C136.4,67.9,136.4,67.9,136.5,67.9z"/>
	<ellipse transform="matrix(0.1602 -0.9871 0.9871 0.1602 -12.56 242.8775)" cx="136.5" cy="128.8" rx="8.1" ry="8"/>
	<path d="M136.5,189.8c-4.4,0-8,3.6-7.9,8c0,4.4,3.6,8,8,7.9c4.4,0,7.9-3.6,8-8C144.5,193.3,140.9,189.8,136.5,189.8
		C136.5,189.8,136.5,189.8,136.5,189.8z"/>
	<path d="M136.5,258.8c-4.4,0-8.1,3.6-8.1,8c0,4.4,3.6,8.1,8,8.1s8.1-3.6,8.1-8v0c0-4.4-3.5-8-7.9-8
		C136.5,258.7,136.5,258.7,136.5,258.8z"/>
	<path d="M6.2,148.4h0.3c1.8,0,3.3-1.4,3.4-3.2l0.1-1.1c0.2-1.9-1.3-3.6-3.1-3.7c-1.9-0.2-3.6,1.3-3.7,3.1l0,0L3,144.6
		C2.8,146.5,4.3,148.2,6.2,148.4C6.2,148.4,6.2,148.4,6.2,148.4z"/>
	<path d="M216.8,309.8l-1.3,0.1c-1.9,0.2-3.3,1.9-3.1,3.8c0.2,1.7,1.7,3.1,3.4,3.1c0.1,0,0.2,0,0.4,0l1.3-0.1
		c1.9-0.1,3.3-1.8,3.2-3.7c-0.1-1.9-1.8-3.3-3.7-3.2C216.9,309.8,216.9,309.9,216.8,309.8L216.8,309.8z"/>
	<path d="M262.9,88.6L262.9,88.6c-0.7-4-1.5-8-2.2-11.9c-0.2-0.9-0.3-1.7-0.5-2.5l0,0l0,0l0,0c-0.5-2.5-1.1-4.9-1.6-7.3
		c-0.3-1.3-0.6-2.6-0.9-3.8V63l0,0c-0.3-1.3-0.6-2.5-0.9-3.7c-0.1-0.6-0.3-1.3-0.5-1.9c-1-3.8-2-7.5-3.1-11
		c-0.2-0.7-0.4-1.3-0.6-1.9l0,0l-0.8-2.4c-0.2-0.8-0.5-1.6-0.8-2.4v-0.1c-0.9-2.8-1.9-5.4-2.8-8l0,0c-8.7-23.1-16.5-30.5-16.8-30.8
		C230.8,0.3,230,0,229.1,0H43.9c-0.9,0-1.7,0.3-2.3,0.9c-0.3,0.3-8.1,7.7-16.9,30.8l0,0c-0.4,1-0.7,2-1.1,2.9
		c-0.1,0.4-0.3,0.7-0.4,1.1l-0.2,0.4c-0.1,0.3-0.2,0.6-0.3,1l-0.2,0.6c-0.1,0.3-0.2,0.7-0.3,1L22,39.4l0,0l-0.1,0.3l0,0
		c0,0,0,0,0,0.1l-0.2,0.5c-0.2,0.7-0.5,1.4-0.7,2.2v0.1l0,0l0,0c-0.8,2.5-1.6,5-2.3,7.5L18.2,52c-0.5,1.8-1,3.6-1.4,5.4
		c-0.1,0.5-0.3,1.1-0.4,1.6l-0.1,0.2l0,0l0,0c-0.8,3.1-1.6,6.3-2.3,9.6l-0.3,1.6c-0.1,0.4-0.2,0.9-0.3,1.2c-0.2,0.8-0.4,1.6-0.5,2.4
		c-0.4,2-0.8,4-1.2,6c-0.2,1.1-0.4,2.1-0.6,3.2v0.2c0,0,0,0.1,0,0.1l-0.1,0.4l-0.1,0.2l0,0l0,0c-0.3,1.4-0.5,2.8-0.8,4.2l0,0
		c-1.7,9.9-3.3,20.6-4.6,31.6c-0.2,1.9,1.1,3.6,3,3.8H9c1.7,0,3.2-1.3,3.4-3.1c1.2-10,2.6-19.7,4.1-28.8
		C52.2,87,79.9,67.5,86.9,42.6c8.1,0.4,16.7,0.7,25.6,0.9V313c-84.9-1.7-101.3-12.2-103.9-14.5c-2.2-48-2.2-91.8,0-130.4
		c0.1-1.9-1.4-3.5-3.3-3.6c-1.9-0.1-3.5,1.4-3.6,3.3c-2.2,39.1-2.1,83.6,0.1,132.2c0,0.4,0.1,0.8,0.2,1.1c0.7,1.6,3.8,5.7,18.4,9.7
		c19.7,5.3,51.8,8.4,95.5,9.1c6.6,0.1,13.6,0.1,20.6,0.1s14,0,20.8-0.2c12.9-0.2,25-0.6,35.9-1.3c1.9-0.1,3.4-1.7,3.2-3.6
		c-0.1-1.9-1.7-3.4-3.6-3.2c-9.8,0.6-20.6,1-32.1,1.2V43.7c9.1-0.2,17.9-0.5,26.2-0.9c6.9,24.6,34.3,44.2,69.7,49.5
		c9.1,53.6,11.8,122.9,8,206.2c-1.4,1.2-7,4.9-25.1,8.2c-1.9,0.4-3.1,2.2-2.7,4c0.3,1.6,1.7,2.8,3.4,2.8c0.2,0,0.4,0,0.6-0.1
		c24.8-4.6,29.6-10.2,30.5-12.4c0.1-0.4,0.2-0.8,0.2-1.1C275.3,214.4,272.5,143.3,262.9,88.6z M240.3,30.3c-0.8,0.1-1.6,0.3-2.4,0.4
		l-0.5,0.1l-1.3,0.2h-0.1l-3.3,0.5l-2.3,0.3l0,0c-4,0.6-8.3,1.1-12.8,1.6h-0.1l-1.1,0.1H216l-1.4,0.1l-0.5,0.1l-2.5,0.2h-0.1h-0.2
		c-1.3,0.1-2.6,0.2-4,0.4c-2,0.2-4.2,0.3-6.4,0.5l0,0c-1.4,0.1-2.8,0.2-4.2,0.3h-0.3l-4.6,0.3l-4.2-28.7h39.9
		C229.5,9.2,234.5,16,240.3,30.3L240.3,30.3z M153.7,36.9c-11.3,0.1-23.2,0.1-34.5,0v-30h34.5V36.9z M45.4,6.9h39.9l-4.2,28.7
		L78,35.4l-3.3-0.2c-2.6-0.2-5.2-0.4-7.6-0.6l-3.9-0.3h-0.4l0,0l-0.9-0.1h-0.5l-1.2-0.1H60h-0.2c-1.9-0.2-3.7-0.4-5.4-0.6h-0.2H54
		l-1.8-0.2l-0.9-0.1l0,0L50,33.1l0,0l-1.4-0.2l-1.3-0.2l-1-0.1l0,0l-0.5-0.1l0,0l-0.8-0.1l-1.3-0.2l0,0c-1.2-0.2-2.3-0.3-3.5-0.5
		l-3.7-0.6h-0.1h-0.2h-0.1l-2-0.4l0,0c-0.2,0-0.4-0.1-0.6-0.1h-0.1l-0.6-0.1C38.5,16,43.5,9.2,45.4,6.9L45.4,6.9z M17.6,85.2
		l0.1-0.3c0.2-1.1,0.4-2.2,0.6-3.4c0.4-2,0.8-4,1.2-6c0.2-0.8,0.3-1.6,0.5-2.4l0,0c0,0,0,0,0-0.1c0.1-0.4,0.1-0.7,0.2-1.1l0.3-1.6
		l0,0c0.7-3.3,1.5-6.4,2.2-9.5l0,0c0.1-0.5,0.3-1,0.4-1.5l0.1-0.2c0.5-1.8,1-3.6,1.4-5.4c0.2-0.6,0.3-1.2,0.5-1.8
		c0.7-2.4,1.4-4.9,2.2-7.3l0,0l0.9-2.9c0-0.1,0-0.1,0-0.2l0,0l0,0c0,0,0-0.1,0-0.1l0.2-0.6l0.3-0.9l0.7-2c0.1-0.3,0.2-0.7,0.4-1
		v-0.1l0.7,0.1l1.1,0.2l0.9,0.2l0.4,0.1l0.6,0.1l1,0.2h0.1c0.2,0,0.4,0.1,0.5,0.1l0.9,0.1l0.6,0.1l0,0h0.1l1.1,0.2l0,0l1.1,0.2l0,0
		c1.2,0.2,2.3,0.4,3.6,0.5l2.3,0.3l0.4,0.1h0.2l1,0.1c0.4,0.1,0.9,0.1,1.3,0.2h0.1c0.4,0.1,0.9,0.1,1.2,0.1l0,0l1.4,0.2l2.7,0.3
		l0.5,0.1c1.8,0.2,3.6,0.4,5.4,0.6h0.2h0.2l1.5,0.1h0.3h0.1l0.8,0.1l0,0l2.3,0.2l2.1,0.2l0,0c2.5,0.2,5,0.4,7.7,0.6l0.8,0.1l1.5,0.1
		l0,0l0.9,0.1l2.1,0.1C72.9,63.5,48.8,80.1,17.6,85.2L17.6,85.2z M88,35.9l4.3-29.1h20v29.9C103.9,36.6,95.7,36.3,88,35.9L88,35.9z
		 M119.2,313V43.8c5.6,0.1,11.4,0.1,17.2,0.1s11.6,0,17.2-0.1V313C142.5,313.2,130.5,313.2,119.2,313z M160.6,6.9h20l4.3,29.1
		c-7.7,0.4-15.9,0.6-24.3,0.8L160.6,6.9z M193.9,42.3L193.9,42.3h0.7l0,0l2.2-0.1l0,0h0.6l4-0.3c2.2-0.2,4.4-0.3,6.5-0.5
		c1.4-0.1,2.8-0.2,4.1-0.4h0.2l0,0l0.6-0.1l1.2-0.1l1.2-0.1l1.5-0.1l0.9-0.1l0.6-0.1h0c4.6-0.5,9-1,13.1-1.6l0,0l0.4-0.1l1.9-0.3
		l3.3-0.5l1.3-0.2l0.6-0.1h0.1l0,0c0.9-0.2,1.9-0.3,2.7-0.5l0.4-0.1l0,0h0.1l0.4-0.1c0.6,1.6,1.2,3.3,1.8,5.1c0,0.1,0.1,0.1,0.1,0.2
		c0.2,0.7,0.5,1.4,0.7,2.1l0.5,1.7l0.2,0.6c0.2,0.6,0.4,1.1,0.5,1.7l0,0c0,0,0,0,0,0.1c1,3.5,2.1,7.1,3,10.8
		c0.2,0.6,0.3,1.1,0.4,1.7l0,0l0,0c0.3,1.2,0.6,2.4,0.9,3.7s0.6,2.5,0.9,3.8l0,0c0.5,2.3,1.1,4.7,1.6,7.2c0.2,0.8,0.3,1.6,0.5,2.4
		c0.5,2.3,0.9,4.7,1.4,7C224.5,79.8,200.6,63.2,193.9,42.3L193.9,42.3z"/>
</g>
</svg>
