<?xml version="1.0" encoding="utf-8"?>
<!-- Generator: Adobe Illustrator 26.0.0, SVG Export Plug-In . SVG Version: 6.00 Build 0)  -->
<svg version="1.1" id="katman_1" xmlns="http://www.w3.org/2000/svg" xmlns:xlink="http://www.w3.org/1999/xlink" x="0px" y="0px"
	 viewBox="0 0 381.7 456.8" style="enable-background:new 0 0 381.7 456.8;" xml:space="preserve">
<g>
	<path d="M7.2,449.2c15,11.3,36.1,9.8,49.3-3.5c7.5-7.4,19.5-7.4,27,0c14.8,14.8,38.8,14.8,53.6,0c7.5-7.4,19.5-7.4,27,0
		c14.8,14.7,38.8,14.7,53.6,0c7.5-7.4,19.5-7.4,27,0c14.8,14.8,38.8,14.8,53.6,0c7.5-7.4,19.5-7.4,27,0
		c13.2,13.3,34.3,14.8,49.3,3.5c5.3-1.7,8.2-7.2,6.6-12.5L318.5,75.5v-0.7V9.4c0-5.2-4.2-9.4-9.4-9.4c-0.4,0-0.8,0-1.2,0.1
		c-77.8,10.4-156.6,10.4-234.4,0c-5.2-0.6-9.8,3.1-10.4,8.3c0,0.4-0.1,0.7-0.1,1.1v65.8v0.5L0.4,436.9c-1.6,5.3,1.4,10.8,6.6,12.5
		L7.2,449.2z M81.8,20c72.4,8.8,145.6,8.8,218,0v48.9c-72.5,8.2-145.6,8.2-218.1,0L81.8,20z M79.9,87.7c73.8,8.4,148.2,8.4,222,0
		l60,347.8c-7.5,4.6-17.2,3.4-23.3-2.8c-14.8-14.7-38.8-14.7-53.6,0c-7.5,7.4-19.6,7.4-27,0c-14.8-14.7-38.8-14.7-53.6,0
		c-7.5,7.4-19.5,7.4-27,0c-14.8-14.7-38.8-14.7-53.6,0c-7.5,7.4-19.5,7.4-27,0C82,418,58,418,43.2,432.7c-6.2,6.3-15.8,7.4-23.3,2.8
		L79.9,87.7z"/>
	<path d="M87.7,385.4h1c4.8,0,8.8-3.6,9.3-8.4l25.8-238.9c0.6-5.2-3.2-9.9-8.4-10.4c-5.2-0.6-9.9,3.2-10.4,8.4L79.3,374.9
		c-0.6,5.2,3.1,9.8,8.2,10.4C87.6,385.4,87.6,385.4,87.7,385.4L87.7,385.4z"/>
	<path d="M155.5,385.4h0.4c5,0,9.2-3.9,9.4-9l10.8-238.9c0.2-5.2-3.8-9.6-9-9.8s-9.6,3.8-9.8,9l-10.7,238.8
		C146.3,380.7,150.3,385.1,155.5,385.4L155.5,385.4L155.5,385.4z"/>
	<path d="M288.8,377c0.5,4.7,4.3,8.2,9,8.4h1c5.2-0.6,8.9-5.2,8.3-10.3l-25.5-239c-0.6-5.2-5.2-8.9-10.4-8.4
		c-5.2,0.6-8.9,5.2-8.4,10.4L288.8,377z"/>
	<path d="M230.8,385.4h0.4c5.2-0.2,9.2-4.6,9-9.8l0,0l-10.7-238.9c-0.2-5.2-4.6-9.2-9.8-9c-5.2,0.2-9.2,4.6-9,9.8l10.8,238.9
		C221.7,381.4,225.8,385.4,230.8,385.4L230.8,385.4z"/>
</g>
</svg>
