<?xml version="1.0" encoding="utf-8"?>
<!-- Generator: Adobe Illustrator 26.0.0, SVG Export Plug-In . SVG Version: 6.00 Build 0)  -->
<svg version="1.1" id="katman_1" xmlns="http://www.w3.org/2000/svg" xmlns:xlink="http://www.w3.org/1999/xlink" x="0px" y="0px"
	 viewBox="0 0 450.5 560" style="enable-background:new 0 0 450.5 560;" xml:space="preserve">
<g>
	<path d="M225.1,560c-81,0-163.6-23-221-61.5c-3-2-4.5-5.6-4-9.1c2.4-14.3,4.7-28.7,7-43C27.4,320.9,48.3,191.1,95.3,83.8
		c6.9-16.3,8.3-25.4,8.3-54c0-5.1,4.1-9.2,9.2-9.2s9.2,4.1,9.2,9.2c0,31-1.8,42.4-9.8,61.3C66.1,196.3,45.3,324.9,25.3,449.3
		c-2,12.4-4,24.8-6,37.2c53.6,34.1,131.8,55.1,205.8,55.1c5.1,0,9.2,4.1,9.2,9.2C234.2,555.9,230.1,560,225.1,560L225.1,560z"/>
	<path d="M96.5,279.5c-0.2,0-0.5,0-0.7,0c-5.1-0.4-8.8-4.8-8.4-9.9c5.1-63.5,11.7-120.4,41.7-174.1c2.5-4.4,8.1-6,12.5-3.5
		c4.4,2.5,6,8.1,3.6,12.5c-28.1,50.4-34.5,105.3-39.4,166.6C105.3,275.9,101.3,279.5,96.5,279.5L96.5,279.5z"/>
	<path d="M157,242.7c-5.1,0-9.2-4.1-9.2-9.1c-0.3-40.7,6.5-82,20.7-126.1c1.6-4.8,6.7-7.5,11.6-5.9c4.8,1.6,7.5,6.8,5.9,11.6
		c-13.6,42.2-20.1,81.6-19.8,120.3C166.3,238.5,162.2,242.7,157,242.7L157,242.7L157,242.7z"/>
	<path d="M225.1,560c-5.1,0-9.2-4.1-9.2-9.2c0-5.1,4.1-9.2,9.2-9.2c73.9,0,152.2-21,206.1-55.1c-2.3-14.2-4.7-28.4-7-42.6
		c-19.9-122.4-40.5-249.1-85.9-352.6c-8.5-19.5-9.8-31.2-9.8-61.4c0-5.1,4.1-9.2,9.2-9.2s9.2,4.1,9.2,9.2c0,29.6,1.3,38.2,8.3,54
		c46.3,105.7,67.1,233.5,87.2,357.1c2.6,16.2,5.3,32.4,8,48.5c0.6,3.6-1,7.2-4,9.2C388.6,537,305.9,560,225.1,560L225.1,560z"/>
	<path d="M225.1,124.2c-38,0-78.8-9.2-124.9-28.1c-4.7-1.9-6.9-7.3-5-12s7.3-7,12-5c43.8,18,82.3,26.8,117.9,26.8
		c35.4,0,74-8.8,118.2-26.8c4.7-1.9,10.1,0.3,12,5s-0.3,10.1-5,12C303.8,115,262.9,124.2,225.1,124.2L225.1,124.2z"/>
	<path d="M353.6,279.5c-4.8,0-8.8-3.7-9.2-8.5c-4.4-58.4-10.7-115-39.4-166.5c-2.5-4.4-0.9-10,3.6-12.5c4.4-2.5,10.1-0.9,12.5,3.5
		c30.6,54.8,37.2,113.6,41.7,174.1c0.4,5.1-3.4,9.5-8.5,9.9C354,279.5,353.8,279.5,353.6,279.5L353.6,279.5z"/>
	<path d="M293.1,242.7L293.1,242.7c-5.1,0-9.2-4.2-9.2-9.3c0.3-39.4-6.1-78.8-19.5-120.3c-1.6-4.8,1.1-10,5.9-11.6
		c4.8-1.5,10,1.1,11.6,5.9c14,43.5,20.7,84.7,20.4,126.1C302.2,238.6,298.1,242.7,293.1,242.7L293.1,242.7z"/>
	<path d="M225.1,59.3c-36.5,0-121.5-2.9-121.5-29.5c0-26.9,85-29.8,121.5-29.8c36.6,0,121.8,2.9,121.8,29.8
		C346.9,56.4,261.7,59.3,225.1,59.3L225.1,59.3z M126,29.7c12.4,4.9,45.8,11.2,99,11.2c53.3,0,86.8-6.2,99.3-11.2
		c-12.4-5-45.8-11.3-99.3-11.3C171.7,18.4,138.4,24.7,126,29.7z"/>
</g>
</svg>
