<?xml version="1.0" encoding="utf-8"?>
<!-- Generator: Adobe Illustrator 26.0.0, SVG Export Plug-In . SVG Version: 6.00 Build 0)  -->
<svg version="1.1" id="katman_1" xmlns="http://www.w3.org/2000/svg" xmlns:xlink="http://www.w3.org/1999/xlink" x="0px" y="0px"
	 viewBox="0 0 398.9 532.2" style="enable-background:new 0 0 398.9 532.2;" xml:space="preserve">
<style type="text/css">
	.st0{fill-rule:evenodd;clip-rule:evenodd;}
</style>
<g>
	<path class="st0" d="M322.1,519.6c-11.2,7.3-55.5,9.3-69.4,8.6c-13.9,5.3-93.2,5.3-107.1,0c-13.2,0.7-57.5-1.3-68.8-8.6
		c-25.1,0.7-48.3-3.3-71.4-13.2c-4.6-1.3-5.9-5.9-5.3-10.6C16,416.5,72.8,38.9,117.1,2.6c2-2,4-2.6,6.6-2.6h151.4c2,0,4,0.7,5.9,2
		c49.6,49.6,99.8,407.3,117.7,493.9c0.7,4-1.3,8.6-5.3,10.6C371.1,517,346.6,520.3,322.1,519.6L322.1,519.6z M295.7,78.7
		c-4.6-15.9-14.5-48.9-24.5-60.2H127.8c-9.9,11.2-19.8,43.6-24.5,58.8C167.4,102.5,231.6,101.1,295.7,78.7L295.7,78.7z M301,97.2
		c-68.1,23.1-135.5,24.5-203-1.3c-35,129.6-52.2,264.5-78,396c17.2,6.6,35.7,9.3,54.2,9.3l41.7-325.3c2-12.6,20.5-9.9,19.2,2.6
		l-42.3,326c15.9,4,32.4,5.9,48.3,4.6l21.8-284.3c0.7-11.9,19.8-10.6,18.5,2l-21.2,284.3c25.1,3.3,52.9,3.3,78.7,0l-21.8-285
		c0-13.2,18.5-12.6,19.2-1.3L258,509.1c15.9,1.3,32.4-0.7,48.3-4.6l-42.3-326c-2-12.6,17.2-15.2,18.5-2.6l42.3,325.2
		c18.5,0,37-2.6,54.2-9.3C353.2,361,335.4,226.1,301,97.2L301,97.2z"/>
</g>
</svg>
