<?xml version="1.0" encoding="utf-8"?>
<!-- Generator: Adobe Illustrator 26.0.0, SVG Export Plug-In . SVG Version: 6.00 Build 0)  -->
<svg version="1.1" id="katman_1" xmlns="http://www.w3.org/2000/svg" xmlns:xlink="http://www.w3.org/1999/xlink" x="0px" y="0px"
	 viewBox="0 0 495.5 414.6" style="enable-background:new 0 0 495.5 414.6;" xml:space="preserve">
<g>
	<path d="M427.2,367.5c-15.2,5.4-29.3,13.6-41.4,24.2c-1.1,0.9-1,3.4-2.2,4.3c-2,1.6-4.7,3.7-6.6,3.3c-2.3-1-4-3.2-4.5-5.7
		c-3.7-30.5-12.2-60.3-25-88.2c-2.6-5.6-4.6-10.8,4.6-14.4c10,30.7,19.7,60.5,29.5,90.9c7.9-4.7,16-9.5,24.1-14.2
		c3.9-2.2,7.8-4.4,11.9-6.3c11.2-5.1,10.5-6.9,8.7-19.8c-2.5-18.7-13.9-31.8-24.1-46l0,0c-1.5-1.9-2.3-4.2-2.5-6.7
		c0.4-1.9,1.7-3.4,3.4-4.1c1.1-0.4,3.5,1,4.4,2.3c6.7,9.9,13.7,19.7,19.5,30.2l0,0c3.2,6.4,5.5,13.3,6.8,20.4
		c2.7,12.2,4.5,24.6,6.9,38.1c17.1-6.4,32.8-13,40.8-30.2l0,0c1-1.9,1.4-4,1.1-6.1c-3.8-13-8.3-25.7-12-38.7
		c-5.5-19.8-9.3-40.2-15.9-59.7c-11.1-32.7-23.6-64.9-35.8-97.2c-6.5-17.2-13.8-34.1-20-51.4c-4.7-13.2-8.1-26.9-12.1-40.4
		c-58.4,19.6-211.3,15.6-250.5-1.6c-1.9,4.4-3.9,8.7-5.8,13.1c-21.3,49.4-43,98.7-63.9,148.3c-11.8,28-21.2,57.1-34.1,84.6
		c-9.4,20-13.6,41.2-20.1,61.8c-1.9,6-0.7,7.8,5.4,8.6c14.7,2,29.3,4.4,43.9,7.2c5.4,1,8-0.2,8.2-5.9c0.6-17.6,1.3-35.2,2.2-52.7
		c0.4-8.4,1.2-16.8,2.5-25.1c0.4-2.4,2.9-4.5,4.5-6.7c1.6,2.4,4.8,4.9,4.7,7.3c-0.9,22.6-2.6,45.2-3.4,67.8
		c-0.3,8.5,1.4,17.1,1.7,25.7l0,0c-0.3,2.7-1,5.4-2,8c-2.4-1.3-5-2.4-7.3-3.9c-2-1.2-3.6-3.7-5.6-4c-17.7-2.8-35.4-5.2-53.1-7.7
		c-15-2.1-16.4-4.7-11.8-18.8c2.8-8.5,3.5-17.6,6.4-26c5.6-16,11.9-31.8,18.3-47.5c15-36.4,30-72.7,45.5-108.9
		C92,130,111.7,84.5,131.7,39l0,0c2.6-5.2,5.5-10.3,8.7-15.2c1.4-2,2.6-4.2,3.5-6.5c1-5.3,4.1-10.1,8.5-13.2
		c4.4-3.2,9.9-4.6,15.3-3.9c22.5,1.9,45,4.8,67.6,5.1c31.4,0.3,62.8-1.4,94.2-2.3c14.2-0.4,28.4-1.3,42.6-1.6
		c8.6-0.2,10.7,2.6,10.1,11.2l0,0c-0.2,2.2,0.1,4.3,0.9,6.4c5.6,14.9,11.7,29.6,17.1,44.6c7.6,21,14.4,42.3,22.3,63.1
		c5.9,15.3,14.3,29.8,19.4,45.3c8.7,26.2,15.5,52.9,23.4,79.4c6.4,21.6,13.1,43.2,20,64.7l0,0c2.1,5.6,4.5,11,7.2,16.3
		c5.2,11,3.9,15.2-6.6,23.7c-6.3,5.1-12,10.9-18.5,15.7l0,0c-5.1,3.4-10.4,6.4-15.9,9.2c-2.5,1.5-4.8,3.6-7.4,4.8l0,0
		c-2.9,1.7-6.2,2.6-9.5,2.8c-1.5-0.1-3.2-3.9-4-6.3C429.2,377.7,428.4,373,427.2,367.5L427.2,367.5z M382.5,42.8
		c-3-8.3-5-14.9-7.9-21.2c-1.5-2-3.9-3.2-6.4-3.1c-10.5,1-21,3.1-31.5,3.8c-21.1,1.5-42.3,3.1-63.5,3.3c-13.6,0.2-27.2-2-40.8-3
		c-21.7-1.6-43.5-3.2-65.2-4.7c-4.6-0.3-9.2-5.4-13.7,0.4l0,0c-3.5,3.7-6.7,7.6-9.4,11.9c-4.5,9.6-1.8,13.9,8.9,15.6
		c3.6,0.6,7.2,0.8,10.9,1.1c24.8,2.3,49.5,4.7,74.3,6.9c6.7,0.9,13.4,1.2,20.1,1.1c30.9-2,61.8-4.2,92.7-6.8
		C360.9,47.2,370.7,44.8,382.5,42.8L382.5,42.8z M231.7,13.6L231.7,13.6c35.7,4.7,71.8,4.6,107.4-0.3L231.7,13.6z"/>
	<path d="M228.7,389.6c-1.4-27.3-2.7-53.4-3.9-79.6c-0.2-2.2,0.2-4.5,1.1-6.5c1.1-1.8,3.4-2.9,5.2-4.2c1.1,1.9,3.4,3.9,3.2,5.8l0,0
		c-1.3,8.6-2.1,17.2-2.3,25.9c1.5,18.2,4.3,36.4,7.2,54.5c1.2,3.2,3.8,5.7,7.1,6.6c15.7,2.8,31.4,5.2,47.2,6.9l0,0
		c12.2,1.7,24.4,2.3,36.7,1.8c9.3-1.6,18.4-4,27.3-7.2c4.2-0.8,8.4-1.4,12.6-1.8c0.2,7.2-5.8,7.9-10.4,9.9c-24,10.5-49,9.2-74.2,6
		c-14.1-1.8-28.3-3.1-42.5-4.6c-0.6-0.1-1.3,0.1-1.7-0.2c-9.3-6.5-18-1-26.4,1.8l0,0c-35.7,12-74.2,13.1-110.6,3.1
		c-7-1.8-14.2-3.1-21.1-5.4c-1.6-0.5-2.3-4.1-3.4-6.2c2.2-0.9,4.7-2.9,6.7-2.6c16.6,3.3,33.3,6.6,49.7,10.7
		c27.6,6.9,53.6-0.7,79.6-8.3C220.5,394.2,224.7,392.1,228.7,389.6L228.7,389.6z"/>
</g>
</svg>
