<?xml version="1.0" encoding="utf-8"?>
<!-- Generator: Adobe Illustrator 26.0.0, SVG Export Plug-In . SVG Version: 6.00 Build 0)  -->
<svg version="1.1" id="katman_1" xmlns="http://www.w3.org/2000/svg" xmlns:xlink="http://www.w3.org/1999/xlink" x="0px" y="0px"
	 viewBox="0 0 391.8 336.1" style="enable-background:new 0 0 391.8 336.1;" xml:space="preserve">
<g>
	<path d="M391.6,269.9L365.9,51.4c0,0,0,0,0-0.1V29c0-10.1-8.3-18.4-18.4-18.4h-95.4c-6.7-9-18.5-12.9-29.3-9.3l-26.8,9l-26.8-9
		c-10.8-3.6-22.6,0.3-29.3,9.3H44.4C34.3,10.6,26,18.9,26,29v22.7L0.3,269.9c-2.1,18,8.7,35.1,25.6,40.6
		c17.2,5.6,35.2,10.4,53.7,14.2c31,6.4,63.4,10.3,96.2,11.4H196h20.4c32.7-1.1,65-4.9,96-11.3c18.2-3.8,35.9-8.5,52.8-13.9
		C382.6,305.1,393.8,287.9,391.6,269.9L391.6,269.9z M347.5,21.8c4,0,7.2,3.2,7.2,7.2v17.5h-75h-22.8c0-0.1,0-0.3,0-0.4
		c0.2-1.3,0.3-2.6,0.3-4V26.3c0-1.3-0.1-2.7-0.3-4c0-0.1,0-0.3,0-0.4L347.5,21.8z M226.3,11.9c6.9-2.3,14.4,0.7,17.9,6.9
		c1.2,2.2,1.9,4.8,1.9,7.3V42c0,2.6-0.6,5.1-1.9,7.3c-3.6,6.3-11.1,9.2-17.9,7l-5.6-1.9c0.5-0.3,1-0.7,1.5-1
		c0.3-0.2,0.6-0.4,0.8-0.6c0.8-0.6,1.6-1.3,2.4-2.1l0,0c0,0,0,0,0.1,0c0.2-0.2,0.4-0.5,0.6-0.7c4-4.2,6.4-10,6.4-16
		c0-6.3-2.6-12.3-7-16.6c0,0,0,0-0.1,0l0,0l0,0c-0.8-0.8-1.6-1.4-2.4-2.1c-0.2-0.2-0.5-0.3-0.8-0.5c-0.5-0.4-1-0.7-1.6-1L226.3,11.9
		z M182.9,21.8h26c1.2,0,2.5,0.2,3.7,0.6c0.8,0.2,1.5,0.5,2.2,1c1,0.5,1.9,1.2,2.8,2.1c2.3,2.3,3.6,5.4,3.6,8.7
		c0,0.8-0.1,1.6-0.2,2.4c-0.5,2.3-1.6,4.5-3.4,6.3c-0.8,0.8-1.8,1.5-2.8,2.1l0,0c-0.7,0.4-1.4,0.7-2.1,0.9c-1.2,0.4-2.4,0.6-3.7,0.6
		h-13h-13c-6.8,0-12.4-5.5-12.4-12.4C170.6,27.3,176.1,21.8,182.9,21.8L182.9,21.8z M160.8,11.1c1.6,0,3.2,0.3,4.8,0.8l5.6,1.9
		c-0.3,0.2-0.6,0.4-0.9,0.6s-0.5,0.4-0.8,0.6c-2.2,1.6-4.1,3.5-5.7,5.7c-0.2,0.3-0.4,0.5-0.6,0.8c-1.5,2.3-2.5,4.8-3.2,7.5
		c-0.1,0.3-0.1,0.7-0.2,1c-0.3,1.4-0.4,2.8-0.4,4.2s0.2,2.8,0.4,4.2c0.1,0.3,0.1,0.7,0.2,1c0.6,2.7,1.7,5.2,3.2,7.5
		c0.2,0.3,0.4,0.5,0.6,0.8c0.8,1.1,1.6,2.1,2.6,3.1c0.9,0.9,2,1.8,3.1,2.5c0.3,0.2,0.6,0.4,0.9,0.6c0.3,0.2,0.5,0.4,0.8,0.6
		l-5.5,1.9c-6.9,2.3-14.4-0.6-17.9-7c-1.2-2.2-1.9-4.7-1.9-7.3V26.3c0-2.6,0.6-5.1,1.8-7.3C150.3,14,155.4,11.1,160.8,11.1
		L160.8,11.1z M37.1,29c0-4,3.2-7.2,7.2-7.2h90.6c0,0.1,0,0.3,0,0.4c-0.2,1.3-0.3,2.6-0.3,4V42c0,1.3,0.1,2.7,0.3,4
		c0,0.2,0,0.3,0,0.5H37.1V29z M11.3,271.2L36.5,57.6h69.4L75.8,312.4c-16-3.5-31.6-7.7-46.5-12.6C17.3,296,9.8,283.9,11.3,271.2
		L11.3,271.2z M152.6,323.6c-2.6-0.2-5.1-0.5-7.7-0.7c-5.1-0.5-10.3-0.9-15.4-1.5c-3.1-0.4-6.1-0.8-9.1-1.2
		c-4.6-0.6-9.2-1.2-13.7-1.9c-3.1-0.5-6.2-1.1-9.4-1.6c-3.5-0.6-7-1.3-10.5-1.9l30.3-257h22.5c0,0,0,0,0.1,0.1c0.8,1,1.6,2,2.5,2.9
		c0.3,0.3,0.6,0.5,0.9,0.8c0.7,0.6,1.3,1.2,2.1,1.7c0.4,0.3,0.8,0.5,1.2,0.8c0.7,0.4,1.3,0.8,2,1.2c0.4,0.2,0.9,0.5,1.3,0.7
		c0.7,0.3,1.4,0.6,2.2,0.9c0.5,0.2,0.9,0.3,1.4,0.5c0.8,0.2,1.6,0.4,2.5,0.6c0.4,0.1,0.8,0.2,1.2,0.2c1.2,0.2,2.5,0.3,3.8,0.3l0,0
		c0.9,0,1.8-0.1,2.7-0.2c0.5-0.1,1,0,1.5-0.1c1.4-0.2,2.8-0.6,4.1-1l21.2-7.1v265h-14.4C168.1,324.6,160.3,324.2,152.6,323.6
		L152.6,323.6z M361.7,300.1c-16.5,5.3-33.9,9.9-51.6,13.6c-30.4,6.3-62.1,10.1-93.9,11.1h-14.6v-265l21.3,7.1
		c1.4,0.5,2.7,0.8,4.1,1c0.5,0.1,1.1,0.1,1.6,0.1c0.8,0.1,1.7,0.2,2.5,0.2l0,0c1.3,0,2.5-0.1,3.8-0.3c0.4-0.1,0.8-0.2,1.3-0.3
		c0.8-0.2,1.6-0.3,2.4-0.6c0.5-0.1,1-0.3,1.4-0.5c0.7-0.3,1.4-0.5,2.1-0.9c0.5-0.2,1-0.5,1.4-0.7c0.7-0.4,1.3-0.7,1.9-1.2
		c0.4-0.3,0.9-0.6,1.3-0.9c0.6-0.5,1.3-1,1.9-1.6c0.3-0.3,0.7-0.6,1-0.9c0.9-0.9,1.7-1.8,2.5-2.9c0,0,0-0.1,0.1-0.1h22.5l22.4,189.5
		c0.4,3.1,3.2,5.3,6.2,4.9c3.1-0.4,5.3-3.1,4.9-6.2L286,57.3h69.4l25.2,213.6C382,284,374.1,296.1,361.7,300.1L361.7,300.1z"/>
	<path d="M305.8,273.4c-3.1,0.4-5.3,3.1-4.9,6.2l0.6,5.2c0.3,2.9,2.8,4.9,5.6,4.9c0.2,0,0.4,0,0.7,0c3.1-0.4,5.3-3.1,4.9-6.2
		l-0.6-5.2C311.6,275.3,308.8,273,305.8,273.4L305.8,273.4z"/>
</g>
</svg>
