<?xml version="1.0" encoding="utf-8"?>
<!-- Generator: Adobe Illustrator 26.0.0, SVG Export Plug-In . SVG Version: 6.00 Build 0)  -->
<svg version="1.1" id="katman_1" xmlns="http://www.w3.org/2000/svg" xmlns:xlink="http://www.w3.org/1999/xlink" x="0px" y="0px"
	 viewBox="0 0 448 560" style="enable-background:new 0 0 448 560;" xml:space="preserve">
<style type="text/css">
	.st0{fill-rule:evenodd;clip-rule:evenodd;}
</style>
<g>
	<path class="st0" d="M448,252c0,130.3-37.2,289.9-37.6,291.5c-0.8,3.6-3.7,6.3-7.3,7c-2,0.4-50.5,9.6-108.7-19.5
		c-4.6-2.3-6.5-7.9-4.2-12.5s7.9-6.5,12.5-4.2c41.3,20.7,77.2,19.9,90.8,18.6c6.8-30.6,35.7-167.4,35.7-281
		c0-90.1-36-163.1-36.4-163.8c-0.6-1.3-1-2.7-1-4.2V18.7c-49.7,0-285.9,0-336,0v55.9h308c5.2,0,9.3,4.2,9.3,9.3
		c0,5.2-4.2,9.3-9.3,9.3H233.3v65.3c0,5.2-4.2,9.3-9.3,9.3s-9.3-4.2-9.3-9.3V93.3h-162c-8,18-34,82.2-34,158.7
		c0,113.6,28.8,250.2,35.7,280.9c5.3,0.6,14.1,1.6,25.8,2.6c7.3-8.9,25.6-32.3,32.4-51.4c1.7-4.9,7.1-7.4,11.9-5.6
		c4.8,1.7,7.4,7.1,5.6,11.9c-5.9,16.4-18.3,34.6-27.6,46.9c12.3,0.9,26.6,1.7,42.7,2.4c9.6-9.7,47-49,70.4-95.9
		c2.3-4.6,7.9-6.5,12.5-4.2s6.5,7.9,4.2,12.5c-19,38-45.9,70.4-62.2,88.4c15.6,0.4,32.4,0.7,50.5,0.8
		C327.3,451,371.1,324.9,371.5,323.6c1.7-4.9,7-7.5,11.8-5.8c4.9,1.7,7.5,7,5.8,11.8c-1.8,5.4-46.5,134.2-159.2,228.2
		c-1.7,1.4-3.8,2.2-6,2.2c-61.2,0-108.7-2.8-139.4-5.4c-0.2,0-0.4,0.1-0.6,0.1c-0.7,0-1.3-0.2-1.9-0.3c-23.6-2-36.4-3.8-36.7-3.8
		c-3.8-0.5-6.9-3.4-7.8-7.1C37.2,541.8,0,382.2,0,252C0,165,31.2,94.8,37.3,81.9V9.3c0-5.2,4.2-9.3,9.3-9.3h299.2H386
		c20.3,0,24.6,0,24.6,9.4v72.5C416.8,94.7,448,164.9,448,252L448,252z M252.2,112c-5.1,0-9.3,4.2-9.3,9.3s4.2,9.3,9.4,9.3
		c5.2,0,9.3-4.2,9.3-9.3s-4.2-9.3-9.3-9.3H252.2z"/>
</g>
</svg>
