<?xml version="1.0" encoding="utf-8"?>
<!-- Generator: Adobe Illustrator 26.0.0, SVG Export Plug-In . SVG Version: 6.00 Build 0)  -->
<svg version="1.1" id="katman_1" xmlns="http://www.w3.org/2000/svg" xmlns:xlink="http://www.w3.org/1999/xlink" x="0px" y="0px"
	 viewBox="0 0 433.9 554.3" style="enable-background:new 0 0 433.9 554.3;" xml:space="preserve">
<style type="text/css">
	.st0{fill-rule:evenodd;clip-rule:evenodd;}
</style>
<g>
	<path class="st0" d="M54.9,503.7c4.9,3.1,9.4,7.4,14.1,11.5c6.6,5.6,13.5,10.8,21.5,13.5c8.7,3,18.6,3.6,28.9,3.7
		c8.9,0.1,18.1-0.1,26.8,1.3c0.3,0,0.6,0.1,0.9,0.1c13.6,0.7,25.8,6.4,40.1,11.4c16.1,5.6,34.4,10.4,58.8,8.7
		c29.1-2.1,47-10.3,65-19.7c10.7-5.5,21.4-11.5,35-16.6c7.3,0.2,34.1,0,54.5-9.7c11.4-5.4,18.2-16.4,25.3-25.4
		c7.4-7.5,10-18.5,6.7-28.5c-47.6-145.7-78.8-291.4-90.8-437c-0.4-4.8-1.9-9.2-4.4-13c-1.9-3-5.5-4.5-9-3.9
		c-36.6,7-81.3,11.1-129.6,11.1C156.4,11.2,116.8,8,83,2.5c-3.9-0.6-7.8,1.4-9.4,5c-1.5,3.4-2.4,7.2-2.5,11.3
		C69,170,41.4,311.3,1,457.7c-2.3,8.4-0.6,17.4,4.6,24.4l-0.1-0.2c3.8,5.5,8.2,11,14.4,14.1C32.5,502.6,48.7,503.5,54.9,503.7
		L54.9,503.7z M324.3,18.8c12.1,146.9,43.6,293.8,91.5,440.8l0,0c1.3,3.8,0.2,8-2.7,10.8c-0.3,0.3-0.6,0.6-0.8,0.9
		c-5.6,7.1-10.3,16.6-19.4,20.9c-20.2,9.6-47.9,7.9-47.9,7.9c-1.2-0.1-2.4,0.1-3.5,0.5c-15.1,5.5-26.9,12-38.7,18
		c-16.2,8.4-32.2,15.9-58.2,17.8c-26,1.9-44.2-4.9-60.5-10.9c-12.2-4.5-23.6-8.4-35.8-9.2c-9.3-1.5-19.2-1.3-28.8-1.4
		c-8.3-0.1-16.4-0.4-23.4-2.8c-6-2.1-11-6.1-15.8-10.3c-6.1-5.2-12-10.7-18.4-14.4c-0.7-0.4-1.5-0.7-2.4-0.9
		c-0.4-0.1-1.9-0.3-4.3-0.4c-5.1-0.2-17.7-0.7-27.3-5.6c-3.6-1.8-5.8-5.3-8-8.5c-0.1-0.1-0.1-0.2-0.2-0.2c-2-2.7-2.6-6.1-1.7-9.3
		C58.6,315.4,86.3,173.2,88.7,21.3c32.7,4.8,70.2,7.6,110.1,7.6C245.1,28.9,288.2,25.2,324.3,18.8L324.3,18.8z"/>
	<path class="st0" d="M335,45c-74.6,12.3-149.3,13.7-223.9,4.4c-4.8-0.6-9.2,2.8-9.8,7.6s2.8,9.2,7.6,9.8
		c76.3,9.5,152.6,8.1,229-4.5c4.8-0.8,8-5.3,7.2-10.1C344.2,47.5,339.7,44.2,335,45L335,45z"/>
	<path class="st0" d="M66,497.5c38.3-134,56.5-267.9,60.8-401.9c0.2-4.8-3.6-8.9-8.5-9c-4.8-0.2-8.9,3.6-9,8.5
		C105,227.6,87,360.2,49.2,492.7c-1.3,4.6,1.4,9.5,6,10.8C59.8,504.8,64.6,502.1,66,497.5L66,497.5z"/>
	<path class="st0" d="M156.2,526.5c21.1-132.8,31.5-265.6,32.2-398.5c0-4.8-3.9-8.8-8.7-8.8c-4.8,0-8.8,3.9-8.8,8.7
		c-0.8,131.9-11.1,263.9-32,395.8c-0.8,4.8,2.5,9.3,7.3,10C151,534.6,155.4,531.3,156.2,526.5L156.2,526.5z"/>
	<path class="st0" d="M352.8,505.9C304,369.1,282.4,232.3,284.9,95.5c0.1-4.8-3.8-8.8-8.6-8.9c-4.8-0.1-8.8,3.8-8.9,8.6
		c-2.5,138.9,19.4,277.8,68.9,416.6c1.6,4.5,6.6,6.9,11.2,5.3C352.1,515.5,354.4,510.5,352.8,505.9L352.8,505.9z"/>
	<path class="st0" d="M295,320.5c-22.9,2-46.8,3.1-71.5,3.1c-7.1,0-14.1-0.1-21-0.3c-4.8-0.1-8.8,3.7-9,8.5c-0.1,4.8,3.7,8.8,8.5,9
		c7.1,0.2,14.2,0.3,21.4,0.3c25.2,0,49.7-1.1,73.1-3.1c4.8-0.4,8.4-4.7,8-9.5C304,323.6,299.8,320,295,320.5L295,320.5z M136,318.9
		c-13.2-1.4-26-3.2-38.3-5.2c-4.8-0.8-9.3,2.4-10.1,7.2c-0.8,4.8,2.4,9.3,7.2,10.1c12.6,2.1,25.7,3.9,39.3,5.4
		c4.8,0.5,9.1-2.9,9.6-7.7C144.2,323.7,140.8,319.4,136,318.9L136,318.9z M381.6,307.3c-12.2,2.7-25,5.2-38.3,7.3
		c-4.8,0.8-8,5.2-7.3,10s5.2,8,10,7.3c13.8-2.2,27-4.7,39.5-7.5c4.7-1.1,7.7-5.8,6.6-10.5C391,309.2,386.3,306.3,381.6,307.3
		L381.6,307.3z M66.5,307.6c-6.3-1.4-12.4-2.9-18.3-4.4c-4.7-1.2-9.5,1.6-10.7,6.2c-1.2,4.7,1.6,9.5,6.2,10.7
		c6.1,1.6,12.5,3.2,19,4.6c4.7,1.1,9.4-1.9,10.4-6.6C74.2,313.3,71.2,308.6,66.5,307.6L66.5,307.6z"/>
	<path class="st0" d="M325.6,448.6c-32.1,6.8-68.8,10.7-107.7,10.7c-7.3,0-14.5-0.1-21.6-0.4c-4.8-0.2-8.9,3.6-9.1,8.4
		s3.6,8.9,8.4,9.1c7.3,0.3,14.8,0.4,22.3,0.4c40.3,0,78.2-4,111.4-11c4.7-1,7.7-5.6,6.7-10.4C335,450.6,330.3,447.6,325.6,448.6
		L325.6,448.6z M125.3,451.5c-18.9-3.3-36.4-7.6-52.2-12.7c-4.6-1.5-9.5,1-11,5.6s1,9.5,5.6,11c16.5,5.4,34.8,9.9,54.6,13.3
		c4.8,0.8,9.3-2.3,10.1-7.1C133.2,456.9,130,452.4,125.3,451.5L125.3,451.5z M409.8,417.7c-12.2,7.7-27.4,14.5-44.8,20.3
		c-4.6,1.5-7.1,6.5-5.5,11.1c1.5,4.6,6.5,7.1,11.1,5.5c18.9-6.3,35.3-13.8,48.6-22.1c4.1-2.6,5.3-8,2.8-12.1
		C419.3,416.4,413.8,415.1,409.8,417.7L409.8,417.7z M43.9,427.4c-7.3-3.4-13.9-7.1-19.8-10.9c-4.1-2.6-9.5-1.5-12.1,2.6
		c-2.6,4-1.5,9.5,2.6,12.1c6.5,4.2,13.9,8.3,21.9,12.1c4.4,2.1,9.6,0.2,11.6-4.2C50.2,434.7,48.3,429.5,43.9,427.4L43.9,427.4z"/>
</g>
</svg>
