<?xml version="1.0" encoding="utf-8"?>
<!-- Generator: Adobe Illustrator 26.0.0, SVG Export Plug-In . SVG Version: 6.00 Build 0)  -->
<svg version="1.1" id="katman_1" xmlns="http://www.w3.org/2000/svg" xmlns:xlink="http://www.w3.org/1999/xlink" x="0px" y="0px"
	 viewBox="0 0 485.4 560" style="enable-background:new 0 0 485.4 560;" xml:space="preserve">
<style type="text/css">
	.st0{fill-rule:evenodd;clip-rule:evenodd;}
</style>
<g>
	<path class="st0" d="M177.4,56h130.7c5.2,0,9.3-4.2,9.3-9.3V9.3c0-5.2-4.2-9.3-9.3-9.3H177.4c-5.2,0-9.3,4.2-9.3,9.3v37.3
		C168,51.8,172.2,56,177.4,56z M186.7,37.3V18.6h112v18.7C298.7,37.3,186.7,37.3,186.7,37.3z"/>
	<path class="st0" d="M420.3,281c-5.6-13.9-11.5-28.2-17.6-42.8c-18.9-45.2-39.1-91.5-59.3-136.5c-7.1-15.7-13.6-30.2-19.5-43
		c-2.1-4.5-3.9-8.5-5.5-11.9c-0.9-2-1.6-3.5-1.9-4.2c-1.5-3.3-4.8-5.4-8.5-5.4H177.4c-3.6,0-6.9,2.1-8.5,5.4c-0.3,0.7-1,2.1-1.9,4.2
		c-1.6,3.4-3.4,7.4-5.5,11.9c-5.9,12.8-12.5,27.3-19.5,43c-20.2,45-40.4,91.3-59.3,136.5c-6.1,14.6-12,28.9-17.6,42.8
		C32.9,360.6,10.6,424.3,1,466.5c-5.4,23.7,11.4,45.1,35.7,46.8c2.3,0.2,5.6,1.3,10.5,3.7c2.9,1.4,14.8,8,17.2,9.2
		c19.1,10,35.2,15.1,54.2,15.1c15.4,0,31.3,2.6,48.5,7.8c24.3,7.3,49.8,10.9,75.6,10.9s51.4-3.6,75.6-10.9c17.1-5.1,33-7.8,48.5-7.8
		c19,0,35.1-5.1,54.2-15.1c2.4-1.2,14.3-7.8,17.2-9.2c4.9-2.4,8.2-3.6,10.5-3.7c24.4-1.7,41.1-23.1,35.7-46.8
		C474.9,424.3,452.5,360.6,420.3,281L420.3,281z M302.1,56c1.4,3.1,3.1,6.6,4.9,10.6c5.9,12.8,12.4,27.2,19.5,42.9
		c20.2,44.8,40.3,91,59.1,136c6.1,14.5,11.9,28.7,17.5,42.6c31.8,78.8,53.9,141.7,63.2,182.6c2.8,12.3-5.7,23.1-18.8,24
		c-5.3,0.4-10.6,2.2-17.5,5.6c-3.3,1.6-15.4,8.3-17.5,9.4c-16.7,8.7-30.1,13-45.5,13c-17.4,0-35,2.9-53.8,8.5
		c-22.5,6.7-46.2,10.1-70.3,10.1s-47.8-3.4-70.3-10.1c-18.8-5.6-36.4-8.5-53.8-8.5c-15.5,0-28.9-4.3-45.5-13
		c-2.1-1.1-14.3-7.7-17.5-9.4c-6.9-3.4-12.2-5.3-17.5-5.6c-13.2-0.9-21.6-11.7-18.8-24c9.3-40.9,31.4-103.9,63.2-182.6
		c5.6-13.8,11.4-28,17.5-42.6c18.8-45,39-91.2,59.1-136c7.1-15.7,13.6-30.1,19.5-42.9c1.8-3.9,3.4-7.5,4.9-10.6H302.1z"/>
	<path class="st0" d="M214.7,56h56c5.2,0,9.3-4.2,9.3-9.3V9.3c0-5.2-4.2-9.3-9.3-9.3h-56c-5.2,0-9.3,4.2-9.3,9.3v37.3
		C205.4,51.8,209.5,56,214.7,56z M224,37.3V18.6h37.3v18.7C261.3,37.3,224,37.3,224,37.3z"/>
	<path class="st0" d="M74.5,516.1c0.3-50.6,17.8-131,55.4-213.6c2.1-4.7,0.1-10.2-4.6-12.4c-4.7-2.1-10.2-0.1-12.4,4.6
		c-38.6,85-56.7,168-57,221.2c0,5.2,4.1,9.4,9.3,9.4C70.3,525.4,74.5,521.3,74.5,516.1L74.5,516.1z"/>
	<path class="st0" d="M205.4,546.6c0.1-4.1,0.7-11.1,2-24c0.3-3.5,1.7-16.9,1.9-18.6c0.8-8.2,1.5-15,2.1-21.8
		c3.1-33.5,5.1-62.4,5.8-90.2c0.7-28.4,0-53.8-2.5-75.7c-0.6-5.1-5.2-8.8-10.3-8.2c-5.1,0.6-8.8,5.2-8.2,10.3
		c2.3,21,3.1,45.6,2.4,73.2c-0.7,27.3-2.6,55.8-5.7,88.9c-0.6,6.8-1.3,13.6-2.1,21.7c-0.2,1.6-1.5,15.1-1.9,18.6
		c-1.3,13.4-1.9,20.6-2,25.4c-0.1,5.2,4,9.4,9.1,9.5C201,555.9,205.2,551.8,205.4,546.6L205.4,546.6z"/>
	<path class="st0" d="M289.6,547.9c0-2.8,0.1-7,0.3-13.9c0-1.2,0.6-16.6,0.8-21.9c1.3-39.6,1.6-71.9,0.3-104.2
		c-1.5-37.1-5.1-68.4-11.2-92.9c-1.2-5-6.3-8-11.3-6.8s-8,6.3-6.8,11.3c5.8,23.1,9.2,53.3,10.7,89.2c1.3,31.7,1,63.6-0.3,102.8
		c-0.2,5.3-0.7,20.6-0.8,21.9c-0.2,7.1-0.4,11.4-0.4,14.5c0,5.2,4.2,9.3,9.3,9.3C285.4,557.3,289.6,553.1,289.6,547.9L289.6,547.9z"
		/>
	<path class="st0" d="M337.7,285.3c14.1,20.4,67.7,191.2,73.3,232c0.7,5.1,5.4,8.7,10.5,8s8.7-5.4,8-10.5
		c-5.9-43.5-60.4-217-76.4-240.1c-2.9-4.2-8.7-5.3-13-2.4C335.8,275.2,334.8,281,337.7,285.3L337.7,285.3z"/>
</g>
</svg>
