<?xml version="1.0" encoding="utf-8"?>
<!-- Generator: Adobe Illustrator 26.0.0, SVG Export Plug-In . SVG Version: 6.00 Build 0)  -->
<svg version="1.1" id="katman_1" xmlns="http://www.w3.org/2000/svg" xmlns:xlink="http://www.w3.org/1999/xlink" x="0px" y="0px"
	 viewBox="0 0 317.8 560.1" style="enable-background:new 0 0 317.8 560.1;" xml:space="preserve">
<style type="text/css">
	.st0{fill-rule:evenodd;clip-rule:evenodd;}
</style>
<g>
	<path class="st0" d="M93.7,74.6H131c5.2,0,9.3-4.2,9.3-9.3v-56c0-5.2-4.2-9.3-9.3-9.3H93.7c-5.2,0-9.3,4.2-9.3,9.3v56
		C84.3,70.5,88.5,74.6,93.7,74.6z M103,18.6h18.7V56H103V18.6z"/>
	<path class="st0" d="M187,74.6h37.3c5.2,0,9.3-4.2,9.3-9.3v-56c0-5.2-4.2-9.3-9.3-9.3H187c-5.2,0-9.3,4.2-9.3,9.3v56
		C177.7,70.5,181.8,74.6,187,74.6z M196.3,18.6H215V56h-18.7V18.6z"/>
	<path class="st0" d="M93.7,9.3h-28c-3.5,0-6.8,2-8.3,5.2L38.7,51.8C35.6,58,40.1,65.3,47,65.3h46.7c5.2,0,9.3-4.2,9.3-9.3V18.6
		C103,13.5,98.8,9.3,93.7,9.3L93.7,9.3z M84.3,46.6H62.1l9.3-18.7h12.9V46.6z"/>
	<path class="st0" d="M224.3,65.3H271c6.9,0,11.4-7.3,8.3-13.5l-18.7-37.3c-1.6-3.2-4.8-5.2-8.3-5.2h-28c-5.2,0-9.3,4.2-9.3,9.3V56
		C215,61.1,219.2,65.3,224.3,65.3L224.3,65.3z M233.7,46.6V28h12.9l9.3,18.7h-22.2V46.6z"/>
	<path class="st0" d="M187,9.3h-56c-5.2,0-9.3,4.2-9.3,9.3V56c0,5.2,4.2,9.3,9.3,9.3h56c5.2,0,9.3-4.2,9.3-9.3V18.6
		C196.3,13.5,192.2,9.3,187,9.3z M177.7,28v18.7h-37.3V28H177.7z"/>
	<path class="st0" d="M215,56h-18.7c0-5.2-4.2-9.3-9.3-9.3h-56c-5.2,0-9.3,4.2-9.3,9.3H103c0-5.2-4.2-9.3-9.3-9.3H47
		c-3.7,0-7,2.2-8.5,5.5C-1.5,141-8.9,189.7,9.8,291.1c1.5,8.3,3.1,16.8,4.6,25.5c8.1,45.3,15.9,94,23.2,142.6
		c2.6,17,4.9,32.8,6.9,47c0.7,5,1.3,9.4,1.9,13.2c0.3,2.3,0.5,3.8,0.6,4.6c0.3,2.5,1.7,4.7,3.6,6.2c5.3,4,15,9.6,29,15.2
		c22.9,9.2,49.5,14.7,79.3,14.7s56.4-5.5,79.3-14.7c13.9-5.6,23.7-11.2,29-15.2c2-1.5,3.3-3.7,3.6-6.2c0.1-0.8,0.3-2.4,0.6-4.6
		c0.5-3.8,1.2-8.2,1.9-13.2c2-14.2,4.3-30,6.9-47c7.3-48.6,15.2-97.2,23.2-142.6c1.5-8.7,3.1-17.2,4.6-25.5
		c18.7-101.3,11.4-150.1-28.7-238.9c-1.5-3.3-4.8-5.5-8.5-5.5h-46.7C219.2,46.6,215,50.8,215,56L215,56z M289.8,287.6
		c-1.5,8.4-3.1,16.9-4.6,25.7c-8.1,45.5-16,94.3-23.3,143.1c-2.6,17.1-4.9,32.9-6.9,47.1c-0.7,5-1.3,9.4-1.9,13.2
		c-0.9,1-1.9,1.6-2.9,2.3c-5.3,3.1-11.5,6.1-18.8,9c-20.8,8.3-45,13.3-72.4,13.3s-51.6-5-72.4-13.3c-7.2-2.9-13.5-6-18.8-9
		c-1.1-0.6-2.1-1.2-2.9-1.7c-0.6-4.4-1.2-8.8-1.9-13.8c-2-14.2-4.4-30.1-6.9-47.1c-7.3-48.8-15.2-97.5-23.3-143.1
		c-1.6-8.8-3.1-17.3-4.6-25.7C10.6,192.3,16.7,147.3,53.1,65.3h31.3c0,5.2,4.2,9.3,9.3,9.3H131c5.2,0,9.3-4.2,9.3-9.3h37.3
		c0,5.2,4.2,9.3,9.3,9.3h37.3c5.2,0,9.3-4.2,9.3-9.3h31.3C301.3,147.3,307.4,192.3,289.8,287.6L289.8,287.6z"/>
	<path class="st0" d="M215,317.3c0-36.1-29.2-65.3-65.3-65.3s-65.3,29.2-65.3,65.3s29.2,65.3,65.3,65.3S215,353.4,215,317.3z
		 M196.3,317.3c0,25.8-20.9,46.7-46.7,46.7c-25.8,0-46.7-20.9-46.7-46.7c0-25.8,20.9-46.7,46.7-46.7
		C175.4,270.6,196.3,291.5,196.3,317.3z"/>
	<path class="st0" d="M233.7,205.3c0,36.1,29.2,65.3,65.3,65.3c1.6,0,3-0.1,5.3-0.3c4.4-0.4,7.9-3.7,8.5-8
		c6.5-45.3,6.3-81.1-0.1-114.6c-0.8-4.1-4.2-7.2-8.4-7.5c-2.3-0.2-3.7-0.3-5.3-0.3C262.9,140,233.7,169.2,233.7,205.3L233.7,205.3z
		 M295.4,251.8c-24.1-1.8-43.1-22-43.1-46.5c0-24.7,19.1-44.9,43.4-46.6C300.1,186.1,300.1,215.5,295.4,251.8L295.4,251.8z"/>
	<path class="st0" d="M290.2,336.7c-3.6-0.5-6.7-0.7-9.9-0.7c-41.2,0-74.7,33.4-74.7,74.7c0,36.2,26,67,61.2,73.4
		c5.2,0.9,10.1-2.6,10.9-7.8c6.2-42,13.1-86.1,20.4-128.7C299.1,342.3,295.4,337.4,290.2,336.7L290.2,336.7z M260.9,463.1
		c-21.5-8-36.5-28.7-36.5-52.5c0-30.2,23.8-54.7,53.7-56C272,390.7,266.2,427.5,260.9,463.1L260.9,463.1z"/>
	<path class="st0" d="M50.8,530.1c5.3,4,15.1,9.6,29,15.2c9.6,3.8,20,7.1,31.2,9.5c4,0.9,8.1-0.9,10.1-4.5c6.4-11.2,9.9-23.9,9.9-37
		c0-41.2-33.4-74.7-74.7-74.7c-4,0-8,0.4-12.3,1.1c-5,0.8-8.5,5.6-7.7,10.6c2.9,19.1,5.5,37,7.9,53.2c0.8,5.7,1.5,10.7,2.1,15
		c0.4,2.6,0.6,4.4,0.7,5.3C47.4,526.4,48.7,528.6,50.8,530.1L50.8,530.1z M64.8,516c-0.6-4.4-1.3-9.4-2.1-15.1
		c-1.9-13.4-4.1-28.1-6.4-43.6c31,0,56.1,25.1,56.1,56c0,7.5-1.5,14.8-4.4,21.6c-7.5-2-14.6-4.3-21.3-6.9c-7.2-2.9-13.5-6-18.8-9
		c-1.1-0.6-2.1-1.2-2.9-1.7C64.9,516.8,64.9,516.4,64.8,516L64.8,516z"/>
	<path class="st0" d="M0.4,198.6c-0.2,26.7,2.8,56.5,9.4,92.4c1.8,9.8,3.5,19.1,5.1,28.2c1.1,6.4,8.3,9.7,13.9,6.4
		c22.6-13.3,36.8-37.6,36.8-64.3c0-33.2-21.9-62.1-53.3-71.5C6.4,188,0.4,192.4,0.4,198.6L0.4,198.6z M47,261.3
		c0,15.2-6.1,29.2-16.4,39.5c-0.8-4.3-1.6-8.7-2.4-13.2c-5.3-28.4-8.2-52.8-8.9-74.6C36.1,222.8,47,241,47,261.3L47,261.3z"/>
	<path class="st0" d="M121.7,56H103c0-5.2-4.2-9.3-9.3-9.3H47c-3.7,0-7,2.1-8.5,5.5c-18.1,40.2-27.6,66.6-33.2,95.4
		c-0.5,2.4,0,4.9,1.4,7c17.2,25.7,46.1,41.5,77.6,41.5c51.5,0,93.3-41.8,93.3-93.3c0-18.7-5.5-36.6-15.8-51.9
		c-1.7-2.6-4.6-4.1-7.8-4.1h-23C125.8,46.6,121.7,50.8,121.7,56L121.7,56z M159,102.6c0,41.2-33.4,74.7-74.7,74.7
		c-23.9,0-45.9-11.4-59.9-30.1c5.1-24.3,13.4-47.8,28.6-81.9h31.3c0,5.2,4.2,9.3,9.3,9.3H131c5.2,0,9.3-4.2,9.3-9.3h8.7
		C155.5,76.5,159,89.3,159,102.6L159,102.6z"/>
</g>
</svg>
