<?xml version="1.0" encoding="utf-8"?>
<!-- Generator: Adobe Illustrator 26.0.0, SVG Export Plug-In . SVG Version: 6.00 Build 0)  -->
<svg version="1.1" id="katman_1" xmlns="http://www.w3.org/2000/svg" xmlns:xlink="http://www.w3.org/1999/xlink" x="0px" y="0px"
	 viewBox="0 0 57 57" style="enable-background:new 0 0 57 57;" xml:space="preserve">
<g id="Layer_4">
	<path d="M57,46.5C54.3,35.1,50.6,24,46,13.2c-1.7-3.1-3.6-6.2-3.7-9.8c0.6-2.2-2.5-3-13.8-3.4C17.2,0.5,14.2,1.3,14.7,3.4
		c-0.1,4.2-2.8,7.7-4.4,11.5C6,25.2,2.6,35.7,0,46.5c0,0.2,0,0.4,0.2,0.5c1.8,1.6,4.1,2.5,6.5,2.8c-0.4,1.3-0.8,3.2,1.1,4
		c1.7,0.6,3.4,0.8,5.2,0.5l0,0c0.1,0,0.1,0,0.2,0c0.7-0.1,1.3-0.2,1.9-0.4c-0.2,0.6,0,1.3,0.4,1.8c0.7,0.8,2.8,1,5.3,0.2h0.1
		c0.1,0,0.3,0,0.4-0.1l0,0c0.7-0.7,1.9-1.4,3.9,0.1c0.4,0.7,1.2,1.2,2,1.1c0.5,0,1-0.1,1.4-0.2c0.4,0.1,0.9,0.2,1.4,0.2
		c0.8,0,1.6-0.4,2-1.1c2-1.5,3.2-0.8,3.9-0.1l0,0c0.1,0.1,0.2,0.1,0.4,0.1l0,0c2.5,0.8,4.6,0.6,5.3-0.2c0.4-0.5,0.5-1.2,0.4-1.8
		c0.6,0.2,1.3,0.3,1.9,0.4h0.2l0,0c2.3,0.3,4.6-0.1,6.6-1.2c0.2-0.1,0.3-0.3,0.3-0.5c-0.1-1-0.3-1.9-0.6-2.8
		c2.4-0.3,4.7-1.3,6.5-2.8C56.9,47,57,46.8,57,46.5z M28.8,8.5c-0.2,0-0.3,0-0.5,0C21.9,9.1,17.5,8.7,15,7.4
		c0.4-1.1,0.6-2.3,0.7-3.5c4.2,1.3,8.5,1.7,12.9,1c4.3,0.6,8.7,0.3,12.9-1c0.1,1.2,0.3,2.4,0.7,3.5C39.5,8.8,35.1,9.2,28.8,8.5
		L28.8,8.5z M28.5,1c10.8,0.3,12.6,1.4,12.9,1.9l0,0C37.2,4.3,32.8,4.6,28.5,4c-4.3,0.7-8.7,0.3-12.9-1l0,0
		C15.9,2.5,17.7,1.4,28.5,1z M50.1,48.9c-0.7-11.3-2.2-22.5-4.5-33.6c-0.1-0.3-0.3-0.5-0.6-0.4s-0.5,0.3-0.4,0.6l0,0
		c2.3,11.2,3.8,22.6,4.5,34c0.3,1,0.5,2,0.7,3c-1.7,0.8-3.6,1.1-5.4,0.9c-0.8-10.5-0.9-21-0.4-31.5c0-0.3-0.2-0.5-0.5-0.5
		c-0.3,0-0.5,0.2-0.5,0.5c-0.5,10.5-0.3,21,0.4,31.4c-0.6-0.1-1.2-0.3-1.8-0.5c-1.5-22.4-2.2-35.6-2.2-39.4c0-0.3-0.2-0.5-0.5-0.5
		s-0.5,0.2-0.5,0.5c0,3.8,0.7,17.1,2.2,39.7l0,0c0.8,2.3-0.1,2.7-4,1.9c-0.5-12.3-0.3-24.7,0.8-37c0-0.3-0.2-0.5-0.4-0.5
		c0,0,0,0,0,0c-0.3,0-0.5,0.2-0.5,0.5c-1,12.1-1.3,24.3-0.8,36.5c-1.1-0.6-2.4-0.5-3.5,0.1c2.1-17.6,3.2-34,0.2-35
		c-0.3,0.1-0.4,0.4-0.3,0.7c1.7,4.1,1.3,15.9-1.1,35.3c-0.2,0.3-0.6,0.9-2.4,0.4h-0.3c-1.8,0.5-2.2-0.1-2.4-0.4
		c-2.4-19.3-2.8-31.2-1.1-35.3c0.1-0.3,0-0.5-0.3-0.7c0,0,0,0,0,0c-2.9,1.1-1.9,17.4,0.2,35c-1.1-0.6-2.4-0.7-3.5-0.1
		c0.5-12.2,0.2-24.4-0.8-36.5c0-0.3-0.3-0.5-0.5-0.5c-0.3,0-0.5,0.3-0.5,0.5c1.1,12.3,1.3,24.7,0.8,37c-3.7,0.8-4.9,0.5-4.1-1.6l0,0
		c0-0.1,0-0.1,0-0.2c1.5-22.6,2.2-36,2.2-39.8c0-0.3-0.2-0.5-0.5-0.5s-0.5,0.2-0.5,0.5c0,3.8-0.7,17-2.2,39.4
		c-0.6,0.2-1.2,0.3-1.8,0.5c0.7-10.5,0.9-21,0.4-31.4c0-0.3-0.2-0.5-0.5-0.5s-0.5,0.2-0.5,0.5c0.5,10.5,0.3,21-0.4,31.5
		c-1.5,0.2-3,0-4.4-0.5c-1.1-0.4-1-1.4-0.4-3.3c0.7-11.5,2.2-22.9,4.5-34.1c0.1-0.3-0.1-0.5-0.4-0.6s-0.5,0.1-0.6,0.4
		C9,26.4,7.6,37.6,6.8,48.9c-2.1-0.2-4.1-1.1-5.8-2.4C4.4,32.9,8.4,20.4,14.6,8.4c3.1,1.6,9.4,1.6,13.9,1.1C33,10,39.3,10,42.4,8.4
		c0.8,1.8,1.7,3.6,2.7,5.3c4.6,10.6,8.2,21.6,10.8,32.9C54.3,47.8,52.3,48.7,50.1,48.9z"/>
</g>
</svg>
