<?xml version="1.0" encoding="utf-8"?>
<!-- Generator: Adobe Illustrator 26.0.0, SVG Export Plug-In . SVG Version: 6.00 Build 0)  -->
<svg version="1.1" id="katman_1" xmlns="http://www.w3.org/2000/svg" xmlns:xlink="http://www.w3.org/1999/xlink" x="0px" y="0px"
	 viewBox="0 0 280 560" style="enable-background:new 0 0 280 560;" xml:space="preserve">
<style type="text/css">
	.st0{fill-rule:evenodd;clip-rule:evenodd;}
</style>
<g>
	<path class="st0" d="M102.7,74.6h74.7c5.2,0,9.3-4.2,9.3-9.3v-56c0-5.2-4.2-9.3-9.3-9.3h-74.7c-5.2,0-9.3,4.2-9.3,9.3v56
		C93.3,70.5,97.5,74.6,102.7,74.6z M112,18.6h56V56h-56V18.6z"/>
	<path class="st0" d="M46.7,65.3h56c5.2,0,9.3-4.2,9.3-9.3V18.6c0-5.2-4.2-9.3-9.3-9.3h-56c-5.2,0-9.3,4.2-9.3,9.3V56
		C37.3,61.1,41.5,65.3,46.7,65.3z M56,46.6V28h37.3v18.7H56V46.6z"/>
	<path class="st0" d="M177.3,65.3h56c5.2,0,9.3-4.2,9.3-9.3V18.6c0-5.2-4.2-9.3-9.3-9.3h-56c-5.2,0-9.3,4.2-9.3,9.3V56
		C168,61.1,172.2,65.3,177.3,65.3z M186.7,28H224v18.7h-37.3V28z"/>
	<path class="st0" d="M112,56c0-5.2-4.2-9.3-9.3-9.3h-56c-2.5,0-4.9,1-6.6,2.7C24.1,65.3,0,137.7,0,186.6c0,22.9,4,62.4,12.6,131.5
		c0.5,3.8,1,7.7,1.5,12C26.2,427,28,442.8,28,457.3v65.3c0,2.9,1.4,5.7,3.7,7.5c5.3,4,15,9.6,29,15.2c22.9,9.2,49.5,14.7,79.3,14.7
		s56.4-5.5,79.3-14.7c13.9-5.6,23.7-11.2,29-15.2c2.4-1.8,3.7-4.5,3.7-7.5v-65.3c0-14.5,1.8-30.3,13.9-127.2c0.5-4.3,1-8.3,1.5-12
		C276,249,280,209.6,280,186.6c0-49-24.1-121.3-40.1-137.3c-1.8-1.8-4.1-2.7-6.6-2.7h-56c-5.2,0-9.3,4.2-9.3,9.3L112,56z
		 M261.3,186.6c0,21.8-4,61-12.4,129.2c-0.5,3.8-1,7.7-1.5,12c-12.4,99.1-14.1,113.7-14.1,129.5v60.3c-0.7,0.4-1.4,0.8-2.2,1.3
		c-5.3,3.1-11.5,6.1-18.8,9c-20.8,8.3-45,13.3-72.4,13.3s-51.6-5-72.4-13.3c-7.2-2.9-13.5-6-18.8-9c-0.8-0.5-1.5-0.9-2.2-1.3v-60.3
		c0-15.8-1.7-30.4-14.1-129.5c-0.5-4.3-1-8.2-1.5-12c-8.4-68.1-12.4-107.3-12.4-129.2c0-41.7,19.9-104,32.3-121.3h42.3
		c0,5.2,4.2,9.3,9.3,9.3h74.7c5.2,0,9.3-4.2,9.3-9.3H229C241.4,82.6,261.3,144.9,261.3,186.6L261.3,186.6z"/>
	<path class="st0" d="M213.7,539.8l-17.7-186c-1.1-11.3-17.5-11.3-18.6,0l-18.5,194.1c-0.6,6,4.5,10.9,10.5,10.1
		c13.5-1.8,26.2-4.6,37.9-8.4C211.4,548.2,214.1,544.2,213.7,539.8L213.7,539.8z M178.6,537.7l8.1-84.6l7.7,80.9
		C189.3,535.4,184.1,536.6,178.6,537.7L178.6,537.7z"/>
	<path class="st0" d="M121.1,547.9l-18.5-194.1c-1.1-11.3-17.5-11.3-18.6,0L66.3,539.9c-0.4,4.4,2.2,8.4,6.4,9.8
		c11.7,3.8,24.4,6.7,37.9,8.4C116.6,558.8,121.7,553.9,121.1,547.9L121.1,547.9z M85.6,534l7.7-80.9l8.1,84.6
		C95.9,536.6,90.7,535.4,85.6,534L85.6,534z"/>
</g>
</svg>
