<?xml version="1.0" encoding="utf-8"?>
<!-- Generator: Adobe Illustrator 26.0.0, SVG Export Plug-In . SVG Version: 6.00 Build 0)  -->
<svg version="1.1" id="katman_1" xmlns="http://www.w3.org/2000/svg" xmlns:xlink="http://www.w3.org/1999/xlink" x="0px" y="0px"
	 viewBox="0 0 699.8 455" style="enable-background:new 0 0 699.8 455;" xml:space="preserve">
<style type="text/css">
	.st0{fill-rule:evenodd;clip-rule:evenodd;}
</style>
<g>
	<path class="st0" d="M146.5,394.8c44-29.3,86.9-91.7,86.9-138c0-6.4-5.2-11.7-11.7-11.7c-6.4,0-11.7,5.2-11.7,11.7
		c0,37.4-38.4,93.2-76.5,118.6c-5.4,3.6-6.8,10.8-3.2,16.2C133.9,396.9,141.1,398.4,146.5,394.8L146.5,394.8z"/>
	<path class="st0" d="M566.5,375.4C528.4,350,490,294.2,490,256.8c0-6.4-5.2-11.7-11.7-11.7c-6.4,0-11.7,5.2-11.7,11.7
		c0,46.4,42.9,108.7,86.9,138c5.4,3.6,12.6,2.1,16.2-3.2C573.3,386.2,571.8,379,566.5,375.4L566.5,375.4z"/>
	<path class="st0" d="M314.6,422.9c0.7-2.8,1.4-5.5,2.3-8.7c0.1-0.5,3.6-12.4,4.5-15.9c3.5-13.1,5.2-23.7,5.2-36.6
		c0-6.4-5.2-11.7-11.7-11.7s-11.7,5.2-11.7,11.7c0,10.6-1.3,19.2-4.4,30.6c-0.9,3.2-4.2,14.9-4.4,15.6c-0.9,3.4-1.7,6.4-2.5,9.4
		c-1.6,6.2,2.2,12.6,8.5,14.1C306.8,433,313.1,429.2,314.6,422.9L314.6,422.9z"/>
	<path class="st0" d="M408,417.3c-0.8-3-1.6-6-2.5-9.4c-0.2-0.7-3.6-12.4-4.4-15.6c-3-11.3-4.4-19.9-4.4-30.6
		c0-6.4-5.2-11.7-11.7-11.7s-11.7,5.2-11.7,11.7c0,12.9,1.7,23.5,5.2,36.6c0.9,3.5,4.4,15.3,4.5,15.9c0.9,3.2,1.6,5.9,2.3,8.7
		c1.6,6.2,7.9,10.1,14.1,8.5C405.7,429.8,409.5,423.5,408,417.3L408,417.3z"/>
	<path class="st0" d="M361.7,70.1h-23.3c-12.9,0-23.3-10.4-23.3-23.3s10.4-23.3,23.3-23.3h23.3c12.9,0,23.3,10.4,23.3,23.3
		C385,59.6,374.6,70.1,361.7,70.1z M361.7,93.4c25.8,0,46.7-20.9,46.7-46.7S387.5,0,361.7,0h-23.3c-25.8,0-46.7,20.9-46.7,46.7
		s20.9,46.7,46.7,46.7H361.7z"/>
	<path class="st0" d="M315,46.7c0-5.8,2.2-11.2,6.1-15.5c6.8-7.5,1.4-19.5-8.7-19.5H198.3c-6.4,0-11.7,5.2-11.7,11.7v46.7
		c0,6.4,5.2,11.7,11.7,11.7h114.1c10.1,0,15.4-12,8.7-19.5C317.2,57.9,315,52.5,315,46.7z M210,58.4V35.1h83.2
		c-1,3.8-1.5,7.7-1.5,11.7s0.5,7.9,1.5,11.7L210,58.4L210,58.4z"/>
	<path class="st0" d="M378.9,31.2c3.9,4.4,6.1,9.8,6.1,15.5s-2.2,11.2-6.1,15.5c-6.8,7.5-1.4,19.5,8.7,19.5h114.1
		c6.4,0,11.7-5.2,11.7-11.7V23.4c0-6.4-5.2-11.7-11.7-11.7H387.6C377.5,11.8,372.1,23.7,378.9,31.2z M490,35.1v23.3h-83.2
		c1-3.8,1.5-7.7,1.5-11.7s-0.5-7.9-1.5-11.7L490,35.1L490,35.1z"/>
	<path class="st0" d="M138.5,400.6c5.7,6.2,11.9,11.8,19.2,17.2c35.2,25.9,81.7,34.4,141.1,16c2,2.3,4.5,4.7,7.4,7
		c11.1,8.9,25.7,14.2,43.7,14.2s32.6-5.3,43.7-14.2c2.9-2.4,5.4-4.7,7.4-7c59.5,18.4,105.9,10,141.1-16c7.3-5.4,13.4-11,19.2-17.2
		c0.4-0.4,0.8-0.9,1.2-1.3c37.3,16.6,71.2,11.3,99.5-9.9c20.2-15.1,38.1-40.9,37.8-51.3c-0.1-3.6-1.8-6.9-4.7-9
		c-35.7-26.8-70.5-67.9-104.3-120.1c-17-26.2-33-54.1-48.7-84.1c-5.9-11.2-11.5-22.2-17.6-34.5c-2.3-4.6-10.8-21.9-12.6-25.4
		c-2-4-6-6.4-10.4-6.4H387.6c-3.3,0-6.5,1.4-8.7,3.9c-4.5,5-10.6,7.8-17.2,7.8h-23.3c-6.6,0-12.8-2.8-17.2-7.8
		c-2.2-2.5-5.4-3.9-8.7-3.9H198.3c-4.4,0-8.5,2.5-10.4,6.4c-1.8,3.6-10.3,20.8-12.6,25.4c-6.1,12.3-11.7,23.3-17.6,34.5
		c-15.8,30-31.8,57.9-48.7,84.1C75.2,261.2,40.3,302.3,4.7,329.1c-2.9,2.1-4.6,5.5-4.7,9c-0.3,10.4,17.7,36.2,37.8,51.3
		c28.3,21.2,62.2,26.5,99.5,9.9C137.7,399.8,138.1,400.2,138.5,400.6L138.5,400.6z M503.8,100.7c6.2,12.4,11.8,23.6,17.8,35
		c16.1,30.6,32.4,59.1,49.8,86c32.9,50.9,67,91.8,102.5,120.4c-1,1.7-2.2,3.6-3.6,5.5c-6,8.6-13.5,16.7-22.2,23.2
		c-23.4,17.5-50.6,20.8-82.8,4c-2.9-1.5-6.3-1.7-9.4-0.6c-2.5,0.9-18.8,18.4-27.6,25c-30.7,22.6-71.9,29.3-128,10
		c-5.5-1.9-11.6,0.6-14.2,5.8c-0.8,1.5-3,4.6-7.1,7.8c-7.1,5.7-16.6,9.1-29.2,9.1s-22.1-3.4-29.2-9.1c-4-3.2-6.3-6.3-7.1-7.8
		c-2.6-5.2-8.7-7.7-14.2-5.8c-56.1,19.3-97.3,12.7-128-10c-8.8-6.5-25.1-24.1-27.6-25c-3.1-1.1-6.5-0.9-9.4,0.6
		c-32.1,16.8-59.4,13.6-82.8-4c-8.7-6.5-16.2-14.7-22.2-23.2c-1.3-1.9-2.5-3.8-3.6-5.5c35.9-28.6,70-69.6,102.9-120.5
		c17.4-26.9,33.7-55.4,49.8-86c6-11.4,11.6-22.5,17.8-35c1.6-3.2,6.1-12.4,9.3-18.9h102.1c8.4,7.4,19.2,11.7,30.7,11.7h23.3
		c11.5,0,22.3-4.2,30.7-11.7h102.1C497.6,88.3,502.2,97.4,503.8,100.7L503.8,100.7z"/>
</g>
</svg>
