<?xml version="1.0" encoding="utf-8"?>
<!-- Generator: Adobe Illustrator 26.0.0, SVG Export Plug-In . SVG Version: 6.00 Build 0)  -->
<svg version="1.1" id="katman_1" xmlns="http://www.w3.org/2000/svg" xmlns:xlink="http://www.w3.org/1999/xlink" x="0px" y="0px"
	 viewBox="0 0 317.5 560" style="enable-background:new 0 0 317.5 560;" xml:space="preserve">
<style type="text/css">
	.st0{fill-rule:evenodd;clip-rule:evenodd;}
</style>
<g>
	<path class="st0" d="M112.1,18.6v60.3l-65.3-29V18.6H112.1z M37.5,0c-5.2,0-9.3,4.2-9.3,9.3V56c0,3.7,2.2,7,5.5,8.5l84,37.3
		c6.2,2.7,13.1-1.8,13.1-8.5v-84c0-5.2-4.2-9.3-9.3-9.3L37.5,0z"/>
	<path class="st0" d="M280.1,0h-84c-5.2,0-9.3,4.2-9.3,9.3v84c0,6.8,7,11.3,13.1,8.5l84-37.3c3.4-1.5,5.5-4.8,5.5-8.5V9.3
		C289.5,4.1,285.3,0,280.1,0L280.1,0z M270.8,49.9l-65.3,29V18.6h65.3V49.9z"/>
	<path class="st0" d="M270.8,18.6V56c0,1.4,0.3,2.9,1,4.2c17.6,35.1,28.4,75.5,27,130.9l-18.3,333.1c-2.6,0.5-5.4,1-8.3,1.5
		c-11.9,2.2-24.3,4.4-36.5,6.4c-6.1,1-12,2-17.7,2.8c-27.4,4.2-48.2,6.6-59,6.4c-11.1,0.2-31.9-2.1-59.3-6.4
		c-5.7-0.9-11.6-1.8-17.7-2.8c-12.3-2-24.7-4.2-36.5-6.4c-3-0.5-5.8-1.1-8.3-1.5L18.8,190.8c-1.4-55.1,9.5-95.5,27-130.6
		c0.6-1.3,1-2.7,1-4.2V18.6H270.8z M0.1,191.5l18.7,341c0.2,4.3,3.3,7.8,7.5,8.7c0.8,0.1,2.2,0.4,4.2,0.8c3.4,0.6,7.2,1.4,11.4,2.1
		c12,2.2,24.5,4.4,36.9,6.4c6.2,1,12.2,2,17.9,2.9c28.5,4.4,50,6.8,62.2,6.6c11.9,0.2,33.3-2.2,61.8-6.6c5.8-0.9,11.8-1.9,17.9-2.9
		c12.4-2.1,24.9-4.2,36.9-6.4c4.2-0.8,8-1.5,11.4-2.1c2-0.4,3.5-0.7,4.2-0.8c4.2-0.8,7.3-4.4,7.5-8.7l18.7-340.7
		c1.4-58-9.7-100.8-28-138V9.3c0-5.2-4.2-9.3-9.3-9.3H37.5c-5.2,0-9.3,4.2-9.3,9.3v44.5C9.9,91-1.3,133.8,0.1,191.5L0.1,191.5z"/>
	<path class="st0" d="M112.1,18.6v60.3l-65.3-29V18.6H112.1z M37.5,0c-5.2,0-9.3,4.2-9.3,9.3V56c0,3.7,2.2,7,5.5,8.5l84,37.3
		c6.2,2.7,13.1-1.8,13.1-8.5v-84c0-5.2-4.2-9.3-9.3-9.3L37.5,0z"/>
	<path class="st0" d="M92.2,70.1L41.3,47.5c-4.6-2-9.9-0.1-12.1,4.4c-18.8,37.7-30.4,81-29,139.7l18.7,341c0.2,4.3,3.3,7.8,7.5,8.7
		c0.8,0.1,2.2,0.4,4.2,0.8c3.4,0.6,7.2,1.4,11.4,2.1c12,2.2,24.4,4.4,36.8,6.4c6.2,1,12.2,2,18,2.9c2.6,0.4,5.1,0.8,7.6,1.2
		c6.4,0.9,11.8-4.8,10.5-11.1c-34.3-165-41.1-385.9-17.6-462.3C98.7,76.8,96.5,72,92.2,70.1L92.2,70.1z M94,534c-4-0.6-8-1.3-12.1-2
		c-12.3-2-24.6-4.2-36.5-6.4c-3-0.5-5.7-1.1-8.3-1.5L18.8,190.8c-1.2-51,7.9-89.3,23.2-122.6l35.2,15.7
		C55.9,167.6,62.5,373.4,94,534L94,534z"/>
	<path class="st0" d="M275.6,68.2c15.3,33.3,24.4,71.6,23.2,122.9l-18.3,333.1c-2.6,0.5-5.3,1-8.3,1.5c-11.9,2.2-24.2,4.4-36.5,6.4
		c-4.1,0.7-8.2,1.3-12.1,2c31.5-160.6,38.1-366.5,16.8-450.2L275.6,68.2z M225.4,70.1c-4.3,1.9-6.5,6.8-5.1,11.3
		c23.4,76.4,16.7,297.2-17.6,462.1c-1.3,6.4,4.1,12.1,10.5,11.1c2.5-0.4,5-0.8,7.6-1.2c5.8-0.9,11.8-1.9,18-2.9
		c12.4-2.1,24.9-4.2,36.8-6.4c4.2-0.8,8-1.5,11.4-2.1c2-0.4,3.5-0.7,4.2-0.8c4.2-0.8,7.3-4.4,7.5-8.7l18.7-340.7
		c1.5-59-10.1-102.3-29-140c-2.2-4.5-7.6-6.4-12.1-4.4L225.4,70.1z"/>
	<path class="st0" d="M168.1,550.6V429.3c0-5.2-4.2-9.3-9.3-9.3s-9.3,4.2-9.3,9.3v121.3c0,5.2,4.2,9.3,9.3,9.3
		S168.1,555.8,168.1,550.6z"/>
</g>
</svg>
