<?xml version="1.0" encoding="utf-8"?>
<!-- Generator: Adobe Illustrator 26.0.0, SVG Export Plug-In . SVG Version: 6.00 Build 0)  -->
<svg version="1.1" id="katman_1" xmlns="http://www.w3.org/2000/svg" xmlns:xlink="http://www.w3.org/1999/xlink" x="0px" y="0px"
	 viewBox="0 0 522.7 560.1" style="enable-background:new 0 0 522.7 560.1;" xml:space="preserve">
<style type="text/css">
	.st0{fill-rule:evenodd;clip-rule:evenodd;}
</style>
<g>
	<path class="st0" d="M202.2,560c24,0,44.3-7.8,59.1-22.9c15.1,15,37,22.9,61.4,22.9c24.1,0,45-7.8,59.9-22.9
		c15,15,36.4,22.9,60.6,22.9c2.5,0,5-0.1,7.6-0.3c52.2-4.7,84.9-60.3,66.8-110.5l-29-69.7c-3.2-7.7-14.2-7.6-17.3,0.2
		c-3.9,9.9-10,18.4-18.1,24.9c-12.4,9.9-28.1,15.5-44.7,15.5c-29.9,0-54.3-15.7-63.9-40.7c-3.1-8-14.3-8-17.4,0
		c-9.5,24.6-35.4,40.7-65.8,40.7s-56.7-16.2-66.2-40.7c-3.1-8-14.3-8-17.4,0c-9.7,25.1-33.8,40.7-63.5,40.7
		c-22.8,0-43.8-10.5-56.6-27.9c-2.7-3.6-4.9-7.6-6.7-11.9c-3.2-7.8-14.2-7.7-17.3,0.1l-30.4,76l-0.3,1c-6.3,23.4-2.8,48.1,10.4,67
		c15.5,22.2,40.8,35.7,68.3,35.7c23.8,0,43.6-7.7,58.3-22.9C155.3,552,177.6,560,202.2,560L202.2,560z M449,541
		c-2,0.2-3.9,0.3-5.9,0.3c-23,0-41.9-8.5-53-24.1c-3.7-5.2-11.5-5.2-15.2,0c-11.2,15.8-29.5,24.1-52.3,24.1
		c-23.2,0-42.8-8.6-53.8-24.1c-3.7-5.2-11.5-5.2-15.2,0c-11.3,15.9-28.9,24.1-51.4,24.1c-23.4,0-43.8-8.7-54.7-24.1
		c-3.7-5.2-11.5-5.2-15.2,0c-11.4,16.1-28.3,24.1-50.6,24.1c-21.3,0-40.9-10.5-53-27.7c-9.8-14.1-12.6-32.8-7.9-50.9l23.1-57.8
		c16.5,21.1,42.3,33.8,70.4,33.8c30.5,0,56.9-13.5,72.3-36.2c15.9,22.5,43.9,36.2,74.7,36.2c30.8,0,58.5-13.7,74.4-36.2
		c15.5,22.7,42.1,36.2,72.7,36.2c20.9,0,40.7-7,56.4-19.6c5.3-4.2,9.9-9.1,13.9-14.5l21.3,51.2C514,494.6,488.6,537.4,449,541
		L449,541z"/>
	<path class="st0" d="M473.4,226.6c-1.7-9.9-15.6-10.5-18.2-0.9c-3,11.1-9.3,20.8-18.3,27.8c-11.2,8.7-25.5,13.6-40.6,13.6
		c-28.6,0-52.8-13.4-61-34c-3.1-7.8-14.2-7.8-17.3,0c-8.6,21.5-29,34-56.5,34c-27.6,0-48.3-12.5-56.8-34c-3.1-7.8-14.2-7.8-17.3,0
		c-8.3,20.7-32.1,34-60.7,34c-20.8,0-39.7-9.3-51.4-24.5c-3.7-4.8-6.4-10.3-8-16.4c-2.7-9.6-16.5-8.9-18.2,0.9L30,338.4
		c-5.1,22.7-0.7,46.4,12.8,64.6c16.4,22.1,42.9,35.4,71.6,35.4c30.5,0,56.9-13.5,72.3-36.2c15.9,22.5,43.9,36.2,74.7,36.2
		c30.8,0,58.5-13.7,74.4-36.2c15.5,22.7,42.1,36.2,72.7,36.2c20.9,0,40.7-7,56.4-19.6c24.3-19.5,34.6-51.5,27.5-82.3L473.4,226.6z
		 M126.5,285.9c28.6,0,54.3-11.1,69.1-30.3c14.1,19.4,37.6,30.3,65.7,30.3c28,0,51.3-10.9,65.4-30.3c14.9,19.1,40.8,30.3,69.5,30.3
		c19.3,0,37.6-6.3,52.1-17.6c4.3-3.3,8.1-7.1,11.4-11.2l14.3,83l0.1,0.5c5.6,24-2.3,48.8-20.9,63.7c-12.4,9.9-28.1,15.5-44.7,15.5
		c-29.9,0-54.3-15.7-63.9-40.7c-3.1-7.9-14.3-7.9-17.4,0c-9.5,24.6-35.4,40.7-65.8,40.7s-56.7-16.2-66.2-40.7
		c-3.1-7.9-14.3-7.9-17.4,0c-9.7,25.1-33.8,40.7-63.5,40.7c-22.8,0-43.8-10.5-56.6-27.9C47.5,378.2,44.2,360,48.2,342l14.6-85.1
		C78,275.2,101.4,285.9,126.5,285.9L126.5,285.9z"/>
	<path class="st0" d="M77.3,81.2l28,28c3.6,3.6,9.6,3.6,13.2,0c3.6-3.6,3.6-9.6,0-13.2l-28-28c-3.6-3.6-9.6-3.6-13.2,0
		C73.6,71.7,73.6,77.6,77.3,81.2z"/>
	<path class="st0" d="M431.9,68l-28,28c-3.6,3.6-3.6,9.6,0,13.2s9.6,3.6,13.2,0l28-28c3.6-3.6,3.6-9.6,0-13.2
		C441.5,64.4,435.6,64.4,431.9,68z"/>
	<path class="st0" d="M205.2,236.8v-37.3c0-5.2-4.2-9.3-9.3-9.3c-5.2,0-9.3,4.2-9.3,9.3v37.3c0,5.2,4.2,9.3,9.3,9.3
		S205.2,241.9,205.2,236.8z"/>
	<path class="st0" d="M195.9,382.6v-37.3c0-5.2-4.2-9.3-9.3-9.3c-5.2,0-9.3,4.2-9.3,9.3v37.3c0,5.2,4.2,9.3,9.3,9.3
		C191.7,392,195.9,387.8,195.9,382.6z"/>
	<path class="st0" d="M335.9,236.8v-37.3c0-5.2-4.2-9.3-9.3-9.3c-5.2,0-9.3,4.2-9.3,9.3v37.3c0,5.2,4.2,9.3,9.3,9.3
		S335.9,241.9,335.9,236.8z"/>
	<path class="st0" d="M345.2,382.6v-28c0-5.2-4.2-9.3-9.3-9.3c-5.2,0-9.3,4.2-9.3,9.3v28c0,5.2,4.2,9.3,9.3,9.3
		C341,392,345.2,387.8,345.2,382.6z"/>
	<path class="st0" d="M149.2,522.6v-28c0-5.2-4.2-9.3-9.3-9.3c-5.2,0-9.3,4.2-9.3,9.3v28c0,5.2,4.2,9.3,9.3,9.3
		C145,532,149.2,527.8,149.2,522.6z"/>
	<path class="st0" d="M270.5,522.6v-28c0-5.2-4.2-9.3-9.3-9.3s-9.3,4.2-9.3,9.3v28c0,5.2,4.2,9.3,9.3,9.3S270.5,527.8,270.5,522.6z"
		/>
	<path class="st0" d="M391.9,522.6v-28c0-5.2-4.2-9.3-9.3-9.3c-5.2,0-9.3,4.2-9.3,9.3v28c0,5.2,4.2,9.3,9.3,9.3
		C387.7,532,391.9,527.8,391.9,522.6z"/>
	<path class="st0" d="M298.5,56c0,20.6-16.7,37.3-37.3,37.3S223.9,76.6,223.9,56s16.7-37.3,37.3-37.3S298.5,35.4,298.5,56z
		 M317.2,56c0-30.9-25.1-56-56-56s-56,25-56,56c0,30.9,25.1,56,56,56S317.2,86.9,317.2,56z"/>
	<path class="st0" d="M298.5,56c0,5.2-1.1,10.2-3.2,14.9c-2.7,6.2,1.8,13.1,8.6,13.1h134.6c5.9,0,10.3-5.4,9.2-11.2l-9.3-46.7
		c-0.9-4.4-4.7-7.5-9.2-7.5H298.3c-7.7,0-12.1,8.8-7.4,15C295.8,40.2,298.5,47.9,298.5,56L298.5,56z M421.5,37.3l5.6,28H316.4
		c0.5-3.1,0.8-6.2,0.8-9.3c0-6.5-1.1-12.7-3.3-18.7L421.5,37.3z"/>
	<path class="st0" d="M223.9,56c0-8.1,2.7-15.8,7.7-22.4c4.6-6.1,0.3-15-7.4-15h-131c-4.4,0-8.3,3.1-9.2,7.5l-9.3,46.7
		C73.5,78.6,78,84,83.9,84h134.6c6.7,0,11.2-6.9,8.6-13.1C225,66.2,223.9,61.1,223.9,56L223.9,56z M95.3,65.3l5.6-28h107.6
		c-2.1,5.9-3.3,12.2-3.3,18.7c0,3.2,0.3,6.3,0.8,9.3H95.3z"/>
	<path class="st0" d="M447.7,72.7c-0.9-4.3-4.7-7.4-9.1-7.4H303.9c-3.7,0-7.1,2.2-8.6,5.6c-5.9,13.5-19.2,22.4-34.2,22.4
		c-15,0-28.3-8.9-34.2-22.4c-1.5-3.4-4.8-5.6-8.6-5.6H83.9c-4.4,0-8.2,3.1-9.1,7.4L48.5,195.4c-4.8,20.8-0.7,42.2,11.9,58.7
		c15.2,19.8,39.6,31.8,66.2,31.8c28.6,0,54.3-11.1,69.1-30.3c14.1,19.4,37.6,30.3,65.7,30.3c28,0,51.3-10.9,65.4-30.3
		c14.9,19.1,40.8,30.3,69.5,30.3c19.3,0,37.5-6.3,52.1-17.6c22.6-17.6,32.2-46.6,25.5-74.5L447.7,72.7z M91.4,84h121.3
		c9.9,17.1,28.1,28,48.4,28s38.6-10.9,48.4-28h121.4l24.6,114c5.1,21.1-2,42.7-18.8,55.7c-11.2,8.8-25.5,13.6-40.6,13.6
		c-28.6,0-52.8-13.4-61-34c-3.1-7.8-14.2-7.8-17.3,0c-8.6,21.5-29,34-56.5,34c-27.6,0-48.3-12.5-56.8-34c-3.1-7.8-14.2-7.8-17.3,0
		c-8.3,20.7-32.1,34-60.6,34c-20.8,0-39.8-9.3-51.4-24.5c-9.1-11.9-12.1-27.7-8.5-43.3L91.4,84z"/>
</g>
</svg>
