<svg xmlns="http://www.w3.org/2000/svg" viewBox="0 0 384 315.01"><g id="katman_2" data-name="katman 2"><g id="katman_1-2" data-name="katman 1"><path d="M0,246v-5.25a14.71,14.71,0,0,0,.7-2.06c2.8-15.47,5.08-31.05,8.44-46.39C21.07,137.71,43.31,87.87,78.44,44.08a9.31,9.31,0,0,0,1.76-4.37c1.54-10.62,2.9-21.27,4.41-31.9C85.5,1.56,88.68-.42,95.06.18c21.25,2,42.48,4.47,63.79,5.55A705.1,705.1,0,0,0,289.69.13c5.59-.75,8.86,1.71,9.65,7.3,1.3,9.15,2.39,18.32,3.78,27.45.47,3.13.7,6.86,2.52,9.14C346.9,95.55,369.57,155,380.3,219.45c1.18,7.11,2.46,14.2,3.7,21.3V246c-1.54,3.52-4.38,5.14-8,6-7.17,1.64-14.28,3.51-21.42,5.31l-37.06,9.33c.2,3.86.45,7.45.55,11.05.15,5.26-2,8-7.11,8.83-15.38,2.56-30.78,5-46.17,7.57-7.22,1.19-14.43,2.4-21.77,3.63,0,3.26,0,6.13,0,9-.11,5.38-3,8.3-8.44,8.31q-42.53,0-85.06,0c-5.6,0-8.38-3-8.45-8.68,0-2.83,0-5.67,0-8.48-1.23-.31-2.07-.58-2.92-.72q-32.32-5.31-64.64-10.58c-5.4-.88-7.64-3.45-7.5-8.86.1-3.7.34-7.39.52-11.14-19.6-4.91-38.81-9.79-58.07-14.5C4.67,251.12,1.59,249.7,0,246Zm142.21-.9c.12-1,.27-1.87.31-2.72q3.12-63.12,11.14-125.8c.69-5.42,3.92-8.39,8.51-7.84s7,4.46,6.37,9.74c-.64,5.08-1.35,10.15-1.92,15.24-4.36,38.75-7.89,77.57-9.33,116.56-.15,3.95-.37,7.91-.56,12h70.35c0-.73.13-1.22.11-1.71-1.33-22.83-2.23-45.7-4.13-68.48-2.07-24.77-5.09-49.45-7.68-74.18-.5-4.82,2.09-8.53,6.3-9.11,4.49-.62,8.1,2.29,8.59,7.3q5,51.85,9.82,103.72c.76,8.32,1.06,16.68,1.59,25.34l57.39-9.38a15,15,0,0,0,0-1.82c-3-22.16-7.06-44.13-13.13-65.68-2.1-7.45-4.48-14.81-6.68-22.22-.91-3.05-1-6.34,1.72-8.23a11.82,11.82,0,0,1,7.18-1.88c3.33.29,4.82,3.26,5.66,6.27,3.83,13.7,7.89,27.34,11.33,41.13,2.59,10.38,4.37,21,6.56,31.73l50.15-12.57c-1.17-5.07-2.22-9.79-3.36-14.49C346.79,139.65,326.68,95.31,295.87,56a5.14,5.14,0,0,0-5.27-2.28c-21,1.93-42,4.18-63.1,5.31-45,2.41-89.93.18-134.69-5.19a5.53,5.53,0,0,0-4.21,1.84c-3.84,4.76-7.5,9.68-11,14.68C51.77,107,35,147.64,24.73,191.09c-.87,3.7-1.65,7.44-2.52,11.36l50.22,12.6c1.42-7.42,2.41-14.49,4.14-21.36,4.34-17.17,9-34.26,13.58-51.37.88-3.29,2.54-6,6.28-6.67,6.22-1.09,10.26,4.25,8.08,10.93a463,463,0,0,0-16.38,66.47c-1.27,7.45-2.3,14.94-3.46,22.61ZM285.39,15.91a773,773,0,0,1-186.78,0c-1,7.74-2,15.21-3.09,23a775.81,775.81,0,0,0,193,0C287.43,31.1,286.43,23.62,285.39,15.91Zm-129,261.72v22.18h71.24V277.63Zm144.69-27-58.27,9.58v22.24l60-9.8C302.2,265.19,301.63,258.15,301,250.62ZM141.26,282.43V260.12l-58.32-9.51c-.59,7.65-1.14,14.77-1.7,22Zm223.52-65.21L313.72,230c.85,7.25,1.67,14.19,2.51,21.39l52-13ZM70.26,230,19.21,217.18C18,224.53,17,231.35,15.83,238.36l52,13C68.65,244.09,69.43,237.21,70.26,230Z"/></g></g></svg>