<svg xmlns="http://www.w3.org/2000/svg" viewBox="0 0 509.9 421.52"><g id="katman_2" data-name="katman 2"><g id="katman_1-2" data-name="katman 1"><path d="M0,313.57C5,296.75,10.1,280,15,263.1Q48.54,147.82,81.89,32.5c1.67-5.79,4.68-8.87,10.63-10.17,18.93-4.12,37.77-8.7,56.67-13,5.18-1.18,9.15,1.14,10.11,5.45s-1.62,8.06-6.82,9.21c-8.9,2-17.84,3.73-26.76,5.62-1.07.23-2.09.69-4.37,1.46,89.62,20.7,177.91,20.67,266.39-.74-6.69-1.47-13.35-3.1-20.07-4.41-50.6-9.82-101.59-13.43-153-9.43-10.09.78-20.16,1.83-30.22,2.85-5.48.56-9.43-1.9-10-6.49-.56-4.38,2.29-8.07,7.72-8.44,25.64-1.71,51.3-4.23,77-4.41C313.48-.36,366.81,8,419.15,22.74c4.64,1.31,7.16,3.82,8.53,8.53Q468.2,171.18,508.94,311c2.3,7.92.69,10.8-7.4,13.09-9.05,2.56-18.13,5-27.38,7.52,1.16,4.75,2.22,9.07,3.27,13.4,1.66,6.78.31,10-6.22,11.74-28.8,7.69-57.68,15.1-86.53,22.59-1.9.49-3.84.82-6.33,1.35,3.23,9.57-3.37,13.12-9.94,16.81-20.27,11.4-42.36,17.19-65.11,20.43-38.93,5.56-77.75,4.88-116.26-3.74-16.41-3.68-32.25-9-46.84-17.53-9-5.29-9.16-5.55-8.91-15.93-11-2.43-22.28-4.47-33.28-7.39-19.84-5.27-39.58-11-59.3-16.68-6.3-1.82-7.78-4.91-6.22-11.31,1.09-4.47,2.2-8.94,3.39-13.78-9.33-2.57-18.47-4.83-27.41-7.71-3.08-1-5.66-3.5-8.47-5.32ZM178.45,117.24c-.38,2-.74,3.43-.92,4.9q-6,50.64-12.05,101.28C159.35,275.14,153.3,326.86,147,378.56c-.43,3.51.39,5.33,3.38,6.51,10.3,4.08,20.33,9.13,31,12,41.83,11.33,84.25,11.75,126.81,4.78,17.73-2.91,34.9-7.86,50.9-16.37,3.11-1.65,4.53-3.21,3.94-7.21-1.82-12.13-3.09-24.35-4.36-36.56-.61-5.83,2-9.34,6.7-9.7s7.6,2.77,8.3,8.52c1,8.2,2,16.4,3.21,25.85l85-21.48c-20.37-80.45-40.4-159.55-60.41-238.55L347,115.83c.59,5.11,1.13,9.89,1.69,14.66q6.24,52.37,12.49,104.73c2.84,23.88,5.72,47.76,8.43,71.65.69,6.1-1.68,9.43-6.34,10-4.89.55-7.94-2.54-8.65-8.62q-2.64-22.48-5.34-45-6.79-57.06-13.6-114.13c-1.25-10.49-2.55-21-3.87-31.84A703.14,703.14,0,0,1,178.45,117.24ZM48.2,344.91l85.07,21.43c10-84.48,19.94-167.54,29.82-250.56l-54.48-9.45C88.55,185.58,68.58,264.43,48.2,344.91ZM95.6,40.25C93.4,47.79,91.32,54.9,89.25,62,87.13,69.3,85,76.58,82.8,84.29c115,29.44,229.56,29.39,344.49,0-4.37-15-8.57-29.36-12.85-44C307.94,69.05,202,69,95.6,40.25ZM78.39,99.32,17,310.74l22.7,6.1c18.11-71.5,36.11-142.6,54.21-214-4.29-1.14-8.26-2.23-12.25-3.22A20.53,20.53,0,0,0,78.39,99.32Zm337.74,3.42,54.24,214.13,22.69-6.14c-20.59-70.84-41-141.19-61.57-211.87Z"/></g></g></svg>