<svg xmlns="http://www.w3.org/2000/svg" viewBox="0 0 263.34 384"><g id="katman_2" data-name="katman 2"><g id="katman_1-2" data-name="katman 1"><path d="M9.2,384a66.28,66.28,0,0,1-4.3-6.71C-.77,365.72-.84,353.6,1.29,341.16c1.08-6.26,1.3-12.67,1.93-19,.14-1.46.34-2.91.55-4.65l11.76,1.09c-.69,7.67-1.34,15-2.09,23.25,4.67-1,8.86-1.88,13-3,.69-.2,1.23-1.79,1.39-2.81,4.33-27.63,9-55.21,12.78-82.92,3.5-26.11,6.58-52.31,8.7-78.57s2.84-52.89,4.16-79.35c.08-1.59,0-3.18,0-5H65.57c-.95,85.9-12.52,170.65-27.26,255.53,15.95,3.13,31.34,4.71,45.26-6a9.65,9.65,0,0,0,4.17-7.08C90,310.9,93,289.22,94.53,267.43c2.43-34.4,4.23-68.85,5.68-103.3,1-23.1.86-46.24,1.23-69.36,0-1.46,0-2.93,0-4.58h11.8c.07,1,.2,2.12.2,3.19-.11,46.63-1,93.25-4.43,139.76-2.41,32.12-5.88,64.17-8.79,96.27a4.86,4.86,0,0,0,1,3.6c6.8,6.18,14.29,11.31,23.23,14a23.31,23.31,0,0,0,17.88-1.46c6.57-3.49,12.69-7.84,18.83-12.07,1-.69,1.59-2.76,1.47-4.11-3.11-35.71-7.08-71.37-9.33-107.13-2.16-34.41-2.58-68.93-3.75-103.4,0-1.46,0-2.93,0-4.61h12c0,1.45,0,2.9,0,4.34,1.5,40.47,2.31,81,4.75,121.38,1.85,30.77,5.79,61.42,8.73,92.13a10.38,10.38,0,0,0,4.38,7.76c9.52,7.34,20.36,9.05,31.91,7.92,4.31-.42,8.6-1.17,13.28-1.83C209.9,261.07,198.34,176.4,197.32,90h12.16c0,1.55,0,2.87,0,4.19.24,35.53,2.87,70.91,6.5,106.23,4.65,45.11,11.19,90,18.92,134.64.48,2.73,1.45,4.26,4.24,4.69,3.27.51,6.5,1.24,10.31,2-4.82-52.18-9.48-103.63-10-155.55h12.08c0,1.29-.06,2.61,0,3.92,1.9,34.55,3.51,69.13,5.84,103.66,1.44,21.43,4,42.78,6,64.18a14.89,14.89,0,0,1-.68,5.49c-1.39,4.66-2.81,9.33-4.63,13.84-1,2.41-2.81,4.49-4.26,6.72h-4.5l-14.75-10.22c-5.05,6.4-12,8.44-19,10.22h-12c-11.84-2.3-22.55-6.85-31.07-16-11.33,7.53-23.21,13.32-36.44,16h-9c-13.24-2.63-25.08-8.53-36.44-15.95A49.85,49.85,0,0,1,70.9,380.88c-3.73,1.29-7.62,2.1-11.45,3.12h-12c-7.16-1.77-14.1-4-19.08-10.17L13.7,384Zm155.7-38.1c-22.38,18.58-44.67,18.39-66.94,0-.56,3.32-.8,5.83-1.44,8.22s-.12,3.76,2,4.86c6.32,3.23,12.44,6.86,18.9,9.77,7.46,3.36,15.47,4.88,23.26,1.6,8.35-3.51,16.35-7.84,24.43-12a3.63,3.63,0,0,0,1.36-3C166.23,352.48,165.56,349.59,164.9,345.9ZM35.59,357.51c.19,2.18,0,3.92.53,5.46,1.58,4.94,5.51,7.34,10.26,8.22,14.13,2.61,26.08-1.67,35.88-12,1.15-1.21,1.57-3.11,2.32-4.69l-.65-.69C68.66,362,52.68,360.75,35.59,357.51Zm190.82.18c-16.1,3.08-32.17,4.35-47.86-3.46A12.38,12.38,0,0,0,181,359.6c8.35,8.88,18.75,13.11,30.87,12.19A27.46,27.46,0,0,0,223,368.07,8,8,0,0,0,226.41,357.69ZM14.57,368c8.53-2.2,10-8.56,9.83-16L12.48,354C10.42,359.41,13.2,363.68,14.57,368Zm224-15.93c-.29,7.65,1.57,13.76,9.88,15.92,1.34-4.53,4.22-8.83,2-14.08Z"/><path d="M223.72,0c3.05,2.12,4.07,5,3.78,8.7-.95,12.34,1.3,24,5.24,35.86,8.84,26.51,13.08,54.06,15.77,81.83.74,7.56,1.31,15.14,2,23.32l-12,.54c-.2-2.37-.41-4.54-.57-6.72-2.49-34-7.54-67.48-18-100C217.58,36,217.54,36,209.73,36H95.65V24.15H215.23v-12H47.74V23.94H59.27V35.8H45.44c-2.08,6.65-4.33,13.08-6.12,19.64-9.06,33.16-13.68,67-15.08,101.3-1.06,25.72-1.18,51.48-2.39,77.18C20.7,258,18.66,282,17,306.47l-12.18-1c.54-7,1-13.73,1.58-20.43,2.94-35.37,4.9-70.78,5.15-106.3.28-40.09,4.2-79.81,14.14-118.76,2.52-9.89,6-19.54,9-29.32a15.83,15.83,0,0,0,.75-4.36c.08-5.87.21-11.75,0-17.62C35.23,5,36.13,2.11,39.2,0Z"/><path d="M71.67,24.19h11.5V35.75H71.67Z"/><path d="M149.54,101.68V90.28h11.67v11.4Z"/><path d="M251,162.26v11.48H239.53V162.26Z"/></g></g></svg>