<svg xmlns="http://www.w3.org/2000/svg" viewBox="0 0 408.91 265.36"><g id="katman_2" data-name="katman 2"><g id="katman_1-2" data-name="katman 1"><path d="M408.91,199.65a71.61,71.61,0,0,1-22.67,27.76c-16.53,12.09-34.51,14.29-53.58,6.89-2.62-1-4.36-1.08-6.58,1.14-19.87,19.87-44.09,26.1-71.36,22.07-6-.9-11.92-2.64-17.92-3.74a5.3,5.3,0,0,0-4.1,1c-13.83,14.05-42.49,14.13-56.45,0-.89-.91-3.12-1.21-4.48-.86-13.46,3.54-27,5.74-41,4.33A75.86,75.86,0,0,1,83.44,236c-2.23-2.22-4-2.9-7.16-1.67-23.71,9.1-47.76,2.87-64-16.68a104.25,104.25,0,0,1-10.9-16.08c-2.48-4.47-1.48-7.35,2.52-10.48,25.09-19.64,44-44.62,61-71.15,16-25,29.79-51.22,42.74-77.89a16.07,16.07,0,0,0,1.49-6.45c.19-6.65,0-13.31.09-20s2.38-9.1,9.15-9.11c19.29,0,38.58.06,57.87-.09,2.08,0,4.15-1.17,6.21-1.86C186.86,3,191.24.48,195.79.18c7.62-.52,15.35.19,23,.8a12.37,12.37,0,0,1,6.51,2.8c3,2.55,6.35,2.76,10,2.74,18.36-.08,36.71,0,55.07,0,7.26,0,9.44,2.23,9.5,9.58a6.94,6.94,0,0,1,0,.79c-2,15.53,2.73,29.16,10.06,42.81,17,31.65,34.12,63.16,56.31,91.57,11.25,14.41,23.58,27.77,38,39.13,1.82,1.43,3.13,3.51,4.67,5.29Zm-15.59-.34a8.26,8.26,0,0,0-.79-.88c-24.92-20.61-44.43-45.87-60.9-73.34C317.15,101,304.23,75.9,290.8,51.15c-1.55-2.86-3.14-3.9-6.37-3.87-16.49.17-33,.13-49.49,0a15.14,15.14,0,0,0-9.28,2.59,21,21,0,0,1-9.16,3.57,173.94,173.94,0,0,1-18.28.77,28.67,28.67,0,0,1-16.48-5.16,10.72,10.72,0,0,0-5.47-1.66c-17.3-.12-34.59,0-51.89-.15-3.1,0-4.6,1-6.08,3.69-13.77,25.32-27.06,50.94-41.84,75.66-14.22,23.79-31.17,45.72-51.7,64.61-3,2.76-6.13,5.4-9.54,8.4,2.7,3.41,5.07,6.78,7.82,9.8,16.54,18.2,40.35,20.89,60,5.46a115.46,115.46,0,0,0,17.8-17.63c11.25-13.7,20.24-28.65,21.89-47,.46-5.12,3.38-7.78,7.54-7.34s6.68,3.77,5.87,8.81c-1.07,6.65-2.21,13.42-4.47,19.73-5.73,16-15.29,29.67-26.83,42.06-3.89,4.18-7.41,8.69-11.2,13.18,7.74,8.25,18.48,14.17,31.06,16.83,14.87,3.14,29.33,1,43.72-3,2.42-.68,3.64-1.75,4.07-4.1,1.57-8.47,3.33-16.9,4.73-25.4.85-5.12,4.86-8.2,9.23-6.4,3.58,1.48,4.9,4.57,4.27,8.15-1.61,9.26-3.36,18.51-5.37,27.7-.57,2.59-.13,4.15,1.87,5.77,8.82,7.18,25.38,7.25,34.35.13,2.13-1.69,2.61-3.33,2-6.1-2-9-3.85-18.15-5.28-27.31-.79-5,1.87-8.34,6-8.7,4.42-.4,6.71,2.36,7.57,7.76,1.34,8.36,3.09,16.67,4.9,25a5,5,0,0,0,2.89,3.16c14.68,4.37,29.56,6.64,44.84,3.34a59.84,59.84,0,0,0,32.11-18.17c-.85-.8-1.48-1.47-2.17-2.06a133.81,133.81,0,0,1-32.83-41.74c-4.7-9.31-8.11-19.06-8.83-29.59-.36-5.35,1.95-8.72,6.16-9s6.68,2.36,7.41,7.55a77.09,77.09,0,0,0,1.77,10.18c4.95,17.76,15.18,32.37,27.83,45.4,5.92,6.1,12.22,11.77,20.3,15.15C360.88,231.54,382.28,218.55,393.32,199.31ZM204.74,13.45c-2.39,0-4.78-.09-7.17,0-7.53.33-13.16,5.81-13.49,13.07a13.48,13.48,0,0,0,11.85,13.78,84.87,84.87,0,0,0,17.09,0A13.58,13.58,0,0,0,225,26.6a13.66,13.66,0,0,0-13.43-13.13C209.27,13.36,207,13.45,204.74,13.45ZM123,33.48h47.69V20.37H123Zm115.33,0h47.59V20.4H238.33Z"/></g></g></svg>