<?xml version="1.0" encoding="utf-8"?>
<!-- Generator: Adobe Illustrator 26.0.0, SVG Export Plug-In . SVG Version: 6.00 Build 0)  -->
<svg version="1.1" id="katman_1" xmlns="http://www.w3.org/2000/svg" xmlns:xlink="http://www.w3.org/1999/xlink" x="0px" y="0px"
	 viewBox="0 0 301.8 384" style="enable-background:new 0 0 301.8 384;" xml:space="preserve">
<g id="katman_2_00000043447948423858821350000013774837294559328930_">
	<g id="katman_1-2">
		<path d="M238.6,0c2.1,1.7,3.4,3.8,3.2,6.7c-1.3,19.5,2,38.5,5.8,57.5c16.9,83.4,33.5,166.9,50,250.4c1.2,6.1,2.4,12.2,3.6,18.4
			c1.1,5.3,0.6,6.6-4,9.7c-24.6,16.1-52,27.5-80.8,33.6c-15.2,3.3-30.8,4.8-46.2,7c-1.2,0.2-2.4,0.4-3.6,0.6h-28.5
			c-6.9-0.7-13.9-1.4-20.8-2.2c-39.8-5.1-77-17.4-111.4-38.2c-6.6-4-6.7-4.3-5.2-11.8c14.9-75.1,29.9-150.2,44.8-225.4
			c4.5-22.8,9.6-45.6,13.4-68.6c1.6-9.9,0.8-20.2,0.8-30.3c0-3.1,0.7-5.6,3.2-7.4L238.6,0z M264.1,322c7.2-3.9,13.9-7.4,20.5-11.1
			c0.7-0.4,1.1-2.1,1-3.1c-4.2-21.4-8.5-42.9-12.7-64.3c-11.4-57.2-22.8-114.3-34.1-171.5c-2.1-10.5-4.2-21-6.3-31.5h-163
			c-0.6,3.2-1.2,6.1-1.8,9.1C56,108.1,44.3,166.4,32.7,224.8c-5.5,27.5-11,55.1-16.4,82.6c-0.2,0.9-0.1,2.6,0.5,2.9
			c6.8,3.8,13.7,7.3,20.7,11c0.3-0.6,0.5-1.2,0.7-1.8C47,275.4,55.9,231.2,64.7,187c3.9-19.7,7.9-39.4,11.9-59.1
			c0.8-4,3.1-5.8,6.4-5.1s4.6,3.3,3.8,7.3c-0.5,2.6-1,5.1-1.6,7.7c-11.9,59.5-23.7,119-35.6,178.5c-1.8,9.2-1.8,9.5,7,12.5
			c10.2,3.5,20.5,6.6,31.1,10c0.4-2.3,0.7-3.8,0.8-5.3c4.3-37.5,8.5-75,12.8-112.4c0.5-4.4,2.5-6.4,5.9-6.1s5,3,4.5,7.3
			c-3.9,34-7.8,68-11.7,102c-0.6,5.4-1.2,10.8-1.7,16.4c15.6,3.2,31.4,5,47.3,5.3V209.9c-0.1-1.2,0-2.5,0.1-3.7
			c0.5-2.8,2.2-4.4,5.2-4.4s4.6,1.7,5.1,4.5c0.1,1.2,0.2,2.5,0.1,3.7v136.2c15.9-0.2,31.8-1.8,47.4-5c-0.3-3.1-0.6-5.8-0.9-8.5
			c-2.8-25.2-5.7-50.4-8.6-75.6c-1.3-11.8-2.8-23.6-4.1-35.4c-0.4-3.8,1.3-6.2,4.4-6.6c3.3-0.4,5.5,1.6,6,5.6c0.4,2.9,0.7,5.7,1,8.6
			c3.2,27.9,6.3,55.8,9.5,83.8c1,8.6,2,17.3,3.1,26.7c12.5-4.2,24.4-8.3,36.4-12.1c3.1-1,3.6-2.5,3-5.5c-12.9-64-25.7-128-38.5-192
			c-0.8-3.9,0.6-6.6,3.8-7.3s5.5,1.1,6.4,5.2c0.1,0.6,0.3,1.2,0.4,1.8c11.3,56.9,22.7,113.8,34.1,170.7
			C261.1,307.5,262.5,314.4,264.1,322z M288.3,321.5c-92,48-183.3,46.3-274.7-0.2c-0.7,3.3-1.2,6.5-2.1,9.6c-0.6,2.4,0,3.8,2.3,5.1
			c64.5,36.1,132.6,46.9,204.7,29.2c24.6-6.2,48.2-16,69.8-29.3c1-0.6,2.2-2,2.1-2.9C290,329.1,289,325.4,288.3,321.5L288.3,321.5z
			 M70.6,29.6h160.5V10.8H70.6V29.6z"/>
	</g>
</g>
</svg>
