<?xml version="1.0" encoding="utf-8"?>
<!-- Generator: Adobe Illustrator 26.0.0, SVG Export Plug-In . SVG Version: 6.00 Build 0)  -->
<svg version="1.1" id="katman_1" xmlns="http://www.w3.org/2000/svg" xmlns:xlink="http://www.w3.org/1999/xlink" x="0px" y="0px"
	 viewBox="0 0 57 53.4" style="enable-background:new 0 0 57 53.4;" xml:space="preserve">
<g id="Layer_31">
	<path d="M56.9,42.1c-5.2-9.9-8.9-22.5-11-37.5c-1.2-2.3-3.5-3.8-6.1-4.1l0,0l0,0l0,0c0,0-0.1,0-0.1,0.1C35.3,3.8,30,4.7,23.9,3.2
		c-1.4-0.1-3.4-1.1-6-3.1c-0.1,0-0.1-0.1-0.2-0.1l0,0c-3.6,1.1-5.8,3.5-5.8,5.5C9.3,20.2,5.3,32.8,0.1,43.1c-0.1,0.2,0,0.5,0.2,0.7
		c1.9,1,3.6,2.3,5.2,3.7c0,0,0,0.1,0.1,0.1C6.4,48.2,7,49,7.5,49.9c0.2,2.3,1.6,3.5,4,3.5l0,0c3.4-1.6,7-2.4,10.8-2.4
		c2.4-0.6,5.5-0.6,9.7,0.1c3.2-1.3,6.8-1.3,11.5,0.7c0.1,0.1,0.3,0.1,0.4,0c3.3-1.6,5.7-3.5,7-5.8c3.2-0.8,5.2-1.9,6.1-3.4
		C57,42.5,57,42.3,56.9,42.1z M23.8,4.2C29.4,5.5,34.3,5,38.6,2.4C36.4,6.3,33,9.3,28.9,11c-3.8-0.8-7.1-3.8-9.9-8.9
		C20.4,3.2,22,3.9,23.8,4.2z M50.8,45c-1.1-3.9-1.6-7.9-1.6-12c0-0.3-0.2-0.5-0.5-0.5c0,0,0,0,0,0c-0.3,0-0.5,0.2-0.5,0.5
		c0,0,0,0,0,0c0,4.2,0.6,8.5,1.7,12.6c-1.4,2.2-3.5,4-5.9,5.1c-1.6-8.9-1.6-23.9,0.2-44.7c0-0.3-0.2-0.5-0.5-0.5s-0.5,0.2-0.5,0.5
		l0,0c-1.7,20.7-1.8,35.8-0.2,44.7c-2.1-0.9-4.4-1.3-6.7-1.4c-1.6-6.5-1.9-16.2-0.8-29c0-0.3-0.2-0.5-0.5-0.5s-0.5,0.2-0.5,0.5l0,0
		c-1.1,12.7-0.8,22.5,0.8,29.1c-1.2,0.1-2.3,0.4-3.4,0.9c-1.2-0.2-2.5-0.3-3.8-0.4c0.2-0.1,0.3-0.3,0.2-0.5
		c-1.5-11.7-1.6-23.5-0.2-35.2c0-0.3-0.2-0.5-0.4-0.6c-0.3,0-0.5,0.2-0.6,0.4c-1.5,11.9-1.4,23.9,0.4,35.8c-1.8-0.1-3.6,0-5.4,0.4
		c-0.5,0-0.9,0-1.4,0c0.6-2.5,0.1-6.2-1.3-11.2c-0.1-0.3-0.3-0.4-0.6-0.3c0,0,0,0,0,0c-0.3,0.1-0.4,0.3-0.4,0.6c0,0,0,0,0,0
		c1.5,5,1.9,8.7,1.2,11c-1.7,0.2-3.5,0.5-5.1,1c1.4-8.5,2.6-19.6,0.8-42.3c0-0.3-0.3-0.5-0.5-0.5s-0.5,0.3-0.5,0.5
		c1.8,23,0.5,34.1-0.9,42.6c-0.7,0.2-1.4,0.5-2.1,0.9c-1.9-0.1-2.8-0.9-2.9-2.7c-0.4-1.1-1.1-2-2-2.8c1-5.1,1.3-10.3,1.1-15.5
		c0-0.3-0.2-0.5-0.5-0.5c0,0,0,0,0,0c-0.3,0-0.5,0.2-0.5,0.5c0,0,0,0,0,0c0.2,4.9-0.1,9.9-1,14.7c-1.4-1.1-2.8-2.1-4.4-3
		c5.1-10.3,9.1-23,11.8-37.5c0-1.6,1.4-3.1,4.4-4.5c3.2,6.4,7,10.3,11.8,10.9c4.9-2,8.9-5.7,11.2-10.5c2,0.4,3.7,1.6,4.7,3.3
		c2.2,15,5.8,27.6,11,37.5C55.1,43.4,53.4,44.3,50.8,45L50.8,45z"/>
</g>
</svg>
