<?xml version="1.0" encoding="utf-8"?>
<!-- Generator: Adobe Illustrator 26.0.0, SVG Export Plug-In . SVG Version: 6.00 Build 0)  -->
<svg version="1.1" id="Skirt" xmlns="http://www.w3.org/2000/svg" xmlns:xlink="http://www.w3.org/1999/xlink" x="0px" y="0px"
	 viewBox="0 0 273.3 320.1" style="enable-background:new 0 0 273.3 320.1;" xml:space="preserve">
<g>
	<path d="M136.6,29.5c4.5,0,8-3.6,8-8.1c0-4.4-3.6-8.1-8.1-8.1c-4.4,0-8.1,3.6-8.1,8.1C128.6,25.9,132.2,29.5,136.6,29.5z"/>
	<path d="M128.6,59.8c0,4.4,3.6,8.1,8.1,8.1c4.5,0,8-3.6,8-8.1c0-4.5-3.6-8.1-8.1-8.1C132.2,51.8,128.6,55.4,128.6,59.8z"/>
	<path d="M136.6,120.8c-4.4,0-8.1,3.6-8.1,8.1c0,4.5,3.6,8,8.1,8c4.5,0,8-3.6,8-8C144.7,124.4,141.1,120.8,136.6,120.8z"/>
	<path d="M136.6,189.8c-4.4,0-8.1,3.6-8.1,8c0,4.5,3.6,8.1,8.1,8.1c4.5,0,8-3.6,8-8.1C144.7,193.4,141.1,189.8,136.6,189.8z"/>
	<path d="M136.6,258.8c-4.4,0-8.1,3.6-8.1,8c0,4.5,3.6,8.1,8.1,8.1c4.5,0,8-3.6,8-8.1C144.7,262.4,141.1,258.8,136.6,258.8z"/>
	<path d="M6.3,148.4c0.1,0,0.2,0,0.3,0c1.8,0,3.3-1.4,3.4-3.2l0.1-1.1c0.2-1.9-1.2-3.6-3.1-3.7c-1.9-0.1-3.6,1.2-3.7,3.1l-0.1,1.2
		C3,146.5,4.4,148.2,6.3,148.4z"/>
	<path d="M217,309.8l-1.3,0.1c-1.9,0.2-3.3,1.9-3.1,3.8c0.2,1.8,1.7,3.1,3.4,3.1c0.1,0,0.2,0,0.4,0l1.3-0.1c1.9-0.2,3.3-1.9,3.1-3.8
		C220.6,311,218.9,309.7,217,309.8z"/>
	<path d="M263.1,88.6C263.1,88.6,263.1,88.6,263.1,88.6c-0.7-4-1.5-8-2.2-11.9c-0.2-0.8-0.3-1.7-0.5-2.5c0,0,0,0,0,0c0,0,0,0,0,0
		c0,0,0,0,0,0c-0.5-2.5-1.1-4.9-1.6-7.3c-0.3-1.3-0.6-2.6-0.9-3.8c0,0,0-0.1,0-0.1c0,0,0,0,0,0c-0.3-1.3-0.6-2.5-0.9-3.7
		c-0.2-0.6-0.3-1.3-0.5-1.8c-1-3.8-2-7.5-3.1-11c-0.2-0.6-0.4-1.3-0.6-1.9c0,0,0,0,0,0c0,0,0,0,0,0l-0.8-2.4
		c-0.3-0.8-0.5-1.6-0.8-2.4c0,0,0-0.1,0-0.1c-0.9-2.7-1.9-5.4-2.8-8c0,0,0,0,0,0c-8.7-23.1-16.5-30.5-16.8-30.8
		c-0.6-0.6-1.5-0.9-2.3-0.9h-71.9h-41.4H44.1c-0.9,0-1.7,0.3-2.3,0.9c-0.3,0.3-8.1,7.7-16.8,30.8c0,0,0,0,0,0c-0.4,1-0.7,2-1.1,2.9
		c-0.1,0.4-0.3,0.7-0.4,1.1l-0.2,0.5c-0.1,0.3-0.2,0.6-0.3,1l-0.2,0.6c-0.1,0.3-0.2,0.7-0.3,1l-0.2,0.6c0,0,0,0,0,0
		c0,0.1-0.1,0.2-0.1,0.3l0,0l0,0c0,0,0,0,0,0.1l-0.2,0.5c-0.2,0.7-0.5,1.4-0.7,2.2l0,0.1c0,0,0,0,0,0c0,0,0,0,0,0
		c-0.8,2.5-1.5,5-2.3,7.5c-0.2,0.6-0.4,1.2-0.5,1.9c-0.5,1.8-1,3.6-1.5,5.4c-0.1,0.5-0.3,1.1-0.4,1.6l-0.1,0.2c0,0,0,0,0,0
		c0,0,0,0,0,0c-0.8,3.1-1.6,6.3-2.3,9.6l-0.3,1.6c-0.1,0.4-0.2,0.9-0.3,1.2c-0.2,0.8-0.3,1.6-0.5,2.4c-0.4,2-0.8,4-1.2,6.1
		c-0.2,1.1-0.4,2.1-0.6,3.2l0,0.2c0,0,0,0.1,0,0.1L11,84.2l0,0.2c0,0,0,0,0,0l0,0c-0.3,1.4-0.5,2.8-0.8,4.3c0,0,0,0,0,0c0,0,0,0,0,0
		c-1.7,9.9-3.3,20.6-4.6,31.7c-0.2,1.9,1.1,3.6,3,3.8c0.1,0,0.3,0,0.4,0c1.7,0,3.2-1.3,3.4-3.1c1.2-10,2.5-19.7,4.1-28.8
		c35.7-5.2,63.4-24.7,70.4-49.6c8.1,0.4,16.7,0.7,25.6,0.9V313c-84.9-1.7-101.3-12.2-103.9-14.5c-2.2-48-2.2-91.8-0.1-130.3
		c0.1-1.9-1.4-3.5-3.3-3.6c-1.9-0.1-3.5,1.4-3.6,3.3c-2.2,39.1-2.1,83.5,0.1,132.2c0,0.4,0.1,0.8,0.3,1.1c0.7,1.6,3.8,5.7,18.4,9.7
		c19.7,5.3,51.8,8.4,95.5,9.1c6.7,0.1,13.7,0.2,20.8,0.2c7,0,14-0.1,20.8-0.2c12.9-0.2,25-0.6,35.9-1.3c1.9-0.1,3.4-1.7,3.2-3.6
		c-0.1-1.9-1.7-3.3-3.6-3.2c-9.8,0.6-20.6,1-32.1,1.2V43.7c9.1-0.2,17.9-0.5,26.3-0.9c6.9,24.6,34.3,44.2,69.7,49.5
		c9.1,53.6,11.8,122.9,8,206.2c-1.4,1.2-7,4.9-25.1,8.2c-1.9,0.3-3.1,2.1-2.8,4c0.3,1.7,1.8,2.8,3.4,2.8c0.2,0,0.4,0,0.6-0.1
		c24.8-4.6,29.6-10.2,30.5-12.4c0.1-0.4,0.2-0.8,0.3-1.1C275.5,214.4,272.6,143.3,263.1,88.6z M17.8,85.2l0.1-0.3
		c0.2-1.1,0.4-2.2,0.6-3.4c0.4-2,0.8-4,1.2-6c0.2-0.8,0.3-1.6,0.5-2.4c0,0,0,0,0,0c0,0,0,0,0-0.1c0.1-0.4,0.2-0.7,0.3-1.1l0.3-1.6
		c0,0,0,0,0,0c0.7-3.3,1.5-6.4,2.3-9.5l0,0c0,0,0,0,0,0c0.1-0.5,0.3-1,0.4-1.5c0-0.1,0-0.1,0.1-0.2c0.5-1.8,1-3.6,1.4-5.4
		c0.2-0.6,0.3-1.2,0.5-1.8c0.7-2.4,1.4-4.9,2.2-7.3v0l0.9-2.9c0-0.1,0-0.1,0-0.2c0,0,0,0,0,0c0,0,0,0,0,0c0,0,0-0.1,0-0.1l0.2-0.6
		c0.1-0.3,0.2-0.6,0.3-0.9l0.7-2c0.1-0.3,0.2-0.7,0.4-1c0,0,0-0.1,0-0.1c0.2,0,0.5,0.1,0.7,0.1l1.1,0.2c0.3,0.1,0.6,0.1,0.9,0.2
		l0.4,0.1c0.2,0,0.4,0.1,0.7,0.1l1,0.2c0,0,0,0,0,0l0,0c0,0,0,0,0,0c0.2,0,0.4,0.1,0.5,0.1c0.3,0.1,0.6,0.1,0.9,0.2l0.6,0.1
		c0,0,0.1,0,0.1,0l1.1,0.2c0,0,0,0,0,0l1.1,0.2c0,0,0,0,0,0c1.2,0.2,2.3,0.4,3.6,0.5l2.3,0.3c0.1,0,0.3,0,0.4,0.1c0,0,0,0,0,0
		c0,0,0,0,0,0l1,0.1c0.4,0.1,0.9,0.1,1.3,0.2l0.1,0c0.4,0.1,0.9,0.1,1.2,0.1l0,0h0l1.4,0.2c0.9,0.1,1.8,0.2,2.7,0.3
		c0.2,0,0.3,0,0.5,0.1c1.7,0.2,3.6,0.4,5.4,0.6c0.1,0,0.1,0,0.2,0c0,0,0.1,0,0.1,0c0,0,0,0,0,0l0.1,0l1.5,0.1c0.1,0,0.2,0,0.3,0
		c0,0,0,0,0,0l0.1,0c0.3,0,0.5,0,0.8,0.1c0,0,0,0,0.1,0l0,0c0.7,0.1,1.5,0.1,2.3,0.2c0.7,0.1,1.4,0.1,2.1,0.2c0,0,0,0,0,0
		c2.5,0.2,5,0.4,7.7,0.6l0.8,0.1c0.5,0,1,0.1,1.5,0.1v0h0l0.9,0.1c0.7,0,1.4,0.1,2.1,0.1C73.1,63.5,49,80.1,17.8,85.2z M81.2,35.6
		c-1-0.1-2.1-0.1-3.1-0.2l-3.3-0.2c-2.7-0.2-5.2-0.4-7.6-0.6l-3.9-0.3c-0.1,0-0.3,0-0.4,0c0,0,0,0,0,0c-0.3,0-0.6-0.1-0.9-0.1
		l-0.5-0.1c-0.4,0-0.8-0.1-1.2-0.1l-0.2,0c0,0-0.1,0-0.1,0c0,0-0.1,0-0.1,0c0,0,0,0,0,0c-1.9-0.2-3.7-0.4-5.4-0.5c0,0,0,0,0,0h0
		c0,0,0,0,0,0c0,0,0,0,0,0c0,0-0.1,0-0.1,0c-0.1,0-0.2,0-0.2,0c-0.6-0.1-1.2-0.1-1.8-0.2c-0.3,0-0.6-0.1-0.9-0.1c0,0,0,0,0,0
		L50.1,33c0,0,0,0,0,0l-1.4-0.2c-0.4-0.1-0.9-0.1-1.3-0.2l-1-0.1c0,0,0,0,0,0c0,0,0,0,0,0L46,32.4c0,0,0,0,0,0l-0.8-0.1
		c-0.4-0.1-0.9-0.1-1.3-0.2l0,0c-1.2-0.2-2.3-0.3-3.5-0.5L36.7,31c0,0-0.1,0-0.1,0c-0.1,0-0.2,0-0.2,0c0,0-0.1,0-0.1,0l-2-0.4
		c0,0,0,0,0,0l0,0c-0.2,0-0.4-0.1-0.6-0.1c0,0-0.1,0-0.1,0l-0.6-0.1C38.6,16,43.6,9.2,45.6,6.9h39.9L81.2,35.6z M112.5,36.8
		c-8.4-0.2-16.6-0.4-24.3-0.8l4.3-29.1h20L112.5,36.8L112.5,36.8z M153.9,313.1c-11.3,0.1-23.2,0.1-34.5,0V43.8
		c5.6,0.1,11.4,0.1,17.2,0.1c5.8,0,11.6,0,17.2-0.1V313.1z M153.9,36.9c-11.3,0.1-23.2,0.1-34.5,0v-30h34.5V36.9z M160.8,36.8V6.9
		h20l4.3,29.1C177.4,36.3,169.2,36.6,160.8,36.8z M187.8,6.9h39.9c1.9,2.3,7,9.1,12.8,23.4c-0.8,0.1-1.6,0.3-2.4,0.4l-0.5,0.1
		c-0.4,0.1-0.9,0.2-1.3,0.2c0,0-0.1,0-0.1,0c-1,0.2-2.1,0.3-3.3,0.5c-0.7,0.1-1.5,0.2-2.3,0.3c0,0,0,0,0,0c-4,0.6-8.3,1.1-12.8,1.6
		l-0.1,0c0,0,0,0,0,0c-0.4,0-0.7,0.1-1.1,0.1l-0.4,0c-0.4,0.1-0.9,0.1-1.4,0.1l-0.5,0.1c-0.8,0.1-1.6,0.2-2.5,0.2c0,0,0,0,0,0
		c0,0,0,0-0.1,0c-0.1,0-0.2,0-0.3,0c-1.3,0.1-2.6,0.2-4,0.4c-2.1,0.2-4.2,0.3-6.4,0.5c0,0,0,0,0,0c0,0,0,0,0,0
		c-1.4,0.1-2.8,0.2-4.2,0.3c-0.1,0-0.2,0-0.3,0l-4.6,0.3L187.8,6.9z M194.1,42.4L194.1,42.4c0.2,0,0.4,0,0.7,0c0,0,0,0,0,0l2.3-0.1
		c0,0,0,0,0,0c0.2,0,0.4,0,0.6,0c1.4-0.1,2.7-0.2,4-0.3c2.2-0.2,4.4-0.3,6.5-0.5c1.4-0.1,2.8-0.2,4.1-0.4c0.1,0,0.1,0,0.2,0
		c0,0,0,0,0,0c0.2,0,0.4,0,0.6-0.1c0.4,0,0.8-0.1,1.2-0.1l1.2-0.1c0.5,0,1.1-0.1,1.5-0.1c0.3,0,0.6-0.1,0.9-0.1l0.6-0.1c0,0,0,0,0,0
		c0,0,0,0,0,0c0,0,0,0,0,0c4.6-0.5,9-1,13.1-1.6c0,0,0,0,0,0c0.1,0,0.3,0,0.4-0.1c0.6-0.1,1.3-0.2,1.9-0.3c1.2-0.2,2.3-0.4,3.3-0.5
		c0.5-0.1,0.9-0.2,1.3-0.2l0.6-0.1l0.1,0c0,0,0,0,0,0c0.9-0.2,1.9-0.3,2.7-0.5l0.4-0.1c0,0,0,0,0,0l0.1,0l0.4-0.1
		c0.6,1.6,1.2,3.3,1.8,5.1c0,0.1,0,0.1,0.1,0.2c0.2,0.7,0.5,1.4,0.7,2.1c0.2,0.6,0.4,1.2,0.5,1.7l0.2,0.6c0.2,0.6,0.3,1.1,0.5,1.7
		c0,0,0,0,0,0c0,0,0,0,0,0.1c1,3.5,2.1,7.1,3,10.8c0.2,0.6,0.3,1.1,0.4,1.7c0,0,0,0,0,0c0,0,0,0,0,0c0.3,1.2,0.6,2.4,0.9,3.7
		c0.3,1.2,0.6,2.5,0.9,3.8c0,0,0,0,0,0c0.5,2.3,1.1,4.7,1.6,7.2c0.2,0.8,0.3,1.6,0.5,2.4c0.5,2.3,0.9,4.7,1.4,7
		C224.6,79.8,200.8,63.2,194.1,42.4z"/>
</g>
</svg>
