<?xml version="1.0" encoding="utf-8"?>
<!-- Generator: Adobe Illustrator 26.0.0, SVG Export Plug-In . SVG Version: 6.00 Build 0)  -->
<svg version="1.1" id="Layer_1" xmlns="http://www.w3.org/2000/svg" xmlns:xlink="http://www.w3.org/1999/xlink" x="0px" y="0px"
	 viewBox="0 0 62.6 48.4" style="enable-background:new 0 0 62.6 48.4;" xml:space="preserve">
<path d="M62.6,37.4c-1-1.8-2.1-3.6-3.1-5.5s-2-3.6-2.9-5.5c-1.1-2.2-2.1-4.5-3.1-6.8c-0.7-1.8-1.4-3.6-2-5.4
	c-0.3-0.8-0.5-1.7-0.8-2.5L50.5,11h0c0.6,0,1-0.4,1-1c0,0,0,0,0,0V5c0-0.6-0.4-1-1-1h-1V1.2c0-0.8-0.4-1.2-1.2-1.2H15.3
	c-0.9,0-1.2,0.3-1.2,1.2c0,0.4,0,0.9,0,1.3V4h-1c-1.9-0.1-3.5,1.5-3.6,3.4C9.4,9.3,11,10.9,12.9,11l0,0v0c-0.9,2.4-1.8,4.9-2.8,7.2
	c-0.5,1.1-1,2.2-1.5,3.3l-1,2.2c-0.7,1.3-1.3,2.5-2,3.8s-1.4,2.5-2,3.7c-0.6,1-1.1,2-1.7,2.9s-1.2,2.1-1.9,3.1
	C0,37.5,0,37.7,0.1,37.8c0.6,0.7,1.4,1.4,2.2,1.9c1.3,0.8,2.7,1.6,4.1,2.1c1.4,0.6,2.8,1,4.3,1.2l0.9,0.1c-0.1,0.3-0.2,0.6-0.2,0.9
	c-0.1,0.3,0,0.6,0.2,0.7c0.9,0.7,1.8,1.2,2.9,1.5c2.2,0.7,4.4,1.2,6.7,1.3c0.9,0.1,1.9,0,2.8-0.3c0.1,0,0.2,0,0.3,0
	c0.8,0.4,1.6,0.7,2.5,0.8c1.2,0.2,2.5,0.3,3.7,0.3c2,0.1,4,0,6-0.5c0.9-0.2,1.7-0.5,2.4-1.1l0.1-0.1c0.1-0.1,0.3-0.1,0.4-0.1
	c0.6,0.1,1.2,0.2,1.7,0.2c2.5,0.3,5.1,0.1,7.6-0.7c1.1-0.4,2.2-1,3.2-1.6c0.1-0.1,0.2-0.2,0.1-0.3c0,0,0,0,0,0L52,44l-0.2-0.5H52
	c0.9-0.1,1.9-0.2,2.8-0.4c1.7-0.3,3.2-1,4.6-2c1.2-0.9,2.3-2,3.3-3.3C62.6,37.6,62.6,37.5,62.6,37.4z M47.2,2L47.2,2
	c0.3,0,0.3,0.1,0.3,0.3V4h-19v7h8v2h-10V2L47.2,2z M45.6,7.5c0,0.8-0.7,1.5-1.5,1.5s-1.5-0.7-1.5-1.5S43.2,6,44.1,6
	S45.6,6.7,45.6,7.5z M37.1,9c-0.8,0-1.5-0.7-1.5-1.5S36.2,6,37.1,6s1.5,0.7,1.5,1.5S37.9,9,37.1,9z M24.6,2v2h-8.5V2H24.6z
	 M21.6,7.5c0,0.8-0.7,1.5-1.5,1.5s-1.5-0.7-1.5-1.5S19.2,6,20.1,6C20.9,6,21.6,6.7,21.6,7.5L21.6,7.5z M56.3,40.4
	c-1.1,0.4-2.2,0.7-3.4,0.8l-1.3,0.1c-0.2,0-0.3,0-0.4-0.3l-6-20.1c-0.2-0.5-0.7-0.8-1.2-0.7l0,0h-0.1c-0.5,0.2-0.7,0.7-0.6,1.1
	l6.4,21.7l0.1,0.2c0,0.1,0,0.2-0.1,0.3c-1.4,0.7-2.9,1.2-4.5,1.3c-1.9,0.1-3.8,0.1-5.6-0.2h-0.1h-0.2l-0.2-1.7l-2.2-21
	c-0.1-0.5-0.5-0.9-1-0.9h-0.1h-0.1c-0.5,0.1-0.8,0.5-0.7,1l2.3,22.6l0.1,0.6c0,0.1-0.1,0.2-0.2,0.2l-0.4,0.1
	c-0.6,0.2-1.2,0.3-1.8,0.4c-1.4,0.2-2.9,0.3-4.3,0.2c-1.3,0-2.7-0.2-4-0.4c-0.3-0.1-0.6-0.2-0.9-0.3s-0.3-0.2-0.3-0.5l2.4-23.1V22
	c0-0.5-0.4-0.9-0.9-0.9h-0.1c-0.5,0-0.9,0.4-1,0.9l-2.4,23.2c0,0.1-0.1,0.3-0.2,0.3c-0.8,0.1-1.6,0.1-2.4,0
	c-1.1-0.2-2.3-0.3-3.4-0.6c-1.2-0.2-2.4-0.6-3.4-1.1c-0.2-0.1-0.2-0.2-0.2-0.4l6-21.9l0,0c0.1-0.5-0.2-0.9-0.7-1h-0.1
	c-0.5,0-0.9,0.3-1,0.7l-4.7,16.5l-1,3.5l-0.1,0.2c-1-0.2-2.1-0.4-3.1-0.7c-1.3-0.4-2.6-1-3.9-1.6c-0.9-0.5-1.7-1-2.6-1.6
	c0-0.1,0-0.2,0-0.3l1.1-1.8c0.8-1.4,1.6-2.8,2.4-4.3c0.6-1.1,1.2-2.2,1.8-3.3c1-2,2.1-4.1,3-6.2c0.8-1.8,1.6-3.5,2.3-5.3
	c0.4-0.9,0.7-1.8,1-2.8L15,11h9.6v3c0,0.6,0.4,1,1,1h12c0.6,0,1-0.4,1-1v-3h9.8l0.3,1.1c0.3,1,0.6,1.9,0.9,2.9
	c0.4,1.3,0.9,2.6,1.4,3.9c0.8,2,1.6,4,2.5,5.9s1.9,4,3,5.9c0.5,0.9,1,1.8,1.5,2.7l1.5,2.7l0.2,0.4l0.5,0.8
	C59.2,38.7,57.8,39.7,56.3,40.4z"/>
</svg>
