<svg xmlns="http://www.w3.org/2000/svg" viewBox="0 0 359.57 264.1"><g id="katman_2" data-name="katman 2"><g id="katman_1-2" data-name="katman 1"><path d="M233.17,234.6c15.26,1.82,29.86,1.39,43.41-5.24,5.44-2.67,10-7.28,14.79-11.14,1.85-1.48,1.81-3.43,1.07-5.75-7.27-23.09-14.4-46.22-21.57-69.35-.37-1.19-.8-2.37-1.05-3.59-.74-3.61.85-6.42,4.08-7.35s6.14.49,7.32,4c2.29,6.87,4.38,13.8,6.53,20.71q7.78,25,15.56,50c.29,1,.63,1.87,1,3.06,17.67-1,31.73-8.35,41.79-22.89.62-.91.35-2.85-.14-4.06-4-10-8.18-19.84-12.33-29.74-1.14-2.73-1.46-5.33.92-7.59,3-2.87,7.77-2.32,9.43,1.51,5.32,12.25,10.5,24.57,15.33,37,.68,1.77-.32,4.72-1.44,6.58-11.7,19.48-29.25,29.4-51.7,31.18a6.11,6.11,0,0,0-4,1.79c-10.8,14.6-25.84,21.36-43.35,22.85-8.79.74-17.71,0-26.56.06a8.5,8.5,0,0,0-4.71,1.42c-29,21.37-66.68,21.24-96-.34a7,7,0,0,0-4.44-1c-13.66,1.39-27.19,1.25-40.46-2.86-11.8-3.64-21.68-10-29.21-20A6.57,6.57,0,0,0,53.1,222c-22.37-1.7-39.64-11.74-51.49-30.94a9.47,9.47,0,0,1-.63-9.5q28.86-68.9,57.46-137.9a17.07,17.07,0,0,0,1.22-6.12c.12-9.88,0-19.75.06-29.63C59.73,2,61.67,0,67.51,0H291.82c6.09,0,8,1.94,8,8.13,0,9.87-.05,19.75.06,29.62A15.79,15.79,0,0,0,301,43.52c6.7,16.27,13.61,32.46,20.16,48.79.85,2.11.88,5.42-.23,7.26-2.5,4.15-8.28,3.06-10.34-1.75-4.42-10.33-8.67-20.72-13-31.09-2.25-5.41-4.61-10.79-6.71-16.26-.76-2-1.84-2.51-3.87-2.5Q179.74,48,72.47,48a3.49,3.49,0,0,0-3.83,2.56Q41,116.89,13.4,183.25a5.32,5.32,0,0,0,.28,4.34c9.47,13.8,22.92,20.69,39.35,22.34,2.62.27,2.74-1.46,3.25-3.11q10.32-33.25,20.66-66.5c.37-1.19.69-2.4,1.11-3.57,1.4-4,4.27-5.63,7.73-4.53s4.9,4.15,3.69,8.21c-2.22,7.41-4.6,14.77-6.9,22.16-5.18,16.68-10.41,33.35-15.41,50.09a6.75,6.75,0,0,0,1,5.3c8,10.32,19.23,15.11,31.71,16.46,8.61.92,17.4.17,26.47.17,1-8.38,2.11-16.77,3.12-25.17q4.26-35.34,8.49-70.69c.06-.49.17-1,.27-1.47.83-3.9,3.29-5.77,6.87-5.23,3.36.5,5.29,2.94,4.88,6.77-1.09,10.06-2.32,20.1-3.54,30.15-2.61,21.57-5.21,43.15-7.94,64.71-.38,3,.44,4.76,2.91,6.51,22.33,15.78,54.81,15.78,76.83,0,2.28-1.64,3.22-3.25,2.85-6.17-3-23.67-5.82-47.36-8.69-71-.94-7.81-1.9-15.63-2.75-23.45-.48-4.43,1.25-7,4.87-7.45,3.81-.53,6.38,1.5,6.95,6,1.94,15.37,3.73,30.75,5.6,46.13C229.06,200.91,231.1,217.62,233.17,234.6ZM143.92,35.74h71.54V12.2H143.92Zm-72,0h59.54V12.2H71.9ZM287.63,12.26H228.07V35.81h59.56Z"/><path d="M328.58,132.1c-3.31,0-4.85-2.22-5.77-5-1.22-3.59-4.51-7.08-1.11-11.07a5.9,5.9,0,0,1,9.75,1.07,43.42,43.42,0,0,1,3,7.21C335.83,128.47,332.94,132.17,328.58,132.1Z"/></g></g></svg>