<svg xmlns="http://www.w3.org/2000/svg" viewBox="0 0 335.1 296.88"><g id="katman_2" data-name="katman 2"><g id="katman_1-2" data-name="katman 1"><path d="M279.34,27.27c-1.94,15.94,4.17,30.54,7.91,45.45,15.5,61.71,31.32,123.34,47,185,2.71,10.68-1.07,20.49-9.85,25.61-5.86,3.42-11.82,3.61-17.79.17-14.27-8.24-28.41-8.25-42.45.63a86,86,0,0,1-28.32,11.4,45.38,45.38,0,0,1-34.19-5.76c-8.59-5.21-17.61-9.43-27.62-11.1s-19-.18-27.32,6c-20.24,14.89-41.57,16.1-63.61,4.07-9.25-5-18.66-9.56-29.3-10.84a28.16,28.16,0,0,0-18.7,3.76c-8.81,5.37-18.65,5-26.35-.83C1.21,275.14-1.69,266.14,1,256Q28.47,151,56,46a37.26,37.26,0,0,0,1.09-8.48c.15-7.63,0-15.25.08-22.87C57.28,6.2,63.15.39,71.62.13c.88,0,1.75,0,2.63,0C136.86.13,199.48.25,262.09,0c9.87,0,18.26,5.54,17.29,17.53C279.12,20.75,279.34,24,279.34,27.27ZM110.51,46.67c0,5.81.41,11.22-.11,16.54-.67,6.93-1.12,14.11-3.35,20.6-10,29-30.46,45.72-61,49.88-2.32.32-5-.56-6,3.3Q24.41,197.33,8.44,257.58c-1.79,6.81-.76,12.76,5.05,17.1s11.9,3.92,17.87.25c7.37-4.53,15.36-5.61,23.78-4.56,11.5,1.43,21.77,6.17,31.77,11.69,19.13,10.57,37.64,9.33,55.15-3.57,10.15-7.47,21.2-9.52,33.32-7.4,11.25,2,21.38,6.72,31.06,12.56a36.25,36.25,0,0,0,25.22,4.85,73.23,73.23,0,0,0,27.51-10.33c16.89-10.63,34-11.23,51.32-1.27,3.53,2,6.9,1.75,10.25-.32,5.64-3.5,7.89-9.76,6-17.06Q311.36,198.94,296,138.34c-.79-3.13-1.95-4.36-5.26-4.76-28.84-3.53-48.73-19-59.86-45.73-3.6-8.63-4.84-17.8-4.78-27.13,0-4.69,0-9.38,0-14Zm161.2-8c0-8.41.13-16.4-.11-24.38-.05-1.65-1.1-4-2.42-4.73a14.63,14.63,0,0,0-7-1.68q-93.91-.13-187.81-.06a25.63,25.63,0,0,0-4.11.24c-3.08.5-5.2,2.49-5.29,5.47-.25,8.32-.09,16.65-.09,25.14ZM43,125.91a30.24,30.24,0,0,0,3.95,0c35.52-5.23,61.3-35.65,55.39-79.16H63.81C56.87,73.16,50,99.42,43,125.91ZM234.16,46.6c-2.09,23.6,1.64,45,19.41,61.94a62.44,62.44,0,0,0,39.26,17.57C286,99.21,279.27,72.89,272.57,46.6Z"/><path d="M181.27,76.72a13,13,0,1,1-26.06-.24,13,13,0,0,1,26.06.24Zm-7.69,0a5.33,5.33,0,0,0-5.34-5.46,5.24,5.24,0,0,0-5.32,5.44,5.12,5.12,0,0,0,5.13,5.22A5.19,5.19,0,0,0,173.58,76.7Z"/><path d="M155.21,154.67a13,13,0,0,1,26,0,13,13,0,1,1-26,0Zm18.36-.15a5.33,5.33,0,1,0-10.64.5,5.33,5.33,0,0,0,10.64-.5Z"/><path d="M181.26,115.67a13,13,0,1,1-26,0,13,13,0,0,1,26,0Zm-7.68.14a5.38,5.38,0,0,0-5.26-5.55,5.31,5.31,0,0,0-5.4,5.39A5.13,5.13,0,0,0,168,121,5.21,5.21,0,0,0,173.58,115.81Z"/></g></g></svg>