<?xml version="1.0" encoding="utf-8"?>
<!-- Generator: Adobe Illustrator 26.0.0, SVG Export Plug-In . SVG Version: 6.00 Build 0)  -->
<svg version="1.1" id="katman_1" xmlns="http://www.w3.org/2000/svg" xmlns:xlink="http://www.w3.org/1999/xlink" x="0px" y="0px"
	 viewBox="0 0 350.7 546.9" style="enable-background:new 0 0 350.7 546.9;" xml:space="preserve">
<g>
	<path d="M337.2,333.4c32.5-163.3-2.2-261-13.6-287c-2.6-5.8-3.8-11-3.8-15.7V17.5C319.8,7.8,312,0,302.3,0H48.7
		C38.9,0,31,7.8,31,17.5v13.1c0,4.5-1.3,9.5-4,15.7c-11.4,26-45.9,123.3-13.4,287c23.6,118.8,9.7,133.5-1.5,145.3
		c-5.7,6-11.7,12.2-11.7,28.9c0,10.6,6.1,21.9,17.5,21.9c11.8,0,17.4,3.7,23.8,8c6.7,4.4,14.2,9.5,28.7,9.5c14.4,0,22.1-5,28.9-9.5
		c6.6-4.3,12.2-8,23.9-8c11.7,0,17.4,3.7,23.9,8c6.6,4.4,14.2,9.3,28.3,9.5c14.1-0.1,21.7-5.1,28.4-9.5c6.6-4.3,12.3-8,24.1-8
		c11.7,0,17.3,3.7,23.8,8c6.7,4.4,14.3,9.5,28.7,9.5c14.4,0,22-5,28.7-9.5c6.5-4.3,12-8,23.8-8c11.4,0,17.5-11.3,17.5-21.9
		c0-16.6-5.9-22.8-11.7-28.9C327.5,466.9,313.6,452.2,337.2,333.4L337.2,333.4z M35,49.9c3.2-7.3,4.7-13.4,4.7-19.1l175,4.2v13.3
		L33.9,52.4C34.4,51.5,34.7,50.7,35,49.9L35,49.9z M217.5,58.9c1.5,1.4,3.4,2.3,5.6,2.4l-21.4,231.4c0,0.2,0,0.3-0.1,0.5
		c-1-0.2-3.2-1.2-6.3-3.6l-26.2-17.4c-1.4-1-2.7-3.3-2.5-4.8l13.1-153.1C181.4,96,196.4,67.2,217.5,58.9L217.5,58.9z M223.6,52.6
		c0-0.1,0-0.1,0-0.2l0,0V30.7h26.2v21.6c0,0,0,0,0,0.1s0,0.1,0,0.2H223.6z M255.8,58.9c21.1,8.4,36.1,37.1,37.7,55.3l13.1,153.1
		c0.1,1.4-1.1,3.8-2.4,4.7l-26.6,17.7c-2.8,2.3-4.9,3.2-5.9,3.4c0-0.1,0-0.2-0.1-0.4L250.2,61.3C252.4,61.2,254.3,60.3,255.8,58.9
		L255.8,58.9z M258.5,34.8L311,31c0.1,5.9,1.5,12.1,4.5,18.9c0.3,0.7,0.6,1.4,0.9,2.2l-58-3.7L258.5,34.8z M48.7,8.8h253.5
		c4.8,0,8.8,3.9,8.8,8.8v4.7l-53.8,3.8c-1.5-2.5-4.3-4.1-7.4-4.1h-26.2c-3.2,0-6,1.7-7.5,4.3L39.8,22.1v-4.5
		C39.8,12.8,43.9,8.8,48.7,8.8L48.7,8.8z M18.4,484.7c12.6-13.2,28.3-29.7,3.8-153c-28.4-143-5.1-234,8.3-270.5l172.3-3.9
		c-17.4,13-30,37-31.8,56.1l-13.1,153.1c-0.4,4.6,2.2,9.9,6.3,12.8l25.9,17.3c2.7,2.2,7.4,5.4,11.9,5.4c1.1,0,2.2-0.2,3.2-0.6
		c1.7-0.7,4.6-2.6,5.1-7.8l21.6-232.3h9.5l21.5,232.4c0.6,5.1,3.5,7,5.1,7.7c1,0.4,2.1,0.6,3.2,0.6c4.5,0,9.1-3.1,11.6-5.1
		l26.3-17.6c4-2.8,6.6-8.2,6.2-12.7l-13.1-153.1c-1.7-18.8-13.9-42.2-30.8-55.4l48.6,3.1c13.4,36.4,37,127.7,8.6,270.6
		c-24.5,123.3-8.8,139.8,3.8,153c4.2,4.4,7.4,7.9,8.7,15.3c-2.3-0.7-4.9-1.2-8.2-1.2c-14.4,0-22,5-28.7,9.5c-6.5,4.3-12,8-23.8,8
		s-17.4-3.7-23.9-8c-6.7-4.4-14.2-9.4-28.6-9.5c-14.3,0-22,5-28.8,9.5c-6.6,4.3-12.2,7.9-23.6,8c-11.5-0.1-17.1-3.8-23.5-8
		c-6.7-4.4-14.3-9.4-28.7-9.5c-14.3,0-22,5-28.7,9.5c-6.6,4.3-12.3,8-24.1,8c-11.8,0-17.4-3.7-23.8-8c-6.7-4.4-14.2-9.5-28.7-9.5
		c-0.6,0-4.2,0.1-8.2,1.2C11,492.6,14.2,489.1,18.4,484.7L18.4,484.7z M332.9,520.7c-14.4,0-22,5-28.7,9.5c-6.5,4.3-12,8-23.8,8
		s-17.4-3.7-23.9-8c-6.7-4.4-14.2-9.4-28.6-9.5c-14.3,0-22,5-28.8,9.5c-6.6,4.3-12.2,7.9-23.6,8c-11.5-0.1-17.1-3.8-23.5-8
		c-6.7-4.4-14.3-9.4-28.7-9.5c-14.3,0-22,5-28.7,9.5c-6.6,4.3-12.3,8-24.1,8c-11.8,0-17.4-3.7-23.8-8c-6.7-4.4-14.2-9.5-28.7-9.5
		c-5.1,0-8-5.4-8.6-11.1c2.8-1.6,7.1-2.1,8.6-2.1c11.8,0,17.4,3.7,23.8,8c6.7,4.4,14.2,9.5,28.7,9.5c14.4,0,22.1-5,28.9-9.5
		c6.6-4.3,12.2-8,23.9-8c11.7,0,17.4,3.7,23.9,8c6.6,4.4,14.2,9.3,28.3,9.5c14.1-0.1,21.7-5.1,28.4-9.5c6.6-4.3,12.3-8,24.1-8
		c11.7,0,17.3,3.7,23.8,8c6.7,4.4,14.3,9.5,28.7,9.5c14.4,0,22-5,28.7-9.5c6.5-4.3,12-8,23.8-8c4.2,0,7.1,1.2,8.6,2.1
		C340.9,515.3,337.9,520.7,332.9,520.7L332.9,520.7z"/>
</g>
</svg>
