<?xml version="1.0" encoding="utf-8"?>
<!-- Generator: Adobe Illustrator 26.0.0, SVG Export Plug-In . SVG Version: 6.00 Build 0)  -->
<svg version="1.1" id="katman_1" xmlns="http://www.w3.org/2000/svg" xmlns:xlink="http://www.w3.org/1999/xlink" x="0px" y="0px"
	 viewBox="0 0 523.7 489.7" style="enable-background:new 0 0 523.7 489.7;" xml:space="preserve">
<g>
	<path d="M447.5,198.1c-11.2-80.8-23.7-128.8-38-143.3V0l-6.3,0.7l0,0c-91.8,11.1-184.7,11.1-276.5,0L120.4,0v50.4h-0.6
		c-16.5,6.9-31.1,56.4-43.4,147.2C55.1,354.5,2,445.6,1.6,446.6L0,449.2l1.3,2.7c1.8,4.2,24.9,37.8,233.1,37.8H265
		c231.7-3.4,255.3-32,257.6-37.7l1.1-2.6l-1.3-2.9C521.8,445.7,468.7,354.8,447.5,198.1L447.5,198.1z M131.6,12.6
		c88.6,10.2,178.1,10.2,266.7,0V50c-1.3,0.2-2.5,0.6-3.5,1.3C307.3,61.2,219,61.1,131.6,51L131.6,12.6z M456.7,464.6
		c-10-25.1-61.1-156.4-71.7-257.1l-11.2,1.2c10.4,99.4,59.5,227.5,71.5,257.6c-22,3.3-51.1,6.4-89.6,8.7
		c-5.6-30.9-35.7-200.3-31.9-240.8l-11.2-1c-3.9,41.7,25.5,207.2,31.8,242.3c-21.8,1.1-46.5,2-74.3,2.4V298.6h-10.9v179.2
		c-31.4,0.4-58.9,0-82.9-0.8c7.3-31.6,37.2-165,37.8-213.4h-11.2c-0.6,47.7-31.8,186.1-38,212.8l0,0c-28.4-0.9-56.8-3.4-84.9-7.3
		c13.8-31,70.1-162.4,76.2-264.2l-11.2-0.7c-6.2,103.5-65.2,238.3-76.4,263.2c-37.2-6.9-51-15-55.4-18.4
		c10.1-18.6,55.1-107.8,74.3-249c16.4-120.8,32.8-136.2,36.1-138.2h1.7c46.3,5.5,92.9,8.2,139.5,8.1c45.5,0.1,91-2.6,136.2-7.8
		c4.7,3.8,19.9,24.6,35.3,137.6c19.2,141.3,64.2,230.4,74.3,249C506.5,451.4,493.3,458.2,456.7,464.6L456.7,464.6z"/>
</g>
</svg>
