<?xml version="1.0" encoding="utf-8"?>
<!-- Generator: Adobe Illustrator 26.0.0, SVG Export Plug-In . SVG Version: 6.00 Build 0)  -->
<svg version="1.1" id="katman_1" xmlns="http://www.w3.org/2000/svg" xmlns:xlink="http://www.w3.org/1999/xlink" x="0px" y="0px"
	 viewBox="0 0 473.2 399" style="enable-background:new 0 0 473.2 399;" xml:space="preserve">
<g id="outline">
	<path d="M204.6,231.7c0-0.3,0-0.5-0.1-0.8c0-0.1,0-0.2,0-0.3c0-0.3-0.1-0.5-0.2-0.8c0-0.1,0-0.1,0-0.2c-0.1-0.3-0.2-0.6-0.3-0.9
		c0,0,0,0,0-0.1c-0.1-0.3-0.2-0.5-0.4-0.8c0-0.1-0.1-0.1-0.1-0.2c-0.1-0.2-0.3-0.4-0.4-0.6c0-0.1-0.1-0.1-0.1-0.2
		c-0.2-0.3-0.4-0.5-0.6-0.7l-16-16c-3.1-3.1-8.2-3.1-11.3,0c-0.2,0.2-0.3,0.3-0.5,0.5l-40,48c-0.2,0.2-0.3,0.4-0.5,0.6
		c-0.1,0.1-0.1,0.2-0.2,0.3c-0.1,0.1-0.2,0.3-0.2,0.4c-0.1,0.1-0.1,0.2-0.2,0.3c-0.1,0.1-0.1,0.2-0.2,0.4s-0.1,0.2-0.1,0.3
		s-0.1,0.2-0.1,0.4s-0.1,0.2-0.1,0.4s-0.1,0.2-0.1,0.4s0,0.2-0.1,0.4s0,0.3-0.1,0.4s0,0.2,0,0.3c0,0.1,0,0.3,0,0.4
		c0,0.1,0,0.2,0,0.3c0,0.1,0,0.3,0,0.4c0,0.1,0,0.2,0,0.3c0,0.1,0,0.3,0.1,0.4c0,0.1,0,0.2,0.1,0.3c0,0.1,0.1,0.3,0.1,0.4
		c0,0.1,0.1,0.2,0.1,0.3c0,0.1,0.1,0.3,0.1,0.4c0,0.1,0.1,0.2,0.1,0.3c0.1,0.1,0.1,0.3,0.2,0.4c0,0.1,0.1,0.2,0.1,0.3
		c0.1,0.1,0.1,0.2,0.2,0.4c0.1,0.1,0.1,0.2,0.2,0.3c0.1,0.1,0.2,0.2,0.2,0.3c0.1,0.1,0.1,0.2,0.2,0.3c0.1,0.1,0.2,0.2,0.3,0.3
		c0.1,0.1,0.1,0.2,0.2,0.2c0,0,0,0,0,0l16,16c2.4,2.4,6.2,3,9.2,1.5l32-16c2.1-1,3.6-2.9,4.2-5.2l8-32c0,0,0-0.1,0-0.1
		c0.1-0.3,0.1-0.5,0.1-0.8c0-0.1,0-0.1,0-0.2c0-0.3,0-0.6,0-0.9C204.6,231.9,204.6,231.8,204.6,231.7z M158.2,270.3l-6.8-6.8
		l29.7-35.7l6.6,6.6l-6,24L158.2,270.3z"/>
	<path d="M298.7,210.9c-2.8-3.4-7.9-3.9-11.3-1c-0.2,0.2-0.4,0.3-0.5,0.5l-16,16c-2,2-2.8,4.9-2.1,7.6l8,32c0.6,2.3,2.1,4.2,4.2,5.2
		l32,16c3.1,1.5,6.8,0.9,9.2-1.5l16-16c2.9-2.9,3.1-7.6,0.5-10.8L298.7,210.9z M315,270.3l-23.6-11.8l-6-24l6.6-6.6l29.7,35.7
		L315,270.3z"/>
	<path d="M460.9,344.3l6.1-18.4c6.4-19.2,7.8-39.8,4.1-59.7l-0.8-4.3c-11.9-64-37.3-124.8-74.4-178.3l-16.8-24.2
		c0-0.1-0.1-0.1-0.1-0.2s-0.1-0.2-0.2-0.2c-0.2-0.2-0.3-0.4-0.5-0.6c-0.1-0.1-0.1-0.1-0.2-0.2c-0.5-0.5-1-0.9-1.5-1.2c0,0,0,0-0.1,0
		l-96-56c-1.2-0.7-2.6-1.1-4-1.1h-80c-1.4,0-2.8,0.4-4,1.1l-96,56c0,0,0,0-0.1,0c-0.6,0.3-1.1,0.7-1.5,1.2c-0.1,0.1-0.1,0.1-0.2,0.2
		c-0.2,0.2-0.3,0.4-0.5,0.6c-0.1,0.1-0.1,0.1-0.2,0.2S94,59.4,94,59.4L77.2,83.7C40.2,137.2,14.8,197.9,2.8,261.9L2,266.2
		c-3.7,19.9-2.3,40.5,4.1,59.7l6.1,18.4l-6.5,26c-1.6,6.3,2.1,12.7,8.3,14.5l0,0l48.3,13.8c1.1,0.3,2.2,0.5,3.3,0.5
		c5.5,0,10.3-3.7,11.7-9.1l6.9-27.4l28.9-69.3l11.5,51.7V376c0,4.4,3.6,8,8,8h208c4.4,0,8-3.6,8-8v-31.1l11.5-51.7l28.9,69.3
		l6.9,27.4c1.6,6.4,8.2,10.3,14.6,8.7c0.1,0,0.2-0.1,0.3-0.1l48.3-13.8l0,0c6.2-1.8,9.9-8.2,8.3-14.4L460.9,344.3z M454.6,264.8
		l0.8,4.3c3.2,17.3,2,35.1-3.5,51.7l-5.5,16.6l-45.1,12.9l-27.7-66.4l35.1-21.1c3.8-2.3,5-7.2,2.7-11s-7.2-5-11-2.7L367.3,269
		l-1.3-3.1l36.2-36.2c3.1-3.1,3.1-8.2,0-11.3c-3.1-3.1-8.2-3.1-11.3,0l-20.1,20.1c6.5-40.2,9.7-80.9,9.7-121.6V89.6l2.2,3.2
		C418.6,144.4,443.1,203.1,454.6,264.8L454.6,264.8z M334.2,336h-89.6V137c10.8-4.4,16-16.8,11.6-27.6c-0.2-0.5-0.4-1-0.6-1.4
		l-6.5-13c22.8-3.9,42.3-18.5,52.6-39.1l9.3-18.5l53.7,31.3v48.2c0,54.7-6,109.3-17.9,162.7L334.2,336z M284.6,352v16h-8v-16H284.6z
		 M300.6,352h8v16h-8V352z M172.6,352v16h-8v-16H172.6z M188.6,352h8v16h-8V352z M139,336l-12.6-56.5
		c-11.9-53.4-17.8-108-17.9-162.7V68.6l53.7-31.3l9.3,18.5c10.3,20.7,29.9,35.2,52.6,39.1l-6.5,13c-5.2,10.5-1,23.2,9.5,28.4
		c0.5,0.2,0.9,0.5,1.4,0.7v199H139z M193.2,19.2l29.5,59.1c-16-4-29.5-14.9-36.9-29.7l-9.7-19.4L193.2,19.2z M297,29.2l-9.7,19.4
		c-7.4,14.8-20.9,25.6-36.9,29.7l29.5-59.1L297,29.2z M236.6,105.9l4.6,9.2c1.3,2.5,0.2,5.6-2.3,6.9c-2.5,1.3-5.6,0.2-6.9-2.3
		c-0.7-1.4-0.7-3.2,0-4.6L236.6,105.9z M236.6,70.1L225.5,48h22.1L236.6,70.1z M255.6,32h-38.1l-8-16h54.1L255.6,32z M56.4,150.8
		l10.9,5.4L62.1,177l-18.8,3.1C47.3,170.2,51.7,160.4,56.4,150.8z M17.8,269.1l0.8-4.2c4.3-22.9,10.4-45.5,18.2-67.5l33.1-5.5
		c3.1-0.5,5.7-2.9,6.4-6l8-32c0.9-3.6-0.8-7.4-4.2-9.1l-16.5-8.3c8.1-15.1,17-29.7,26.7-43.8l2.2-3.2v27.2
		c0,40.7,3.3,81.4,9.7,121.6l-20.1-20.1c-3.1-3.1-8.2-3.1-11.3,0c-3.1,3.1-3.1,8.2,0,11.3l0,0l36.2,36.2l-1.3,3.2l-33.1-19.9
		c-3.8-2.3-8.7-1-11,2.7c-2.3,3.8-1,8.7,2.7,11l35.1,21.1l-27.7,66.4l-45.1-12.9l-5.5-16.6C15.7,304.2,14.5,286.4,17.8,269.1z
		 M18.5,369.4L18.5,369.4L18.5,369.4L18.5,369.4z M62.8,382l-40.6-11.6l4.1-16.5l40.6,11.6L62.8,382z M140.6,352h8v16h-8V352z
		 M212.6,368v-16h48v16H212.6z M332.6,368h-8v-16h8V368z M410.3,382l-4.1-16.5l40.6-11.6l4.1,16.5L410.3,382z M454.7,369.4
		L454.7,369.4L454.7,369.4L454.7,369.4z"/>
	<path d="M308.6,112c-17.7,0-32,14.3-32,32s14.3,32,32,32s32-14.3,32-32C340.6,126.3,326.2,112,308.6,112z M308.6,160
		c-8.8,0-16-7.2-16-16s7.2-16,16-16s16,7.2,16,16C324.6,152.8,317.4,160,308.6,160z"/>
</g>
</svg>
