<?xml version="1.0" encoding="utf-8"?>
<!-- Generator: Adobe Illustrator 26.0.0, SVG Export Plug-In . SVG Version: 6.00 Build 0)  -->
<svg version="1.1" id="katman_1" xmlns="http://www.w3.org/2000/svg" xmlns:xlink="http://www.w3.org/1999/xlink" x="0px" y="0px"
	 viewBox="0 0 332.5 552.1" style="enable-background:new 0 0 332.5 552.1;" xml:space="preserve">
<g>
	<path d="M288.1,58.8c0-0.1-0.1-0.1-0.2-0.2c-0.2-0.3-0.5-0.6-0.8-0.8C275.4,49,257.5,42.2,234,37.5c-5.4-12.3-14.7-25-30.1-36.6
		c-0.2-0.2-0.5-0.3-0.7-0.4c-0.1-0.1-0.2-0.1-0.3-0.2c-0.5-0.2-1-0.3-1.5-0.3h-0.1h-70h-0.1c-0.5,0-1,0.1-1.5,0.3
		c-0.1,0-0.2,0.1-0.3,0.2c-0.2,0.1-0.5,0.2-0.7,0.4C113.3,12.4,104,25.2,98.6,37.5c-23.3,4.7-41,11.4-52.7,20.1l0,0
		c-0.1,0.1-0.2,0.1-0.3,0.2c-0.3,0.2-0.5,0.5-0.8,0.8c0,0.1-0.1,0.1-0.2,0.2C42.8,61.4,0,124.2,0,385.1c0,2.4,2,4.4,4.4,4.4h44
		l-9,135.6c0,9.8,9,12.2,11.9,13c2.2,0.6,50.1,14,136.8,14c11.1,0,22.9-0.2,35.2-0.7c2.3-0.1,4.2-2,4.2-4.4v-3
		c34.5-3.7,51.6-9.5,53.8-10.3c3.2-0.8,11.8-3.3,11.8-13.2l-8.9-131h43.9c2.4,0,4.4-2,4.4-4.4C332.7,124.2,289.9,61.3,288.1,58.8
		L288.1,58.8z M188.3,253.8v-26.2h61.2c0.1,8.8,0.4,17.6,1.2,26.2H188.3z M9.4,336.9H52l-1.2,17.5H9C9.2,348.5,9.3,342.7,9.4,336.9
		L9.4,336.9z M52.7,327.9v0.3h-43c4.5-165.7,28-234.3,37.8-256c14.6,41.5,23.5,83.9,27,129.1c0,3.4,0,6.9,0,10.2
		c0.1,26.3,0.3,51.1-8.5,75.8c-1.2,3.3-2.7,6.9-4.2,10.6C57.9,307.5,53.4,318.2,52.7,327.9L52.7,327.9z M83.3,227.6h61.2v26.2H82
		C82.9,245.1,83.2,236.4,83.3,227.6L83.3,227.6z M153.3,253.8v-26.2c0-2.4,2-4.4,4.4-4.4h17.5c2.4,0,4.4,2,4.4,4.4v26.2
		c0,2.4-2,4.4-4.4,4.4h-17.5C155.2,258.2,153.3,256.2,153.3,253.8z M258.2,211.6c0-3.4,0-6.8,0-9.9c3.5-45.6,12.4-88,27.1-129.5
		c9.9,21.5,33.4,89.6,37.8,256h-43v-0.3c-0.8-9.6-5.2-20.4-9.1-29.9c-1.6-3.8-3-7.3-4.2-10.6C258,262.7,258.1,237.8,258.2,211.6
		L258.2,211.6z M280.8,336.9h42.6c0.1,5.7,0.2,11.6,0.3,17.5H282L280.8,336.9z M279.3,63c-16.2,44.2-26,89.4-29.7,138.4
		c0,3.4,0,6.8,0,10.2c0,2.5,0,4.9,0,7.3h-21.8v-43.8c0-0.1-0.1-0.2-0.1-0.3c0-0.4-0.1-0.7-0.2-1.1c-0.1-0.2-0.1-0.4-0.2-0.5
		c0-0.1,0-0.2-0.1-0.2l-23.6-42.3l17.2-8.6c1.1-0.5,1.9-1.5,2.2-2.6c0.4-1.1,0.2-2.4-0.4-3.4l-15-27l22.4,11.2
		c1.1,0.5,2.3,0.6,3.5,0.2c1.1-0.4,2-1.3,2.5-2.4c0.1-0.4,9.4-23.5,1.5-50.8C255.5,51.2,269.5,56.5,279.3,63L279.3,63z M226.7,42.2
		c0,0.1,0.1,0.2,0.1,0.3c8.5,20.5,5,39.3,2.6,47.6l-30.5-15.3c-1.7-0.9-3.8-0.5-5.1,0.9c-1.3,1.4-1.6,3.5-0.7,5.1l19.7,35.4
		l-13.5,6.7l-16-28.9c-0.3-0.5-0.6-0.9-1-1.2c-3.7-3.1-7.1-6.3-10.3-9.4c26.3-28.6,32.4-56.1,33.6-70
		C216.1,22.9,222.7,32.7,226.7,42.2L226.7,42.2z M193.2,30.7h-53.7c-2.8-9.8-3.6-17.5-3.7-21.9h61.3C196.9,13.2,196.1,21,193.2,30.7
		L193.2,30.7z M190.1,39.4c-4.5,11.3-12,24.4-24.2,37.7c-11.9-13.3-19.1-26.4-23.5-37.7H190.1z M127.2,13.5
		c1.4,16.6,9.2,52.2,48.9,85.6l36.3,65.3l-92.5-48.1l19.7-35.4c0.9-1.7,0.7-3.8-0.7-5.1c-1.3-1.4-3.4-1.7-5.1-0.9l-30.4,15.2
		C100,77.9,94.3,42.9,127.2,13.5L127.2,13.5z M95.3,47.2c-7.9,27.4,1.3,50.5,1.5,50.8c0.5,1.1,1.4,2,2.5,2.4s2.4,0.4,3.5-0.2
		L125.2,89l-15,27c-0.6,1-0.7,2.3-0.4,3.4c0.3,1.1,1.1,2.1,2.2,2.6l107,55.6v41.1h-34c-2.4-2.7-5.8-4.4-9.7-4.4h-17.5
		c-3.9,0-7.3,1.7-9.7,4.4H83.5c0-2.4,0-4.9,0-7.3c0-3.4,0-6.8,0-10.5c-3.7-48.6-13.5-93.8-29.7-138C63.3,56.4,77.3,51.2,95.3,47.2
		L95.3,47.2z M8.9,380.7c0-5.9,0.1-11.8,0.1-17.5h41.3l-1.2,17.5H8.9z M53.8,529.6c-5.5-1.4-5.5-3.1-5.5-4.2l13.1-196.9
		c0.6-8.3,4.6-17.9,8.5-27.2c1.6-3.9,3.1-7.6,4.4-11.1c3.3-9.3,5.4-18.5,6.7-27.7h66.9c2.4,2.7,5.8,4.4,9.7,4.4h17.5
		c3.9,0,7.3-1.7,9.7-4.4h34v280.2C114.2,546.4,54.5,529.8,53.8,529.6L53.8,529.6z M279,525.2c-0.1,0-0.3,0.1-0.4,0.1
		c-0.2,0.1-16.5,6-51,9.8V262.6h24.1c1.3,9.2,3.4,18.4,6.7,27.7c1.3,3.5,2.8,7.2,4.4,11.1c3.9,9.3,7.8,18.9,8.5,27.1l13.2,192.2
		C284.5,522.1,284.5,523.8,279,525.2L279,525.2z M283.7,380.7l-1.2-17.5h41.2c0.1,5.7,0.1,11.6,0.1,17.5H283.7z"/>
	<path d="M197,205.7c7.2,0,13.1-5.9,13.1-13.1s-5.9-13.1-13.1-13.1s-13.1,5.9-13.1,13.1S189.8,205.7,197,205.7z M197,188.2
		c2.4,0,4.4,2,4.4,4.4s-2,4.4-4.4,4.4s-4.4-2-4.4-4.4S194.6,188.2,197,188.2z"/>
	<path d="M131.4,205.7c7.2,0,13.1-5.9,13.1-13.1s-5.9-13.1-13.1-13.1s-13.1,5.9-13.1,13.1S124.2,205.7,131.4,205.7z M131.4,188.2
		c2.4,0,4.4,2,4.4,4.4s-2,4.4-4.4,4.4s-4.4-2-4.4-4.4S129,188.2,131.4,188.2z"/>
	<path d="M197,284.5c-7.2,0-13.1,5.9-13.1,13.1s5.9,13.1,13.1,13.1s13.1-5.9,13.1-13.1S204.3,284.5,197,284.5z M197,301.9
		c-2.4,0-4.4-2-4.4-4.4s2-4.4,4.4-4.4s4.4,2,4.4,4.4S199.4,301.9,197,301.9z"/>
	<path d="M131.4,284.5c-7.2,0-13.1,5.9-13.1,13.1s5.9,13.1,13.1,13.1s13.1-5.9,13.1-13.1S138.6,284.5,131.4,284.5z M131.4,301.9
		c-2.4,0-4.4-2-4.4-4.4s2-4.4,4.4-4.4s4.4,2,4.4,4.4S133.8,301.9,131.4,301.9z"/>
	<path d="M197,385.1c-7.2,0-13.1,5.9-13.1,13.1s5.9,13.1,13.1,13.1s13.1-5.9,13.1-13.1S204.3,385.1,197,385.1z M197,402.6
		c-2.4,0-4.4-2-4.4-4.4s2-4.4,4.4-4.4s4.4,2,4.4,4.4S199.4,402.6,197,402.6z"/>
	<path d="M131.4,385.1c-7.2,0-13.1,5.9-13.1,13.1s5.9,13.1,13.1,13.1s13.1-5.9,13.1-13.1S138.6,385.1,131.4,385.1z M131.4,402.6
		c-2.4,0-4.4-2-4.4-4.4s2-4.4,4.4-4.4s4.4,2,4.4,4.4S133.8,402.6,131.4,402.6z"/>
</g>
</svg>
