<?xml version="1.0" encoding="utf-8"?>
<!-- Generator: Adobe Illustrator 26.0.0, SVG Export Plug-In . SVG Version: 6.00 Build 0)  -->
<svg version="1.1" id="katman_1" xmlns="http://www.w3.org/2000/svg" xmlns:xlink="http://www.w3.org/1999/xlink" x="0px" y="0px"
	 viewBox="0 0 496.4 560" style="enable-background:new 0 0 496.4 560;" xml:space="preserve">
<g>
	<path d="M492.3,289.5L392.5,98.9l12.4-39.1L349.4,44l0,0c-6.4-1.8-13.2-1.4-19.4,1c-15.9-24.9-42.2-41.2-71.5-44.4
		s-58.6,7.1-79.4,28c-4.9,4.9-9.3,10.4-13,16.3c-6.1-2.3-12.9-2.7-19.2-0.9L91.2,59.8l12.5,39.6L4.1,289.5
		c-5.9,11.3-5.4,24.9,1.4,35.6c6.8,10.8,18.8,17.1,31.5,16.6s24.2-7.7,30.2-19l67-126.6L155,262l-40.2,130.5L114.4,560h267.2V395.6
		L341,262.1l20.9-66.3l67.2,127c6,11.2,17.5,18.5,30.2,19s24.7-5.8,31.5-16.6C497.7,314.3,498.2,300.8,492.3,289.5L492.3,289.5z
		 M193.5,43.1c16.8-16.7,40.3-24.8,63.9-22s44.4,16.4,56.7,36.7c-0.2,0.4-0.3,0.9-0.5,1.3c-0.9,1.6-1.6,3.4-2.2,5.2
		c-0.2,0.7-0.5,1.4-0.6,2.1c-0.6,2.5-1,5-1,7.5v51l-61.7,79.3l-61.7-79.3v-51c0-2.5-0.4-5-1-7.4c-0.2-0.7-0.4-1.4-0.7-2.2
		c-0.6-1.7-1.3-3.4-2.1-5c-0.2-0.4-0.3-1-0.6-1.4C185.2,52.5,189.1,47.6,193.5,43.1L193.5,43.1z M49.1,313.1
		c-2.5,4.8-7.4,7.8-12.8,8c-5.4,0.2-10.5-2.5-13.4-7c-2.9-4.6-3.1-10.3-0.6-15.1l90.1-172l13.2,41.7L49.1,313.1z M135,539.5V397.2
		l16.7-54.3l29.2,29.2l0,0c4,4,10.5,4,14.5,0s4-10.5,0-14.5l-36.9-36.9l18.1-58.7L117.2,73.8l35.2-10.1c3.6-1.1,7.5-0.2,10.2,2.4
		c2.1,2,3.2,4.8,3.3,7.7V132l71.9,92.5v315H135z M336,315.7c-0.4,0.2-0.7,0.4-1,0.7l-41.1,41.1c-4,4-4,10.5,0,14.5s10.5,4,14.5,0
		l34.3-34.3l18.3,59.5v142.3H258.3v-315l71.9-92.5V73.9c0-3.3,1.6-6.5,4.2-8.4c2.7-2,6.1-2.6,9.3-1.7l35.2,10.1L319.5,262L336,315.7
		z M469.8,318.2L469.8,318.2c-3.5,2.7-8.1,3.6-12.4,2.7c-4.3-1-8-3.8-10.1-7.7l-76.7-144.9l13.2-41.7L474.1,299
		c1.7,3.2,2.2,6.9,1.4,10.4C474.7,312.9,472.7,316,469.8,318.2L469.8,318.2z"/>
</g>
</svg>
