<?xml version="1.0" encoding="utf-8"?>
<!-- Generator: Adobe Illustrator 26.0.0, SVG Export Plug-In . SVG Version: 6.00 Build 0)  -->
<svg version="1.1" id="katman_1" xmlns="http://www.w3.org/2000/svg" xmlns:xlink="http://www.w3.org/1999/xlink" x="0px" y="0px"
	 viewBox="0 0 396.5 511.6" style="enable-background:new 0 0 396.5 511.6;" xml:space="preserve">
<g>
	<path d="M396.2,439.7L341,55.7c-0.2-1.1-0.6-2.1-1.4-2.9c-0.4-0.4-9.8-10.9-24-14l-51.7-16.4c-2.5-1.2-19.1-9.6-27.4-20.3
		c-0.1-0.2-0.4-0.3-0.5-0.4c-0.4-0.4-0.8-0.7-1.2-1c-0.3-0.1-0.5-0.2-0.8-0.3c-0.5-0.2-1-0.3-1.5-0.3c-0.2,0-0.3-0.1-0.5-0.1h-66.9
		c-0.1,0-0.3,0.1-0.4,0.1c-0.5,0-1,0.2-1.5,0.3c-0.3,0.1-0.5,0.2-0.8,0.3c-0.5,0.3-0.9,0.6-1.3,1c-0.2,0.2-0.4,0.2-0.5,0.4
		c-8.3,10.6-24.9,19.1-27.4,20.3L82,38.7c-14.6,3.2-24.1,13.7-24.5,14.1c-0.7,0.8-1.2,1.8-1.3,2.9L0,437.4c-0.2,1.6,0.2,3.1,1.2,4.4
		c1,1.2,2.5,2,4,2.1l46.3,2.6c2.8,0.1,5.3-1.8,5.8-4.5l46.7-245l3.8,13.9c5.2,45.3-6.3,87.2-18.4,131.6c-4.7,17.3-9.6,35.1-13.3,53
		c-5.3,25.3-10.5,61.9-5.1,92.9c0.3,2,1.7,3.7,3.7,4.3c12.5,4.4,58.4,18.9,122.1,18.9h0.1l0,0l0,0c43.3,0,85.6-6.7,125.6-19.9
		c2-0.7,3.4-2.4,3.8-4.4c5-30.7-0.1-66.8-5.3-91.8c-3.7-17.9-8.6-35.8-13.3-53c-12.1-44.4-23.6-86.4-18.4-131.6l4-14.5l49.9,246.3
		c0.5,2.6,2.8,4.5,5.5,4.5h42.1h0.1c3.1,0,5.6-2.5,5.6-5.6C396.5,440.9,396.4,440.2,396.2,439.7L396.2,439.7z M168.2,11.2h61
		l12.7,19.3c-0.3,0.7-0.5,1.5-0.5,2.3c0,24.4-19.9,44.3-44.3,44.3c-24.2,0-43.9-19.5-44.2-43.7L168.2,11.2z M197,88.2
		c26.5,0,48.6-18.7,54.1-43.5l25.6,39.1l-79.1,184.7L117.5,83.9l25.9-37.1C149.7,70.6,171.3,88.2,197,88.2L197,88.2z M47.5,435
		l-35.2-2l1.3-9.1l35.7,1.7L47.5,435z M191.4,500.3c-54.6-0.7-94.7-12.1-109.7-17.1c-4.4-30.1,1.5-66.2,5.6-85.4
		c3.7-17.6,8.5-35.3,13.2-52.4c11.9-43.6,24.3-88.7,18.7-136.3c0-0.3-0.1-0.6-0.2-0.8l-10.1-36.7c0.2-4.7-0.1-22.5-14.3-51.8
		c-1.3-2.8-4.7-3.9-7.5-2.6c-2.8,1.3-3.9,4.7-2.6,7.5c14.2,29.3,13.3,45.4,13.2,46.7L51.3,414.6c-0.2,0-0.4-0.2-0.7-0.2l-35.5-1.7
		l52-353.6c2.5-2.3,9-7.7,17.9-9.7l52-16.5c0.2-0.1,1.8-0.8,3.3-1.6L106.5,80c-1.1,1.6-1.3,3.6-0.5,5.4l86.7,200
		c-8,1.9-14,9-14,17.6c0,8,5.3,14.8,12.5,17.2L191.4,500.3L191.4,500.3z M197,310c-3.8,0-6.9-3.1-6.9-6.9s3.1-6.9,6.9-6.9
		s6.9,3.1,6.9,6.9C204,306.9,200.8,310,197,310z M348.5,412.6l-48.3-238.5c0.8-5.8,4-20.5,17.7-42.4c1.6-2.6,0.8-6.1-1.8-7.7
		c-2.6-1.6-6.1-0.8-7.7,1.8c-12.3,19.8-16.9,34.4-18.6,42.9c-0.5,0.6-0.9,1.2-1.1,2l-10.3,37.6c-0.1,0.3-0.1,0.5-0.2,0.8
		c-5.6,47.6,6.8,92.7,18.7,136.3c4.7,17.1,9.5,34.8,13.2,52.4c4.8,23.1,9.6,56,5.7,84.3c-36.2,11.6-74.3,17.6-113.3,18.2V320.2
		c7.2-2.4,12.5-9.1,12.5-17.2c0-7.5-4.6-14-11.1-16.7c0.3-1.2,0.4-2.5-0.2-3.7l84.4-197.2c0.7-1.7,0.6-3.7-0.5-5.3L255,30.4
		c2.5,1.3,4.8,2.4,5,2.5l52.5,16.7c8.6,1.9,15,7.2,17.4,9.6l51,355L348.5,412.6z M353.3,436l-2.4-12l32,1.6l1.5,10.4H353.3
		L353.3,436z"/>
</g>
</svg>
