<?xml version="1.0" encoding="utf-8"?>
<!-- Generator: Adobe Illustrator 26.0.0, SVG Export Plug-In . SVG Version: 6.00 Build 0)  -->
<svg version="1.1" id="katman_1" xmlns="http://www.w3.org/2000/svg" xmlns:xlink="http://www.w3.org/1999/xlink" x="0px" y="0px"
	 viewBox="0 0 535.7 560.1" style="enable-background:new 0 0 535.7 560.1;" xml:space="preserve">
<g>
	<path d="M235.5,560.1c-0.9,0-1.9-0.1-2.8-0.2l-106.4-15.3c-10-2-16.7-10.5-16.1-19.9l14-262.5l-41-183.1c-1-4.4,1.3-8.9,5.4-10.7
		L173.3,31c4.8-2.1,10.3,0.1,12.4,4.8c2.1,4.8-0.1,10.3-4.8,12.4l-77.6,34.3l39.5,176.8c0.2,0.8,0.3,1.7,0.2,2.6l-14.1,264
		l106.3,15.4l23.2-80.8c1.4-5,6.7-7.9,11.7-6.4c5,1.4,7.9,6.7,6.5,11.7l-23.3,80.9C251.2,554.6,243.9,560.1,235.5,560.1L235.5,560.1
		z"/>
	<path d="M300.1,560.1c-8.6,0-16-5.5-18.3-13.8l-23.3-80.7c-1.4-5,1.4-10.2,6.5-11.7c5-1.5,10.2,1.4,11.7,6.4l23.3,80.9l106.6-15.3
		l-14.1-264c0-0.9,0-1.7,0.2-2.5l39.2-176.9l-77.6-34.3c-4.8-2.1-6.9-7.7-4.8-12.4c2.1-4.8,7.7-6.9,12.4-4.8l84.7,37.4
		c4.1,1.8,6.4,6.3,5.4,10.7l-40.7,183l14,262.7c0.6,9.2-6.1,17.7-15.5,19.7l-106.9,15.4C301.9,560,301,560.1,300.1,560.1
		L300.1,560.1z"/>
	<path d="M79.4,469.9c-29.6,0-53.3-5.6-74.6-17.5c-3.4-1.9-5.3-5.7-4.7-9.6c22.6-156.1,59.2-300.7,83.5-369c1.7-4.9,7.2-7.4,12-5.7
		c4.9,1.8,7.5,7.1,5.7,12.1C77.6,146.7,42.1,286.7,19.6,439c15.2,7.4,32.2,11.3,52.5,12l52.4-192c1.4-5,6.6-8,11.6-6.6
		s8,6.6,6.6,11.6L88.4,463.1C87.4,467,83.7,469.9,79.4,469.9L79.4,469.9z"/>
	<path d="M177.2,49c-2.4,0-4.8-0.9-6.6-2.7c-3.7-3.7-3.7-9.6-0.1-13.3l29.7-30c3.7-3.7,9.6-3.7,13.3-0.1c3.7,3.7,3.7,9.6,0.1,13.3
		l-29.7,30C182,48.1,179.6,49,177.2,49L177.2,49z"/>
	<path d="M358.1,49c-2.4,0-4.9-0.9-6.7-2.8L324.5,19H207c-5.2,0-9.4-4.2-9.4-9.4s4.2-9.4,9.4-9.4h121.4c2.5,0,4.9,1,6.7,2.8l29.7,30
		c3.7,3.7,3.6,9.7-0.1,13.3C362.9,48.1,360.5,49,358.1,49L358.1,49z"/>
	<path d="M455.9,469.9c-4.3,0-8-2.9-9.1-7l-54-199.1c-1.4-5,1.6-10.2,6.6-11.6c5-1.3,10.2,1.6,11.6,6.6l52.1,192
		c20.4-0.7,37.4-4.6,52.8-12c-23.2-154.7-58.6-294-82-358.7c-1.8-4.9,0.8-10.3,5.7-12.1c4.9-1.7,10.3,0.8,12.1,5.7
		c24,66.5,60.5,210.4,83.9,369c0.6,3.9-1.3,7.7-4.8,9.6C509.2,464.3,485.4,469.9,455.9,469.9L455.9,469.9z"/>
	<path d="M267.6,136.6c-0.9,0-1.7-0.1-2.6-0.4l-71.2-20.1c-3-0.8-5.4-3.1-6.4-6s-0.5-6.2,1.3-8.6l8.6-11.7L179,79.9
		c-2.5-1.3-4.2-3.7-4.8-6.4l-6.4-32c-1-5.1,2.3-10.1,7.4-11.1c5.1-1,10.1,2.3,11.1,7.4l5.5,27.6l23.9,12.9c2.4,1.3,4.1,3.6,4.7,6.2
		c0.6,2.7,0,5.4-1.6,7.6l-7,9.5l37.3,10.5l-50.8-98.3c-2.4-4.6-0.6-10.3,4.1-12.7c4.6-2.4,10.3-0.6,12.7,4.1l60.7,117.6
		c1.7,3.3,1.3,7.4-1.1,10.3C273.1,135.3,270.4,136.6,267.6,136.6L267.6,136.6z"/>
	<path d="M267.6,136.6c-2.8,0-5.5-1.2-7.3-3.5c-2.4-2.9-2.8-6.9-1.1-10.3L320,5.2c2.4-4.6,8-6.4,12.7-4.1c4.6,2.4,6.4,8.1,4.1,12.7
		L286,112.1l37.4-10.6l-6.8-9.5c-1.6-2.2-2.1-5-1.5-7.6s2.3-4.9,4.7-6.2l23.9-12.9l5.2-27.5c1-5.1,5.9-8.5,11-7.5s8.5,5.9,7.5,11
		l-6.1,32c-0.5,2.8-2.3,5.2-4.8,6.5l-18.4,9.9l8.4,11.8c1.8,2.5,2.3,5.7,1.2,8.6c-1,2.9-3.4,5.1-6.3,6l-71.3,20.1
		C269.4,136.4,268.5,136.6,267.6,136.6L267.6,136.6z"/>
	<path d="M267.6,472.4c-0.9,0-1.7-0.1-2.6-0.4c-5-1.4-7.9-6.7-6.5-11.7c30.3-105.9,30.3-211-0.1-331c-1.3-5,1.8-10.2,6.8-11.4
		c5-1.3,10.2,1.8,11.4,6.8c31.2,123.3,31.2,231.6-0.1,340.8C275.5,469.7,271.7,472.4,267.6,472.4L267.6,472.4z"/>
	<path d="M259.7,321.9h-3.2c-5.2,0-9.4-4.2-9.4-9.4s4.2-9.4,9.4-9.4h3.2c5.2,0,9.4,4.2,9.4,9.4C269.1,317.7,264.9,321.9,259.7,321.9
		z"/>
	<path d="M253.9,238.8h-3.2c-5.2,0-9.4-4.2-9.4-9.4s4.2-9.4,9.4-9.4h3.2c5.2,0,9.4,4.2,9.4,9.4S259.1,238.8,253.9,238.8z"/>
	<path d="M252.3,405h-3.2c-5.2,0-9.4-4.2-9.4-9.4s4.2-9.4,9.4-9.4h3.2c5.2,0,9.4,4.2,9.4,9.4C261.7,400.8,257.5,405,252.3,405z"/>
</g>
</svg>
