<?xml version="1.0" encoding="utf-8"?>
<!-- Generator: Adobe Illustrator 26.0.0, SVG Export Plug-In . SVG Version: 6.00 Build 0)  -->
<svg version="1.1" id="katman_1" xmlns="http://www.w3.org/2000/svg" xmlns:xlink="http://www.w3.org/1999/xlink" x="0px" y="0px"
	 viewBox="0 0 528.4 500.2" style="enable-background:new 0 0 528.4 500.2;" xml:space="preserve">
<g>
	<path d="M335.4,394c0,1.8,1.5,3.3,3.3,3.3h56.5c1.8,0,3.3-1.5,3.3-3.3s-1.5-3.3-3.3-3.3h-56.5C336.9,390.7,335.4,392.1,335.4,394z"
		/>
	<path d="M201.1,390.7h-56.5c-1.8,0-3.3,1.5-3.3,3.3s1.5,3.3,3.3,3.3h56.5c1.8,0,3.3-1.5,3.3-3.3S202.9,390.7,201.1,390.7z"/>
	<path d="M275.1,222.6c0-6.6-5.3-11.9-11.9-11.9c-6.5,0-11.9,5.3-11.9,11.9c0,6.5,5.3,11.9,11.9,11.9
		C269.7,234.4,275.1,229.1,275.1,222.6L275.1,222.6z M257.9,222.6c0-2.9,2.4-5.3,5.3-5.3s5.3,2.4,5.3,5.3c0,2.9-2.4,5.3-5.3,5.3
		C260.3,227.9,257.9,225.5,257.9,222.6z"/>
	<path d="M276.6,296.5c-6.6,0-11.9,5.3-11.9,11.9c0,6.5,5.3,11.9,11.9,11.9c6.5,0,11.9-5.3,11.9-11.9
		C288.5,301.8,283.2,296.5,276.6,296.5z M276.6,313.7c-2.9,0-5.3-2.4-5.3-5.3s2.4-5.3,5.3-5.3s5.3,2.4,5.3,5.3
		C281.9,311.3,279.6,313.7,276.6,313.7z"/>
	<path d="M271.8,381.4c-6.6,0-11.9,5.3-11.9,11.9c0,6.5,5.3,11.9,11.9,11.9c6.5,0,11.9-5.3,11.9-11.9
		C283.7,386.8,278.3,381.4,271.8,381.4z M271.8,398.6c-2.9,0-5.3-2.4-5.3-5.3s2.4-5.3,5.3-5.3s5.3,2.4,5.3,5.3
		C277.1,396.3,274.7,398.6,271.8,398.6z"/>
	<path d="M517.9,198.4c-9.8-37.9-31.1-96-76.6-157.3c0-0.1-0.1-0.1-0.1-0.1c-0.1-0.1-0.2-0.2-0.3-0.3c-0.1-0.1-0.1-0.1-0.2-0.2
		c-0.1-0.1-0.2-0.2-0.3-0.2l-0.1-0.1C402.9,20,364.2,6.5,325.2,0.1c-1.5-0.2-3,0.6-3.6,2l-13.2,33c-13.4,13.7-27.7,20.6-42.8,20.6
		h-0.5c-23.8-0.2-42.1-17.7-45-20.6l-13.2-33c-0.6-1.4-2.1-2.3-3.6-2c-39,6.4-77.7,19.9-115.1,40.1c-0.1,0-0.1,0.1-0.2,0.1l-0.1,0.1
		c-0.4,0.3-0.7,0.6-1,1c-45.4,61.2-66.6,119.1-76.4,156.9C-0.2,239.5,0,265.8,0,266.9c0,1.7,1.3,3.1,3,3.2l40.4,3.5
		c1.6,0.1,3.1-0.9,3.5-2.5c22-96.7,53.4-146.9,64.1-161.9c29.8,101.9,22.1,209.6-24.3,338.1c-0.5,1.4,0,3.1,1.3,3.9
		c51.8,33,104.6,49,161.3,49c4.9,0,9.9-0.1,14.9-0.4c5,0.2,10,0.4,14.9,0.4c56.8,0,109.5-16,161.3-49c1.3-0.8,1.8-2.4,1.3-3.9
		c-46.3-128.5-54.1-236.2-24.2-338.1c10.7,15.1,42.1,65.4,64,161.9c0.4,1.6,1.8,2.7,3.5,2.5l40.4-3.5c1.7-0.1,3-1.5,3-3.2
		C528.4,265.9,528.6,239.6,517.9,198.4L517.9,198.4z M265,62.3c0.2,0,0.4,0,0.6,0c13.1,0,25.6-4.6,37.3-13.5l-8.2,20.6l-30.5,76.1
		l-38.9-97.4C234.2,54.5,248.2,62.1,265,62.3L265,62.3z M41.1,267l-34.5-3c0.7-17.6,7.7-111.2,82.2-214.1l19.6,51.6
		C101.3,110.8,65.7,160.7,41.1,267L41.1,267z M262.1,493.5c-4.3,0.2-8.6,0.3-12.8,0.3c-54.6,0-105.5-15.2-155.6-46.6
		c47-131.4,53.8-241.3,21.7-345.8c0-0.2-0.1-0.5-0.2-0.7C109.4,82,102.5,63.6,94,44.6C129.1,26,165.3,13.4,201.8,7.1l12.4,31
		c0,0,0,0,0,0.1l47,117.4l0,0c0.2,0.5,18.8,47.1,28,112.1C297.7,327.2,299.8,414.5,262.1,493.5L262.1,493.5z M413.1,101.1
		L413.1,101.1c0,0.1,0,0.1,0,0.1c-32.2,104.6-25.4,214.6,21.6,346c-50,31.4-100.9,46.6-155.6,46.6c-3.2,0-6.5-0.1-9.8-0.2
		c16.1-34.7,26.2-73.5,30-115.6c3.1-35.1,2-72.5-3.6-111.1c-8.5-59.9-25-104.6-28-112.4l33-82.6l13.4-33.4c0.1-0.2,0.1-0.3,0.2-0.5
		l12.4-30.9c36.4,6.3,72.7,19,107.8,37.5C425.8,64,418.8,82.5,413.1,101.1L413.1,101.1z M487.3,267
		c-24.5-105.8-60.2-156.2-67.3-165.4L439.6,50c42.4,58.5,62.5,113.6,71.9,149.9c8.5,32.6,10,56.2,10.3,64.2L487.3,267z"/>
</g>
</svg>
