<?xml version="1.0" encoding="utf-8"?>
<!-- Generator: Adobe Illustrator 26.0.0, SVG Export Plug-In . SVG Version: 6.00 Build 0)  -->
<svg version="1.1" id="katman_1" xmlns="http://www.w3.org/2000/svg" xmlns:xlink="http://www.w3.org/1999/xlink" x="0px" y="0px"
	 viewBox="0 0 350.1 525.1" style="enable-background:new 0 0 350.1 525.1;" xml:space="preserve">
<g>
	<path d="M131.3,210.1h17.5v17.5h-17.5V210.1z"/>
	<path d="M350.1,332l-16-224.5c-1.1-15.6-9.1-29.9-21.9-39l-44.3-31.7L224.3,1.9c-1.6-1.2-3.5-1.9-5.5-1.9l0,0h-87.5l0,0
		c-2,0-3.9,0.7-5.5,1.9L82.2,36.8L37.9,68.5c-12.7,9.1-20.8,23.4-21.9,39L0,332c-0.3,4.1,2.3,7.9,6.3,9l53.9,15.4l-16.5,159l0,0
		c-0.3,2.5,0.5,4.9,2.2,6.8s4,2.9,6.5,2.9h245c2.5,0,4.8-1.1,6.5-2.9c1.7-1.8,2.5-4.3,2.2-6.8l-16.5-159l53.9-15.4
		C347.7,339.9,350.4,336.1,350.1,332L350.1,332z M266.5,95.4c3-1.5,4.8-4.5,4.8-7.8V60.9L302,82.8c8.5,6.1,13.8,15.6,14.6,26
		l12.8,179.8l-45.2,13.6l-4.1-39.3l17.3-112.6l-17.3-2.7l-16.4,106.3h-80v-48.3l75.4-58.6c2.6-2,3.9-5.4,3.2-8.6l-7.4-37.2
		L266.5,95.4z M280.7,437.6h-9.3c-4.6,0-9.1-1.9-12.4-5.1s-5.1-7.7-5.1-12.4v-35h21.4L280.7,437.6z M201.4,271.4h62.1l1.8,17.5
		h-63.9V271.4z M166.4,288.9v-17.5h17.5v17.5H166.4z M203.9,35.1h-57.6l-4-17.5h65.6L203.9,35.1z M199.9,52.6l-24.8,109.3
		L150.3,52.6H199.9z M224.3,24.4l29.6,23.7v34.1l-12.7,6.3c-3.5,1.8-5.4,5.7-4.7,9.5l7.7,38.4l-55.1,43L224.3,24.4z M96.4,48.1
		L126,24.5l35.2,155l-55.1-42.9l7.7-38.4c0.8-3.9-1.1-7.8-4.7-9.5l-12.7-6.3V48.1z M33.6,108.8c0.7-10.4,6.1-19.9,14.6-26l30.7-21.9
		v26.7c0,3.3,1.9,6.3,4.8,7.8l11.5,5.8l-7.4,37.2l0,0c-0.6,3.2,0.6,6.6,3.2,8.6l75.4,58.6v48.2h-80L70,147.5l-17.3,2.7L70,262.8
		l-4.1,39.3l-45.1-13.5L33.6,108.8z M148.9,288.9H85l1.8-17.5h62.1V288.9z M75,385.1h21.4v35c0,4.6-1.9,9.1-5.1,12.4
		s-7.7,5.1-12.4,5.1h-9.3L75,385.1z M18.1,326.1l1.4-19.7l44.6,13.4l-2,18.9L18.1,326.1z M67.7,455.1h11.1c9.3,0,18.2-3.7,24.7-10.3
		c6.6-6.6,10.2-15.5,10.3-24.7v-43.8c0-2.3-0.9-4.5-2.6-6.2s-3.9-2.6-6.2-2.6H76.7l6.3-61.2h83.2v201.3H62.3L67.7,455.1z
		 M183.9,507.6V306.4h83.2l6.3,61.2h-28.3c-4.8,0-8.8,3.9-8.8,8.8v43.8c0,9.3,3.7,18.2,10.3,24.7c6.6,6.6,15.5,10.2,24.7,10.3h11.1
		l5.4,52.5L183.9,507.6L183.9,507.6z M288,338.7l-2-18.9l44.6-13.4l1.4,19.7L288,338.7z"/>
</g>
</svg>
