<?xml version="1.0" encoding="utf-8"?>
<!-- Generator: Adobe Illustrator 26.0.0, SVG Export Plug-In . SVG Version: 6.00 Build 0)  -->
<svg version="1.1" id="katman_1" xmlns="http://www.w3.org/2000/svg" xmlns:xlink="http://www.w3.org/1999/xlink" x="0px" y="0px"
	 viewBox="0 0 408.5 548.3" style="enable-background:new 0 0 408.5 548.3;" xml:space="preserve">
<g>
	<path d="M375.7,168.6c-7-35.6-24.9-68-51.2-92.9c-2.2-9.8-8.6-18.2-17.5-22.9l-11.6-6l0,0c0.1-1.9-0.6-3.8-2-5.1l-31.6-29.8
		c-0.6-0.6-1.3-1-2.1-1.3c-35.5-14.2-75.1-14.2-110.6,0c-0.8,0.3-1.5,0.8-2.1,1.3l-31.6,29.8c-1.4,1.3-2.1,3.2-2,5.1l-11.6,6
		c-8.9,4.7-15.3,13-17.5,22.9c-26.3,24.9-44.2,57.4-51.2,92.9L0.1,340.1C0,341,0,342,0.1,343c0.6,2.7,2.9,4.7,5.7,5l53,6
		c-6.9,36.8-13,73.4-18.4,106c-1.2,7.2-2.3,14.1-3.5,20.7L30.1,522c-0.5,3,0.3,6.1,2.1,8.5s4.6,4,7.6,4.3L163.9,548
		c1.2,0.1,2.3,0.2,3.5,0.2c6.2,0,12.3-1.8,17.5-5.3c5.2-3.4,9.3-8.3,11.7-14.1l7.7-18l7.8,18.1c2.4,5.7,6.5,10.6,11.7,14.1
		c5.2,3.4,11.3,5.3,17.5,5.3c1.1,0,2.1-0.1,3.2-0.2l124.4-12.5c2-0.2,3.9-0.9,5.5-2c3.2-2.4,4.8-6.4,4.1-10.4l-6.9-37.3
		c-1.7-10.2-3.5-21.1-5.4-32.6c-5-30.6-10.7-65-17-99.3l53.5-6.1c2.8-0.3,5-2.3,5.7-5c0.2-0.9,0.2-1.9,0-2.9L375.7,168.6z
		 M260.2,28.5l19.5,18.4l-17.1,18.4l0,0c-2.1,2.3-2.3,5.7-0.6,8.2l14.1,20l-56.9,50.8L260.2,28.5z M249,20.7l-5.4,15.2
		c-25.6-7-52.7-7-78.3,0l-5.4-15.2l0,0C188.8,10.7,220.2,10.7,249,20.7L249,20.7z M148.8,28.5l41,115.8l-56.9-50.8l14.1-20l0,0
		c1.8-2.5,1.6-6-0.6-8.2l-17.1-18.4L148.8,28.5z M14.6,335.9l31.6-164.7c5.6-28.8,19-55.4,38.8-77.1l9,59.6c1.4,8.4,2,16.8,2,25.3
		c0,15.7-2.3,31.3-7,46.2c-9,29.2-18,67.2-27.5,116.1L14.6,335.9z M197.9,200.1H193v-1.2c0-3.6-2.9-6.6-6.6-6.6s-6.6,2.9-6.6,6.6
		v15.4c0,3.6,2.9,6.6,6.6,6.6s6.6-2.9,6.6-6.6v-1.2h4.9v39.6H193v-1.2c0-3.6-2.9-6.6-6.6-6.6s-6.6,2.9-6.6,6.6v15.5
		c0,3.6,2.9,6.6,6.6,6.6s6.6-2.9,6.6-6.6v-1.2h4.9v50.1H193v-1.2c0-3.6-2.9-6.6-6.6-6.6s-6.6,2.9-6.6,6.6v15.6
		c0,3.6,2.9,6.6,6.6,6.6s6.6-2.9,6.6-6.6V329h4.9v164l-13.2,30.8c-1.6,3.7-4.3,6.8-7.7,8.8c-3.5,2-7.5,2.9-11.5,2.4L43.6,522
		l6.6-39.1c1.1-6.6,2.3-13.6,3.5-20.8c5.7-34.5,12.2-73.6,19.7-112.6c9.8-51.3,19-90.7,28.3-120.6c5-16.2,7.6-33.1,7.6-50.1
		c0-9.1-0.7-18.3-2.2-27.3l-9.9-65.4l0,0c-0.3-2-0.3-4.1,0-6.1c1-6.6,5.1-12.4,11-15.5l13.3-6.9l11.7,12.7l-14.4,20.4
		c-1.9,2.7-1.5,6.5,1,8.7l78.1,69.8L197.9,200.1z M169.7,48.4c22.8-6.1,46.7-6.1,69.5,0l-34.7,98.2L169.7,48.4z M347,341.2
		c-9.4-49.5-18.2-87.5-27-116.1l0,0c-4.6-15-7-30.6-7-46.2c0-3.6-2.9-6.6-6.6-6.6s-6.6,2.9-6.6,6.6c0,17,2.5,33.9,7.6,50.1
		c9,29.2,18.1,68.7,27.8,120.7c6.8,36.4,12.9,73.3,18.2,105.9c1.9,11.5,3.7,22.5,5.4,32.8l6.4,34.7l-121.8,12.1l0,0
		c-4,0.4-8-0.5-11.4-2.5s-6.1-5.1-7.7-8.8L211,493.1v-164h9.3c3.6,0,6.6-2.9,6.6-6.6s-2.9-6.6-6.6-6.6H211v-50.1h9.3
		c3.6,0,6.6-2.9,6.6-6.6s-2.9-6.6-6.6-6.6H211v-39.6h9.3c3.6,0,6.6-2.9,6.6-6.6s-2.9-6.6-6.6-6.6H211v-30.8l78.1-69.8
		c2.5-2.2,2.9-5.9,1-8.7l-14.3-20.2l11.8-12.7l13.3,6.9c6,3.1,10.1,8.9,11,15.5c0.3,2,0.3,4.1,0,6.1l-9.9,65.4l0,0
		c-0.3,1.7,0.2,3.5,1.2,4.9s2.6,2.4,4.3,2.6c1.7,0.3,3.5-0.2,4.9-1.2s2.3-2.6,2.6-4.3l9-59.5c19.7,21.7,33.1,48.4,38.8,77.1
		l31.6,164.7L347,341.2z"/>
	<path d="M250,318.2v46.9c0,11.5,6.1,22.1,16.1,27.8c9.9,5.7,22.2,5.7,32.2,0c9.9-5.7,16.1-16.4,16.1-27.8v-46.9
		c0-3.6-2.9-6.6-6.6-6.6h-51.2C252.9,311.6,250,314.5,250,318.2L250,318.2z M263.1,324.8h38.1v10.1h-38.1V324.8z M263.1,348h38.1
		v17.1l0,0c0,6.8-3.6,13.1-9.5,16.5s-13.1,3.4-19,0s-9.5-9.7-9.5-16.5L263.1,348z"/>
	<path d="M94.7,318.2v46.9c0,11.5,6.1,22.1,16.1,27.8c9.9,5.7,22.2,5.7,32.2,0c9.9-5.7,16.1-16.4,16.1-27.8v-46.9
		c0-3.6-2.9-6.6-6.6-6.6h-51.2C97.6,311.6,94.7,314.5,94.7,318.2L94.7,318.2z M107.8,324.8h38.1v10.1h-38.1L107.8,324.8z M107.8,348
		h38.1v17.1l0,0c0,6.8-3.6,13.1-9.5,16.5s-13.1,3.4-19,0s-9.5-9.7-9.5-16.5L107.8,348z"/>
	<path d="M124.3,168.6c-1.7,0-3.4,0.8-4.6,2c-1.2,1.3-1.9,2.9-1.8,4.7c0.4,19.1-2.3,38.1-7.9,56.3c-1.1,3.5,0.9,7.1,4.3,8.2
		c3.5,1.1,7.1-0.9,8.2-4.3c6-19.6,8.9-40,8.5-60.5C130.9,171.4,127.9,168.4,124.3,168.6L124.3,168.6z"/>
	<path d="M115.6,150.1c0.4,2.4,0.7,4.9,1,7.4c0.4,3.6,3.7,6.2,7.3,5.7c3.6-0.4,6.2-3.7,5.7-7.3c-0.3-2.7-0.7-5.3-1.1-7.9l0,0
		c-0.6-3.6-4-6-7.5-5.4C117.4,143.2,115,146.6,115.6,150.1L115.6,150.1z"/>
</g>
</svg>
