<?xml version="1.0" encoding="utf-8"?>
<!-- Generator: Adobe Illustrator 26.0.0, SVG Export Plug-In . SVG Version: 6.00 Build 0)  -->
<svg version="1.1" id="katman_1" xmlns="http://www.w3.org/2000/svg" xmlns:xlink="http://www.w3.org/1999/xlink" x="0px" y="0px"
	 viewBox="0 0 434.3 536" style="enable-background:new 0 0 434.3 536;" xml:space="preserve">
<g>
	<path d="M64.3,465.2H5.5c-1.5,0-2.9-0.6-4-1.7c-1-1.1-1.6-2.6-1.5-4.1l18.3-330.5c0-21.4,9.7-40.2,28-54.5l0,0
		c8.3-6.4,17.5-11.5,27.3-15.1l36.9-16.6c2.8-1.2,6,0,7.2,2.8s0,6-2.8,7.2L77.7,69.4l0,0c-0.2,0.1-0.4,0.2-0.6,0.2
		c-8.8,3.2-17.1,7.8-24.5,13.6C37.2,95.6,29.3,111,29.3,129.1c0,0.1,0,0.2,0,0.3l-18,324.8h53c3,0,5.5,2.4,5.5,5.5
		C69.7,462.7,67.3,465.2,64.3,465.2L64.3,465.2z"/>
	<path d="M428.9,465.2h-59.5c-3,0-5.5-2.4-5.5-5.5c0-3,2.4-5.5,5.5-5.5h53.7l-19.8-323.7v-0.3c0-43.8-45.9-60.4-46.4-60.5l-0.4-0.2
		l-37.2-16.7l0,0c-1.3-0.6-2.4-1.7-2.9-3c-0.5-1.4-0.5-2.9,0.1-4.2c1.2-2.8,4.5-4,7.2-2.8l37,16.6l0,0c9.6,3.8,18.5,9.1,26.5,15.7
		c17.6,14.7,27,33.6,27,54.9l20.1,329.4c0.1,1.5-0.4,3-1.5,4.1C431.9,464.6,430.4,465.2,428.9,465.2L428.9,465.2z"/>
	<path d="M182.4,309.4c-2.7,0-4.9-1.9-5.4-4.6c-21.4-127.6-76.9-193-77.5-193.6c-1.8-2.1-1.8-5.2,0.1-7.3l24-25.9L105,68.3
		c-2.3-1.2-3.5-3.9-2.7-6.4c10.5-34.5,31.8-49.4,47.8-55.9l0,0c10.4-4.3,21.6-6.3,32.8-5.8c3,0.3,5.3,2.9,5,5.9s-2.9,5.3-5.9,5
		c-2-0.2-49.1-3.4-67.8,49.7l20.9,10.9c1.5,0.8,2.5,2.2,2.8,3.9c0.3,1.6-0.2,3.3-1.3,4.6L111,107.9c5.2,6.7,16.2,22.1,28.8,46.4
		c15.7,30.2,36.7,80.6,48.1,148.8c0.5,3-1.5,5.8-4.5,6.3C183,309.4,182.7,309.4,182.4,309.4L182.4,309.4z"/>
	<path d="M374.9,536l-123.3-0.8c-3,0-5.5-2.4-5.5-5.5V225.3v-2.1c0.3-50,8.4-99.2,17.2-144.9c2.5-13,5.3-26.4,8.3-40
		c1.6-7.1,0.1-14.9-3.9-20.3l0,0c-3.7-4.7-9.4-7.4-15.4-7.1h-70.8c-6-0.2-11.7,2.4-15.4,7.2c-4.1,5.9-5.5,13.3-3.9,20.3
		c3,13.6,5.8,27,8.3,40c8.8,45.7,16.9,94.9,17.2,144.9v2.1v304.4c0,1.4-0.6,2.8-1.6,3.9c-1,1-2.4,1.6-3.9,1.6l-123,0.7
		c-3,0-5.5-2.4-5.5-5.5s2.4-5.5,5.5-5.5l117.7-0.7v-299v-2c-0.3-49.1-8.3-97.7-17-142.9c-2.5-12.9-5.2-26.2-8.2-39.7
		c-2.3-10.1,0-21.3,5.8-29.1C163.3,4,172.4-0.3,182,0h70.1c9.6-0.4,18.7,4,24.5,11.6c5.8,7.9,8,19,5.8,29.1
		c-3,13.5-5.7,26.8-8.2,39.7c-8.7,45.2-16.7,93.8-17,142.9v2v298.9l117.8,0.7c3,0,5.5,2.4,5.5,5.5S377.9,536,374.9,536L374.9,536z"
		/>
	<path d="M359.6,312.7c-3,0-5.4-2.4-5.5-5.3c-1.8-73,3.4-133.1,15.5-178.6c0.3-1.4,1.2-2.7,2.5-3.4c1.3-0.8,2.8-1,4.2-0.6
		c1.4,0.4,2.6,1.3,3.4,2.6c0.7,1.3,0.9,2.8,0.5,4.2c-11.9,44.4-17,103.5-15.2,175.5c0,1.5-0.5,2.9-1.5,3.9s-2.4,1.7-3.8,1.7H359.6z"
		/>
	<path d="M374.4,536c-2.9,0-5.2-2.2-5.5-5c-0.1-1.1-9.2-111.7-13.3-184.4c-0.2-3,2.1-5.6,5.2-5.8c3-0.2,5.6,2.1,5.8,5.2
		c4.1,72.5,13.2,183,13.3,184.1l0,0c0.1,1.4-0.3,2.9-1.3,4s-2.3,1.8-3.7,1.9L374.4,536z"/>
	<path d="M251.6,309.4c-0.3,0-0.6,0-0.9-0.1c-3-0.5-5-3.3-4.5-6.3c11.4-68.1,32.5-118.5,48.1-148.8c12.6-24.3,23.6-39.8,28.8-46.4
		l-25.6-27.7l0,0c-1.2-1.2-1.7-3-1.4-4.7c0.3-1.7,1.4-3.1,2.9-3.9l20.9-10.9c-7.7-22-21.2-37-40.1-44.7l0,0
		c-8.8-3.6-18.3-5.3-27.8-4.9c-3,0.3-5.7-2-6-5s2-5.7,5-5.9c11.2-0.5,22.4,1.5,32.8,5.8c16,6.5,37.3,21.4,47.8,55.9l0,0
		c0.8,2.5-0.4,5.2-2.7,6.4l-18.6,9.7l24,26c1.9,2,1.9,5.2,0.1,7.3c-0.6,0.6-56.2,66.3-77.5,193.6
		C256.6,307.4,254.3,309.4,251.6,309.4L251.6,309.4z"/>
	<path d="M251.6,519.5h-69.2c-3,0-5.5-2.4-5.5-5.5c0-3,2.4-5.5,5.5-5.5h69.2c3,0,5.5,2.4,5.5,5.5
		C257.1,517.1,254.6,519.5,251.6,519.5z"/>
	<path d="M161.6,64.8c-3,0.1-5.6-2.2-5.7-5.2s2.2-5.6,5.2-5.7c0.6-0.1,55.9-5.5,111.6,0c3,0.3,5.2,3,4.9,6c-0.3,3-3,5.2-6,4.9
		c-54.6-5.3-108.9,0-109.4,0C162.2,64.8,161.6,64.8,161.6,64.8z"/>
	<path d="M330.1,214.1h-53.6c-3,0-5.5-2.4-5.5-5.5c0-3,2.4-5.5,5.5-5.5h53.6c3,0,5.5,2.4,5.5,5.5
		C335.5,211.7,333.1,214.1,330.1,214.1z"/>
	<path d="M328.3,352.7c-4.4,0.1-8.8-1.3-12.3-3.9c-2.9-2.3-6.6-6.8-7-15.2c-0.9-16.6-0.9-22.6-0.9-22.9c0-2.9,2.3-5.3,5.2-5.5
		l58.2-2.9c1.5-0.1,2.9,0.4,4,1.5c1.1,1,1.7,2.4,1.7,3.9l0.9,37.3c0.1,3-2.2,5.4-5.2,5.6l-41.4,1.9l0,0
		C330.5,352.7,329.4,352.7,328.3,352.7L328.3,352.7z M319.2,315.9c0.1,3.5,0.3,9.1,0.7,17.1c0.2,3.4,1.1,5.8,2.8,7.2
		c2.8,2.2,7.2,1.5,7.2,1.5l0,0c0.2-0.1,0.5-0.1,0.8-0.1l36.4-1.7l-0.6-26.3L319.2,315.9z"/>
	<path d="M74.1,312.7H74c-1.5,0-2.8-0.7-3.8-1.7s-1.5-2.5-1.5-3.9c1.8-72-3.3-131-15.1-175.5c-0.4-1.4-0.2-2.9,0.5-4.2
		c0.7-1.3,1.9-2.2,3.4-2.6c1.4-0.4,2.9-0.2,4.2,0.6s2.2,2,2.5,3.4c12.1,45.5,17.3,105.6,15.5,178.6
		C79.5,310.3,77.1,312.7,74.1,312.7L74.1,312.7z"/>
	<path d="M59.2,536h-0.5c-3-0.2-5.2-2.9-5-5.9C53.8,529,62.9,418.5,67,346l0,0c0.1-1.4,0.7-2.8,1.8-3.8s2.5-1.5,4-1.4
		c3,0.2,5.3,2.8,5.2,5.8C73.9,419.3,64.8,529.9,64.7,531C64.5,533.8,62.1,536,59.2,536L59.2,536z"/>
	<path d="M105.4,352.7c-1.1,0-2.2-0.1-3.3-0.2l-41.4-1.9l0,0c-3-0.1-5.3-2.6-5.2-5.6l0.9-37.3c0-1.5,0.7-2.9,1.7-3.9
		c1.1-1,2.5-1.5,4-1.5l58.2,2.9c2.9,0.1,5.2,2.6,5.2,5.5c0,0.2,0,6.2-0.9,22.9c-0.4,8.4-4,12.9-7,15.2
		C114.1,351.4,109.8,352.8,105.4,352.7L105.4,352.7z M66.6,339.9l36.4,1.7c0.3,0,0.5,0,0.8,0.1c1.2,0.2,4.9,0.3,7.2-1.5
		c1.7-1.3,2.6-3.7,2.8-7.1c0.4-8,0.6-13.6,0.7-17.1l-47.3-2.4L66.6,339.9z"/>
	<path d="M154.8,334.6c-3,0-5.5-2.4-5.5-5.5v-1c0-3,2.4-5.5,5.5-5.5c3,0,5.5,2.4,5.5,5.5v1c0,1.5-0.6,2.8-1.6,3.9
		C157.7,334,156.3,334.6,154.8,334.6L154.8,334.6z"/>
	<path d="M154.8,396.4c-3,0-5.5-2.4-5.5-5.5v-1c0-3,2.4-5.5,5.5-5.5c3,0,5.5,2.4,5.5,5.5v1c0,1.4-0.6,2.8-1.6,3.9
		C157.7,395.8,156.3,396.4,154.8,396.4L154.8,396.4z"/>
	<path d="M154.8,458.2c-3,0-5.5-2.4-5.5-5.5v-1c0-3,2.4-5.5,5.5-5.5c3,0,5.5,2.4,5.5,5.5v1c0,1.5-0.6,2.8-1.6,3.9
		S156.3,458.2,154.8,458.2L154.8,458.2z"/>
	<path d="M67.5,421.1H8.4c-3,0-5.5-2.4-5.5-5.5s2.4-5.5,5.5-5.5h59.1c3,0,5.5,2.4,5.5,5.5S70.6,421.1,67.5,421.1z"/>
	<path d="M426.3,421.1h-59.1c-3,0-5.5-2.4-5.5-5.5s2.4-5.5,5.5-5.5h59.1c3,0,5.5,2.4,5.5,5.5S429.3,421.1,426.3,421.1z"/>
</g>
</svg>
