<?xml version="1.0" encoding="utf-8"?>
<!-- Generator: Adobe Illustrator 26.0.0, SVG Export Plug-In . SVG Version: 6.00 Build 0)  -->
<svg version="1.1" id="katman_1" xmlns="http://www.w3.org/2000/svg" xmlns:xlink="http://www.w3.org/1999/xlink" x="0px" y="0px"
	 viewBox="0 0 522.8 560" style="enable-background:new 0 0 522.8 560;" xml:space="preserve">
<style type="text/css">
	.st0{fill-rule:evenodd;clip-rule:evenodd;}
</style>
<g>
	<path class="st0" d="M333.3,12C322.8,1.5,307.5,0,261.4,0S200,1.5,189.5,12c-2.2,2.2-3.2,5.4-2.6,8.4l9.3,46.7
		c0.9,4.4,4.7,7.5,9.2,7.5h112c4.4,0,8.3-3.1,9.2-7.5l9.3-46.7C336.5,17.4,335.5,14.2,333.3,12L333.3,12z M309.7,56H213l-6.6-33.1
		c7.6-3.2,23.8-4.2,55-4.2s47.4,1.1,55,4.2L309.7,56z"/>
	<path class="st0" d="M257.9,251.3c6.1,2.4,12.8-2.1,12.8-8.7V196c0-2.5-1-4.8-2.7-6.6c-15.6-15.6-53.3-106-53.3-124.1l-0.2-1.8
		l-9.3-46.7c-1.6-7.9-11.8-10.2-16.6-3.8l-28,37.3c-1.6,2.1-2.2,4.7-1.7,7.3l14.1,76.6c6.6,38.1,25.3,72.4,53.4,96.8
		C237.1,240.3,247.9,247.3,257.9,251.3L257.9,251.3z M191,40.9l5.1,25.4c1.1,23.6,36.4,109,56,133.1V227c-4.3-2.8-8.8-6.3-13.4-10.2
		c-24.8-21.4-41.4-51.9-47.3-86L178,58.1L191,40.9z"/>
	<path class="st0" d="M270.7,199.5c19.6-24.2,54.9-109.6,56-133.1l5.1-25.4l13,17.4l-13.4,72.5c-5.9,34.1-22.5,64.6-47.3,86.1
		c-4.5,3.9-9,7.3-13.4,10.2L270.7,199.5z M349.8,134.2l14.1-76.5c0.5-2.6-0.1-5.2-1.7-7.3l-28-37.3c-4.8-6.5-15-4.1-16.6,3.8
		l-9.3,46.7l-0.2,1.8c0,18.1-37.7,108.5-53.3,124.1c-1.8,1.8-2.7,4.1-2.7,6.6v46.7c0,6.6,6.7,11.1,12.8,8.7c10-4,20.8-11,31.5-20.3
		C324.5,206.7,343.2,172.3,349.8,134.2L349.8,134.2z"/>
	<path class="st0" d="M317.4,56h-112c-5.2,0-9.3,4.2-9.3,9.3c0,23,39.7,118.2,58.7,137.3c3.6,3.6,9.6,3.6,13.2,0
		c19.1-19.1,58.7-114.2,58.7-137.3C326.7,60.1,322.6,56,317.4,56L317.4,56z M261.4,180.6c-15.2-24-39-80.7-45.2-105.9h90.3
		C300.4,99.9,276.6,156.5,261.4,180.6L261.4,180.6z"/>
	<path class="st0" d="M158,193.1c-1.3-3.7-2.7-7.4-4.2-10.9c-5.7-13.6-11.5-23.4-15.5-29c-3-4.2-8.9-5.1-13-2.1
		c-4.2,3-5.1,8.9-2.1,13c0.7,1,2.1,3.2,4,6.4c3.2,5.5,6.4,11.8,9.4,18.9c1.3,3.2,2.6,6.5,3.8,9.9c1.7,4.9,7,7.4,11.9,5.7
		C157.2,203.3,159.7,197.9,158,193.1L158,193.1z"/>
	<path class="st0" d="M382.4,199.3c1.2-3.4,2.5-6.7,3.8-9.9c3-7.1,6.2-13.4,9.4-18.9c1.9-3.2,3.3-5.4,4-6.4c3-4.2,2.1-10-2.1-13
		s-10-2.1-13,2.1c-4,5.5-9.8,15.4-15.5,29c-1.5,3.5-2.9,7.2-4.2,10.9c-1.7,4.9,0.8,10.2,5.7,11.9
		C375.4,206.7,380.7,204.1,382.4,199.3L382.4,199.3z"/>
	<path class="st0" d="M270.7,326.6c0-5.2-4.2-9.3-9.3-9.3s-9.3,4.2-9.3,9.3s4.2,9.3,9.3,9.3S270.7,331.8,270.7,326.6"/>
	<path class="st0" d="M261.4,354.6c-10.3,0-18.7-8.4-18.7-18.7v-18.7c0-10.3,8.4-18.7,18.7-18.7s18.7,8.4,18.7,18.7V336
		C280.1,346.3,271.7,354.6,261.4,354.6z M261.4,373.3c20.6,0,37.3-16.7,37.3-37.3v-18.7c0-20.6-16.7-37.3-37.3-37.3
		s-37.3,16.7-37.3,37.3V336C224.1,356.6,240.8,373.3,261.4,373.3z"/>
	<path class="st0" d="M242.7,336v-18.7c0-4.6,1.7-8.9,4.9-12.4c5.4-6,1.1-15.6-6.9-15.6h-81.9c-4.4,0-8.2,3.1-9.1,7.4
		c-1.5,7.2-2.8,14.6-4.6,26.3c0-0.3-1.8,11.5-2.3,14.8c-0.9,5.7-1.7,10.5-2.5,15.2c-1,5.7,3.4,11,9.2,11h91.3
		c8.1,0,12.3-9.6,6.9-15.6C244.5,344.9,242.7,340.6,242.7,336L242.7,336z M160.4,345.3c0.2-1.5,0.5-3,0.7-4.6
		c0.5-3.4,2.3-15.2,2.3-14.9c1.1-7.4,2.1-13,3-17.9h58.8c-0.8,3-1.2,6.1-1.2,9.3V336c0,3.2,0.4,6.3,1.2,9.3H160.4z"/>
	<path class="st0" d="M356.4,308c0.9,4.9,1.8,10.5,3,17.9c0-0.3,1.8,11.5,2.3,14.9c0.2,1.6,0.5,3.1,0.7,4.6h-64.8
		c0.8-3,1.2-6.1,1.2-9.3v-18.7c0-3.2-0.4-6.3-1.2-9.3L356.4,308z M280.1,336c0,4.6-1.7,8.9-4.9,12.4c-5.4,6-1.1,15.6,6.9,15.6h91.3
		c5.8,0,10.2-5.2,9.2-11c-0.8-4.6-1.6-9.4-2.5-15.2c-0.5-3.4-2.3-15.1-2.3-14.8c-1.8-11.6-3.1-19-4.6-26.3c-0.9-4.3-4.7-7.4-9.1-7.4
		h-81.9c-8.1,0-12.3,9.6-6.9,15.6c3.1,3.5,4.9,7.8,4.9,12.4V336H280.1z"/>
	<path class="st0" d="M270.7,420H252c0,61.8-48.8,102.5-120.4,102.7c-10.2-1.1-14.4,13-5.1,17.6c18.2,9.1,41.1,14.5,68.6,17.3
		c19.6,2,35.6,2.4,66.3,2.4c30.6,0,46.7-0.4,66.3-2.4c27.5-2.8,50.4-8.2,68.6-17.3c9.3-4.7,5.1-18.7-5.1-17.6
		C319.5,522.4,270.7,481.8,270.7,420L270.7,420z M270.7,420c0-12.4-18.7-12.4-18.7,0c0,17.3,3.3,33.3,9.3,47.5
		C267.5,453.2,270.7,437.3,270.7,420L270.7,420z M325.8,539c-18.8,1.9-34.4,2.3-64.4,2.3s-45.6-0.4-64.4-2.3
		c-7.6-0.8-14.7-1.7-21.5-2.9c40.5-10.1,71.3-34.4,85.9-68.6c14.6,34.2,45.4,58.5,85.9,68.6C340.6,537.3,333.4,538.3,325.8,539
		L325.8,539z"/>
	<path class="st0" d="M252.1,364v56c0,5.2,4.2,9.3,9.3,9.3s9.3-4.2,9.3-9.3v-56c0-5.2-4.2-9.3-9.3-9.3S252.1,358.8,252.1,364z"/>
	<path class="st0" d="M252.1,242.6v46.7c0,5.2,4.2,9.3,9.3,9.3s9.3-4.2,9.3-9.3v-46.7c0-5.2-4.2-9.3-9.3-9.3
		S252.1,237.5,252.1,242.6L252.1,242.6z"/>
	<path class="st0" d="M238.7,216.9c-24.8-21.4-41.4-51.9-47.3-86l-14.2-76.7c-1-5.5-6.6-8.9-11.9-7.2c-31.1,9.4-59.8,21.4-69,30.1
		c-11.8,11.2-26.8,71.3-50.1,187.4c-2.9,14.7-6,30.2-9.3,46.9C33.7,327.9,5.8,474.6,0.2,502c-1.1,5.3,2.5,10.4,7.8,11.1l65.3,9.3
		c5,0.7,9.6-2.6,10.5-7.6c0.1-0.5,0.1-0.5,0.5-2.8c0.6-3.2,0.6-3.2,1.5-8c1.6-8.7,3.3-18.3,5.2-28.7c5.4-29.7,10.9-59.3,16.1-87
		c0.7-3.6,0.7-3.6,1.3-7.2c12.4-66.2,21.1-109.8,23.5-117c2.1-6.2,5.7-15.8,10.6-27.9c0.6-1.5,0.6-1.5,1.2-3
		c1.3-3.1,2.6-6.4,3.9-9.6c5.2,20.5,8.9,43.5,10.3,65.6c-4.1,0.3-7.6,3.3-8.4,7.4c-1.5,7.2-2.8,14.6-4.6,26.3
		c0-0.3-1.8,11.5-2.3,14.8c-0.9,5.7-1.7,10.5-2.5,15.2c-0.8,4.4,1.6,8.5,5.4,10.2c-14.6,67.6-24.1,127.7-24.1,168.9
		c0,5.2,4.2,9.3,9.3,9.3c63.2-0.4,111.3-28.4,130.7-73.9c19.4,45.4,67.5,73.4,129.2,73.9c6.6,0,10.8-4.2,10.8-9.3
		c0-41.2-9.5-101.3-24.2-168.8c3.8-1.7,6.1-5.8,5.4-10.2c-0.8-4.6-1.6-9.4-2.5-15.2c-0.5-3.4-2.3-15.1-2.3-14.8
		c-1.8-11.6-3.1-19-4.6-26.3c-0.9-4.1-4.3-7.1-8.4-7.4c1.4-22.1,5.1-45,10.3-65.6c1.3,3.2,2.6,6.4,3.9,9.6c0.6,1.5,0.6,1.5,1.2,3
		c4.9,12,8.5,21.7,10.6,27.9c2.4,7.2,11.1,50.7,23.5,116.9l1.4,7.2c5.2,27.7,10.7,57.4,16.1,87c1.9,10.4,3.7,20,5.2,28.7
		c0.9,4.8,0.9,4.8,1.5,8c0.4,2.3,0.4,2.3,0.5,2.8c0.9,4.9,5.5,8.3,10.5,7.6l65.3-9.3c5.3-0.8,8.9-5.9,7.8-11.1
		c-5.6-27.4-33.5-174.1-36.7-190.6c-3.2-16.7-6.3-32.2-9.3-46.9c-23.3-116.1-38.3-176.2-50.1-187.4c-9.2-8.7-38-20.7-69-30.1
		c-5.3-1.6-10.9,1.8-11.9,7.2l-14.2,76.7c-5.9,34.1-22.5,64.6-47.3,86.1c-7.9,6.8-15.7,12.1-22.7,15.5
		C254.4,229.1,246.6,223.7,238.7,216.9L238.7,216.9z M455.6,502.8c-0.1-0.6-0.2-1.2-0.4-2c-1.6-8.7-3.3-18.3-5.2-28.7
		c-5.4-29.7-10.9-59.4-16.1-87.1c-0.7-3.6-0.7-3.6-1.4-7.2c-12.8-68.5-21.3-110.9-24.1-119.4c-2.2-6.6-6-16.6-11-28.9
		c-0.6-1.5-0.6-1.5-1.2-3.1c-3.1-7.6-6.4-15.6-9.7-23.4c-1.2-2.7-2.2-5.3-3.2-7.6c-0.6-1.4-1-2.3-1.2-2.9
		c-3.3-7.8-14.6-7.5-17.4,0.6c-10.6,29.9-18,69.2-19.1,105.3c-0.2,5.3,4.1,9.6,9.3,9.6c2.3,4.9,3.2,10.5,4.4,17.9
		c0-0.3,1.8,11.5,2.3,14.9c0.3,1.8,0.6,3.5,0.8,5.2c-4.2,1.6-6.8,6.1-5.8,10.8c14.6,65.3,24.5,124.4,25.9,165.7
		C315.6,519,270.7,479.2,270.7,420c0-12.4-18.7-12.4-18.7,0c0,59.3-44.9,99-111.8,102.4c1.4-41.4,11.3-100.4,25.9-165.7
		c1-4.7-1.6-9.2-5.8-10.8c0.3-1.7,0.5-3.4,0.8-5.2c0.5-3.4,2.3-15.2,2.3-14.9c1.1-7.4,2.1-13,3-17.9c6.7,0,10.9-4.4,10.7-9.6
		C176,262.2,168.5,223,158,193c-2.8-8-14-8.4-17.4-0.6c-0.2,0.5-0.6,1.5-1.2,2.9c-1,2.3-2,4.8-3.2,7.6c-3.3,7.9-6.6,15.8-9.7,23.4
		c-0.6,1.5-0.6,1.5-1.2,3.1c-5,12.4-8.8,22.3-11,28.9c-2.8,8.5-11.3,50.9-24.1,119.4c-0.7,3.6-0.7,3.6-1.3,7.2
		c-5.2,27.7-10.7,57.4-16.1,87.1c-1.9,10.4-3.7,20-5.2,28.7c-0.1,0.8-0.3,1.5-0.4,2L20.5,496c8.4-42.3,31.9-166,34.8-181
		c3.2-16.7,6.3-32.2,9.2-46.8C85.6,163,101.9,97.5,109.1,90.7c5.5-5.2,27.4-14.7,51.7-22.7l12.2,66.2c6.6,38.1,25.3,72.5,53.4,96.8
		c10.7,9.2,21.4,16.2,31.5,20.3c2.2,0.9,4.7,0.9,6.9,0c10-4,20.8-11,31.5-20.3c28.1-24.3,46.8-58.7,53.5-96.9L362,68
		c24.3,8,46.1,17.5,51.7,22.7c7.2,6.8,23.5,72.3,44.6,177.5c2.9,14.6,6,30.1,9.2,46.8c2.9,15,26.5,138.7,34.8,181.1L455.6,502.8z"/>
</g>
</svg>
