<?xml version="1.0" encoding="utf-8"?>
<!-- Generator: Adobe Illustrator 26.0.0, SVG Export Plug-In . SVG Version: 6.00 Build 0)  -->
<svg version="1.1" id="katman_1" xmlns="http://www.w3.org/2000/svg" xmlns:xlink="http://www.w3.org/1999/xlink" x="0px" y="0px"
	 viewBox="0 0 522.8 560.2" style="enable-background:new 0 0 522.8 560.2;" xml:space="preserve">
<style type="text/css">
	.st0{fill-rule:evenodd;clip-rule:evenodd;}
</style>
<g>
	<path class="st0" d="M270.8,354.6c0-5.2-4.2-9.3-9.3-9.3s-9.3,4.2-9.3,9.3s4.2,9.3,9.3,9.3S270.8,359.8,270.8,354.6"/>
	<path class="st0" d="M270.8,429.3c0-5.2-4.2-9.3-9.3-9.3s-9.3,4.2-9.3,9.3s4.2,9.3,9.3,9.3S270.8,434.5,270.8,429.3"/>
	<path class="st0" d="M158.1,193.1c-1.3-3.7-2.7-7.4-4.2-10.9c-5.7-13.6-11.5-23.4-15.5-29c-3-4.2-8.9-5.1-13-2.1
		c-4.2,3-5.1,8.9-2.1,13c0.7,1,2.1,3.2,4,6.4c3.2,5.5,6.4,11.8,9.4,18.9c1.3,3.2,2.6,6.5,3.8,9.9c1.7,4.9,7,7.4,11.9,5.7
		C157.3,203.3,159.8,197.9,158.1,193.1L158.1,193.1z"/>
	<path class="st0" d="M382.3,199.1c1.2-3.4,2.5-6.7,3.8-9.9c3-7.1,6.2-13.4,9.4-18.9c1.9-3.2,3.3-5.4,4-6.4c3-4.2,2.1-10-2.1-13
		s-10-2.1-13,2.1c-4,5.5-9.8,15.4-15.5,29c-1.5,3.5-2.9,7.2-4.2,10.9c-1.7,4.9,0.8,10.2,5.7,11.9
		C375.3,206.5,380.6,203.9,382.3,199.1L382.3,199.1z"/>
	<path class="st0" d="M158.8,306.9c-0.3,1.3-0.8,3.3-1.4,5.8c-1.3,5.5-2.7,11.8-4.2,18.7c-4.4,19.7-8.8,40.7-12.9,62
		c-3.5,18.2-6.6,35.8-9.3,52.6c-6.1,38.6-9.5,71.1-9.5,95.5c0,4.7,3.6,8.7,8.3,9.3c0.6,0.1,1.9,0.2,3.6,0.4c2.9,0.3,6.2,0.7,9.9,1.1
		c10.5,1.1,21.8,2.2,33.5,3.2c12.9,1.1,25.4,2.1,37.3,2.9c18.2,1.2,34.2,1.8,47.4,1.8h37.3c5.2,0,9.3-4.2,9.3-9.3V383.2
		c0-50.9-13.3-101-38.6-145.2c-1-1.8-2.7-3.3-4.6-4c-7.9-3.1-17-9.1-26.2-17c-24.8-21.4-41.4-51.9-47.3-86l-14.2-76.7
		c-1-5.5-6.6-8.9-11.9-7.2c-31.1,9.4-59.8,21.4-69,30.1c-11.8,11.2-26.8,71.3-50.1,187.4c-2.9,14.7-6,30.2-9.3,46.9
		C33.7,328.1,5.8,474.7,0.2,502.1c-1.1,5.3,2.5,10.4,7.8,11.1l65.3,9.3c5,0.7,9.6-2.6,10.5-7.6c0.1-0.5,0.1-0.5,0.5-2.8
		c0.6-3.2,0.6-3.2,1.5-8c1.6-8.7,3.3-18.3,5.2-28.7c5.4-29.7,10.9-59.3,16.1-87c0.7-3.6,0.7-3.6,1.3-7.2
		c12.4-66.2,21.1-109.8,23.5-117c2.1-6.2,5.7-15.8,10.6-27.9c0.6-1.5,0.6-1.5,1.2-3c1.3-3.2,2.6-6.4,3.9-9.6
		C154.5,249.9,158.7,279.7,158.8,306.9L158.8,306.9z M289.5,383.2v158.1h-28c-12.7,0-28.3-0.6-46.2-1.8c-11.7-0.8-24.1-1.7-36.8-2.8
		c-11.5-1-22.8-2.1-33.2-3.2c-1.7-0.2-3.4-0.4-5-0.5c0.7-22.2,3.9-50.8,9.2-84.2c2.6-16.6,5.7-34,9.2-52
		c4.1-21.1,8.4-41.9,12.8-61.4c1.5-6.8,2.9-13,4.2-18.5c0.8-3.3,1.3-5.5,1.6-6.7c0.2-0.7,0.3-1.5,0.3-2.2
		c0-38.5-7.8-81.9-19.4-114.9c-2.8-8-14-8.4-17.4-0.6c-0.2,0.5-0.6,1.5-1.2,2.9c-1,2.3-2,4.8-3.2,7.6c-3.3,7.9-6.6,15.8-9.7,23.4
		c-0.6,1.5-0.6,1.5-1.2,3.1c-5,12.4-8.8,22.3-11,28.9c-2.8,8.5-11.3,50.9-24.1,119.4c-0.7,3.6-0.7,3.6-1.3,7.2
		c-5.2,27.7-10.7,57.4-16.1,87.1c-1.9,10.4-3.7,20-5.2,28.7c-0.1,0.8-0.3,1.5-0.4,2l-46.7-6.7C29.1,453.7,52.6,330,55.5,315
		c3.2-16.7,6.3-32.2,9.2-46.8C85.8,163,102.1,97.5,109.3,90.7C114.8,85.5,136.7,76,161,68l12.2,66.2c6.6,38.1,25.3,72.5,53.4,96.8
		c9.6,8.3,19.2,14.8,28.3,18.9C277.6,290.7,289.5,336.6,289.5,383.2L289.5,383.2z"/>
	<path class="st0" d="M333.4,12C322.9,1.5,307.6,0,261.5,0s-61.4,1.5-71.9,12c-2.2,2.2-3.2,5.4-2.6,8.4l9.3,46.7
		c0.9,4.4,4.7,7.5,9.2,7.5h112c4.4,0,8.3-3.1,9.2-7.5l9.3-46.7C336.6,17.4,335.6,14.2,333.4,12L333.4,12z M309.8,56h-96.7l-6.6-33.1
		c7.6-3.2,23.8-4.2,55-4.2s47.4,1.1,55,4.2L309.8,56z"/>
	<path class="st0" d="M375.1,223.7c1.3,3.2,2.7,6.5,3.9,9.6c0.6,1.5,0.6,1.5,1.2,3c4.9,12,8.5,21.7,10.6,27.9
		c2.4,7.2,11.1,50.7,23.5,116.9l1.4,7.2c5.2,27.7,10.7,57.4,16.1,87c1.9,10.4,3.7,20,5.2,28.7c0.9,4.8,0.9,4.8,1.5,8
		c0.4,2.3,0.4,2.3,0.5,2.8c0.9,4.9,5.5,8.3,10.5,7.6l65.3-9.3c5.3-0.8,8.9-5.9,7.8-11.1c-5.6-27.4-33.5-174.1-36.7-190.6
		c-3.2-16.7-6.3-32.2-9.3-46.9c-23.3-116.1-38.3-176.2-50.1-187.4c-9.2-8.7-38-20.7-69-30.1c-5.3-1.6-10.9,1.8-11.9,7.2l-14.1,76.7
		c-5.9,34.1-22.5,64.6-47.3,86.1c-9.2,8-18.3,13.9-26.2,17c-5.3,2.1-7.4,8.4-4.6,13.3c23.7,41.4,36.1,88.3,36.1,136v167.4
		c0,5.4,4.5,9.6,9.9,9.3c3.1-0.2,6.3-0.4,9.6-0.6c13.1-0.9,27.1-2.1,41.4-3.6c10.8-1.1,21.2-2.3,30.8-3.6c3.4-0.4,6.4-0.8,9-1.2
		c1.6-0.2,2.7-0.4,3.3-0.4c4.6-0.6,8-4.6,8-9.2c0-24.4-3.4-56.8-9.5-95.5c-2.7-16.8-5.8-34.4-9.3-52.6c-4.1-21.3-8.5-42.3-12.9-62
		c-1.5-6.9-3-13.2-4.2-18.7c-0.6-2.5-1-4.4-1.4-5.8C364.3,279.7,368.5,249.9,375.1,223.7L375.1,223.7z M455.8,502.8
		c-0.1-0.6-0.2-1.2-0.4-2c-1.6-8.7-3.3-18.3-5.2-28.7c-5.4-29.7-10.9-59.4-16.1-87.1c-0.7-3.6-0.7-3.6-1.4-7.2
		c-12.8-68.5-21.3-110.9-24.1-119.4c-2.2-6.6-6-16.6-11-28.9c-0.6-1.5-0.6-1.5-1.2-3.1c-3.1-7.6-6.4-15.6-9.7-23.4
		c-1.2-2.7-2.2-5.3-3.2-7.6c-0.6-1.4-1-2.3-1.2-2.9c-3.3-7.8-14.6-7.5-17.4,0.6c-11.6,32.9-19.4,76.3-19.4,114.9
		c0,0.7,0.1,1.5,0.3,2.2c0.3,1.2,0.8,3.5,1.6,6.7c1.3,5.4,2.7,11.6,4.2,18.5c4.4,19.6,8.7,40.3,12.8,61.4c3.5,18,6.6,35.4,9.2,52
		c5.3,33.5,8.5,62.2,9.2,84.4c-1.2,0.2-2.6,0.3-3.9,0.5c-9.5,1.2-19.7,2.4-30.4,3.5c-13.9,1.5-27.5,2.7-40.2,3.5V383.2
		c0-47.6-11.6-94.4-33.8-136.4c7.2-4,14.6-9.3,22-15.7c28.1-24.3,46.8-58.7,53.5-96.9l12.2-66.1c24.3,8,46.1,17.5,51.7,22.7
		c7.2,6.8,23.5,72.3,44.6,177.5c2.9,14.6,6,30.1,9.2,46.8c2.9,15,26.5,138.7,34.8,181.1L455.8,502.8z"/>
	<path class="st0" d="M258,251.3c6.1,2.4,12.8-2.1,12.8-8.7V196c0-2.5-1-4.8-2.7-6.6c-15.6-15.6-53.3-106-53.3-124.1l-0.2-1.8
		l-9.3-46.7c-1.6-7.9-11.8-10.2-16.6-3.8l-28,37.3c-1.6,2.1-2.2,4.7-1.7,7.3l14.1,76.6c6.6,38.1,25.3,72.4,53.4,96.8
		C237.2,240.3,248,247.3,258,251.3L258,251.3z M191.1,40.9l5.1,25.4c1.1,23.6,36.4,109,56,133.1V227c-4.3-2.8-8.8-6.3-13.4-10.2
		c-24.8-21.4-41.4-51.9-47.3-86l-13.4-72.7L191.1,40.9z"/>
	<path class="st0" d="M270.8,199.5c19.6-24.2,54.9-109.6,56-133.1l5.1-25.4l13,17.4l-13.4,72.5c-5.9,34.1-22.5,64.6-47.3,86.1
		c-4.5,3.9-9,7.3-13.4,10.2L270.8,199.5z M349.9,134.2L364,57.7c0.5-2.6-0.1-5.2-1.7-7.3l-28-37.3c-4.8-6.5-15-4.1-16.6,3.8
		l-9.3,46.7l-0.2,1.8c0,18.1-37.7,108.5-53.3,124.1c-1.8,1.8-2.7,4.1-2.7,6.6v46.7c0,6.6,6.7,11.1,12.8,8.7c10-4,20.8-11,31.5-20.3
		C324.6,206.7,343.3,172.3,349.9,134.2L349.9,134.2z"/>
	<path class="st0" d="M317.5,56h-112c-5.2,0-9.3,4.2-9.3,9.3c0,23,39.7,118.2,58.7,137.3c3.6,3.6,9.6,3.6,13.2,0
		c19.1-19.1,58.7-114.2,58.7-137.3C326.8,60.1,322.7,56,317.5,56L317.5,56z M261.5,180.6c-15.2-24-39-80.7-45.2-105.9h90.3
		C300.5,99.9,276.7,156.5,261.5,180.6L261.5,180.6z"/>
</g>
</svg>
