<?xml version="1.0" encoding="utf-8"?>
<!-- Generator: Adobe Illustrator 26.0.0, SVG Export Plug-In . SVG Version: 6.00 Build 0)  -->
<svg version="1.1" id="katman_1" xmlns="http://www.w3.org/2000/svg" xmlns:xlink="http://www.w3.org/1999/xlink" x="0px" y="0px"
	 viewBox="0 0 522.7 560.1" style="enable-background:new 0 0 522.7 560.1;" xml:space="preserve">
<style type="text/css">
	.st0{fill-rule:evenodd;clip-rule:evenodd;}
</style>
<g>
	<path class="st0" d="M157.8,193.2c-1.3-3.7-2.7-7.4-4.2-10.9c-5.7-13.6-11.5-23.4-15.5-29c-3-4.2-8.9-5.1-13-2.1
		c-4.2,3-5.1,8.9-2.1,13c0.7,1,2.1,3.2,4,6.4c3.2,5.5,6.4,11.8,9.4,18.9c1.3,3.2,2.6,6.5,3.8,9.9c1.7,4.9,7,7.4,11.9,5.7
		C157,203.4,159.5,198,157.8,193.2L157.8,193.2z"/>
	<path class="st0" d="M382.2,199.4c1.2-3.4,2.5-6.7,3.8-9.9c3-7.1,6.2-13.4,9.4-18.9c1.9-3.2,3.3-5.4,4-6.4c3-4.2,2.1-10-2.1-13
		s-10-2.1-13,2.1c-4,5.5-9.8,15.4-15.5,29c-1.5,3.5-2.9,7.2-4.2,10.9c-1.7,4.9,0.8,10.2,5.7,11.9S380.5,204.2,382.2,199.4
		L382.2,199.4z"/>
	<path class="st0" d="M268.2,90.1l65.3-74.6c5.3-6,1-15.5-7-15.5H195.9c-8,0-12.3,9.5-7,15.5l65.3,74.6
		C257.9,94.4,264.5,94.4,268.2,90.1L268.2,90.1z M216.5,18.7H306l-44.8,51.1L216.5,18.7z"/>
	<path class="st0" d="M196.2,23.9l49.9,56.9c-1.1,0.6-2.4,1.2-3.7,1.9c-0.9,0.5-0.9,0.5-1.8,0.9c-3.9,2-6.4,3.3-8.9,4.4
		c-11.5,5.4-19.4,6.8-27.5,4.2c-3.4-1.1-12.8-9.6-22.6-20.7c-4.3-4.9-8.4-9.9-11.3-13.8c-0.2-0.3-0.4-0.5-0.6-0.8L196.2,23.9z
		 M202.9,3.3c-3.8-4.4-10.7-4.2-14.3,0.3l-37.4,46.6c-6,7.5-1.7,13.4,16.3,33.8c12.2,13.8,23,23.5,30.9,26.1
		c13.4,4.3,25.8,2.2,41.1-5.1c2.8-1.3,5.5-2.7,9.5-4.8c0.9-0.5,0.9-0.5,1.8-0.9c6.9-3.6,10.1-5.2,13.9-6.8c5.8-2.5,7.5-10,3.3-14.7
		L202.9,3.3z"/>
	<path class="st0" d="M319.5,3.3l-65.3,74.5c-4.2,4.8-2.5,12.2,3.3,14.7c3.8,1.7,7.1,3.2,13.9,6.8c0.9,0.5,0.9,0.5,1.8,0.9
		c4.1,2.1,6.7,3.4,9.5,4.8c15.4,7.2,27.7,9.4,41.1,5.1c7.9-2.6,18.6-12.2,30.9-26.1c18.2-20.4,22.5-26.2,16.5-33.8L333.8,3.6
		C330.2-1,323.3-1.1,319.5,3.3L319.5,3.3z M352.7,57.1c-0.2,0.3-0.4,0.5-0.6,0.8c-2.9,3.9-7,8.9-11.3,13.8
		c-9.8,11.1-19.2,19.6-22.6,20.7c-8.1,2.6-16,1.2-27.4-4.2c-2.5-1.2-5-2.4-8.9-4.4c-0.9-0.5-0.9-0.5-1.8-0.9
		c-1.4-0.7-2.6-1.3-3.7-1.9l49.8-57.1L352.7,57.1z"/>
	<path class="st0" d="M20.3,496.2c8.4-42.4,31.9-166.1,34.8-181.1c3.2-16.7,6.3-32.2,9.2-46.8c21.1-105.2,37.4-170.7,44.6-177.5
		c6.2-5.9,25.7-16.1,44.8-23.2c3.1,4.2,7.6,9.5,13.8,16.4c12.2,13.8,23,23.5,30.9,26.1c13.4,4.3,25.7,2.2,41.1-5.1
		c2.8-1.3,5.4-2.7,9.5-4.8c0.8-0.4,0.8-0.4,1.7-0.9c4.7-2.4,7.7-4,10.4-5.2c2.7,1.2,5.7,2.8,10.4,5.2c0.8,0.4,0.8,0.4,1.5,0.8
		c4.2,2.2,6.9,3.5,9.7,4.9c15.4,7.2,27.7,9.4,41.1,5.1c7.9-2.6,18.7-12.2,30.9-26.1c6.2-7,10.7-12.2,13.8-16.4
		c19.1,7.1,38.6,17.4,44.8,23.2c7.2,6.8,23.5,72.3,44.6,177.5c2.9,14.6,6,30.1,9.2,46.8c2.9,15,26.5,138.7,34.8,181.1l-46.7,6.7
		c-0.1-0.6-0.2-1.2-0.4-2c-1.6-8.7-3.3-18.3-5.2-28.7c-5.4-29.7-10.9-59.4-16.1-87.1c-0.7-3.6-0.7-3.6-1.4-7.2
		C419.3,309.4,410.8,267,408,258.5c-2.2-6.6-6-16.6-11-28.9c-0.6-1.5-0.6-1.5-1.2-3.1c-3.1-7.6-6.4-15.6-9.7-23.4
		c-1.2-2.7-2.2-5.3-3.2-7.6c-0.6-1.4-1-2.3-1.2-2.9c-3.3-7.8-14.6-7.4-17.4,0.6c-10.6,30-18,69.2-19.1,105.3l0.2,2.1l10.8,56
		c15.1,67.5,25.1,128.1,26,169.6c-15.1,6.5-34.1,10.7-56.9,13c-18.8,1.9-34.4,2.3-64.4,2.3s-45.6-0.4-64.4-2.3
		c-22.7-2.3-41.8-6.4-56.9-13c0.9-41.5,11-102,26-169.4l10.9-56.3l0.2-2.1c-1.1-36.1-8.6-75.3-19.1-105.3c-2.8-8-14-8.4-17.4-0.6
		c-0.2,0.5-0.6,1.5-1.2,2.9c-1,2.3-2,4.8-3.2,7.6c-3.3,7.9-6.6,15.8-9.7,23.4c-0.6,1.5-0.6,1.5-1.2,3.1c-5,12.4-8.8,22.3-11,28.9
		c-2.8,8.5-11.3,50.9-24.1,119.4c-0.7,3.6-0.7,3.6-1.3,7.2c-5.2,27.7-10.7,57.4-16.1,87.1c-1.9,10.4-3.7,20-5.2,28.7
		c-0.1,0.8-0.3,1.5-0.4,2L20.3,496.2z M147.6,353c-15.9,71.6-26.4,135.7-26.4,179.1c0,3.5,2,6.8,5.2,8.3
		c18.2,9.1,41.1,14.5,68.6,17.3c19.6,2,35.6,2.4,66.3,2.4s46.7-0.4,66.3-2.4c27.5-2.8,50.4-8.2,68.6-17.3c3.2-1.6,5.2-4.8,5.2-8.3
		c0-43.3-10.5-107.5-26.5-179.4L364.3,298c0.9-24.7,4.8-50.9,10.7-74.1c1.3,3.2,2.6,6.4,3.9,9.6c0.6,1.5,0.6,1.5,1.2,3
		c4.9,12,8.5,21.7,10.6,27.9c2.4,7.2,11.1,50.7,23.5,116.9c0.7,3.6,0.7,3.6,1.4,7.2c5.2,27.7,10.6,57.4,16.1,87
		c1.9,10.4,3.6,20,5.2,28.7c0.9,4.8,0.9,4.8,1.5,8c0.4,2.3,0.4,2.3,0.5,2.8c0.9,4.9,5.5,8.3,10.5,7.6l65.3-9.3
		c5.3-0.8,8.9-5.9,7.8-11.1c-5.6-27.4-33.5-174.1-36.7-190.6c-3.2-16.7-6.3-32.2-9.3-46.9c-23.3-116.1-38.3-176.2-50.1-187.4
		c-9.4-8.9-35.9-22.4-59.5-30.1c-8.8-2.9-16,7.5-10.2,14.7c-2.7-3.4-2.5-5.7-1.5-8.3c-0.6,1-1.6,2.5-2.9,4.3
		c-2.9,3.9-7,8.9-11.3,13.8c-9.8,11.1-19.2,19.6-22.6,20.7c-8.1,2.6-15.9,1.2-27.5-4.2c-2.6-1.2-5.1-2.5-9.1-4.5
		c-0.8-0.4-0.8-0.4-1.5-0.8c-7.4-3.8-10.8-5.5-15.3-7.4c-2.4-1-5-1-7.4,0c-4.4,1.9-7.9,3.6-15.3,7.4c-0.8,0.4-0.8,0.4-1.7,0.9
		c-3.9,2-6.4,3.3-8.9,4.5c-11.5,5.4-19.4,6.8-27.4,4.2c-3.4-1.1-12.8-9.6-22.6-20.7c-4.3-4.9-8.4-9.9-11.3-13.8
		c-1.3-1.8-2.3-3.2-2.8-4.2c0.9,2.5,1.1,4.8-1.6,8.2c5.8-7.2-1.3-17.6-10.2-14.7c-23.7,7.7-50.1,21.2-59.5,30.1
		c-11.8,11.1-26.8,71.3-50.1,187.4c-2.9,14.7-6,30.2-9.3,46.9C33.7,328.2,5.8,474.9,0.2,502.3c-1.1,5.3,2.5,10.4,7.8,11.1l65.3,9.3
		c5,0.7,9.6-2.6,10.5-7.6c0.1-0.5,0.1-0.5,0.5-2.8c0.6-3.2,0.6-3.2,1.5-8c1.6-8.7,3.3-18.3,5.2-28.7c5.4-29.7,10.9-59.3,16.1-87
		c0.7-3.6,0.7-3.6,1.3-7.2c12.4-66.2,21.1-109.8,23.5-117c2.1-6.2,5.7-15.8,10.6-27.9c0.6-1.5,0.6-1.5,1.2-3
		c1.3-3.1,2.6-6.4,3.9-9.6c5.9,23.2,9.9,49.5,10.7,74.1L147.6,353z"/>
	<path class="st0" d="M270.5,149.4c0-5.2-4.2-9.3-9.3-9.3s-9.3,4.2-9.3,9.3c0,5.2,4.2,9.3,9.3,9.3S270.5,154.6,270.5,149.4"/>
	<path class="st0" d="M270.5,205.4c0-5.2-4.2-9.3-9.3-9.3s-9.3,4.2-9.3,9.3c0,5.2,4.2,9.3,9.3,9.3S270.5,210.6,270.5,205.4"/>
	<path class="st0" d="M270.5,261.4c0-5.2-4.2-9.3-9.3-9.3s-9.3,4.2-9.3,9.3s4.2,9.3,9.3,9.3S270.5,266.6,270.5,261.4"/>
	<path class="st0" d="M270.5,317.4c0-5.2-4.2-9.3-9.3-9.3s-9.3,4.2-9.3,9.3s4.2,9.3,9.3,9.3S270.5,322.6,270.5,317.4"/>
	<path class="st0" d="M270.5,373.4c0-5.2-4.2-9.3-9.3-9.3s-9.3,4.2-9.3,9.3s4.2,9.3,9.3,9.3S270.5,378.6,270.5,373.4"/>
	<path class="st0" d="M270.5,429.4c0-5.2-4.2-9.3-9.3-9.3s-9.3,4.2-9.3,9.3s4.2,9.3,9.3,9.3S270.5,434.6,270.5,429.4"/>
	<path class="st0" d="M270.5,485.4c0-5.2-4.2-9.3-9.3-9.3s-9.3,4.2-9.3,9.3s4.2,9.3,9.3,9.3S270.5,490.6,270.5,485.4"/>
</g>
</svg>
