<?xml version="1.0" encoding="utf-8"?>
<!-- Generator: Adobe Illustrator 26.0.0, SVG Export Plug-In . SVG Version: 6.00 Build 0)  -->
<svg version="1.1" id="katman_1" xmlns="http://www.w3.org/2000/svg" xmlns:xlink="http://www.w3.org/1999/xlink" x="0px" y="0px"
	 viewBox="0 0 522.7 560" style="enable-background:new 0 0 522.7 560;" xml:space="preserve">
<style type="text/css">
	.st0{fill-rule:evenodd;clip-rule:evenodd;}
</style>
<g>
	<path class="st0" d="M333.3,12C322.8,1.5,307.5,0,261.4,0S200,1.5,189.5,12c-2.2,2.2-3.2,5.4-2.6,8.4l9.3,46.7
		c0.9,4.4,4.7,7.5,9.2,7.5h112c4.4,0,8.3-3.1,9.2-7.5l9.3-46.7C336.5,17.4,335.5,14.2,333.3,12L333.3,12z M309.7,56H213l-6.6-33.1
		c7.6-3.2,23.8-4.2,55-4.2s47.4,1.1,55,4.2L309.7,56z"/>
	<path class="st0" d="M257.9,251.3c6.1,2.4,12.8-2.1,12.8-8.7V196c0-2.5-1-4.8-2.7-6.6c-15.6-15.6-53.3-106-53.3-124.1l-0.2-1.8
		l-9.3-46.7c-1.6-7.9-11.8-10.2-16.6-3.8l-28,37.3c-1.6,2.1-2.2,4.7-1.7,7.3l14.1,76.6c6.6,38.1,25.3,72.4,53.4,96.8
		C237.1,240.3,247.9,247.3,257.9,251.3L257.9,251.3z M191,40.9l5.1,25.4c1.1,23.6,36.4,109,56,133.1V227c-4.3-2.8-8.8-6.3-13.4-10.2
		c-24.8-21.4-41.4-51.9-47.3-86L178,58.1L191,40.9z"/>
	<path class="st0" d="M270.7,199.5c19.6-24.2,54.9-109.6,56-133.1l5.1-25.4l13,17.4l-13.4,72.5c-5.9,34.1-22.5,64.6-47.3,86.1
		c-4.5,3.9-9,7.3-13.4,10.2L270.7,199.5z M349.8,134.2l14.1-76.5c0.5-2.6-0.1-5.2-1.7-7.3l-28-37.3c-4.8-6.5-15-4.1-16.6,3.8
		l-9.3,46.7l-0.2,1.8c0,18.1-37.7,108.5-53.3,124.1c-1.8,1.8-2.7,4.1-2.7,6.6v46.7c0,6.6,6.7,11.1,12.8,8.7c10-4,20.8-11,31.5-20.3
		C324.5,206.7,343.2,172.3,349.8,134.2L349.8,134.2z"/>
	<path class="st0" d="M317.4,56h-112c-5.2,0-9.3,4.2-9.3,9.3c0,23,39.7,118.2,58.7,137.3c3.6,3.6,9.6,3.6,13.2,0
		c19.1-19.1,58.7-114.2,58.7-137.3C326.7,60.1,322.6,56,317.4,56L317.4,56z M261.4,180.6c-15.2-24-39-80.7-45.2-105.9h90.3
		C300.4,99.9,276.6,156.5,261.4,180.6L261.4,180.6z"/>
	<path class="st0" d="M158,193.1c-1.3-3.7-2.7-7.4-4.2-10.9c-5.7-13.6-11.5-23.4-15.5-29c-3-4.2-8.9-5.1-13-2.1s-5.1,8.9-2.1,13
		c0.7,1,2.1,3.2,4,6.4c3.2,5.5,6.4,11.8,9.4,18.9c1.3,3.2,2.6,6.5,3.8,9.9c1.7,4.9,7,7.4,11.9,5.7
		C157.2,203.3,159.7,197.9,158,193.1L158,193.1z"/>
	<path class="st0" d="M382.4,199.3c1.2-3.4,2.5-6.7,3.8-9.9c3-7.1,6.2-13.4,9.4-18.9c1.9-3.2,3.3-5.4,4-6.4c3-4.2,2.1-10-2.1-13
		s-10-2.1-13,2.1c-4,5.5-9.8,15.4-15.5,29c-1.5,3.5-2.9,7.2-4.2,10.9c-1.7,4.9,0.8,10.2,5.7,11.9
		C375.4,206.7,380.7,204.1,382.4,199.3L382.4,199.3z"/>
	<path class="st0" d="M392.1,522.6c-72-0.1-121.3-40.8-121.3-102.7h-18.7c0,61.9-49.3,102.7-121.3,102.7c-9.8,0-13,13.3-4.2,17.7
		c18.2,9.1,41.1,14.5,68.6,17.3c19.6,2,35.6,2.4,66.3,2.4s46.7-0.4,66.3-2.4c27.5-2.8,50.4-8.2,68.6-17.3
		C405,535.9,401.9,522.7,392.1,522.6z M270.7,420c0-12.4-18.7-12.4-18.7,0c0,17.3,3.3,33.2,9.3,47.4
		C267.5,453.1,270.7,437.3,270.7,420z M325.8,539c-18.8,1.9-34.4,2.3-64.4,2.3s-45.6-0.4-64.4-2.3c-7.7-0.8-14.9-1.8-21.7-3
		c40.6-10.1,71.5-34.5,86.2-68.7c14.6,34.2,45.5,58.5,86.2,68.7C340.8,537.3,333.5,538.3,325.8,539L325.8,539z"/>
	<path class="st0" d="M20.5,496.1C28.9,453.7,52.4,330,55.3,315c3.2-16.7,6.3-32.2,9.2-46.8C85.6,163,101.9,97.5,109.1,90.7
		c5.5-5.2,27.3-14.7,51.7-22.7l12.2,66.2c6.6,38.1,25.3,72.4,53.4,96.8c10.7,9.2,21.5,16.3,31.5,20.3c2.2,0.9,4.7,0.9,6.9,0
		c10-4,20.8-11,31.5-20.3c28.1-24.3,46.8-58.7,53.5-96.9L362,68c24.3,8,46.1,17.5,51.7,22.7c7.2,6.8,23.5,72.3,44.6,177.5
		c2.9,14.6,6,30.1,9.2,46.8c2.9,15,26.5,138.7,34.8,181.1l-46.7,6.7c-0.1-0.6-0.2-1.2-0.4-2c-1.6-8.7-3.3-18.3-5.2-28.7
		c-5.4-29.7-10.9-59.4-16.1-87.1c-0.7-3.6-0.7-3.6-1.4-7.2c-12.8-68.5-21.3-110.9-24.1-119.4c-2.2-6.6-6-16.6-11-28.9l-1.2-3.1
		c-3.1-7.6-6.4-15.6-9.7-23.4c-1.2-2.8-2.2-5.3-3.2-7.6c-0.6-1.4-1-2.3-1.2-2.9c-3.3-7.8-14.6-7.5-17.4,0.6
		c-10.6,30-18,69.2-19.2,105.3l0.2,2.1l10.8,56c14.6,65.6,24.6,124.6,25.9,166C315.7,519,270.7,479,270.7,420H252
		c0,59.1-45,99-111.8,102.4c1.4-41.3,11.3-100.3,25.9-165.7l10.9-56.3l0.2-2.1c-1.1-36.1-8.6-75.3-19.1-105.3
		c-2.8-8-14-8.4-17.4-0.6c-0.2,0.5-0.6,1.5-1.2,2.9c-1,2.3-2,4.8-3.2,7.6c-3.3,7.9-6.6,15.8-9.7,23.4c-0.6,1.5-0.6,1.5-1.2,3.1
		c-5,12.4-8.8,22.3-11,28.9c-2.8,8.5-11.3,50.9-24.1,119.4c-0.7,3.6-0.7,3.6-1.3,7.2c-5.2,27.7-10.7,57.4-16.1,87.1
		c-1.9,10.4-3.7,20-5.2,28.7c-0.1,0.8-0.3,1.5-0.4,2L20.5,496.1z M158.5,297.9l-10.6,55c-16,71.6-26.5,135.7-26.5,179.1
		c0,5.2,4.2,9.3,9.3,9.3c62.4,0,111.1-28.2,130.7-74c19.6,45.8,68.3,74,130.7,74c5.2,0,9.3-4.2,9.3-9.3
		c0-43.3-10.5-107.5-26.5-179.4l-10.6-54.7c0.9-24.7,4.8-50.9,10.7-74.1c1.3,3.2,2.6,6.4,3.9,9.6c0.6,1.5,0.6,1.5,1.2,3
		c4.9,12,8.5,21.7,10.6,27.9c2.4,7.2,11.1,50.7,23.5,116.9c0.7,3.6,0.7,3.6,1.4,7.2c5.2,27.7,10.6,57.4,16.1,87
		c1.9,10.4,3.6,20,5.2,28.7c0.9,4.8,0.9,4.8,1.5,8c0.4,2.3,0.4,2.3,0.5,2.8c0.9,4.9,5.5,8.3,10.5,7.6l65.3-9.3
		c5.3-0.8,8.9-5.9,7.8-11.1c-5.6-27.4-33.5-174.1-36.7-190.6c-3.2-16.7-6.3-32.2-9.3-46.9c-23.3-116.1-38.3-176.2-50.1-187.4
		c-9.2-8.7-38-20.7-69-30.1c-5.3-1.6-10.9,1.8-11.9,7.2l-14.1,76.6c-5.9,34.1-22.5,64.6-47.3,86.1c-7.9,6.8-15.7,12.1-22.7,15.5
		c-7-3.4-14.8-8.7-22.7-15.5c-24.8-21.4-41.4-51.9-47.3-86l-14.2-76.7c-1-5.5-6.6-8.9-11.9-7.2c-31.1,9.4-59.8,21.4-69,30.1
		c-11.8,11.1-26.8,71.3-50.1,187.4c-2.9,14.7-6,30.2-9.3,46.9C33.7,328,5.8,474.7,0.2,502.1c-1.1,5.3,2.5,10.4,7.8,11.1l65.3,9.3
		c5,0.7,9.6-2.6,10.5-7.6c0.1-0.5,0.1-0.5,0.5-2.8c0.6-3.2,0.6-3.2,1.5-8c1.6-8.7,3.3-18.3,5.2-28.7c5.4-29.7,10.9-59.3,16.1-87
		c0.7-3.6,0.7-3.6,1.3-7.2c12.4-66.2,21.1-109.8,23.5-117c2.1-6.2,5.7-15.8,10.6-27.9c0.6-1.5,0.6-1.5,1.2-3
		c1.3-3.1,2.6-6.4,3.9-9.6C153.6,247,157.6,273.2,158.5,297.9L158.5,297.9z"/>
	<path class="st0" d="M252.1,242.6V420c0,5.2,4.2,9.3,9.3,9.3s9.3-4.2,9.3-9.3V242.6c0-5.2-4.2-9.3-9.3-9.3S252.1,237.5,252.1,242.6
		z"/>
	<path class="st0" d="M214.7,404.3v-59c0-5.2-4.2-9.3-9.3-9.3h-46.6c-4.5,0-8.3,3.2-9.2,7.6l-1.8,9.3
		c-7.9,35.3-14.8,70.8-19.6,103.1c-0.8,5.6,3.5,10.7,9.2,10.7h15C186.8,466.6,214.7,438.7,214.7,404.3L214.7,404.3z M166.1,356.7
		l0.4-2h29.6v49.7c0,24.1-19.5,43.7-43.7,43.7h-4C153,419.1,159.1,387.9,166.1,356.7L166.1,356.7z"/>
	<path class="st0" d="M308.1,404.3c0,34.4,27.9,62.3,62.3,62.3h14.9c5.7,0,10.1-5.1,9.2-10.7c-4.8-32.3-11.7-67.8-19.6-103.3
		l-1.7-9.1c-0.8-4.4-4.7-7.6-9.2-7.6h-46.6c-5.2,0-9.3,4.2-9.3,9.3V404.3z M356.3,354.6l0.3,1.8c7,31.5,13.2,62.7,17.8,91.6h-4
		c-24.1,0-43.7-19.5-43.7-43.7v-49.7L356.3,354.6z"/>
</g>
</svg>
