<?xml version="1.0" encoding="utf-8"?>
<!-- Generator: Adobe Illustrator 26.0.0, SVG Export Plug-In . SVG Version: 6.00 Build 0)  -->
<svg version="1.1" id="katman_1" xmlns="http://www.w3.org/2000/svg" xmlns:xlink="http://www.w3.org/1999/xlink" x="0px" y="0px"
	 viewBox="0 0 522.8 560.1" style="enable-background:new 0 0 522.8 560.1;" xml:space="preserve">
<style type="text/css">
	.st0{fill-rule:evenodd;clip-rule:evenodd;}
</style>
<g>
	<path class="st0" d="M168.2,401.3v37.3c0,2.5,1,4.8,2.7,6.6l28,28c3.6,3.6,9.6,3.6,13.2,0l28-28c1.8-1.8,2.7-4.1,2.7-6.6v-37.3
		c0-5.2-4.2-9.3-9.3-9.3h-56C172.3,392,168.2,396.1,168.2,401.3z M224.2,410.6v24.1l-18.7,18.7l-18.7-18.7v-24.1L224.2,410.6
		L224.2,410.6z"/>
	<path class="st0" d="M336.2,410.6v24.1l-18.7,18.7l-18.7-18.7v-24.1L336.2,410.6L336.2,410.6z M354.8,401.3c0-5.2-4.2-9.3-9.3-9.3
		h-56c-5.2,0-9.3,4.2-9.3,9.3v37.3c0,2.5,1,4.8,2.7,6.6l28,28c3.6,3.6,9.6,3.6,13.2,0l28-28c1.8-1.8,2.7-4.1,2.7-6.6L354.8,401.3
		L354.8,401.3z"/>
	<path class="st0" d="M233.5,373.3h56c5.2,0,9.3-4.2,9.3-9.3v-74.7c0-5.2-4.2-9.3-9.3-9.3h-56c-5.2,0-9.3,4.2-9.3,9.3V364
		C224.2,369.1,228.3,373.3,233.5,373.3z M242.8,354.6v-56h37.3v56H242.8z"/>
	<path class="st0" d="M270.8,326.6c0-5.2-4.2-9.3-9.3-9.3s-9.3,4.2-9.3,9.3s4.2,9.3,9.3,9.3S270.8,331.8,270.8,326.6"/>
	<path class="st0" d="M252.2,242.6v46.7c0,5.2,4.2,9.3,9.3,9.3s9.3-4.2,9.3-9.3v-46.7c0-5.2-4.2-9.3-9.3-9.3
		S252.2,237.5,252.2,242.6L252.2,242.6z"/>
	<path class="st0" d="M252.2,364v186.7c0,5.2,4.2,9.3,9.3,9.3s9.3-4.2,9.3-9.3V364c0-5.2-4.2-9.3-9.3-9.3S252.2,358.8,252.2,364
		L252.2,364z"/>
	<path class="st0" d="M158.1,195.3c-1.3-3.7-2.7-7.4-4.2-10.9c-5.7-13.6-11.5-23.4-15.5-29c-3-4.2-8.9-5.1-13-2.1
		c-4.2,3-5.1,8.9-2.1,13c0.7,1,2.1,3.2,4,6.4c3.2,5.5,6.4,11.8,9.4,18.9c1.3,3.2,2.6,6.5,3.8,9.9c1.7,4.9,7,7.4,11.9,5.7
		C157.3,205.5,159.8,200.1,158.1,195.3L158.1,195.3z"/>
	<path class="st0" d="M382.5,201.5c1.2-3.4,2.5-6.7,3.8-9.9c3-7.1,6.2-13.4,9.4-18.9c1.9-3.2,3.3-5.4,4-6.4c3-4.2,2.1-10-2.1-13
		s-10-2.1-13,2.1c-4,5.5-9.8,15.4-15.5,29c-1.5,3.5-2.9,7.2-4.2,10.9c-1.7,4.9,0.8,10.2,5.7,11.9
		C375.5,208.9,380.8,206.4,382.5,201.5L382.5,201.5z"/>
	<path class="st0" d="M176.2,119.5c-19.5,13.9-23.2,41.8-7.4,59.8c0.3,0.3,0.3,0.3,0.7,0.8c0.4,0.5,9.1,10.1,12.1,13.4
		c5.4,6,10.3,11.2,15.2,16.2c7.5,7.7,14.6,14.5,21.4,20.2c16.7,14.2,30.8,22.1,43.4,22.1c5.2,0,9.3-4.2,9.3-9.3V196
		c0-3.3-1.7-6.3-4.5-8c-13.5-8.1-27.8-38.1-40.6-81.7c-5.7-19.5-10.7-40.4-15.1-61.3c-1.5-7.3-2.8-14.1-3.9-20.2
		c-0.7-3.6-1.1-6.2-1.3-7.6c-1-5.9-7.2-9.4-12.7-7.1c-9.7,3.9-16.5,9.4-29,21.6c-0.2,0.2-0.2,0.2-0.4,0.4
		c-27.2,26.3-13.5,72.8,24.1,79.2L176.2,119.5z M192.4,48.7c3.1,15,6.6,30,10.4,44.6c1.6,6.2,3.3,12.3,5,18.2
		c0.6,2.2,1.3,4.3,1.9,6.4c12.5,41,26.2,69.8,42.4,82.8v30c-6.1-2.8-13.5-7.9-21.9-15.1c-6.3-5.3-13-11.7-20.1-19
		c-4.7-4.8-9.4-9.9-14.7-15.7c-2.9-3.2-11.6-12.9-12.1-13.4c-0.2-0.2-0.2-0.2-0.6-0.7c-8.3-9.4-6.3-24.6,4.4-32.3l33.2-24.5
		c7.3-5.3,3.5-16.8-5.5-16.8c-2.5,0-4.4,0-7.2,0c-2.5,0-3.6,0-4.8,0c-2.3,0-4.2,0-6.6,0c-26.8-0.2-37.5-30.9-19.8-48
		c0.3-0.3,0.3-0.3,0.4-0.4c5.1-5,9.1-8.6,12.5-11.4C190.3,38.3,191.3,43.4,192.4,48.7L192.4,48.7z"/>
	<path class="st0" d="M346.3,45c18,17.4,7.3,48.2-19.5,48.3c-2.3,0-4.3,0-6.5,0c-1.2,0-2.3,0-4.8,0c-2.8,0-4.8,0-7.2,0
		c-9,0-12.8,11.5-5.5,16.8l33.1,24.4c10.8,7.7,12.9,22.9,4.5,32.5c-0.3,0.3-0.3,0.3-0.5,0.5c-0.5,0.6-9.2,10.2-12.1,13.5
		c-5.3,5.8-10,10.9-14.7,15.7c-7.2,7.4-13.8,13.7-20.1,19c-8.4,7.2-15.9,12.2-21.9,15.1v-30c16.2-13,29.9-41.8,42.4-82.8
		c0.6-2.1,1.3-4.3,1.9-6.4c1.7-6,3.4-12,5-18.2c3.8-14.5,7.3-29.6,10.4-44.6c1.1-5.4,2.1-10.5,3-15.2
		C337.1,36.3,341.1,39.9,346.3,45L346.3,45z M313.7,95.1l-5.5,7.5v9.3c2.4,0,4.4,0,7.2,0c2.5,0,3.6,0,4.8,0c2.3,0,4.3,0,6.7,0
		c3,0,5.9-0.3,8.6-0.8L313.7,95.1z M359.6,31.9c-12.7-12.4-19.6-18-29.2-21.9c-5.5-2.2-11.7,1.2-12.7,7.1c-0.2,1.4-0.7,3.9-1.3,7.6
		c-1.1,6.1-2.4,12.9-3.9,20.2c-4.3,20.9-9.4,41.9-15.1,61.3c-12.8,43.6-27.1,73.5-40.6,81.7c-2.8,1.7-4.5,4.7-4.5,8v46.7
		c0,5.2,4.2,9.3,9.3,9.3c12.6,0,26.7-7.9,43.4-22.1c6.8-5.8,13.8-12.5,21.4-20.2c4.9-5,9.7-10.2,15.2-16.2
		c3-3.3,11.7-12.9,12.1-13.5c0.4-0.4,0.4-0.4,0.6-0.6c15.9-18.1,12.2-46.1-7.4-60l-11.1-8.2C373.2,104.8,386.9,58.3,359.6,31.9
		L359.6,31.9z"/>
	<path class="st0" d="M158.8,306.9c-0.3,1.3-0.8,3.3-1.4,5.8c-1.3,5.5-2.7,11.8-4.2,18.7c-4.4,19.7-8.8,40.7-12.9,62
		c-3.5,18.2-6.6,35.8-9.3,52.6c-6.1,38.6-9.5,71.1-9.5,95.5c0,4.6,3.4,8.6,8,9.2c0.5,0.1,1.6,0.2,3,0.4c2.4,0.3,5.2,0.7,8.4,1.1
		c9,1.1,19,2.2,29.9,3.2c30.9,2.9,61.8,4.7,90.7,4.7s59.8-1.8,90.7-4.7c10.8-1,20.8-2.1,29.9-3.2c3.2-0.4,6-0.7,8.4-1.1
		c1.5-0.2,2.5-0.3,3-0.4c4.6-0.7,8-4.6,8-9.2c0-24.4-3.4-56.8-9.5-95.5c-2.7-16.8-5.8-34.4-9.3-52.6c-4.1-21.3-8.5-42.3-12.9-62
		c-1.5-6.9-3-13.2-4.2-18.7c-0.6-2.5-1-4.4-1.4-5.8c0.1-27.2,4.3-57,11-83.1c1.3,3.3,2.7,6.5,3.9,9.6c0.6,1.5,0.6,1.5,1.2,3
		c4.9,12,8.5,21.7,10.6,27.9c2.4,7.2,11.1,50.7,23.5,116.9c0.7,3.6,0.7,3.6,1.3,7.2c5.2,27.7,10.6,57.4,16.1,87
		c1.9,10.4,3.7,20,5.2,28.7c0.9,4.8,0.9,4.8,1.5,8c0.4,2.3,0.4,2.3,0.5,2.8c0.9,4.9,5.5,8.3,10.5,7.6l65.3-9.3
		c5.3-0.8,8.9-5.9,7.8-11.1c-5.6-27.4-33.5-174-36.7-190.6c-3.3-16.7-6.3-32.2-9.3-46.9c-23.3-116.1-38.3-176.2-50.1-187.4
		c-8.3-7.9-31.8-18.1-60-27.3c-6.7-2.2-13.3,3.6-12.1,10.5c3.1,17.4-8.4,32.7-27.8,32.9c-2.3,0-4.3,0-6.6,0c-1.2,0-2.3,0-4.8,0
		c-2.8,0-4.8,0-7.2,0c-9,0-12.8,11.5-5.5,16.8l33.1,24.4c10.8,7.7,12.9,22.9,4.5,32.5c-1,1.1-9.6,10.7-12.6,14
		c-5.3,5.8-10,10.9-14.7,15.7c-7.2,7.4-13.8,13.7-20.1,19c-13.5,11.5-24.5,17.6-31.3,17.6s-17.8-6.1-31.3-17.6
		c-6.3-5.3-13-11.7-20.1-19c-4.7-4.8-9.4-9.9-14.7-15.7c-2.9-3.2-11.6-12.9-12.1-13.4c-8.9-10.1-6.9-25.3,3.9-32.9l33.2-24.5
		c7.3-5.3,3.5-16.8-5.5-16.8c-2.5,0-4.4,0-7.2,0c-2.5,0-3.6,0-4.8,0c-2.2,0-4.2,0-6.6,0c-19.4-0.1-30.9-15.5-27.8-32.9
		c1.2-6.9-5.4-12.7-12.1-10.5c-28.2,9.2-51.6,19.4-60,27.3c-11.8,11.2-26.8,71.3-50.1,187.4c-2.9,14.7-6,30.2-9.3,46.9
		C33.7,328.2,5.8,474.8,0.2,502.2c-1.1,5.3,2.5,10.4,7.8,11.1l65.3,9.3c5,0.7,9.6-2.6,10.5-7.6c0.1-0.5,0.1-0.5,0.5-2.8
		c0.6-3.2,0.6-3.2,1.5-8c1.6-8.7,3.3-18.3,5.2-28.7c5.4-29.7,10.9-59.3,16.1-87c0.7-3.6,0.7-3.6,1.3-7.2
		c12.4-66.2,21.1-109.8,23.5-117c2.1-6.2,5.7-15.8,10.6-27.9c0.6-1.5,0.6-1.5,1.2-3c1.3-3.2,2.6-6.4,3.9-9.6
		C154.5,249.9,158.7,279.7,158.8,306.9L158.8,306.9z M373.3,72c19.8,7.1,35.8,14.5,40.4,18.8c7.2,6.8,23.5,72.3,44.6,177.5
		c2.9,14.6,6,30.1,9.2,46.8c2.9,15,26.5,138.7,34.8,181.1l-46.7,6.7c-0.1-0.6-0.2-1.2-0.4-2c-1.6-8.7-3.3-18.3-5.2-28.7
		c-5.4-29.7-10.9-59.4-16.1-87.1c-0.7-3.6-0.7-3.6-1.3-7.2c-12.9-68.5-21.3-110.9-24.1-119.4c-2.2-6.7-6-16.6-11-28.9
		c-0.6-1.5-0.6-1.5-1.2-3.1c-3.1-7.6-6.4-15.6-9.7-23.4c-1.2-2.8-2.2-5.3-3.2-7.6c-0.6-1.4-1-2.3-1.2-2.9
		c-3.3-7.8-14.6-7.5-17.4,0.6c-11.6,32.8-19.3,76.2-19.3,114.8c0,0.7,0.1,1.5,0.3,2.2c0.3,1.2,0.8,3.5,1.6,6.7
		c1.3,5.4,2.7,11.6,4.2,18.5c4.4,19.6,8.7,40.3,12.8,61.4c3.5,18,6.6,35.4,9.2,52c5.3,33.5,8.5,62.1,9.2,84.4
		c-0.9,0.1-1.9,0.2-2.9,0.4c-8.9,1.1-18.7,2.2-29.4,3.2c-30.4,2.9-60.7,4.6-88.9,4.6s-58.6-1.7-88.9-4.6c-10.6-1-20.5-2.1-29.4-3.2
		c-1-0.1-2-0.2-2.9-0.4c0.7-22.2,3.9-50.9,9.2-84.4c2.6-16.6,5.7-34,9.2-52c4.1-21.1,8.4-41.9,12.8-61.4c1.5-6.8,2.9-13,4.2-18.5
		c0.8-3.3,1.3-5.5,1.6-6.7c0.2-0.7,0.3-1.5,0.3-2.2c0-38.5-7.8-81.9-19.4-114.9c-2.8-8-14-8.4-17.4-0.6c-0.2,0.5-0.6,1.5-1.2,2.9
		c-1,2.3-2,4.8-3.2,7.6c-3.3,7.9-6.6,15.8-9.7,23.4c-0.6,1.5-0.6,1.5-1.2,3.1c-5,12.4-8.8,22.3-11,28.9
		c-2.8,8.5-11.3,50.9-24.1,119.4c-0.7,3.6-0.7,3.6-1.3,7.2c-5.2,27.7-10.7,57.4-16.1,87.1c-1.9,10.4-3.7,20-5.2,28.7
		c-0.1,0.8-0.3,1.5-0.4,2l-46.7-6.7c8.4-42.4,31.9-166,34.8-181.1c3.2-16.7,6.3-32.2,9.2-46.8C85.9,163,102.2,97.5,109.4,90.7
		C114,86.4,130,79,149.8,71.9c2.4,19.5,16.7,35.7,37.8,39.3l-11.3,8.3c-19.5,13.9-23.2,41.8-7.4,59.8c1.1,1.3,9.8,10.9,12.8,14.2
		c5.4,6,10.3,11.2,15.2,16.2c7.5,7.7,14.6,14.5,21.4,20.2c16.7,14.2,30.8,22.1,43.4,22.1s26.7-7.9,43.4-22.1
		c6.8-5.8,13.8-12.5,21.4-20.2c4.9-5,9.7-10.2,15.2-16.2c3-3.3,11.7-12.9,12.1-13.5c16.5-18.7,12.7-46.7-6.9-60.6l-11.1-8.2
		C356.7,107.6,370.9,91.4,373.3,72L373.3,72z"/>
	<path class="st0" d="M261.5,0c-26.6,0-53.6,4.2-68.7,10c-4.2,1.6-6.7,6.1-5.8,10.5l9.3,46.7c0.9,4.4,4.7,7.5,9.2,7.5h112
		c4.4,0,8.3-3.1,9.2-7.5l9.3-46.7c0.9-4.5-1.6-8.9-5.8-10.5C315.1,4.1,288.1,0,261.5,0L261.5,0z M309.8,56h-96.7l-6.2-31
		c13.7-3.7,34.2-6.3,54.5-6.3s40.9,2.6,54.5,6.3L309.8,56z"/>
	<path class="st0" d="M317.5,56h-112c-6,0-10.4,5.6-9.1,11.4c16.2,71.1,35.4,121.6,60.2,136.6c3,1.8,6.7,1.8,9.6,0
		c24.8-15,44-65.5,60.2-136.6C327.9,61.5,323.5,56,317.5,56L317.5,56z M261.5,184.2c-15.7-14.9-31.2-55.9-44.2-109.6h88.4
		C292.7,128.3,277.2,169.3,261.5,184.2L261.5,184.2z"/>
	<path class="st0" d="M364.3,300.9c0-1,0-1,0.1-2c0.2-5.3-4.1-9.6-9.3-9.6h-65.6c-5.2,0-9.3,4.2-9.3,9.3v56c0,5.2,4.2,9.3,9.3,9.3
		h75.8c5.9,0,10.4-5.5,9.1-11.3c-2.6-12.2-5.1-23.6-7.5-33.9c-0.8-3.6-1.6-6.8-2.2-9.6c-0.2-0.9-0.4-1.7-0.6-2.3
		C364.2,305.4,364.2,303.8,364.3,300.9L364.3,300.9z M298.8,345.3V308h46.7c0,0.7,0.1,1.5,0.3,2.2c0.1,0.6,0.4,1.7,0.8,3.3
		c0.6,2.7,1.4,5.9,2.2,9.5c1.6,7,3.3,14.4,5,22.4L298.8,345.3z"/>
	<path class="st0" d="M158.3,309.2c-0.7,2.8-1.4,6-2.2,9.6c-2.4,10.3-4.9,21.7-7.5,33.9c-1.2,5.8,3.2,11.3,9.1,11.3h75.8
		c5.2,0,9.3-4.2,9.3-9.3v-56c0-5.2-4.2-9.3-9.3-9.3h-65.6c-5.3,0-9.5,4.4-9.3,9.6c0,1,0,1,0.1,2c0.1,2.9,0.1,4.5,0.2,5.9
		C158.7,307.5,158.5,308.3,158.3,309.2L158.3,309.2z M224.2,308v37.3h-54.9c1.7-7.9,3.4-15.4,5-22.4c0.8-3.6,1.6-6.7,2.2-9.5
		c0.4-1.6,0.7-2.8,0.8-3.3c0.2-0.7,0.3-1.5,0.3-2.2L224.2,308z"/>
</g>
</svg>
