<?xml version="1.0" encoding="utf-8"?>
<!-- Generator: Adobe Illustrator 26.0.0, SVG Export Plug-In . SVG Version: 6.00 Build 0)  -->
<svg version="1.1" id="katman_1" xmlns="http://www.w3.org/2000/svg" xmlns:xlink="http://www.w3.org/1999/xlink" x="0px" y="0px"
	 viewBox="0 0 522.6 559.9" style="enable-background:new 0 0 522.6 559.9;" xml:space="preserve">
<style type="text/css">
	.st0{fill-rule:evenodd;clip-rule:evenodd;}
</style>
<g>
	<path class="st0" d="M158,193.1c-1.3-3.7-2.7-7.4-4.2-10.9c-5.7-13.6-11.5-23.4-15.5-29c-3-4.2-8.9-5.1-13-2.1
		c-4.2,3-5.1,8.9-2.1,13c0.7,1,2.1,3.2,4,6.4c3.2,5.5,6.4,11.8,9.4,18.9c1.3,3.2,2.6,6.5,3.8,9.9c1.7,4.9,7,7.4,11.9,5.7
		C157.2,203.3,159.7,198,158,193.1L158,193.1z"/>
	<path class="st0" d="M382.4,199.3c1.2-3.4,2.5-6.7,3.8-9.9c3-7.1,6.2-13.5,9.4-18.9c1.9-3.2,3.3-5.4,4-6.4c3-4.2,2.1-10-2.1-13
		s-10-2.1-13,2.1c-4,5.5-9.8,15.4-15.5,29c-1.5,3.5-2.9,7.2-4.2,10.9c-1.7,4.9,0.8,10.2,5.7,11.9
		C375.4,206.7,380.7,204.2,382.4,199.3L382.4,199.3z"/>
	<path class="st0" d="M176.1,119.6c-19.5,13.9-23.2,41.8-7.4,59.8c0.3,0.3,0.3,0.3,0.7,0.8c0.4,0.5,9.1,10.1,12.1,13.4
		c5.4,6,10.3,11.2,15.2,16.2c7.5,7.7,14.6,14.5,21.4,20.2c16.7,14.2,30.8,22.1,43.4,22.1c5.2,0,9.3-4.2,9.3-9.3v-46.7
		c0-3.3-1.7-6.3-4.5-8c-13.5-8.1-27.8-38.1-40.6-81.7C220,86.9,215,66,210.6,45.1c-1.5-7.3-2.8-14.1-3.9-20.2
		c-0.7-3.6-1.1-6.2-1.3-7.6c-1-5.9-7.2-9.4-12.7-7.1c-9.7,3.9-16.5,9.4-29,21.6c-0.2,0.2-0.2,0.2-0.4,0.4
		c-27.2,26.3-13.5,72.8,24.1,79.2L176.1,119.6z M192.3,48.8c3.1,15,6.6,30,10.4,44.6c1.6,6.2,3.3,12.3,5,18.2
		c0.6,2.2,1.3,4.3,1.9,6.4c12.5,41,26.2,69.8,42.4,82.8v30c-6.1-2.8-13.5-7.9-21.9-15.1c-6.3-5.3-13-11.7-20.1-19
		c-4.7-4.8-9.4-9.9-14.7-15.7c-2.9-3.2-11.6-12.9-12.1-13.4c-0.2-0.2-0.2-0.2-0.6-0.7c-8.3-9.4-6.3-24.6,4.4-32.3l33.2-24.5
		c7.3-5.3,3.5-16.8-5.5-16.8c-2.5,0-4.4,0-7.2,0c-2.5,0-3.6,0-4.8,0c-2.3,0-4.2,0-6.6,0c-26.8-0.2-37.5-30.9-19.8-48
		c0.3-0.3,0.3-0.3,0.4-0.4c5.1-5,9.1-8.7,12.6-11.4C190.2,38.3,191.2,43.4,192.3,48.8L192.3,48.8z"/>
	<path class="st0" d="M346.2,45c18,17.4,7.3,48.2-19.5,48.3c-2.3,0-4.3,0-6.5,0c-1.2,0-2.3,0-4.8,0c-2.8,0-4.8,0-7.2,0
		c-9,0-12.8,11.5-5.5,16.8l33.1,24.4c10.8,7.7,12.9,22.9,4.5,32.5c-0.3,0.3-0.3,0.3-0.5,0.5c-0.5,0.6-9.2,10.2-12.1,13.5
		c-5.3,5.8-10,10.9-14.7,15.7c-7.2,7.4-13.8,13.7-20.1,19c-8.4,7.2-15.9,12.3-21.9,15.1v-30c16.2-13,29.9-41.8,42.4-82.8
		c0.6-2.1,1.3-4.3,1.9-6.4c1.7-6,3.4-12,5-18.2c3.6-14.6,7.1-29.6,10.2-44.6c1.1-5.4,2.1-10.5,3-15.2C337,36.3,341,40,346.2,45
		L346.2,45z M313.6,95.2l-5.5,7.5v9.3c2.4,0,4.4,0,7.2,0c2.5,0,3.6,0,4.8,0c2.3,0,4.3,0,6.7,0c3,0,5.9-0.3,8.6-0.8L313.6,95.2z
		 M359.5,31.9c-12.7-12.4-19.6-18-29.2-21.9c-5.5-2.2-11.7,1.2-12.7,7.1c-0.2,1.4-0.7,3.9-1.3,7.6c-1.1,6.1-2.4,12.9-3.9,20.2
		c-4.3,20.9-9.4,41.9-15.1,61.3c-12.8,43.6-27.1,73.5-40.6,81.7c-2.8,1.7-4.5,4.7-4.5,8v46.7c0,5.2,4.2,9.3,9.3,9.3
		c12.6,0,26.7-7.9,43.4-22.1c6.8-5.8,13.8-12.5,21.4-20.2c4.9-5,9.7-10.2,15.2-16.2c3-3.3,11.7-12.9,12.1-13.5
		c0.4-0.4,0.4-0.4,0.6-0.6c15.9-18.1,12.2-46-7.4-60l-11.1-8.2C373.1,104.8,386.8,58.3,359.5,31.9L359.5,31.9z"/>
	<path class="st0" d="M261.4,0c-26.6,0-53.6,4.2-68.7,10c-4.2,1.6-6.7,6.1-5.8,10.5l9.3,46.7c0.9,4.4,4.7,7.5,9.2,7.5h112
		c4.4,0,8.3-3.1,9.2-7.5l9.3-46.7c0.9-4.5-1.6-8.9-5.8-10.5C315,4.2,288,0,261.4,0L261.4,0z M309.7,56H213l-6.2-31
		c13.7-3.7,34.2-6.3,54.5-6.3s40.9,2.6,54.5,6.3L309.7,56z"/>
	<path class="st0" d="M317.4,56h-112c-6,0-10.4,5.6-9.1,11.4c16.2,71.1,35.4,121.6,60.2,136.6c3,1.8,6.7,1.8,9.6,0
		c24.8-15,44-65.5,60.2-136.6C327.8,61.6,323.4,56,317.4,56L317.4,56z M261.4,184.3c-15.7-14.9-31.2-55.9-44.2-109.6h88.4
		C292.6,128.4,277.1,169.3,261.4,184.3L261.4,184.3z"/>
	<path class="st0" d="M252.1,419.8c0,61.9-49.3,102.7-121.3,102.7c-9.8,0-13,13.3-4.2,17.7c18.2,9.1,41.1,14.5,68.6,17.3
		c19.6,2,35.6,2.4,66.3,2.4s46.7-0.4,66.3-2.4c27.5-2.8,50.4-8.2,68.6-17.3c8.8-4.4,5.7-17.7-4.2-17.7c-72,0-121.3-40.8-121.3-102.7
		H252.1z M270.7,419.8c0-12.4-18.7-12.4-18.7,0c0,17.3,3.3,33.2,9.3,47.4C267.5,453,270.7,437.1,270.7,419.8z M347.6,535.8
		c-3.4,0.6-6.9,1.2-10.6,1.7L347.6,535.8z M337,537.5c-3.6,0.5-7.4,0.9-11.2,1.3c-18.8,1.9-34.4,2.3-64.4,2.3s-45.6-0.4-64.4-2.3
		c-7.7-0.8-14.9-1.8-21.7-3c40.6-10.1,71.5-34.5,86.1-68.7c14.6,34.2,45.5,58.6,86.1,68.7L337,537.5z"/>
	<path class="st0" d="M270.7,419.8H252c0,59.1-45,99-111.8,102.4c0.7-21.4,3.9-47.5,9.2-78.3c2.5-14.9,5.5-30.6,9.1-48.2
		c2.3-11.3,3.8-18.6,8.2-39l10.3-56.3l0.1-2c-1.1-36.1-8.6-75.3-19.1-105.3c-2.8-8-14-8.4-17.4-0.6c-0.2,0.5-0.6,1.5-1.2,2.9
		c-1,2.3-2,4.8-3.2,7.6c-3.3,7.9-6.6,15.8-9.7,23.4c-0.6,1.5-0.6,1.5-1.2,3.1c-5,12.4-8.8,22.3-11,28.9
		c-2.8,8.5-11.3,50.9-24.1,119.4c-0.7,3.6-0.7,3.6-1.4,7.2c-5.2,27.7-10.7,57.4-16.1,87.1c-1.9,10.4-3.7,20-5.2,28.7
		c-0.1,0.8-0.3,1.5-0.4,2l-46.7-6.7C28.8,453.7,52.3,330,55.2,315c3.2-16.7,6.3-32.2,9.2-46.8C85.6,163.1,102,97.6,109.1,90.8
		c4.6-4.3,20.6-11.7,40.4-18.8c2.4,19.5,16.7,35.7,37.8,39.3l-11.2,8.3c-19.5,13.9-23.2,41.8-7.4,59.8c1.1,1.2,9.8,10.9,12.8,14.2
		c5.4,6,10.3,11.2,15.2,16.2c7.5,7.7,14.6,14.5,21.4,20.2c16.7,14.2,30.8,22.1,43.4,22.1s26.7-7.9,43.4-22.1
		c6.8-5.8,13.9-12.5,21.4-20.2c4.9-5,9.7-10.2,15.2-16.2c3-3.3,11.7-13,12.1-13.5c16.5-18.7,12.7-46.7-6.9-60.6l-11.1-8.2
		c21.1-3.6,35.4-19.8,37.8-39.3c19.8,7.1,35.8,14.5,40.4,18.8c7.2,6.8,23.5,72.3,44.6,177.5c2.9,14.6,6,30.1,9.2,46.8
		c2.9,15,26.5,138.7,34.8,181.1l-46.7,6.7c-0.1-0.6-0.2-1.2-0.4-2c-1.6-8.7-3.3-18.3-5.2-28.7c-5.4-29.7-10.9-59.4-16.1-87.1
		c-0.7-3.6-0.7-3.6-1.3-7.2c-12.8-68.5-21.3-110.9-24.1-119.4c-2.2-6.7-6-16.6-11-28.9c-0.6-1.5-0.6-1.5-1.2-3.1
		c-3.1-7.6-6.4-15.6-9.7-23.4c-1.2-2.8-2.2-5.3-3.2-7.6c-0.6-1.4-1-2.3-1.2-2.9c-3.3-7.8-14.5-7.5-17.4,0.6
		c-10.6,29.9-18,69.2-19.1,105.3l0.1,2l10.2,56c4.6,21.8,6.2,29.3,8.6,41.2c3.6,17.6,6.5,33.3,9.1,48.2c5.1,29.9,8.1,55.4,8.9,76.4
		C315.8,518.7,270.7,478.9,270.7,419.8L270.7,419.8z M364.3,298c0.9-24.7,4.8-51,10.7-74.2c1.3,3.2,2.7,6.5,3.9,9.6
		c0.6,1.5,0.6,1.5,1.2,3c4.9,12,8.5,21.7,10.6,27.9c2.4,7.2,11.1,50.7,23.5,116.9c0.7,3.6,0.7,3.6,1.3,7.2
		c5.2,27.7,10.6,57.4,16.1,87c1.9,10.4,3.7,20,5.2,28.7c0.9,4.8,0.9,4.8,1.5,8c0.4,2.3,0.4,2.3,0.5,2.8c0.9,4.9,5.5,8.3,10.5,7.6
		l65.3-9.3c5.3-0.8,8.9-5.9,7.8-11.1c-5.6-27.4-33.5-174-36.7-190.6c-3.3-16.7-6.3-32.2-9.3-46.9c-23.3-116.1-38.3-176.2-50.1-187.4
		c-8.3-7.9-31.8-18.1-60-27.3c-6.7-2.2-13.3,3.6-12.1,10.5c3.1,17.4-8.4,32.7-27.8,32.9c-2.3,0-4.3,0-6.6,0c-1.2,0-2.3,0-4.8,0
		c-2.8,0-4.8,0-7.2,0c-9,0-12.8,11.5-5.5,16.8l33.1,24.4c10.8,7.7,12.9,22.9,4.5,32.5c-0.9,1-9.6,10.7-12.6,14
		c-5.3,5.8-10,10.9-14.7,15.7c-7.2,7.4-13.8,13.7-20.1,19c-13.5,11.5-24.5,17.6-31.3,17.6s-17.8-6.1-31.3-17.6
		c-6.3-5.3-12.9-11.7-20.1-19c-4.7-4.8-9.4-9.9-14.7-15.7c-2.9-3.2-11.6-12.9-12.1-13.4c-8.9-10.1-6.9-25.3,3.9-32.9l33.2-24.5
		c7.3-5.3,3.5-16.8-5.5-16.8c-2.5,0-4.4,0-7.2,0c-2.5,0-3.6,0-4.8,0c-2.2,0-4.2,0-6.6,0c-19.3-0.2-30.8-15.6-27.6-32.9
		c1.2-6.9-5.4-12.7-12.1-10.5c-28.1,9.2-51.6,19.4-60,27.3c-11.8,11.2-26.8,71.3-50.1,187.4c-2.9,14.7-6,30.2-9.3,46.9
		C33.7,328.2,5.8,474.8,0.2,502.2c-1.1,5.3,2.5,10.4,7.8,11.1l65.3,9.3c5,0.7,9.6-2.6,10.5-7.6c0.1-0.5,0.1-0.5,0.5-2.8
		c0.6-3.2,0.6-3.2,1.5-8c1.6-8.7,3.3-18.3,5.2-28.7c5.4-29.7,10.9-59.3,16.1-87c0.7-3.6,0.7-3.6,1.4-7.2
		c12.4-66.2,21.1-109.8,23.5-116.9c2.1-6.2,5.7-15.8,10.6-27.9c0.6-1.5,0.6-1.5,1.2-3c1.3-3.1,2.6-6.3,3.9-9.6
		c5.9,23.2,9.9,49.5,10.7,74.2l-10.1,55c-4.3,20.2-5.9,27.6-8.2,38.9c-3.6,17.8-6.6,33.7-9.2,48.8c-6.2,36.5-9.6,66.7-9.6,91.1
		c0,5.2,4.2,9.3,9.3,9.3c62.3,0,111.1-28.1,130.7-74c19.6,45.8,68.4,73.9,130.7,74c5.2,0,9.3-4.2,9.3-9.3c0-23.9-3.3-53.5-9.3-89.1
		c-2.6-15.2-5.6-31.1-9.2-48.8c-2.4-11.9-4-19.4-8.6-41L364.3,298z"/>
	<path class="st0" d="M270.7,419.8V242.7c0-5.2-4.2-9.3-9.3-9.3s-9.3,4.2-9.3,9.3v177.1c0,5.2,4.2,9.3,9.3,9.3
		S270.7,424.9,270.7,419.8z"/>
	<path class="st0" d="M140.3,391.8c-3.6,17.8-6.7,33.7-9.2,48.9c-1.4,8.5-2.7,16.6-3.9,24.4c-0.8,5.6,3.6,10.7,9.2,10.7h15.9
		c34.4,0,62.3-27.9,62.3-62.3v-59c0-5.2-4.2-9.3-9.3-9.3h-47.7c-4.5,0-8.4,3.2-9.2,7.7C144.2,372.9,142.6,380.5,140.3,391.8
		L140.3,391.8z M196,363.8v49.7c0,24.1-19.5,43.7-43.7,43.7h-5.1c0.7-4.3,1.4-8.7,2.2-13.3c2.6-14.9,5.5-30.6,9.1-48.3
		c2-9.8,3.5-16.8,6.6-31.8L196,363.8L196,363.8z"/>
	<path class="st0" d="M365.2,345.1h-47.7c-5.2,0-9.3,4.2-9.3,9.3v59c0,34.4,27.9,62.3,62.3,62.3h15.9c5.7,0,10.1-5,9.2-10.7
		c-1-7.2-2.2-14.7-3.5-22.4c-2.6-15.2-5.6-31.1-9.2-48.9c-2.4-11.9-4.1-19.7-8.6-40.9C373.5,348.3,369.7,345.1,365.2,345.1
		L365.2,345.1z M364.6,397.5c3.6,17.6,6.5,33.3,9.1,48.3c0.7,3.8,1.3,7.6,1.9,11.3h-5.1c-24.1,0-43.7-19.5-43.7-43.7v-49.6h30.8
		C361,379.8,362.5,387,364.6,397.5L364.6,397.5z"/>
</g>
</svg>
