<?xml version="1.0" encoding="utf-8"?>
<!-- Generator: Adobe Illustrator 26.0.0, SVG Export Plug-In . SVG Version: 6.00 Build 0)  -->
<svg version="1.1" id="Blazer" xmlns="http://www.w3.org/2000/svg" xmlns:xlink="http://www.w3.org/1999/xlink" x="0px" y="0px"
	 viewBox="0 0 296.7 466.9" style="enable-background:new 0 0 296.7 466.9;" xml:space="preserve">
<g>
	<path d="M147,329.2c0-4.1-3.4-7.5-7.5-7.5c-4.1,0-7.5,3.4-7.5,7.5c0,4.1,3.4,7.5,7.5,7.5C143.7,336.7,147,333.3,147,329.2z"/>
	<path d="M79.6,455.6l-1-0.2c-1.8-0.5-3.7,0.6-4.2,2.5c-0.5,1.8,0.6,3.7,2.5,4.2l1,0.3c0.3,0.1,0.6,0.1,0.8,0.1c1.5,0,3-1,3.3-2.6
		C82.6,457.9,81.5,456.1,79.6,455.6z"/>
	<path d="M290,201.5c-0.2-1.9-1.8-3.3-3.7-3.2c-1.9,0.2-3.3,1.8-3.1,3.7C289,272,291,353.9,289,445.8H257c6-4.1,9-7.2,9.2-7.3
		c4-4,3-12.3,1.5-21.2c-0.2-1.3-0.4-2.3-0.5-3.1c-1.6-14-4-27.7-6.6-41.6c-2.2-12.1-4.8-24.4-7.4-36.2l-0.3-1.6c0,0,0,0,0,0
		c0,0,0-0.1,0-0.1c0,0,0,0,0,0c-4.9-23-10.5-49-12.5-74.8c-2.6-34.5-1-71.3,5.2-112.4c6.3-42.1,13.5-66.8,17.6-78.8
		c3.6,13.8,10.3,43.2,15.9,92.7c0.2,1.8,1.7,3.1,3.4,3.1c0.1,0,0.3,0,0.4,0c1.9-0.2,3.3-1.9,3-3.8C277.6,87.2,267.4,58,266.9,56.8
		c0,0,0,0,0-0.1c0,0,0,0,0-0.1c0-0.1-0.1-0.1-0.1-0.2c-0.1-0.1-0.1-0.3-0.2-0.4c0-0.1-0.1-0.1-0.2-0.2c-0.1-0.1-0.2-0.2-0.3-0.3
		c-0.1-0.1-0.1-0.1-0.2-0.2c-0.1-0.1-0.2-0.2-0.3-0.3c-0.1-0.1-0.2-0.1-0.3-0.2c-0.1-0.1-0.2-0.1-0.3-0.2c0,0-0.1,0-0.1-0.1
		l-41.3-15.4c0,0,0,0,0,0l-23.4-8.7c-2.2-1-4.5-2-7.2-3c-3-1.7-5.6-4-7.5-6.9L178,9.6c0,0,0,0,0-0.1l0,0c0,0,0,0,0,0
		c-2-2.9-4.9-5.1-8.2-6.2c-13.8-4.5-28.9-4.5-42.7,0c-3.3,1.1-6.3,3.3-8.2,6.2c0,0,0,0.1-0.1,0.1l-7.5,11.1l-0.5,0.7c0,0,0,0,0,0
		c-0.7,0.9-1.4,1.8-2.2,2.6c-1.4,1.4-3,2.6-4.8,3.6c-2.6,0.9-5,1.9-7.3,3L31.7,54.8c0,0-0.1,0-0.1,0.1c-0.1,0.1-0.2,0.1-0.4,0.2
		c-0.1,0-0.2,0.1-0.2,0.1c-0.1,0.1-0.2,0.2-0.3,0.3c-0.1,0.1-0.1,0.1-0.2,0.2c-0.1,0.1-0.2,0.2-0.3,0.4c0,0.1-0.1,0.1-0.1,0.2
		c-0.1,0.1-0.2,0.3-0.2,0.4c0,0.1-0.1,0.1-0.1,0.2c0,0,0,0,0,0c0,0,0,0,0,0.1c-0.4,1-9,25.7-17,86.5c-13.2,101.4-13.8,222.4-12,306
		c0,1.9,1.6,3.4,3.4,3.4h47.4c1.6,0.8,3.1,1.5,4.7,2.2c0.5,0.2,0.9,0.3,1.4,0.3c1.3,0,2.6-0.8,3.2-2.1c0.8-1.7,0-3.8-1.8-4.6
		c-1.7-0.8-3.5-1.6-5.2-2.5c0,0-0.1,0-0.1-0.1c-12.3-6.3-18.3-12.4-18.4-12.5c-1.2-1.2-1.1-6.3,0.4-15.2c0.2-1.4,0.4-2.5,0.5-3.4
		c1.6-13.8,4-27.3,6.5-41.1c2-11.1,4.4-22.3,6.7-33.2c6,1,19.7,2.8,37.4,2.8c5.2,0,10.7-0.2,16.4-0.5c1.5-0.1,2.8-1.2,3.1-2.7
		l6.1-26.8c0.2-1.1,0-2.2-0.7-3c-0.7-0.8-1.8-1.3-2.9-1.2c-0.3,0-33.5,2.3-52.2-4.5c2.7-14.6,5-29.5,6.2-44.5
		c2.7-35,1-72.3-5.2-113.9c-7.8-52.1-16.8-77.8-20.3-86.5l33.8-12.6c16.6,118.2,68.7,198.1,73.7,205.6c2.1,9.4,25.2,116.2,0.5,183.8
		c-0.4,0.6-0.7,1.3-0.7,2c-2.9,7.6-6.4,14.5-10.3,20.5c-12.2,1.1-24.1,1.1-35.2-0.1c-1.9-0.2-3.6,1.2-3.8,3.1s1.2,3.6,3.1,3.8
		c6.1,0.6,12.3,1,18.7,1c6.4,0,12.9-0.3,19.6-1c0.1,0,0.2,0,0.3-0.1c0.1,0,0.2,0,0.3-0.1c0.2-0.1,0.4-0.1,0.5-0.2
		c0.1,0,0.1,0,0.2-0.1c0.2-0.1,0.4-0.3,0.6-0.4c0,0,0.1-0.1,0.1-0.1c0.1-0.1,0.3-0.3,0.4-0.5c0,0,0.1-0.1,0.1-0.1
		c3-4.4,5.8-9.2,8.2-14.4c4.3,12.4,10.4,15.3,11.2,15.7c0.3,0.1,0.7,0.2,1,0.2c6.9,0.7,13.3,1,19.5,1c30.2,0,51.9-7.3,65.8-14.2
		h47.4c1.9,0,3.4-1.5,3.4-3.4C297.9,355.9,296,272.5,290,201.5z M105,316.5l-4.5,19.8c-23.4,1.3-41.9-1.1-49.3-2.3l5.4-21.9
		C72.5,317.1,95.3,316.8,105,316.5z M51.1,147.5c6.1,41.1,7.8,77.9,5.2,112.4c-2,25.7-7.4,51.2-12.7,75.9l0,0.2c0,0,0,0.1,0,0.1
		c0,0,0,0,0,0.1l0,0.1c-2.6,11.9-5.2,24.3-7.4,36.5c-2.5,13.9-5,27.5-6.6,41.6c-0.1,0.7-0.3,1.8-0.5,3.1c-1.5,8.9-2.5,17.2,1.5,21.2
		c0.2,0.2,3.2,3.3,9.2,7.4H7.6C4.5,297,12.3,200,19.5,144.8c5.2-39.6,10.7-64,13.9-76.2C37.6,80.6,44.8,105.3,51.1,147.5z
		 M245.3,332.9c-7.3,1.5-25.9,4.6-49.1,3.4l-4.5-19.8c9.7,0.4,32.5,0.6,48.4-4.5L245.3,332.9z M183.9,56.5c0-1-0.1-2-0.1-3l0-0.2
		l0,0c-0.1-1.7-0.2-3.3-0.3-4.8l-0.2-2.4c0,0,0-0.1,0-0.1c0-0.1,0-0.2,0-0.5l0-0.5c0-0.6-0.1-1.2-0.1-1.7c0,0,0,0,0,0
		c0,0,0-0.1,0-0.1c-0.1-0.6-0.1-1.1-0.1-1.7l0-0.2c0,0,0,0,0,0l-0.2-1.8c0-0.1,0-0.1,0-0.2l-0.2-1.9c0-0.1,0-0.1,0-0.2l-0.1-1.4l0,0
		c0-0.4-0.1-0.8-0.1-1.1l-0.1-0.7c0,0,0,0,0,0c-0.3-2.5-0.6-4.9-0.9-7.4c2.4,2.9,5.3,5.4,8.7,7.2c0,0,0,0,0,0
		c0.3,0.2,0.6,0.3,0.9,0.5c0,0,0,0,0.1,0c0,0,0,0,0,0c0,0,0,0,0,0c0.5,0.3,1.1,0.5,1.6,0.7c0,0,0,0,0.1,0l0,0
		c0.2,0.1,0.5,0.2,0.8,0.3l4.1,1.5c0.1,0,0.1,0,0.2,0.1l20.9,7.8c-11.4,82.7-40.1,146.1-58,179.2C182.2,150.4,185.4,93.1,183.9,56.5
		z M78,44.9l20.8-7.8c0,0,0,0,0,0l4.1-1.5c0.5-0.2,1-0.4,1.5-0.6l0.5-0.2c0.1,0,0.2-0.1,0.3-0.1c0,0,0,0,0,0c0,0,0.1,0,0.1,0
		c0.2-0.1,0.3-0.2,0.6-0.3c0,0,0,0,0,0l0.1,0c0,0,0,0,0.1,0c0,0,0,0,0,0c0,0,0,0,0,0c0,0,0,0,0.1,0l0.6-0.3c0,0,0,0,0,0c0,0,0,0,0,0
		c2.4-1.3,4.6-2.9,6.5-4.8c0,0,0,0,0,0c0,0,0,0,0,0c0.1-0.1,0.2-0.2,0.3-0.3c0.4-0.5,0.9-0.9,1.3-1.4c0.2-0.2,0.3-0.4,0.5-0.6
		c-4.1,29.6-8.1,98.8,20.7,197.2C118.1,190.7,89.4,127.2,78,44.9z M124.8,13c1.1-1.4,2.6-2.5,4.3-3.1c12.4-4,26-4,38.4,0
		c1.7,0.6,3.2,1.7,4.3,3.1c0.1,0.5,0.3,1.2,0.5,2.2l0,0c0,0,0,0,0,0l0,0.1l0.2,0.7c0,0.1,0,0.1,0,0.2c0.1,0.3,0.1,0.6,0.2,0.9
		c0,0,0,0.1,0,0.1c0.3,1.3,0.5,2.8,0.8,4.5c0.1,0.7,0.3,1.5,0.4,2.3c0.2,1.1,0.4,2.3,0.5,3.6c0.3,2.4,0.6,4.8,0.9,7.4l0.1,0.7
		c0,0,0,0,0,0c0,0.3,0.1,0.6,0.1,0.9l0.5,5.5c0,0.6,0.1,1.2,0.1,1.7c0,0.6,0.1,1.2,0.1,1.8l0,0.5c0,0,0,0,0,0c0,0.2,0,0.4,0,0.6
		l0.2,2.3c0.1,1.5,0.2,3.1,0.3,4.8l0,0.2c0,0.9,0.1,1.9,0.1,2.9c1.6,39-2.3,102-28.7,183.7C104.7,105.5,122.7,21.8,124.8,13z
		 M242.7,446.2C242.7,446.2,242.7,446.2,242.7,446.2c-15.7,7.9-42.4,16.6-81.5,12.9c-1.4-1-6.6-5.4-9.2-19.6
		c11.2-30.3,14.5-71.2,10-121.5c-3-32.9-8.5-59.4-10-65.9c7.3-11,57-89.3,73.2-204.8l33.8,12.6c-3.6,8.7-12.6,34.4-20.3,86.5
		c-6.2,41.6-7.9,78.9-5.2,113.9c1.1,15,3.5,30,6.2,44.5c-18.7,6.8-51.8,4.5-52.2,4.5c-1.1-0.1-2.1,0.4-2.9,1.2s-1,1.9-0.7,3
		l6.1,26.8c0.3,1.5,1.6,2.6,3.1,2.7c4.8,0.3,9.5,0.5,13.9,0.5c18.9,0,33.4-2.5,39.8-3.8c2.4,11.3,4.9,22.9,7,34.3
		c2.5,13.8,4.9,27.3,6.5,41.1c0.1,0.9,0.3,2.1,0.5,3.4c1.5,8.9,1.6,14,0.4,15.3C261.1,433.7,255.1,439.9,242.7,446.2z"/>
	<path d="M284.4,177.4c-1.9,0.2-3.3,1.9-3.1,3.8l0.1,1c0.2,1.8,1.7,3.1,3.4,3.1c0.1,0,0.2,0,0.3,0c1.9-0.2,3.3-1.9,3.1-3.8l-0.1-1
		C287.9,178.6,286.3,177.2,284.4,177.4z"/>
</g>
</svg>
