<?xml version="1.0" encoding="utf-8"?>
<!-- Generator: Adobe Illustrator 26.0.0, SVG Export Plug-In . SVG Version: 6.00 Build 0)  -->
<svg version="1.1" id="katman_1" xmlns="http://www.w3.org/2000/svg" xmlns:xlink="http://www.w3.org/1999/xlink" x="0px" y="0px"
	 viewBox="0 0 541.3 560" style="enable-background:new 0 0 541.3 560;" xml:space="preserve">
<style type="text/css">
	.st0{fill-rule:evenodd;clip-rule:evenodd;}
</style>
<g>
	<path class="st0" d="M280,326.7c0,5.2-4.2,9.3-9.3,9.3s-9.3-4.2-9.3-9.3s4.2-9.3,9.3-9.3S280,321.5,280,326.7"/>
	<path class="st0" d="M382.7,102.7c0,5.2-4.2,9.3-9.3,9.3s-9.3-4.2-9.3-9.3s4.2-9.3,9.3-9.3S382.7,97.5,382.7,102.7"/>
	<path class="st0" d="M177.4,102.7c0,5.2-4.2,9.3-9.3,9.3c-5.2,0-9.3-4.2-9.3-9.3s4.2-9.3,9.3-9.3S177.4,97.5,177.4,102.7"/>
	<path class="st0" d="M247.7,18.7l23,51.7l23-51.7H247.7z M270.7,102.7c-3.7,0-7-2.2-8.5-5.5l-37.3-84c-1.3-2.9-1-6.2,0.7-8.9
		c1.7-2.6,4.7-4.2,7.8-4.2h74.7c3.2,0,6.1,1.6,7.8,4.2c1.7,2.7,2,6,0.7,8.9l-37.3,84C277.7,100.5,274.4,102.7,270.7,102.7
		L270.7,102.7z"/>
	<path class="st0" d="M233.4,186.7c-1.9,0-3.8-0.6-5.5-1.8c-3.6-2.6-4.8-7.3-3.1-11.4l74.7-168c2.1-4.7,7.6-6.8,12.3-4.7
		c4.7,2.1,6.8,7.6,4.7,12.3l-56.9,128l60.8-54.7c3.8-3.4,9.7-3.1,13.2,0.7c3.5,3.8,3.1,9.7-0.7,13.2l-93.3,84
		C237.9,185.9,235.6,186.7,233.4,186.7"/>
	<path class="st0" d="M468.5,363.5c-3.6,0-7.1-2.1-8.6-5.7c-2-4.7,0.2-10.2,4.9-12.2L511,326c4.8-2,10.2,0.2,12.2,4.9
		c2,4.7-0.2,10.2-4.9,12.2L472,362.7C470.9,363.3,469.7,363.5,468.5,363.5"/>
	<path class="st0" d="M73.7,362.2c-1.2,0-2.5-0.2-3.6-0.7l-46.4-19.7c-4.8-2-7-7.5-4.9-12.2c2-4.8,7.5-6.9,12.2-4.9l46.4,19.7
		c4.8,2,7,7.5,4.9,12.2C80.7,360.1,77.3,362.2,73.7,362.2"/>
	<path class="st0" d="M336,196h-37.3c-5.2,0-9.3-4.2-9.3-9.3s4.2-9.3,9.3-9.3H336c5.2,0,9.3,4.2,9.3,9.3S341.2,196,336,196"/>
	<path class="st0" d="M233.4,457.3h-56c-5.2,0-9.3-4.2-9.3-9.3s4.2-9.3,9.3-9.3h56c5.2,0,9.3,4.2,9.3,9.3S238.5,457.3,233.4,457.3"
		/>
	<path class="st0" d="M364,457.3h-56c-5.2,0-9.3-4.2-9.3-9.3s4.2-9.3,9.3-9.3h56c5.2,0,9.3,4.2,9.3,9.3S369.2,457.3,364,457.3"/>
	<path class="st0" d="M196,308c-5.1,0-9.3,4.2-9.3,9.3V336c0,5.2,4.2,9.3,9.3,9.3h149.3c5.1,0,9.3-4.2,9.3-9.3v-18.7
		c0-5.2-4.2-9.3-9.3-9.3H196z M345.4,364H196c-15.4,0-28-12.6-28-28v-18.7c0-15.4,12.6-28,28-28h149.3c15.4,0,28,12.6,28,28V336
		C373.4,351.4,360.8,364,345.4,364z"/>
	<path class="st0" d="M489.4,401.3c-3.3,0-6.5-1.8-8.2-4.8l-97.3-176.1c-7.1,20.5-16.6,42.5-29.1,67.6v10.6c0,5.2-4.2,9.3-9.3,9.3
		h-94.8c-4.6,0-8.6-3.4-9.2-8l-17.3-121.3c-0.7-5.1,2.8-9.8,7.9-10.6c5.1-0.7,9.8,2.8,10.6,7.9l16.2,113.3h77.2v-3.5
		c0-1.4,0.3-2.9,1-4.2c16.9-33.8,28.2-61.5,35.5-87.3c1-3.6,4.2-6.3,7.9-6.7c3.8-0.5,7.4,1.5,9.2,4.8L493.4,380l26.3-11.6
		L393.3,88.8c-0.6-1-1-2.2-1.1-3.4v-0.1v-0.1c0,0,0,0,0-0.1c-0.1-0.4-0.1-0.8-0.1-1.2c0-19.8-6.8-25.5-12-28.1l-76.2-38.1
		c-4.6-2.3-6.5-7.9-4.2-12.5s7.9-6.5,12.5-4.2l76.2,38.1c14.3,7.2,21.8,21.6,22.2,42.8l129.9,287.4c1,2.3,1.1,4.9,0.2,7.2
		s-2.7,4.2-4.9,5.2l-42.7,18.9C491.9,401.1,490.6,401.4,489.4,401.3"/>
	<path class="st0" d="M52,401.3c-1.3,0-2.5-0.3-3.8-0.8L5.5,381.6c-2.3-1-4.1-2.9-4.9-5.2c-0.9-2.3-0.8-4.9,0.2-7.2L130.7,81.9
		c0.4-21.3,7.9-35.7,22.2-42.8L229.2,1c4.6-2.3,10.2-0.4,12.5,4.2s0.4,10.2-4.2,12.5l-76.2,38.1c-5.1,2.5-11.8,8.2-11.9,27.6
		c0,0.5,0,1,0,1.5V85c0,0,0,0,0,0.1l0,0l0,0l0,0c0,0,0,0,0,0.1c-0.1,1.1-0.4,2.1-0.9,3L21.7,368.4L48,380l103.7-187.6
		c1.8-3.3,5.5-5.2,9.2-4.8c3.8,0.4,6.9,3.1,7.9,6.7c7.4,25.8,18.6,53.6,35.5,87.3c0.6,1.3,1,2.7,1,4.2v12.8c0,5.2-4.2,9.3-9.3,9.3
		s-9.3-4.2-9.3-9.3V288c-12.5-25.2-22-47.2-29.1-67.6L60.3,396.5C58.5,399.6,55.3,401.3,52,401.3"/>
	<path class="st0" d="M373.4,168c-33.1,0-64.3-14.6-85.7-40c-3.2-3.8-2.8-9.6,0.9-12.9L313.1,93l-11.7-11.7
		c-2.4-2.4-3.3-5.9-2.4-9.1s3.5-5.8,6.7-6.6l24.5-6.1l-30-45c-2.9-4.3-1.7-10.1,2.6-12.9c4.3-2.9,10.1-1.7,12.9,2.6l37.3,56
		c1.7,2.5,2,5.7,0.9,8.5s-3.5,5-6.4,5.7l-21.3,5.3l7,7c1.8,1.8,2.8,4.3,2.7,6.8c-0.1,2.6-1.2,5-3.1,6.7L308,122.5
		c17.4,17.1,40.7,26.7,65.2,26.7c17.7,0,35-5.1,50.1-14.7c4.4-2.8,10.1-1.5,12.9,2.8s1.5,10.1-2.9,12.9
		C415.4,161.9,394.6,168,373.4,168"/>
	<path class="st0" d="M168,168c-21.3,0-42.1-6.1-60.1-17.6c-4.3-2.8-5.6-8.5-2.8-12.9c2.8-4.3,8.5-5.6,12.9-2.8
		c15,9.6,32.3,14.7,50.1,14.7c27.1,0,52.1-12.2,69.9-33.9l-27.4-13.7c-2.7-1.3-4.6-3.9-5-6.9c-0.5-3,0.5-6,2.6-8.1l7-7l-21.3-5.3
		c-2.9-0.7-5.3-2.9-6.4-5.7c-1.1-2.8-0.7-6,0.9-8.5l37.3-56c2.9-4.3,8.7-5.4,12.9-2.6c4.3,2.9,5.4,8.7,2.6,12.9l-30,45l24.5,6.1
		c3.3,0.8,5.8,3.3,6.7,6.6c0.9,3.2,0,6.7-2.4,9.1l-9.5,9.5l25.8,12.9c2.4,1.2,4.2,3.4,4.8,5.9c0.7,2.6,0.2,5.3-1.2,7.6
		C238.4,149.5,204.9,168,168,168"/>
	<path class="st0" d="M294.8,541.3H392V504c0-44.3-12.5-87.5-36.3-124.9l-0.1-0.2c-2.7-4.3-5.6-9.6-8.1-14.9
		c-0.7,0.1-1.4,0.1-2.1,0.1h-75.9L294.8,541.3z M401.4,560H286.7c-4.6,0-8.6-3.4-9.2-8l-28-196c-0.4-2.7,0.4-5.4,2.2-7.4
		c1.8-2,4.4-3.2,7.1-3.2h86.7c1.3,0,2.5-0.3,3.7-0.8c4.7-2.1,10.6,0.3,12.5,5.1c2.5,6.3,6.3,13.9,9.7,19.2l-7.7,5.2l7.9-5
		c25.7,40.4,39.2,87.1,39.2,135v46.7C410.7,555.8,406.5,560,401.4,560L401.4,560z"/>
	<path class="st0" d="M286.7,560H140c-5.2,0-9.3-4.2-9.3-9.3V504c0-47.9,13.6-94.5,39.2-135c2.9-4.6,4.8-9.4,6.8-14.6l1.3-3.2
		c1.9-4.8,7.3-7.1,12.1-5.2c4.8,1.9,7.1,7.3,5.2,12.1l-1.2,3.1c-2.3,5.8-4.6,11.7-8.3,17.6c-23.9,37.6-36.5,80.8-36.5,125.2v37.3
		h137.4c5.2,0,9.3,4.2,9.3,9.3S291.9,560,286.7,560"/>
</g>
</svg>
