<?xml version="1.0" encoding="utf-8"?>
<!-- Generator: Adobe Illustrator 26.0.0, SVG Export Plug-In . SVG Version: 6.00 Build 0)  -->
<svg version="1.1" id="katman_1" xmlns="http://www.w3.org/2000/svg" xmlns:xlink="http://www.w3.org/1999/xlink" x="0px" y="0px"
	 viewBox="0 0 505.6 475.6" style="enable-background:new 0 0 505.6 475.6;" xml:space="preserve">
<g>
	<path d="M207.5,356.2c-4.4-1.7-9.4,0.4-11.1,4.9c-10.5,26.9-44.3,46.6-44.6,46.8c-4.1,2.4-5.6,7.7-3.2,11.8
		c1.6,2.7,4.5,4.3,7.4,4.3c1.5,0,3-0.4,4.3-1.2c1.6-0.9,39.3-22.9,52.1-55.4C214.2,362.9,212,358,207.5,356.2L207.5,356.2z"/>
	<path d="M505.2,373.6c-7.5-84.2-44.9-223-46.5-229.2c-20.2-63.5-101.4-83-129.8-88c1.2-6.4,1.3-13.4,0-21c-0.1-0.4-0.2-0.8-0.3-1.2
		c-0.4-1.3-4.6-13.4-16.8-22.3c-1.6-1.4-17.5-13.2-59-11.8c-41.5-1.3-57.4,10.4-58.8,11.5c-12.5,9.1-16.7,21.3-17.1,22.6
		c-0.1,0.4-0.2,0.8-0.3,1.2c-1.3,7.6-1.2,14.6,0.1,21c-28.3,5-109.6,24.6-129.9,88.4c-1.6,5.9-38.9,144.6-46.5,228.9
		c-0.1,1.2-2.2,29.2,4.8,48.6c1,2.7,3.2,4.8,6,5.4l44,11.2c2.9,0.8,5.8-0.1,8-2c0.7-0.7,19-17.9,27.2-48.4l19.2-93.3
		c-1.3,56.2-1.4,118.3,3.7,137c1,5,6.4,30.3,16.2,40.7c1.6,1.7,3.9,2.6,6.2,2.6h234.2c2.4,0,4.6-1,6.2-2.6c9.8-10.4,15.2-35.7,16-40
		c5.2-19.1,5.2-81.4,3.9-137.8l19.3,93.9c8.1,30,26.4,47.2,27.2,47.8c2.2,2,5.2,2.8,8,2l44-11.2c2.8-0.7,5-2.7,5.9-5.4
		C507.4,402.9,505.3,374.9,505.2,373.6L505.2,373.6z M193.4,39c0.7-1.8,3.8-8.4,10.9-13.6c0.2-0.1,13.1-9.1,48.2-8.1h0.3
		c0.1,0,0.1-0.1,0.1-0.1c0.1,0,0.1,0.1,0.2,0.1c35.3-1,48,8,48.4,8.2c6.9,5,10,11.8,10.6,13.5c1.7,11.5-0.3,20.4-6.4,27.1
		c-11.4,12.9-33.9,15.4-45.4,15.8c-0.8-3.5-2.1-6.6-3.5-9.2c1.7,2.5,4.6,3.9,8,3.6c21.2-2.2,32.8-9.1,32.8-19.5
		c0-14.9-24.1-20.1-44.8-20.1S208,41.8,208,56.7c0,10,11,16.9,30.5,19.3c1.1,1.2,2.5,3.2,3.7,5.7c-13.1-0.9-32.4-4.5-42.3-15.6
		C193.8,59.4,191.6,50.5,193.4,39L193.4,39z M256,71.1c-3.5-6-7.5-9.6-7.8-9.8c-1.3-1.2-3-1.9-4.8-2c-5.8-0.6-10.4-1.6-13.5-2.5
		c4.9-1.6,12.7-3,23-3s18,1.4,22.9,3c-3,0.9-7.2,1.8-12.7,2.5c-4.8,0.4-8.2,4.7-7.7,9.4C255.4,69.5,255.6,70.3,256,71.1L256,71.1z
		 M485.5,412.3l-34.4,8.7c-4.9-5.6-14.3-18.2-19.1-35.9l-39.8-193.4c-0.8-4.4-5-7.3-9.5-6.8c-4.5,0.6-7.7,4.4-7.6,8.9
		c2.7,55.7,8,206.4,0.2,235.1c-1.7,8.9-5.7,22.6-9.7,29.4H261.2c0.1-0.2,0.2-0.4,0.2-0.7V127.3c0-4.7-3.9-8.6-8.6-8.6
		c-4.8,0-8.6,3.9-8.6,8.6v330.3c0,0.2,0.1,0.4,0.1,0.7H139.9c-4.1-6.8-8-20.6-9.9-30c-7.6-28.2-2.4-178.9,0.3-234.6
		c0.2-4.5-3.1-8.3-7.5-8.9c-4.4-0.5-8.6,2.4-9.5,6.8L73.7,384.6c-4.9,18.1-14.3,30.9-19.2,36.5l-34.4-8.7c-4.1-15.8-2.5-37-2.5-37.2
		c7.3-82.6,45.5-224.4,45.8-225.5c17.9-56.7,99-73.5,119.9-76.9c1.2,1.7,2.4,3.4,3.8,4.9c17.6,19.7,50.4,21.5,62,21.5
		c1.9,0,3.1-0.1,3.6-0.1c0.6,0.1,1.7,0.1,3.6,0.1c11.6,0,44.5-1.8,62-21.5c1.4-1.6,2.6-3.2,3.8-4.9c20.9,3.4,101.9,20,119.8,76.5
		c0.4,1.4,38.6,143.2,45.9,225.8C488.5,381.4,488.9,399.1,485.5,412.3L485.5,412.3z"/>
	<path d="M353.8,407.9c-0.3-0.2-34-19.8-44.6-46.8c-1.7-4.4-6.8-6.6-11.1-4.9c-4.4,1.7-6.6,6.7-4.8,11.1
		c12.8,32.5,50.4,54.5,52,55.4c1.3,0.8,2.8,1.2,4.3,1.2c3,0,5.8-1.6,7.4-4.3C359.2,415.6,357.8,410.3,353.8,407.9L353.8,407.9z"/>
</g>
</svg>
