<?xml version="1.0" encoding="utf-8"?>
<!-- Generator: Adobe Illustrator 26.0.0, SVG Export Plug-In . SVG Version: 6.00 Build 0)  -->
<svg version="1.1" id="katman_1" xmlns="http://www.w3.org/2000/svg" xmlns:xlink="http://www.w3.org/1999/xlink" x="0px" y="0px"
	 viewBox="0 0 559.9 560" style="enable-background:new 0 0 559.9 560;" xml:space="preserve">
<g>
	<path d="M280,130.8c-9.6,0-19-3.2-26.7-9.1l-92.4-71.1c-3.3-2.6-4.4-7.1-2.5-10.8l17.5-35c1.5-3,4.5-4.8,7.8-4.8h192.5
		c3.3,0,6.4,1.9,7.9,4.8l17.5,35c1.9,3.8,0.8,8.3-2.5,10.8l-92.4,71.1C299,127.7,289.6,130.8,280,130.8L280,130.8z M264,107.9
		c4.6,3.5,10.2,5.4,16,5.4s11.4-1.9,16-5.4l86.7-66.7l-11.9-23.7H189.2l-11.9,23.7L264,107.9z"/>
	<path d="M280,86c-10.1,0-19.9-3.5-27.7-9.9l-74.1-60.6L189.3,2l74.1,60.6c4.7,3.8,10.6,5.9,16.6,5.9s11.9-2.1,16.6-5.9L370.7,2
		l11.1,13.5l-74.1,60.6C299.9,82.5,290.1,86,280,86z"/>
	<path d="M227.5,35h105v17.5h-105V35z"/>
	<path d="M551.2,472.5h-87.5V455h78.8V120.3c0-8.7-2.6-17.1-7.4-24.3c-4.8-7.2-11.7-12.8-19.7-16.1c-38.6-16.3-79.8-25.6-121.7-27.3
		V35c44.2,1.7,87.8,11.4,128.5,28.7c11.2,4.7,20.7,12.5,27.4,22.6s10.3,21.9,10.3,34v343.5c0,2.3-0.9,4.5-2.6,6.2
		S553.6,472.5,551.2,472.5L551.2,472.5z"/>
	<path d="M96.2,472.5H8.8c-4.8,0-8.8-3.9-8.8-8.8V120.3c0-12.1,3.6-23.9,10.3-34C17,76.2,26.6,68.4,37.7,63.7
		C78.4,46.4,122,36.7,166.2,35v17.5c-41.9,1.8-83.1,11.1-121.7,27.3c-8,3.3-14.8,8.9-19.7,16.1c-4.8,7.2-7.4,15.7-7.4,24.3V455h78.8
		L96.2,472.5z"/>
	<path d="M472.5,560h-385c-2.5,0-4.8-1-6.5-2.8s-2.5-4.2-2.3-6.7c0.2-2.1,17.5-210.9,17.5-314.3c0-72.8,94.8-168.4,98.8-172.4
		l12.4,12.4c-0.9,0.9-93.7,94.5-93.7,160.1c0,91.4-13.4,264-16.8,306.2h366c-3.4-42.2-16.8-214.8-16.8-306.2
		c0-65.6-92.8-159.1-93.7-160.1l12.4-12.4c4,4,98.8,99.7,98.8,172.4c0,103.4,17.3,312.2,17.5,314.3c0.2,2.4-0.6,4.9-2.3,6.7
		C477.3,559,474.9,560,472.5,560L472.5,560z"/>
	<path d="M533.8,507.5h-70V490H525v-26.2h17.5v35c0,2.3-0.9,4.5-2.6,6.2S536.1,507.5,533.8,507.5z"/>
	<path d="M96.2,507.5h-70c-4.8,0-8.8-3.9-8.8-8.8v-35H35V490h61.2V507.5z"/>
	<path d="M300.1,557.4l-26.2-26.2c-1.6-1.6-2.6-3.9-2.6-6.2V122.5h17.5v398.9l23.7,23.7L300.1,557.4z"/>
	<path d="M113.8,455H96.3v-17.5h17.5c9.4,0.4,18.5-3.2,25.2-9.8c6.6-6.6,10.2-15.8,9.8-25.2V385h17.5v17.5
		c0.5,14.1-4.8,27.7-14.8,37.7S127.8,455.5,113.8,455L113.8,455z"/>
	<path d="M463.8,455h-17.5c-14.1,0.5-27.7-4.8-37.7-14.8s-15.3-23.6-14.8-37.7V385h17.5v17.5c0,34.6,33.6,35,35,35h17.5V455z"/>
	<path d="M463.8,236.2h-17.5c1-39.3,7-78.3,17.8-116.2l16.8,4.8C470.6,161.2,464.9,198.6,463.8,236.2L463.8,236.2z"/>
	<path d="M96.2,236.2c-1.1-37.7-6.9-75.1-17.2-111.3l16.8-4.8c10.8,37.8,16.8,76.8,17.8,116.2L96.2,236.2z"/>
</g>
</svg>
