<?xml version="1.0" encoding="utf-8"?>
<!-- Generator: Adobe Illustrator 26.0.0, SVG Export Plug-In . SVG Version: 6.00 Build 0)  -->
<svg version="1.1" id="katman_1" xmlns="http://www.w3.org/2000/svg" xmlns:xlink="http://www.w3.org/1999/xlink" x="0px" y="0px"
	 viewBox="0 0 500.6 513.5" style="enable-background:new 0 0 500.6 513.5;" xml:space="preserve">
<g>
	<path d="M500.6,431.6l-26.7-271.5c-2.2-23.1-13-44.5-30.2-60C426.5,84.5,404.2,75.9,381,76h-43.2V35c0-9.3-3.7-18.2-10.3-24.7
		S312,0.1,302.8,0h-105c-9.3,0-18.2,3.7-24.7,10.3S162.8,25.8,162.8,35v40.8h-43.2c-23.2,0-45.5,8.6-62.7,24.1
		c-17.2,15.6-27.9,37-30.2,60L0.1,431.6c-0.6,5.8,3.2,11.1,8.8,12.4l-3.1,24.2l0,0c-0.4,3.1,1.7,5.9,4.7,6.5l43.6,7.9
		c0.3,0.1,0.7,0.1,1,0.1c2.8,0,5.3-2.1,5.7-4.8l4.1-23.8l0,0c5.6-0.2,10.2-4.2,11.2-9.7l28.3-165v204.9c0,7.7,3.1,15.1,8.6,20.6
		s12.9,8.5,20.6,8.6h233.3c7.7,0,15.1-3.1,20.6-8.6s8.5-12.9,8.6-20.6v-205l28.3,165l0,0c0.9,5.5,5.6,9.6,11.2,9.8l4.1,23.8l0,0
		c0.5,2.8,2.9,4.8,5.7,4.8c0.3,0,0.7,0,1-0.1l43.6-7.9c3-0.6,5.1-3.4,4.7-6.5l-3.1-24.2l0,0C497.4,442.7,501.2,437.4,500.6,431.6
		L500.6,431.6z M488.9,432.8l-53,9.7l-5.2-30.3l55.1-11L488.9,432.8z M421.9,360.6l58.3-16.2l4.4,45l-55.9,11.2L421.9,360.6z
		 M413,308.6l61.2-25.2l4.8,49.3l-59.2,16.4L413,308.6z M403.3,251.9c22.8-8.2,44.6-19.3,64.7-32.9l5.1,52.2L411,296.8L403.3,251.9z
		 M89.7,296.8l-62.1-25.6l5.1-52.2c20.1,13.6,41.8,24.7,64.7,32.9L89.7,296.8z M80.7,349.1l-59.2-16.5l4.8-49.3l61.3,25.2
		L80.7,349.1z M71.9,400.6l-56-11.2l4.4-45l58.4,16.2L71.9,400.6z M64.8,442.4l-53.1-9.7l3.1-31.7L70,412L64.8,442.4z M34,205.5
		l4.4-44.3c0.7-7.1,2.4-14,4.9-20.7c14.4,24.7,35.5,44.8,60.9,58c0.2,3.3,0.4,7.1,0.4,11.6v0.1l-5.2,30.1
		C76,231.8,54,220.1,34,205.5L34,205.5z M384.5,210.3c0,0.1-0.1,0.2-0.1,0.3v40.2H256.1v-52.5h128.7c-0.2,3.5-0.4,7.3-0.4,11.7
		C384.5,210.1,384.5,210.2,384.5,210.3L384.5,210.3z M116.1,326.7h128.3v52.5H116.1V326.7z M116.1,315v-52.5h128.3V315H116.1z
		 M256.1,326.7h128.3v52.5H256.1V326.7z M384.5,315H256.1v-52.5h128.3L384.5,315z M244.5,250.9H116.1v-40.2c0-0.1-0.1-0.2-0.1-0.3
		s0.1-0.2,0.1-0.3c0-4.4-0.1-8.2-0.4-11.7h128.7L244.5,250.9z M116.1,390.9h128.3v52.5H116.1V390.9z M256.1,390.9h128.3v52.5H256.1
		V390.9z M396.1,210.1L396.1,210.1c0-4.5,0.1-8.3,0.4-11.6l0,0c25.4-13.2,46.5-33.3,60.9-58c2.5,6.7,4.2,13.6,4.9,20.7l4.3,44.3
		c-20,14.7-42,26.4-65.3,34.8L396.1,210.1z M337.8,87.5H381c28.9,0,55.6,15.3,70.3,40.2c-12.3,23.1-30.5,42.6-52.7,56.4
		c0.4-1.7,1-3.4,1.7-5c2.2-2.3,2.2-5.9-0.1-8.2c-2.2-2.2-5.9-2.3-8.2-0.1c-3.4,4.6-5.5,10.1-5.9,15.8h-130v-35
		c0-18.4,5.2-39.7,19.3-48.6c2,5.7,5.7,10.6,10.6,14.1s10.8,5.4,16.8,5.4c9.3,0,18.2-3.7,24.7-10.3
		C334.1,105.7,337.8,96.8,337.8,87.5L337.8,87.5z M215.3,75.9c-3.2,0-5.8-2.6-5.8-5.8V58.4c0-6.4,5.2-11.7,11.7-11.7h58.3
		c3.1,0,6.1,1.2,8.2,3.4c2.2,2.2,3.4,5.2,3.4,8.2V70l0,0c0,1.5-0.6,3-1.7,4.1c-1.1,1.1-2.6,1.7-4.1,1.7c-6.4,0-11.7,5.2-11.7,11.7
		v3.2c-11,5.7-19.4,15.5-23.3,27.2c-3.9-11.8-12.3-21.6-23.3-27.2v-3.2c0-3.1-1.2-6.1-3.4-8.2C221.4,77.1,218.4,75.9,215.3,75.9
		L215.3,75.9z M174.5,35L174.5,35c0-6.2,2.5-12.1,6.8-16.5c4.4-4.4,10.3-6.8,16.5-6.8h105c6.2,0,12.1,2.5,16.5,6.8
		c4.4,4.4,6.8,10.3,6.8,16.5v52.5c0,6.2-2.5,12.1-6.8,16.5c-4.4,4.4-10.3,6.8-16.5,6.8c-4.6,0-9.1-1.8-12.4-5.1s-5.1-7.7-5.1-12.4
		v-5.8c4.6,0,9.1-1.8,12.4-5.1c3.3-3.3,5.1-7.7,5.1-12.4V58.4c0-6.2-2.5-12.1-6.8-16.5c-4.4-4.4-10.3-6.8-16.5-6.8h-58.3
		c-6.2,0-12.1,2.5-16.5,6.8c-4.4,4.4-6.8,10.3-6.8,16.5v11.7l0,0c0,4.6,1.8,9.1,5.1,12.4s7.7,5.1,12.4,5.1v5.8
		c0,4.6-1.8,9.1-5.1,12.4c-3.3,3.3-7.7,5.1-12.4,5.1c-6.2,0-12.1-2.5-16.5-6.8s-6.8-10.3-6.8-16.5L174.5,35z M119.6,87.5h43.2
		c0,9.3,3.7,18.2,10.3,24.7c6.6,6.6,15.5,10.3,24.7,10.3c6,0,11.9-1.9,16.8-5.4s8.6-8.4,10.6-14.1c14.1,9,19.3,30.2,19.3,48.6v35
		h-130c-0.4-5.7-2.4-11.2-5.9-15.8c-2.3-2.3-6-2.4-8.4-0.2c-1.1,1-1.8,2.5-1.8,4s0.6,3,1.6,4.1c0.9,1.7,1.6,3.4,2,5.3
		c-22.2-13.8-40.4-33.3-52.7-56.4C64,102.8,90.7,87.5,119.6,87.5L119.6,87.5z M18.1,464.2l2.3-18l33.2,6.1l-3.1,17.8L18.1,464.2z
		 M116.1,484.2V455h128.3v46.7H133.6c-4.6,0-9.1-1.8-12.4-5.1C118,493.3,116.1,488.8,116.1,484.2L116.1,484.2z M367,501.7H256.1V455
		h128.3v29.2c0,4.6-1.8,9.1-5.1,12.4C376.1,499.9,371.6,501.7,367,501.7L367,501.7z M450.1,470.1l-3.1-17.8l33.2-6.1l2.3,18
		L450.1,470.1z"/>
</g>
</svg>
