<?xml version="1.0" encoding="utf-8"?>
<!-- Generator: Adobe Illustrator 26.0.0, SVG Export Plug-In . SVG Version: 6.00 Build 0)  -->
<svg version="1.1" id="katman_1" xmlns="http://www.w3.org/2000/svg" xmlns:xlink="http://www.w3.org/1999/xlink" x="0px" y="0px"
	 viewBox="0 0 527.1 533.8" style="enable-background:new 0 0 527.1 533.8;" xml:space="preserve">
<g>
	<path d="M106,509.7c-3,0-5.5-2.4-5.5-5.5l2.4-314.2c0-2.8-1.7-53.7-47.8-61.2l0,0c-3-0.5-5-3.3-4.5-6.3s3.3-5,6.3-4.5
		c23,3.8,40.2,17.5,49.7,39.7c4.3,10.2,6.8,21.1,7.3,32.2v0.1l-2.4,314.3c0,1.4-0.6,2.8-1.6,3.9C108.8,509.1,107.4,509.7,106,509.7
		L106,509.7z"/>
	<path d="M422.1,509.7c-3,0-5.4-2.4-5.5-5.4L411,190c0-33.5,15.9-51.3,29.2-60.4l0,0c8.8-6,18.7-10,29.2-11.7c3-0.4,5.7,1.8,6.1,4.8
		c0.4,3-1.8,5.7-4.8,6.1c-2,0.2-48.8,6.9-48.8,61.1l5.6,314.2c0,1.4-0.5,2.9-1.5,3.9S423.6,509.7,422.1,509.7L422.1,509.7z"/>
	<path d="M75.9,487.3c-0.3,0-0.6,0-0.9-0.1L6.1,476.3c-3-0.5-5-3.3-4.6-6.3c0.5-3,3.3-5,6.3-4.6l68.9,10.9c2.8,0.4,4.8,3,4.6,5.8
		S78.8,487.3,75.9,487.3L75.9,487.3z"/>
	<path d="M450,487.3c-2.9,0-5.2-2.2-5.4-5s1.8-5.4,4.6-5.8l68.9-10.9c3-0.5,5.8,1.6,6.3,4.6s-1.6,5.8-4.6,6.3l-68.9,10.9
		C450.5,487.3,450.3,487.3,450,487.3L450,487.3z"/>
	<path d="M299.6,519.6c-2.9,0-5.3-2.3-5.5-5.2l-18.6-402.5c-0.1-1.5,0.5-2.9,1.5-4s2.5-1.7,4-1.7c21.4,0,37.9-6,49.1-17.9
		c15.8-16.8,16.6-40.7,16.5-46.2l-13.5-24c-0.1-0.2-0.2-0.3-0.2-0.5c-1-2.2-4-6.6-7-6.6H202.3c-3.4,0-6.5,5.3-7,6.6
		c-0.1,0.2-0.2,0.3-0.2,0.5l-13.5,24c0,5.5,0.7,29.5,16.5,46.2c11.2,11.9,27.7,17.9,49.1,17.9c1.5,0,2.9,0.6,4,1.7
		c1,1.1,1.6,2.5,1.5,4l-18.6,402.5c-0.1,3-2.7,5.3-5.7,5.2c-0.5,0-52.4-2.3-122.9-9.8c-3-0.4-5.1-3.1-4.8-6c0.3-3,3-5.1,5.9-4.9
		c57,6.1,101.7,8.8,116.7,9.5L241.4,117c-21.9-1.1-39.1-8.2-51.4-21.3c-21.2-22.5-19.5-54.2-19.4-55.5c0.1-0.8,0.3-1.6,0.7-2.4
		l14.1-25c1-2.2,6.6-12.8,16.9-12.8h123.6c10.4,0,15.9,10.6,16.9,12.8l14.1,25l0,0c0.4,0.7,0.6,1.5,0.7,2.4
		c0.1,1.3,1.8,33-19.4,55.5c-12.3,13.1-29.5,20.2-51.4,21.3l18.1,391.4c15-0.8,59.8-3.4,116.7-9.5c3-0.3,5.6,1.9,5.9,4.9
		c0.3,3-1.8,5.6-4.8,6c-70.5,7.6-122.4,9.8-122.9,9.8L299.6,519.6z"/>
	<path d="M62.3,532.7c-0.3,0-0.6,0-0.9-0.1l-56.9-9.8c-2.7-0.5-4.6-2.8-4.5-5.5l0.9-46.6c0-0.2,0-0.4,0-0.6l40.4-319.5
		c2.1-19.6,12.6-38.5,30.5-54.8c8-7.3,16.9-13.6,26.4-18.7l72.4-39.8l0,0c1.3-0.7,2.8-0.9,4.2-0.5c1.4,0.4,2.6,1.3,3.3,2.6
		c0.7,1.3,0.9,2.8,0.4,4.2c-0.4,1.4-1.4,2.6-2.7,3.3l-72.5,39.8l-0.2,0.1c-0.5,0.2-46.7,23.9-51.1,65v0.1L11.7,471.2l-0.8,41.6
		l47.6,8.2l13.1-40.3l31.2-221.2c0.5-2.9,3.2-5,6.2-4.6s5,3.1,4.7,6.1L82.4,482.6c0,0.3-0.1,0.6-0.2,0.9l-14.7,45.4
		C66.7,531.2,64.6,532.7,62.3,532.7L62.3,532.7z"/>
	<path d="M462.6,533.8c-2.5,0-4.6-1.6-5.3-4l-12.9-46.4l0,0c-0.1-0.2-0.1-0.5-0.1-0.7l-32-222.4c-0.4-3,1.6-5.8,4.6-6.2
		c3-0.4,5.8,1.6,6.2,4.6l31.9,222l11.5,41.4l49.4-8.2l-1.9-42.7L474,152c-4.4-41.3-50.6-64.9-51.1-65.1l0,0c-0.1,0-0.2-0.1-0.2-0.1
		l-72.8-40.9c-2.6-1.5-3.6-4.8-2.1-7.4s4.8-3.6,7.4-2.1l72.7,40.9c9.5,5.1,18.4,11.4,26.4,18.7c17.9,16.3,28.4,35.3,30.5,54.9
		L525,470.1l0,0c0,0.1,0,0.3,0,0.4l2.1,47.7c0.1,2.8-1.8,5.2-4.6,5.6l-59.1,9.8C463.2,533.8,462.9,533.8,462.6,533.8L462.6,533.8z"
		/>
	<path d="M247.1,117.1c-0.4,0-0.8,0-1.2-0.1c-1.4-0.3-2.7-1.2-3.4-2.4c-0.8-1.2-1-2.7-0.7-4.2c1.1-4.9,0.4-10.8-1.7-16.7
		c-1.8-4.4-4.1-8.7-6.8-12.6c-1-1.6-2-3.3-3-4.9l-38.6-65.8c-0.9-1.3-1.1-2.8-0.8-4.3c0.3-1.5,1.3-2.8,2.6-3.5
		c1.3-0.8,2.9-0.9,4.3-0.5c1.5,0.4,2.7,1.5,3.3,2.8l38.6,65.8c0.9,1.6,1.9,3.1,2.9,4.7l0,0c3.1,4.6,5.7,9.5,7.7,14.6
		c2,5.5,4.1,14,2.1,22.8C251.9,115.3,249.7,117.1,247.1,117.1L247.1,117.1z"/>
	<path d="M281.3,117.1c-2.6,0-4.8-1.8-5.3-4.3c-1.9-8.8,0.1-17.3,2.1-22.8l0,0c2.1-5.1,4.7-10,7.7-14.6c1-1.5,1.9-3.1,2.9-4.7
		l38.6-65.8l0,0c0.7-1.4,1.9-2.4,3.3-2.8c1.4-0.4,3-0.3,4.3,0.5s2.3,2,2.6,3.5c0.3,1.5,0,3-0.8,4.3l-38.6,65.7c-1,1.7-2,3.3-3,4.9
		c-2.7,4-4.9,8.2-6.7,12.6c-2.2,5.9-2.8,11.8-1.7,16.7c0.3,1.4,0.1,2.9-0.7,4.2c-0.8,1.2-2,2.1-3.5,2.4
		C282.1,117,281.7,117.1,281.3,117.1L281.3,117.1z"/>
	<path d="M309.4,50.3h-90.8c-3,0-5.5-2.4-5.5-5.5s2.4-5.5,5.5-5.5h90.8c3,0,5.5,2.4,5.5,5.5S312.5,50.3,309.4,50.3z"/>
	<path d="M298.4,493.3h-68.7c-3,0-5.5-2.4-5.5-5.5s2.4-5.5,5.5-5.5h68.7c3,0,5.5,2.4,5.5,5.5S301.4,493.3,298.4,493.3z"/>
	<path d="M296.3,453.9h-64.5c-3,0-5.5-2.4-5.5-5.5s2.4-5.5,5.5-5.5h64.5c3,0,5.5,2.4,5.5,5.5S299.3,453.9,296.3,453.9z"/>
	<path d="M298.4,484c-3,0.1-5.6-2.2-5.7-5.3c-0.1-3,2.2-5.6,5.3-5.7l123.1-9.8c3-0.2,5.7,2,5.9,5s-2,5.7-5,5.9l-123.1,9.8
		C298.7,484,298.5,484,298.4,484L298.4,484z"/>
	<path d="M230,484c-0.1,0-0.3,0-0.4,0l-123.1-9.8c-3-0.2-5.3-2.9-5-5.9c0.2-3,2.9-5.3,5.9-5l123.1,9.8c3,0.1,5.4,2.7,5.3,5.7
		C235.6,481.8,233.1,484.1,230,484L230,484z"/>
	<path d="M339,516.3c-2.9,0-5.3-2.2-5.5-5.1l-2.2-35c-0.2-3,2.1-5.6,5.1-5.8s5.6,2.1,5.8,5.1l2.2,35c0.2,3-2.1,5.6-5.1,5.8H339z"/>
	<path d="M188,516.3h-0.3c-3-0.2-5.3-2.8-5.1-5.8l2.2-35c0.2-3,2.8-5.3,5.8-5.1c3,0.2,5.3,2.8,5.1,5.8l-2.2,35
		C193.3,514.1,190.9,516.3,188,516.3L188,516.3z"/>
	<path d="M106,509.7c-3,0-5.5-2.4-5.5-5.5l2.4-314.2c0-2.8-1.7-53.7-47.8-61.2l0,0c-3-0.5-5-3.3-4.5-6.3s3.3-5,6.3-4.5
		c23,3.8,40.2,17.5,49.7,39.7c4.3,10.2,6.8,21.1,7.3,32.2v0.1l-2.4,314.3c0,1.4-0.6,2.8-1.6,3.9C108.8,509.1,107.4,509.7,106,509.7
		L106,509.7z"/>
	<path d="M75.9,487.3c-0.3,0-0.6,0-0.9-0.1L6.1,476.3c-3-0.5-5-3.3-4.6-6.3c0.5-3,3.3-5,6.3-4.6l68.9,10.9c2.8,0.4,4.8,3,4.6,5.8
		S78.8,487.3,75.9,487.3L75.9,487.3z"/>
	<path d="M450,487.3c-2.9,0-5.2-2.2-5.4-5s1.8-5.4,4.6-5.8l68.9-10.9c3-0.5,5.8,1.6,6.3,4.6s-1.6,5.8-4.6,6.3l-68.9,10.9
		C450.5,487.3,450.3,487.3,450,487.3L450,487.3z"/>
	<path d="M299.6,519.6c-2.9,0-5.3-2.3-5.5-5.2l-18.6-402.5c-0.1-1.5,0.5-2.9,1.5-4s2.5-1.7,4-1.7c21.4,0,37.9-6,49.1-17.9
		c15.8-16.8,16.6-40.7,16.5-46.2l-13.5-24c-0.1-0.2-0.2-0.3-0.2-0.5c-1-2.2-4-6.6-7-6.6H202.3c-3.4,0-6.5,5.3-7,6.6
		c-0.1,0.2-0.2,0.3-0.2,0.5l-13.5,24c0,5.5,0.7,29.5,16.5,46.2c11.2,11.9,27.7,17.9,49.1,17.9c1.5,0,2.9,0.6,4,1.7
		c1,1.1,1.6,2.5,1.5,4l-18.6,402.5c-0.1,3-2.7,5.3-5.7,5.2c-0.5,0-52.4-2.3-122.9-9.8c-3-0.4-5.1-3.1-4.8-6c0.3-3,3-5.1,5.9-4.9
		c57,6.1,101.7,8.8,116.7,9.5L241.4,117c-21.9-1.1-39.1-8.2-51.4-21.3c-21.2-22.5-19.5-54.2-19.4-55.5c0.1-0.8,0.3-1.6,0.7-2.4
		l14.1-25c1-2.2,6.6-12.8,16.9-12.8h123.6c10.4,0,15.9,10.6,16.9,12.8l14.1,25l0,0c0.4,0.7,0.6,1.5,0.7,2.4
		c0.1,1.3,1.8,33-19.4,55.5c-12.3,13.1-29.5,20.2-51.4,21.3l18.1,391.4c15-0.8,59.8-3.4,116.7-9.5c3-0.3,5.6,1.9,5.9,4.9
		c0.3,3-1.8,5.6-4.8,6c-70.5,7.6-122.4,9.8-122.9,9.8L299.6,519.6z"/>
	<path d="M62.3,532.7c-0.3,0-0.6,0-0.9-0.1l-56.9-9.8c-2.7-0.5-4.6-2.8-4.5-5.5l0.9-46.6c0-0.2,0-0.4,0-0.6l40.4-319.5
		c2.1-19.6,12.6-38.5,30.5-54.8c8-7.3,16.9-13.6,26.4-18.7l72.4-39.8l0,0c1.3-0.7,2.8-0.9,4.2-0.5c1.4,0.4,2.6,1.3,3.3,2.6
		c0.7,1.3,0.9,2.8,0.4,4.2c-0.4,1.4-1.4,2.6-2.7,3.3l-72.5,39.8l-0.2,0.1c-0.5,0.2-46.7,23.9-51.1,65v0.1L11.7,471.2l-0.8,41.6
		l47.6,8.2l13.1-40.3l31.2-221.2c0.5-2.9,3.2-5,6.2-4.6s5,3.1,4.7,6.1L82.4,482.6c0,0.3-0.1,0.6-0.2,0.9l-14.7,45.4
		C66.7,531.2,64.6,532.7,62.3,532.7L62.3,532.7z"/>
	<path d="M462.6,533.8c-2.5,0-4.6-1.6-5.3-4l-12.9-46.4l0,0c-0.1-0.2-0.1-0.5-0.1-0.7l-32-222.4c-0.4-3,1.6-5.8,4.6-6.2
		c3-0.4,5.8,1.6,6.2,4.6l31.9,222l11.5,41.4l49.4-8.2l-1.9-42.7L474,152c-4.4-41.3-50.6-64.9-51.1-65.1l0,0c-0.1,0-0.2-0.1-0.2-0.1
		l-72.8-40.9c-2.6-1.5-3.6-4.8-2.1-7.4s4.8-3.6,7.4-2.1l72.7,40.9c9.5,5.1,18.4,11.4,26.4,18.7c17.9,16.3,28.4,35.3,30.5,54.9
		L525,470.1l0,0c0,0.1,0,0.3,0,0.4l2.1,47.7c0.1,2.8-1.8,5.2-4.6,5.6l-59.1,9.8C463.2,533.8,462.9,533.8,462.6,533.8L462.6,533.8z"
		/>
	<path d="M247.1,117.1c-0.4,0-0.8,0-1.2-0.1c-1.4-0.3-2.7-1.2-3.4-2.4c-0.8-1.2-1-2.7-0.7-4.2c1.1-4.9,0.4-10.8-1.7-16.7
		c-1.8-4.4-4.1-8.7-6.8-12.6c-1-1.6-2-3.3-3-4.9l-38.6-65.8c-0.9-1.3-1.1-2.8-0.8-4.3c0.3-1.5,1.3-2.8,2.6-3.5
		c1.3-0.8,2.9-0.9,4.3-0.5c1.5,0.4,2.7,1.5,3.3,2.8l38.6,65.8c0.9,1.6,1.9,3.1,2.9,4.7l0,0c3.1,4.6,5.7,9.5,7.7,14.6
		c2,5.5,4.1,14,2.1,22.8C251.9,115.3,249.7,117.1,247.1,117.1L247.1,117.1z"/>
	<path d="M281.3,117.1c-2.6,0-4.8-1.8-5.3-4.3c-1.9-8.8,0.1-17.3,2.1-22.8l0,0c2.1-5.1,4.7-10,7.7-14.6c1-1.5,1.9-3.1,2.9-4.7
		l38.6-65.8l0,0c0.7-1.4,1.9-2.4,3.3-2.8c1.4-0.4,3-0.3,4.3,0.5s2.3,2,2.6,3.5c0.3,1.5,0,3-0.8,4.3l-38.6,65.7c-1,1.7-2,3.3-3,4.9
		c-2.7,4-4.9,8.2-6.7,12.6c-2.2,5.9-2.8,11.8-1.7,16.7c0.3,1.4,0.1,2.9-0.7,4.2c-0.8,1.2-2,2.1-3.5,2.4
		C282.1,117,281.7,117.1,281.3,117.1L281.3,117.1z"/>
	<path d="M309.4,50.3h-90.8c-3,0-5.5-2.4-5.5-5.5s2.4-5.5,5.5-5.5h90.8c3,0,5.5,2.4,5.5,5.5S312.5,50.3,309.4,50.3z"/>
	<path d="M298.4,484c-3,0.1-5.6-2.2-5.7-5.3c-0.1-3,2.2-5.6,5.3-5.7l123.1-9.8c3-0.2,5.7,2,5.9,5s-2,5.7-5,5.9l-123.1,9.8
		C298.7,484,298.5,484,298.4,484L298.4,484z"/>
	<path d="M230,484c-0.1,0-0.3,0-0.4,0l-123.1-9.8c-3-0.2-5.3-2.9-5-5.9c0.2-3,2.9-5.3,5.9-5l123.1,9.8c3,0.1,5.4,2.7,5.3,5.7
		C235.6,481.8,233.1,484.1,230,484L230,484z"/>
	<path d="M339,516.3c-2.9,0-5.3-2.2-5.5-5.1l-2.2-35c-0.2-3,2.1-5.6,5.1-5.8s5.6,2.1,5.8,5.1l2.2,35c0.2,3-2.1,5.6-5.1,5.8H339z"/>
	<path d="M188,516.3h-0.3c-3-0.2-5.3-2.8-5.1-5.8l2.2-35c0.2-3,2.8-5.3,5.8-5.1c3,0.2,5.3,2.8,5.1,5.8l-2.2,35
		C193.3,514.1,190.9,516.3,188,516.3L188,516.3z"/>
	<path d="M132.8,449.2c-0.3,0-0.6,0-0.9-0.1c-1.4-0.2-2.7-1.1-3.5-2.2c-0.8-1.2-1.2-2.7-0.9-4.1c9.8-56.4,24.1-83.5,24.7-84.6
		c0.7-1.3,1.8-2.3,3.2-2.8s2.9-0.3,4.3,0.4c1.3,0.7,2.3,1.9,2.7,3.3s0.2,3-0.5,4.2c-0.2,0.4-14.1,27-23.6,81.3
		C137.7,447.3,135.4,449.2,132.8,449.2L132.8,449.2z"/>
	<path d="M395.4,449.2c-2.7,0-4.9-1.9-5.4-4.5c-9.6-54.7-23.4-81.1-23.6-81.3l0,0c-0.7-1.3-0.9-2.8-0.5-4.2s1.4-2.6,2.7-3.3
		c1.3-0.7,2.8-0.8,4.3-0.4c1.4,0.5,2.6,1.5,3.2,2.8c0.6,1.1,14.8,28.2,24.7,84.6c0.3,1.4-0.1,2.9-0.9,4.1s-2.1,2-3.5,2.2
		C396,449.2,395.7,449.2,395.4,449.2L395.4,449.2z"/>
	<path d="M309.5,147.7c-2.9,0-5.3-2.3-5.5-5.2v-1.2c-0.1-3,2.2-5.6,5.2-5.7s5.6,2.2,5.7,5.2v1.2c0.1,3-2.2,5.6-5.2,5.7H309.5z"/>
	<path d="M312.7,223.2c-2.9,0-5.3-2.3-5.5-5.2l-0.1-1.2c-0.1-3,2.2-5.6,5.2-5.7c3-0.1,5.6,2.2,5.7,5.2v1.2c0.1,3-2.2,5.6-5.2,5.7
		H312.7z"/>
	<path d="M315.8,298.6c-2.9,0-5.4-2.3-5.5-5.2v-1.2c-0.1-3,2.2-5.6,5.2-5.7s5.6,2.2,5.7,5.2v1.2l0,0c0.1,1.5-0.5,2.9-1.5,4
		s-2.4,1.7-3.8,1.7H315.8z"/>
	<path d="M319,374.1c-2.9,0-5.3-2.3-5.5-5.2v-1.2c-0.1-3,2.2-5.6,5.2-5.7s5.6,2.2,5.7,5.2v1.2c0.1,3-2.2,5.6-5.2,5.7H319z"/>
	<path d="M322.1,449.6c-2.9,0-5.4-2.3-5.5-5.2v-1.2c-0.1-3,2.2-5.6,5.2-5.7s5.6,2.2,5.7,5.2v1.2c0.1,3-2.2,5.6-5.2,5.7H322.1z"/>
	<path d="M364.1,222.1c-10.6,0-20.7-4.2-28.2-11.7s-11.7-17.6-11.7-28.2s4.2-20.7,11.7-28.2s17.6-11.7,28.2-11.7s20.7,4.2,28.2,11.7
		s11.7,17.6,11.7,28.2c0,10.6-4.2,20.7-11.7,28.2S374.7,222.1,364.1,222.1L364.1,222.1z M364.1,153.2c-7.7,0-15.1,3.1-20.5,8.5
		s-8.5,12.8-8.5,20.5s3.1,15.1,8.5,20.5s12.8,8.5,20.5,8.5s15.1-3.1,20.5-8.5s8.5-12.8,8.5-20.5s-3.1-15.1-8.5-20.5
		S371.8,153.2,364.1,153.2L364.1,153.2z"/>
	<path d="M364.1,200.4c-4.8,0-9.5-1.9-12.9-5.3c-3.4-3.4-5.3-8.1-5.3-12.9s1.9-9.5,5.3-12.9s8.1-5.3,12.9-5.3s9.5,1.9,12.9,5.3
		c3.4,3.4,5.3,8.1,5.3,12.9c0,4.8-1.9,9.5-5.3,12.9S369,200.4,364.1,200.4L364.1,200.4z M364.1,174.9L364.1,174.9
		c-2.9,0-5.6,1.8-6.7,4.5s-0.5,5.9,1.6,8s5.2,2.7,8,1.6c2.7-1.1,4.5-3.8,4.5-6.7C371.4,178.1,368.1,174.8,364.1,174.9L364.1,174.9z"
		/>
	<path d="M208.8,187.1H141c-3,0-5.5-2.4-5.5-5.5s2.4-5.5,5.5-5.5h67.8c3,0,5.5,2.4,5.5,5.5S211.8,187.1,208.8,187.1z"/>
	<path d="M208.8,203.5c-3,0-5.5-2.4-5.5-5.5v-16.4c0-3,2.4-5.5,5.5-5.5s5.5,2.4,5.5,5.5V198c0,1.4-0.6,2.8-1.6,3.9
		C211.6,202.9,210.3,203.5,208.8,203.5L208.8,203.5z"/>
</g>
</svg>
