<svg xmlns="http://www.w3.org/2000/svg" viewBox="0 0 381.09 408.22"><g id="katman_2" data-name="katman 2"><g id="katman_1-2" data-name="katman 1"><path d="M173.76,408.22c-5.55-.43-11.1-.83-16.65-1.31q-29.81-2.55-59.62-5.16c-7.28-.64-9.29-2.88-9.1-10.16.71-28,4.63-55.64,9.84-83.09,5.28-27.79,11.56-55.4,16.7-83.22,1.28-6.89.42-14.36-.49-21.43-1.64-12.64-4-25.17-6.16-37.74a24.58,24.58,0,0,0-.78-2.51c-.8,1.68-1.27,2.68-1.74,3.68-10.48,22.12-14.58,46-19,69.75Q74,305.42,61.21,373.79c-1.06,5.65-4,7.68-9.55,6.88q-21.51-3.07-43-6.1C1,373.5-1,370.87.46,363.29,16.93,280.68,33.2,198,50.16,115.53c3.54-17.22,9.67-33.92,14.7-50.83C67,57.56,72.09,53,78.7,50.17c12-5,24.13-9.68,36.14-14.67a14.52,14.52,0,0,0,5.55-4c4.81-6,9.6-12.1,13.88-18.5,5-7.49,12-11.54,20.63-11.88q29.47-1.15,59-1.08c6.56,0,13.19,1.39,19.66,2.75,4.93,1,8.75,4.21,11.78,8.35,5.09,7,10.26,13.92,15.6,20.72a12.53,12.53,0,0,0,5,3.56C277,39.88,288,44.31,299.21,48.53c10.48,3.95,16.08,11.78,19.49,22.09,8.44,25.54,14.39,51.69,19.63,78q21.41,107.7,42.41,215.49c1.24,6.32-.75,9.27-7.19,10.24-15,2.24-30,4.35-45,6.44-4.74.67-7.73-1.66-8.66-6.67-3.75-20.25-7.32-40.54-11.21-60.76-7.61-39.53-15.05-79.1-23.33-118.49-2.21-10.52-7.24-20.45-11-30.66l-1.09,0c-.92,3.87-2.1,7.7-2.72,11.63-1.53,9.71-2.53,19.51-4.23,29.19-2.75,15.62,1.92,30.33,5.09,45.21,8,37.31,15.27,74.74,19.39,112.7,1.08,9.91,1.38,19.9,1.83,29.87.26,5.57-1.89,8.08-7.57,8.73-15.59,1.79-31.2,3.37-46.8,5.05-4.74.51-9.48,1.06-14.22,1.59ZM48.44,366.41a15.63,15.63,0,0,0,.66-1.82c8.82-47.14,17.45-94.32,26.55-141.41A390.85,390.85,0,0,1,86,181.1c3.78-12.14,9.37-23.7,13.91-35.61a9,9,0,0,0-.05-6.29c-3-6.5-6.38-12.83-9.78-19.13-2.45-4.53-2-8.34,1.49-10.48s7.72-1.13,10,3.33c4.88,9.55,10.11,19,13.79,29.07,8.29,22.61,12.06,46.24,13.47,70.23.32,5.39.52,11-.61,16.24-10.33,47.67-20.62,95.34-25.21,144-.5,5.23-.63,10.5-1,16,36.42,3.57,72.35,7,108.74,6,.08-1.39.19-2.43.19-3.47,0-37.78.18-75.57-.06-113.35a196.32,196.32,0,0,0-23.57-92.56,10.07,10.07,0,0,0-3.57-4c-28.23-15.8-46.18-39.86-54.51-70.63-5.06-18.66-7.69-38-11.42-57-.27-1.35-.63-2.68-1.07-4.55-9,3.62-17.44,7.29-26.06,10.35-9.57,3.39-14.8,10-17,19.71C64.85,117.77,55.17,156.43,47,195.4c-9.43,44.85-17.62,90-26.33,135-2,10.28-3.91,20.58-5.93,31.25Zm216-317.77c-.55,1.83-.95,2.81-1.14,3.83q-4.1,22.16-8.14,44.3c-4.05,22.29-12.84,42.36-27.7,59.63a108.58,108.58,0,0,1-27.35,23.16c.32.75.53,1.37.82,1.94,16.52,32.24,24,66.52,23.75,102.67-.22,35,0,70,0,105v5.16l54.13-5.42a26.58,26.58,0,0,0,.12-2.93c-1.3-13.76-2.14-27.59-4-41.27-5.47-39.24-13.52-78-22.24-116.64a27.17,27.17,0,0,1-.63-6.3,267.07,267.07,0,0,1,10.3-69.6c3.85-13.76,8.85-27,16.83-39a10.75,10.75,0,0,1,6-4.45c1.82-.36,4.57,1.18,6.06,2.7,2.18,2.22,1.45,5.1,0,7.77-3.38,6.31-6.6,12.72-10,19-1.46,2.7-1.08,5.06,0,7.89,6.4,16.72,14.65,33.09,18.37,50.42,10.69,49.73,19.51,99.86,29.06,149.84,1.26,6.6,2.45,13.21,3.72,20.07l33.8-4.81c-.17-1.29-.25-2.31-.44-3.31-3.57-18.66-7-37.34-10.77-56-11.64-58.09-23.11-116.22-35.26-174.2-3.94-18.81-9.76-37.22-14.73-55.81a14.09,14.09,0,0,0-8.11-9.78C286.19,57.89,275.45,53.35,264.46,48.64Zm-107,5.45a390.39,390.39,0,0,0,33.12,77.5,395.47,395.47,0,0,0,32.95-77.5ZM139.1,29.43C136.42,33,134.33,36,132,38.84a7.4,7.4,0,0,0-1.69,6.89c2.7,13.69,5.36,27.39,7.55,41.17,3.66,23,11.28,44.25,27.12,61.88,5.38,6,11.16,11.59,18.69,16.2,0-6.77,0-12.85,0-18.93a4.24,4.24,0,0,0-.86-2.16c-9.52-13.58-16.41-28.56-22.8-43.74-7.47-17.74-15-35.51-17.62-54.84C141.62,40.25,140.31,35.28,139.1,29.43Zm102.71-.19c-1.67,9.13-2.59,17.37-4.73,25.28-8.51,31.45-20.85,61.3-38.43,88.86a5.57,5.57,0,0,0-1.17,2.46c-.1,6.17,0,12.34,0,19.22,1.54-1,2.43-1.54,3.25-2.15,19.44-14.57,32.6-33.67,38.29-57.15C243.91,85.39,247.13,64.6,251,44a4.75,4.75,0,0,0-.7-3.31C247.84,37.09,245.14,33.66,241.81,29.24Zm-16,11c1.62-8.15,3.18-16,4.95-24.9-27.12-3.13-53.56-3.47-80.5.16,1.55,7.71,3.07,14.3,4.12,21,.48,3,1.56,3.87,4.57,3.85,21-.13,42-.07,63-.07Z"/><path d="M190.83,306.09a6.74,6.74,0,1,1-6.92,6.24A6.68,6.68,0,0,1,190.83,306.09Z"/><path d="M197.19,258.5a6.81,6.81,0,0,1-6.63,6.6,6.74,6.74,0,0,1-6.68-6.93,6.66,6.66,0,1,1,13.31.33Z"/></g></g></svg>