<?xml version="1.0" encoding="utf-8"?>
<!-- Generator: Adobe Illustrator 26.0.0, SVG Export Plug-In . SVG Version: 6.00 Build 0)  -->
<svg version="1.1" id="katman_1" xmlns="http://www.w3.org/2000/svg" xmlns:xlink="http://www.w3.org/1999/xlink" x="0px" y="0px"
	 viewBox="0 0 507.5 507.9" style="enable-background:new 0 0 507.5 507.9;" xml:space="preserve">
<g>
	<path d="M418.8,67.8c-0.9-1.1-2.1-1.9-3.4-2.4c-0.1-0.1-0.2-0.2-0.3-0.2l-88.8-33.7l-26-27.3c-1.9-3.1-5.6-4.8-9.3-4
		c-0.2,0-0.3,0.2-0.5,0.2H215c-0.3,0-0.5,0.1-0.8,0.2c-0.6,0.1-1.1,0.2-1.6,0.3c-0.6,0.2-1.1,0.4-1.7,0.6c-0.5,0.3-0.9,0.6-1.3,0.9
		c-0.3,0.2-0.7,0.4-0.9,0.7l-26.2,27.9L92.4,65.1c-0.1,0.1-0.2,0.2-0.3,0.3c-1.3,0.5-2.4,1.3-3.4,2.4C19.6,152.6,0.8,484.6,0,498.7
		c-0.1,2.4,0.7,4.7,2.4,6.5s4,2.7,6.4,2.7h58.3c4.2,0,7.9-3,8.6-7.2c0.2-1.2,14.5-80.4,26.1-142.1c1.8,14.3,4.2,31.4,7.7,53
		c0.1,0.3,0.2,0.5,0.3,0.8c0.1,0.3,0,0.5,0.1,0.8l9.3,37.1c0.8,3.3,3.5,5.9,6.9,6.5c0.5,0.1,46.1,8.5,126,16c0.2,0,0.5,0.1,0.7,0.1
		c0.2,0,0.4,0,0.6,0c0.2,0,0.4,0,0.6,0s0.4-0.1,0.5-0.1c80-7.5,125.7-15.9,126.1-16c3.4-0.6,6.1-3.1,6.9-6.5l8.7-34.8
		c0.9-1.1,1.6-2.4,1.9-3.9c3.5-21.3,5.9-38.7,7.7-52.9c11.6,61.7,25.9,140.9,26.1,142c0.8,4.2,4.4,7.2,8.6,7.2h58.3
		c2.4,0,4.7-1,6.4-2.7c1.6-1.8,2.5-4.1,2.4-6.5C506.7,484.6,488,152.6,418.8,67.8L418.8,67.8z M392.8,300.8
		c-0.2,10.1-0.7,29.1-6.3,70.2l-26.3-68.1c-1.8-4.5-6.8-6.7-11.3-5c-4.5,1.8-6.8,6.8-5,11.3l35.6,92.5
		c-25.1,1.2-86.5,7.2-128.7,11.4l-39.4-166.9l131-90.2c2.3-1.6,3.7-4.2,3.8-7.1c0.1-2.8-1.3-5.5-3.5-7.2l-24.9-18.4h26
		c2.8,0,5.4-1.3,7-3.5c1.7-2.2,2.2-5.1,1.3-7.8l-17.9-58.8l68.6,26C401.2,107.2,394.5,220.3,392.8,300.8L392.8,300.8z M224.8,112.1
		c-1.2-3.5-4.6-5.8-8.2-5.8h-40.7L195.1,43l11.2-11.9c3.7,24,17.1,52.3,30.2,79.9c2.7,5.6,5.2,11.1,7.7,16.4
		c-2,4.3-5.8,11.7-10.4,21c-3.1,6.1-5.9,11.8-8.6,17.2l-34.2-18.4l31.3-25.5C225,119.5,226,115.6,224.8,112.1L224.8,112.1z
		 M285,17.9c0,3.7-0.2,7.6-1,11.9h-60.3c-0.7-4.3-0.9-8.2-0.8-11.9H285z M254.4,105.5c-0.2,0.5-0.4,0.9-0.6,1.3
		c-0.5-1.1-1-2.2-1.6-3.3c-8.8-18.6-18.1-38.4-23.9-56.2h50.9C273,66,263.2,87,254.4,105.5L254.4,105.5z M249.3,156.4
		c5.2-10.4,9.4-18.7,11.3-22.9c3-6.5,6.2-13.4,9.6-20.5c13-27.4,27.2-57.4,31.3-82.3L312.2,42c0.2,0.4,0.5,0.7,0.7,1.1l19,62.7
		h-40.7c-3.8,0-7.1,2.4-8.3,6c-1.2,3.6,0.1,7.5,3.1,9.8l36.3,26.9l-104,71.6C227.4,199.8,241.7,171.4,249.3,156.4L249.3,156.4z
		 M173.7,53l-18.1,59.4c-0.8,2.6-0.3,5.5,1.3,7.8c1.7,2.2,4.3,3.5,7,3.5H192L169.6,142c-2.3,1.8-3.5,4.7-3.2,7.6
		c0.3,2.9,2,5.5,4.6,6.9l46.3,24.9c-15.2,31.1-23.3,50-24.3,59.1c0,0.1-0.1,0.2-0.1,0.3c0,0.2,0,0.4,0,0.5c0,0.3-0.1,0.7-0.1,1
		c0,0.3,0.1,0.5,0.2,0.8c0,0.3,0,0.7,0.1,1c0,0.1,0,0.1,0,0.1l39.6,167.8c-60-6-90.3-9-105.9-9.4l36.1-93.6c1.8-4.5-0.5-9.6-5-11.3
		c-4.5-1.7-9.6,0.5-11.3,5l-25.6,66.4c-5.4-39.9-5.9-58.5-6.1-68.5c-1.7-80.5-8.4-193.6-10.1-221.6L173.7,53z M59.8,490.4H18.1
		C21.3,440,39.5,197,88.4,101c2.4,42.2,7,125.5,8.6,191.1C89,328.7,65.6,458,59.8,490.4L59.8,490.4z M134.8,440.6l-5.2-20.8
		c13.6,1.2,43.1,4,107.3,10.5l5.7,24C185.6,448.7,148.1,442.8,134.8,440.6L134.8,440.6z M371.8,440.6c-13.6,2.3-52.4,8.3-111.2,14
		l-5.7-24.3c75.6-7.6,108.5-10.1,122.3-11L371.8,440.6z M447.7,490.4c-5.9-32.4-29.3-161.7-37.3-198.2c1.6-65.7,6.2-149,8.6-191.1
		c48.9,96,67,338.9,70.3,389.4H447.7z"/>
	<path d="M272.6,380.1c1.1,4.7-1.8,9.4-6.5,10.5c-0.7,0.2-1.3,0.2-2,0.2c-4,0-7.6-2.7-8.5-6.8l-27.7-118.9
		c-1.1-4.7,1.8-9.4,6.5-10.5c4.7-1.1,9.4,1.8,10.5,6.5L272.6,380.1z"/>
</g>
</svg>
