<?xml version="1.0" encoding="utf-8"?>
<!-- Generator: Adobe Illustrator 26.0.0, SVG Export Plug-In . SVG Version: 6.00 Build 0)  -->
<svg version="1.1" id="katman_1" xmlns="http://www.w3.org/2000/svg" xmlns:xlink="http://www.w3.org/1999/xlink" x="0px" y="0px"
	 viewBox="0 0 340.6 545.2" style="enable-background:new 0 0 340.6 545.2;" xml:space="preserve">
<g>
	<path d="M11.8,418c13.2,3.3,26.6,5.4,40.1,6.4h0.7c2.5,0.1,5.1-0.3,7.5-1c-3,24.9-4.9,49.6-6.8,73.4l-1.2,14.7l0,0
		c-0.3,3,1.3,5.9,4,7.2c35.5,17.4,74.5,26.5,114,26.5c9,0.1,17.9-0.3,26.8-1.2l5-0.6v-26.2l8.6,24.9l4.8-0.8
		c24-4.1,47.3-11.7,69.2-22.4c2.6-1.4,4.2-4.2,4-7.2l-1.3-15.3c-1.8-23.6-3.8-48.1-6.7-72.8c2.5,0.7,5,1,7.6,1h0.7
		c13.5-1,26.9-3.1,40.1-6.4c6.4-2,13.6-7.5,11.2-22.4c-0.4-3-13.7-85.6-26.7-165.9c-6.4-40.5-13.3-80.9-17.9-111.2
		c-8.7-53.5-8.7-53.5-11.8-54.7l0,0c-7.6-2.8-15.3-5-23.1-6.8c0.9-2.9-0.2-6-2.6-7.8c-6.9-5.9-12.2-13.5-15.3-22.1l-0.4-0.8
		c-2.3-5.4-5.3-10.6-8.8-15.3C225.4,1.1,208.5,0,194.7,0h-18c-17.6,0-37.1,0.6-47.1,8.1c-15.2,14.5-28.7,30.5-40.5,47.8
		c-10.9,2-21.6,4.8-32.1,8.2c-2.4,1-4.1,3.1-4.5,5.6C49.1,90.5,1.2,390.3,0.4,396C-1.8,410.6,5.4,416,11.8,418L11.8,418z M170.3,534
		c-36.9,0-73.4-8.3-106.7-24.2l1-12.3c5.6-72.1,12-153.5,47.3-217.4l0,0c19.1,4.6,38.7,6.8,58.4,6.7c6.6,0,13.5,0,20.7-0.8v247.1
		C184.1,533.7,177,534,170.3,534L170.3,534z M71.8,71.2c4.1-1.1,9.2-2.2,15.3-3.6c0.5,19.7,8.1,57.5,34.6,68.9l0,0
		c3,1.3,6.1,1.9,9.4,1.8c14.3,0,32.9-10.4,43.8-18.6c4.7,2.2,9.9,3.3,15.1,3.2h0.8v135c-26,2.2-52.2,0.4-77.6-5.6
		c-2-15.6-6.5-30.7-13.4-44.8l-8.1-16.8v0.8l0,0c-4.6-12.8-5.8-26.6-3.5-40C90.2,140,90.6,91.2,71.8,71.2L71.8,71.2z M252,151.3
		c2.3,13.1,1.1,26.6-3.2,39.2l-8,16.8c-6.9,14.1-11.5,29.2-13.4,44.8c-8.3,2-16.7,3.6-25.2,4.7v-135c2.5-0.4,5-1,7.3-1.5
		c25-5.6,39.8-32,47.7-52.4c4.5,1.1,8.5,2.1,11.7,3C249.8,90.4,249.8,140,252,151.3L252,151.3z M243.1,231.2
		c2.7,19.4,6.8,48.1,10.9,76.6l0,0c-4.7-12.3-10.3-24.3-16.8-35.8C237.2,258.2,239.2,244.5,243.1,231.2L243.1,231.2z M226.3,269.1
		c-36.7,8.5-74.9,8.5-111.6,0v-5.2c18.4,4.2,37.2,6.2,56,6.2s37.6-2.1,56-6.3c-0.6,1.8-0.6,3.6-0.7,5.3H226.3z M97.5,231.2
		L97.5,231.2c4,13.2,6,27,6,40.8c-6.5,11.5-12.1,23.4-16.8,35.7c3.8-28.2,7.8-56.7,10.6-76.5H97.5z M217.9,529.4L202,481.9v-197
		c8.9-1.1,17.8-2.8,26.6-4.9c35.3,63.8,41.7,145.1,47.3,217.1l1.1,12.7C258.2,518.8,238.4,525.4,217.9,529.4L217.9,529.4z
		 M329.1,397.4c1.1,7.7-1.2,9.1-3.8,10l0,0c-12.1,2.9-24.4,4.7-36.7,5.6h-0.7c-5.2,0-6.6,0-8.8-12.3c-2.6-13.7-21.8-149-27.6-190
		c11.1-18.5,15.1-40.4,11.2-61.6c-2.2-12.5-0.4-57.6,14.4-71.3C285.7,127,328.9,395.2,329.1,397.4L329.1,397.4z M98.6,61.9
		c11.1-16.2,23.8-31.2,38-44.8c7.8-5.6,29.7-5.6,40.3-5.6h18c10.4,0,24.9,0.7,30.1,7.2l0,0c3,4.1,5.5,8.5,7.4,13.1l0.4,0.8l0,0
		c3.6,9.1,9.1,17.4,16.2,24.2c-6.2,18.6-19.3,47.5-42.3,52.8c-5.5,1.4-11.1,2.3-16.8,2.5c-4.4,0.1-8.8-1-12.5-3.4l-3.4-2.2
		c-19.8-12.3-24.5-21.8-24.8-28c-0.1-4.5,2-8.9,5.6-11.6c0.7-0.4,1.5-0.8,2.3-1c23.9-7.1,40.3-11.6,48.8-13.5
		c21.9-4.8,24.2-15.5,23.6-21.4c-1.1-12.1-19-14.8-25.5-14.8c-9.6,0-41.7,0-51.1,1.2c-7.4,0.9-17.3,3.2-22,9.2l0,0
		c-2.8,3.5-3.6,8.2-2.1,12.4c2.5,9.1,7.6,17.2,14.6,23.5c-3.9,4.7-5.9,10.7-5.6,16.8c0.6,11.6,9.5,23.2,26.5,34.6
		c-9.9,6.7-23.7,13.7-33.6,13.7l0,0c-1.7,0.1-3.3-0.3-4.9-0.9C103.4,116.5,97.2,77,98.6,61.9L98.6,61.9z M154.3,55l-1.8,0.6
		c-6.1-5.1-10.6-12-12.7-19.8c-0.4-1.6,0-2,0-2.4c4.2-3.2,9.3-5,14.6-5c6.9-0.8,30.2-1.1,49.7-1.1c6.9,0,14.2,3,14.4,4.6
		c0.5,5.6-10.2,8.4-14.9,9.4c-8.8,2-25.5,6.6-49.6,13.7L154.3,55z M11.3,397.4c0.7-4.8,43.3-271.9,51-319.6
		c15.1,13.4,16.8,59,14.8,71.6l0,0c-3.9,21.4,0.3,43.4,11.7,61.9C84,245.5,64,386.7,61.4,400.9c-2.3,12.3-3.7,12.3-8.8,12.3h-0.7
		c-12.4-0.9-24.7-2.7-36.7-5.6C12.4,406.5,10.3,405.2,11.3,397.4L11.3,397.4z"/>
	<path d="M181.3,166.6c0,3.8-3.1,6.9-6.9,6.9s-6.9-3.1-6.9-6.9s3.1-6.9,6.9-6.9S181.3,162.8,181.3,166.6"/>
	<path d="M181.3,220c0,3.8-3.1,6.9-6.9,6.9s-6.9-3.1-6.9-6.9c0-3.8,3.1-6.9,6.9-6.9S181.3,216.2,181.3,220"/>
	<path d="M181.3,326.9c0,3.8-3.1,6.9-6.9,6.9s-6.9-3.1-6.9-6.9s3.1-6.9,6.9-6.9S181.3,323.1,181.3,326.9"/>
	<path d="M181.3,380.4c0,3.8-3.1,6.9-6.9,6.9s-6.9-3.1-6.9-6.9s3.1-6.9,6.9-6.9S181.3,376.6,181.3,380.4"/>
	<path d="M181.3,433.9c0,3.8-3.1,6.9-6.9,6.9s-6.9-3.1-6.9-6.9s3.1-6.9,6.9-6.9S181.3,430.1,181.3,433.9"/>
	<path d="M143.5,166.6c0,3.8-3.1,6.9-6.9,6.9s-6.9-3.1-6.9-6.9s3.1-6.9,6.9-6.9S143.5,162.8,143.5,166.6"/>
	<path d="M143.5,220c0,3.8-3.1,6.9-6.9,6.9s-6.9-3.1-6.9-6.9c0-3.8,3.1-6.9,6.9-6.9S143.5,216.2,143.5,220"/>
	<path d="M143.5,326.9c0,3.8-3.1,6.9-6.9,6.9s-6.9-3.1-6.9-6.9s3.1-6.9,6.9-6.9S143.5,323.1,143.5,326.9"/>
	<path d="M143.5,380.4c0,3.8-3.1,6.9-6.9,6.9s-6.9-3.1-6.9-6.9s3.1-6.9,6.9-6.9S143.5,376.6,143.5,380.4"/>
	<path d="M143.5,433.9c0,3.8-3.1,6.9-6.9,6.9s-6.9-3.1-6.9-6.9s3.1-6.9,6.9-6.9S143.5,430.1,143.5,433.9"/>
</g>
</svg>
