<?xml version="1.0" encoding="utf-8"?>
<!-- Generator: Adobe Illustrator 26.0.0, SVG Export Plug-In . SVG Version: 6.00 Build 0)  -->
<svg version="1.1" id="katman_1" xmlns="http://www.w3.org/2000/svg" xmlns:xlink="http://www.w3.org/1999/xlink" x="0px" y="0px"
	 viewBox="0 0 543.4 560.3" style="enable-background:new 0 0 543.4 560.3;" xml:space="preserve">
<g>
	<path d="M543.2,483.9l-10.4-42.4l7.1-6.1c2.4-2.1,3.5-5.3,2.9-8.5l-58.9-272.1c-7.7-35.1-31.4-64.5-64.1-79.5l-45.4-20.7L349.7,4.8
		c-1.6-2.9-4.6-4.8-7.9-4.8h-140c-3.3,0.1-6.3,1.9-7.8,4.8l-24.9,49.7l-45.4,20.7c-32.6,15.1-56.3,44.5-64.1,79.5L0.7,426.9
		c-0.7,3.1,0.4,6.4,2.9,8.5l7.1,6.1L0.3,483.9c-0.8,3.2,0.3,6.6,2.8,8.8L36.2,521c2.1,1.8,4.9,2.5,7.7,1.9c2.7-0.6,4.9-2.5,6.1-5
		l13.5-31l1.4,1.2c2.1,1.8,4.9,2.5,7.6,1.9c2.7-0.6,5-2.5,6.1-5l39.6-91.2c-3.4,47.5-8.6,86.4-11,102.6l0,0c-0.7,5,0.8,10.1,4.1,14
		c3.3,3.8,8.2,6.1,13.2,6.1h7.3v35c0,2.3,0.9,4.5,2.6,6.2s3.9,2.6,6.2,2.6h262.5c2.3,0,4.5-0.9,6.2-2.6s2.6-3.9,2.6-6.2v-35h7.3
		c5.1,0,9.9-2.2,13.2-6.1s4.8-9,4.1-14c-2.4-16.2-7.7-55.1-11-102.6l39.6,91.2c1.1,2.5,3.4,4.4,6.1,5c2.7,0.6,5.5-0.1,7.7-1.9
		l1.4-1.2l13.5,31l0,0c1.1,2.5,3.4,4.4,6.1,5c2.7,0.6,5.5-0.1,7.7-1.9l33.1-28.3C542.9,490.5,544,487.1,543.2,483.9L543.2,483.9z
		 M350.6,516.3v26.2h-26.2v-26.2H350.6z M306.8,542.5h-26.2v-26.2h26.2V542.5z M219.3,516.3v26.2h-26.2v-26.2H219.3z M236.8,516.3
		H263v26.2h-26.2V516.3z M280.6,124.1c0-21.4,7.9-42.1,22.1-58.1l37.1-41.8l17.5,35L280.6,129V124.1z M271.8,82.4
		c-4.4-10.2-10.4-19.7-17.8-28l-32.8-36.9h101l-32.8,36.8C282.2,62.7,276.2,72.2,271.8,82.4L271.8,82.4z M203.8,24.2L241,66l0,0
		c14.2,16,22.1,36.7,22.1,58.1v4.9l-76.7-69.7L203.8,24.2z M38.6,499.9l-20-17.1l7-28.6l23.9,20.5L38.6,499.9z M67.2,466.9
		l-48.3-41.4l57.8-267.1c2.2-9.9,5.9-19.3,11-28c29.7,49.4,35.3,136,33,213.5L67.2,466.9z M98.7,115.2L98.7,115.2
		c8.9-10.2,19.9-18.4,32.2-24.1l43-19.5l89.2,81v346.1H124.5C134.5,431.3,161.4,207.9,98.7,115.2L98.7,115.2z M149.3,516.2h26.2
		v26.2h-26.2V516.2z M394.3,542.5h-26.2v-26.2h26.2V542.5z M280.5,498.8V152.6l89.1-81l43,19.5c12.3,5.7,23.3,13.9,32.2,24.1
		c-62.6,92.7-35.7,316.2-25.8,383.5L280.5,498.8z M422.9,344c-2.3-77.5,3.3-164.1,33-213.5c5.1,8.7,8.9,18.1,11.1,27.9l57.8,267.1
		l-6.6,5.7c-0.1,0.1-0.2,0.2-0.3,0.2l-41.4,35.4L422.9,344z M505,499.9l-10.9-25.1l23.9-20.5l7,28.6L505,499.9z M315.5,192.5v8.8
		c0,4.8-3.9,8.8-8.8,8.8s-8.8-3.9-8.8-8.8v-8.8c0-4.8,3.9-8.8,8.8-8.8S315.5,187.7,315.5,192.5z M315.5,280v8.8
		c0,4.8-3.9,8.8-8.8,8.8s-8.8-3.9-8.8-8.8V280c0-4.8,3.9-8.8,8.8-8.8S315.5,275.2,315.5,280z M315.5,367.5v8.8
		c0,4.8-3.9,8.8-8.8,8.8s-8.8-3.9-8.8-8.8v-8.8c0-4.8,3.9-8.8,8.8-8.8S315.5,362.7,315.5,367.5z M315.5,455v8.8
		c0,4.8-3.9,8.8-8.8,8.8s-8.8-3.9-8.8-8.8V455c0-4.8,3.9-8.8,8.8-8.8S315.5,450.2,315.5,455z M384.7,424.8c2.2,4.3,0.4,9.6-3.9,11.7
		c-4.3,2.2-9.6,0.4-11.7-3.9l-26.3-52.4c-1-2.1-1.2-4.5-0.5-6.7s2.3-4,4.4-5.1c4.3-2.2,9.6-0.4,11.7,3.9L384.7,424.8z M200.9,380.2
		l-26.2,52.5l0,0c-2.2,4.3-7.4,6.1-11.7,3.9s-6.1-7.4-3.9-11.7l26.2-52.5c2.2-4.3,7.4-6.1,11.7-3.9
		C201.3,370.6,203.1,375.8,200.9,380.2L200.9,380.2z M162.9,261.6l35,17.5c2.5,1.2,5.4,1.2,7.8,0l35-17.5c3-1.5,4.9-4.5,4.8-7.9
		v-61.2c0-2.3-0.9-4.5-2.6-6.2s-3.9-2.6-6.2-2.6h-70c-4.8,0-8.8,3.9-8.8,8.8v61.2C158,257.1,159.9,260.1,162.9,261.6L162.9,261.6z
		 M201.8,261.5l-26.2-13.1v-20.8h52.5v20.8L201.8,261.5z M228,201.2v8.8h-52.5v-8.8H228z"/>
</g>
</svg>
