<?xml version="1.0" encoding="utf-8"?>
<!-- Generator: Adobe Illustrator 26.0.0, SVG Export Plug-In . SVG Version: 6.00 Build 0)  -->
<svg version="1.1" id="katman_1" xmlns="http://www.w3.org/2000/svg" xmlns:xlink="http://www.w3.org/1999/xlink" x="0px" y="0px"
	 viewBox="0 0 366.7 377.5" style="enable-background:new 0 0 366.7 377.5;" xml:space="preserve">
<style type="text/css">
	.st0{display:none;fill:#FFFFFF;}
</style>
<g id="katman_2_00000074410683099946266980000003462657633116896160_">
	<g id="katman_1-2">
		<path d="M284.3,311.6c-0.4,0.1-0.6,0.2-0.6,0.2c-2,8.2-8.1,10.6-15.6,12.1c-18.7,3.7-37.3,8.1-56,12.1c-8,1.7-13.1-2-14.1-10.1
			c-0.6-4.8-0.9-9.7-1.4-14.9h-26.4c-0.4,4.2-0.8,8.4-1.1,12.6c-0.9,10.8-5.6,14.3-16.2,12l-59.6-12.9c-4.4-1-7.4-3.3-8.9-7.7
			c-0.4-1.1-0.9-2.2-1.7-4.4c-1.8,8.7-3.5,16.2-4.8,23.9c-1.2,7.1-3.4,14.1-6.7,20.5c-2.6,5.2-4.8,10.7-7.3,16
			c-1.7,4.1-5.7,6.6-10.1,6.4c-12.9,0-25.8,0.1-38.6,0c-6.1,0-9.4-3.5-11.1-9.6c-5.1-19.2-4.3-38.6-2.6-58
			c2.2-24.5,3.9-49.1,6.5-73.6c5.3-49.1,11.7-97.9,25.4-145.6c5.3-18.5,14.7-34,31.5-43.9c7.5-4.4,15.8-7.4,24-10.4
			c10.7-4,21.7-7.5,32.6-11.1c2.2-0.7,3.1-1.7,3.1-4.2c0-7.8,2.2-10.6,9.7-13C167-2.6,199.9-2.6,232.8,8c7.2,2.3,9.4,5.4,9.5,12.9
			c0,2.4,0.7,3.4,3,4.2c14.7,4.9,29.3,9.9,43.8,15.2c21,7.8,35.1,22.5,42.1,43.8c8.5,25.6,13.9,51.8,17.8,78.4
			c4.4,31,8.5,62.1,11.8,93.3c2.9,27.6,5,55.3,6,83c0.4,10.5-2.8,21.2-4.9,31.7c-1,4.6-5,6.8-9.7,6.8c-13.1,0.1-26.2,0.1-39.4,0
			c-4.9,0-7.9-2.8-10.2-7c-8.8-16.7-14.6-34.8-17.2-53.5C285.1,315.2,284.7,313.5,284.3,311.6z M161.7,302.7
			c-11.1-2.1-21.7-4.2-32.3-6.2c-13.2-2.5-26.5-5-39.7-7.6c-3.9-0.8-5.6-3.9-3.9-6.8s4.1-2.4,6.6-1.9c16.2,3.1,32.4,6.2,48.5,9.4
			c7.1,1.4,14.1,2.7,21.4,4c0.2-0.8,0.4-1.6,0.6-2.5c2.3-25.8,4.7-51.5,7-77.3c2.4-26.5,4.9-53,7.1-79.5c0.8-8.9,1.2-17.9,1.1-26.9
			c-0.1-8-1.5-15.9-2-23.9c-0.2-3.1,0.1-6.2,0.9-9.2c0.6-2.2,0.1-3.2-1.8-4.1c-3.8-1.6-7.5-3.3-11.3-5
			c-15.9-6.9-31.1-14.5-38.3-32.5C108.8,38.9,92,44.4,75.8,51c-6.2,2.5-11.7,7.1-16.8,11.6c-9.6,8.5-14.1,20-17.5,32.1
			c-13.9,49.1-20.1,99.6-25.3,150.1c-2.7,25.7-4,51.6-6.6,77.3C8,337,9.6,351.3,12.7,365.6c0.5,2.1,1.3,2.9,3.5,2.9
			c12.1-0.1,24.3,0,36.4-0.1c1,0,2.5-0.4,2.9-1.1c3-6.2,5.8-12.5,8.8-19.2H17.8c-4.4,0-6.4-1.5-6.5-4.5s1.9-4.5,6.3-4.5h50
			c2.3-11.8,4.4-23.3,7-34.8c1.6-7,2.3-13.6-1.2-20.3c-0.5-1.3-0.7-2.6-0.6-4c-1.7-41.2-3.8-82.4-5-123.6
			c-0.5-17.8-2.8-34.8-11.2-50.7c-1.9-3.6-3.2-7.6-4.8-11.4c-1.2-2.8-1.4-5.4,1.7-7.1c2.6-1.3,5.1,0,6.6,3.6
			c3.8,8.8,7.7,17.6,11.1,26.6c2,5,3.4,10.2,4,15.5c1.2,14.7,1.7,29.4,2.3,44.2c1.5,33.8,2.9,67.7,4.3,101.5c0,1.4,0.3,2.7,0.7,4
			c3.2,9.3,6.4,18.6,9.9,27.9c0.8,1.6,2.1,2.7,3.8,3.2c10.8,2.6,21.7,4.9,32.5,7.3c8.9,2,17.8,4,26.7,5.8c1.5,0.3,3.8,1.4,4.1-1.4
			C160.4,318,161,310.5,161.7,302.7z M241.1,32.8c-6.4,13.3-13.2,20.2-27.2,27.2c-6.9,3.5-14.1,6.3-21.1,9.6
			c-6.3,2.9-8.4,6.7-7.8,13.4c1.7,19.3,3.5,38.6,5.3,57.9c4.3,46.9,8.5,93.8,12.7,140.8c0.4,3.9,0.8,7.8,1.2,11.9
			c1.5-0.2,2.4-0.4,3.4-0.5l66.6-12.9c4.1-0.8,6.6,0.3,7.2,3.3s-1.3,4.8-5.6,5.6c-10.4,2-20.8,4-31.2,6l-39.6,7.7
			c0.7,7.7,1.3,15.1,2,22.5c0.2,2.5,1.9,2.2,3.6,1.9c20.1-4.4,40.2-8.8,60.3-13.3c1.5-0.6,2.8-1.7,3.4-3.2c1.9-4.7,3.4-9.6,5.2-14.4
			c3.3-8.6,5.7-17.3,6-26.8c1.3-39,3-77.9,4.7-116.9c0.3-7.6-0.2-15.6,1.9-22.7c4.2-13.7,9.9-26.8,15.2-40.2c1-2.5,3.2-3.1,5.6-2.3
			c2.7,0.8,3.5,3.5,2.1,6.9c-3.5,8.3-7.4,16.4-10.4,24.9c-2.3,6.7-4.4,13.7-4.8,20.6c-2.3,46.6-4.1,93.2-6.1,139.7
			c0,2.4-0.5,4.7-1.4,6.9c-2.2,4.5-2.5,9.7-1,14.5c0.3,1.2,0.6,2.4,0.8,3.7c2.3,11.5,4.6,23,6.9,34.7h42.6c3.1,0,6.2,0,9.4,0
			c2.2-0.2,4.2,1.5,4.3,3.8c0,0.1,0,0.3,0,0.4c0.1,2.7-1.4,4.2-3.9,4.6c-1.1,0.1-2.2,0.2-3.4,0.1h-45.7c3,6.6,5.7,12.6,8.5,18.6
			c0.6,1,1.7,1.6,2.9,1.7c12.4,0.1,24.8,0.1,37.1,0c0.9,0,2.5-1,2.7-1.8c1.6-9.3,4.4-18.7,4.2-28c-0.3-18.7-1.8-37.5-3.7-56.1
			c-4-38-8.3-76-13.3-113.9c-3.5-27.5-9.4-54.7-17.8-81.1c-5.4-16.7-15.7-29.6-31.8-36.4S257.9,38.9,241.1,32.8z M194.6,58.9
			c10.6-4.5,20.8-8.4,28.9-15.9c6.5-6,10.7-13.2,9.7-22.5c-0.3-1.6-1.3-2.9-2.7-3.7c-31.5-10.5-63-10.5-94.5,0
			c-1.2,0.4-2.5,2.3-2.6,3.7c-0.8,6.4,1.2,12.1,5,17.2c8.5,11.2,21,15.8,33.6,21.2c-0.2-11.1-2.5-20.7-11.6-27.3
			c-3.4-2.5-6.9-4.9-10.4-7.2c-3-2-4-4.4-2.5-6.8s4.1-2.8,7.2-0.8c3.3,2,6.4,4.4,9.7,6.4c1.3,0.8,2.9,1.2,4.4,1.2
			c7.2,0,14.5-0.9,21.7-0.2c6.7,0.6,12.5,0,17.4-4.9c1.4-1.1,2.8-2,4.4-2.8c2.5-1.5,5-1.5,6.5,1.1s0.6,4.9-2,6.6
			c-3.6,2.4-7.2,4.9-10.8,7.4C197,38.2,194.8,47.8,194.6,58.9z M193.6,277.8c-3.3-36.6-6.6-72.9-9.8-109.2h-0.9
			c-3.3,36.4-6.6,72.8-9.9,109.3L193.6,277.8z M195.7,301.5l-1.3-14.2h-22.2c-0.4,4.9-0.8,9.5-1.2,14.2H195.7z M174.8,33
			c1.4,3.4,3.2,6.4,3.9,9.6c1.2,6.2,1.6,12.5,2.6,18.8c0.2,1.1,1.3,2.1,2,3.1c0.8-0.9,2.2-1.9,2.2-2.8c0-9.9,1.4-19.5,6.8-28.7
			H174.8z"/>
		<path class="st0" d="M174.8,33h17.4c-5.4,9.2-6.8,18.8-6.8,28.7c0,0.9-1.5,1.9-2.2,2.8c-0.7-1-1.8-2-2-3.1
			c-0.9-6.2-1.4-12.6-2.6-18.8C178,39.4,176.2,36.4,174.8,33z"/>
		<path d="M90.8,258.5c2.3-16.4,4.7-32.8,7-49.2c0.4-3,1.8-4.9,5.1-4.8c2.8,0.1,4.4,2.5,3.9,6.1c-1.5,11.2-3.2,22.5-4.8,33.7
			c-0.8,5.6-1.6,11.1-2.5,16.6c-0.2,2.2-2.1,3.9-4.4,3.8c-0.1,0-0.3,0-0.4-0.1c-2.7-0.3-4.1-2.2-4-5
			C90.7,259.3,90.8,258.9,90.8,258.5L90.8,258.5z"/>
		<path d="M259.9,210.5c-0.3-3.5,0.9-5.6,3.8-5.9s4.6,1.5,5,4.3c2.4,16.5,4.7,33.1,7,49.6c0.5,3.6-0.9,6-3.7,6.2
			c-3.5,0.2-4.8-2.1-5.2-5.1c-2.1-14.8-4.2-29.6-6.2-44.4C260.3,213.4,260,211.7,259.9,210.5z"/>
		<path d="M196.3,81c3.5-0.1,6.4,2.6,6.5,6c0,0.1,0,0.1,0,0.2c0.2,3.5-2.5,6.5-6,6.7c-3.5,0.2-6.5-2.5-6.7-6c0-0.1,0-0.3,0-0.4
			c-0.1-3.5,2.6-6.4,6.1-6.5C196.2,81,196.3,81,196.3,81z"/>
		<path d="M209.4,162.6c0,3.5-2.8,6.4-6.4,6.5c-3.4,0.1-6.3-2.5-6.5-6c0-0.1,0-0.2,0-0.3c-0.1-3.5,2.7-6.5,6.3-6.6
			C206.3,156.3,209.2,159.1,209.4,162.6z"/>
		<path d="M216.8,238.2c-0.1,3.6-3,6.4-6.6,6.3c-3.6-0.1-6.4-3-6.3-6.6s3-6.4,6.6-6.3C214,231.7,216.8,234.7,216.8,238.2
			L216.8,238.2z"/>
		<path d="M226.8,313.6c-0.1,3.5-3.1,6.3-6.6,6.2c0,0,0,0,0,0c-3.4,0-6.2-2.8-6.2-6.2c0-0.1,0-0.2,0-0.3c0.1-3.5,2.9-6.3,6.5-6.3
			c0,0,0.1,0,0.1,0C224,307.1,226.8,310.1,226.8,313.6z"/>
	</g>
</g>
</svg>
