<svg xmlns="http://www.w3.org/2000/svg" viewBox="0 0 384 376.83"><g id="katman_2" data-name="katman 2"><g id="katman_1-2" data-name="katman 1"><path d="M384,155.42c-2.48,10.52-9.39,17.15-18.64,22.07-6.82,3.63-13.27,8-19.94,11.9-14.85,8.74-31.18,4-39-11.35-8.46-16.71-16.77-33.49-25.14-50.24a10.15,10.15,0,0,0-2.72-3.66c-.35,2.57-.87,5.13-1,7.71A61.29,61.29,0,0,0,286.13,167a440.36,440.36,0,0,1,37.28,82.82,399.3,399.3,0,0,1,19.11,93.33c1.42,17.5-12.46,33.25-30,33.49-20.49.29-41,.24-61.49,0-15.38-.16-28.33-12.46-29.9-27.8-.23-2.23-.5-4.45-.77-6.85H163.74c-.55,3.75-.8,7.39-1.64,10.88a30.89,30.89,0,0,1-29.91,23.82q-29.81.17-59.61,0a30.92,30.92,0,0,1-30.86-35c2.26-17.31,5.18-34.55,7.82-51.81.12-.74.35-1.46.54-2.19,1.08-4,3.64-5.76,7-4.88,3.2.84,4.52,3.49,3.87,7.37-2.48,14.76-5.08,29.52-7.29,44.33a51.92,51.92,0,0,0-.43,14.87,18.94,18.94,0,0,0,18.89,16.07q30.19.18,60.37,0a19.28,19.28,0,0,0,19-17.33c1.46-16.55,2.51-33.14,3.69-49.72q3.27-46,6.49-92c1.65-23.81,3.85-47.59,1.85-71.51a309,309,0,0,0-8.5-51.31q-8-31.18-16.23-62.32c-1.83-7-5.48-9.81-12.58-9.83q-11.25,0-22.5,0c-7.66,0-12.46,4.85-12.16,12.51a208.72,208.72,0,0,0,17.65,77.31c4.4,9.88,8,19.93,8.46,30.86.69,15-3.29,28.82-10.79,41.82a423.45,423.45,0,0,0-37.45,85.18c-.71,2.26-1.35,4.54-2.07,6.8-1.34,4.25-3.91,6-7.37,5.08s-4.8-4-3.44-8.21c3.21-9.85,6.34-19.73,9.93-29.44A430.89,430.89,0,0,1,97.84,167c7.41-12.8,10.23-26.44,7.89-41.08-.09-.58-.27-1.13-.66-2.7-1,1.94-1.67,3-2.24,4.19Q90.44,152.24,78.06,177c-8.32,16.64-24.5,21.36-40.45,11.79-6.31-3.79-12.45-7.92-19-11.35C9.37,172.58,2.47,166,0,155.42v-9c2.4-4.73,4.37-9.74,7.26-14.15,23.61-36,47.4-72,71.07-107.94a17.42,17.42,0,0,0,2.37-5.76C83.08,7.48,91.72.23,103,.15c8.24-.06,16.49-.22,24.73.09,3.27.13,7,.67,9.64,2.37,4.21,2.71,8.5,3.11,13.13,2.88,1.5-.07,3,0,4.5,0a28.14,28.14,0,0,1,27,19.41c1.71,5,3.18,10,4.78,15s3.19,9.83,5.09,15.68c.77-2.07,1.22-3.17,1.58-4.29,2.78-8.67,5.41-17.39,8.35-26,3.76-11,11.45-17.69,23-19.36,4.16-.6,8.48-.11,12.7-.5,2.35-.21,4.63-1.2,6.94-1.87,3.91-1.12,7.76-3,11.72-3.24,8.34-.5,16.73-.22,25.1-.13,10.85.11,19.53,7.44,21.87,18a19.82,19.82,0,0,0,2.68,6.44c22.35,34,44.87,67.93,67.14,102,4.11,6.29,7.34,13.17,11,19.78ZM164.27,330.22h55.26c0-1.45.07-2.56,0-3.67q-2.15-30.85-4.34-61.71c-1.63-22.94-3.2-45.88-5-68.81-1.94-25.34-3-50.66.43-76,.59-4.32,2.9-6.71,6.29-6.33s5.35,3.24,4.92,7.5c-.46,4.47-1,8.94-1.38,13.42-2.18,24,.13,48,1.8,71.89q3.18,45.81,6.47,91.62c1.18,16.58,2.22,33.17,3.67,49.73a19.32,19.32,0,0,0,19.23,17.53q30,.19,60,0a19.89,19.89,0,0,0,19.64-21.81,390.58,390.58,0,0,0-17.54-87.2,428.29,428.29,0,0,0-37.26-83.64,73.1,73.1,0,0,1-10.21-40.84c.51-10.8,4.05-20.72,8.39-30.5a209.25,209.25,0,0,0,17.72-77.3c.32-7.86-4.45-12.71-12.31-12.74-7.37,0-14.75,0-22.12,0s-11,2.75-12.83,10c-6.48,25.27-12.88,50.55-19.42,75.8-.43,1.69-1.43,4-2.77,4.51a8.21,8.21,0,0,1-6.16-.18c-2.68-1.36-2.62-4.23-1.92-7q9.38-36.82,18.71-73.66c.31-1.26.56-2.54.84-3.85-12.95-1.21-19.08,2.83-22.87,14.73-3,9.39-5.93,18.8-9,28.16-1.86,5.64-6.1,8.43-11.66,7.88-4.9-.49-7.92-3.34-9.4-7.93-3.28-10.22-6.44-20.47-9.82-30.66-3.18-9.58-12-14.29-22-11.89.19,1,.35,1.94.6,2.89C154,34.82,157.57,49.5,161.66,64c9.31,33.15,15.24,66.76,13.79,101.31-.83,19.6-2.39,39.17-3.73,58.74-1.58,23.19-3.28,46.38-4.91,69.56C166,305.72,165.13,317.8,164.27,330.22ZM302.52,40.09a232.76,232.76,0,0,1-17.21,65.42,7,7,0,0,0,.14,5.13c4.79,10,9.81,19.91,14.78,29.83a29.4,29.4,0,0,0,1.61,2.48l49.05-29.59Zm-221.09.07c-16.48,25-32.32,49-48.32,73.21L82.27,143A9.37,9.37,0,0,0,83,141.9c5.35-10.71,10.75-21.39,16-32.16a6.05,6.05,0,0,0-.22-4.13c-2.09-5.74-4.52-11.35-6.55-17.11A225.47,225.47,0,0,1,81.43,40.16Zm-54.6,82.57c-4.81,7.47-9.82,14.48-14,21.94-3.72,6.65-1.31,14.93,5.23,19.1q13.71,8.76,27.86,16.83c6.77,3.88,15.65,2.05,19.6-4.46,4.43-7.28,8-15.12,12-22.88Zm279.76,30.49c3.73,7.42,7.09,14.65,10.94,21.61A14.83,14.83,0,0,0,338,180.65c9.44-5.34,18.72-11,27.87-16.8,6.12-3.89,9-11.43,5.89-17.65-4.12-8.14-9.51-15.63-14.43-23.52Z"/></g></g></svg>