<svg xmlns="http://www.w3.org/2000/svg" viewBox="0 0 381.09 408.22"><g id="katman_2" data-name="katman 2"><g id="katman_1-2" data-name="katman 1"><path d="M169,408.22c-8.35-.51-16.72-.87-25.05-1.56-17.18-1.4-34-4.41-49.76-11.8-4.21-2-6-4.62-5.86-9.25A443.75,443.75,0,0,1,96.79,312c5.63-29,12.46-57.66,18-86.61,1.35-7,.49-14.62-.43-21.81-1.62-12.64-4.06-25.17-6.17-37.75a16.35,16.35,0,0,0-.74-2.1c-.75,1.53-1.27,2.49-1.71,3.48-8.29,18.28-13.06,37.55-16.68,57.22C80,274.2,70.54,324,61.22,373.71c-1.09,5.84-3.94,7.75-9.88,6.9q-21.31-3.06-42.64-6C1,373.52-1,370.87.45,363.36,17,280.62,33.24,197.83,50.21,115.19c3.48-17,9.5-33.42,14.45-50.08,2.25-7.57,7.67-12.37,14.71-15.29,11.88-4.93,23.91-9.53,35.81-14.43a12.56,12.56,0,0,0,4.95-3.57C125,25.67,129.89,19.5,134.24,13c5-7.49,12-11.56,20.62-11.9q29.47-1.17,59-1.09c6.56,0,13.19,1.39,19.66,2.74,4.93,1,8.76,4.2,11.79,8.34,5.1,7,10.26,13.92,15.6,20.72a12.56,12.56,0,0,0,4.95,3.57c11.06,4.5,22.16,8.94,33.33,13.15,10.48,3.95,16.09,11.77,19.5,22.09,8.45,25.53,14.4,51.69,19.63,78q21.42,107.72,42.42,215.5c1.24,6.33-.75,9.28-7.19,10.24-15,2.25-30,4.36-45,6.45-4.75.66-7.73-1.67-8.66-6.69-3.76-20.25-7.32-40.54-11.21-60.76-7.61-39.54-15.05-79.11-23.33-118.5-2.22-10.52-7.25-20.45-11-30.66l-1.08,0c-.93,3.89-2.11,7.73-2.73,11.67-1.52,9.71-2.51,19.52-4.23,29.19-2.72,15.24,2.26,29.44,5.1,44,6.08,31.16,12.32,62.3,17.56,93.61,2.39,14.23,2.52,28.85,3.72,43.29.35,4.32-1.64,6.93-5.49,8.69-16.2,7.38-33.41,10.39-51,12l-17,1.56ZM117,48.81c-9.25,3.71-17.88,7.48-26.73,10.64C80.93,62.78,76,69.32,73.81,78.7,64.89,117.53,55.17,156.18,47,195.17c-10,47.72-18.72,95.71-28,143.58-1.45,7.52-2.82,15.06-4.29,22.88l33.69,4.76a10.74,10.74,0,0,0,.64-1.58c8.81-47,17.43-94.07,26.53-141a420.77,420.77,0,0,1,10.75-43.63c3.56-11.65,8.77-22.8,13.51-34.06,1.14-2.72,1.25-5-.1-7.5-3.3-6.21-6.42-12.51-9.75-18.71-2.31-4.3-1.89-8,1.42-10.21s7.72-1.19,10.09,3.08c4,7.2,8.22,14.35,11.24,21.95,10.1,25.45,14.68,52.11,16.2,79.34.24,4.36.61,8.93-.37,13.1-9.74,41.13-18.85,82.38-24,124.39-1.16,9.46-1.8,19-2.7,28.74,1.77,0,2.94.1,4.08,0,14.92-1.58,28.9-6.08,41.38-14.44,21.89-14.67,35.26-35.05,35.88-61.61.94-40.29.41-80.62.37-120.93a5.11,5.11,0,0,0-2.36-3.52,110.88,110.88,0,0,1-49.44-61.46c-4.69-14-6.81-28.9-9.89-43.44C120.1,66.44,118.69,57.94,117,48.81Zm147.25-.26c-.51,2.39-.81,3.67-1.05,5-3.21,17-5.82,34.08-9.73,50.89-7.49,32.24-24.85,57.84-53.53,75.11-2.3,1.39-2.58,2.93-2.58,5.16q0,57.08,0,114.16a75.72,75.72,0,0,0,4.67,27.37c11.24,29.17,33.18,45.61,63,52.41,4.44,1,9,1.4,14.7,2.25-2.3-18.48-3.6-36-6.8-53.21-6.21-33.29-13.51-66.38-20.32-99.56a29.31,29.31,0,0,1-.68-5.89,262.64,262.64,0,0,1,8.81-64.63c4-15.65,9.6-30.69,18.46-44.31,1.15-1.78,3.08-4,4.86-4.19a10.25,10.25,0,0,1,7,2.25c2.35,2,1.87,5,.42,7.7-3.43,6.44-6.73,13-10.16,19.4-1.41,2.65-1.2,5-.1,7.87,6.41,16.71,14.59,33.1,18.36,50.42,10.16,46.73,18.42,93.87,27.4,140.85,1.82,9.49,3.5,19,5.31,28.89l33.85-4.82c-.17-1.3-.24-2.21-.41-3.11-3.6-18.79-7.08-37.6-10.84-56.36-11.63-58-23.09-116-35.22-173.83C315.78,109.52,310,91.1,305,72.5a14.83,14.83,0,0,0-8.74-10.24C285.85,57.71,275.34,53.29,264.23,48.55ZM190.51,334.82c-12.8,28.86-34.35,46.34-63.69,55.47,19.28,5.84,112.83,5.71,126.82-.22C224.69,381.05,203.29,363.51,190.51,334.82Zm-33-280.73a389.76,389.76,0,0,0,33.11,77.5,395.22,395.22,0,0,0,32.95-77.5ZM139.08,29.41C136.39,33,134.31,36,132,38.86a7.43,7.43,0,0,0-1.68,6.9c2.7,13.69,5.36,27.39,7.55,41.16,3.68,23,11.3,44.24,27.13,61.88,5.39,6,11.16,11.58,18.68,16.17,0-6.76,0-12.85,0-18.93a4.16,4.16,0,0,0-.87-2.15c-9.6-13.69-16.53-28.8-23-44.11-7.41-17.62-14.83-35.28-17.46-54.47C141.62,40.25,140.29,35.28,139.08,29.41ZM197.38,165c1.27-.75,1.85-1,2.35-1.4,19.14-14,32.62-32.35,38.43-55.2,5.39-21.21,8.71-42.94,12.9-64.44a3.9,3.9,0,0,0-.26-2.68c-2.73-3.84-5.62-7.56-9-12-1.67,9.14-2.59,17.39-4.74,25.3-8.51,31.45-20.86,61.3-38.43,88.87a6.92,6.92,0,0,0-1.21,3.25C197.31,152.51,197.38,158.36,197.38,165ZM150.29,15.39c1.67,8.49,3,15.78,4.64,23,.17.78,1.88,1.74,2.87,1.75q32.72.15,65.44,0c1,0,2.63-.72,2.77-1.36,1.66-7.47,3.08-15,4.74-23.42A323.34,323.34,0,0,0,150.29,15.39Z"/><path d="M169.92,196.89a6.72,6.72,0,0,1-6.72,6.87,6.74,6.74,0,0,1,.14-13.48A6.7,6.7,0,0,1,169.92,196.89Z"/><path d="M163.24,285.41a6.64,6.64,0,0,1-6.67-6.47,6.77,6.77,0,0,1,6.73-6.88,6.68,6.68,0,0,1,6.62,6.54A6.52,6.52,0,0,1,163.24,285.41Z"/><path d="M163.16,231.11a6.76,6.76,0,0,1,6.75,6.47,6.57,6.57,0,0,1-6.53,7,6.68,6.68,0,0,1-6.8-6.38A6.9,6.9,0,0,1,163.16,231.11Z"/><path d="M163.26,326.33a6.66,6.66,0,1,1,0-13.32,6.52,6.52,0,0,1,6.64,6.85A6.59,6.59,0,0,1,163.26,326.33Z"/><path d="M224.51,197a6.91,6.91,0,0,1-6.86,6.81,6.74,6.74,0,0,1,.26-13.48A6.86,6.86,0,0,1,224.51,197Z"/><path d="M217.36,285.4a6.5,6.5,0,0,1-6.19-7.25,6.62,6.62,0,0,1,7-6.06,6.72,6.72,0,0,1,6.28,6.9A6.65,6.65,0,0,1,217.36,285.4Z"/><path d="M217.66,244.57a6.58,6.58,0,0,1-6.52-7,6.76,6.76,0,0,1,6.76-6.46,7,7,0,0,1,6.62,6.69A6.76,6.76,0,0,1,217.66,244.57Z"/><path d="M217.74,313a6.66,6.66,0,0,1,6.75,6.8,6.73,6.73,0,0,1-6.66,6.52,6.59,6.59,0,0,1-6.69-6.83A6.5,6.5,0,0,1,217.74,313Z"/></g></g></svg>