<?xml version="1.0" encoding="utf-8"?>
<!-- Generator: Adobe Illustrator 26.0.0, SVG Export Plug-In . SVG Version: 6.00 Build 0)  -->
<svg version="1.1" id="katman_1" xmlns="http://www.w3.org/2000/svg" xmlns:xlink="http://www.w3.org/1999/xlink" x="0px" y="0px"
	 viewBox="0 0 504 428.7" style="enable-background:new 0 0 504 428.7;" xml:space="preserve">
<g>
	<path d="M56.2,294c-1.8-0.7-3.8,0.2-4.5,2l-1.2,3.2c-0.7,1.8,0.2,3.8,2,4.5c0.4,0.2,0.8,0.2,1.2,0.2c1.4,0,2.7-0.9,3.2-2.2l1.2-3.2
		C58.9,296.7,58,294.7,56.2,294L56.2,294z"/>
	<path d="M63.3,279.1c-1.8-0.7-3.8,0.2-4.5,2l-1.2,3.2c-0.7,1.8,0.2,3.8,2,4.5c0.4,0.2,0.8,0.2,1.2,0.2c1.4,0,2.7-0.9,3.2-2.2
		l1.2-3.2C66,281.8,65.1,279.8,63.3,279.1L63.3,279.1z"/>
	<path d="M70.4,264.2c-1.8-0.7-3.8,0.2-4.5,2l-1.2,3.2c-0.7,1.8,0.2,3.8,2,4.5c0.4,0.2,0.8,0.2,1.2,0.2c1.4,0,2.7-0.9,3.2-2.2
		l1.2-3.2C73.1,266.9,72.2,264.9,70.4,264.2L70.4,264.2z"/>
	<path d="M503.3,303.4l-117.5-242c-5.6-13.4-17.3-24-32.6-27.5l-28.3-6.6L301.8,2.2c-0.2-0.2-0.4-0.3-0.6-0.4
		c-0.4-0.3-0.8-0.6-1.2-0.9c-0.4-0.2-0.8-0.4-1.2-0.5c-0.3-0.1-0.5-0.3-0.7-0.3c-0.2-0.1-0.5,0-0.7,0S297,0,296.8,0h-89.4
		c-0.2,0-0.4,0.1-0.6,0.1s-0.5-0.1-0.7,0c-0.3,0.1-0.5,0.2-0.7,0.3c-0.4,0.1-0.8,0.3-1.2,0.5c-0.5,0.3-0.9,0.5-1.2,0.9
		c-0.2,0.2-0.4,0.2-0.6,0.4l-23.1,25.1L151,33.9c-15.3,3.6-27.1,14.2-32.6,27.6L0.7,303.4c-0.8,1.7-0.9,3.7-0.3,5.4
		c0.7,1.8,2,3.2,3.8,3.9l50.2,21.6c0.9,0.4,1.8,0.6,2.7,0.6c2.5,0,5-1.4,6.2-3.8l72.8-144.5c5.4,24.1,13.9,66.7,12.8,93.5
		c0,0.8,0.1,1.5,0.4,2.3c0,0.1-0.1,0.1-0.1,0.2l-8.9,22.4c-1,2.6-0.9,5.5,0.2,8c0.5,1.1,1.3,2.1,2.2,3c-0.4,0.7-0.6,1.5-0.7,2.3
		c-3.8,33.9-7.7,58.8-10.7,68.3c-2,6.5-1.2,13.6,2.3,19.4c3.5,5.9,9.3,10,16,11.4l51.1,10.3c3,0.7,6,1,9,1
		c16.9,0,32.6-10.4,38.7-26.8l3.8-10.1l3.8,10.1c6.1,16.3,21.9,26.8,38.7,26.8c2.9,0,5.9-0.3,8.9-1l51.2-10.4
		c6.7-1.3,12.5-5.5,16-11.4c3.5-5.8,4.3-12.9,2.3-19.4c-2.9-9.5-6.8-34.4-10.7-68.3c-0.1-0.8-0.4-1.6-0.8-2.3c0.9-0.9,1.6-1.8,2.2-3
		c1.2-2.5,1.3-5.4,0.2-8l-8.9-22.4c0-0.1-0.1-0.1-0.1-0.2c0.2-0.7,0.4-1.5,0.4-2.2c-1.1-26.8,7.3-69.3,12.8-93.5L441,331.1
		c1.2,2.4,3.6,3.8,6.2,3.8c0.9,0,1.9-0.2,2.7-0.6l50.2-21.6c1.7-0.8,3.1-2.2,3.8-3.9C504.2,307.1,504.1,305.1,503.3,303.4
		L503.3,303.4z M185.9,39.6c0.1-0.1,0.2-0.2,0.3-0.2c0.4-0.2,0.8-0.5,1.1-0.8c0.2-0.2,0.4-0.2,0.5-0.4l15.3-16.6l11.3,56.9
		c-0.3-0.3-0.6-0.7-1-0.9l-28.8-13.4L185.9,39.6z M213.6,83.8c0.7-0.4,1.2-1.1,1.4-1.9l16,81c-4.3-11.4-8.4-21.5-11.5-27.9
		c-9.7-20-20.7-33.8-25.9-39.7L213.6,83.8z M215.7,13.8h72.5L252,197.1L215.7,13.8z M288.9,81.9c0.3,0.8,0.7,1.5,1.4,1.9l19.9,11.4
		c-5.2,5.9-16.2,19.7-25.9,39.7c-3.1,6.4-7.2,16.6-11.5,27.9L288.9,81.9z M289.6,78.5l11.3-56.9l15.3,16.6c0.1,0.2,0.4,0.2,0.5,0.4
		c0.4,0.4,0.8,0.6,1.3,0.9c0.1,0,0.1,0.1,0.2,0.1l1.3,24.6l-28.7,13.4C290.2,77.8,289.9,78.2,289.6,78.5L289.6,78.5z M53.8,319.1
		l-37.5-16.2L117,95.6l14.1,70.2L53.8,319.1z M146.6,307.6l7.8-19.7l39.4,8.5l-6.5,19.1c-1.5,4.5-6.4,6.9-10.9,5.4l-27.8-9.2
		c-0.8-0.3-1.5-0.9-1.9-1.7C146.3,309.3,146.3,308.4,146.6,307.6L146.6,307.6z M235.3,397.2c-4.8,12.8-18.4,20.1-31.8,17.1
		l-51.2-10.4c-2.9-0.6-5.3-2.3-6.8-4.9c-1.5-2.5-1.8-5.4-1-8.2c4.3-13.8,8.7-48.8,11-69.4l18.7,6.2c1.6,0.5,3.2,0.8,4.9,0.8
		c6.5,0,12.6-4.1,14.8-10.5l7.8-22.8c0.3-0.9,0.2-2-0.3-2.8c-0.5-0.9-1.3-1.5-2.3-1.7l-36.8-8c0.2-0.6,0.4-1.1,0.4-1.7
		c1.7-41-16.8-112.8-17.5-115.5l-16-79.5c-3.5-17.5,7.4-34.5,24.8-38.5l25-5.8l-1.3,24.6l0,0c-0.1,1,0.4,2,1.1,2.6
		c0.3,0.2,0.5,0.5,0.9,0.6l0,0L204.5,81l-17.9,10.2c-0.9,0.5-1.6,1.5-1.7,2.5c-0.2,1.1,0.2,2.1,1,2.9c0.2,0.2,15.2,15.5,27.6,41.2
		c6.8,14.1,18.7,47.4,26.8,70.8l4.9,24.7v137.6L235.3,397.2z M357.3,307.6c0.3,0.8,0.3,1.7-0.1,2.5s-1,1.4-1.9,1.7l-27.8,9.2
		c-4.5,1.5-9.4-0.9-10.9-5.4l-6.5-19.1l39.4-8.5L357.3,307.6z M341.3,280.8c0,0.6,0.2,1.2,0.4,1.7l-36.8,8c-1,0.2-1.8,0.8-2.3,1.7
		c-0.5,0.9-0.6,1.9-0.3,2.8l7.8,22.8c2.2,6.5,8.3,10.5,14.8,10.5c1.6,0,3.3-0.3,4.9-0.8l18.7-6.2c2.3,20.7,6.8,55.7,11,69.4
		c0.9,2.8,0.5,5.7-1,8.3c-1.5,2.5-3.9,4.3-6.8,4.8l-51.3,10.4c-13.3,3-26.9-4.4-31.7-17.1l-9.8-26.2V233.3l4.9-24.7
		c8.1-23.4,20-56.8,26.8-70.8c12.4-25.6,27.4-41,27.6-41.2c0.8-0.8,1.1-1.8,1-2.9c-0.1-1.1-0.8-2-1.7-2.5L299.6,81l24.8-11.6l0,0
		c0.3-0.1,0.5-0.4,0.8-0.6c0.8-0.7,1.2-1.7,1.2-2.7l0,0l-1.3-24.6l25,5.8c17.4,4,28.3,20.9,24.8,38.5L359,164.9
		C358.1,168,339.6,239.8,341.3,280.8L341.3,280.8z M450.1,319.1l-77.3-153.4l14.1-70.2l100.7,207.4L450.1,319.1z"/>
	<path d="M445.8,298.4l1.2,3.2c0.5,1.4,1.8,2.2,3.2,2.2c0.4,0,0.8-0.1,1.2-0.2c1.8-0.7,2.7-2.7,2-4.5l-1.2-3.2
		c-0.7-1.8-2.7-2.7-4.5-2C446,294.7,445.1,296.7,445.8,298.4L445.8,298.4z"/>
	<path d="M438.7,283.5l1.2,3.2c0.5,1.4,1.8,2.2,3.2,2.2c0.4,0,0.8-0.1,1.2-0.2c1.8-0.7,2.7-2.7,2-4.5l-1.2-3.2
		c-0.7-1.8-2.7-2.7-4.5-2C438.9,279.8,438,281.8,438.7,283.5L438.7,283.5z"/>
	<path d="M431.6,268.7l1.2,3.2c0.5,1.4,1.8,2.2,3.2,2.2c0.4,0,0.8-0.1,1.2-0.2c1.8-0.7,2.7-2.7,2-4.5l-1.2-3.2
		c-0.7-1.8-2.7-2.7-4.5-2C431.8,264.9,430.9,266.9,431.6,268.7L431.6,268.7z"/>
	<path d="M225.6,285.6h7.4c3.8,0,6.9-3.1,6.9-6.9s-3.1-6.9-6.9-6.9h-7.4c-3.8,0-6.9,3.1-6.9,6.9S221.8,285.6,225.6,285.6z"/>
	<path d="M233,314.2h-7.4c-3.8,0-6.9,3.1-6.9,6.9s3.1,6.9,6.9,6.9h7.4c3.8,0,6.9-3.1,6.9-6.9S236.8,314.2,233,314.2z"/>
</g>
</svg>
