<?xml version="1.0" encoding="utf-8"?>
<!-- Generator: Adobe Illustrator 26.0.0, SVG Export Plug-In . SVG Version: 6.00 Build 0)  -->
<svg version="1.1" id="katman_1" xmlns="http://www.w3.org/2000/svg" xmlns:xlink="http://www.w3.org/1999/xlink" x="0px" y="0px"
	 viewBox="0 0 293.8 490.1" style="enable-background:new 0 0 293.8 490.1;" xml:space="preserve">
<g>
	<path d="M45.1,394.5H8.8c-4.8,0-8.8-3.9-8.8-8.8V355c0-4.8,3.9-8.8,8.8-8.8h37.8c2.3,0,4.5,0.9,6.2,2.6c1.6,1.6,2.6,3.9,2.6,6.2v22
		c0,2.1-0.7,4.1-2.1,5.7c0.4,1,0.6,2,0.6,3.1c0,2.3-0.9,4.5-2.6,6.2C49.7,393.6,47.5,394.5,45.1,394.5L45.1,394.5z M17.6,377h20.3
		v-13.3H17.6V377z"/>
	<path d="M46.6,363.7h-1.1c-4.8-0.6-8.2-4.9-7.6-9.7c0-1.3,15.1-122.5,18.1-150.6l-17-54.7c-1.4-4.6,1.2-9.5,5.8-10.9
		s9.5,1.2,10.9,5.8L73.2,200c0.2,1.2,0.2,2.3,0,3.5C70.7,227.4,55,354.8,54.8,356.1C54.4,360.3,50.9,363.6,46.6,363.7L46.6,363.7z"
		/>
	<path d="M115.2,490c-0.8,0.1-1.5,0.1-2.3,0C26,466.2,31.8,411.9,32,409.7l31.6-181.1l-7.1-23.1c-1.3-4.6,1.3-9.3,5.9-10.7
		c4.5-1.4,9.3,1.1,10.9,5.5l7.7,25.2c0.3,1.3,0.3,2.7,0,4L49.4,412c0,1.1-3.1,37.7,58.8,58c1.8-12,5.2-35,8.8-70
		c3.5-23.9,4.4-48.2,2.7-72.4v-3.1c0-5.1-11.5-207.4-17.5-313.7c-0.1-2.3,0.7-4.6,2.2-6.3c1.6-1.7,3.7-2.8,6-2.9
		c4.8-0.3,9,3.4,9.2,8.3c4.1,73.1,17.5,311.5,17.5,315v1.4c2,25.4,1.2,51-2.5,76.2c-6.1,53.6-10.7,79.5-10.9,80.6l0,0
		c-0.4,2.4-1.9,4.6-3.9,5.9C118.5,489.7,116.9,490.1,115.2,490L115.2,490z"/>
	<path d="M129.4,353c-4.2,0.1-7.9-2.9-8.8-7L74.3,125.9c-0.6-2.6,0.1-5.3,1.8-7.3l5.4-6.7l-2.9-1.4l0,0c-2.9-1.4-4.8-4.3-5-7.5
		l-2.9-62.6c0-4.7,3.7-8.5,8.3-8.8c2.3,0,4.5,0.9,6.2,2.6c1.6,1.6,2.6,3.9,2.6,6.2l2.7,57.4l8.1,3.9l0,0c2.1,1.1,3.7,3.1,4.3,5.4
		c0.6,2.3,0.3,4.8-0.9,6.9l-9.8,12.2l45.9,216.5c1,4.7-2,9.3-6.7,10.3L129.4,353z"/>
	<path d="M281.7,363.7c-4.8,0-8.8-3.9-8.8-8.8l-13-286.4c-0.2-3.2-2.3-5.9-5.3-6.8l-46.5-14.9c-1.3-0.5-2.6-1.2-3.6-2.2l-25.7-25.5
		l-31.9-1.6L115,19.2L89.7,44.7c-1,1-2.2,1.7-3.6,2.2L39.2,61.8c-3.1,0.9-5.2,3.6-5.2,6.8L20.9,355.3l0,0c0,2.3-0.9,4.5-2.6,6.2
		c-1.6,1.6-3.9,2.6-6.2,2.6c-4.8,0-8.8-3.9-8.8-8.8L16.4,68.6l0,0c0.2-5.1,2-10.1,5.1-14.1c3.1-4.1,7.4-7.1,12.4-8.6l44.9-14.3
		L105,5.4l0,0c1.5-1.5,3.6-2.4,5.8-2.5L146.9,0h0.9l35.8,1.8c2.2,0.1,4.2,1,5.8,2.5l26.2,26.2l44.9,14.3c4.9,1.5,9.2,4.5,12.4,8.6
		c3.1,4.1,4.9,9,5.1,14.1l13.1,286.7c0,4.7-3.7,8.5-8.3,8.8L281.7,363.7z"/>
	<path d="M285,394.5h-36.3c-4.8,0-8.8-3.9-8.8-8.8c0-1.1,0.2-2.1,0.6-3.1c-1.4-1.6-2.1-3.6-2.1-5.7V355c0-4.8,3.9-8.8,8.8-8.8H285
		c2.3,0,4.5,0.9,6.2,2.6s2.6,3.9,2.6,6.2v30.8c0,2.3-0.9,4.5-2.6,6.2C289.5,393.6,287.3,394.5,285,394.5L285,394.5z M255.9,377h20.3
		v-13.3h-20.3V377z"/>
	<path d="M247.2,363.7c-4.4,0-8.2-3.3-8.8-7.7c0-1.3-15.8-128.7-18.4-152.6c-0.2-1.2-0.2-2.3,0-3.5l17.5-56.4
		c1.4-4.6,6.3-7.2,10.9-5.8c2.3,0.6,4.3,2.1,5.5,4.2c1.2,2.1,1.4,4.6,0.8,6.8l-17,54.7c3.1,27.7,17.5,149.3,18.1,150.6
		c0.6,4.8-2.8,9.1-7.6,9.7H247.2z"/>
	<path d="M178.6,490c-1.7,0-3.3-0.5-4.7-1.4c-2.1-1.3-3.5-3.4-3.9-5.9c0-1.1-4.7-27-10.9-80.6l0,0c-3.7-25.2-4.6-50.7-2.7-76v-1.6
		c0-3,13.4-241.4,17.5-314.5c0.3-4.8,4.4-8.5,9.2-8.3c4.8,0.3,8.5,4.4,8.3,9.2c-6,106.4-17.5,308.7-17.5,314v2.9
		c-1.7,24.1-0.8,48.4,2.7,72.4c3.9,35,7.3,57.8,8.8,70c61.9-20.3,58.9-57,58.7-58.5l-31.5-182.4c-0.3-1.3-0.3-2.7,0-4l7.7-25.2
		c0.6-2.3,2.2-4.2,4.2-5.4c2.1-1.1,4.5-1.4,6.8-0.7s4.1,2.3,5.2,4.4c1.1,2.1,1.2,4.6,0.5,6.8l-7.1,23.1L261.4,409
		c0,2.7,6.1,57-80.8,80.8l0,0C179.9,489.9,179.3,490,178.6,490L178.6,490z"/>
	<path d="M164.4,353h-1.8c-2.3-0.4-4.4-1.8-5.7-3.8c-1.3-2-1.7-4.4-1.2-6.8l45.9-216.1l-9.8-12.5c-1.7-2.1-2.3-4.8-1.7-7.4
		c0.6-2.6,2.4-4.8,4.8-5.9l8.1-3.9l2.7-57.4l0,0c0.2-4.8,4.3-8.6,9.1-8.4c4.8,0.2,8.6,4.3,8.4,9.1l-2.9,62.6c-0.1,3.2-2.1,6.1-5,7.5
		l-2.9,1.4l5.4,6.7c1.7,2.1,2.3,4.8,1.8,7.4L173.2,346C172.3,350.1,168.6,353.1,164.4,353L164.4,353z"/>
	<path d="M174.2,461h-54.6c-4.8,0-8.8-3.9-8.8-8.8c0-4.8,3.9-8.8,8.8-8.8h54.6c4.8,0,8.8,3.9,8.8,8.8C182.9,457.1,179,461,174.2,461
		z"/>
	<path d="M146.9,91.4c-13.4,0.8-26.7-2.9-37.8-10.5c-1.8-1.5-2.9-3.6-3.1-5.9s0.5-4.6,2-6.4c1.5-1.9,3.7-3.1,6.1-3.3
		c2.4-0.2,4.8,0.6,6.6,2.2c7.9,4.8,17,7,26.2,6.5c9.2,0.5,18.4-1.8,26.2-6.6c3.7-3.1,9.3-2.5,12.3,1.2c3.1,3.7,2.5,9.3-1.2,12.3
		C173.3,88.4,160.2,92.1,146.9,91.4L146.9,91.4z"/>
</g>
</svg>
