<?xml version="1.0" encoding="utf-8"?>
<!-- Generator: Adobe Illustrator 26.0.0, SVG Export Plug-In . SVG Version: 6.00 Build 0)  -->
<svg version="1.1" id="Layer_1" xmlns="http://www.w3.org/2000/svg" xmlns:xlink="http://www.w3.org/1999/xlink" x="0px" y="0px"
	 viewBox="0 0 62 64" style="enable-background:new 0 0 62 64;" xml:space="preserve">
<rect x="37.8" y="23" width="1.9" height="2"/>
<path d="M16.4,48.4l0.1,0.1c0.2,0.1,0.4,0.1,0.6,0c0.2-0.1,0.5-0.2,0.6-0.5l3.4-6c0.3-0.5,0.1-1-0.3-1.3l-0.1-0.1h-0.1
	c-0.4-0.1-0.9,0-1.1,0.4l-3.4,6.1C15.8,47.6,16,48.1,16.4,48.4z"/>
<path d="M62,42L51.1,13.3L51,13c-1-2.5-3.2-4.3-5.9-4.7l-3.4-0.6l-0.1-4.8c0-1.6-1.3-2.9-2.9-2.9H22.3c-1.6,0-2.9,1.4-2.9,3v4.8
	l-2.5,0.5c-2.7,0.5-4.9,2.4-5.9,4.9L0,42v10c-0.1,1,0.5,2,1.5,2.3l8.3,1.8l0.4,4.2c0.2,2,1.8,3.6,3.9,3.6h33.7c2,0,3.7-1.6,3.9-3.6
	l0.4-4.3l8.4-1.8c0.9-0.2,1.6-1.1,1.5-2L62,42z M49.3,13.8l5.3,14l-6.9,2.6L44,19c-0.2-0.5-0.7-0.8-1.2-0.7h-0.1
	c-0.5,0.2-0.7,0.7-0.6,1.2l1.1,3.5h-1.5v2h2.2l3.6,11H32V25h3.9v-2H32V10.7c4.1,0,7-0.4,8.6-1.1l4.3,0.7
	C46.9,10.6,48.5,11.9,49.3,13.8z M30,36H14.4l3.5-11H30V36z M38.7,2c0.6,0,1,0.4,1,1l0.1,4.4l-1.9-0.3L37.7,7h-1.8V2H38.7z M21.3,3
	c0-0.6,0.4-1,1-1h11.6v5H23.4l-2.1,0.4V3z M12.8,13.9c0.7-1.9,2.4-3.3,4.4-3.7l3.2-0.6c1.8,0.7,5,1.1,9.5,1.1l0,0V23H18.5l1.1-3.4
	c0,0,0,0,0,0c0.1-0.5-0.1-1-0.6-1.1l0,0c-0.5-0.1-1,0.2-1.2,0.7l-3.6,11.2l-6.7-2.5L12.8,13.9z M9.7,54.1l-7.8-1.7v-3.2l0,0l7.8,1.4
	V54.1z M9.7,45v3.5l-7.8-1.4v-4.7l4.9-12.8l6.9,2.6L9.7,45z M14.1,62c-1,0-1.8-0.8-1.9-1.8l-0.6-5.7V45l2.2-7H30v13H15.5
	c-0.6,0-1,0.4-1,1v0.1c0.1,0.5,0.5,0.9,1,0.9H30v9H14.1z M50.4,54.5l-0.6,5.7c-0.1,1-0.9,1.8-1.9,1.8H32v-9h14.5c0.6,0,1-0.4,1-1
	v-0.1c-0.1-0.5-0.5-0.9-1-0.9H32V38h16.1l2.3,7.2V54.5z M60.1,52.3l-7.8,1.7v-3.3l7.8-1.4V52.3z M60.1,47.3l-7.8,1.4V45l-4.1-12.8
	l7-2.7l0,0L60,42.3L60.1,47.3z"/>
<path d="M42.7,41c-0.1-0.2-0.3-0.4-0.6-0.5l0,0c-0.2-0.1-0.5,0-0.7,0.1l-0.1,0.1c-0.2,0.1-0.3,0.3-0.4,0.6c-0.1,0.3,0,0.5,0.1,0.8
	l3.4,6c0.1,0.2,0.3,0.4,0.6,0.5c0.3,0.1,0.5,0,0.7-0.1l0.1-0.1c0.2-0.1,0.3-0.3,0.3-0.5c0.1-0.3,0-0.5-0.1-0.8L42.7,41z"/>
</svg>
