<?xml version="1.0" encoding="utf-8"?>
<!-- Generator: Adobe Illustrator 26.0.0, SVG Export Plug-In . SVG Version: 6.00 Build 0)  -->
<svg version="1.1" id="katman_1" xmlns="http://www.w3.org/2000/svg" xmlns:xlink="http://www.w3.org/1999/xlink" x="0px" y="0px"
	 viewBox="0 0 354.4 504.1" style="enable-background:new 0 0 354.4 504.1;" xml:space="preserve">
<g>
	<path d="M344.2,477.5c9.6-10,12.6-29.2,8.3-40.6c-2.1-5.6-5.2-11.3-9.3-16.8c2.7-3.2,4.8-7.4,6.4-12.4c4.7-15.6,2.4-32.9-6.2-46.8
		c5.5-18.6,0.1-40.3-13.4-53.8c5.8-27.4-11.7-44.9-17.4-49.8c-3.6-15.4-14.1-31.8-28.5-44.7c0-0.2,0-0.4,0-0.6
		c-0.5-2.5-2.1-4.1-2.9-4.9c-4.5-4.5-11.8-10.1-18.4-14.4c6.2-4.4,12.1-10.6,18.1-18.9c4.6-6.4,10.1-15.1,11.6-25.2
		c1.2-7.4,0.2-14.7-1.1-21.6c-3.5-19.1-8.9-34.6-16.5-47.4c-1.5-2.5-3.1-5.7-4.9-9.2c-3.6-7.2-7.7-15.3-12.3-20.3
		C234.6,24.8,209.4,0,177.2,0s-57.4,24.8-80.5,50.2c-4.6,5-8.7,13.1-12.3,20.3c-1.7,3.4-3.4,6.7-4.9,9.2
		c-7.6,12.8-13,28.3-16.5,47.4c-1.3,6.9-2.3,14.2-1.1,21.6c1.6,10.2,7.1,18.8,11.6,25.2c6,8.3,11.8,14.5,18.1,18.9
		c-6.6,4.3-13.9,9.9-18.4,14.4c-0.8,0.8-2.4,2.4-2.9,4.9c-0.1,0.2,0,0.4,0,0.6c-14.4,13-24.8,29.4-28.5,44.7
		c-5.8,4.9-23.2,22.3-17.4,49.8C10.9,320.7,5.4,342.4,11,361c-8.6,13.8-10.9,31.1-6.2,46.8c1.5,5.1,3.7,9.2,6.4,12.4
		c-4,5.5-7.2,11.2-9.3,16.8c-4.2,11.4-1.3,30.6,8.3,40.6c-0.3,1-0.5,2-0.8,3c-0.3,1.3-0.5,3.1,0.1,5s1.8,3.1,2.6,3.9
		c5.3,5.1,27.7,7.8,33.7,7.8c0.2,0,0.4,0,0.6,0c6.7-0.3,12.9-1.9,18.8-3.4c3.2-0.8,6.3-1.5,9.4-2.1c1.7,2.2,4,3.7,5.9,4.8
		c12.8,7,29.1,9.1,50,6.4c5.4-0.7,10.7-1.6,16.1-2.6c10.5-1.8,20.5-3.6,30.6-3.6s20.1,1.7,30.6,3.6c5.4,0.9,10.7,1.9,16.1,2.6
		c5.9,0.8,11.4,1.1,16.5,1.1c13.2,0,24.2-2.5,33.4-7.5c2-1.1,4.2-2.6,5.9-4.8c3.1,0.6,6.2,1.3,9.4,2.1c6,1.5,12.1,3.1,18.9,3.4
		c0.2,0,0.4,0,0.6,0c6,0,28.3-2.6,33.7-7.8c0.8-0.8,2-2.1,2.6-3.9c0.6-1.9,0.4-3.7,0.1-5C344.8,479.5,344.5,478.5,344.2,477.5
		L344.2,477.5z M332.7,415.2c-0.4,0.3-0.6,0.6-0.9,0.9c-0.8,0-1.7,0.1-2.5,0.4c-8.1,3.7-17.5,7.7-27.2,9.6c-6,1.2-14.5,1.9-22.8-0.5
		c6.1-8.8,9.5-19.5,9.5-30.2c0-8-1.9-15.9-5.3-23.1c2.9,0.9,5.9,1.4,9.2,1.7c1.6,0.1,3.1,0.2,4.6,0.2c4.9,0,9.7-0.6,13.9-1.2
		c8-1.1,15.9-2.7,23.7-4.6c6.1,10.8,7.7,24.3,4.1,36.2C337.7,409.6,335.5,413.2,332.7,415.2L332.7,415.2z M256.1,418.2
		c-4.1-0.4-8.1-0.1-11.9,0.2c0.3-9.8,0.8-19.6,1.4-29.3l0.2-2.9c0.5-6.4,1-13.6-0.3-20.1c-0.1-0.5-0.3-1-0.5-1.5
		c7.3,1.4,14.8,2.8,22.3,3.4c0.2,0,0.3,0,0.5,0h0.1c6.4,7.6,10,17.4,10,27.3c0,9.5-3.4,19-9.4,26.4
		C265,419.9,260.9,418.6,256.1,418.2L256.1,418.2z M234.9,385.4l-0.2,3c-1.1,16.3-1.7,32.8-1.9,49.2c-0.8-9.2-1.8-23.2-1.7-34.4
		c0.1-11.9,1.5-22.2,4.2-31.3C235.6,376.2,235.2,381,234.9,385.4L234.9,385.4z M226.1,364.6c-3.9,11.2-5.9,23.9-6,38.6
		c-0.1,5.8,0.2,12.1,0.5,18.3c-11.7,3.2-24.1,3.5-36.1,1v-61.1c4,0,7.9-0.4,11.7-0.8c2.5-0.3,5.1-0.6,7.7-0.7
		c8.2-0.5,16.4,0.4,24.7,1.8C227.5,362.3,226.5,363.3,226.1,364.6L226.1,364.6z M128.3,364.6c-0.5-1.3-1.4-2.3-2.6-3
		c8.3-1.4,16.5-2.3,24.7-1.8c2.6,0.2,5.1,0.4,7.7,0.7c3.8,0.4,7.7,0.8,11.7,0.8v61.1c-11.9,2.5-24.3,2.2-36.1-1
		c0.3-6.2,0.6-12.5,0.5-18.3C134.2,388.5,132.2,375.9,128.3,364.6L128.3,364.6z M123.4,403.3c0.1,11.1-0.9,24.7-1.7,34.4
		c-0.2-16.4-0.9-33-1.9-49.3l-0.2-3c-0.3-4.4-0.7-9.2-0.3-13.5C121.9,381.1,123.3,391.4,123.4,403.3L123.4,403.3z M98.3,418.2
		c-4.7,0.4-8.9,1.6-12.4,3.6c-6-7.4-9.4-16.9-9.4-26.4c0-9.9,3.6-19.7,10-27.3h0.1c0.2,0,0.3,0,0.5,0c7.5-0.7,15-2,22.3-3.4
		c-0.2,0.5-0.4,0.9-0.5,1.5c-1.3,6.5-0.8,13.7-0.3,20.1l0.2,2.9c0.6,9.7,1.1,19.5,1.4,29.3C106.4,418.1,102.4,417.9,98.3,418.2
		L98.3,418.2z M82.7,336.9c1.3-7.4,4.6-14.7,9.3-21.4l0,0c0.7,0.1,1.4,0.1,2.1,0.1c3.7,0,7.2-0.7,10.1-1.3l6.2-1.3
		c13.8-2.8,28.1-5.7,42-4.9c1.7,0.1,3.4,0.3,5,0.4c4,0.4,8.2,0.7,12.4,0.5v41.5c-3.4,0-6.9-0.3-10.5-0.8c-2.7-0.3-5.5-0.6-8.2-0.8
		c-13.9-0.9-27.4,1.8-40.5,4.3c-8,1.6-16.3,3.2-24.5,3.9l0,0C82.6,351.7,81.4,344.4,82.7,336.9L82.7,336.9z M260.3,315.6
		c0.7,0,1.4,0,2.1-0.1l0,0c4.8,6.7,8,14.1,9.3,21.4c1.3,7.5,0,14.8-3.4,20.3l0,0c-8.1-0.7-16.4-2.3-24.5-3.9
		c-13.1-2.6-26.7-5.2-40.5-4.3c-2.7,0.2-5.5,0.5-8.2,0.8c-3.6,0.4-7.1,0.7-10.5,0.8V309c4.2,0.3,8.4-0.1,12.4-0.5
		c1.7-0.2,3.4-0.3,5-0.4c13.8-0.8,28.2,2.1,42,4.9l6.2,1.3C253.1,314.9,256.6,315.6,260.3,315.6L260.3,315.6z M177.2,183.8
		c-6.3-6.7-13.5-13.9-21.5-20.1c-10.9-8.5-22-13.7-33.1-15.6c-4.5-0.8-9-1-13.3-1.2l-2.9-0.1c-2.3-0.1-4.5-0.3-6.3-0.9
		c-3.1-1-5.9-3.7-8.7-6.2c-0.5-0.4-1-0.9-1.2-1.2c0-0.1-0.2-0.4-0.3-1.4c-0.2-4.2,2.5-8.6,5.5-13c9.9-14.6,21-29.8,35.1-41.7
		c15.2-12.9,31-19.7,46.3-20.5c15.8,0.7,31.6,7.6,46.8,20.5c14.1,11.9,25.2,27.1,35.1,41.7c3,4.5,5.8,8.9,5.5,13
		c-0.1,1-0.3,1.4-0.3,1.5c-0.2,0.3-0.7,0.8-1.2,1.2c-2.8,2.6-5.6,5.2-8.7,6.2c-1.8,0.6-4,0.8-6.3,0.9l-2.9,0.1
		c-4.3,0.2-8.8,0.4-13.3,1.2c-11.1,1.9-22.2,7.1-33.1,15.6C190.7,169.9,183.5,177.1,177.2,183.8L177.2,183.8z M332.9,357.6
		c-7.6,1.9-15.4,3.4-23.1,4.5c-4.9,0.7-10.6,1.3-16.1,0.9c-5.4-0.4-10.2-1.9-13.8-4.3l0,0c3.1-7,4.2-15.4,2.7-23.7
		c-0.9-5.3-2.7-10.5-5.1-15.5c2.8,0.4,5.6,0.6,8.6,0.6c2.5,0,5-0.1,7.6-0.4c8.6-0.8,16.8-2.8,25.1-4.7l2.6-0.6
		c0.1,0,0.2-0.1,0.2-0.1C332.8,324.8,337.4,342.4,332.9,357.6L332.9,357.6z M319.5,303.6c-0.3,0-0.5,0-0.8,0l-2.9,0.7
		c-7.6,1.8-15.5,3.7-23.3,4.4c-7.4,0.7-14.1,0.2-19.8-1.4c4.2-9.4,5.7-20.2,3.9-30.4c-0.9-5.3-2.6-10.3-4.3-15.1l-0.6-1.6
		c10.6,0.9,21.1,2.7,31.4,5.3c0.5,0.1,0.9,0.2,1.4,0.2c0.3,0,0.5-0.1,0.8-0.1C309,268.6,323.3,282.2,319.5,303.6L319.5,303.6z
		 M299.9,253.6c-10.6-2.4-21.3-4-32.1-4.7l-0.2-0.5c6.1-6.6,10.8-14.6,13.8-23.1C289.9,234,296.4,243.9,299.9,253.6L299.9,253.6z
		 M105,197.5c1.9-1,3-2.9,3-5c-0.1-2.1-1.3-4-3.3-4.8c-7.7-3.4-14.8-9.8-22.2-20.2c-3.9-5.4-8.5-12.6-9.7-20.5
		c-0.9-5.4-0.2-11.1,1.1-17.9C77.1,111.3,82.1,97,89,85.4c1.7-2.8,3.4-6.2,5.2-9.8c3.3-6.5,7.1-13.9,10.6-17.8
		C126.2,34,149.5,11,177.2,11s51,23.1,72.4,46.7c3.6,3.9,7.3,11.3,10.6,17.8c1.8,3.6,3.6,7,5.2,9.8c6.9,11.6,11.9,25.9,15.1,43.7
		c1.2,6.8,1.9,12.5,1.1,17.9c-1.2,7.9-5.9,15.1-9.7,20.5c-7.4,10.4-14.5,16.8-22.2,20.2c-1.9,0.8-3.2,2.7-3.3,4.8
		c-0.1,2.1,1.1,4.1,3,5c7,3.6,18,11.6,23.7,17.1c-2.1,10.1-7.1,19.5-14.2,26.9c-18.8-8.9-39.8-13.2-60.7-12.4
		c-3,0.1-5.4,2.7-5.3,5.7s2.6,5.5,5.7,5.3c19.3-0.8,38.6,3.2,55.9,11.5c0.8,0.4,1.6,0.5,2.4,0.5c0.2,0,0.3-0.1,0.5-0.1l4.6,13.4
		c1.6,4.6,3.1,9,3.9,13.4c1.5,8.7,0.1,17.9-4,25.8c-0.1,0-0.2-0.1-0.3,0c-2.7,0.2-5.7-0.3-9.2-1l-6.2-1.2c-14.5-3-29.5-6-44.8-5.1
		c-1.8,0.1-3.6,0.3-5.4,0.4c-4,0.4-7.8,0.7-11.4,0.4V192c6.2-6.6,13.2-13.7,20.9-19.7c9.4-7.3,18.9-11.8,28.2-13.4
		c3.8-0.6,7.8-0.8,12-1l3-0.1c2.9-0.2,6.1-0.4,9.2-1.4c5.3-1.8,9.4-5.6,12.7-8.6c0.9-0.9,2-1.9,3-3.4c1.2-1.9,1.8-4.1,2-6.7
		c0.4-7.6-3.4-13.9-7.4-19.7c-10.3-15.3-22-31.1-37.1-43.9c-16.9-14.3-35.3-22.2-53.9-23.1c-18,0.8-36.5,8.8-53.4,23.1
		C108.7,86.9,97,102.7,86.7,118c-4,5.8-7.8,12.2-7.4,19.7c0.1,2.6,0.8,4.9,2,6.7c0.9,1.5,2.1,2.5,3,3.4c3.3,3,7.3,6.8,12.7,8.6
		c3.1,1.1,6.3,1.3,9.2,1.4l3,0.1c4.2,0.2,8.1,0.4,11.9,1c9.3,1.6,18.7,6.1,28.2,13.4c7.7,6,14.7,13.1,20.9,19.7v106
		c-3.6,0.3-7.4,0-11.4-0.4c-1.8-0.2-3.6-0.3-5.4-0.4c-15.3-0.9-30.3,2.1-44.8,5.1l-6.2,1.2c-3.5,0.7-6.5,1.2-9.2,1
		c-0.1,0-0.2,0-0.3,0c-4-7.9-5.5-17.1-4-25.8c0.8-4.5,2.3-8.8,3.9-13.4l4.6-13.4c0.2,0,0.3,0.1,0.5,0.1c0.8,0,1.6-0.2,2.4-0.5
		c17.3-8.2,36.6-12.2,55.9-11.5c3.1,0.2,5.6-2.2,5.7-5.3c0.1-3-2.2-5.6-5.3-5.7c-21-0.8-41.9,3.5-60.7,12.4
		c-7-7.4-12.1-16.7-14.2-27C86.5,209.4,97.9,201.2,105,197.5L105,197.5z M72.9,225.3c3,8.5,7.7,16.4,13.8,23.1l-0.2,0.5
		c-10.8,0.7-21.5,2.3-32.1,4.7C58,243.9,64.5,234,72.9,225.3L72.9,225.3z M49.1,265.6c0.3,0,0.5,0.1,0.8,0.1c0.5,0,0.9-0.1,1.4-0.2
		c10.3-2.6,20.8-4.4,31.4-5.3l-0.6,1.6c-1.7,4.8-3.4,9.8-4.3,15.1c-1.8,10.2-0.3,20.9,3.9,30.4c-5.8,1.6-12.4,2.1-19.8,1.4
		c-7.8-0.7-15.7-2.6-23.5-4.5l-2.6-0.6c-0.3-0.1-0.6,0-0.8,0C31,282.1,45.4,268.6,49.1,265.6L49.1,265.6z M33,314.2
		c0.1,0,0.2,0.1,0.2,0.1l2.9,0.7c8,1.9,16.2,3.9,24.8,4.7c2.6,0.2,5.1,0.4,7.6,0.4c3,0,5.8-0.2,8.6-0.6c-2.4,5.1-4.2,10.3-5.1,15.5
		c-1.5,8.3-0.5,16.7,2.7,23.7l0,0c-3.6,2.4-8.4,3.9-13.8,4.3c-5.5,0.4-11.2-0.2-16.1-0.9c-7.8-1.1-15.6-2.6-23.1-4.5
		C17,342.4,21.7,324.8,33,314.2L33,314.2z M19.4,368.4c7.8,1.9,15.8,3.5,23.7,4.6c4.2,0.6,9,1.2,13.9,1.2c1.5,0,3.1-0.1,4.6-0.2
		c3.3-0.3,6.4-0.9,9.2-1.7c-3.4,7.2-5.4,15.1-5.3,23.1c0,10.7,3.4,21.4,9.5,30.2c-8.3,2.4-16.8,1.7-22.8,0.5
		c-9.7-1.9-19.1-5.9-27.2-9.6c-0.8-0.4-1.7-0.5-2.5-0.4c-0.3-0.3-0.5-0.7-0.9-0.9c-2.8-2-4.9-5.6-6.5-10.6
		C11.6,392.7,13.3,379.2,19.4,368.4L19.4,368.4z M62.6,483.1c-5.7,1.4-11,2.8-16.6,3c-5,0.2-21.1-2.5-25.6-4.5
		c0.3-1.2,0.7-2.4,1.2-3.5c1.1-2.4,0.4-5.3-1.8-6.8c-7.6-5.4-10.9-22.2-7.7-30.7c1.8-4.8,4.6-9.7,8.1-14.5c0.1,0.1,0.2,0.2,0.3,0.2
		c8.6,3.9,18.8,8.3,29.6,10.4c4.4,0.9,8.7,1.3,12.9,1.3c3.4,0,6.7-0.3,9.9-0.9c-1.5,3.5-2.9,7.2-3.9,11.1
		c-1.9,6.9-3.2,17.3,1.1,27.2l0.6,1.4c0.5,1,1,2,1.1,2.8c0.1,0.4,0,0.9,0,1.3C68.7,481.7,65.6,482.4,62.6,483.1L62.6,483.1z
		 M144.7,489.5c-5.2,0.9-10.4,1.8-15.6,2.5c-18.5,2.4-32.6,0.7-43.3-5.1c-0.7-0.4-1.2-0.7-1.7-1c0-0.3,0.1-0.6,0.1-0.9
		c-0.1-1.2-0.7-2.1-1.4-2.9c0-1.2,0-2.6-0.2-4.1c-0.4-2.2-1.2-4-2-5.6l-0.5-1.1c-3.1-7-2-14.7-0.6-19.9c1.8-6.7,4.9-13.1,7.8-18.8
		c0.1,0,0.2,0,0.3,0c1,0,2-0.3,2.9-0.8c2.2-1.4,5.1-2.2,8.5-2.5c3.2-0.3,6.4-0.1,9.9,0.2c0.4,0.3,0.8,0.5,1.3,0.7
		c0.1,5.4,0.3,10.8,0.3,16.1c0,2.7,2,5,4.7,5.4c0.9,0.1,1.8,0.2,2.6,0.2c5.3,0,10-2,10.6-2.2c1.8-0.8,3.1-2.5,3.3-4.5
		c0.3-3.3,0.7-7.6,1.1-12.5c6.9,1.7,14,2.6,21.2,2.6c5.2,0,10.5-0.6,15.7-1.6V486C161.3,486.6,152.9,488.1,144.7,489.5L144.7,489.5z
		 M225.3,492c-5.2-0.7-10.4-1.6-15.6-2.5c-8.2-1.4-16.6-2.9-25.1-3.5v-52.4c5.2,0.9,10.4,1.6,15.7,1.6c7.1,0,14.2-0.9,21.2-2.6
		c0.4,4.8,0.8,9.2,1.1,12.5c0.2,2,1.4,3.7,3.3,4.5c0.6,0.3,5.2,2.2,10.6,2.2c0.9,0,1.7-0.1,2.6-0.2c2.7-0.4,4.7-2.7,4.7-5.4
		c0-5.4,0.2-10.7,0.3-16.1c0.5-0.2,0.9-0.4,1.3-0.7c3.5-0.2,6.7-0.4,9.9-0.2c3.5,0.3,6.3,1.1,8.6,2.5c0.9,0.6,1.9,0.8,2.9,0.8
		c0.1,0,0.2,0,0.3,0c3,5.7,6,12.1,7.8,18.8c1.4,5.2,2.5,12.9-0.6,19.9l-0.5,1.1c-0.7,1.6-1.6,3.4-2,5.6c-0.3,1.5-0.2,2.9-0.2,4.1
		c-0.7,0.8-1.2,1.8-1.4,3c0,0.3,0.1,0.6,0.1,0.9c-0.4,0.3-0.9,0.6-1.7,1C257.9,492.7,243.7,494.4,225.3,492L225.3,492z M334.6,471.4
		c-2.2,1.5-2.9,4.4-1.8,6.8c0.5,1.1,0.9,2.2,1.2,3.5c-4.6,2-20.6,4.8-25.6,4.5c-5.6-0.2-11-1.6-16.6-3c-3-0.8-6.1-1.5-9.3-2.1
		c0-0.4,0-0.9,0-1.3c0.1-0.7,0.6-1.7,1.1-2.8l0.6-1.4c4.3-9.9,3-20.2,1.1-27.2c-1-3.8-2.4-7.5-3.9-11.1c3.2,0.6,6.5,0.9,9.9,0.9
		c4.2,0,8.5-0.4,12.9-1.3c10.9-2.1,21-6.5,29.6-10.4c0.1-0.1,0.2-0.2,0.3-0.2c3.6,4.8,6.4,9.7,8.1,14.5
		C345.5,449.3,342.2,466,334.6,471.4L334.6,471.4z"/>
</g>
</svg>
