<?xml version="1.0" encoding="utf-8"?>
<!-- Generator: Adobe Illustrator 26.0.0, SVG Export Plug-In . SVG Version: 6.00 Build 0)  -->
<svg version="1.1" id="katman_1" xmlns="http://www.w3.org/2000/svg" xmlns:xlink="http://www.w3.org/1999/xlink" x="0px" y="0px"
	 viewBox="0 0 534.8 524.9" style="enable-background:new 0 0 534.8 524.9;" xml:space="preserve">
<g>
	<path d="M522.6,450.7c2.4-1.4,4.5-3.3,6.3-5.4c5.1-6.2,7-14.3,5.3-22.1l-7.8-31.6l0,0c-0.5-2.3-1.9-4.4-3.9-5.6
		c-2-1.3-4.5-1.7-6.8-1.1s-4.3,2.1-5.5,4.1c-1.2,2.1-1.5,4.5-0.8,6.8l7.7,31.2l0,0c0.6,2.6-0.1,5.2-1.8,7.2c-1.6,2-4.1,3.2-6.7,3.2
		h-51.8c-4.5,0-8.2-3.3-8.8-7.7l-31.9-116v-68.8c0-4.8-3.9-8.8-8.8-8.8s-8.8,3.9-8.8,8.8v17.5H276.2V148.6h83.3
		c26.3,0.1,51.8,9.3,72.2,26c20.3,16.7,34.3,40,39.5,65.8L501,360.9l0,0c0.5,2.3,1.9,4.4,3.9,5.6c2,1.3,4.5,1.7,6.8,1.1
		s4.3-2.1,5.5-4.1c1.2-2.1,1.5-4.5,0.8-6.8l-29.7-120.1c-5.1-25.2-17.5-48.4-35.6-66.6c-18.2-18.2-41.3-30.7-66.5-35.9l1.8-5l0,0
		c10.7-29.5,6.4-62.4-11.6-88.1S328.9,0,297.5,0h-60c-17.8,0-35.3,5-50.5,14.4c-2.4,0.9-4.3,2.8-5.1,5.3c-0.9,2.4-0.6,5.1,0.7,7.3
		c1.3,2.2,3.5,3.8,6.1,4.2c2.5,0.4,5.1-0.3,7.1-1.9c12.5-7.7,27-11.8,41.7-11.7h60c25.7,0,49.8,12.5,64.5,33.6s18.3,48,9.5,72.1
		l-3.1,8.8h-8.8h-9.7l5-14.8c6.8-18.8,4.1-39.7-7.4-56c-11.4-16.6-30.1-26.4-50.1-26.4h-60c-20,0-38.7,9.8-50.1,26.1
		c-11.4,16.4-14.2,37.3-7.4,56l5,14.1h-9.5h-8.8l-3.1-8.8c-8.6-23.9-5.1-50.6,9.4-71.5c2.5-4,1.4-9.1-2.4-11.8s-9.1-1.9-11.9,1.8
		c-18,25.7-22.4,58.6-11.6,88.1l1.8,5l0,0c-25.1,5.2-48.2,17.6-66.3,35.8C64.4,187.8,52,210.9,46.8,236L0.5,423.5
		c-1.5,7.7,0.4,15.7,5.4,21.8c1.8,2.1,3.9,4,6.3,5.4L4.8,479c-0.7,2.6-0.1,5.4,1.6,7.5c1.7,2.2,4.4,3.4,7.2,3.3h52.5
		c4.1,0.1,7.8-2.6,8.8-6.6l6.9-28.4c5.2-0.8,10.1-3.1,14-6.7s6.6-8.3,7.8-13.4l15.1-55v83.9c0,5.4,1.7,10.7,4.8,15.1
		s7.6,7.8,12.7,9.6v27.8c0,2.3,0.9,4.5,2.6,6.2s3.9,2.6,6.2,2.6h245c2.3,0,4.5-0.9,6.2-2.6s2.6-3.9,2.6-6.2v-27.8
		c5.1-1.8,9.5-5.1,12.7-9.6c3.1-4.4,4.8-9.7,4.8-15.1v-83.9l14.9,54.1l0,0c1,5.4,3.7,10.3,7.6,14.1c3.9,3.8,8.9,6.2,14.3,7l6.9,28.4
		c1,4,4.6,6.8,8.8,6.6h52.5c2.7,0,5.2-1.2,6.9-3.3c1.7-2.1,2.2-4.9,1.6-7.5L522.6,450.7z M398.7,279.9v52.5H276.2v-52.5H398.7z
		 M144.9,472.4c-4.8,0-8.8-3.9-8.8-8.8v-43.8h122.5v52.6H144.9z M136.2,402.4v-52.5h122.5v52.5H136.2z M136.2,279.9h122.5v52.5
		H136.2V279.9z M276.2,349.9h122.5v52.5H276.2V349.9z M276.2,104.9H305c3.3,0,6.2,4,6.2,8.8v17.5h-35V104.9z M258.7,131.2h-35v-17.5
		c0-4.7,2.9-8.8,6.2-8.8h28.8V131.2z M196.3,111.1c-4.9-13.4-2.9-28.4,5.3-40.1c8.1-11.6,21.5-18.6,35.8-18.6h60
		c14.3,0,27.7,7,35.8,18.6c8.2,11.7,10.2,26.6,5.3,40.1l-7.3,20h-2.6v-17.5c0.3-6.6-2-13.1-6.4-18s-10.6-7.9-17.3-8.2h-75.1
		c-6.6,0.4-12.8,3.3-17.3,8.2c-4.4,4.9-6.8,11.4-6.4,18v17.5h-2.6L196.3,111.1z M24.9,472.4l4.4-17.5h34.5l-4.4,17.5H24.9z
		 M86.6,430.3L86.6,430.3c-0.8,4.2-4.5,7.2-8.7,7.1H26.3c-2.6,0-5.1-1.2-6.7-3.2c-1.7-1.9-2.4-4.4-1.9-6.8l46.2-187.2
		c5.2-25.8,19.1-49,39.4-65.7c20.3-16.7,45.8-25.8,72.1-25.8h83.3v113.7H136.2v-17.5c0-4.8-3.9-8.8-8.8-8.8c-4.9,0-8.8,3.9-8.8,8.8
		v68.8L86.6,430.3z M153.7,489.9h105v17.5h-105L153.7,489.9L153.7,489.9z M276.2,507.4v-17.5h105v17.5H276.2z M389.9,472.4H276.2
		v-52.5h122.5v43.8c0,2.3-0.9,4.5-2.6,6.2S392.2,472.4,389.9,472.4z M475.5,472.4l-4.4-17.5h34.5l4.4,17.5H475.5z"/>
</g>
</svg>
