<svg xmlns="http://www.w3.org/2000/svg" viewBox="0 0 344.23 408.91"><g id="katman_2" data-name="katman 2"><g id="katman_1-2" data-name="katman 1"><path d="M263.9,408.91H80.2c-7.46-3-10.94-8.51-10.22-16.52.21-2.41-.83-3.46-2.93-4.39C52,381.31,37,374.5,22,367.73,13.24,363.81,9,357,9.2,347.52c.13-6.92.62-13.83.6-20.75,0-2.23-1-4.51-1.76-6.69C6,314.36,2.59,308.8,2.1,303c-1-11.88-.57-23.89-.49-35.84,0-7.71,1.77-15.6.58-23.07-3.16-19.83-2.74-39.47.24-59.19.85-5.62,3-11.43,2.23-16.85C2,148.52,1.2,129.14,3.49,109.55,5.93,88.66,14.21,71.77,34.05,62.37c13.79-6.53,27.78-12.65,41.6-19.12a10.08,10.08,0,0,0,4.43-4c4.53-8.58,8.83-17.28,13.07-26C97.48,4.29,104.47,0,114.44,0q57.5.12,115,0c10.13,0,17.2,4.29,21.59,13.4C255.2,22,259.45,30.59,263.94,39a10.82,10.82,0,0,0,4.68,4.27c14.62,7,29.54,13.31,44,20.65,14.17,7.21,22.67,18.92,26,34.81,4.74,22.76,4.22,45.44.88,68.23a17.65,17.65,0,0,0,.12,5.89c4.49,22.73,6.48,45.53,2.64,68.59a53.56,53.56,0,0,0-.51,10.29c.37,14.63,1.13,29.25,1.27,43.88a45.64,45.64,0,0,1-7.62,25.63,9.52,9.52,0,0,0-1.49,5.12c.15,6.38.64,12.76,1,19.13.6,11.41-3.43,18-13.78,22.7-14.66,6.61-29.3,13.25-44,19.76-2.1.93-3.16,2-2.94,4.39C274.84,400.41,271.33,405.89,263.9,408.91ZM68.62,163.56h97c0-20.51,0-40.71-.1-60.91,0-1-1.39-2.35-2.43-2.74-4.35-1.63-8.88-2.75-13.21-4.41C126.09,86.34,104.94,72.66,85,57c-2.11-1.67-3.87-2.26-6.45-1.08C66.76,61.29,54.79,66.39,43,72c-4.31,2-8.18,5-12.65,7.84C58.58,101.25,73.29,128.09,68.62,163.56Zm109.83.08h96.63c-.47-16.28-.55-32.22,7.12-47.22,7.49-14.64,18.17-26.31,31.19-36.5a27.66,27.66,0,0,0-3.48-2.58c-12.43-6.29-25-12.27-37.28-18.85-7.45-4-12.8-2.55-19.38,2.68C233.5,76.86,211.91,89.64,187.84,97.8c-3.09,1-7.39,1.32-8.9,3.5s-.48,6.4-.48,9.72C178.44,128.43,178.45,145.84,178.45,163.64Zm-13.1,68.5V176.66H140c-23,0-46.06,0-69.09.08-1.38,0-3.7.93-4,1.9-5.4,17.84-4.53,35.65.57,53.5Zm13.32.15h13.69q40.32,0,80.66,0c2.06,0,3.73.13,4.42-2.64,4.05-16.28,4.84-32.53.57-48.92-.8-3.07-1.94-4.2-5.33-4.18-30,.16-59.9.09-89.85.09h-4.16Zm-.09,67.9a18,18,0,0,0,1.89.23q47.67,0,95.34.05c2.08,0,2.93-.58,3.43-2.76,3.72-16.31,2.74-32.41-1.33-48.52-.8-3.14-1.91-4.2-5.26-4.18-29.92.15-59.84.09-89.76.09h-4.31ZM165.5,245.66c-.42-.28-.53-.41-.63-.41-31.78-.06-63.55-.13-95.32-.05a4,4,0,0,0-2.78,2.42c-4.52,16.23-5.68,32.61-2.13,49.25.67,3.15,2,3.62,4.77,3.62q46.08-.12,92.14-.06c1.28,0,2.56-.14,3.95-.22Zm-.06,68.06a4,4,0,0,0-1-.39q-47.88-.06-95.75,0c-1,0-2.59,1.62-2.77,2.67-1,5.63-1.62,11.31-2.26,17C61.17,354.82,74,369.6,95.94,369c21.66-.6,43.35-.13,65-.13h4.47Zm13.19,54.79a9.28,9.28,0,0,0,1.51.31c24.07,0,48.15.27,72.22-.07,17-.23,28.56-12.5,28.22-29.56-.15-7.28-1.61-14.52-2.05-21.8-.21-3.58-1.63-4.23-4.91-4.22-30.32.12-60.65.07-91,.08-1.29,0-2.58.12-4,.19ZM119,13c.63.88.89,1.32,1.22,1.7a264.22,264.22,0,0,0,49.34,43.9c2.05,1.43,3.42,1.3,5.21-.16C186.31,49,198.15,39.7,209.49,29.89,215.15,25,219.93,19.11,225.72,13ZM52.19,181.8c11.1-36.08,2.62-69.37-30-91.8-.4.84-.85,1.63-1.17,2.48a56.87,56.87,0,0,0-2.12,6C13.24,120.64,14,143,17.43,165.32a4.37,4.37,0,0,0,2.16,2.9C30.31,172.8,41.1,177.21,52.19,181.8Zm269.7-92c-15.31,11.12-27.55,24.66-32.07,43-4,16.1-3.86,32.68,1.85,49.15,10.91-4.53,21.27-8.93,31.72-13.1a5.07,5.07,0,0,0,3.56-4.6c2.26-15.7,3.18-31.45,1.55-47.27C327.54,107.69,326.16,98.52,321.89,89.76Zm-305.66,91c-.43,2.41-.82,4.32-1.1,6.24-2.49,16.89-3.48,33.8-.91,50.79a5.68,5.68,0,0,0,4,5.11c9.63,3.79,19.14,7.88,28.7,11.84,1.4.58,2.83,1.07,4.31,1.63,1.5-5.76,3-11.12,4.24-16.53A10.69,10.69,0,0,0,55.2,236c-1.57-10.06-4.61-20.16-4.36-30.17.23-9.19-2.93-13-11.08-15.47C31.85,187.93,24.35,184.15,16.23,180.78Zm276.66,75.76c11.58-4.81,22.76-9.37,33.83-14.16a5.67,5.67,0,0,0,2.8-3.62c3-15.58,2-31.21.18-46.82-.43-3.63-1.13-7.22-1.76-11.21l-34.45,14.33a120.69,120.69,0,0,1-4.91,42.3,3.75,3.75,0,0,0-.13,1.93C289.87,244.94,291.34,250.56,292.89,256.54Zm-277.36-.93-1.65.47c0,13.54-.32,27.09.11,40.62.29,9.3,3,18.35,11.35,23.48,7.77,4.81,16.53,8,25.43,12.23.5-3.81.89-6.53,1.19-9.27.63-5.79,2.63-11.87,1.51-17.32-2.27-11.13-4.1-22.16-3.72-33.53a3.86,3.86,0,0,0-1.61-3.05C37.32,264.59,26.41,260.12,15.53,255.61ZM293.3,332c7.21-3,14-5.66,20.58-8.66,9.11-4.13,14.79-11.63,15.34-21.27.87-15.3.23-30.68.23-46.1a6.4,6.4,0,0,0-1.68,0c-10.55,4.35-21.12,8.66-31.58,13.22-1,.42-1.72,2.37-1.84,3.68-.66,7.53-.83,15.1-1.69,22.6-.75,6.51-3.45,12.69-1.69,19.58C292.33,320.35,292.52,326,293.3,332ZM165.65,87.26c0-4.47-.18-8.33,0-12.17.17-2.71-.82-4.27-3-5.79C142.34,55.42,124,39.37,108.22,20.4c-.8-1-1.68-1.87-2.75-3.06-4.88,9.76-9.49,19-14.17,28.37C114,63.24,137.43,78.89,165.65,87.26Zm72.89-70.09c-17.08,21.12-36.72,38.32-58.44,53.22a4.13,4.13,0,0,0-1.57,2.84c-.17,4.51-.08,9-.08,14,28.15-8.24,51.6-24,74.35-41.54ZM83.32,381.42v14.42h82V381.42Zm95.29,14.44H261V381.58h-82.4ZM64.5,372.8c-3.4-5.21-8.7-10.2-10-16.1-2.24-9.77-8.16-13.86-16.7-16.34a86.91,86.91,0,0,1-8.48-3.43L22,333.88c0,5.14.1,9.37,0,13.6s1.64,7,5.53,8.75c8.27,3.62,16.47,7.39,24.7,11.08C56.49,369.25,60.82,371.17,64.5,372.8Zm214.56.31c13.05-5.9,26.18-11.64,39.07-17.87,1.9-.93,3.61-4.11,3.79-6.38.38-4.7-.34-9.49-.63-14.64-9.15,3.81-18,7.43-26.73,11.19a3.6,3.6,0,0,0-1.78,2.34C290.94,357.69,286,365.8,279.06,373.11Z"/></g></g></svg>