<svg xmlns="http://www.w3.org/2000/svg" viewBox="0 0 228 360.2"><g id="katman_2" data-name="katman 2"><g id="katman_1-2" data-name="katman 1"><path d="M63.23,98.25c-6.3-7-12.42-13.93-18.64-20.75-3-3.23-3.05-6.35-.93-10.19q15.53-28,30.7-56.23C78.45,3.48,84.54-.11,93.19,0c14.13.18,28.25.1,42.38,0,8,0,13.85,3.36,17.68,10.42q15.56,28.63,31.26,57.2c2,3.57,1.84,6.55-.88,9.56-6.26,6.94-12.47,13.94-18.81,21,10.72,6.7,21.62,13.72,32.74,20.37a25.57,25.57,0,0,1,10.25,11.54c5.81,12.32,8.83,25.46,11.15,38.75,7.85,45.14,8.79,90.75,9,136.4,0,4.61-2.3,6.83-7,6.86-9.49.05-19,0-29,0v4.15q0,18,0,36c0,5.85-2,7.85-7.9,7.85H43.85c-5.87,0-7.85-2-7.86-7.89q0-17.82,0-35.64v-4.49H12.58c-1.75,0-3.5,0-5.25,0C2.16,312.11-.07,310,0,304.9c.26-17.5,0-35,1.07-52.49,1.58-24.8,3.86-49.57,6.54-74.28a169.18,169.18,0,0,1,10.44-43.21c2.93-7.53,7.17-13.63,14.61-17.77C43.2,111.29,53.23,104.49,63.23,98.25ZM179.75,348V306.18c-9.62,0-19,0-28.34,0-5.19,0-7.38-2.14-7.39-7.22q0-28.87,0-57.75c0-4.87,2.24-7,7.19-7,8.37,0,16.75,0,25.12,0H180c0-23.09.21-45.59-.08-68.08-.15-11.8,2.17-22.8,7.93-33.08.83-1.48,1.49-3.06,2.3-4.73l-36-22.5c-13.84,9.52-28.73,15.6-46,14.18V348ZM37.87,128.27c.85,1.77,1.4,3.16,2.13,4.44,5.93,10.5,8.25,21.75,8.07,33.81-.31,21.12-.08,42.25-.08,63.38v4.25c9.93,0,19.41,0,28.88,0,4.75,0,7.09,2.19,7.1,6.75q.07,29.25,0,58.51c0,4.43-2.3,6.7-6.73,6.74-8.5.07-17,0-25.5,0-1.2,0-2.39.1-3.57.16V348H96V121.28A7,7,0,0,0,96,119c-.35-.91-.83-2.1-1.6-2.48-6.89-3.44-13.85-6.74-21.28-10.31Zm-8.39,10.57c-.73,1.89-1.32,3.26-1.79,4.66-6.35,19.08-9.5,38.82-11.09,58.74-2,24.52-3.06,49.11-4.3,73.68-.4,7.95-.06,15.92-.06,24H35.85c.06-.82.13-1.42.13-2q0-68.79,0-137.58C35.92,152.82,33.58,145.87,29.48,138.84Zm169.88.3A37.38,37.38,0,0,0,192,162q0,67.28,0,134.56V300h24c0-1.56,0-2.92,0-4.27-.5-18.73-.69-37.47-1.62-56.18-1.21-24.58-3.2-49.11-8.18-73.27C204.31,157.13,201.66,148.17,199.36,139.14ZM164,55.88a7.19,7.19,0,0,0-.39-1.19q-10.56-19.41-21.13-38.83C141,13,138.58,12,135.41,12c-14.13.08-28.26.12-42.38,0-3.84,0-6.3,1.38-8.1,4.76-6.6,12.34-13.36,24.58-20,36.87-.38.68-.64,1.43-1,2.33C97.38,45.32,130.5,45.35,164,55.88Zm-50.1,3.81c-7.46.64-14.78,1.37-22.12,1.84A4.51,4.51,0,0,0,87.27,65a55,55,0,0,0-1.74,31.68,6.85,6.85,0,0,0,2.9,3.88c17.13,10,34.33,9.86,51.44-.11a5.41,5.41,0,0,0,2.46-3,53.52,53.52,0,0,0-2-33.06A5,5,0,0,0,137,61.77C129.29,60.89,121.58,60.35,113.94,59.69ZM71.83,270.44H48.29V294H71.83Zm84.34,23.47h23.54V270.37H156.17ZM71.82,246.42H48.29V258H71.82Zm108-.06H156.25v11.53h23.59ZM171.6,74.19l-.42-1.54-17.12-7.6c.87,8.17,1.67,15.7,2.48,23.24ZM71.51,88c.78-7.4,1.57-14.86,2.42-22.94l-18.42,8.2Z"/><path d="M126.29,132.14a6,6,0,1,1-6.26,5.67A6,6,0,0,1,126.29,132.14Z"/><path d="M125.85,180.16a6,6,0,1,1-5.82,6.12A6,6,0,0,1,125.85,180.16Z"/><path d="M125.82,240.12a6,6,0,1,1,6.15-5.79A6,6,0,0,1,125.82,240.12Z"/><path d="M126,276.2a6,6,0,1,1-6,6A6,6,0,0,1,126,276.2Z"/></g></g></svg>