<svg xmlns="http://www.w3.org/2000/svg" viewBox="0 0 375.07 384"><g id="katman_2" data-name="katman 2"><g id="katman_1-2" data-name="katman 1"><path d="M177.81,0h63c9.44,3.22,13.67,9.8,13,19.74-.25,3.61,0,7.25,0,10.87V41c5.43,0,10.28,0,15.13,0,12.21.15,22.12,5.09,29.13,15q35.42,50.24,70.53,100.68a36,36,0,0,1,6.53,21.13c0,12.75,0,25.5,0,38.25,0,4.66-2.09,7.33-5.63,7.34s-5.6-2.66-5.6-7.34c0-12-.16-24,.05-36a31.2,31.2,0,0,0-6.06-19.23q-32.47-46.11-64.74-92.38c-.68-1-1.44-1.89-2.83-3.71,0,8.2-.1,15.38,0,22.56.11,6.56.11,13-4.85,18.22,4.11,4.77,5,10.05,4.87,15.72q-.24,12.93,0,25.87c.1,6.34-.13,12.52-4.71,17.35,1.05,1.74,2.25,3,2.65,4.53.93,3.44,3.38,4.76,6.43,6,8.7,3.44,17.29,7.17,25.92,10.77,5.55,2.31,5.92,2.84,5.92,8.93q0,48,0,96v4.58h37.33v-4.22q0-22.68,0-45.37c0-4.59,2.19-7.27,5.76-7.16s5.47,2.69,5.47,7.1q0,35.63,0,71.25c0,8.61-5.45,14-14.11,14-10,.05-20,0-30,0-10.87,0-15.7-4.88-15.71-15.85V205.55c0-9.83,0-9.84-9.16-13.65-5.13-2.13-10.27-4.23-15.83-6.53,0,7.5-.13,14.37,0,21.22.15,6.25-.29,12.26-4.85,17.21,4.05,4.64,5,9.91,4.86,15.59q-.24,13.13,0,26.25c.11,6.24-.26,12.27-3.89,16.19,1.46,5,3.55,9.11,3.68,13.25.44,13.61.23,27.24.13,40.87,0,5.53-1.89,10.95-6.71,13.52-5.41,2.89-5.81,6.88-5.39,11.86.16,2-.1,4,.05,6,.58,8.07-2.6,13.76-10.32,16.67H107.31c-7.73-2.91-10.83-8.6-10.33-16.67a99.92,99.92,0,0,0,0-12,4.72,4.72,0,0,0-2-3.4c-6.83-3.73-10.06-9.46-10.07-17.12,0-12,.09-24,0-36-.08-5.79.7-11.2,4.85-15.95-4.61-5-5-11-4.85-17.23.16-7.49.09-15,0-22.49-.07-6.89-.52-13.83,4.94-19.33-5.29-5.61-5-12.17-5-18.71s0-12.83,0-19.78c-8.25,3.43-15.87,6.52-23.37,9.85-.86.38-1.52,2.13-1.56,3.26-.15,5.62,0,11.25-.09,16.87-.06,4.15-2.18,6.6-5.54,6.69s-5.65-2.45-5.68-6.81c0-7.13.15-14.26-.07-21.38-.13-4.15,1.62-6.37,5.38-7.87,9.63-3.82,19.16-7.88,28.68-11.94a6.88,6.88,0,0,0,3-2.39c1.38-2.19,2.4-4.61,3.72-7.24-4-4.48-4.66-10.19-4.53-16.21.16-7.5.06-15,0-22.5,0-7.11-.72-14.35,4.88-20-4.06-4.59-5-9.62-4.9-15,.13-6.87,0-13.75,0-20.62V64.79c-1.17,1.48-1.65,2-2.06,2.62Q49.51,115,16.2,162.58a26.77,26.77,0,0,0-4.9,15.82q.06,56.63,0,113.24c0,1.2.11,2.4.17,3.55H48.65v-4.34q0-23.43,0-46.87c0-4.36,2.18-7,5.61-6.92s5.61,2.65,5.61,7c0,24.25.07,48.5,0,72.74,0,8.69-5.46,14-14.09,14.05-10,.05-20,0-30,0-10.93,0-15.71-4.81-15.71-15.8,0-44.87.09-89.75-.07-134.62a43.66,43.66,0,0,1,8.25-26.26c22.12-31.33,44.28-62.64,65.93-94.29,9.11-13.32,20.91-19.88,37-19,3.32.17,6.65,0,10.25,0,0-7.34.32-14.09-.08-20.81-.59-10,3.33-16.85,13-20.11h21c2.34,2,4.3,4.3,2.95,7.68s-4.33,3.66-7.49,3.59c-4.24-.08-8.49,0-12.73,0-2.84,0-5.15,1.28-5.23,4.24-.21,8.33-.07,16.66-.07,25.14H242.49c0-7.62,0-15,0-22.33,0-5.64-1.44-7-7.08-7.06q-27,0-53.94,0c-3.24,0-6.14-.48-7.26-3.92S175,1.66,177.81,0Zm3.87,111.5a21.43,21.43,0,0,0-2.4-.3q-37.67,0-75.34,0c-5.35,0-7.75,2.52-7.77,7.89q-.08,15.75,0,31.48c0,6.33,2.2,8.46,8.64,8.46h76.88Zm0,59c-.93-.1-1.41-.19-1.9-.19q-38.06,0-76.12,0c-5.16,0-7.5,2.62-7.52,8.13,0,10.25,0,20.5,0,30.75,0,6.89,2.1,9,8.91,9H181.7ZM193.43,218c.81.09,1.42.22,2,.22q38.06,0,76.12,0c5,0,7.37-2.62,7.39-7.87.06-10.37,0-20.75,0-31.12,0-6.79-2.15-8.9-9-8.9H193.43Zm0-59.1c.9.07,1.51.16,2.11.16q38,0,76.09,0c4.89,0,7.32-2.47,7.36-7.47.07-10.37,0-20.74,0-31.1,0-7.27-2-9.28-9.43-9.28H193.4ZM181.71,52.48a14,14,0,0,0-1.79-.27c-24.25,0-48.5-.09-72.75,0-7.07,0-11,4.25-11,11.44-.07,9.13,0,18.25,0,27.37,0,6.89,2,8.89,8.95,8.89h72.76c1.21,0,2.43-.12,3.85-.19Zm11.62,47.28c1.5.07,2.6.17,3.7.17q36.75,0,73.5,0c6.34,0,8.43-2.17,8.45-8.65q0-13.12,0-26.24c0-9.08-3.68-12.85-12.66-12.86q-34.5,0-69,0c-1.31,0-2.62.14-4,.21ZM117.89,288.61c-4.76,0-9.1,0-13.44,0-6.13,0-8.28,2.19-8.29,8.4q0,18.36,0,36.72c0,6.52,2.23,8.75,8.82,8.75,24.36,0,48.72-.05,73.08.08,3.18,0,4-1,3.95-4-.14-15.36-.06-30.73-.08-46.09,0-1.19-.15-2.38-.24-3.57H153.44c0,8.23,0,16.2,0,24.18,0,5.42-1.85,7.23-7.16,7.25q-10.5,0-21,0c-5.51,0-7.35-1.87-7.37-7.46C117.87,305,117.89,297.12,117.89,288.61Zm75.51,53.67c1.07.1,1.68.21,2.29.21H271a12.54,12.54,0,0,0,1.5-.06c3.89-.46,6.35-2.68,6.39-6.55q.19-20.43,0-40.85c0-3.32-1.91-6-5.35-6.22-5.3-.35-10.64-.09-16.31-.09v22.74c0,7.5-1.37,8.85-9,8.85h-18c-7.17,0-8.55-1.36-8.56-8.5,0-7.58,0-15.17,0-22.9H193.4ZM108.27,354c0,4.59,0,8.93,0,13.27,0,5.47,0,5.48,5.34,5.48H261.7c.87,0,1.89.27,2.59-.09,1-.48,2.37-1.42,2.4-2.21.21-5.45.11-10.91.11-16.45Zm45.17-76.9h28.24V229.9a3.5,3.5,0,0,0-.93-.35q-39,0-78,0c-3.95,0-6.5,2.62-6.54,6.73-.12,11.37-.1,22.75,0,34.12,0,4,2.3,6.63,6.07,6.84,5.07.29,10.16.07,15.62.07,0-8.21,0-16,0-23.9,0-6.19,1.82-8,8.11-8,5.75,0,11.5,0,17.25,0,9.19,0,10.19,1,10.19,10Zm40.07-47.63v47.6h28.18c0-8.39-.05-16.5,0-24.61,0-5.07,2-7,7.1-7.06,7.12-.06,14.25-.07,21.37,0,5,.05,7,2.11,7.05,7.15,0,4.63,0,9.25,0,13.88V277c1,.17,1.32.29,1.68.3,4,0,8,.07,12,0,5.59-.08,8-2.48,8.05-8q.06-15.94,0-31.87c0-5.65-2.37-8-8-8q-37.32,0-74.63,0Zm-51.58,79.44v-52h-12.5v52Zm91.29-52.07v52h12.44v-52Zm-221.89,50a98.76,98.76,0,0,0,.12,9.95c.11,1,1.64,2.67,2.54,2.69,10.6.19,21.21.18,31.82,0a3.6,3.6,0,0,0,2.67-2.2c.3-3.43.13-6.89.13-10.47Zm352.06.14h-36.9c0,3.13.12,6,0,8.83s1.09,3.91,4,3.85c7.36-.14,14.73,0,22.09,0,12.16,0,12.16,0,11.18-12.15C363.69,307.38,363.57,307.29,363.39,307Z"/></g></g></svg>