<?xml version="1.0" encoding="utf-8"?>
<!-- Generator: Adobe Illustrator 25.4.1, SVG Export Plug-In . SVG Version: 6.00 Build 0)  -->
<svg version="1.1" id="Warstwa_1" xmlns="http://www.w3.org/2000/svg" xmlns:xlink="http://www.w3.org/1999/xlink" x="0px" y="0px"
	 viewBox="0 0 500 500" style="enable-background:new 0 0 500 500;" xml:space="preserve">
<style type="text/css">
	.st0{fill:#848484;}
	.st1{fill:#000000;}
	.st2{fill:none;stroke:#000000;stroke-width:12;stroke-linecap:round;stroke-linejoin:round;stroke-miterlimit:10;}
	.st3{fill:none;stroke:#848484;stroke-width:12;stroke-linecap:round;stroke-linejoin:round;stroke-miterlimit:10;}
	.st4{fill:#848484;}
</style>
<path class="st0" d="M311.69,277.07c-9.72,0-14.88-3.88-19.03-6.99c-3.55-2.66-6.11-4.59-11.83-4.59c-5.7,0-8.26,1.92-11.81,4.58
	c-4.15,3.12-9.31,6.99-19.03,6.99c-9.72,0-14.88-3.88-19.03-6.99c-3.55-2.66-6.11-4.59-11.83-4.59s-8.28,1.92-11.83,4.59
	c-4.15,3.11-9.32,6.99-19.03,6.99c-9.7,0-14.87-3.87-19.01-6.99c-1.62-1.21-3.02-2.26-4.6-3.06c-2.96-1.49-4.16-5.09-2.67-8.05
	c1.49-2.96,5.09-4.16,8.05-2.67c2.55,1.28,4.61,2.82,6.43,4.19c3.55,2.66,6.11,4.59,11.81,4.59c5.71,0,8.28-1.92,11.83-4.59
	c4.15-3.11,9.32-6.99,19.03-6.99s14.88,3.88,19.03,6.99c3.55,2.66,6.11,4.59,11.83,4.59s8.28-1.93,11.83-4.59
	c4.15-3.11,9.31-6.99,19.01-6.99c9.72,0,14.88,3.88,19.03,6.99c3.55,2.66,6.11,4.59,11.83,4.59c5.72,0,8.28-1.92,11.83-4.59
	c1.99-1.49,4.24-3.18,7.13-4.52c3-1.4,6.57-0.09,7.97,2.91c1.4,3,0.09,6.57-2.91,7.97c-1.74,0.81-3.24,1.94-4.98,3.24
	C326.57,273.2,321.41,277.07,311.69,277.07z"/>
<path class="st0" d="M230,212.52c-0.48,0-0.96-0.06-1.45-0.18c-3.22-0.8-5.18-4.05-4.38-7.27l11.27-45.56
	c0.79-3.22,4.06-5.18,7.26-4.38c3.22,0.8,5.18,4.05,4.38,7.27l-11.27,45.56C235.15,210.69,232.7,212.52,230,212.52z"/>
<path class="st0" d="M272.58,212.06c-2.69,0-5.14-1.83-5.82-4.56l-11.27-45.56c-0.8-3.22,1.17-6.47,4.38-7.27
	c3.21-0.8,6.47,1.17,7.26,4.38l11.27,45.56c0.8,3.22-1.17,6.47-4.38,7.27C273.54,212.01,273.06,212.06,272.58,212.06z"/>
<path class="st1" d="M89.88,416.4c-1.17,0-2.34-0.34-3.38-1.05c-2.74-1.87-3.44-5.6-1.57-8.34
	c29.76-43.56,79.54-152.95,106.29-211.71c5.84-12.84,10.89-23.93,14.42-31.46c4.85-10.34,14.87-15.23,24.38-11.88
	c13.08,4.61,26.9,4.61,39.97,0l0.35-0.12c9.23-3.25,19.14,1.38,24.08,11.27c5.77,11.55,14.91,31.62,25.5,54.87
	c27.31,59.96,68.59,150.57,95.13,189c1.88,2.73,1.2,6.46-1.53,8.35c-2.73,1.88-6.46,1.2-8.35-1.53
	c-27.15-39.31-67.05-126.9-96.18-190.85c-10.54-23.14-19.65-43.13-25.32-54.48c-2.22-4.45-5.9-6.54-9.37-5.31l-0.35,0.12
	c-15.68,5.53-32.26,5.52-47.95,0c-3.53-1.25-7.36,1.03-9.53,5.65c-3.5,7.47-8.53,18.53-14.36,31.34
	c-26.89,59.1-76.96,169.1-107.3,213.51C93.67,415.49,91.79,416.4,89.88,416.4z"/>
<g>
	<g>
		<path class="st0" d="M113.17,206.44c-0.94,0-1.9-0.22-2.79-0.69c-2.93-1.54-4.06-5.17-2.51-8.1l9.12-17.31
			c1.54-2.93,5.17-4.06,8.11-2.51c2.93,1.54,4.06,5.17,2.51,8.1l-9.12,17.31C117.41,205.28,115.32,206.44,113.17,206.44z"/>
		<path class="st0" d="M132.83,169.11c-0.94,0-1.9-0.22-2.79-0.69c-2.93-1.55-4.05-5.17-2.51-8.11
			c22.28-42.26,46.07-64.43,70.71-65.91c26.95-1.61,43.82,22.28,44.52,23.29c1.88,2.73,1.2,6.46-1.53,8.35
			c-2.72,1.88-6.45,1.2-8.34-1.51l0,0c-0.14-0.19-13.83-19.43-34.03-18.15c-19.85,1.24-40.85,21.83-60.73,59.52
			C137.07,167.95,134.99,169.11,132.83,169.11z"/>
	</g>
	<g>
		<path class="st0" d="M386.83,206.44c-2.16,0-4.24-1.16-5.31-3.2l-9.12-17.31c-1.54-2.93-0.42-6.56,2.51-8.1
			c2.93-1.54,6.56-0.42,8.11,2.51l9.12,17.31c1.54,2.93,0.42,6.56-2.51,8.1C388.73,206.22,387.78,206.44,386.83,206.44z"/>
		<path class="st0" d="M367.17,169.11c-2.15,0-4.24-1.16-5.31-3.2c-19.91-37.75-40.94-58.34-60.81-59.53
			c-20.35-1.23-33.8,17.94-33.93,18.14c-1.88,2.73-5.62,3.41-8.35,1.52s-3.41-5.62-1.53-8.35c0.7-1.02,17.56-24.91,44.52-23.29
			c24.64,1.47,48.43,23.65,70.71,65.91c1.54,2.93,0.42,6.56-2.51,8.11C369.07,168.89,368.11,169.11,367.17,169.11z"/>
	</g>
</g>
<g>
	<path class="st0" d="M158.31,201.11c-0.91,0-1.83-0.21-2.7-0.65c-2.96-1.5-4.14-5.1-2.65-8.06l14.33-28.33
		c1.5-2.96,5.1-4.14,8.06-2.65c2.96,1.5,4.14,5.1,2.65,8.06l-14.33,28.33C162.61,199.91,160.5,201.11,158.31,201.11z"/>
	<path class="st0" d="M341.69,201.11c-2.19,0-4.3-1.21-5.36-3.29L322,169.48c-1.5-2.96-0.31-6.57,2.65-8.06
		c2.96-1.5,6.57-0.31,8.06,2.65l14.33,28.33c1.5,2.96,0.31,6.57-2.65,8.06C343.52,200.9,342.6,201.11,341.69,201.11z"/>
</g>
<g>
	<path class="st1" d="M336.85,415.67c-2.47,0-4.78-1.53-5.65-3.99c-0.18-0.51-18.5-51.8-36.56-93.16c-1.33-3.04,0.06-6.57,3.1-7.9
		c3.04-1.33,6.57,0.06,7.9,3.1c18.23,41.75,36.68,93.41,36.86,93.93c1.11,3.12-0.52,6.55-3.64,7.67
		C338.2,415.56,337.52,415.67,336.85,415.67z"/>
	<path class="st1" d="M163.15,415.67c-0.67,0-1.35-0.11-2.01-0.35c-3.12-1.11-4.75-4.54-3.64-7.67
		c0.18-0.52,18.64-52.18,36.86-93.93c1.33-3.04,4.87-4.42,7.9-3.1c3.04,1.33,4.42,4.86,3.1,7.9
		c-18.06,41.36-36.38,92.64-36.56,93.16C167.93,414.14,165.62,415.67,163.15,415.67z"/>
</g>
<path class="st1" d="M250,416.11c-3.31,0-6-2.69-6-6v-65.18c0-3.31,2.69-6,6-6s6,2.69,6,6v65.18
	C256,413.42,253.31,416.11,250,416.11z"/>
<path class="st1" d="M410.12,416.4H89.88c-3.31,0-6-2.69-6-6s2.69-6,6-6h320.24c3.31,0,6,2.69,6,6S413.43,416.4,410.12,416.4z"/>
</svg>
