<?xml version="1.0" encoding="utf-8"?>
<!-- Generator: Adobe Illustrator 26.0.0, SVG Export Plug-In . SVG Version: 6.00 Build 0)  -->
<svg version="1.1" id="katman_1" xmlns="http://www.w3.org/2000/svg" xmlns:xlink="http://www.w3.org/1999/xlink" x="0px" y="0px"
	 viewBox="0 0 49.2 56.9" style="enable-background:new 0 0 49.2 56.9;" xml:space="preserve">
<g id="Layer_18">
	<path d="M48.8,24.6C48.7,24.6,48.7,24.6,48.8,24.6c-2.1-5.9-4.6-11.6-7.5-17.1c-2.4-1.5-5.6-2.6-9.5-4.2c0,0-1.9-2.8-2-2.8l0,0
		c-0.1-0.1-0.2-0.2-0.3-0.2c-4.4-0.5-7.7-0.5-9.9,0l0,0c-0.1,0-0.1,0-0.1,0.1l0,0l-0.1,0.1l0,0l-1.9,2.8c-0.9,0.2-3.1,1.2-9,3.8
		C8.2,7.2,8.1,7.3,8.1,7.4c-2.5,4.8-4.9,10.2-7.3,16.1c0,0,0,0.1,0,0.1c-0.2,0.5-0.4,1-0.6,1.5s-0.4,0.9,0.2,1.1
		c2.1,0.5,4.9,1.9,8.5,4.3c0.2,0.2,0.5,0.1,0.7-0.1C8.9,39.2,9,48,9.7,56.7l0,0l0.1,0.1l0,0c0.1,0.1,0.1,0.1,0.2,0.1l0,0h0.1
		c9.2-0.7,18.8-1,28.5-0.8c0.3,0,0.5-0.2,0.5-0.5c0.7-8.5,0.7-17.1,0.2-25.6c0.2,0.3,0.6,1.1,1.1,0.7s2.2-1.3,8.5-4.3
		C49.6,26,48.8,25.2,48.8,24.6z M29.8,2.3l1.1,1.5C30.5,6.3,30,8.7,29.4,11l-2.7-0.7C28.5,8.6,29.6,6,29.8,2.3z M28.9,1.3
		c-0.2,4.2-1.3,7.1-3.5,8.7h-1.8c-2.2-1.6-3.3-4.5-3.5-8.8C23.1,0.9,26,0.9,28.9,1.3L28.9,1.3z M25,11v7.9h-1V11H25z M19.2,2.3
		c0.3,3.6,1.3,6.3,3.1,8L19.7,11c-0.6-2.4-1.2-4.7-1.5-7.1L19.2,2.3z M9,29.4c-2.4-1.7-5.1-3.1-7.9-4.1l0.4-1c2.9,0.9,5.6,2.4,8,4.4
		L9,29.4z M39.1,27.8c-0.3-5.8,0.1-11.6,1.3-17.2c0.1-0.3-0.1-0.5-0.4-0.6c-0.3-0.1-0.5,0.1-0.6,0.4c-1.2,5.9-1.7,12-1.3,18l0,0
		c0.7,8.9,0.7,17.9,0,26.8c-9.4-0.1-18.6,0.2-27.6,0.8c-0.7-9.1-0.7-18.1,0-27.2c0.7-3.1,0.4-8.1-0.8-15.5c0-0.3-0.3-0.5-0.6-0.4
		s-0.5,0.3-0.4,0.6c1.1,6.5,1.4,11.3,1,14.3c-2.3-1.9-5-3.3-7.9-4.3c2.3-5.7,4.6-10.9,7-15.5c5.2-2.3,7.5-3.2,8.4-3.6
		c0.4,2.5,1,5,1.6,7.4c0.1,0.3,0.3,0.4,0.6,0.3l3.5-0.9v8.2c0,0.3,0.2,0.5,0.5,0.5h2c0.3,0,0.5-0.2,0.5-0.5v-8.3l3.6,0.9
		c0.3,0.1,0.5-0.1,0.6-0.3c0.7-2.4,1.2-4.9,1.6-7.3c3,1.1,5.8,2.3,8.7,3.7c2.7,5.2,5.1,10.7,7.1,16.2C44.5,24.5,41.5,25.8,39.1,27.8
		z M40.2,29.7l-0.6-0.9c2.3-2.1,5.2-3.3,8.3-3.5c0,0.2,0.1,0.3,0.2,0.5C43.9,27.7,41.3,29,40.2,29.7z"/>
	<path d="M16.4,26c1.5,8.3,1.9,16.7,1.4,25.2c0,0.3,0.2,0.5,0.5,0.5s0.5-0.2,0.5-0.5c0.5-8.5,0-17-1.4-25.3
		c-0.1-0.3-0.3-0.4-0.6-0.4C16.5,25.6,16.4,25.8,16.4,26z"/>
	<path d="M41.7,12.1c0-0.3-0.2-0.5-0.5-0.5c-0.3,0-0.5,0.2-0.5,0.5c0.2,4.3,0,8.6-0.7,12.8c0,0.3,0.1,0.5,0.4,0.6c0,0,0.1,0,0.1,0
		c0.2,0,0.5-0.2,0.5-0.4C41.7,20.8,42,16.4,41.7,12.1z"/>
	<path d="M33.8,38.6c0.1-0.3-0.1-0.6-0.4-0.6c-0.3-0.1-0.6,0.1-0.6,0.3c-1.1,3.7-1.1,8.1,0.2,13.4c0.1,0.3,0.3,0.5,0.6,0.4
		s0.5-0.3,0.4-0.6l0,0C32.8,46.3,32.7,42,33.8,38.6z"/>
</g>
</svg>
