<?xml version="1.0" encoding="utf-8"?>
<!-- Generator: Adobe Illustrator 26.0.0, SVG Export Plug-In . SVG Version: 6.00 Build 0)  -->
<svg version="1.1" id="katman_1" xmlns="http://www.w3.org/2000/svg" xmlns:xlink="http://www.w3.org/1999/xlink" x="0px" y="0px"
	 viewBox="0 0 47.9 56.9" style="enable-background:new 0 0 47.9 56.9;" xml:space="preserve">
<g id="Layer_20">
	<path d="M27,20.1c-0.3,0-0.5,0.2-0.5,0.5c-0.3,7.3-0.4,13-0.2,17.1c0,0.3,0.2,0.5,0.5,0.5s0.5-0.2,0.5-0.5c-0.2-4.1-0.1-9.8,0.2-17
		c0.1-0.3-0.1-0.5-0.4-0.6C27.1,20.1,27.1,20.1,27,20.1z"/>
	<path d="M47.7,13.3c-2.9-2.9-5.6-6.1-7.8-9.5C37,2.1,33.9,0.9,30.6,0c-0.1,0-0.3,0-0.4,0.1l0,0C24.7,3.8,20.4,3.8,17,0.2
		c-0.5-0.4-1,0.1-1.6,0.2l0,0h0l-1.2,0.4h-0.1c-1.5,0.7-4.6,1.6-6.7,2.9c-1.9,4-4.3,7.6-7.2,10.9c-0.2,0.2-0.2,0.5,0,0.7
		c0,0,0,0,0.1,0c3.1,2.2,5.9,4.8,8.4,7.6c0.1,0.2,0.4,0.2,0.5,0.1c-0.1,1-0.2,1.9-0.4,2.6c0.2,6.8,0,15.6-0.6,26.4l0,0
		C8.1,53.5,8,54.9,8,56.4c0,0.3,0.2,0.5,0.5,0.5c0,0,0,0,0,0c1-0.3,2.6-0.6,8.9-0.4c1.7,0.2,3.4,0.3,5.1,0.2h0.1
		c1.3,0,2.6-0.1,3.9-0.4c5.8-0.6,10.3-0.6,13.3,0c0.1,0,0.3,0,0.4-0.1c0.8-8.8-0.2-20.3-1.2-34.4l0,0c0.1,0.1,0.2,0.2,0.4,0.2
		c0.1,0,0.3-0.1,0.4-0.2c2.5-2.8,5.1-5.4,8-7.8C47.9,13.8,47.9,13.5,47.7,13.3z M16.5,1.1C20,4.7,24.5,4.8,30,1.4c0,0.2,0,0.4,0,0.6
		c-5.2,3.1-9.7,3-13.8-0.3c0-0.2-0.1-0.3-0.1-0.4L16.5,1.1z M30,3.2c-0.2,4.8-2.1,8.3-5.4,10.7c-0.3,0.2-0.7,0.2-1.1,0
		c-2.6-1.5-4.9-5-6.8-10.5C20.7,5.9,25.2,5.8,30,3.2z M15.1,1.5c0,0.2,0.1,0.4,0.2,0.6l0,0C17.4,8.7,20,12.9,23,14.6
		c0.7,0.4,1.5,0.4,2.1-0.1C29,12,30.9,7.8,31,2.3V2.2c0-0.3,0-0.7,0-1.1l0.2,0.1c-0.2,7.1-2.6,11.9-7,14.1
		c-2.6,0.8-6.7-6.4-9.4-13.8L15.1,1.5z M39.4,20.7c-0.3-0.3-0.5-0.7-0.6-1.1l0,0l0,0l0,0c-0.7-4.2-1-8.4-0.9-12.6
		c0-0.3-0.2-0.5-0.5-0.5c-0.3,0-0.5,0.2-0.5,0.5c-0.1,4.3,0.1,8.5,0.8,12.7l0,0c1.2,11.8,1.7,23.7,1.5,35.6
		c-1.7-0.3-3.5-0.4-5.2-0.4c1.6-3.4,1.7-10.2,0.5-21.1c0-0.3-0.3-0.5-0.6-0.4s-0.5,0.3-0.4,0.6c1.2,10.5,1,17.4-0.3,20.5
		c-0.1,0.2-0.1,0.4,0.1,0.5c-1.6,0-3.3,0.1-5.2,0.3c0.8-5.5,1.6-12.9,2.4-21.9c0-0.3-0.2-0.5-0.5-0.5c-0.3,0-0.5,0.2-0.5,0.5
		c-0.8,9.1-1.6,16.6-2.4,22.1c-0.3,0-0.6,0-0.9,0.1c-1,0.2-2,0.3-3.1,0.3c1.5-4.9,2.1-10,1.6-15c0-0.3-0.3-0.5-0.5-0.5
		c-0.3,0-0.5,0.3-0.5,0.5c0.5,5.1-0.1,10.2-1.6,15c-1.1,0-2.3,0-3.6-0.2C17,52.1,16.2,45.4,16,35.7c0-0.3-0.2-0.5-0.5-0.5
		S15,35.5,15,35.7c0.1,9.4,0.9,16.1,2.3,19.8l0,0c-2.8-0.2-5.6-0.1-8.4,0.2c0.1-1.2,0.1-2.3,0.2-3.4C12,48.6,13,43,12.3,35.8
		c0-0.3-0.3-0.5-0.5-0.5s-0.5,0.3-0.5,0.5c0.6,6.1-0.1,11-2,14.5c0.5-9.9,0.7-18.2,0.5-24.6c0.3-1.7,0.5-3.4,0.5-5.1
		c0-0.1,0-0.2,0-0.3v0c0.1-3,0-6.8-0.2-11.3c0-0.3-0.3-0.5-0.5-0.5c-0.3,0-0.5,0.3-0.5,0.5c0.3,4.6,0.4,8.4,0.2,11.4
		c0,0.5-0.1,0.9-0.3,1.3c-2.4-2.6-5-5-7.8-7.1C4,11.7,6.4,8.2,8.2,4.3c2.3-1,4.2-1.8,5.8-2.4c1.1,3,6,15.8,10.7,14.3
		C27.7,14.7,30,12,31,8.7c0.2,1.1,0.1,2.1-0.2,3.1c-0.1,0.3,0,0.6,0.3,0.7c1.3,0.3,1.1-3.2,0.9-4.7c-0.1-0.2-0.3-0.4-0.5-0.4
		c0.5-1.9,0.8-3.9,0.8-5.9c2.4,0.8,4.7,1.7,6.9,2.9c2.2,3.3,4.7,6.4,7.5,9.2C44.1,15.8,41.6,18.2,39.4,20.7L39.4,20.7z"/>
</g>
</svg>
