<?xml version="1.0" encoding="utf-8"?>
<!-- Generator: Adobe Illustrator 26.0.0, SVG Export Plug-In . SVG Version: 6.00 Build 0)  -->
<svg version="1.1" id="katman_1" xmlns="http://www.w3.org/2000/svg" xmlns:xlink="http://www.w3.org/1999/xlink" x="0px" y="0px"
	 viewBox="0 0 56.7 57" style="enable-background:new 0 0 56.7 57;" xml:space="preserve">
<g id="Layer_17">
	<path d="M56.6,18.3c-3.8-5.2-6.8-9.7-9.6-13.2c-3.8-1.7-7.6-3.2-11.5-4.5l-0.1-0.1c-0.6-0.1-1.2-0.6-1.8-0.5l0,0
		c-3.4,2.1-6.7,2.2-9.9,0.2c-0.1,0-0.2,0-0.3,0c-0.7,0.1-1.3,0.3-1.9,0.6h-0.1c-4.1,1.2-8,3-11.7,5.1C6.8,10.6,3.6,15,0.1,19.3
		C-0.1,19.5,0,19.8,0.2,20c0,0,0.1,0.1,0.2,0.1c4.3,1.3,7.5,3.4,9.3,6.2l0,0c0,0.1,0.1,0.1,0.1,0.1l0,0l0.1,0l0,0
		c0.1,0,0.3,0,0.4-0.1c0.8-0.6,1.7-1,2.6-1.4c0,1.3-0.1,2.6-0.3,3.8c-0.1,10.7-0.3,19.8-0.6,27c0,0.3,0.2,0.5,0.5,0.5
		c0,0,0.1,0,0.1,0c5.3-0.5,10.7-0.5,16-0.1C34.3,55.7,40,56,45.5,57l0,0c0.1,0,0.3,0,0.4-0.1l0,0c0.1-0.1,0.2-0.2,0.2-0.4
		c0.5-5.1,0.2-13-0.8-23.4c-0.2-2.8-0.2-5.6-0.2-8.5l1.7,0.6c0.2,0.1,0.4,0,0.5-0.1c2.6-2.6,5.6-4.7,9-6.1
		C56.6,19,56.7,18.7,56.6,18.3C56.6,18.4,56.6,18.4,56.6,18.3z M33.3,1.3c0.5,6.8-9.2,6.5-9.5,0.2C26.9,3.1,30.4,3,33.3,1.3z
		 M22.9,1.4c0,7.3,11.9,8.6,11.5-0.2l0.5,0.2c-0.1,4.1-2.1,6.2-6.2,6.6c-3.6-0.4-5.8-2.5-6.5-6.4L22.9,1.4z M46.9,24.3l-1.7-0.6
		c0.1-3.2,0.4-6.5,0.8-9.8c0-0.3-0.2-0.5-0.4-0.6c-0.3,0-0.5,0.2-0.6,0.4l0,0c-0.4,3.5-0.7,6.9-0.8,10.2V24c-0.1,3.2,0,6.3,0.1,9.3
		c1,10,1.2,17.6,0.9,22.6c-5.5-0.9-11-1.1-16.5-0.6c-5.2-0.4-10.4-0.4-15.5,0c0.2-7.1,0.4-16,0.6-26.4c0.2-1.5,0.3-3,0.3-4.5v-0.1
		c-0.1-5.2-0.9-10.4-2.4-15.4c-0.1-0.3-0.4-0.4-0.6-0.4c-0.3,0.1-0.4,0.4-0.4,0.6C12,14,12.9,19,13,24c-1,0.3-1.9,0.8-2.7,1.3
		c-2.3-2.9-5.4-5-8.9-6c3.3-4.1,6.3-8.4,9.1-12.8c3.4-1.9,7-3.4,10.7-4.6C22,6.2,24.4,8.6,28.5,9h0.1c4.6-0.4,7-2.9,7.2-7.3
		C39.4,3,43,4.4,46.5,5.9c2.5,3.4,5.5,7.6,9,12.5C52.3,19.9,49.4,21.8,46.9,24.3z"/>
	<path d="M8.9,11.7c1.4,3.7,1.7,7.7,1,11.6c0,0.3,0.1,0.5,0.4,0.6c0.3,0,0.5-0.1,0.6-0.4c0.8-4,0.4-8.2-1-12.1
		C9.8,11,9.5,10.9,9.2,11C9,11.1,8.8,11.4,8.9,11.7L8.9,11.7z"/>
	<path d="M48.1,21.6c0.3,0,0.5-0.2,0.5-0.5c0,0,0-0.1,0-0.1c-0.9-3.9-1.3-7.9-0.9-11.9c0-0.3-0.2-0.5-0.5-0.5s-0.5,0.2-0.5,0.5
		c-0.3,4.1,0,8.2,1,12.2C47.8,21.5,47.9,21.6,48.1,21.6z"/>
</g>
</svg>
