<svg xmlns="http://www.w3.org/2000/svg" viewBox="0 0 372.17 372.28"><g id="katman_2" data-name="katman 2"><g id="katman_1-2" data-name="katman 1"><path d="M300.11,180.12v4.77q0,89.12,0,178.21c0,7.6-1.55,9.13-9.26,9.13-28.13,0-56.26,0-84.39,0a10.42,10.42,0,0,1-8.3-3.4c-3.81-4.09-7.85-8-12.16-12.33-4.29,4.38-8.36,8.4-12.27,12.57a9.66,9.66,0,0,1-7.65,3.15q-42.95-.11-85.89,0c-6.3,0-8.15-1.91-8.15-8.36q0-89.47,0-179v-4.8h-64c-6.12,0-8-1.94-8-8.08q0-45,0-90c0-20,12-35.88,31.05-41.52,23.7-7,47.41-13.94,71.1-21a30.07,30.07,0,0,0,6.47-2.84c8.19-4.79,16.25-9.82,24.5-14.52a15,15,0,0,1,7-2q46-.19,91.9,0a11.94,11.94,0,0,1,6.66,1.79c20.16,14.81,43.5,21.85,67.19,28.21,12.53,3.36,25,7.09,37.31,11.09A41.5,41.5,0,0,1,372.1,80.83c.12,30.64,0,61.28,0,91.92,0,5.29-2.17,7.35-7.64,7.36C343.24,180.13,322,180.12,300.11,180.12ZM84,216.14c4.13,0,7.74-.14,11.34,0A43.77,43.77,0,0,0,123.13,208a20.9,20.9,0,0,1,28.79,4.64c6.93,9.18,5.48,21.69-3.49,29.27-4.11,3.46-8.35,6.77-12.58,10.08-2.63,2-4.66,4.34-3.4,7.94s4.08,4.35,7.51,4.26c4.12-.1,8.25-.05,12.37,0,12.36.1,21.74,9.18,21.73,21s-9.4,20.9-21.78,21c-7.5.05-15-.14-22.5.07a82.56,82.56,0,0,0-43.4,13.61c-1.19.78-1.88,2.32-3.29,4.13h96.7V68.53c-4.32,4.44-8,8.31-11.81,12.11-4.66,4.69-7.17,4.65-11.94-.11q-23.73-23.74-47.52-47.42c-1-1-3.09-1.88-4.3-1.53-24,6.89-48,13.64-71.81,21.14C20.2,56.56,12.76,65.87,12.3,78.59c-.77,21.48-.22,43-.21,64.51,0,.21.19.43.34.76H72.18v-41.6H84Zm204.15,36c0-6.47.15-12.35-.1-18.21a5.92,5.92,0,0,0-2.24-4.1c-9.25-6.17-19.34-10.87-30.37-12.06-11.88-1.29-23.91-1.3-35.89-1.62s-21.4-9.31-21.42-21,9.29-20.91,21.33-21c4.75-.05,9.51,0,14.26,0,2.93,0,5.51-1.39,5.86-4.21.26-2.14-1-4.52-1.85-6.71-.28-.71-1.29-1.14-2-1.69-4-3.2-8.06-6.33-12-9.62a21.07,21.07,0,0,1-3.52-29.26c6.76-9,19.45-11.47,28.74-4.63,12,8.8,25.28,8.6,39.36,7.85V102.29h11.92v41.62h59.9v-3.82q0-28.71,0-57.4c0-15.48-8.13-26.5-22.88-30.88C314.52,45.05,291.76,38.4,269,31.62A4.78,4.78,0,0,0,263.51,33q-23.34,23.6-46.89,47c-5.47,5.47-7.58,5.47-13,0L192.26,68.74V324h95.58V312.19h-9.61c-12.1,0-18.86-6.06-20.14-18-.41-3.8-2.52-5.88-6.36-6s-7.5,0-11.25,0c-10.33-.14-18.31-7.9-18.38-17.85-.07-10.13,7.94-18.08,18.45-18.14,13.25-.08,26.5,0,39.75,0Zm-.2-36.31V138.09c-4.28,0-8.38-.07-12.47,0a52.43,52.43,0,0,1-32.09-9.58c-5.1-3.58-10.39-2.89-13.61,1.45s-2.17,9.53,2.64,13.46c4.16,3.41,8.42,6.69,12.58,10.1,6.46,5.31,8.72,13.08,6.08,20.5s-9.36,12-17.67,12.08c-4.87,0-9.76-.12-14.62.08a8.94,8.94,0,0,0-.11,17.87c2.86.19,5.75.08,8.62.07,11.25-.06,22.61-.66,33.54,2.44C270,209.18,278.88,212.72,287.91,215.85ZM84.19,307c1.24-.63,2-1,2.76-1.4,11.18-5.85,23-9.93,35.6-10.72,10-.62,20-.46,30-.69,5.57-.13,9.52-3.9,9.52-9s-3.95-8.88-9.52-9c-4.5-.08-9,0-13.5,0-8.56-.07-15.36-4.7-18-12.2s-.21-15.22,6.53-20.7c4.08-3.31,8.24-6.52,12.28-9.86,4.74-3.92,5.68-9.3,2.48-13.5s-8.53-4.85-13.65-1.27a51.89,51.89,0,0,1-31.36,9.52c-4.33-.08-8.67,0-13.14,0Zm0,53.24H150.8c4.88,0,10.32,1.28,14.46-.48,4.29-1.81,7-6.95,11-10,4.87-3.78,4.07-8.46,3.57-13.36H84.22Zm203.71-23.74H192.6c-1.85,6.22-.07,10.87,4.81,14.65,2.54,2,4.47,4.75,7,6.76a9.72,9.72,0,0,0,5.47,2.23c24.87.15,49.74.1,74.62.1h3.43Zm-52-322.4-40,40.06,14.23,14.2,43.5-43.59ZM118.48,24.82l43.68,43.71L176.62,54q-19.73-19.77-40.06-40.12ZM288,264.18c-16.19,0-32-.05-47.88,0a5.83,5.83,0,0,0-6,6,5.94,5.94,0,0,0,6,5.95c3.11.15,6.24,0,9.37,0,12.71,0,19.11,5.65,20.64,18.22.4,3.28,2.19,5.45,5.45,5.68,4.06.28,8.16.07,12.39.07ZM185.93,44.6l32.36-32.32H153.44ZM12.16,167.82H71.83V156.33H12.16ZM360,156.37H300.42v11.54H360Z"/><path d="M106.14,190l-8.28-8.31c3.93-3.91,7.73-7.84,11.7-11.59a32.41,32.41,0,0,0,10.58-24.31,37.14,37.14,0,0,1,8.42-23.92c5.25-6.29,11.21-12,17-18.08l8.76,8.79c-4.18,4.09-8.24,8.13-12.37,12.09A31.33,31.33,0,0,0,132,147.77a40.34,40.34,0,0,1-11.15,27.84C116.25,180.5,111.26,185,106.14,190Z"/><path d="M346.37,103.54l-8.59,8.73c-4-4.06-8.06-8-11.92-12A32,32,0,0,0,302.19,90,39.6,39.6,0,0,1,275,79.18c-5.1-4.74-9.77-10-14.77-15.08L268.79,56c3.95,4,8.12,8.23,12.27,12.47a31,31,0,0,0,22.43,9.61c2.85.05,5.93,0,8.5,1,5.75,2.25,11.83,4.35,16.71,8C335.06,91.75,340.39,97.85,346.37,103.54Z"/></g></g></svg>