<svg xmlns="http://www.w3.org/2000/svg" viewBox="0 0 494.48 512"><g id="katman_2" data-name="katman 2"><g id="katman_1-2" data-name="katman 1"><path d="M226.48,512c-9.75-1-19.53-1.76-29.24-3C167,505,137.66,498,111.58,481.13c-1.53-1-3-2.15-4.5-3.15-5-3.28-6.85-7.68-6.83-13.88q.31-106.49.14-213v-5.49l-.92-.52c-2.35,3.8-4.84,7.52-7,11.43a11.41,11.41,0,0,1-9.42,6.37c-7.08.8-10.73,6.2-14,11.7-4.39,7.39-6.57,8.25-14.57,4.79C31.24,269.34,12.86,254,1.55,230.86c-2.14-4.38-2-8.15-.07-12.76,3.84-9.36,6.68-19.12,10-28.69C19.85,165.56,28,141.63,36.87,118c1.62-4.32,6-7.85,9.68-11.12C70.67,85.35,98.49,69.8,128,57c1.65-.72,3.29-1.49,5-2.28-1-2.92-2-5.53-2.74-8.23a26.63,26.63,0,0,1,13.35-30.11c3.8-1.94,7.15-1.27,9.81,2,2.49,3.07,1.94,7.47-1.19,10.33-1.22,1.12-2.67,2-3.89,3.13-3.47,3.24-5.2,7.28-3,11.69,3,6,5.89,12.52,10.29,17.53C169,76.25,183.1,90.86,197.17,106l31.15-32.66c-3.3-.92-7.57-2-11.74-3.29-13.75-4.43-25.72-11.69-35.22-22.72-4-4.64-4.21-9.18-.64-12.33s7.79-2.41,12,2.24c16.08,17.58,36.75,23.39,59.67,22.18,19.83-1.05,37.3-7.94,50.64-23.49,3.11-3.62,7.4-3.8,10.66-1.07S317.5,42,314.3,46c-11.14,13.74-25.89,21.63-42.77,26-1.92.5-3.88.9-5.82,1.37-.1,0-.16.24.11-.18L296.6,105c18.25-16.7,36.59-33.19,49.56-54.5,6.92-11.37,4.77-17.78-7.3-23.51-14.24-6.77-29.69-8.56-45.12-9.92a538.93,538.93,0,0,0-93.35,0c-6.3.53-12.55,1.63-18.81,2.47-1.32.18-2.63.46-4,.56-5,.36-8.51-2.2-9-6.51-.48-4,2.19-7.67,6.81-8.41,7.89-1.28,15.81-2.32,23.75-3.21,7.43-.83,14.89-1.35,22.33-2h51C283.24,1,294,1.79,304.75,3.08c14.58,1.75,29,4.34,42.29,11,9.31,4.7,17.06,11.23,17.86,22.33.43,5.92-1.4,12-2.27,18.51,7.82,3.71,16.76,7.71,25.5,12.11,23.61,11.88,45.75,26,64.88,44.41a22,22,0,0,1,5.48,8.12c9.07,25.7,17.85,51.51,26.8,77.26,2.67,7.69,5.81,15.22,8.3,23,.84,2.64,1.35,6.14.31,8.51-11.32,25.93-31.61,42.28-57.37,52.46-4,1.58-7.49.15-9.75-3.79-1.49-2.59-2.87-5.35-4.86-7.52s-4.74-5.43-7.32-5.61c-9.55-.64-12.9-7.67-16.8-14.41a10.31,10.31,0,0,0-3.46-3.78V387.16a41.43,41.43,0,0,1-.11,5c-.55,4.38-3.55,7.07-7.65,7s-6.94-2.69-7.38-7.21c-.13-1.32-.09-2.66-.09-4q0-84.49,0-169c0-19.25,3.95-37.66,10.79-55.54,1.58-4.15,4.2-6.94,9-6.21,5.27.81,7,5.64,5.31,11.73-3.29,11.83-6.24,23.76-9.09,35.7a19.34,19.34,0,0,0,3.12,16.49c5.33,7.61,9.85,15.79,14.93,24.08A96.9,96.9,0,0,0,448.74,216c1.82-2.38,3.42-4.93,5.12-7.39,9.53-13.8,14.14-27.78,5.63-44.36-5.51-10.72-8.44-22.75-13.12-33.94a34.55,34.55,0,0,0-8-11.65c-19.9-18.62-58.75-41.47-84.75-50.43-8.09,8.91-15.84,18-24.23,26.54s-17.62,16.77-26.65,24.91c-5.46,4.91-8.54,4.69-13.72-.54-4.1-4.13-8-8.49-11.92-12.75l-1.55.66v5.1q0,43.49,0,87c0,8.35-2.35,10.74-10.61,10.76q-17.75,0-35.49,0c-7.95,0-10.43-2.47-10.44-10.48q-.06-43,0-86v-7.38c-5.09,5-9.14,9-13.22,13-5.38,5.27-8.46,5.4-14.17.4C174,104.12,157,88.16,142.78,69.52c-.41-.52-.72-1.12-1.18-1.85-32.8,14-63.54,30.24-89.35,54.61a13.34,13.34,0,0,0-2.94,5.08q-9.77,26.45-19.29,53a9.14,9.14,0,0,0-.14,5.73c9.4,26.15,25.88,46.24,51.52,59.28,3.76-6.11,6.84-12.67,11.32-18.07,8.25-10,8.48-20.77,5.31-32.31-2.38-8.65-4.83-17.28-7.51-25.84-1.82-5.79-.55-9.91,4.1-11.56,4.31-1.53,8,.63,10.15,6.22a152.16,152.16,0,0,1,10.77,55.55c-.08,80.15,0,160.31-.14,240.46,0,4.21,1.3,6.69,4.75,8.87,18.76,11.85,39.5,18.28,61,22.29,40.32,7.5,80.85,7.71,121.37,1.94,23.85-3.39,46.92-9.54,68.07-21.71,6-3.43,9.32-7.19,8.68-14.85-.87-10.6-.25-21.32-.2-32,0-6.43,2.6-9.65,7.5-9.68s7.68,3.39,7.71,9.59c0,13.66-.17,27.33.1,41,.11,5.24-1.85,8.83-5.85,11.9-12.43,9.58-26.49,15.9-41.24,20.83-23.86,8-48.48,11.69-73.51,13.15a54.14,54.14,0,0,0-5.35.86Zm21-435.5c-3.43,4-5.55,7-8.28,9.37-3.68,3.19-5,6.72-5,11.66.24,30.32.12,60.64.12,90.95v5.74h25.86a17.29,17.29,0,0,0,.26-1.91q0-49.23,0-98.45a6.83,6.83,0,0,0-1.27-4.06C255.62,85.57,251.89,81.54,247.43,76.5ZM472.17,207.29a118.06,118.06,0,0,1-43.41,46.93l8.56,9.79c17.41-8.1,31.48-19.93,40.64-37.16a5.14,5.14,0,0,0,.39-3.72C476.58,218.16,474.54,213.28,472.17,207.29Zm-449.78,0c-2.37,6-4.46,11-6.27,16.14a5.18,5.18,0,0,0,.57,3.67C25.87,244.2,39.91,255.89,57.28,264l8.52-9.85C47.22,242.71,33,227.4,22.39,207.32Z"/><path d="M319.25,184.79c3.65,0,7.31-.14,10.95,0,4.58.21,7.27,2.87,7.48,7s-2.41,7.7-6.63,7.88c-7.94.33-15.92.34-23.86,0a7.12,7.12,0,0,1-6.56-8c.53-4.09,2.88-6.59,7.18-6.91.33,0,.66,0,1,0h10.45Z"/><path d="M247.24,39.24c-3.48,0-7,.09-10.45,0-4.9-.18-8.18-3.3-8.15-7.53a7.6,7.6,0,0,1,7.72-7.52c7.29-.2,14.6-.21,21.89,0a7.35,7.35,0,0,1,7.54,7.59c0,4.32-2.86,7.11-7.61,7.46-.33,0-.66,0-1,0Z"/><path d="M247.82,100.19a7.71,7.71,0,0,1,6.9,8.27,7.32,7.32,0,0,1-8.28,6.7,7.58,7.58,0,0,1-6.74-7.86A7.77,7.77,0,0,1,247.82,100.19Z"/><path d="M247.35,135.21a7.7,7.7,0,0,1,7.39,7.82,7.33,7.33,0,0,1-7.84,7.21,7.65,7.65,0,0,1-7.23-7.45A7.79,7.79,0,0,1,247.35,135.21Z"/><path d="M254.75,177.6a7.31,7.31,0,0,1-7.38,7.67,7.59,7.59,0,0,1-7.69-7.48,7.86,7.86,0,0,1,7.21-7.56A7.76,7.76,0,0,1,254.75,177.6Z"/></g></g></svg>