<svg xmlns="http://www.w3.org/2000/svg" viewBox="0 0 367.53 408.83"><g id="katman_2" data-name="katman 2"><g id="katman_1-2" data-name="katman 1"><path d="M72.81,408.83c-4-2-4.77-5.5-4.77-9.66q.1-96.42.11-192.82c0-3.19-.73-4.85-4-6.1-19.32-7.5-38.52-15.3-57.76-23-6-2.4-7.12-4.42-6.07-10.68Q8.29,119,16.21,71.39c3.15-19,14.09-31.14,32.86-35.63q28.87-6.91,57.86-13.36a10.54,10.54,0,0,0,7.43-5.17c2.72-4.57,5.84-8.89,8.78-13.33A8.16,8.16,0,0,1,130.49,0q53.3.06,106.59,0a8.17,8.17,0,0,1,7.36,3.9c3.16,4.76,6.17,9.65,9.6,14.21A10.77,10.77,0,0,0,259.52,22Q288,28.82,316.6,35.17c15.88,3.49,27.58,12,32.6,27.74,2.4,7.53,3.27,15.58,4.6,23.44,4.48,26.47,8.82,53,13.28,79.44,1.2,7.12.31,8.93-6.3,11.58-19.12,7.66-38.19,15.42-57.38,22.88-3.24,1.25-4,2.91-4,6.1q.12,96.41.11,192.82c0,4.16-.72,7.65-4.77,9.66Zm277-268.18C346,117.3,342.33,94.48,338.37,71.7,336.12,58.82,328.21,51,315.49,48.09c-18.64-4.3-37.31-8.47-55.89-13-3.7-.9-5.32.09-7.18,3.16-7.92,13.08-16.07,26-24.24,38.93-5.27,8.33-13.12,9.69-21.1,3.87-.9-.65-1.84-1.25-3.27-2.22v5c0,14.91.05,29.81,0,44.71,0,8.29-5,13.51-13.2,14-4.11.23-8.24.16-12.37.07-9.4-.23-14.4-5.36-14.43-14.81,0-14.9,0-29.8,0-44.7,0-1.24-.12-2.47-.2-4a13.83,13.83,0,0,0-1.48.74c-10.44,7.63-17.08,6.36-23.94-4.62-8-12.74-15.88-25.5-24-38.17-.72-1.13-2.71-2.47-3.78-2.24C90,39.32,69.67,43.84,49.44,48.9c-10.68,2.67-17.53,10-19.71,20.84-2.44,12.11-4.29,24.35-6.34,36.53-1.91,11.38-3.76,22.78-5.67,34.39L68.09,160.8c0-7.81,0-15,0-22.16,0-5.32-.14-10.65.09-16,.18-4.06,3.08-6.63,6.67-6.46s5.8,2.76,6,6.69c.07,1.32,0,2.66,0,4V368.55H286.7v-5.29q0-119.35,0-238.71c0-5.43,2.3-8.37,6.37-8.34s6.39,3,6.41,8.4c0,8.12,0,16.23,0,24.35v11.85ZM81,395.71H286.46V381.92H81Zm102.81-350L221,13.11H146.56ZM151.28,72.05,173.77,54,130.48,16.09a30.88,30.88,0,0,1-2.83,4.11c-4.31,4.5-4,8.45-.45,13.72C135.58,46.2,143.14,59,151.28,72.05Zm64.68-.3c.39-.28.67-.38.8-.59q13.37-21.27,26.65-42.58a3.24,3.24,0,0,0,.11-2.8c-2-3.26-4.16-6.38-6.39-9.73L193.79,54Zm-25,57.77c0-20.27.25-40.07-.34-59.85-.06-2.32-4.42-5.13-7.36-6.54-1.78-.85-6.74,5.56-6.74,8.08q0,27.54,0,55.06c0,1,.16,2,.26,3.25ZM68.09,188.09c0-3.88-.19-7.07.06-10.22.2-2.62-.92-3.68-3.21-4.58-15.3-6-30.54-12.18-45.81-18.28-1.09-.43-2.22-.75-3.55-1.19-.63,3.56-1.4,6.8-1.68,10.08a4,4,0,0,0,1.84,3.15c4.08,1.9,8.32,3.47,12.51,5.14Zm231.81-.15c17.74-7.09,35.21-14.06,52.63-21.13a2.92,2.92,0,0,0,1.23-2.44c-.43-3.47-1.14-6.9-1.81-10.63-1.71.63-2.95,1.06-4.17,1.54l-38,15.23c-10.8,4.33-10.8,4.33-10.2,16.05A10.61,10.61,0,0,0,299.9,187.94Z"/></g></g></svg>