<?xml version="1.0" encoding="utf-8"?>
<!-- Generator: Adobe Illustrator 26.0.0, SVG Export Plug-In . SVG Version: 6.00 Build 0)  -->
<svg version="1.1" id="katman_1" xmlns="http://www.w3.org/2000/svg" xmlns:xlink="http://www.w3.org/1999/xlink" x="0px" y="0px"
	 viewBox="0 0 349.5 384" style="enable-background:new 0 0 349.5 384;" xml:space="preserve">
<g id="katman_2_00000079446839163077736380000011861937070876634772_">
	<g id="katman_1-2">
		<path d="M219,0c5.2,3.2,10.3,6.4,15.5,9.6c8.2,5.1,8.8,6.5,6.9,16.2c1.1,0.5,2.3,1.1,3.5,1.6c14.6,5.9,29.1,11.8,43.8,17.5
			c4.5,1.6,8.1,5,10.1,9.3c16,32.6,32.1,65.1,48.3,97.6c4.2,8.4,2.8,12.9-5.4,17.6c-16.4,9.4-32.7,18.8-49.1,28
			c-2.6,1.5-3.6,3.1-3.6,6.1c0.1,48.4,0.1,96.7,0.1,145c0,9.7-1.9,12.5-11,15.9c-26.8,10.2-54.3,16.9-82.9,18.9
			c-0.9,0.1-1.7,0.3-2.5,0.6h-9l-9-11.5l-9,11.5h-8.2c-7.9-1-15.9-1.8-23.7-3c-22.3-3.4-44.2-9.3-65.2-17.7c-5.2-2-8-5.8-8.1-11.4
			c-0.1-10-0.1-20,0-30c0-4.2,2.2-6.5,5.7-6.4c3.3,0.1,5.4,2.3,5.4,6.3c0.1,9.1,0.2,18.2,0,27.4c0,2.6,1,3.7,3.3,4.6
			c26.6,10.3,54.6,16.6,83,18.7c2.2,0.2,3.6-0.2,4.5-2.2c0.1-0.1,0.1-0.2,0.2-0.3c5.5-6.4,6.8-13.7,6.7-22.1
			c-0.3-56-0.2-112-0.1-168c-0.1-1.6,0-3.2,0.3-4.9c0.6-3,3.6-4.8,6.5-4.2c2.1,0.5,3.7,2.1,4.2,4.2c0.2,1.6,0.3,3.2,0.3,4.9
			c0,56.9,0.1,113.7-0.1,170.6c-0.2,6.1,1.5,12.1,4.9,17.1c2.7,4,5.1,5.1,9.9,4.8c27-2.3,53.6-8.4,78.9-18.1c3.2-1.2,4-2.8,4-6
			c-0.1-81.1,0.1-162.2-0.2-243.3c-0.2-15.4,1.4-30.7,4.7-45.7c0.7-3.2,0-4.6-3.1-5.8c-12.3-4.8-24.6-9.8-36.8-14.7
			c-1.4-0.5-2.8-1-4.4-1.6c-3.6,12.9-7.2,25.5-10.8,38.1c-2.1,7.3-4.1,14.7-6.2,22c-2.4,8.4-8.1,10.3-15.2,5s-14.2-10.6-21.3-16
			c-1-0.7-2-1.4-3.7-2.6c-0.2,2.2-0.6,3.8-0.6,5.5c0,20,0,40,0,60c0.1,1.5,0,3-0.3,4.5c-0.7,3-3.6,4.8-6.6,4.1
			c-2-0.5-3.6-2.1-4.1-4.1c-0.2-1.5-0.3-3-0.2-4.5c0-20,0-40,0-60c0-1.7-0.3-3.3-0.5-5.6c-1.5,0.9-2.3,1.4-3.1,1.9
			c-7.5,5.7-14.9,11.4-22.4,17c-6.6,5-12.5,3-14.8-5c-5.4-18.7-10.7-37.5-16-56.2c-0.3-1.2-0.7-2.4-1.2-3.9L66.3,55
			c1.2,6.7,2.6,13.3,3.6,19.9c0.9,5.5,1.5,11.1,1.6,16.7c0.1,67.2,0.1,134.5,0.1,201.7c0.1,1.7,0,3.5-0.3,5.2
			c-0.7,2.8-2.8,4.1-5.6,4c-2.5,0-4.6-1.8-5-4.2c-0.2-1.6-0.3-3.2-0.3-4.9c0-30.1,0-60.2,0-90.4c0.2-2.4-1.1-4.6-3.2-5.5
			c-16.9-9.5-33.6-19.1-50.4-28.8c-6.9-4-8.4-8.9-4.9-16c4.2-8.5,8.4-17,12.6-25.5c1.3-2.6,3.6-4.4,6.4-3.2c1.9,0.8,3.5,3,4.3,4.9
			c0.5,1.1-0.5,3.1-1.2,4.5c-3.5,7.2-7.1,14.3-10.6,21.5c-0.6,1.1-1.1,2.2-1.8,3.6l48.8,27.9v-4.8c0-31.2,0.2-62.5-0.1-93.7
			c-0.1-6.7-1.8-13.3-2.7-19.9l-1-0.2c-0.6,1.1-1.2,2.2-1.7,3.3c-6,12.2-12.1,24.4-18.1,36.6c-0.5,1.2-1.1,2.2-1.8,3.3
			c-2,2.5-4.6,3.1-7.3,1.5c-2.5-1.2-3.6-4.2-2.4-6.7c0,0,0-0.1,0-0.1c1.1-2.6,2.5-5.2,3.7-7.8c7.3-14.8,14.7-29.5,21.9-44.3
			c1.8-4,5.2-7.1,9.3-8.6c15-5.8,29.9-11.9,44.9-17.7c2.4-0.9,3.3-1.8,2.4-4.6c-1.6-5.2,0.2-8.7,4.9-11.7l18-11.2H219z M293,67.9
			l-1.1,0.1c-0.9,6.6-2.6,13.2-2.7,19.8c-0.3,31.4-0.1,62.8-0.1,94.1v4.7l48.9-27.9L293,67.9z M174.8,72.3
			c11.4-20.7,22.4-40.6,33.5-60.8h-67C152.4,31.8,163.4,51.7,174.8,72.3z M211,91.7c6.8-24.1,13.4-47.6,20-71.1l-11.2-6.7
			l-32.9,59.7L211,91.7z M138.5,91.7l24-18.3l-32.8-59.5l-11.2,6.8C125.1,44.3,131.7,67.6,138.5,91.7L138.5,91.7z"/>
	</g>
</g>
</svg>
