<?xml version="1.0" encoding="utf-8"?>
<!-- Generator: Adobe Illustrator 26.0.0, SVG Export Plug-In . SVG Version: 6.00 Build 0)  -->
<svg version="1.1" id="katman_1" xmlns="http://www.w3.org/2000/svg" xmlns:xlink="http://www.w3.org/1999/xlink" x="0px" y="0px"
	 viewBox="0 0 402.3 503.7" style="enable-background:new 0 0 402.3 503.7;" xml:space="preserve">
<g>
	<path d="M2.3,211.6c23.6,14.4,57.9,31,72,7.3c3.9,11.9,7.4,23.9,8.9,36.9c3.5,30.1,4.2,60.2,3.9,90.5c-0.3,42-3.6,84.6-1.1,126.6
		c1.5,25.8,7.1,33.8,32.6,29.4c27.5-4.8,51.6-5.8,79.7-5.8c26.9,0,52.4-1.1,78.7,4.5c25.5,5.4,35.2,4.8,38.8-22.3
		c5.2-39.4,0.1-82.3-0.5-122c-0.4-30.5,0.1-60.7,2.8-91.1c1.5-16.3,5.7-31.2,10.3-46c14.4,22.6,48.2,6.3,71.6-7.9
		c1.5-0.9,2.8-3.1,2-4.9c-14.6-35.3-13.6-71.4-14.3-108.6c-0.3-18-8.4-37-26.3-43.8c-31.5-12-63.5-8.6-92.6-28
		C245.7,11,229.4,0,201,0c-27.9,0-45.3,10.5-67.7,26.4c-28.5,20.2-61.3,16.1-92.6,28C21.9,61.6,16,80,14.4,98.2
		c-3.2,37.5,0.7,72.5-14.3,108.6C-0.4,208.4,0.8,210.6,2.3,211.6L2.3,211.6z M201.2,8.5c12.1,0,22.2,2.7,31.6,6.8
		c-19,12.2-45.1,10.6-65.3,0.9C177.4,11.6,188.2,8.5,201.2,8.5L201.2,8.5z M15.1,191.5c3-9.2,4.2-19,5.7-28.5c4.2-28-5.9-71,13-93.9
		c17.6-21.2,59.7-12,82.7-23.1c15.4-7.4,28-17.2,41.5-24.9c25.2,14.6,59.9,16.6,83.6-1.5c14.5,7.9,27.7,18.4,44.1,26.4
		c26.3,12.7,58.8,4,82.8,23.1c19.6,15.6,9.6,71.2,13,93.9c1.1,7.3,13.2,41.5,5.9,46c-17.4,10.6-47.2,22.3-54.8-2.4
		c3.6-11.2,7-22.4,9.4-34.3c1.1-5.5-7.3-7.9-8.4-2.3c-4.4,22.3-15.2,42.4-20.5,64.5s-5.6,47.6-6.4,70.3
		c-1.5,42.9,0.3,86.1,1.4,129.1c0.4,14.9,0.3,29.9-1,44.7c-2.4,26-28.1,13.7-46,10c-18.1-3.8-38.8-0.9-57.1-0.9h-57.4
		c-9.5,0-44,15.3-48.9,3.6c-6.1-14.7-3.8-35.3-3.7-50.8c0.4-41.7,2.1-83.4,1.8-125.2c-0.2-26.6-2.9-53.2-6.4-79.5
		c-3-22.7-16.2-43.1-20.7-65.6c-1.1-5.5-9.5-3.2-8.4,2.3c2.3,11.7,5.9,22.7,9.7,33.7c-5.6,20.9-20.9,16-37.6,10.3
		C14.5,210.2,9.7,208.5,15.1,191.5L15.1,191.5z"/>
</g>
</svg>
