<?xml version="1.0" encoding="utf-8"?>
<!-- Generator: Adobe Illustrator 26.0.0, SVG Export Plug-In . SVG Version: 6.00 Build 0)  -->
<svg version="1.1" id="katman_1" xmlns="http://www.w3.org/2000/svg" xmlns:xlink="http://www.w3.org/1999/xlink" x="0px" y="0px"
	 viewBox="0 0 550.9 551.3" style="enable-background:new 0 0 550.9 551.3;" xml:space="preserve">
<g>
	<path d="M546.7,192.1l-0.4-1c0,0,0,0,0-0.1l0,0l0,0C511.5,103.8,467.4,46,467,45.5c-0.1-0.1-0.1-0.1-0.2-0.2
		c-0.2-0.2-0.4-0.5-0.7-0.7C432.6,20.1,387.1,8.3,355,2.7h-0.1l0,0c-6.5-1-12.5-1.9-17.7-2.6c-0.1,0-0.2,0-0.3,0
		c-0.1,0-0.2-0.1-0.3-0.1c-0.1,0-0.2,0.1-0.3,0.1c-0.2,0-0.4,0-0.6,0.1c-0.2,0-0.4,0.1-0.6,0.2s-0.4,0.1-0.5,0.2
		c-0.1,0-0.2,0-0.3,0.1c-13.1,7.9-34.6,12.5-59,12.5s-45.8-4.6-58.9-12.5c-0.1-0.1-0.2-0.1-0.3-0.1c-0.2-0.1-0.3-0.2-0.5-0.2
		c-0.2-0.1-0.4-0.1-0.6-0.2c-0.2,0-0.4-0.1-0.6-0.1c-0.1,0-0.2-0.1-0.3-0.1c-0.1,0-0.2,0-0.3,0.1c-0.1,0-0.2,0-0.3,0
		c-5.1,0.7-11.1,1.6-17.6,2.7l0,0h-0.1c-32.1,5.6-77.6,17.3-111.1,41.9c-0.3,0.2-0.5,0.4-0.7,0.7c-0.1,0.1-0.1,0.1-0.2,0.2
		c-0.4,0.6-44.5,58.3-79.3,145.5l0,0l0,0c0,0,0,0,0,0.1l-0.4,1c-2.7,6.6-10.7,26.5,7.2,35.1l114,46.4L113.7,525l0,0l0,0l-0.2,4.4
		c0,9.2,0,21.9,17.5,21.9h288.8c17.5,0,17.5-12.6,17.5-22.1l-11.8-255.5l114.3-46.6C557.5,218.6,549.4,198.7,546.7,192.1
		L546.7,192.1z M465.1,57.9c12.2,17.3,44.3,65.8,71.5,132.5l-112.3,47c0.8-22.5,4.5-56.2,8.4-74.1L465.1,57.9z M275.6,65.7
		c30.1,0,62.2-22.4,65.2-56.3c2.8,0.4,5.9,0.9,9.1,1.4c-4.6,39.3-32.7,63.7-74.4,63.7s-69.8-24.3-74.4-63.7c3.2-0.5,6.2-1,9.1-1.4
		C213,43.3,245.3,65.7,275.6,65.7L275.6,65.7z M227.8,32.7c13.3,4.4,29.8,6.8,47.6,6.8c17.9,0,34.4-2.4,47.7-6.8
		C312.3,47.8,293.5,57,275.6,57C257.5,56.9,238.6,47.8,227.8,32.7L227.8,32.7z M331.6,11.9c-0.5,3.1-1.2,6-2.2,8.8
		c-13.3,6.3-32.8,10-54.1,10c-21.2,0-40.8-3.6-54-10c-1-2.8-1.7-5.8-2.2-8.8c14.4,6.4,34.3,10,56.2,10
		C297.4,21.9,317.3,18.3,331.6,11.9z M192.4,12.3c5.3,43.2,37.3,70.9,83,70.9s77.7-27.7,83-70.9c30,5.6,69.8,16.5,100,37.6
		L424.2,161c-4.5,20.6-8.7,60.2-8.8,82.9v0.1c0,0.4,0,0.9,0,1.3l12.7,275.4H122.7l12.7-275.6V244c-0.1-22.5-4.4-62.3-8.9-83.3
		L92.4,49.9C122.6,28.8,162.4,17.9,192.4,12.3L192.4,12.3z M85.7,57.9l32.3,105c4,18.3,7.7,52.1,8.5,74.5l-112.3-47
		C41.3,123.7,73.5,75.2,85.7,57.9L85.7,57.9z M14.8,219.3c-7.7-3.7-7.4-11-3.8-20.7l115.6,48.3l-0.8,17.6L14.8,219.3z M419.8,542.6
		H131c-8.4,0-8.8-2.9-8.8-12.9v-0.2h306.2C428.5,539.6,428.2,542.6,419.8,542.6L419.8,542.6z M536.3,219.1l-111.2,45.3l-0.8-17.6
		l115.6-48.3C543.4,208.3,543.8,215.5,536.3,219.1L536.3,219.1z"/>
</g>
</svg>
