<?xml version="1.0" encoding="utf-8"?>
<!-- Generator: Adobe Illustrator 26.0.0, SVG Export Plug-In . SVG Version: 6.00 Build 0)  -->
<svg version="1.1" id="katman_1" xmlns="http://www.w3.org/2000/svg" xmlns:xlink="http://www.w3.org/1999/xlink" x="0px" y="0px"
	 viewBox="0 0 395.5 380.9" style="enable-background:new 0 0 395.5 380.9;" xml:space="preserve">
<g>
	<path d="M395.1,152.2L312.9,15.7c-0.4-0.7-1.1-1.2-1.9-1.4L255.3,2.2L249.7,1l-4.4-0.9l0,0c-0.7-0.2-1.4-0.1-2.1,0.2
		c-0.7,0.5-1.2,1.1-1.4,1.9c-1.5,11.1-6.6,21.4-14.6,29.3c-8,7.9-18.4,12.9-29.5,14.3c-11.1-1.4-21.4-6.5-29.4-14.4
		c-8-7.9-13.1-18.2-14.7-29.3c-0.1-0.8-0.5-1.5-1.2-1.9c-0.7-0.3-1.4-0.4-2.1-0.2l-5.1,1.2l-5.6,1.2L84.5,14.3v0
		c-0.8,0.1-1.5,0.6-1.9,1.4L0.5,152.2c-0.8,1.1-0.7,2.5,0.2,3.5c17.6,21.6,41,37.6,67.4,46.2c1.4,0.5,3-0.1,3.7-1.4l19.4-36.9
		l-9.1,196c-0.2,1.3,0.6,2.6,1.9,3c36.4,13,75,19.1,113.6,18c3.7,0.2,7.7,0.2,11.4,0.2v0c34.8-0.4,69.4-6.6,102.2-18.2
		c1.3-0.4,2.2-1.7,2.1-3l-9.1-196l19.4,36.9c0.6,1.3,2.1,1.9,3.5,1.4c26.6-8.5,50.1-24.6,67.7-46.2
		C395.6,154.7,395.7,153.3,395.1,152.2L395.1,152.2z M148.7,6.4L148.7,6.4c2.3,11.7,8.2,22.4,16.9,30.5c8.7,8.1,19.8,13.3,31.6,14.8
		h0.9h0c11.9-1.4,23-6.6,31.8-14.7c8.8-8.1,14.7-18.8,17-30.6l2.3,0.5v0c0.1,5,2,9.8,5.4,13.5c1.5,1.5,3.2,2.7,5.1,3.5
		c-3,1.6-6.6,1.9-9.8,0.7c-1-0.3-2-0.8-2.8-1.4c-1.1-0.7-2.5-0.6-3.5,0.2c-2.6,2.1-4.3,5.1-4.7,8.4c-0.4,4.2,1.3,8.4,4.7,11
		c1.5,1.2,3.4,1.9,5.4,1.9c0.9,0,1.2,0.2,1.4,0.5l0,0c2,3.1,2,7.1,0,10.3c-2.3,2.7-5.8,4-9.3,3.5c-2.9-0.6-5.4-2.4-7-4.9
		c-0.4-0.7-1.1-1.1-1.9-1.4c-0.8,0-1.7,0.2-2.3,0.7c-2.4,1.9-3.8,4.7-4,7.7c0.2,3.3,2.1,6.3,4.9,7.9c-2.8,2.1-5.1,4.7-6.8,7.7
		c-3.1,5.5-4.5,11.9-4,18.2l-4.4,0.7c-1.4,0.2-2.4,1.4-2.3,2.8l-2.8,37.1v0c-0.4,6.5-5.9,11.5-12.4,11.4h-1.4
		c-3.1,0.2-6.2-0.9-8.5-3c-2.3-2.1-3.7-5.1-3.8-8.2l-2.8-37.3c-0.1-1.4-1-2.5-2.3-2.8l-4.7-0.7c0.7-6.3-0.6-12.7-3.7-18.2
		c-1.7-3-4-5.6-6.8-7.7c2.8-1.7,4.6-4.7,4.9-7.9c-0.1-3-1.6-5.8-4-7.7c-0.7-0.5-1.5-0.7-2.3-0.7c-0.8,0.2-1.4,0.7-1.9,1.4
		c-1.7,2.4-4.2,4.2-7,4.9c-3.5,0.6-7.1-0.8-9.3-3.5c-2-3.1-2-7.1,0-10.3c0.2-0.2,0.5-0.5,1.4-0.5v0c1.9,0,3.8-0.7,5.4-1.9
		c3.3-2.7,5-6.8,4.7-11c-0.4-3.3-2.1-6.3-4.7-8.4c-1-0.9-2.4-1-3.5-0.2c-0.8,0.6-1.8,1.1-2.8,1.4c-3.3,1.1-6.9,0.9-10-0.7
		c2-0.8,3.8-2,5.4-3.5c3.3-3.6,5.2-8.4,5.1-13.3L148.7,6.4z M327.6,195.6l-24.3-46.2v0c-0.7-1.3-2.1-1.9-3.5-1.4
		c-1.3,0.3-2.1,1.5-2.1,2.8l9.6,207v0c-35.2,12.4-72.4,18.1-109.7,17c-37.3,1.1-74.5-4.7-109.7-17l9.6-207v0
		c0.1-0.7-0.1-1.3-0.4-1.9c-0.4-0.5-1-0.9-1.7-0.9c-1.3-0.5-2.7,0.1-3.3,1.4l-24.5,46.2c-23.9-8.1-45-22.6-61.1-42L86.8,19.7
		l52.5-11.2h0c-0.2,2.9-1.3,5.6-3.3,7.7c-2.1,2.1-5,3.3-7.9,3.3c-1.2,0-2.2,0.8-2.6,1.9c-0.4,1-0.3,2.2,0.5,3c1.6,1.6,3.4,3,5.4,4.2
		c4.8,2.7,10.4,3.3,15.6,1.6c0.7-0.2,1.3-0.5,1.9-0.9c0.8,0.9,1.2,2.1,1.2,3.3c0.2,2.2-0.8,4.3-2.6,5.6c-0.5,0.6-1.3,0.8-2.1,0.7
		c-1.7,0-3.4,0.7-4.7,1.9c-2.2,2.4-3.5,5.5-3.7,8.8c-0.2,3.3,0.7,6.5,2.5,9.2c1.7,2.3,4.1,4.1,6.7,5.1c2.7,1.1,5.6,1.4,8.4,0.9
		c3.1-0.6,6-2.1,8.2-4.4c0.2,0.2,0.2,0.2,0.2,0.5c0,2.1-3,3.7-3.7,4l-2.1,0.7v0c-1.3,0.1-2.4,1-2.6,2.3c-0.3,1.3,0.4,2.6,1.6,3
		c3.8,2,7.1,5,9.3,8.6c3,5.2,4,11.4,2.8,17.3c-0.2,0.7,0,1.5,0.5,2.1c0.5,0.7,1.1,1.2,1.9,1.4l5.1,0.7l2.6,35.7l0,0
		c0.3,3.4,1.6,6.7,3.8,9.4c2.2,2.7,5,4.7,8.3,5.8h0.2h0c1.9,0.4,3.9,0.7,5.8,0.9c0.5,0,0.9,0.2,1.4,0c2-0.2,3.9-0.5,5.8-0.9h0.2
		c3.3-1.1,6.3-3.2,8.4-6c2.2-2.8,3.4-6.1,3.7-9.7l2.6-35.2l5.1-0.7c0.8-0.2,1.4-0.7,1.9-1.4c0.4-0.6,0.6-1.4,0.5-2.1
		c-1.2-5.9-0.2-12.1,2.8-17.3c2.2-3.7,5.4-6.7,9.3-8.6c1.2-0.5,1.9-1.8,1.6-3c-0.2-1.3-1.3-2.3-2.6-2.3l-2.1-0.7
		c-0.9-0.5-3.7-1.9-3.7-4v-0.5c3.2,3.2,7.6,4.9,12.2,4.6c4.5-0.3,8.7-2.6,11.4-6.3c1.9-2.7,2.8-5.9,2.5-9.2
		c-0.2-3.3-1.5-6.4-3.7-8.8c-1.3-1.1-3-1.8-4.7-1.9c-0.8,0.1-1.7-0.2-2.3-0.7c-1.7-1.3-2.7-3.4-2.6-5.6c0.2-1.2,0.7-2.3,1.4-3.3
		c0.5,0.4,1.2,0.8,1.9,0.9c5.2,1.6,10.9,1,15.6-1.6c1.9-1.1,3.6-2.6,5.1-4.2c0.9-0.7,1.2-2,0.7-3c-0.4-1.1-1.4-1.9-2.6-1.9
		c-3,0-5.8-1.2-7.9-3.3c-2.1-2.2-3.3-5-3.5-7.9l53.2,11.4L389,153.6C372.8,173,351.5,187.5,327.6,195.6L327.6,195.6z"/>
	<path d="M197.6,144.6c4.2,0,7.9-2.5,9.5-6.4c1.6-3.9,0.7-8.3-2.3-11.2s-7.4-3.8-11.3-2.2c-3.9,1.6-6.4,5.4-6.4,9.5
		c0,2.7,1.1,5.4,3,7.3C192.2,143.5,194.8,144.6,197.6,144.6L197.6,144.6z M197.6,129.7c1.8,0,3.4,1.1,4.1,2.8c0.7,1.7,0.3,3.6-1,4.9
		c-1.3,1.3-3.2,1.7-4.9,1c-1.7-0.7-2.8-2.3-2.8-4.1c0-1.2,0.5-2.3,1.3-3.2C195.2,130.2,196.4,129.7,197.6,129.7L197.6,129.7z"/>
	<path d="M197.6,121.1c3.2,0,6.1-1.9,7.3-4.9c1.2-3,0.5-6.4-1.7-8.6s-5.7-2.9-8.6-1.7c-3,1.2-4.9,4.1-4.9,7.3
		C189.6,117.5,193.2,121.1,197.6,121.1L197.6,121.1z M197.6,111c0.8,0,1.6,0.5,1.9,1.3c0.3,0.8,0.1,1.7-0.5,2.3
		c-0.6,0.6-1.5,0.8-2.3,0.4s-1.3-1.1-1.3-1.9c0-0.6,0.2-1.1,0.6-1.5C196.5,111.3,197,111,197.6,111L197.6,111z"/>
</g>
</svg>
