<?xml version="1.0" encoding="utf-8"?>
<!-- Generator: Adobe Illustrator 26.0.0, SVG Export Plug-In . SVG Version: 6.00 Build 0)  -->
<svg version="1.1" id="katman_1" xmlns="http://www.w3.org/2000/svg" xmlns:xlink="http://www.w3.org/1999/xlink" x="0px" y="0px"
	 viewBox="0 0 496 496" style="enable-background:new 0 0 496 496;" xml:space="preserve">
<path d="M490.1,48.3l-176.4-48c-1.1-0.3-2.3-0.4-3.4-0.2c-1.1,0.2-2.2,0.6-3.2,1.3C283.8,17,265.5,24,248,24s-35.8-7-59.1-22.6
	c-1-0.6-2-1.1-3.2-1.3c-1.1-0.2-2.3-0.1-3.4,0.2L5.9,48.3c-1.7,0.5-3.2,1.5-4.3,2.9C0.6,52.5,0,54.2,0,56v113c0,1.2,0.3,2.3,0.8,3.4
	c0.5,1.1,1.2,2,2.1,2.8c0.9,0.8,2,1.3,3.1,1.6c1.1,0.3,2.3,0.3,3.5,0.1L88,161.7V488c0,2.1,0.8,4.2,2.3,5.7c1.5,1.5,3.5,2.3,5.7,2.3
	h304c2.1,0,4.2-0.8,5.7-2.3s2.3-3.5,2.3-5.7V161.7l78.5,15.2c1.2,0.2,2.3,0.2,3.5-0.1c1.1-0.3,2.2-0.8,3.1-1.6
	c0.9-0.8,1.6-1.7,2.1-2.8c0.5-1.1,0.8-2.2,0.8-3.4V56c0-1.8-0.6-3.5-1.6-4.9C493.3,49.7,491.8,48.7,490.1,48.3L490.1,48.3z M104,480
	V329.8l24.6,4.9L143.2,480H104z M240,40v440h-80.8L144,327.2c-0.2-1.7-0.9-3.3-2-4.6c-1.2-1.3-2.7-2.1-4.4-2.5l-33.6-6.7V152
	c0-1.2-0.3-2.3-0.8-3.4c-0.5-1.1-1.2-2-2.1-2.8c-0.9-0.8-2-1.3-3.1-1.6c-1.1-0.3-2.3-0.3-3.5-0.1L16,159.3V62.1l167.1-45.4
	c20.7,13.5,39,21.1,57,22.9C240,39.7,240,39.8,240,40z M392,480h-39.2l14.5-145.3l24.6-4.9V480z M480,159.3l-78.5-15.2
	c-1.2-0.2-2.3-0.2-3.5,0.1c-1.1,0.3-2.2,0.8-3.1,1.6c-0.9,0.8-1.6,1.7-2.1,2.8c-0.5,1.1-0.8,2.2-0.8,3.4v161.4l-33.6,6.7
	c-1.7,0.3-3.2,1.2-4.4,2.5c-1.1,1.3-1.9,2.9-2,4.6L336.8,480H256V40c0-0.2,0-0.3,0-0.5c18-1.8,36.2-9.4,57-22.9l167,45.4V159.3z"/>
<path d="M133,135.4l80,32c1.2,0.5,2.5,0.7,3.8,0.5c1.3-0.1,2.5-0.6,3.6-1.3c1.1-0.7,2-1.7,2.6-2.9c0.6-1.2,0.9-2.4,0.9-3.8v-32
	c0-1.6-0.5-3.2-1.4-4.5c-0.9-1.3-2.2-2.3-3.7-2.9l-80-32c-1.2-0.5-2.5-0.7-3.8-0.5c-1.3,0.1-2.5,0.6-3.6,1.3c-1.1,0.7-2,1.7-2.6,2.9
	c-0.6,1.2-0.9,2.4-0.9,3.8v32c0,1.6,0.5,3.2,1.4,4.5C130.3,133.8,131.5,134.8,133,135.4z M144,107.8l64,25.6v14.8l-64-25.6V107.8z"
	/>
<path d="M272,128v32c0,1.3,0.3,2.6,0.9,3.8c0.6,1.2,1.5,2.1,2.6,2.9c1.1,0.7,2.3,1.2,3.6,1.3c1.3,0.1,2.6,0,3.8-0.5l80-32
	c1.5-0.6,2.8-1.6,3.7-2.9c0.9-1.3,1.4-2.9,1.4-4.5V96c0-1.3-0.3-2.6-0.9-3.8c-0.6-1.2-1.5-2.1-2.6-2.9c-1.1-0.7-2.3-1.2-3.6-1.3
	c-1.3-0.1-2.6,0-3.8,0.5l-80,32c-1.5,0.6-2.8,1.6-3.7,2.9C272.5,124.8,272,126.4,272,128L272,128z M288,133.4l64-25.6v14.8l-64,25.6
	V133.4z"/>
<path d="M133,199.4l80,32c1.2,0.5,2.5,0.7,3.8,0.5c1.3-0.1,2.5-0.6,3.6-1.3c1.1-0.7,2-1.7,2.6-2.9c0.6-1.2,0.9-2.4,0.9-3.8v-32
	c0-1.6-0.5-3.2-1.4-4.5c-0.9-1.3-2.2-2.3-3.7-2.9l-80-32c-1.2-0.5-2.5-0.7-3.8-0.5c-1.3,0.1-2.5,0.6-3.6,1.3c-1.1,0.7-2,1.7-2.6,2.9
	c-0.6,1.2-0.9,2.4-0.9,3.8v32c0,1.6,0.5,3.2,1.4,4.5C130.3,197.8,131.5,198.8,133,199.4z M144,171.8l64,25.6v14.8l-64-25.6V171.8z"
	/>
<path d="M364.5,153.4c-1.1-0.7-2.3-1.2-3.6-1.3c-1.3-0.1-2.6,0-3.8,0.5l-80,32c-1.5,0.6-2.8,1.6-3.7,2.9c-0.9,1.3-1.4,2.9-1.4,4.5
	v32c0,1.3,0.3,2.6,0.9,3.8c0.6,1.2,1.5,2.1,2.6,2.9c1.1,0.7,2.3,1.2,3.6,1.3c1.3,0.1,2.6,0,3.8-0.5l80-32c1.5-0.6,2.8-1.6,3.7-2.9
	c0.9-1.3,1.4-2.9,1.4-4.5v-32c0-1.3-0.3-2.6-0.9-3.8C366.5,155.1,365.6,154.1,364.5,153.4z M352,186.6l-64,25.6v-14.8l64-25.6V186.6
	z"/>
<path d="M103.7,61.8c-0.6-2-2-3.8-3.8-4.8c-1.9-1-4-1.3-6.1-0.7l-56,16c-2,0.6-3.8,2-4.8,3.8c-1,1.9-1.3,4-0.7,6.1
	c0.6,2,2,3.8,3.8,4.8c1.9,1,4,1.3,6.1,0.7l56-16c2-0.6,3.8-2,4.8-3.8C104,66,104.3,63.8,103.7,61.8L103.7,61.8z"/>
<path d="M397.8,71.7l56,16c2,0.6,4.2,0.3,6.1-0.7c1.9-1,3.2-2.8,3.8-4.8c0.6-2,0.3-4.2-0.7-6.1s-2.8-3.2-4.8-3.8l-56-16
	c-1-0.3-2.1-0.4-3.1-0.3c-1,0.1-2.1,0.4-3,1c-0.9,0.5-1.7,1.2-2.4,2c-0.7,0.8-1.1,1.8-1.4,2.8c-0.3,1-0.4,2.1-0.3,3.1
	c0.1,1,0.4,2.1,1,3c0.5,0.9,1.2,1.7,2,2.4C395.8,70.9,396.8,71.4,397.8,71.7z"/>
</svg>
