<?xml version="1.0" encoding="utf-8"?>
<!-- Generator: Adobe Illustrator 26.0.0, SVG Export Plug-In . SVG Version: 6.00 Build 0)  -->
<svg version="1.1" id="katman_1" xmlns="http://www.w3.org/2000/svg" xmlns:xlink="http://www.w3.org/1999/xlink" x="0px" y="0px"
	 viewBox="0 0 383.6 379.5" style="enable-background:new 0 0 383.6 379.5;" xml:space="preserve">
<g>
	<path d="M307.5,35.7c-0.4-0.7-1.1-1.2-1.8-1.4l-47.9-11.1L230.4,0.7c-0.3-0.3-0.7-0.2-1.1-0.3C229,0.2,228.8,0,228.5,0l-73.4,0
		c-0.3,0-0.5,0.2-0.8,0.3c-0.4,0.1-0.8,0.1-1.1,0.3l-27.3,22.6L78,34.4c-0.8,0.2-1.4,0.7-1.9,1.4L0.4,164.5
		c-0.6,1.1-0.5,2.4,0.3,3.4c15.3,18.7,36,32.3,59.2,39c1.2,0.3,2.4-0.1,3.1-1l26.4-34.3c-6.4,203.6-4.1,205.9-3,207l0,0
		c0.6,0.6,1.3,0.9,2.1,0.9h206.6c0.8,0,1.6-0.3,2.1-0.9c1.1-1.1,3.4-3.5-3-207l26.4,34.3c0.7,0.9,2,1.4,3.1,1
		c23.2-6.7,43.8-20.3,59.2-39c0.8-0.9,0.9-2.3,0.3-3.4L307.5,35.7z M207.3,158.7l-12.6,11.6l-0.2-116.9l12.6,13.4L207.3,158.7z
		 M191.8,41.9l-30.4-36h60.9L191.8,41.9z M154.7,7l33.2,39.3l-21.8,23.2l-34.8-43.1L154.7,7z M212.1,63.8l-0.2-0.2l-16.2-17.3
		L228.9,7l23.4,19.4l-34.8,43.1L212.1,63.8z M324.1,200.6l-30.7-39.9l0,0c-0.8-1-2.1-1.4-3.3-1c-1.2,0.4-2,1.6-1.9,2.8
		c2.5,77.7,5.6,193.6,4.5,211H91c-1-17.4,2.1-133.3,4.5-211c0-1.3-0.7-2.4-1.9-2.8c-1.2-0.4-2.5,0-3.3,1l-30.7,39.9l0,0
		c-20.7-6.4-39.1-18.5-53.1-35L80.5,39.8l45.6-10.5l37.6,46.5c0.5,0.7,1.3,1,2.2,1.1h0.1c0.8,0,1.6-0.3,2.1-0.9L188.7,54l0.2,123
		c0,0.4,0.3,0.7,0.4,1c0.1,0.3,0.1,0.7,0.4,1l0.1,0v0c0.5,0.6,1.3,0.9,2.1,0.9h0l0.2-0.1h0c0.7,0,1.3-0.3,1.8-0.7l18.4-17
		c0.6-0.6,0.9-1.3,0.9-2.2L213,73.1l2.6,2.8c0.5,0.6,1.3,0.9,2.1,0.9h0.1c0.8,0,1.6-0.4,2.2-1.1l37.6-46.5l45.6,10.5l74,125.8
		C363.1,182.1,344.7,194.3,324.1,200.6L324.1,200.6z"/>
	<path d="M220,64.6c1.2-1.1,1.3-2.9,0.2-4.1l-15.7-17.2h0c-1.1-1.2-2.9-1.3-4.1-0.2c-1.2,1.1-1.3,2.9-0.2,4.1l15.7,17.2v0
		c0.6,0.6,1.3,1,2.2,1C218.8,65.4,219.5,65.1,220,64.6L220,64.6z"/>
	<path d="M165.4,65.3c0.8,0,1.6-0.3,2.2-0.9l15.7-17.2c1.1-1.2,1-3-0.2-4.1c-1.2-1.1-3-1-4.1,0.2l-15.7,17.2c-0.8,0.9-1,2.1-0.5,3.1
		C163.2,64.7,164.2,65.3,165.4,65.3L165.4,65.3z"/>
</g>
</svg>
