<?xml version="1.0" encoding="utf-8"?>
<!-- Generator: Adobe Illustrator 26.0.0, SVG Export Plug-In . SVG Version: 6.00 Build 0)  -->
<svg version="1.1" id="katman_1" xmlns="http://www.w3.org/2000/svg" xmlns:xlink="http://www.w3.org/1999/xlink" x="0px" y="0px"
	 viewBox="0 0 401.2 386.4" style="enable-background:new 0 0 401.2 386.4;" xml:space="preserve">
<g>
	<path d="M317.5,15.9c-0.4-0.7-1.1-1.2-1.9-1.3L248.8,0.1c-0.8-0.2-1.6,0-2.2,0.4c-0.6,0.4-1.1,1.1-1.3,1.9
		c-1.5,11.3-6.8,21.7-14.8,29.7c-8.1,8-18.6,13.1-29.9,14.5c-11.3-1.4-21.8-6.5-29.9-14.5c-8.1-8-13.3-18.4-14.8-29.7
		c-0.1-0.8-0.6-1.4-1.3-1.9c-0.7-0.4-1.4-0.6-2.2-0.4L85.6,14.6h0c-0.8,0.2-1.5,0.7-1.9,1.3L0.4,154.6c-0.6,1-0.5,2.4,0.2,3.3
		c17.8,22,41.7,38.3,68.6,47c1.4,0.5,2.9-0.1,3.5-1.4l19.8-37.6L83.3,365c-0.1,1.3,0.7,2.5,2,2.9c36.9,13.2,76,19.4,115.2,18.3
		c3.9,0.2,7.7,0.3,11.7,0.3c35.4-0.5,70.4-6.8,103.8-18.5c1.2-0.4,2-1.6,2-2.9l-9.2-199.1l19.8,37.6c0.7,1.3,2.2,1.9,3.5,1.4
		c26.9-8.7,50.8-25,68.6-47c0.8-1,0.8-2.3,0.2-3.3L317.5,15.9z M332.4,198.6l-24.7-46.9v0c-0.6-1.2-2-1.8-3.4-1.5
		c-1.3,0.4-2.2,1.6-2.1,3l9.8,209.9c-35.8,12.6-73.6,18.4-111.5,17.3c-37.8,1.1-75.5-4.7-111.2-17.3L99,153.1c0.1-1.4-0.8-2.6-2.1-3
		c-1.3-0.4-2.8,0.2-3.3,1.5l-24.7,46.9c-24.3-8.2-45.8-23-62.3-42.7L88.1,20l62.7-13.6c2.2,11.4,7.9,21.9,16.3,30
		c8.4,8.1,19.1,13.4,30.6,15.2v59c0,1.6,1.3,2.9,2.9,2.9s2.9-1.3,2.9-2.9v-59c11.5-1.8,22.2-7.1,30.6-15.2
		c8.4-8.1,14.1-18.6,16.3-30L313.1,20l81.6,135.9v0C378.2,175.5,356.7,190.3,332.4,198.6L332.4,198.6z"/>
	<path d="M273.6,115.2h-42.8c-0.8,0-1.5,0.3-2.1,0.9s-0.9,1.3-0.9,2.1v60.5c0,0.8,0.3,1.5,0.9,2.1c0.5,0.5,1.3,0.9,2.1,0.9h42.8
		c0.8,0,1.5-0.3,2.1-0.9c0.5-0.5,0.9-1.3,0.9-2.1v-60.5c0-0.8-0.3-1.5-0.9-2.1C275.1,115.6,274.4,115.2,273.6,115.2z M233.7,121.1
		h36.9v9.1h-36.9V121.1z M233.7,175.8V136h36.9v39.7H233.7z"/>
</g>
</svg>
