<?xml version="1.0" encoding="utf-8"?>
<!-- Generator: Adobe Illustrator 26.0.0, SVG Export Plug-In . SVG Version: 6.00 Build 0)  -->
<svg version="1.1" id="katman_1" xmlns="http://www.w3.org/2000/svg" xmlns:xlink="http://www.w3.org/1999/xlink" x="0px" y="0px"
	 viewBox="0 0 446 449" style="enable-background:new 0 0 446 449;" xml:space="preserve">
<g>
	<path d="M410.5,126.7c-5.4-26.9-16.9-52.2-33.6-74c-16.7-21.8-38-39.5-62.6-51.9c-2.8-1.6-6.3-0.7-7.9,2.1
		c-18.2,32.9-47.9,58-83.4,70.4c-35.5-12.5-65.2-37.5-83.4-70.4c-1.6-2.8-5.2-3.7-8-2.1c-24.5,12.3-45.9,30.1-62.6,52
		c-16.7,21.8-28.1,47.2-33.6,74.1l-35.4,222c-0.3,1.7,0.2,3.4,1.3,4.7c1.1,1.3,2.8,2,4.5,2l62.5-0.8c2.5,0,4.7-1.6,5.4-4
		c17.6-49.6,26.7-101.9,26.7-154.6c10.9,70.5,2.3,142.6-24.8,208.5c-1.1,2.8,0.1,5.9,2.7,7.3c43.1,23.4,91.3,36,140.3,36.6
		c0.6,0.2,1.2,0.2,1.8,0.2c0.6,0,1.1,0,1.7-0.1l0.7-5.8l0.8,5.8c0.2,0,1.6,0.1,1.9,0.1c0.5,0,1-0.1,1.5-0.2
		c49.1-0.6,97.3-13.1,140.4-36.6c2.6-1.4,3.8-4.6,2.7-7.3c-27.2-65.9-35.8-138.1-24.8-208.5c0,52.7,9.1,105,26.7,154.6
		c0.8,2.3,3,3.9,5.4,4l62.5,0.8v0c1.7,0,3.3-0.8,4.5-2c1.1-1.3,1.6-3,1.3-4.7L410.5,126.7z M381.9,343.3L381.9,343.3
		c-26.4-72.7-31.6-151.4-15.1-227c0.7-3-1.1-6-4-6.9c-2.9-0.9-6.1,0.7-7.1,3.5c-36.1,93.9-35.4,197.9,1.9,291.3
		c-40.5,21.2-85.5,32.5-131.3,32.8h-0.6c-0.4,0-0.9,0.1-1.3,0.2c-0.5,0-0.9-0.1-1.4-0.1c-0.3,0-0.7,0-1.2,0
		c-0.4-0.1-0.9-0.2-1.3-0.2h-0.6c-45.8-0.4-90.8-11.6-131.3-32.8c37.3-93.4,38-197.4,1.9-291.3c-1.1-2.9-4.2-4.4-7.1-3.5
		c-2.9,0.9-4.7,3.9-4,6.9c16.5,75.6,11.3,154.3-15.1,227l-51.4,0.6l34.2-215c4.8-24.4,14.9-47.4,29.7-67.3
		c14.8-19.9,33.9-36.3,55.9-47.8c20.1,33.6,51.6,58.9,88.7,71.2c1.1,0.4,2.4,0.4,3.5,0c37.2-12.3,68.7-37.6,88.7-71.2
		c21.9,11.5,41,27.9,55.8,47.7s25,42.8,29.7,67.2l34.3,215.2L381.9,343.3z"/>
	<path d="M106.7,391.9c-1.4-0.6-3-0.6-4.5,0c-1.4,0.6-2.6,1.7-3.2,3.1c-0.6,1.4-0.6,3,0,4.5c0.6,1.4,1.7,2.6,3.2,3.2
		c38.8,16.6,80.6,25.3,122.9,25.6c42.2-0.2,84-8.9,122.9-25.6c3-1.3,4.3-4.7,3.1-7.6c-1.2-3-4.6-4.4-7.6-3.1
		c-37.3,16.2-77.6,24.6-118.4,24.6C184.3,416.5,144,408.1,106.7,391.9L106.7,391.9z"/>
	<path d="M221.1,111.8c1.3,0.5,2.7,0.5,3.9,0c39.1-14.4,73.8-38.7,100.7-70.5c2.1-2.4,1.9-6.1-0.6-8.2c-2.4-2.1-6.1-1.9-8.2,0.6
		C291.7,63.4,259.4,86.2,223,100c-36.4-13.8-68.7-36.6-93.9-66.3c-1-1.2-2.5-1.9-4-2s-3.1,0.4-4.2,1.4c-1.2,1-1.9,2.5-2,4
		c-0.1,1.6,0.4,3.1,1.4,4.2C147.2,73.1,181.9,97.4,221.1,111.8L221.1,111.8z"/>
</g>
</svg>
