<?xml version="1.0" encoding="utf-8"?>
<!-- Generator: Adobe Illustrator 26.0.0, SVG Export Plug-In . SVG Version: 6.00 Build 0)  -->
<svg version="1.1" id="katman_1" xmlns="http://www.w3.org/2000/svg" xmlns:xlink="http://www.w3.org/1999/xlink" x="0px" y="0px"
	 viewBox="0 0 367.7 478" style="enable-background:new 0 0 367.7 478;" xml:space="preserve">
<g>
	<path d="M366.5,326.8c0.9-17.8-13.4-152-16.5-175.5c-4.6-34.7-10.7-57.2-18.7-69s-35.5-26.8-62.8-40.8l-8.1-4.1
		c-12-6.3-26.9-27.3-31.6-34.9c-1.1-1.7-3-2.6-5-2.5h-80.5c-0.3,0-0.6,0-1,0h-0.5c-0.6,0.1-1.2,0.4-1.7,0.7h-0.3
		c-0.4,0.3-0.8,0.7-1.1,1.2c-4.7,7.6-19.6,28.6-31.6,34.9L99,40.9c-27.3,14-54.7,28.7-62.8,40.8c-8.2,12-14.1,34.3-18.6,69
		C14.5,174.2,0.2,308.4,1.1,326.2C2.1,344,0,468.7,0,470c0,2.9,2.2,5.3,5.1,5.6c1.2,0,26.8,2.3,37.7,2.3h2.6c2.8-0.2,5-2.3,5.3-5.1
		c0-0.5,4.9-52.6,9.7-86.3c4.1-28.5,8.2-75.7,9.9-95.7c0.4-4,0.6-6.9,0.8-8.5s0.3-4.3,0.6-7.8c0.8-11.7,2.2-32,5-51.7
		c2.5,12.3,4.6,23.9,5,28c0.9,9.9,4,59.4,3.1,75.2c-0.9,15.8-8.7,87.4-8.8,88.1c-0.3,2.9,1.7,5.6,4.6,6.2c2.5,0.4,57.6,10,94.1,10
		h8.4h0.3h8.4c36.5,0,91.6-9.6,94.1-10c2.9-0.5,4.9-3.2,4.6-6.2c0-0.7-8-72.1-8.8-88.1c-0.8-16.1,2.2-65.2,3.1-75.2
		c0.4-4.4,2.9-17.4,5.6-30.5c3.1,20.6,4.6,42.1,5.6,54.3c0,3.5,0.4,6.2,0.6,7.8s0.4,4.5,0.8,8.5c1.7,20,5.6,67.2,9.9,95.7
		c4.8,33.6,9.7,85.8,9.7,86.3l0,0c0.2,2.8,2.5,4.9,5.3,5.1h2.6c10.9,0,36.6-2.2,37.7-2.3l0,0c2.9-0.3,5.1-2.7,5.1-5.6
		C367.4,468.6,365.9,343.7,366.5,326.8L366.5,326.8z M208.7,11c-8.2,6.9-18.7,10.6-29.5,10.2c-8.5-1-16.5-4.5-22.9-10.2
		C156.3,11,208.7,11,208.7,11z M87.8,409.9c1.9-16.8,7.6-69.6,8.3-83.5c0.9-16.8-2.2-66.4-3.1-76.8c-0.8-9.4-9.2-49.4-10.6-56l0,0
		c1.4-17.6-0.5-35.2-5.6-52.1c-5-13.7-7-28.4-5.9-42.9c0.1-1.5-0.3-3-1.3-4.1s-2.3-1.9-3.8-2c-3.1-0.3-5.8,2-6,5
		c-1.2,16.2,1,32.4,6.5,47.7c4.6,15.5,6.3,31.7,5.1,47.8c-6.9,26.4-9.4,62.8-10.6,80.4c0,3.4-0.4,6-0.5,7.6s-0.4,4.5-0.8,8.6
		c-1.7,19.9-5.6,66.7-9.9,95.2c-4.3,28.5-8,67.8-9.4,81.8c-7.6,0-20.4-1.1-28.7-1.8c0.3-24.3,1.6-123.2,0.8-138.5
		s12.9-146.6,16.4-173.6c4.3-32.4,10-54,16.8-64.2S87.4,60,104.1,51.4l8.2-4.2c12.4-6.6,25.2-23.3,31.6-32.5l0,0
		c8.8,9.6,20.7,15.9,33.6,17.6l0.8,386.4C148.9,419.5,103.1,412.4,87.8,409.9L87.8,409.9z M327.4,466.5c-1.3-14-5.6-54-9.3-81.8
		c-3.7-27.7-8.2-75.2-9.9-95.1c-0.4-4-0.6-7-0.8-8.6c-0.2-1.6-0.3-4.1-0.6-7.6l0,0c-1.2-27-4.8-53.9-10.6-80.4
		c-1.2-16.1,0.5-32.3,5.1-47.8c5.5-15.3,7.7-31.5,6.5-47.7c-0.3-3.1-3-5.3-6-5c-1.5,0.1-2.9,0.8-3.8,2c-1,1.1-1.4,2.6-1.3,4.1
		c1.1,14.6-1,29.2-5.9,43c-4.9,16.2-6.8,33.1-5.6,50c-0.3,0.4-0.4,0.9-0.6,1.3c-0.4,1.8-9.9,46.6-10.8,56.6
		c-0.9,10-4.3,60.1-3.2,76.8c0.7,13.9,6.4,66.5,8.3,83.5c-15.2,2.5-60.3,9.4-89.6,9L188.5,32c13.2-2.4,25.2-8.9,34.5-18.4
		c6.2,9,19.5,26.8,32.4,33.6l8.1,4.2c16.8,8.6,51.5,26.4,58.7,37.1s12.5,31.8,16.8,64.2c3.5,26.9,17.2,157.4,16.4,173.6
		s0.5,114.2,0.8,138.5C347.8,465.4,335,466.4,327.4,466.5L327.4,466.5z"/>
</g>
</svg>
