<svg xmlns="http://www.w3.org/2000/svg" viewBox="0 0 288.01 360.01"><g id="katman_2" data-name="katman 2"><g id="katman_1-2" data-name="katman 1"><path d="M96,37.36c0-8,0-15.84,0-23.71,0-5,1.4-6.69,6.25-7.7,14.91-3.12,29.85-7,45.19-5.67C160.7,1.47,173.84,4,187,6.18c3.59.59,5.05,3.27,5,6.87-.05,8,0,16,0,24.34l25.94,7c11.93,3.2,23.92,6.2,35.77,9.68a41.74,41.74,0,0,1,29.86,38.15c1.31,23.7,2.82,47.39,4.25,71.09.07,1.25.16,2.5.17,3.75,0,4.3-1.78,6.51-6,7.07-13.5,1.76-27,3.54-40.51,5.09-2.5.29-3.08,1.33-3.83,3.5-4.56,13.14-3.23,26.61-2.63,40.05q2.5,55.44,4.93,110.86c.26,5.9-1,7.62-6.78,8.79q-43.68,8.81-87.38,17.47a10.74,10.74,0,0,1-4.07-.11Q98,351,54.32,342.22c-5.08-1-6.51-2.77-6.29-8Q50.43,279,52.9,223.73c.34-7.61,1.33-15.27.83-22.83-.46-6.76-2.49-13.44-4-20.1-.17-.7-1.88-1.35-2.94-1.49-13.36-1.78-26.74-3.47-40.12-5.17-5-.63-6.88-2.65-6.59-7.64,1.47-25.57,2.75-51.16,4.65-76.7C6,72.28,18.7,58.1,36.19,53.39q28-7.53,56.06-15C93.44,38.1,94.62,37.75,96,37.36ZM137.9,59.78c-3-.55-5.69-1-8.35-1.56s-5.29-1.51-8-2a4.75,4.75,0,0,0-3.3.82c-29,21.77-50.11,49.56-62.62,83.68a15.68,15.68,0,0,0-.55,7.93c1.69,8.93,3.88,17.77,5.75,26.68,2.57,12.23,5.57,24.3,11.6,35.4a46.69,46.69,0,0,1,1.88,4.49c12.44,30.2,19,61.71,20.88,94.24.2,3.53,1.08,5.23,4.91,5.77,6.79,1,13.47,2.64,20.2,4,5.8,1.16,11.6,2.26,17.59,3.43Zm12.26,262.94c13.62-2.68,26.84-5.24,40-8a3.92,3.92,0,0,0,2.26-2.72c.54-3.44.71-6.95,1-10.44a282.66,282.66,0,0,1,27.1-101.76,31.1,31.1,0,0,0,2.4-6.65c3.37-15.34,6.69-30.69,9.8-46.09a13.18,13.18,0,0,0-.57-6.84c-12.53-33.82-33.45-61.4-62.24-83.05a4.74,4.74,0,0,0-3.27-1c-5.46,1.13-10.88,2.51-16.47,3.85ZM106.27,51.13,106.14,50c-2.26-.34-4.7-1.42-6.74-.9C78.86,54.36,58.34,59.76,37.9,65.43,25.32,68.92,17.12,80,16.4,93.11c-.82,15-1.82,29.94-2.71,44.9-.48,8.19-.89,16.39-1.34,24.82l34.06,4.23c-3.48-17.52-6.86-34.48-10.28-51.68,2.13-.48,3.92-.92,5.73-1.27s3.84-.65,5.94-1c.38,1.79.67,3.24,1,4.68s.64,2.72,1.18,5A195.61,195.61,0,0,1,106.27,51.13Zm169.2,111.74c0-1.38,0-2.25,0-3.11-1.28-21.82-2.62-43.64-3.82-65.46-.85-15.23-9-25.57-23.62-29.51-19-5.12-38.11-10.08-57.11-15.29-3.38-.93-6.22-.77-9.36,1.5a196.13,196.13,0,0,1,55.83,70.49L240.22,107l11.68,2.18L241.41,167.1Zm-52.23,63.2c-11.45,27.38-16.94,55.89-18.53,85.76l22-4.41C225.56,280,224.4,253,223.24,226.07ZM83.06,311.76c.93-20.07-11.25-77.22-18.29-85.84-1.18,27.24-2.34,54.26-3.52,81.45Zm-22.22,7.81c-.19,3.13-.24,5.87-.57,8.58-.28,2.31.36,3.19,2.82,3.66,18.5,3.57,37,7.35,55.41,11.05,6.4,1.28,12.81,2.53,19.5,3.85,0-3.52.18-6.52-.1-9.48a3.59,3.59,0,0,0-2.17-2.56C110.93,329.58,86.1,324.63,60.84,319.57Zm166.24.09q-37.79,7.53-75.3,15.06a2.66,2.66,0,0,0-1.68,1.88c-.18,3.29-.08,6.6-.08,10,1.15-.14,1.77-.18,2.37-.3q32.66-6.56,65.3-13.12C228.19,331.13,228.2,331.15,227.08,319.66ZM144,25c11.44-1.84,22.74-3.64,34-5.53.7-.11,1.3-.85,2-1.3-.68-.54-1.27-1.4-2-1.6a133.11,133.11,0,0,0-68.1,0c-.67.17-1.18,1-1.77,1.45.61.47,1.17,1.26,1.85,1.38C121.19,21.37,132.49,23.18,144,25ZM107.39,31.6c.69,2.7.58,6.27,1.93,6.95a96.47,96.47,0,0,0,28.49,8.92V36.39Zm42.9,4.78V48.26c8.56-2.71,16.66-5.07,24.61-7.85,5.84-2,5.76-2.29,4.77-8.62Z"/></g></g></svg>