<?xml version="1.0" encoding="utf-8"?>
<!-- Generator: Adobe Illustrator 26.0.0, SVG Export Plug-In . SVG Version: 6.00 Build 0)  -->
<svg version="1.1" id="katman_1" xmlns="http://www.w3.org/2000/svg" xmlns:xlink="http://www.w3.org/1999/xlink" x="0px" y="0px"
	 viewBox="0 0 367 365.7" style="enable-background:new 0 0 367 365.7;" xml:space="preserve">
<g id="katman_2_00000148620265464216419420000013759389122975412409_">
	<g id="katman_1-2">
		<path d="M191.6,363.3l85.2-2.1c0-1.5,0.1-2.8,0-4.1c-2.4-45.9-1.5-91.8,0.2-137.6c1.1-28.6,2.9-57.2,4.3-85.8
			c-0.1-2.7,1.8-5.1,4.5-5.7c3-0.8,4.9,0.5,6.5,3.1c8,12.7,16.1,25.3,24.4,37.8c1,1.3,2.5,2,4.1,2c10.4-1.5,20.7-3.4,31-5.1
			c0.6-0.2,1.2-0.4,1.8-0.6c-0.6-5.1-1-10.1-1.7-15.2c-1.7-11.9-2.5-24-5.4-35.5c-4.6-18.4-15.2-32.8-32.7-41.1
			c-7.4-3.5-15.3-6-23-9.1c-13-5.2-25.9-10.6-38.8-15.9c-1.4-0.5-2.8-1-5.1-1.9c0,8.4,0,16.3,0,24.1c0,1.1,0,2.2-0.1,3.4
			c-0.5,4.7-3.7,6.1-7.6,3.5c-5.3-3.5-10.7-7-16-10.5c-0.4-0.1-0.7-0.2-1.1-0.3c-3.7,4.3-7.6,8.7-11.4,13.1
			c-7,8-13.7,16.3-21.4,23.6c-3.4,3.3-3.4,5.9-2.7,9.8c5.9,33.5,5.8,66.9-1.9,100.1c-0.3,1.4-0.8,2.8-1.2,4.2l-1.1,0.1
			c-1.5-7.2-3.5-14.4-4.4-21.7c-3.3-29.5-3.4-58.9,2.3-88.1c0.2-1-0.6-2.3-1.3-3.2c-1.1-1.3-2.6-2.2-3.8-3.5
			c-9.6-10.8-19.1-21.5-28.6-32.3c-0.8-0.9-1.6-1.8-2.7-3c-5.4,3.5-10.7,7.1-16.1,10.3c-1.4,0.9-4,1.8-4.9,1.2
			c-1.5-1.3-2.5-3.2-2.7-5.2c-0.5-7.6-0.5-15.2-0.7-22.9c0-1.2-0.1-2.4-0.2-4.1L93.9,56.1c-11,4.7-22,9.5-33.1,14.1
			c-3.2,1.3-6.9,1.3-9.9,2.9c-17.3,9.2-27.7,24-31.2,43c-2.8,15-4.2,30.2-6.2,45.3c-0.1,0.9-0.1,1.7,0,2.6
			c8.2,1.4,16.2,2.8,24.3,4.1c3.6,0.6,7.7,2.3,10.5,1.1c2.7-1.1,4-5.4,5.9-8.4c6.7-10.4,13.4-20.8,20.2-31.2c1.6-2.4,3.7-4,6.6-3.2
			s3.7,3.1,3.8,5.8c3.3,64.9,6.8,129.9,5.8,194.9c-0.2,10.1-0.8,20.2-1.3,30.4c0,0.6,0,1.2,0,2.2l84.4,2.1v0.4
			c-28.4,0.6-56.7,1.2-85.1,1.9c-3,0.1-3.8-1.1-3.8-4c-1-39-1.6-78-3.2-117c-1.3-30-3.9-59.9-5.9-89.8c-0.1-1-0.3-1.9-0.6-3.6
			c-1,1.5-1.7,2.5-2.3,3.5c-5.1,8.2-10.2,16.3-15.2,24.5c-3.2,5.2-4.5,5.7-10.5,4.8c-13.8-2.1-27.7-4-41.5-6.1
			c-3.8-0.6-5.9-2.8-5.4-6.7c2.1-18.6,3.6-37.3,6.9-55.7s12.5-34.1,27.8-45.3C41,64.3,48.4,61.3,55.5,58c18.4-8.4,36.9-16.6,55.2-25
			c2.8-1.3,5.4-3.1,7.6-5.2c8.4-8,16.7-16.1,25-24.3c2.2-2.3,5.2-3.5,8.4-3.5c20.8,0.1,41.5,0.1,62.3,0c3-0.1,5.9,1.1,8,3.3
			c7,7,14.3,13.6,21.1,20.8c4.6,4.8,10.1,8.5,16.2,11c19.2,8.1,38.3,16.5,57.3,25c25.9,11.6,40.2,32.1,44.1,59.9
			c2.3,16.3,4.1,32.7,6,49.1c0.8,6.5-0.5,8.3-7.1,9.3c-14.1,2.2-28.2,4.1-42.3,6.2c-3.7,0.5-6.2-1-8.1-4.1
			c-5.2-8.5-10.5-17-15.8-25.5c-0.6-1-1.3-2-2.6-3.8c-0.4,5.5-0.9,10-1.2,14.6c-4.7,65.1-9.5,130.2-8.4,195.5c0,3.1-0.7,4.5-4.1,4.4
			c-28.5-0.7-57-1.2-85.5-1.7L191.6,363.3z M182,86.1c10.5-9.8,21.7-20.3,32.9-30.8c4.3-4,6.7-4.3,11.4-0.6c4.3,3.4,8.4,7,12.9,10.9
			c1.1-4.8,2-9.3,3.2-13.7c1.2-4.6,1-7.9-3.3-11.5c-8.6-7.3-16.3-15.8-24.6-23.6c-1.7-1.5-3.9-2.4-6.1-2.6
			c-17.6-0.2-35.2-0.1-52.8-0.2c-2.4-0.1-4.6,0.9-6.2,2.6c-9.2,9-18.5,17.9-27.8,26.8c-0.6,0.5-0.9,1.3-0.9,2.1
			c1.5,6.6,3.1,13.1,4.8,20.1l13.4-11.3c4.5-3.8,6.1-3.8,10.4,0.5c5.7,5.7,11.2,11.4,17,16.9C171.8,77,177.5,82,182,86.1z"/>
	</g>
</g>
</svg>
