<?xml version="1.0" encoding="utf-8"?>
<!-- Generator: Adobe Illustrator 26.0.0, SVG Export Plug-In . SVG Version: 6.00 Build 0)  -->
<svg version="1.1" id="katman_1" xmlns="http://www.w3.org/2000/svg" xmlns:xlink="http://www.w3.org/1999/xlink" x="0px" y="0px"
	 viewBox="0 0 302.4 329.4" style="enable-background:new 0 0 302.4 329.4;" xml:space="preserve">
<g id="katman_2_00000181074902039903337540000001233796048038661262_">
	<g id="katman_1-2">
		<path d="M185.3,0c5,4.5,9.9,9,14.9,13.4c1.2,0.9,2.5,1.6,3.9,2c15,5.1,30,10.3,43.8,18.2c6.4,3.5,11.6,8.9,14.7,15.5
			c12.3,25.3,25.2,50.3,37.9,75.4c3,6,2.7,7-3.2,9.8c-17.4,8.4-34.8,16.9-52.3,25.3c-2.2,1.1-3.1,2.3-3.1,4.8
			c0.1,51.1,0.1,102.2,0.1,153.3c0,6.1-0.4,7-6.5,7.6c-12.1,1.3-24.3,2.5-36.5,3c-36.2,1.3-72.4,1.3-108.6-0.6
			c-8.1-0.4-16.2-1.4-24.3-2.5c-5.2-0.7-5.8-1.7-5.8-6.9c0-51.2,0-102.4,0.1-153.6c0-2.7-0.8-4.1-3.3-5.3
			c-17.5-8.3-34.9-16.8-52.3-25.2c-5.5-2.6-5.9-3.9-3.1-9.4C14,100.4,26.8,76.2,38.5,51.4C42.6,42.2,50,35,59.3,31
			c12.8-5.6,26-10.4,38.9-15.7c1.9-1,3.7-2.2,5.3-3.7c4.6-3.8,9-7.8,13.6-11.6L185.3,0z M68.3,318.2c55.2,4.1,110.6,4.1,165.8,0
			v-4.6c0-64.3,0-128.6,0-192.9c0-3.2,0.1-6.4,0.4-9.6c1.9-19.2,7.8-37.4,15.3-55.1c3.9-9.3,4-9.4-4.7-14.6
			C232.8,34,219.4,29,206,24.5c-0.2-0.1-0.6,0.1-1.1,0.2c0,2.8,0.5,5.7-0.1,8.3c-2.9,14.1-6.1,28.2-9.3,42.3c-0.8,3.3-2.6,4.3-6,3.4
			c-6.9-1.8-13.9-3.6-20.8-5.5c-6.3-1.7-6.1-1.6-10.1,3.7c-2.6,3.3-3.9,7.4-3.6,11.5c0.3,8.3,0.1,16.7,0.1,25.1
			c0,3.3-1.4,5.2-3.9,5.2s-4-1.8-4-5.1c0-7.2-0.5-14.4,0.1-21.5c0.7-6.7-1.5-13.5-6-18.5c-1.2-1.4-2.2-1.9-4-1.4
			c-6.9,1.9-13.8,3.8-20.8,5.6c-8.5,2.3-8.8,2.2-10.8-6.4c-3.6-15.5-8.4-30.7-8.8-46.9c-0.4,0-0.7,0-1.1,0.1
			c-10.2,4.1-20.6,8-30.6,12.4c-4.7,2.1-8.8,5.2-13.2,7.9c-2.4,1.5-3.3,3.4-1.8,6.4c2.2,4.5,4.1,9.2,5.8,13.9
			c6.9,18.7,12.1,37.6,12,57.8c-0.2,63.4-0.1,126.9-0.1,190.3L68.3,318.2z M59.9,137.6c2.9-28.3-4.2-54.2-15.3-80l-29.3,58.1
			L59.9,137.6z M287.2,115.8c-9.9-19.5-19.5-38.6-29.3-58.1c-11.2,25.8-18.2,51.8-15.4,80L287.2,115.8z M173.7,20h-44.8
			c0.2,0.8,0.3,1.4,0.5,2c5.1,13.9,10.1,27.9,15.4,41.8c1.4,3.5,4,6.5,6.4,10.4c2.5-4.3,5.2-7.8,6.7-11.6c3.6-8.9,6.7-18,10-27.1
			C169.9,30.4,171.7,25.3,173.7,20z M113.4,70.3l22.9-6.1l-19.8-53.9c-7.3,5.7-12.7,12-11.1,21.4C107.8,44.5,110.7,57.2,113.4,70.3z
			 M185.8,10.3c-6.6,18.1-13.1,35.9-19.8,53.9l22.4,6c0.2-0.5,0.4-0.9,0.6-1.4c2.5-11.2,4.8-22.3,7.4-33.5
			C198.9,24.5,194.5,16.8,185.8,10.3L185.8,10.3z M11.7,123l-2.4,4.6l51.4,24.9c-0.9-2.9,0.7-5.2-2.3-6.7
			C42.9,138.3,27.5,130.7,11.7,123z M242.4,152.1l50.7-24.6c-0.9-1.7-1.6-3.1-2.3-4.6c-15.4,7.5-30.4,15-45.6,22.2
			C241.8,146.7,241.7,148.8,242.4,152.1z M124.8,8.2c0,2.9,1.2,3.7,3.6,3.7c15.2-0.1,30.4-0.1,45.6,0c2.6,0,3.6-1,3.5-3.7H124.8z"/>
		<path d="M165.4,91.3c-0.3,2.1-2.2,3.7-4.3,3.4c-1.9-0.2-3.4-1.9-3.4-3.8c0-2.2,1.8-4,4-4c0,0,0.1,0,0.1,0
			C164,87,165.6,89,165.4,91.3C165.5,91.2,165.5,91.2,165.4,91.3z"/>
	</g>
</g>
</svg>
