<?xml version="1.0" encoding="utf-8"?>
<!-- Generator: Adobe Illustrator 26.0.0, SVG Export Plug-In . SVG Version: 6.00 Build 0)  -->
<svg version="1.1" id="katman_1" xmlns="http://www.w3.org/2000/svg" xmlns:xlink="http://www.w3.org/1999/xlink" x="0px" y="0px"
	 viewBox="0 0 45.2 57" style="enable-background:new 0 0 45.2 57;" xml:space="preserve">
<g id="Layer_25">
	<path d="M6.8,8.8c-0.8,0.4,0,1.3,0,2c-0.4,4-1.6,6.3-2.7,9.4c-0.1,0.3,0,0.5,0.3,0.6c0,0,0,0,0,0c0.3,0.1,0.5,0,0.6-0.3
		c0,0,0,0,0,0c0.7-2.1,1.6-3.9,2.2-6.3c0.2,2.4,0.3,5.4,0.2,9c0,0.3,0.2,0.5,0.5,0.5c0.3,0,0.5-0.2,0.5-0.5c0,0,0,0,0,0
		C8.5,17.6,8.3,8.3,6.8,8.8z"/>
	<path d="M38.4,9.6c0.4,2.4,0.5,4.9,0.2,7.4c0,0.3,0.2,0.5,0.4,0.6s0.5-0.2,0.6-0.4c0.3-2.5,0.2-5.1-0.2-7.6
		c-0.1-0.3-0.3-0.4-0.6-0.4C38.6,9.1,38.4,9.3,38.4,9.6z"/>
	<path d="M45.1,20.4c-0.3-0.6-0.6-1.4-1-2.2l0,0l0,0c-1.1-2.5-2.4-6-4-10.4c-0.5-3.4-2-5.6-4.2-6.5c-2.3-1.2-3-1.3-3.3-1.2l0,0h-0.1
		l0,0c-2.2,3.1-5.9,5-9.7,4.9c-3.7,0-7.3-1.7-9.6-4.7l0,0C13.1,0.1,12.9,0,12.7,0c-1.2,0.9-2.6,1.6-4.1,2c-1.3,1-2,2.7-2.5,4.6
		L0,19.7C0,19.9,0,20.1,0.1,20.2c2.3,3,5.3,5.2,8.8,6.5c0.1,0.1,0.3,0.1,0.4,0c0.1,4.2-0.1,8.4-0.4,12.6C9.3,44.7,9.3,50,8.8,55.4
		c0,0.1,0,0.1,0,0.2l0,0c0.5,1.2,1.8,1.8,3,1.3c1.6-0.7,3.4-0.9,5.1-0.5c0.1,0,0.3,0,0.4-0.1c0.9-0.7,2.1-1.1,3.2-1
		c1.4,0.9,3.2,1.2,4.8,0.8c2.4,0.5,4.8,0.7,7.2,0.5c3,0.4,4,0.3,4-0.8c0.4-10.2,0.2-20.5-0.5-30.7c0.4,0.2,0.9,0.5,1.3,0.3
		c2.3-1.6,4.8-3.1,7.3-4.3C45.1,21,45.2,20.7,45.1,20.4z M22.7,5.9c3.4,0.1,6.7-1.2,9.1-3.6C30.3,10,27.9,15.3,24.6,18
		c-2,1.8-3.4,1.1-5-1.1l0,0l0,0c-2.2-2.6-4.2-7.5-5.9-14.5C16.2,4.6,19.4,5.8,22.7,5.9z M35.3,23.6c0.3,11.9,0.9,22.9,0.4,32.1
		c-1,0.2-2,0.1-3-0.1c-2.5,0.2-4.9,0-7.3-0.5c-1.5,0.4-3.2,0.2-4.5-0.7c-1.4-0.2-2.8,0.2-4,1C15,55,13.1,55.2,11.3,56
		c-0.6,0.2-1.3-0.1-1.6-0.6c0.4-5.3,0.4-10.7,0-16c0.4-5.2,0.5-10.4,0.4-15.6c0.3-3.3,0.4-6.7,0.2-10c0-0.3-0.2-0.5-0.5-0.5
		c0,0,0,0,0,0c-0.3,0-0.5,0.2-0.5,0.5c0,0,0,0,0,0c0.2,3.2,0.2,6.5-0.1,9.7c0,0,0,0.1,0,0.1c-0.1,0.7-0.2,1.3-0.4,1.9
		c-3-1.2-5.7-3.2-7.7-5.7c0.8-1.8,2.8-6.1,6-12.9C7.4,5.5,8.1,4.1,9,2.9c1.2-0.3,2.4-0.9,3.4-1.6c1.7,7.8,3.9,13.2,6.3,16.2
		c1.9,2.7,4.2,3.5,6.5,1.2c3.7-3,6.3-8.9,7.8-17.6c0.8,0.3,1.7,0.6,2.5,1c2,0.8,3.2,2.8,3.7,5.9c1.5,4.2,2.8,7.6,3.9,10.1
		c-2.2,1-4.3,2.3-6.2,3.9c-0.2-5,0.4-10.1,1.7-14.9c0.1-0.3-0.1-0.6-0.4-0.6c-0.3-0.1-0.6,0.1-0.6,0.4c-1.4,5-2,10.1-1.7,15.3
		c0,0.2,0.2,0.4,0.4,0.5C35.9,22.9,35.6,23.2,35.3,23.6z M37.2,24.4c-0.3-0.1-0.6-0.3-0.8-0.5c2-2.1,4.4-3.8,7.1-4.9
		c0.2,0.5,0.4,0.9,0.6,1.4C41.6,21.6,39.3,22.9,37.2,24.4z"/>
	<path d="M12,12.2c-0.1,14.5-0.3,24.3-0.6,29.2c0,0.3,0.2,0.5,0.5,0.5s0.5-0.2,0.5-0.5c0.3-4.9,0.5-14.7,0.6-29.2
		c0-0.3-0.2-0.5-0.5-0.5C12.2,11.7,12,11.9,12,12.2z"/>
	<path d="M35,4.7c0-0.3-0.2-0.5-0.4-0.6S34,4.3,34,4.6c-0.9,7.3-0.8,16.7,0.2,27.8c0,0.3,0.3,0.5,0.5,0.5c0,0,0,0,0,0
		c0.3,0,0.5-0.3,0.5-0.5c0,0,0,0,0,0C34.2,21.3,34.1,12,35,4.7z"/>
	<path d="M17.3,19.4c0-0.3-0.2-0.5-0.5-0.5s-0.5,0.2-0.5,0.5c0.7,14.9,2,26,3.9,32.8c0.1,0.2,0.3,0.4,0.5,0.4c0.3,0,0.5-0.2,0.5-0.5
		c0,0,0-0.1,0-0.1C19.3,45.2,18,34.3,17.3,19.4z"/>
</g>
</svg>
