<?xml version="1.0" encoding="utf-8"?>
<!-- Generator: Adobe Illustrator 26.0.0, SVG Export Plug-In . SVG Version: 6.00 Build 0)  -->
<svg version="1.1" id="katman_1" xmlns="http://www.w3.org/2000/svg" xmlns:xlink="http://www.w3.org/1999/xlink" x="0px" y="0px"
	 viewBox="0 0 48.8 57" style="enable-background:new 0 0 48.8 57;" xml:space="preserve">
<g id="Layer_5">
	<path d="M15.3,18.7c-0.1-0.3-0.3-0.4-0.6-0.4c-0.3,0.1-0.4,0.3-0.4,0.6c1.9,7,1.2,14.4-1.7,21c-0.1,0.3,0,0.5,0.3,0.6
		c0.2,0.1,0.5,0,0.6-0.2C16.6,33.5,17.2,25.9,15.3,18.7z"/>
	<path d="M20.6,25c-0.3,0-0.5,0.3-0.4,0.6c1.6,12.1,0.3,20.3-3.8,24.6c-0.2,0.2-0.2,0.5,0,0.7c0.1,0.1,0.2,0.1,0.4,0.1
		c4.9-4.2,5.9-13.1,4.4-25.6C21.1,25.2,20.9,25,20.6,25z"/>
	<path d="M34.5,18.9c0.1-0.3-0.1-0.6-0.4-0.6c-0.3-0.1-0.6,0.1-0.6,0.4c-1.9,7.2-1.3,14.9,1.8,21.7c0.1,0.3,0.4,0.4,0.7,0.3
		c0.3-0.1,0.4-0.4,0.3-0.7l0,0C33.2,33.3,32.6,25.9,34.5,18.9z"/>
	<path d="M48.8,25.4c-4-15.9-6.1-18.5-7.3-19c-2.6-1.3-5.4-2.4-8.2-3.3c-0.8-1.4-2.1-2.4-3.6-2.8c-1.7-0.3-3.5-0.3-5.3,0
		c-1.8-0.3-3.6-0.3-5.3,0c-1.5,0.4-2.8,1.4-3.6,2.8C12.7,4,10,5.1,7.3,6.4C6,6.9,3.9,9.6,0,25.4C0,25.7,0.1,26,0.4,26c0,0,0,0,0.1,0
		c1.5,0.1,3.8,1.4,6.6,3.8C7.2,30,7.3,30,7.4,30c0.2,0,0.3-0.1,0.4-0.2L9,28.1c-0.4,8.4-0.8,17.8-1.3,28.5C7.8,56.8,8,57,8.3,57
		c0,0,0,0,0,0c5.4-0.4,10.8-0.5,16.1-0.2c5.4-0.3,10.8-0.3,16.1,0.1c0.3,0,0.5-0.2,0.5-0.5c0,0,0,0,0,0c-0.5-10.6-0.9-20.1-1.3-28.5
		l1.2,1.7c0.2,0.2,0.5,0.3,0.7,0.1c0,0,0,0,0,0c2.9-2.5,5.1-3.8,6.6-3.9C48.6,26,48.8,25.7,48.8,25.4C48.8,25.4,48.8,25.4,48.8,25.4
		z M32,11.6c-1.2,0.1-2.3,0-3.5-0.1c2.1-4.4,2.8-7.6,2.1-9.9C33.7,3.6,33.3,6.9,32,11.6z M24.4,1.2L24.4,1.2c1.6-0.3,3.3-0.3,4.9,0
		c1.2,2,0.5,5.5-1.9,10.5c-0.8,0.9-1.9,1.5-3.1,1.8c-1.1-0.3-2.1-0.9-2.8-1.8c-2.5-5-3.1-8.5-1.9-10.5C21.2,0.9,22.8,0.9,24.4,1.2z
		 M18.2,1.6c-0.7,2.2,0,5.5,2.1,9.9c-1.2,0.1-2.3,0.2-3.5,0.1C15.6,6.9,15.1,3.6,18.2,1.6L18.2,1.6z M41.5,28.7l-1.8-2.6
		c-0.1-2.8-0.2-5.5-0.4-8c0-0.3-0.2-0.5-0.5-0.5c0,0,0,0-0.1,0c-0.3,0-0.5,0.2-0.5,0.5c0,0,0,0,0,0c0.1,2.6,0.2,5.3,0.4,8.2
		c0,0,0,0,0,0c0.1,2.1,0.2,4.3,0.3,6.5c-2.4-2.5-3.5-6-3.2-10.5c0-0.3-0.2-0.5-0.4-0.5c0,0,0,0,0,0c-0.3,0-0.5,0.2-0.5,0.5
		c0,0,0,0,0,0c-0.3,5.1,1,9.4,4.2,11.9c0.3,6.6,0.6,13.9,1,21.8c-5.2-0.4-10.4-0.5-15.6-0.1c-5.2-0.4-10.4-0.4-15.6,0
		c0.4-7.9,0.7-15.1,1-21.8c3.2-2.5,4.5-6.8,4.2-11.9c0-0.3-0.3-0.5-0.5-0.5c-0.3,0-0.5,0.2-0.5,0.5c0,0,0,0,0,0
		c0.3,4.5-0.8,8-3.2,10.5c0.1-2.2,0.2-4.4,0.3-6.5l0,0c0.1-2.9,0.2-5.6,0.4-8.2c0-0.3-0.2-0.5-0.5-0.5c0,0,0,0,0,0
		c-0.3,0-0.5,0.2-0.5,0.4c0,0,0,0,0,0.1c-0.1,2.5-0.2,5.2-0.4,8l-1.8,2.6c-2.6-2.1-4.6-3.4-6.2-3.7C5,10,6.7,7.7,7.9,7.3
		c2.3-1.2,4.7-2.2,7.2-3c-0.5,2.1,0,4.8,0.9,8c0.3,0.6,1.2,0.3,1.9,0.4c1,0,2-0.1,3-0.2c0.9,1,2,1.6,3.2,1.9c0.1,0,0.1,0,0.2,0l0,0
		c0.1,0,0.1,0,0.2,0c1.3-0.3,2.5-1,3.4-1.9c1,0.1,2,0.2,3,0.2c0.7-0.1,1.5,0.2,1.9-0.4c0.9-3.1,1.4-5.8,0.9-8c2.5,0.8,4.9,1.8,7.2,3
		c1.2,0.4,2.9,2.7,6.7,17.8C46.1,25.4,44.1,26.6,41.5,28.7z"/>
	<path d="M28.6,25.6c0-0.3-0.2-0.5-0.4-0.6c-0.3,0-0.5,0.2-0.6,0.4C26.1,37.9,27.2,46.8,32,51c0.3,0,0.5-0.2,0.5-0.5
		c0-0.1-0.1-0.3-0.1-0.4C28.3,45.9,27.1,37.6,28.6,25.6z"/>
</g>
</svg>
