<?xml version="1.0" encoding="utf-8"?>
<!-- Generator: Adobe Illustrator 26.0.0, SVG Export Plug-In . SVG Version: 6.00 Build 0)  -->
<svg version="1.1" id="katman_1" xmlns="http://www.w3.org/2000/svg" xmlns:xlink="http://www.w3.org/1999/xlink" x="0px" y="0px"
	 viewBox="0 0 42.2 57" style="enable-background:new 0 0 42.2 57;" xml:space="preserve">
<g id="Layer_23">
	<path d="M41.3,15.2c-0.2-2.5-1.4-4.8-3.2-6.5c-0.1-0.1-0.1-0.1-0.2-0.2c-0.8-0.7-1.6-1.2-2.5-1.6c-2.5-0.6-4.9-1.6-7.1-2.9
		c-0.2-1.2-0.8-2.3-1.7-3.1c-3.3-1.3-7.1-1.1-10.7-0.3c-0.6,0.2-0.4,1.2-0.8,1.7l0,0c-0.3,0.6-0.6,1.1-1.1,1.6
		c-0.3,0.2-0.6,0.4-1,0.7h-0.1c-0.8,0.5-1.6,0.9-2.5,1.2c-3.3,1-5.3,1.8-6.2,2.8C4,8.7,3.8,8.9,3.6,9.1l0,0C3.5,9.2,3.5,9.3,3.4,9.4
		C1,12.6,0.3,17.2,0,24.2c0,0.2,0.1,0.4,0.3,0.5c2.3,1.1,4.9,1.6,7.5,1.2c0.4,0,0.5-0.4,0.5-0.8c0.4,5.8,0.3,15.7-0.5,29.6
		c0,0.2,0.1,0.4,0.4,0.5c8.5,2.5,17.5,2.5,26.1,0.2c0.2-0.1,0.4-0.3,0.4-0.5C34.2,47.3,34,42,34.1,38.7c-0.3-4.4-0.3-8.8,0-13.2
		c0.1,0.2,0.2,0.3,0.4,0.3c2.5,0.2,4.9-0.2,7.2-1.1c0.2-0.1,0.3-0.2,0.3-0.4C42.4,23.1,42.1,20.1,41.3,15.2z M26.8,2.8
		C27,3.4,27.2,4,27.4,4.5l0,0c0,0,0,0.1,0.1,0.1l0,0c0.1,0.1,0.3,0.2,0.4,0.3c-0.1,1.7-0.5,3.3-1.3,4.8c-0.6-0.4-1.5-1.1-2.7-1.9
		C25.5,6.5,26.8,4.9,26.8,2.8z M20.9,10.4c-0.6-0.9-1.1-1.9-1.4-3C19.4,7.2,19.2,7,19,7.1h-0.8c-0.8-0.9-1.5-2-2-3.1
		c4.8-0.4,7.9-0.4,9.4,0C25,5.4,24,6.6,22.7,7.5l0,0c0,0-0.1,0.1-0.1,0.2C22.1,8.6,21.5,9.5,20.9,10.4z M21.4,11.4v6.3h-1v-6.3
		c0.1,0.2,0.3,0.3,0.5,0.3C21.1,11.8,21.3,11.6,21.4,11.4L21.4,11.4z M16,2.7c0.2-0.4,0.3-0.8,0.4-1.2c3-0.7,6.2-0.7,9.2,0.1
		c0.1,0.4,0.2,0.9,0.2,1.3c-1.7-0.5-5-0.4-9.8,0.1C15.9,2.9,15.9,2.8,16,2.7z M14.6,4.7C14.8,4.5,15,4.3,15.1,4
		c0.5,1.3,1.2,2.6,2.2,3.6c-0.6,0.7-1.2,1.4-2,1.9c-0.2-0.2-0.8-1.1-1.6-4.3C14,5.1,14.3,4.9,14.6,4.7L14.6,4.7z M7.3,24.8
		c-2.1,0.2-4.3-0.1-6.2-1c0.3-6.2,0.9-10.4,2.9-13.4c1.9,3.4,3.2,7.1,3.9,10.9C7.6,22.7,7.4,23.8,7.3,24.8z M33.8,21.6
		c-0.9,3.5-1.1,9.3-0.7,17.1c-0.1,3.2,0.1,8.4,0.5,15.8c-8.1,2.1-16.7,2-24.8-0.2c0.9-17.2,0.9-28.3,0-33l0,0
		c-0.8-4.1-2.2-8-4.2-11.7c0.1-0.1,0.2-0.3,0.4-0.4c0.8-0.7,2.8-1.6,5.8-2.5c0.7-0.3,1.4-0.6,2.1-0.9c1,4.2,1.8,4.9,2.5,4.9
		c1.2-0.6,2.2-1.5,2.9-2.6h0.4c0.2,0.6,0.4,1.1,0.7,1.6v8.5c0,0.3,0.2,0.5,0.5,0.5h2c0.3,0,0.5-0.2,0.5-0.5V10
		c0.3-0.4,0.6-0.9,0.8-1.4c1.6,1.2,2.7,1.9,3.2,2.3c0.1,0.1,0.3,0.1,0.4,0c0.1,0,0.2-0.1,0.3-0.2c0.9-1.6,1.5-3.3,1.6-5.1
		c2,1,4.1,1.8,6.2,2.4c0.7,0.3,1.4,0.7,2,1.2C35.8,11.1,34.7,15.2,33.8,21.6z M41.1,24c-2,0.7-4,1.1-6.1,1c-0.2-1.2-0.3-2.3-0.3-3.2
		c0.9-6.1,2-10.1,3-11.9c1.4,1.5,2.3,3.5,2.5,5.5l0,0c0,0.2,0,0.3,0.1,0.5C41.1,19.9,41.4,22.7,41.1,24z"/>
</g>
</svg>
