<?xml version="1.0" encoding="utf-8"?>
<!-- Generator: Adobe Illustrator 26.0.0, SVG Export Plug-In . SVG Version: 6.00 Build 0)  -->
<svg version="1.1" id="katman_1" xmlns="http://www.w3.org/2000/svg" xmlns:xlink="http://www.w3.org/1999/xlink" x="0px" y="0px"
	 viewBox="0 0 394.9 435.2" style="enable-background:new 0 0 394.9 435.2;" xml:space="preserve">
<g id="Polo_shirt">
	<path d="M197.4,89.5c-3.4,0-6.1,2.7-6.1,6.1c0,3.4,2.7,6.1,6.1,6.1c3.4,0,6.1-2.7,6.1-6.1v0C203.5,92.2,200.8,89.5,197.4,89.5z"/>
	<path d="M197.4,133.7c-3.4,0-6.1,2.7-6.1,6.1s2.7,6.1,6.1,6.1s6.1-2.7,6.1-6.1l0,0C203.5,136.4,200.8,133.7,197.4,133.7z"/>
	<path d="M261.8,428.3h-1.1c-1.9,0-3.4,1.5-3.4,3.5c0,1.9,1.5,3.4,3.4,3.4h1.1c1.9,0,3.5-1.5,3.5-3.4
		C265.3,429.9,263.8,428.3,261.8,428.3C261.8,428.3,261.8,428.3,261.8,428.3z"/>
	<path d="M393.9,182.5l-0.1-0.1l-4.6-8.5c0-1.2-0.6-2.2-1.5-2.9L329.9,64.2c-8.2-18.2-23.6-23.8-25.1-24.3l-51-19.2L236,1.2
		c0,0,0,0-0.1-0.1l-0.2-0.2c-0.1-0.1-0.1-0.2-0.2-0.3l-0.2-0.1c-0.5-0.3-1.1-0.5-1.8-0.5h-72c-0.2,0-0.5,0-0.7,0.1l0,0
		c-0.2,0-0.4,0.1-0.6,0.2c-0.1,0-0.1,0.1-0.2,0.1c-0.2,0.1-0.3,0.1-0.5,0.2c-0.1,0.1-0.1,0.1-0.2,0.2c-0.1,0.1-0.2,0.2-0.3,0.3h-0.1
		l-17.7,19.6l-51,19.2c-1.5,0.5-16.9,6.1-25.1,24.3L7.2,171.1c-0.5,0.3-0.9,0.7-1.2,1.2c-0.3,0.5-0.4,1.1-0.4,1.7L1,182.4L1,182.6
		c-2.2,4.4-0.5,9.8,3.9,12.1L79.3,235l-3.6,196.7c0,1.9,1.5,3.5,3.4,3.5c0,0,0,0,0,0h156.4c1.9,0,3.4-1.5,3.4-3.5
		c0-1.9-1.5-3.4-3.4-3.4H82.6L86,245.7c0.1-0.4,0.2-0.8,0.2-1.2v-97.6c0-1.9-1.5-3.5-3.4-3.5s-3.5,1.5-3.5,3.4c0,0,0,0,0,0v61.2
		l-65.2-35.3L71.1,67.3l0.1-0.2c4.1-9.4,11.6-16.8,21.1-20.7h0.2l47.5-17.9c3.5,29.6,32.2,61.9,33.5,63.3c0.7,0.7,1.6,1.1,2.6,1.1
		h0.2c1,0,2-0.6,2.6-1.4l18.6-25l18.6,25c0.6,0.8,1.6,1.3,2.6,1.4h0.2c1,0,1.9-0.4,2.6-1.1c1.3-1.4,30-33.7,33.5-63.3l47.5,17.9h0.2
		c0.1,0,13.9,4.6,21.1,20.7l0.1,0.2l57,105.4l-65.2,35.3v-61.2c0-1.9-1.5-3.5-3.4-3.5c-1.9,0-3.5,1.5-3.5,3.4c0,0,0,0,0,0v97.6
		c0,0.4,0.1,0.8,0.2,1.2l3.4,182.6h-25.1c-1.9,0-3.4,1.5-3.4,3.5c0,1.9,1.5,3.4,3.4,3.4h28.7c1.9,0,3.5-1.6,3.5-3.5c0,0,0,0,0,0
		L315.6,235l74.4-40.3C394.4,192.4,396.1,187,393.9,182.5z M79.3,215.9v11.3L8.1,188.6c-1.1-0.6-1.5-1.9-1-3l3.7-6.8L79.3,215.9z
		 M197.4,56.7C181,46.1,172.9,34.8,168.8,26H226C220.8,37.4,211,47.9,197.4,56.7z M230.3,6.9c0.1,4.1-0.5,8.2-1.7,12.2h-62.3
		c-1.2-4-1.7-8.1-1.7-12.2H230.3z M175.9,83.9c-7.5-9.2-28-36.1-29.2-59.1L158,12.4c0.4,3.8,1.2,7.6,2.5,11.3
		c6,17.5,20.1,30.1,32,38L175.9,83.9z M219,83.9l-16.5-22.2c16.1-10.7,26.8-23.3,31.8-37.6c1.3-3.8,2.2-7.7,2.7-11.7l11.3,12.4
		C247,47.8,226.5,74.8,219,83.9L219,83.9z M386.8,188.6l-71.2,38.5v-11.2l68.5-37.1l3.7,6.8C388.3,186.7,387.8,188,386.8,188.6z"/>
</g>
</svg>
