<?xml version="1.0" encoding="utf-8"?>
<!-- Generator: Adobe Illustrator 26.0.0, SVG Export Plug-In . SVG Version: 6.00 Build 0)  -->
<svg version="1.1" id="katman_1" xmlns="http://www.w3.org/2000/svg" xmlns:xlink="http://www.w3.org/1999/xlink" x="0px" y="0px"
	 viewBox="0 0 433.2 480" style="enable-background:new 0 0 433.2 480;" xml:space="preserve">
<style type="text/css">
	.st0{display:none;fill:#EBEBEB;}
	.st1{display:none;fill:#F3F3F3;}
	.st2{display:none;fill:#E4E4E2;}
	.st3{display:none;fill:#C3C3C3;}
</style>
<g id="filled_outline">
	<path class="st0" d="M425.2,176L352,204.9l-8,3.1v264H88V208l-8-3.2L8,176L42.1,67C45.8,55,55,45.5,66.8,41.3l70.7-25.2L160,8
		h113.2l21.4,7.6l71.9,25.7c11.8,4.2,21,13.8,24.7,25.7L425.2,176z"/>
	<path class="st1" d="M294.6,15.6l-0.1,0.7c-3.9,43.4-42.3,75.3-85.7,71.4c-37.9-3.4-67.9-33.5-71.4-71.4v-0.2L160,8h113.2
		L294.6,15.6z"/>
	<path class="st2" d="M110.7,116.4l-14.7,22V211l-16-6.2V136c0-1.6,0.5-3.1,1.3-4.4l16-24L110.7,116.4z"/>
	<path class="st2" d="M352,136v68.9l-16,6.1v-72.7l-13.6-22.1l13.6-8.4l14.8,24C351.6,133.1,352,134.5,352,136z"/>
	<path class="st3" d="M216,56L216,56c-26.5,0-48-21.5-48-48h96C264,34.5,242.5,56,216,56z"/>
	<path d="M432.8,173.6l-34-109c-4.5-14.4-15.5-25.8-29.7-30.9L275.9,0.5C275,0.2,274.1,0,273.2,0H160c-0.9,0-1.8,0.2-2.7,0.5
		L64.1,33.8C49.9,38.9,39,50.3,34.4,64.6l-34.1,109c-1.2,4,0.8,8.3,4.7,9.8l75,30V472c0,4.4,3.6,8,8,8h256c4.4,0,8-3.6,8-8V213.4
		l76.1-30C432,181.9,434.1,177.6,432.8,173.6z M255.2,16c-4.4,21.6-25.5,35.6-47.2,31.2C192.3,44,180,31.7,176.8,16H255.2z
		 M160.6,16.3c4.6,30.6,33.1,51.7,63.7,47.1c24.4-3.7,43.6-22.9,47.1-47.3h0.4l14,5c-6.5,38.6-43.1,64.5-81.7,58
		c-29.5-5-52.7-28.1-57.9-57.6L160.6,16.3z M352,196.2V136c0-1.5-0.4-2.9-1.2-4.2l-14.8-24l-13.6,8.4l13.6,22.1V464H96V138.4
		l14.7-22l-13.3-8.9l-16,24c-0.9,1.3-1.3,2.9-1.3,4.4v60.2l-62.2-24.9L49.7,69.4c3-9.6,10.3-17.2,19.8-20.6l61.5-22
		c9.8,46.9,55.7,77.1,102.7,67.3c34-7.1,60.5-33.7,67.4-67.7l62.6,22.4c9.4,3.4,16.8,11,19.8,20.6l31.8,101.9L352,196.2z"/>
</g>
</svg>
