<?xml version="1.0" encoding="utf-8"?>
<!-- Generator: Adobe Illustrator 26.0.0, SVG Export Plug-In . SVG Version: 6.00 Build 0)  -->
<svg version="1.1" id="katman_1" xmlns="http://www.w3.org/2000/svg" xmlns:xlink="http://www.w3.org/1999/xlink" x="0px" y="0px"
	 viewBox="0 0 45.9 56.9" style="enable-background:new 0 0 45.9 56.9;" xml:space="preserve">
<g id="Layer_27">
	<path d="M5.5,10.4c-1.3,4-2.1,8.1-2.3,12.3c0,0.3,0.2,0.5,0.5,0.5s0.5-0.2,0.5-0.5c0.2-4.1,1-8.1,2.2-12c0.1-0.3-0.1-0.5-0.3-0.6
		C5.9,9.9,5.6,10.1,5.5,10.4L5.5,10.4z"/>
	<path d="M6.4,17C6.2,17,6,17.2,6,17.5c0.2,5.5,0.8,8.8,1.9,10.3c0.1,0.1,0.2,0.2,0.4,0.2c0.3,0,0.5-0.2,0.5-0.5
		c0-0.1,0-0.2-0.1-0.3c-1-1.2-1.6-4.5-1.7-9.7C6.9,17.1,6.7,17,6.4,17z"/>
	<path d="M45.9,21.1c-1.2-3.2-3.1-8.7-5.6-16.1c-0.1-0.9-1.1-2.1-6.7-4.3l0,0c-0.7-0.3-1.4-0.6-2.2-0.7c-5.5,1.8-11.4,1.9-16.9,0.2
		l0,0c-5.2,1.8-8,3.4-8.3,5.1c-1.4,4.9-3.4,9.7-6,14.1c-0.2,0.9,0.4,1.6,1.1,2.3c-0.4,1.4-0.5,2.2,0.1,2.7c1.6,0.9,2.9,2.2,3.8,3.8
		c0.6,2,2.2,3.4,4.3,3.8c0.2,0,0.3,0,0.4-0.1c0,1.2-0.1,2.5-0.3,3.7c0,0.1,0,0.2,0,0.3c0,0.4,0,0.8,0,1.2c0.1,0.9-0.8,2.7-1.1,3.8
		c0,0.1,0,0.1-0.1,0.2c-0.2,0.5-0.2,0.9-0.3,1.4C8,42.7,8,43,7.9,43.2l0,0l0,0c-0.4,0.9-0.1,1.8-0.3,2.7c0,0.1-0.1,0.3-0.1,0.4
		c-0.1,0.1-0.1,0.3-0.1,0.4C7.1,48,7.2,49.4,7,50.7c-0.1,0.1-0.1,0.2-0.1,0.3c-1.4,4.1,6.5,5.1,14.8,5.8c10.5,0.1,14.4-1,14.8-3
		c0.9-0.5,0.9-1.2,0.8-2.7c0.3-1-0.1-2.8,0-3.9c0.1-1.4-0.2-2.8-0.8-4.1c0.3-0.7,0.4-2-0.8-5.7c0.4-0.8,0.2-2-0.7-3.8
		c0.1-0.7,0.5-1.3,1-1.7c1.6,0.6,2.4-0.6,3.8-2.8c1.1-0.4,1.9-1.2,2.5-2.1c0.1-0.1,0.1-0.3,0.1-0.4c-0.1-0.3-0.1-1.1,0.9-3
		c1-0.4,1.8-1,2.5-1.8C45.9,21.5,46,21.3,45.9,21.1z M30.9,1.1c0,0.3-0.1,0.6-0.2,0.9c-5,1.2-10.2,1.3-15.2,0.3
		c-0.1-0.3-0.2-0.7-0.3-1.1C20.3,2.8,25.8,2.7,30.9,1.1L30.9,1.1z M30.4,3.2c-0.9,2.4-3.1,3.8-6.5,4.4c-3.8,0.4-6.4-1-7.9-4.1
		C20.8,4.3,25.7,4.3,30.4,3.2L30.4,3.2z M14.1,1.3c1.4,5.3,4.7,7.8,9.9,7.3l0,0c4.8-0.8,7.5-3.3,7.9-7.4l0.8,0.3
		c-1.2,5.3-4.7,7.9-10.6,7.7c-4.5-0.4-7.3-2.9-8.6-7.7L14.1,1.3z M42.8,22.6c-0.1,0-0.3,0.1-0.3,0.2c-0.7,1.1-1.1,2.4-1.1,3.7
		c-1,1.4-1.6,1.6-1.9,1.6c-0.2,0-0.3,0.1-0.4,0.2C37.7,30.6,37,31,36.7,31c-0.1,0-0.2,0-0.3-0.1c-0.7-3.5-0.5-10.1,0.7-19.4
		c0-0.3-0.2-0.5-0.4-0.6c-0.3,0-0.5,0.2-0.6,0.4c-0.8,5.6-1.2,11.2-1,16.9c-0.6-1.1-1-3.3-1-7.2c0-0.3-0.2-0.5-0.5-0.5c0,0,0,0,0,0
		c-0.3,0-0.5,0.2-0.5,0.5c0,0,0,0,0,0c0,4.9,0.7,7.9,2.2,9c0,0.3,0.1,0.6,0.2,0.9c-0.5,0.4-1,0.9-1.2,1.6c-1-1.5-1.5-4-1.6-7.4
		c0-0.3-0.2-0.5-0.5-0.5c-0.3,0-0.5,0.2-0.5,0.5c0,0,0,0,0,0c0.1,4.3,0.9,7.1,2.4,8.7c1.1,2.2,0.8,2.9,0.7,3.1
		c-0.1,0.1-0.1,0.3-0.1,0.5c0.6,1.4,0.9,3,1.1,4.5c-1.6-2.3-2.8-4.9-3.5-7.6c-0.1-0.3-0.4-0.4-0.6-0.4c-0.3,0.1-0.4,0.4-0.4,0.6
		c0.7,3.2,2.2,6.2,4.2,8.7c1,1.9,0.7,3.3,0.8,5.2c-2.5,2.6-8.7,3.6-18.3,3.2c-0.3,0-0.5,0.2-0.5,0.5c0,0.3,0.2,0.5,0.5,0.5
		c9.4,0.4,15.5-0.5,18.5-2.9c0,0.4,0,0.9-0.1,1.3c0.2,1.4,0,1.7-0.2,1.7H36c-2.4,0.6-4.8,0.9-7.3,0.9c-0.3,0-0.5,0.2-0.5,0.5
		s0.2,0.5,0.5,0.5c2.2,0,4.4-0.3,6.6-0.8c-0.8,0.8-3.8,1.8-13,1.9C12,55.2,7.9,54,7.7,52v-0.1c4.9,2.9,11.3,4.1,19,3.5
		c0.3,0,0.5-0.3,0.5-0.5s-0.3-0.5-0.5-0.5c-7.7,0.6-14-0.6-18.7-3.5c0.2-1.1,0.2-2.2,0.3-3.3c5,3.5,12.1,4.6,21.2,3.4
		c0.3-0.1,0.4-0.4,0.3-0.6c-0.1-0.2-0.3-0.4-0.5-0.4c-9,1.2-16,0.1-20.8-3.5c0-0.1,0.1-0.2,0.1-0.3c0.1-0.6,0.2-1.2,0.1-1.7
		c2.9,1.5,6.3,1.8,9.3,0.7c0.3-0.1,0.4-0.4,0.3-0.7c-0.1-0.2-0.4-0.4-0.6-0.3c-2.2,0.9-5,0.7-8.4-0.6c3.8-1.2,6.4-3.2,7.7-6.1
		c0.1-0.3,0-0.5-0.3-0.7c-0.3-0.1-0.5,0-0.7,0.3c-1.1,2.6-3.4,4.4-6.9,5.5c0,0,0-0.1,0-0.1c0-0.4,0.1-0.7,0.2-1.1
		c3.4-2.7,5.3-7,5.6-12.6c0-0.3-0.2-0.5-0.5-0.5s-0.5,0.2-0.5,0.5c-0.2,4.6-1.5,8.1-3.8,10.7c0.3-0.7,0.5-1.6,0.5-2.4
		c0-0.4,0-0.7,0-1.1c1.9-3.2,2.9-6.8,2.8-10.5c0-0.3-0.2-0.5-0.5-0.5s-0.5,0.2-0.5,0.5c0.1,2.7-0.4,5.3-1.5,7.7
		c0.2-1.1,0-2.2-0.6-3.1c0.7-6.3,0.7-12.7,0.2-19.1c0-0.3-0.3-0.5-0.5-0.5S9.2,10.8,9.2,11c0.3,4.5,0.4,8.6,0.3,12.2
		c-0.9-4.6-1.3-9.3-1.4-14c0-0.3-0.2-0.5-0.5-0.5S7.2,9,7.2,9.3c0.1,4.7,0.6,9.4,1.4,14.1c0,0.3,0.2,0.5,0.5,0.5s0.5-0.2,0.5-0.5
		c-0.1,2.3-0.2,4.5-0.5,6.8c0,0,0,0,0,0.1L9,30.9c-1.4-0.5-2.6-1.6-3-3.1c-0.9-1.7-2.3-3.2-4-4.1c-0.1-0.7,0-1.4,0.3-2
		c0.1-0.2,0-0.4-0.2-0.6c-0.5-0.3-0.9-0.8-1.1-1.3c2.6-4.4,4.6-9.2,6-14.2c0.2-0.8,1.4-2,5.6-3.7c1.4,5.1,4.6,7.9,9.5,8.3l0,0
		c6.4,0.2,10.3-2.6,11.6-8.3c5,2,5.5,3,5.6,3.3c0,0,0,0.1,0,0.1c0.5,1.4,0.9,2.7,1.3,3.9c-0.3-0.1-0.6,0-0.7,0.2
		c0,0.1-0.1,0.2,0,0.3c0.9,6.5,0.6,11.8-0.9,15.9c-0.1,0.3,0,0.5,0.3,0.6c0.3,0.1,0.5,0,0.6-0.3c1.5-4.1,1.9-9.4,1.1-15.8
		c1.7,4.8,3,8.5,3.9,11C44.2,21.9,43.6,22.3,42.8,22.6z"/>
	<path d="M9.8,45.6c-0.2-0.1-0.5,0-0.7,0.2s0,0.5,0.2,0.7c7.7,3.7,16,2.4,25-0.2c0.3-0.1,0.4-0.4,0.4-0.6s-0.4-0.4-0.6-0.4
		C23.7,48.5,15.6,48.6,9.8,45.6z"/>
	<path d="M32.7,7.6c-0.3,0-0.5,0.3-0.4,0.5c0,0,0,0,0,0c0.1,2.1-0.1,4.2-0.5,6.2c0,0.3,0.1,0.5,0.4,0.6s0.5-0.1,0.6-0.4
		C33.1,12.4,34,7.5,32.7,7.6z"/>
	<path d="M39,8.8c0-0.3-0.2-0.5-0.5-0.5c0,0,0,0,0,0c-0.3,0-0.5,0.2-0.5,0.5c0,0,0,0,0,0c0.3,5.8,0.1,9.8-0.5,11.9
		c-0.1,0.3,0.1,0.6,0.4,0.6c0,0,0.1,0,0.1,0c0.2,0,0.4-0.1,0.5-0.4C39.1,18.8,39.3,14.8,39,8.8z"/>
	<path d="M15.2,8.7c0.4,1.7,0.7,3.4,0.8,5.1c0,0.3,0.2,0.5,0.5,0.5c0.3,0,0.5-0.2,0.5-0.5c0,0,0,0,0-0.1c-0.1-1.8-0.4-3.5-0.8-5.3
		c-0.1-0.3-0.4-0.4-0.6-0.3C15.3,8.2,15.1,8.5,15.2,8.7z"/>
	<path d="M15.8,51.3c-2.5-0.1-4.8-1.1-6.6-2.8c-0.2-0.2-0.5-0.2-0.7,0c-0.2,0.2-0.2,0.5,0,0.7c2,1.9,4.6,2.9,7.3,3
		c0.3-0.1,0.4-0.3,0.4-0.6C16.1,51.5,16,51.4,15.8,51.3z"/>
</g>
</svg>
