<?xml version="1.0" encoding="utf-8"?>
<!-- Generator: Adobe Illustrator 26.0.0, SVG Export Plug-In . SVG Version: 6.00 Build 0)  -->
<svg version="1.1" id="katman_1" xmlns="http://www.w3.org/2000/svg" xmlns:xlink="http://www.w3.org/1999/xlink" x="0px" y="0px"
	 viewBox="0 0 57 57" style="enable-background:new 0 0 57 57;" xml:space="preserve">
<g id="Layer_9">
	<path d="M57,29.3c-2.8-8.2-4.4-15.3-4.7-21.1c-0.5-6-8.3-8.7-23.8-8.2C13-0.5,5.2,2.2,4.7,8.3C4.4,14,2.9,21.1,0,29.3
		C0,29.4,0,29.6,0,29.7c0.1,0.1,0.2,0.2,0.3,0.2c3.8,0.9,7.7,1.5,11.6,2c0.2,0,0.4-0.2,0.5-0.4c0.1-0.4,0.2-1.2,0.4-2.5
		c1.8,8.6,0.4,17.5-3.4,26.5c0,0.2,0.2,0.4,0.4,0.4c5.2,1.1,12.4,1,18.6,0.6c6.2,0.4,13.5,0.6,18.7-0.7c0.1-0.1,0.2-0.2,0.2-0.3
		c0-0.1,0-0.2,0-0.3c-3.9-9-5.1-17.8-3.4-26.3c0.2,1.3,0.3,2.1,0.4,2.5c0.1,0.2,0.3,0.4,0.5,0.4c3.9-0.5,7.8-1.1,11.6-2
		C56.9,29.9,57.1,29.6,57,29.3C57,29.3,57,29.3,57,29.3z M28.5,1.1L28.5,1.1c3.8-0.2,7.6-0.1,11.4,0.3C37.3,4.1,33.7,5.3,29,4.9
		c-0.1,0-0.2,0-0.2,0h-0.5c-0.1,0-0.2,0-0.2,0c-4.7,0.4-8.4-0.8-10.9-3.5C20.9,1,24.7,0.9,28.5,1.1z M45.4,30.9
		c-0.1-0.6-0.3-1.9-0.7-4.5c1.2-4.5,3.2-8.8,5.7-12.7c0.1-0.2,0.1-0.6-0.2-0.7c-0.2-0.1-0.6-0.1-0.7,0.2c-2.5,4-4.4,8.3-5.7,12.8
		c-0.1,0.1-0.1,0.3-0.1,0.4c-0.7,2.5-1.1,5-1.3,7.5c-1.9-2.2-2.9-7.1-2.8-14.6c0-0.3-0.2-0.5-0.5-0.5c-0.3,0-0.5,0.2-0.5,0.5
		c0.1,8.5,1,13.7,3.8,15.9c-0.1,2,0,4,0.2,6.1c-2.1-1.7-3.5-4.4-3.9-7.9c0-0.3-0.3-0.5-0.6-0.4c-0.3,0-0.5,0.2-0.5,0.5
		c0,0,0,0.1,0,0.1c0.6,4.2,2.2,7.4,5.1,9.1c0.6,4.4,1.9,8.7,3.9,12.6c-4.5,0.9-10.5,1-18,0.5h-0.1c-7.5,0.5-13.5,0.4-18-0.5
		c2-4,3.4-8.3,4-12.7c2.8-1.7,4.5-4.9,5.1-9.1c0-0.3-0.2-0.5-0.4-0.6c-0.3,0-0.5,0.2-0.6,0.4c-0.5,3.6-1.8,6.2-3.9,7.9
		c0.2-2,0.3-4,0.2-6.1c2.8-2.1,3.7-7.4,3.8-15.8c0-0.3-0.2-0.5-0.5-0.5s-0.5,0.2-0.5,0.5c0,7.5-0.9,12.4-2.8,14.6
		c-0.2-2.5-0.7-5.1-1.3-7.5c0-0.2,0-0.3-0.1-0.4C12,21.5,10,17.2,7.5,13.2c-0.3-0.6-1.2,0-0.8,0.5c2.5,3.9,4.4,8.2,5.7,12.7
		c-0.4,2.6-0.6,3.9-0.7,4.5c-4.5-0.6-8-1.2-10.5-1.8C3.9,21,5.4,14,5.7,8.3C6,4.8,9.4,2.6,15.9,1.6c2.8,3.4,7.7,4.9,12.6,4.3
		c4.9,0.6,9.8-0.8,12.6-4.3c6.5,1,9.9,3.2,10.2,6.7c0.3,5.7,1.8,12.7,4.5,20.8C53.4,29.7,49.9,30.3,45.4,30.9z"/>
</g>
</svg>
