<?xml version="1.0" encoding="utf-8"?>
<!-- Generator: Adobe Illustrator 26.0.0, SVG Export Plug-In . SVG Version: 6.00 Build 0)  -->
<svg version="1.1" id="Jeans" xmlns="http://www.w3.org/2000/svg" xmlns:xlink="http://www.w3.org/1999/xlink" x="0px" y="0px"
	 viewBox="0 0 190.9 455.9" style="enable-background:new 0 0 190.9 455.9;" xml:space="preserve">
<g>
	<path d="M180.9,369.1c-1.9-0.1-3.5,1.4-3.6,3.3l0,1.2c-0.1,1.9,1.4,3.5,3.3,3.6c0,0,0.1,0,0.1,0c1.9,0,3.4-1.5,3.4-3.3l0-1.2
		C184.3,370.8,182.8,369.2,180.9,369.1z"/>
	<path d="M180,393.3c-1.9-0.1-3.5,1.4-3.6,3.3c-0.9,22.3-1.9,38.3-2.9,47.5c-6.9,2.4-31.6,9.5-56.4,0.1L98.9,110.6
		c-0.1-1.8-1.6-3.3-3.4-3.3s-3.3,1.4-3.4,3.3L73.7,444.2c-24.8,9.4-49.5,2.2-56.3-0.1c-3.6-34.4-6.4-155.9-8.1-252.8
		c0-1.9-1.6-3.4-3.5-3.4c-1.9,0-3.4,1.6-3.4,3.5C4.1,290.6,7,415.4,10.8,447c0.1,1.2,1,2.3,2.1,2.8c0.9,0.4,15,6.1,33.8,6.1
		c9.7,0,20.7-1.5,31.7-6.1c1.2-0.5,2.1-1.7,2.1-3l15-272.9l15,272.9c0.1,1.3,0.9,2.5,2.1,3c32.4,13.4,64.2,0.6,65.5,0
		c1.2-0.5,2-1.5,2.1-2.8c1.1-8.9,2.1-25.8,3.1-50.1C183.4,395,181.9,393.4,180,393.3z"/>
	<path d="M5.5,171.7C5.5,171.7,5.5,171.7,5.5,171.7c2,0,3.5-1.6,3.5-3.5l0-1.2c0-1.9-1.6-3.4-3.5-3.4c-1.9,0-3.4,1.6-3.4,3.5l0,1.2
		C2,170.2,3.6,171.7,5.5,171.7z"/>
	<path d="M187.4,0H3.4C1.5,0,0,1.5,0,3.5v18.3C0,22,0.3,48.6,0.8,87.8c0.2,16.7,0.5,35.8,0.8,56.3c0,1.9,1.6,3.5,3.5,3.4
		c1.9,0,3.4-1.6,3.4-3.5C8.2,124,8,105.4,7.7,88.9c12.6-17.5,22-53.5,24.5-63.7H92v68c0,1.9,1.5,3.4,3.4,3.4
		c9.5,0,17.3-7.7,17.3-17.2V25.2h46c2.5,10.2,11.9,46.3,24.5,63.7c-1,75.6-2.7,181.8-5.1,260.6c-0.1,1.9,1.4,3.5,3.3,3.6
		c0,0,0.1,0,0.1,0c1.9,0,3.4-1.5,3.4-3.3c2.4-79.2,4.1-186.1,5.1-261.9c0.5-39.3,0.8-65.8,0.8-66.1V3.5C190.9,1.5,189.4,0,187.4,0z
		 M7.6,75.8C7.2,50.8,7,32.5,6.9,25.2h18.2C22.7,34.8,16.1,59.1,7.6,75.8z M56.7,18.3H29.6c0,0,0,0,0,0H6.9V6.9h49.8V18.3z
		 M105.8,79.4c0,4.5-2.9,8.3-6.9,9.8V25.2h6.9V79.4z M127.3,18.3h-18H95.4H63.6V6.9h63.6V18.3z M183.4,75.8
		c-8.6-16.8-15.1-41-17.6-50.7H184C183.9,32.5,183.7,50.8,183.4,75.8z M184,18.3h-22.7c0,0,0,0,0,0h-27.1V6.9H184V18.3z"/>
</g>
</svg>
