<?xml version="1.0" encoding="utf-8"?>
<!-- Generator: Adobe Illustrator 26.0.0, SVG Export Plug-In . SVG Version: 6.00 Build 0)  -->
<svg version="1.1" id="Outline" xmlns="http://www.w3.org/2000/svg" xmlns:xlink="http://www.w3.org/1999/xlink" x="0px" y="0px"
	 viewBox="0 0 25.5 26.5" style="enable-background:new 0 0 25.5 26.5;" xml:space="preserve">
<path d="M24.8,26.5h-6.4c-0.3,0-0.5-0.2-0.7-0.4l-5-9.4l-5,9.4c-0.1,0.2-0.4,0.4-0.7,0.4H0.8c-0.2,0-0.4-0.1-0.6-0.2
	C0,26.1,0,25.8,0,25.6L2.8,4c0-0.4,0.4-0.6,0.7-0.7h18.4c0.4,0,0.7,0.3,0.8,0.7l2.8,21.7c0,0.2,0,0.4-0.2,0.6
	C25.2,26.4,25,26.5,24.8,26.5z M18.9,25h5L21.3,4.8h-17L1.6,25h5l5.5-10.2c0.2-0.4,0.7-0.5,1.1-0.2c0.1,0.1,0.2,0.1,0.2,0.2L18.9,25
	z"/>
<path d="M21.9,4.8H3.6C3.4,4.8,3.2,4.7,3,4.6C2.9,4.4,2.8,4.2,2.8,4l0.4-3.3C3.3,0.3,3.6,0,4,0h17.5c0.4,0,0.7,0.3,0.8,0.7L22.7,4
	c0,0.2,0,0.4-0.2,0.6C22.3,4.7,22.1,4.8,21.9,4.8z M4.4,3.3h16.6l-0.3-1.8H4.7L4.4,3.3z"/>
<path d="M22.6,11.4c-2,0.2-3.9-0.6-5.2-2c-1.1-1.6-1.6-3.6-1.2-5.5c0-0.4,0.4-0.7,0.8-0.7c0.4,0,0.7,0.4,0.7,0.8c0,0,0,0.1,0,0.1
	c-0.3,1.5,0.1,3,0.9,4.2c0.9,1,2.2,1.5,4.2,1.5l0,0c0.4,0,0.8,0.3,0.8,0.8s-0.3,0.8-0.8,0.8L22.6,11.4z"/>
<path d="M2.9,11.4H2.8c-0.4,0-0.8-0.3-0.8-0.8s0.3-0.8,0.8-0.8h0.1c1.5,0.1,3-0.4,4.1-1.5c0.8-1.2,1.2-2.7,0.9-4.2
	C7.8,3.8,8.1,3.4,8.5,3.3c0.4-0.1,0.8,0.1,0.9,0.5c0,0,0,0,0,0.1c0.4,1.9-0.1,3.9-1.2,5.5C6.8,10.8,4.9,11.6,2.9,11.4z"/>
</svg>
