<?xml version="1.0" encoding="utf-8"?>
<!-- Generator: Adobe Illustrator 26.0.0, SVG Export Plug-In . SVG Version: 6.00 Build 0)  -->
<svg version="1.1" id="katman_1" xmlns="http://www.w3.org/2000/svg" xmlns:xlink="http://www.w3.org/1999/xlink" x="0px" y="0px"
	 viewBox="0 0 253.7 551.3" style="enable-background:new 0 0 253.7 551.3;" xml:space="preserve">
<g>
	<path d="M240.6,38.8V13.1c0-7.2-5.9-13.1-13.1-13.1H26.2C19,0,13.1,5.9,13.1,13.1v25.7C4.3,71.4,0,103,0,135.7l13.1,402.6
		c0.4,7.1,6.3,12.9,13.1,12.9h70c7,0,12.8-5.8,13.1-13l13.1-362.6c2-7.8,3.4-12.4,4.4-15.2c1,2.8,2.4,7.4,4.4,15.2l13.1,362.7
		c0.3,7.1,6.2,13,13.1,13h70c6.8,0,12.7-5.8,13.1-13l13.2-402.7C253.7,103,249.4,71.4,240.6,38.8L240.6,38.8z M232.8,43.7
		c6.9,26,10.8,51.5,11.8,77.4c-14.6-22.2-21-39.9-21.5-77.4H232.8z M231.8,13.1V35h-21.9V8.7h17.5C229.8,8.7,231.8,10.7,231.8,13.1z
		 M188.1,35h-81.3l-7.6-7.6c-1.9-1.7-3-3.7-2.9-5.6c0-1.9,1-3.7,3.1-5.5l7.5-7.5h94.4V35H188.1z M52.4,35V8.7h42l-1.1,1.1
		c-3.8,3.2-5.8,7.4-5.9,11.8c-0.1,4.5,2,8.8,5.7,12.1l1.3,1.3H52.4z M21.8,13.1c0-2.4,2-4.4,4.4-4.4h17.5v26.2H21.8V13.1z
		 M20.8,43.7h9.7C30,81.1,23.6,98.9,9,121C10.1,95.2,14,69.7,20.8,43.7L20.8,43.7z M21.8,538L8.7,137c20.6-28.9,30-47.6,30.5-93.2
		h21.9l-4.3,498.7H26.1C24,542.5,21.9,540.3,21.8,538L21.8,538z M113.8,173.9c-0.1,0.3-0.1,0.6-0.1,0.9l-13.1,363.1
		c-0.1,2.4-2.1,4.5-4.4,4.5H65.6l4.3-498.8h52.5v107C119.4,153.7,117.1,160.8,113.8,173.9L113.8,173.9z M153.1,537.9L140,174.8
		c0-0.3-0.1-0.6-0.1-0.9c-3.3-13.1-5.6-20.2-8.6-23.3V43.7h52.5l4.3,498.8h-30.6C155.2,542.5,153.1,540.4,153.1,537.9L153.1,537.9z
		 M231.8,537.8c-0.2,2.5-2.2,4.6-4.4,4.6h-30.6l-4.3-498.8h21.9c0.6,45.6,9.9,64.2,30.5,93.2L231.8,537.8z"/>
	<path d="M122.4,21.8c0,4.8-3.9,8.8-8.8,8.8s-8.8-3.9-8.8-8.8s3.9-8.8,8.8-8.8S122.4,17,122.4,21.8"/>
</g>
</svg>
