<?xml version="1.0" encoding="utf-8"?>
<!-- Generator: Adobe Illustrator 26.0.0, SVG Export Plug-In . SVG Version: 6.00 Build 0)  -->
<svg version="1.1" id="katman_1" xmlns="http://www.w3.org/2000/svg" xmlns:xlink="http://www.w3.org/1999/xlink" x="0px" y="0px"
	 viewBox="0 0 275 477.3" style="enable-background:new 0 0 275 477.3;" xml:space="preserve">
<g>
	<path d="M5.6,465.5c0,6.2,5,11.2,11.2,11.2h39.8c6.2,0,11.2-5,11.2-11.2v-10.6c7.3-2.8,12.9-9,14.6-16.2l55.4-272.2l54.9,272.2
		c1.7,7.8,7.8,14,15.1,16.8v10.6c0,6.2,5,11.2,11.2,11.2h39.8c6.2,0,11.2-5,11.2-11.2v-18c3.4-3.9,5-9.5,5-14.6L263.2,38.7v-0.6
		l-5.6-33.6C257,1.7,254.8,0,252,0H26.9c-2.8,0-5,2.2-5.6,4.5l-5.6,33.6v0.6L0,432.9c0,5.6,1.7,11.2,5.6,15.7V465.5z M205,10.7h42
		l3.9,22.4h-45.4V10.7H205z M143.4,10.7h50.4v22.4h-50.4V10.7z M143.4,44.3h49.3c1.1,32.5,28,58.8,61,59.9l9.5,329.3
		c0,2.8-1.1,6.2-3.4,8.4c-2.2,2.2-5,3.4-7.8,3.4h-37.5c-5,0-10.1-3.9-11.2-9l-59.9-298.5V44.3z M81.8,10.7h50.4v22.4H81.8V10.7z
		 M31.4,10.7h39.2v22.4H28L31.4,10.7z M24.1,103.7c31.4-2.2,56-28,57.7-59.4h50.4v91.3c0,0.6-0.6,1.7,0,2.2l-61,297.9
		c-1.1,5-5.6,9-11.2,9H22.5c-2.8,0-6.2-1.1-7.8-3.4c-1.7-2.2-3.4-5-3.4-8.4L24.1,103.7z"/>
</g>
</svg>
