<?xml version="1.0" encoding="utf-8"?>
<!-- Generator: Adobe Illustrator 26.0.0, SVG Export Plug-In . SVG Version: 6.00 Build 0)  -->
<svg version="1.1" id="katman_1" xmlns="http://www.w3.org/2000/svg" xmlns:xlink="http://www.w3.org/1999/xlink" x="0px" y="0px"
	 viewBox="0 0 300.9 504.1" style="enable-background:new 0 0 300.9 504.1;" xml:space="preserve">
<g>
	<path d="M286.2,37.9V7.5c0-4.1-3.4-7.5-7.5-7.5H22.3c-4.1,0-7.5,3.4-7.5,7.5v30.4L0,496.3c-0.1,2,0.7,4,2.1,5.5
		c1.4,1.5,3.4,2.3,5.4,2.3h85c3.7,0,6.8-2.7,7.4-6.3L150,181.2h0.9L201,497.8c0.6,3.6,3.7,6.3,7.4,6.3h85c2,0,4-0.8,5.4-2.3
		s2.2-3.4,2.1-5.5L286.2,37.9z M274.2,132.1l-56.9-56.9l6.9-6.9l49.5,49.5L274.2,132.1z M271.2,30.5H166.6V15h104.5L271.2,30.5z
		 M145.6,45.5h9.8v99.7h-9.8V45.5z M29.8,15h121.8v15.5H29.8V15z M27.2,117.8l49.5-49.5l6.9,6.9l-56.9,56.9L27.2,117.8z M15.3,489
		l0.2-7.5h71.8l-1.2,7.5H15.3z M164.8,172.4c-0.6-3.6-3.7-6.3-7.4-6.3h-13.7c-3.7,0-6.8,2.7-7.4,6.3L88.5,474H15.7l10.7-331
		l65.2-65.2c1.5-1.5,1.5-3.8,0-5.3L79.4,60.3c-1.4-1.4-3.9-1.4-5.3,0l-46.5,46.5l2-61.4h108.6v103.4c0,2.1,1.7,3.8,3.8,3.8h17.3
		c2.1,0,3.8-1.7,3.8-3.8V45.4h108.5l2,61.4l-46.5-46.5c-1.5-1.5-3.8-1.5-5.3,0l-12.2,12.2c-0.7,0.7-1.1,1.7-1.1,2.6s0.4,1.9,1.1,2.6
		l65.2,65.2l10.7,331h-73L164.8,172.4z M214.8,489l-1.2-7.5h71.9l0.2,7.5H214.8z"/>
	<path d="M143.8,19h-8.7c-2.1,0-3.8,1.7-3.8,3.8s1.7,3.8,3.8,3.8h8.7c2.1,0,3.8-1.7,3.8-3.8C147.5,20.7,145.9,19,143.8,19z"/>
</g>
</svg>
