<svg xmlns="http://www.w3.org/2000/svg" viewBox="0 0 189.23 408.88"><g id="katman_2" data-name="katman 2"><g id="katman_1-2" data-name="katman 1"><path d="M17.14,408.88c-3.25-2.26-4-5.41-4.16-9.26Q9.29,297.88,5.38,196.15,2.65,122.74,0,49.33A21.66,21.66,0,0,1,4.66,34.44a8.23,8.23,0,0,0,1.47-4.69c.16-7,0-14.11.08-21.16C6.27,2.19,8.51,0,15,0H174.29C180.74,0,183,2.18,183,8.59c.06,6.92-.13,13.84.1,20.76a10.85,10.85,0,0,0,2,5.72,22.35,22.35,0,0,1,4.12,14.66q-3.84,104.93-7.69,209.85c-1.75,47.08-3.6,94.16-5.27,141.24a10.38,10.38,0,0,1-4.14,8.06H106.6c-4.12-2-4.8-5.45-4.8-9.62q.09-133.1,0-266.2a30.48,30.48,0,0,0-.17-4.78,7.12,7.12,0,0,0-14.1,0,30.44,30.44,0,0,0-.17,4.78q0,133.09,0,266.2c0,4.17-.68,7.66-4.8,9.62Zm8.5-13.05h49v-5.35q0-119.39,0-238.77c0-7.58-.11-15.17.06-22.75s3.72-13.61,10.5-17.12c2.65-1.38,3.11-3,3.1-5.57-.08-20.63,0-41.26,0-61.89v-4H53.07c.83,12.11-1.39,23-9.09,32.46S26.2,86.79,14.26,88C18.06,190.78,21.85,293.15,25.64,395.83ZM101.52,40.29c-.21.46-.4.69-.4.92q-.06,33.54,0,67.08a3.26,3.26,0,0,0,1.31,2.52c9.81,4.63,12.36,12.78,12.34,23q-.23,128.56-.09,257.13c0,1.66,0,3.33,0,4.89H163.6Q169.3,241.65,175,88.24c-27.53-4.53-39.7-21.07-39.1-47.95ZM122.23,13H67.07V27h55.16ZM39.93,40.09c-6.61,0-13-.15-19.34,0-4.41.13-7.43,2.44-7.47,6.23-.08,9.51.33,19,.54,28.57C31.91,73.35,42.66,59,39.93,40.09ZM175.52,75c.28-9.42.7-18.56.75-27.71,0-4.1-2.51-6.79-6.72-7-6.73-.32-13.48-.08-20.17-.08C146.16,58.28,157.12,73.12,175.52,75ZM19.21,27h34.5V13H19.21ZM170,13H135.52V27H170Z"/></g></g></svg>