<?xml version="1.0" encoding="utf-8"?>
<!-- Generator: Adobe Illustrator 26.0.0, SVG Export Plug-In . SVG Version: 6.00 Build 0)  -->
<svg version="1.1" id="Outline" xmlns="http://www.w3.org/2000/svg" xmlns:xlink="http://www.w3.org/1999/xlink" x="0px" y="0px"
	 viewBox="0 0 25.5 25.5" style="enable-background:new 0 0 25.5 25.5;" xml:space="preserve">
<path d="M24.8,25.5h-7.5c-0.3,0-0.5-0.1-0.6-0.4l-3.8-6.7l-3.8,6.7c-0.1,0.2-0.4,0.4-0.6,0.4H0.8c-0.2,0-0.4-0.1-0.5-0.2
	C0.1,25.1,0,24.9,0,24.7l2-24C2,0.3,2.4,0,2.8,0h20c0.4,0,0.7,0.3,0.8,0.7l2,24c0,0.2-0.1,0.4-0.2,0.6C25.2,25.4,25,25.5,24.8,25.5z
	 M17.7,24h6.3L22.1,1.5H3.4L1.6,24h6.3l4.2-7.5c0.2-0.4,0.7-0.5,1.1-0.2c0.1,0.1,0.2,0.1,0.2,0.2L17.7,24z"/>
<path d="M23.6,11.2c-0.1,0-0.2,0-0.2,0L19.7,10c-0.4-0.1-0.6-0.6-0.5-0.9c0.1-0.4,0.6-0.6,0.9-0.5l3.6,1.2c0.4,0.1,0.6,0.5,0.5,0.9
	C24.2,11,23.9,11.2,23.6,11.2L23.6,11.2z"/>
<path d="M1.9,11.2c-0.3,0-0.6-0.2-0.7-0.5c-0.1-0.4,0.1-0.8,0.5-0.9c0,0,0,0,0,0l3.6-1.2c0.4-0.1,0.8,0.1,1,0.5
	c0.1,0.4-0.1,0.8-0.5,1l0,0l-3.6,1.2C2.1,11.2,2,11.2,1.9,11.2z"/>
<path d="M14.8,7.4h-4c-0.4,0-0.7-0.3-0.8-0.8V0.8C10,0.3,10.3,0,10.8,0h4c0.4,0,0.7,0.3,0.8,0.8v5.9C15.5,7.1,15.2,7.4,14.8,7.4z
	 M11.6,5.9H14V1.5h-2.5L11.6,5.9z"/>
</svg>
