<?xml version="1.0" encoding="utf-8"?>
<!-- Generator: Adobe Illustrator 26.0.0, SVG Export Plug-In . SVG Version: 6.00 Build 0)  -->
<svg version="1.1" id="katman_1" xmlns="http://www.w3.org/2000/svg" xmlns:xlink="http://www.w3.org/1999/xlink" x="0px" y="0px"
	 viewBox="0 0 350 471.8" style="enable-background:new 0 0 350 471.8;" xml:space="preserve">
<path d="M8.8,471.8h121.5c4.4,0,8-3.2,8.6-7.5L175,214.5l36.2,249.7c0.5,4.3,4.2,7.6,8.6,7.5h121.5c2.4,0,4.8-1,6.5-2.8
	c1.4-1.7,2.2-3.8,2.3-5.9l-40.4-455c-0.4-4.5-4.2-8-8.8-8.1H49.2c-4.5,0.1-8.3,3.5-8.8,8.1L0,463.1c-0.1,2.4,0.7,4.8,2.3,6.6
	C4.1,471.2,6.4,472,8.8,471.8L8.8,471.8z M45.5,149.1c12.5-2,24.4-6.6,35-13.5c19.1-13.2,32.8-32.9,38.5-55.5
	c1.2-4.8-1.8-9.7-6.6-10.9c-4.8-1.2-9.7,1.8-10.9,6.6c-4.7,18.3-15.9,34.3-31.5,45c-7,4.5-14.8,7.7-22.9,9.6l6.6-75.9h199
	c4.8,0,8.8-3.9,8.8-8.8s-3.9-8.8-8.8-8.8H55.3l1.9-20.3h235.6l10.2,113.8c-8.1-1.9-15.9-5.1-22.9-9.6c-15.6-10.6-26.8-26.6-31.5-45
	c-1.2-4.8-6-7.8-10.9-6.6c-4.8,1.2-7.8,6-6.6,10.9c5.8,22.6,19.6,42.3,38.9,55.5c10.6,6.9,22.5,11.5,35,13.5l27.6,305.2h-105
	l-43.8-302c-0.8-4.2-4.5-7.2-8.8-7.2s-7.9,3-8.8,7.2l-43.7,302H18.4L45.5,149.1z"/>
</svg>
