<?xml version="1.0" encoding="utf-8"?>
<!-- Generator: Adobe Illustrator 26.0.0, SVG Export Plug-In . SVG Version: 6.00 Build 0)  -->
<svg version="1.1" id="katman_1" xmlns="http://www.w3.org/2000/svg" xmlns:xlink="http://www.w3.org/1999/xlink" x="0px" y="0px"
	 viewBox="0 0 284.1 432.6" style="enable-background:new 0 0 284.1 432.6;" xml:space="preserve">
<g>
	<path d="M262.9,5.7c-0.3-3.2-3-5.7-6.2-5.7H27.5c-3.2,0-5.9,2.5-6.2,5.7L0,250.3v176.1c0,3.4,2.8,6.2,6.2,6.2h110.7
		c3.4,0,6.2-2.8,6.2-6.2V325.5v-0.1v-0.1v-37.6v-0.1v-0.1v-36.4l8-81.8h22l7.9,81v176.1c0,1.7,0.7,3.2,1.8,4.4
		c1.2,1.2,2.7,1.8,4.4,1.8l0,0l110.7-0.5c3.4,0,6.2-2.8,6.2-6.2V249.8L262.9,5.7z M166.7,12.5H251l1.9,21.8h-86.2L166.7,12.5z
		 M166.7,46.7H254l1.9,22.1h-89.2L166.7,46.7z M148.3,12.5h5.9v85.8l-5.9,4V12.5z M129.9,12.5h5.9v98.3l-5.9,4V12.5z M33.2,12.5
		h84.3v21.8H31.3L33.2,12.5z M30.2,46.7h87.3v22.1H28.3L30.2,46.7z M271.8,419.7l-98.3,0.4v-88.6h21.6c3.4,0,6.2-2.8,6.2-6.2
		c0-3.4-2.8-6.2-6.2-6.2h-21.6v-25.4H214c3.4,0,6.2-2.8,6.2-6.2c0-3.4-2.8-6.2-6.2-6.2h-40.5v-24.7h54.7c3.4,0,6.2-2.8,6.2-6.2
		c0-3.4-2.8-6.2-6.2-6.2h-55.3l-7.9-81.6c-0.3-3.2-3-5.6-6.2-5.6h-33.3c-3.2,0-5.9,2.4-6.2,5.6l-7.9,81.6H51.6
		c-3.4,0-6.2,2.8-6.2,6.2c0,3.4,2.8,6.2,6.2,6.2h59.2v24.7H66.4c-3.4,0-6.2,2.8-6.2,6.2c0,3.4,2.8,6.2,6.2,6.2h44.4v25.4H84.3
		c-3.4,0-6.2,2.8-6.2,6.2c0,3.4,2.8,6.2,6.2,6.2h26.5v88.6H12.5V250.8L27.3,81.2h90.3v45.2c0,2.3,1.3,4.4,3.3,5.5
		c0.9,0.5,1.9,0.7,2.9,0.7c1.2,0,2.4-0.4,3.5-1.1l36.8-24.9c1.7-1.2,2.7-3.1,2.7-5.2V81h90.3l14.7,169.3V419.7z"/>
</g>
</svg>
