<svg xmlns="http://www.w3.org/2000/svg" viewBox="0 0 225.07 384"><g id="katman_2" data-name="katman 2"><g id="katman_1-2" data-name="katman 1"><path d="M12,384C2,379.46-.49,375.81.08,364.59c1.81-36.19,3.79-72.36,5.68-108.54q2.4-45.66,4.76-91.32c1.91-36.55,3.91-73.1,5.71-109.66.57-11.6,1.11-23.24.74-34.83C16.66,10.4,20,3.57,29.29,0H195.8c3.08,2.21,6.79,3.91,9,6.77,1.91,2.43,2.84,6.15,3,9.35,2.28,47.68,4.34,95.36,6.52,143,.83,18.23,1.82,36.44,2.77,54.66.18,3.42-1,5.82-4.46,6.86-18.68,5.69-37.36,5.92-56.06.1-3.12-1-5-2.9-4.64-6.29a5.15,5.15,0,0,1,5.28-4.86,13.33,13.33,0,0,1,4,.88,85.57,85.57,0,0,0,41.16,1.3c2.7-.57,3.34-1.62,3.2-4.22-1.21-21.46-2.29-42.93-3.41-64.39-.72-14-1.5-28-2.11-41.94-.12-2.92-.94-4.18-4.09-4.85-10.76-2.27-18.51-8.92-24.2-18.11-6.24-10.07-9-21.29-10.68-33.08h-17v3.91c0,13.25.2,26.5-.1,39.75a66.42,66.42,0,0,1-2.16,15.49c-3.13,11.76-10,20.25-23,23.45q13.81,108.8,27.65,217.81h65.55c0-4.78.21-9.6,0-14.39-1.41-28.33-2.93-56.65-4.37-85-.07-1.36-.34-3.26.4-4,1.55-1.51,3.65-3.2,5.63-3.34,2.9-.2,4.74,2.12,5,5.08.41,5,.61,10,.87,15l4.77,92.48c.23,4.37.55,8.73.7,13.1.39,11.22-1.9,14.87-12,19.43h-63c-7.64-2.94-11.23-8.41-12.19-16.65-3.24-28-7-56-10.54-84q-5.92-46.63-11.86-93.28c-.8-6.36-1.67-12.7-2.5-19.05a2,2,0,0,0-1.11,1.58q-2.59,20.25-5.17,40.5c-6.5,51.17-13.13,102.32-19.37,153.51C86.28,375,83.09,381,75,384ZM64,45.19c-.12.76-.23,1.36-.32,2C62,58.22,59.16,68.91,53.14,78.52,47.33,87.8,39.41,94.36,28.48,96.58c-2.47.5-3.31,1.42-3.41,3.81-.36,9-.84,18-1.31,27L18,236.29q-2.1,39.87-4.21,79.74c-.51,9.82-1,19.63-1.47,29.88,2.84,0,5.32-.13,7.78,0,3.54.24,5.71,2.56,5.64,5.75s-2.22,5.28-5.89,5.41c-2.59.1-5.18,0-8.66,0,0,4.26-.13,8.1,0,11.93.12,2.54,1.9,3.68,4.34,3.68q27.75,0,55.5,0a4.07,4.07,0,0,0,4.45-3.69c.59-3.79.94-7.62,1.45-11.92H73c-8.12,0-16.25,0-24.37,0-4.49,0-7-2-7.17-5.38s2.62-5.83,7.16-5.85c8.63,0,17.25,0,25.88,0,1.32,0,2.64-.12,4-.19,1.47-11.65,2.9-22.91,4.33-34.17Q88,271.56,93,231.61t10.14-79.91c1.34-10.78,3.31-21.56,3.56-32.37.55-23.36.18-46.74.16-70.12,0-1.31-.13-2.63-.2-4ZM80.41,33.44h64.15V11.55H118.15c0,2.66.1,5,0,7.39-.21,3.9-2.35,6.07-5.73,6-3.22-.08-5.23-2.18-5.43-5.91-.13-2.46,0-4.93,0-7.55H80.41Zm67.72,323.88c.15,1.46.24,2.44.36,3.42,1.64,13.35.19,12,13.19,12h1.88q22.49,0,45,0c2.6,0,5-.48,5.24-3.5.28-3.93.07-7.9.07-11.94ZM118.42,116c4.74-1.12,7.65-4.07,9.83-7.82A35.87,35.87,0,0,0,132.85,90q.08-21,0-41.91c0-.95-.17-1.89-.25-2.72H118.42ZM68.85,11.26c-12.16,0-24-.13-35.81.17-1.54,0-4.24,2.19-4.34,3.52-.47,6.14-.21,12.34-.21,18.58H68.85ZM196.71,33.54c0-5.55,0-10.78,0-16,0-4.92-1.34-6.26-6.18-6.27-9.86,0-19.72,0-29.57,0h-4.62V33.74h38.46C195.27,33.74,195.75,33.64,196.71,33.54Zm-24,11.57c1.64,21.1,12.63,38,26.43,40.22-.69-13.46-1.38-26.81-2.07-40.22ZM28,45.11C27.32,58.68,26.64,71.94,26,85.3c13.79-2.17,27-22.81,26.11-40.19Z"/><path d="M58.79,160.14c-6.85-1.38-13.48-2.48-20-4.11-4.07-1-5.57-4-4.47-7.26s3.95-4.51,7.89-3.31a54.38,54.38,0,0,0,33.15,0c3.67-1.17,6.67.13,7.74,3.1,1.16,3.23-.38,6.47-4.26,7.44C72.26,157.62,65.52,158.77,58.79,160.14Z"/><path d="M54.59,231.14c-6.72-1.32-13.22-2.37-19.61-3.93-4.22-1-5.91-4.11-4.83-7.46s4.1-4.37,8.35-3.11a53.58,53.58,0,0,0,32.05,0c4.48-1.41,7.44-.2,8.5,3.34,1,3.34-.66,6.18-5.08,7.25C67.59,228.8,61.08,229.86,54.59,231.14Z"/></g></g></svg>