<?xml version="1.0" encoding="utf-8"?>
<!-- Generator: Adobe Illustrator 26.0.0, SVG Export Plug-In . SVG Version: 6.00 Build 0)  -->
<svg version="1.1" id="katman_1" xmlns="http://www.w3.org/2000/svg" xmlns:xlink="http://www.w3.org/1999/xlink" x="0px" y="0px"
	 viewBox="0 0 285.6 441.2" style="enable-background:new 0 0 285.6 441.2;" xml:space="preserve">
<g>
	<path d="M259.5,4.4c-0.8-2.6-3.2-4.4-5.9-4.4H32c-2.7,0-5.1,1.8-5.9,4.4C16.3,35.5,0,97.5,0,162.5c0,8.6,0.2,18.1,0.6,28.3l0,0l0,0
		C2,230,5.9,279.2,10,323.3l0,0c5.6,60.7,11.4,111.5,11.5,112.4c0.4,3.1,3,5.5,6.2,5.5H113c3.3,0,6.1-2.6,6.2-5.9l15.5-327.1h16.2
		l15.5,327.1c0.2,3.3,2.9,5.9,6.2,5.9h85.3c3.2,0,5.8-2.4,6.2-5.5c0.2-1.7,17.5-151.6,20.9-244.9l0,0l0,0
		c0.4-10.2,0.6-19.7,0.6-28.3C285.7,97.5,269.3,35.5,259.5,4.4L259.5,4.4z M20.7,304.6c-3.2-36.5-6.1-75-7.5-107.5h30.1v74.7
		L20.7,304.6z M265,303.9l-21-32v-74.8h28.4C271,229.4,268.1,267.6,265,303.9L265,303.9z M272.8,184.7h-35c-3.4,0-6.2,2.8-6.2,6.2
		v82.9c0,1.2,0.4,2.4,1,3.4l30.6,46.7c-4.5,48.5-9.1,90.4-10.7,105h-73.8l-15.5-327.1c-0.2-3.3-2.9-5.9-6.2-5.9h-28.2
		c-3.3,0-6.1,2.6-6.2,5.9l-15.5,327.1H33.3c-1.6-14.6-6.3-56.5-10.7-105l32.2-46.6c0.7-1,1.1-2.3,1.1-3.5v-82.9
		c0-3.4-2.8-6.2-6.2-6.2H12.8c-0.2-7.9-0.4-15.3-0.4-22.1c0-62.2,16-122.9,24.2-150.1H249c8.2,27.2,24.2,87.9,24.2,150.1
		C273.2,169.4,273.1,176.8,272.8,184.7L272.8,184.7z"/>
</g>
</svg>
