<svg xmlns="http://www.w3.org/2000/svg" viewBox="0 0 227.9 372.12"><g id="katman_2" data-name="katman 2"><g id="katman_1-2" data-name="katman 1"><path d="M112.94,161.4c-1.42,15.64-3.79,31.28-4.06,46.94-.76,45.61-.7,91.22-.91,136.84C107.89,362.47,98.36,372,81,372q-24.75,0-49.49,0C16,372,5.72,361.91,6,346.41c.86-46,2-91.94,3-137.91,0-1.35,0-2.71,0-4.3-.75-.07-1.33-.15-1.92-.18-5.29-.26-7.38-2.49-7-7.87.69-10.85,1.5-21.69,2.29-32.53Q4,140.27,5.78,116.9c.62-8.12,2.28-9.44,10.93-8.33.64-5.49,1.23-11,1.94-16.49Q24.26,49,30,5.92c.59-4.43,2.71-5.9,8-5.9H184.14c2.38,0,4.75,0,7.13,0,4,.1,6.15,1.84,6.67,5.66,3.29,24,6.58,48,9.73,72,1.24,9.54,2.11,19.12,3.17,28.68a16.59,16.59,0,0,0,.59,2.23c1.16-.18,2.12-.36,3.08-.46,4.27-.48,7.12,1.69,7.44,5.92,1.28,17.19,2.49,34.39,3.74,51.59.67,9.34,1.3,18.69,2.05,28,.66,8.12-.53,9.68-9,10.66.4,9,1,18.09,1.19,27.16.73,39.11,1.49,78.21,1.89,117.32.13,12.56-10.45,22.94-23,23.1q-27.93.36-55.86,0c-13.12-.18-23-11-23-24.67,0-38.24,0-76.49,0-114.73a495.93,495.93,0,0,0-5.29-69.82,9.73,9.73,0,0,0-.39-1.3ZM95.79,238.22c.07-1.31.16-2.29.16-3.28a517.49,517.49,0,0,1,8.11-89.83c1.55-8.57,3.45-17.2,3.72-25.85.57-18.36.17-36.74.17-55.12V59.87A164.59,164.59,0,0,1,37,40.26c-.92,7.1-1.75,13.5-2.56,19.82C47,64.22,53.25,71.3,53.92,81.91c.46,7.35,3,10.45,10.1,12.49,6.12,1.75,12.28,3.36,18.33,5.31a19.4,19.4,0,0,1,13.58,17.93c.33,10.81-7.58,19.37-18.8,20.36-4.13.36-6,2.54-4.91,6.47.74,2.54,2.47,4.79,3.8,7.15,2.25,4,5.33,7.7,6.66,12C87.52,179,77.7,192,61.62,192c-4.62,0-9.26-.12-13.87.09a7.87,7.87,0,0,0-3.67,1.79c-3.91,2.79-7.47,6.24-11.69,8.37-3.19,1.61-7.19,1.59-11.35,2.39-.86,22-1.74,44.33-2.6,66.2,4.1-.2,7.75-1,11.2-.44,8,1.22,13.09,6.86,14.45,16,1.43,9.63,5.24,17.4,13.45,23.2,3,2.15,5.36,6,6.83,9.56,3.95,9.53.69,19.82-7.9,26.26-4.84,3.64-8.06,8-8.35,14.51,12.53,0,24.9.23,37.25-.11,5.93-.16,10.42-5.54,10.54-11.67.14-6.49.13-13,0-19.49a6.44,6.44,0,0,0-1.69-3.84c-4.31-4.53-8.8-8.88-13.21-13.3a49.69,49.69,0,0,1-15-34.89c-.14-5.41-2.36-7.62-7.44-9.94-4.09-1.87-8.3-4.27-11.35-7.48-10.48-11-5.27-38.55,15.24-42.65,11.63-2.32,20.06,3.54,21.65,15.16a6.23,6.23,0,0,0,3,4.2C89.66,237.13,92.71,237.48,95.79,238.22Zm113.64,30.19c-.89-21.82-1.74-43-2.61-64.31-12,.26-20.58-4.72-26.14-15-7.51,5.24-11.58,12.09-12.59,20.74-.64,5.44.76,7.62,5.85,9.87,7.73,3.42,11.72,9.42,12,17.85.08,2.25,0,4.5,0,6.75,0,8.27-3.55,14.56-11.14,18s-14.75,1.89-20.77-3.78c-6.26-5.9-13.64-7.23-21.74-6.29-1.18,3.57,0,5.5,3.37,7,7.81,3.6,15.45,7.6,23.12,11.49a26.77,26.77,0,0,1,14,16.75c3.52,11.71-1.15,22.42-11.87,27.05-2.85,1.23-5.22,2.7-4.91,6.18.33,3.7,3.12,4.77,6.28,5.29,4.93.8,9.88,1.51,14.77,2.49a18.17,18.17,0,0,1,11.11,28.91c-.53.73-1,1.49-1.77,2.58,3.89,0,7.26,0,10.63,0,7.94-.08,12.85-4.95,12.89-12.88.05-9.13-.08-18.25.08-27.37,0-2.51-.69-3.63-3.1-4.56-14.22-5.47-23.09-15.76-26.5-30.61a16.73,16.73,0,0,1,12.11-20C198.51,263,203.79,264.82,209.43,268.41ZM127.21,167.7c8.1,1.19,14.17-.71,18.82-7.28,4.92-7,12.12-10.18,20.62-10.38,3.09-.07,6.19,0,9.57,0-.15-2-.24-3.61-.37-5.2-.61-7.72-1.29-15.44-1.82-23.17-.32-4.83,1.39-6.88,6.13-7.71,6.24-1.09,12.49-2.15,19.07-3.28-.48-4.47-.94-8.67-1.41-13.08-15.07,8.42-27.21,4.22-33.45-11A5.21,5.21,0,0,0,161,84c-6.64-1.3-10.63-4.93-12-11.69-.86-4.28-1.4-8.63-2.24-12.91-.18-.9-1.07-1.65-1.63-2.46-.39.88-1.11,1.76-1.12,2.65-.09,8.25,0,16.5-.09,24.75a29.87,29.87,0,0,1-20.86,28.19l-3.27,1.07C119.47,132.29,126.07,149.67,127.21,167.7Zm5.34,72.54a89.07,89.07,0,0,1,9.79.06,33.64,33.64,0,0,1,19.9,9.51c2.17,2.07,4.65,2.9,7.54,1.64s4.22-3.7,4.18-6.88c0-1.75-.1-3.5,0-5.24.3-4.62-1.75-7.35-6.05-9.15C160,226.87,155.81,220.59,156,212c.35-14.71,7-26,19.44-33.86,1-.67,2.64-1.79,2.62-2.67-.09-4.43-.62-8.85-1-13.44-2.3,0-4.17.15-6,0-7.5-.71-13.18,1.85-17.63,8.19-4.21,6-10.61,8.93-17.89,9.7a55.12,55.12,0,0,1-6,0C130.53,200.06,131.52,219.72,132.55,240.24Zm0,30.7c-.34.59-.56.78-.56,1,0,25.59-.11,51.17,0,76.76,0,6.3,5.31,11.13,11.73,11.3,5,.14,10,0,15,0a6.15,6.15,0,0,0,2.54-.42c5.15-2.51,10.45-4.8,15.29-7.83,1.71-1.08,3-4,3.14-6.12.18-2.79-2-4.71-4.89-5.3q-3.3-.66-6.62-1.23c-3.07-.53-6.16-1-9.23-1.52-8.12-1.44-13.92-7.34-14.92-15.14s3.32-15,10.79-18.31c6.71-3,8.88-7.76,5.92-14.44-1.17-2.61-3.08-5.48-5.45-6.87C147.94,278.51,140.17,274.85,132.57,270.94ZM28.62,110.66c6.62,1.14,12.75,2.17,18.87,3.25,5.17.91,6.76,2.88,6.37,8.24-.83,11.08-1.77,22.16-2.64,33.24-.62,8.06-1.2,16.13-1.82,24.51,5.26,0,10.25.29,15.18-.09,4.3-.34,7.32-4.19,7.34-8.59s-1.94-8.07-4.66-11.54a36.28,36.28,0,0,1-6-9.8c-4.45-12.55,2.1-22.48,15.34-23.89a7.76,7.76,0,0,0,7.27-6.84c.4-3.74-1.69-6.94-5.68-8.18-5.48-1.7-11-3.2-16.53-4.79-13.32-3.85-18.43-10-19.8-23.83a10.29,10.29,0,0,0-9-9.69C31.47,85.18,30.07,97.68,28.62,110.66ZM187.33,15.9c-49.09,26.94-97.84,26.91-146.7,0-.53,3.36-1.18,6.53-1.45,9.74a3.61,3.61,0,0,0,1.45,2.87c19.43,10.54,40.06,17.17,62.19,18.76,28.88,2.06,56-3.91,81.71-17.17,3.3-1.7,5.31-3.19,3.87-7.24C187.67,20.78,187.69,18.44,187.33,15.9Zm-151.61,344c2.16-12.05,5.2-17.65,12.46-23.15,7.8-5.9,7.86-13.63,0-19.39a36.28,36.28,0,0,1-14.62-22.72c-.57-2.81-.74-5.82-1.92-8.35-.82-1.74-2.92-3.66-4.7-3.95-1.57-.25-4.49,1.24-5.06,2.67-1.74,4.34-3.56,9-3.69,13.58-.46,16.35-.27,32.71-.24,49.07,0,6.28,4.12,11.33,10,12.18A53.89,53.89,0,0,0,35.72,359.87ZM95.8,250.71c-4-1-8-2-11.9-3.12-7-2-10.83-6.85-11.84-13.93-.75-5.2-2.71-6.59-7.83-5.14C57.81,230.33,54.11,236,54,244.23c-.08,5.36,2.46,9.08,7.43,10.89,11.89,4.33,16,10,16.63,22.84.67,13.14,7.68,22.7,17.77,31ZM158.14,54.34c.81,5,1.59,10.39,2.68,15.74.16.8,1.65,1.49,2.65,2,2.57,1.18,5.78,1.6,7.66,3.43,2.29,2.23,3.76,5.46,5.07,8.49,2.94,6.81,10.49,8.11,15.39,2.56,3.11-3.53,5.12-7.13,3.64-12.13-.8-2.7-.69-5.68-1.06-8.52-1.07-8.36-2.18-16.71-3.26-25Zm29.93,93.6c1,11.63,1.52,22.48,2.84,33.23.72,5.88,4.92,9.67,10.76,10.53,4.36.64,8.9.12,13.81.12-1.06-14.87-2.11-29.5-3.16-44.33C204.2,148.2,196.63,152.21,188.07,147.94ZM12.42,192c3.94,0,7.41,0,10.88,0,8.06-.1,13.57-5.38,14.15-13.44.39-5.48.89-11,1.3-16.43.33-4.5.6-9,.94-14.16-8.43,4.32-16,.18-24.1-.45C14.53,162.35,13.49,177,12.42,192ZM61.31,12.2c23.73,15.25,87.94,15.1,104.91,0Zm58.81,88.22a16.86,16.86,0,0,0,11.77-15.87c.17-5.61.06-11.23.06-16.84,0-2.82,0-5.63,0-8.67l-11.83.9ZM17.55,121.07c-.34,4-.62,7.35-.9,10.68,0,.5-.27,1.13-.06,1.47.57.88,1.2,2.14,2,2.36,3.61.93,7.28,1.63,11,2.26a7.68,7.68,0,0,0,9-5.44c.76-2.34,1.22-4.77,1.9-7.53Zm169.8,3.79a85,85,0,0,0,2.36,8.43,6.76,6.76,0,0,0,7.37,4.61c4.77-.59,9.47-1.75,14.4-2.7-.37-4.8-.71-9.22-1.08-14.11Zm22.46,178.25c0-3.42,0-6.51,0-9.59-.09-7.12-4.92-11.68-9.33-16.23-1.08-1.11-4.32-1-6.11-.24-1.2.48-2.31,3-2.23,4.57C192.57,289.83,201.17,300.29,209.81,303.11Z"/></g></g></svg>