<svg xmlns="http://www.w3.org/2000/svg" viewBox="0 0 283.57 384"><g id="katman_2" data-name="katman 2"><g id="katman_1-2" data-name="katman 1"><path d="M248.3,0a7.25,7.25,0,0,0,1.2.75c7.39,2.8,11.26,8.19,11.14,16.05-.68,42.19,4.38,84.05,7,126.05,1.54,24.56,3.47,49.1,5.22,73.65.3,4.25-1.71,7.06-5.16,7.32s-5.72-2-6.05-6.48q-2.91-39.61-5.78-79.24c-.06-.85-.18-1.7-.29-2.77-7.85-1-15.21-3.25-21.75-7.6-14.95-9.94-22.53-24-22.82-41.91-.18-11,0-22,0-33.26H176.64v4.31c0,17.75.09,35.49-.06,53.24a58.88,58.88,0,0,1-1.38,13.73c-3.16,12.53-11.15,20.63-23.72,24-.84.23-1.67.48-2.5.75-.1,0-.15.2-.4.57,2.32,12.64,4.67,25.5,7,38.37Q169,259.75,182.28,331.9c.52,2.82,1.13,5.63,1.51,8.47.26,1.91.93,2.84,3.06,2.84q41.06-.1,82.11-.08a9.69,9.69,0,0,0,1.54-.35c-.49-7.39-1-14.8-1.48-22.21q-2.59-36.63-5.2-73.27c-.28-4.08,1.7-6.73,5-7s5.79,2,6.11,6.13c1.18,15.32,2.22,30.65,3.32,46l5,69.9c0,.74.13,1.49.17,2.24.67,11.07-1.43,14.73-11.16,19.48h-78c-10.83-3-15.9-10.72-17.83-21.25q-15-82-30.18-163.9-2-10.92-4.07-21.84a23.2,23.2,0,0,0-2.15,7.11C129.17,243,118.18,302,107.45,360.9c-2,11.16-6.46,19.83-18.16,23.1h-78C1.55,379.27-.63,375.62.14,364.52q4.11-58.33,8.34-116.66a12.27,12.27,0,0,1,.84-4.38,5.09,5.09,0,0,1,6.18-3c3.16.76,4.49,3,4.32,6.12q-.53,9.16-1.19,18.33-2.73,37.95-5.47,75.9c-.05.61,0,1.21,0,2.35H17c26.12,0,52.25-.06,78.38.08,3.21,0,4.12-1,4.68-4.07q17.68-96.51,35.61-193a29.49,29.49,0,0,0,.52-5.21q.06-42.75,0-85.5c0-.87-.1-1.74-.18-2.92H72.57v3.91q0,13.7,0,27.38c0,27.6-16.84,47.17-44.65,51.49-.52,6.55-1.07,13.22-1.55,19.89q-2.27,31.23-4.49,62.45c-.3,4.11-2.59,6.38-6,6.15s-5.49-2.91-5.21-6.91c1.27-18.2,2.61-36.39,3.92-54.59q2.46-34.22,4.93-68.42C21.41,68,23.6,42.09,23,16.05,22.81,7.67,28.12,3,35.29,0ZM61.93,52.52H33.76c-1.7,23.84-3.39,47.41-5.07,71.07,14.66-1.48,28.83-13.08,31-27.9C61.83,81.63,61.29,67.17,61.93,52.52Zm193,71.22c-1.72-24-3.41-47.54-5.1-71.25H222.6a9.4,9.4,0,0,0-.32,1.63c0,11.11-.2,22.23.09,33.34a36.5,36.5,0,0,0,13.44,27.78A36,36,0,0,0,254.92,123.74ZM12.19,354.64c-.33,4.77-.66,9.23-.95,13.7-.19,3,1.16,4.42,4.18,4.42q35.05,0,70.1,0c3.69,0,6.8-1.6,8.14-5,1.6-4.07,2.49-8.43,3.81-13.09Zm259.22.05H186.23c1.12,4.35,1.85,8.39,3.24,12.2s4.56,5.85,8.75,5.85q34.86,0,69.73,0c3.19,0,4.61-1.45,4.4-4.59C272.05,363.82,271.74,359.47,271.41,354.69ZM147.73,52.48v84.7c7.87-1.73,13.39-6,15.68-13.31a48.24,48.24,0,0,0,1.89-13.6c.21-17.85.09-35.71.09-53.56V52.48Zm-47.41-41V40.78h35.6V11.43Zm47.35,29.28H183.3V11.55H147.67ZM61.31,11.27c-7.79,0-15-.06-22.25,0-2.52,0-4.58,1.4-4.64,4-.19,8.43-.07,16.87-.07,25.73,8.53,0,16.73,0,24.93-.09A2.79,2.79,0,0,0,61.22,39C61.35,29.89,61.31,20.81,61.31,11.27Zm161.24,0V40.78h26.69c0-8.65.12-17.09-.07-25.52-.06-2.58-2.13-3.94-4.65-4C237.29,11.21,230.06,11.26,222.55,11.26ZM88.46,40.78V11.44H72.79V40.78Zm122.25,0V11.44H195.06V40.78Z"/></g></g></svg>