<svg xmlns="http://www.w3.org/2000/svg" viewBox="0 0 192.12 360.09"><g id="katman_2" data-name="katman 2"><g id="katman_1-2" data-name="katman 1"><path d="M95.43,103.69c0,1.46,0,2.93,0,4.39L90.06,352.55c-.12,5.43-2.15,7.52-7.5,7.52q-37.52,0-75,0c-5.4,0-7.52-2.1-7.52-7.46Q0,205.77,0,58.94A46.39,46.39,0,0,1,10.41,29.48a7.93,7.93,0,0,0,1.53-4.36c.17-6,0-12,.08-18,0-4.91,2.21-7.1,7.12-7.1Q96,0,173,0c4.9,0,7,2.21,7.12,7.11,0,2.12.11,4.26,0,6.38-.44,8,.19,15.34,5.6,22.35s6.47,16.28,6.46,25.35q-.09,122.07,0,244.16,0,23.44,0,46.88c0,5.84-2,7.83-7.93,7.83H109.88c-5.83,0-7.73-2-7.86-7.93q-2.68-122.59-5.39-245.21c0-1.09-.14-2.18-.22-3.26ZM48,36.09c0,7.67.09,15,0,22.36a31.52,31.52,0,0,1-26.36,31c-3.13.55-6.35.62-9.41.9v257.5H78c.07-1.08.16-1.94.18-2.8Q80,265,81.78,184.93q.9-40.31,1.72-80.62c.09-4.28,1.11-8,4.28-11.22a7.91,7.91,0,0,0,2.17-5C90.11,72,90,55.85,90,39.72V36.09Zm65.43,311.72H179.9V90c-1.37,0-2.59,0-3.81,0-16.22-.25-29-11-31.52-27-.77-4.89-.41-10-.49-15-.07-3.95,0-7.89,0-11.81h-18V40c0,10.75.12,21.5,0,32.25-.15,9.85-4,18.3-12.28,23.63-4.6,3-5.34,6-5.22,11q2.68,111.16,4.91,222.34C113.55,335.38,113.44,341.49,113.44,347.81ZM12.65,77.86C23.8,78.62,33.17,73.59,34.88,64,36.5,54.93,36,45.48,36.4,36H30.61c-11.51,0-13.75,1.68-17.1,12.92a13.4,13.4,0,0,0-.82,3.64C12.61,60.9,12.65,69.24,12.65,77.86ZM156.11,36c0,8.2-.26,15.81.06,23.39.49,12,11.9,20.58,23.78,18.1,0-7.3.3-14.65-.09-22A31.16,31.16,0,0,0,173,38a4.7,4.7,0,0,0-2.85-1.93C165.62,35.9,161,36,156.11,36Zm-54,52.57a13.68,13.68,0,0,0,2.49-.83,17.69,17.69,0,0,0,9.39-16c.1-8,0-16,0-24V36.28H102.14Zm17.67-64.77V12.27H72.21V23.82ZM24.22,12.18V23.76H35.74V12.18Zm24,0V23.76H59.75V12.18Zm84.14-.1V23.76h11.41V12.08Zm35.53.13H156.32V23.73H167.9Z"/><path d="M36,195.22c0,.75,0,1.5,0,2.25-.17,4-2.67,6.66-6.18,6.55s-5.66-2.65-5.8-6.53c-.06-1.62-.06-3.25,0-4.87.14-4,2.63-6.66,6.16-6.55s5.65,2.64,5.82,6.52C36,193.47,36,194.34,36,195.22Z"/><path d="M36,224.88c0,6.2-1.79,9-5.83,9.14S24,231.18,24,224.84c0-.75,0-1.5,0-2.25.17-3.88,2.43-6.41,5.82-6.51s6,2.52,6.17,6.55C36,223.38,36,224.13,36,224.88Z"/><path d="M36,255.24a27,27,0,0,1,0,3.37,5.88,5.88,0,0,1-6.11,5.4,5.72,5.72,0,0,1-5.73-5.4,39.88,39.88,0,0,1-.07-6c.12-3.89,2.41-6.42,5.79-6.53s6,2.51,6.19,6.53c0,.87,0,1.75,0,2.62Z"/><path d="M36,285.08c0,.5,0,1,0,1.5-.06,4.71-2.3,7.47-6,7.46s-5.93-2.76-6-7.5c0-1.37-.05-2.75,0-4.12.19-3.83,2.59-6.34,6-6.33s5.77,2.53,6,6.37C36.05,283.33,36,284.21,36,285.08Z"/><path d="M36,315.11c0,.5,0,1,0,1.5-.06,4.71-2.3,7.46-6.05,7.43s-5.91-2.77-6-7.51c0-1.37-.05-2.75,0-4.12.19-3.82,2.61-6.33,6-6.31s5.76,2.54,5.95,6.38C36.05,313.35,36,314.23,36,315.11Z"/></g></g></svg>