<?xml version="1.0" encoding="utf-8"?>
<!-- Generator: Adobe Illustrator 26.0.0, SVG Export Plug-In . SVG Version: 6.00 Build 0)  -->
<svg version="1.1" id="Outline" xmlns="http://www.w3.org/2000/svg" xmlns:xlink="http://www.w3.org/1999/xlink" x="0px" y="0px"
	 viewBox="0 0 25.6 26.5" style="enable-background:new 0 0 25.6 26.5;" xml:space="preserve">
<path d="M7.1,26.5H0.8c-0.4,0-0.7-0.3-0.7-0.7c0,0,0-0.1,0-0.1L2.9,4C3,3.6,3.3,3.3,3.6,3.3h9.2c0.4,0,0.8,0.3,0.8,0.8v9
	c0,0.1,0,0.2-0.1,0.3L7.8,26.1C7.7,26.3,7.4,26.5,7.1,26.5z M1.7,25h5l5.4-12.1V4.8H4.3L1.7,25z"/>
<path d="M3.7,26.5L3.7,26.5c-0.5-0.1-0.8-0.4-0.8-0.8c0,0,0,0,0,0L5.8,4c0.1-0.4,0.4-0.7,0.8-0.7c0.4,0.1,0.7,0.4,0.6,0.8L4.5,25.9
	C4.4,26.2,4.1,26.5,3.7,26.5z"/>
<path d="M3.7,4.8L3.7,4.8c-0.4,0-0.8-0.3-0.8-0.8s0.3-0.8,0.8-0.8s0.8,0.3,0.8,0.8C4.4,4.5,4.1,4.8,3.7,4.8C3.7,4.8,3.7,4.8,3.7,4.8
	L3.7,4.8z"/>
<path d="M24.8,26.5h-6.3c-0.3,0-0.6-0.2-0.7-0.4l-5.7-12.6c0-0.1-0.1-0.2-0.1-0.3v-9c0-0.4,0.3-0.8,0.7-0.8c0,0,0,0,0,0H22
	c0.4,0,0.7,0.3,0.8,0.7l2.8,21.7c0.1,0.4-0.2,0.8-0.6,0.8C24.9,26.5,24.9,26.5,24.8,26.5z M19,25h5L21.3,4.8h-7.8v8.1L19,25z"/>
<path d="M22,4.8H3.7c-0.4,0-0.8-0.3-0.8-0.8c0,0,0-0.1,0-0.1l0.4-3.3C3.4,0.3,3.7,0,4.1,0h17.5c0.4,0,0.7,0.3,0.8,0.7L22.7,4
	C22.8,4.4,22.5,4.8,22,4.8C22.1,4.8,22,4.8,22,4.8z M4.5,3.3h16.6l-0.2-1.8H4.7L4.5,3.3z"/>
<path d="M21.9,26.5c-0.4,0-0.7-0.3-0.7-0.6L18.4,4.2c-0.1-0.4,0.1-0.8,0.5-0.9c0.4-0.1,0.8,0.1,0.9,0.5c0,0.1,0,0.2,0,0.2l2.8,21.7
	c0.1,0.4-0.2,0.8-0.6,0.8c0,0,0,0,0,0L21.9,26.5z"/>
<path d="M22,4.8L22,4.8c-0.4,0-0.7-0.3-0.7-0.8c0-0.4,0.3-0.7,0.8-0.7c0.4,0,0.7,0.3,0.7,0.7C22.8,4.5,22.4,4.8,22,4.8
	C22,4.8,22,4.8,22,4.8L22,4.8z"/>
</svg>
