<svg xmlns="http://www.w3.org/2000/svg" viewBox="0 0 150.12 408.71"><g id="katman_2" data-name="katman 2"><g id="katman_1-2" data-name="katman 1"><path d="M18.3,408.71c-3.84-2.34-4.76-5.86-4.75-10.16,0-57.21.42-114.43-.27-171.63-.24-19.62-3.06-39.21-5-58.8C5.78,142.19,2.7,116.31.4,90.35-1.22,72.16,2,54.84,12.68,39.46a7.73,7.73,0,0,0,.88-4.13c.09-6.52,0-13,0-19.56s2.38-9,8.86-9c10.37-.07,20.75.07,31.13-.11A11.28,11.28,0,0,0,59.41,4.8a27.69,27.69,0,0,1,31.16,0,11.31,11.31,0,0,0,5.82,1.85c10.24.18,20.49,0,30.73.1,7,0,9.22,2.37,9.26,9.42,0,1.2,0,2.4,0,3.6-.41,10.21.34,19.68,6.06,29.16C150,61.51,151,76.24,149.59,90.75c-2.74,28.59-5.89,57.13-8.85,85.7-2.35,22.62-4.59,45.21-4.46,68,.32,51.35.07,102.71.16,154.07,0,4.31-.92,7.82-4.76,10.16H93.36c-3.56-2.08-4.78-5.19-4.92-9.28-.41-11.69-1.23-23.37-1.78-35.07-1.52-32.81-3.41-65.62-4.35-98.46-.76-26.72-.6-53.47-.39-80.21.11-13.85-2.27-27.24-5.41-40.59A41.16,41.16,0,0,0,75.08,141a186.53,186.53,0,0,0-6.15,27.54c-.88,6.42-.69,13-.75,19.51-.27,30.2.18,60.42-.84,90.59-1.37,40.27-3.91,80.51-5.8,120.76-.2,4.08-1.36,7.2-4.91,9.29Zm64.62-294c1.27,5,2.53,9.7,3.7,14.47,4,16.39,9,32.7,8.77,49.73-.81,65,1.59,129.84,5.28,194.68.41,7.11.86,14.21,1.29,21.27h20.78V390c0-43.64.6-87.3-.17-130.93-.73-40.88,4.52-81.22,8.68-121.69,1.82-17.72,3.76-35.45,4.92-53.22a56,56,0,0,0-8-33.62c-1.26-2-2.55-3-5-2.91-9.05.15-18.1,0-27.15.13a9.89,9.89,0,0,0-5.1,1.56,27.39,27.39,0,0,1-31.77,0,9.13,9.13,0,0,0-4.72-1.54c-9.18-.15-18.36,0-27.54-.13-2.48-.05-3.77.87-5,2.92C14.47,62.66,12.72,76,14,89.73c2.42,25.68,5.35,51.32,7.86,77,1.9,19.45,4.73,38.92,5,58.4.72,54.95.33,109.91.37,164.87v4.9H48c.17-1.63.38-3.08.45-4.53,1.69-34.28,3.84-68.55,4.89-102.86,1-32.7,1.17-65.45,1.08-98.18a196,196,0,0,1,6-47.73Q63.65,128.12,67,114.7c-4.64-1.9-9-3.56-13.2-5.46a12.83,12.83,0,0,1-4.51-3.13c-2.13-2.52-2-5.46,0-8.06,2.59-3.3,6.07-3.38,9.32-1.48,11,6.44,21.72,6.36,32.77,0,4.44-2.54,8.41-1,10.14,2.77s.1,7.37-4.61,9.53C92.46,110.94,87.87,112.69,82.92,114.73ZM75.14,40.68A13.72,13.72,0,0,0,88.57,27.19a13.58,13.58,0,1,0-27.16-.1A13.71,13.71,0,0,0,75.14,40.68ZM27.39,33.76H48.07v-13H27.39Zm95.06,0V20.71H101.91V33.77Z"/></g></g></svg>