<svg xmlns="http://www.w3.org/2000/svg" viewBox="0 0 163.64 408.94"><g id="katman_2" data-name="katman 2"><g id="katman_1-2" data-name="katman 1"><path d="M5,408.94c-4.09-1.87-5.3-5.09-4.88-9.43q3.09-32,5.94-64c1.87-21.33,3.83-42.66,5.23-64,1-16.18,2.36-32.46,1.62-48.61-1-21.89-3.8-43.7-5.89-65.53-2.29-24-5-47.88-6.83-71.86A69.26,69.26,0,0,1,12.46,39.8a8.48,8.48,0,0,0,1.09-4.49c.12-6.52,0-13,.06-19.56S15.86,7,22.55,6.92c10.5-.06,21,0,31.64,0,1.23-5.66,5-7,10.15-6.9Q81.71.3,99.07,0c5.14-.08,8.92,1.24,10.15,6.9,10.36,0,20.6,0,30.84,0,7.73,0,9.71,2,9.75,9.64,0,1.2.05,2.4,0,3.59-.49,10.12.52,19.42,6.09,28.77,8.53,14.32,8.55,30.8,6.92,47-3.65,36.25-7.62,72.47-11.46,108.7-2.53,23.81-1,47.57,1,71.32s4,47.71,6.07,71.56c1.39,15.9,3,31.78,4.48,47.67.14,1.45.16,2.93.37,4.37.64,4.33-.77,7.56-4.86,9.43H93.69c-4.17-1.8-5.4-5.07-5-9.38.32-3.43.3-6.91.47-10.36,1.78-36,4-72,5.19-108,1-30.44.09-60.94,1.16-91.37.73-20.68-6-39.16-13.33-57.72-.06-.14-.44-.16-1.26-.43-3.26,9.65-6.74,19.23-9.68,29-1.53,5.05-2.93,10.38-3,15.6-.15,30.86-.56,61.74.42,92.58,1.39,43.47,3.9,86.91,6,130.35.22,4.42-.63,7.9-5,9.77ZM149,395.11c-.17-2.48-.27-4.71-.47-6.93-1.22-13.11-2.53-26.21-3.67-39.33-2.07-23.85-4.31-47.69-6-71.57-1.22-17.37-3.15-34.9-2.07-52.18,2.07-32.89,6.21-65.65,9.21-98.49,1.52-16.67,2.9-33.37,3.44-50.09.31-9.54-3-18.58-8.35-26.64a4.54,4.54,0,0,0-3-2c-9.57-.15-19.14-.09-28.91-.09-1.08,5.51-4.74,6.83-9.72,6.75-11.84-.17-23.69-.19-35.53,0-5,.08-8.58-1.37-9.63-6.76-9.71,0-19.16-.09-28.59.11a5.33,5.33,0,0,0-3.58,2.37A52.67,52.67,0,0,0,13.8,84.19c3,34,6.88,68,9.89,102,1.61,18.25,2.76,36.6,3,54.91.15,13.53-1.34,27.1-2.46,40.62-2.45,29.82-5.11,59.63-7.7,89.44-.69,7.91-1.41,15.81-2.13,23.92H60.68c0-1.53.06-2.83,0-4.13-1.77-36.41-4.05-72.81-5.2-109.24-1-31.38-.41-62.8-1.11-94.19C54,172.34,57,158,62.17,143.9c3.59-9.7,7.22-19.39,10.87-29.2-4.9-2.09-9.73-3.94-14.36-6.19-3.87-1.89-5.09-5.55-3.5-9s5.45-5.27,9.06-3.18c11.8,6.83,23.2,6.79,35,0,4.12-2.37,8.77.44,9.48,4.8.6,3.68-1.22,6.17-4.44,7.62-4.57,2.06-9.21,4-13.93,6,3.68,9.88,7.41,19.53,10.88,29.29,3.64,10.27,7.49,20.64,7.52,31.67.09,32.06.37,64.15-.52,96.19-1,35.24-3.18,70.44-4.84,105.66-.27,5.81-.52,11.61-.79,17.6ZM68.36,13.75V40.59H95V13.75ZM54.26,34V20.81H27.56V34ZM136,20.92h-26.8v13H136Z"/></g></g></svg>