<?xml version="1.0" encoding="utf-8"?>
<!-- Generator: Adobe Illustrator 26.0.0, SVG Export Plug-In . SVG Version: 6.00 Build 0)  -->
<svg version="1.1" id="katman_1" xmlns="http://www.w3.org/2000/svg" xmlns:xlink="http://www.w3.org/1999/xlink" x="0px" y="0px"
	 viewBox="0 0 332.9 551.3" style="enable-background:new 0 0 332.9 551.3;" xml:space="preserve">
<g>
	<path d="M332.7,532.8L293.3,371c-7.5-31.3-8.6-43.7-8.6-94.9l4.4-65.6c0-0.2,0-0.3,0-0.5c-4.6-87.3-14.2-129.3-39.4-171.7V8.9
		c0-4.8-3.9-8.8-8.8-8.8h-30.3c-0.1,0-0.2-0.1-0.4-0.1s-0.2,0.1-0.4,0.1h-43c-0.1,0-0.2-0.1-0.4-0.1s-0.2,0.1-0.4,0.1h-43
		c-0.1,0-0.2-0.1-0.4-0.1s-0.2,0.1-0.4,0.1H91.9c-4.8,0-8.8,3.9-8.8,8.8v29.4C57.9,80.7,48.3,122.7,43.7,210c0,0.2,0,0.4,0,0.5
		l4.4,65.3c0,51.5-1.1,64-8.6,95.2L0.1,532.8c-0.1,0.3-0.1,0.7-0.1,1c0,6.3,7.9,10,27.2,13c29.3,4.6,124.7,9.3,130.1-7.3
		c0.2-0.6,0.3-1.2,0.2-1.9l-21.9-170.4c-2-22.1-0.4-47.1,4.3-68.6l26.2-113.7c0-0.2,0.1-0.3,0.1-0.4c0,0.1,0.1,0.2,0.1,0.4
		l26.2,113.7c4.7,21.6,6.3,46.6,4.3,68.5l-21.4,170.6c-0.1,0.6,0,1.3,0.2,1.9c2.8,8.9,31.1,11.7,61.4,11.7c26.7,0,55-2.2,68.7-4.3
		c19.4-3,27.2-6.8,27.2-13C332.8,533.5,332.8,533.1,332.7,532.8L332.7,532.8z M246.4,50c12.3,22.4,20.3,45.5,25.7,76.6
		c-12.2-4.8-20.9-12.4-26-22.4C239.3,90.6,239.4,72.3,246.4,50L246.4,50z M241,35.1h-26.2V8.9H241V35.1z M171,35.1V8.9h35v26.2H171z
		 M127.2,35.1V8.9h35v26.2H127.2z M171,43.8h13.1v52.6c0,15.2-4,17.6-12.8,22.6c-0.1,0.1-0.2,0.1-0.3,0.2L171,43.8z M92.2,8.9h26.2
		v26.2H92.2V8.9z M86.8,50c7,22.3,7.1,40.6,0.3,54.2c-5,10.1-13.8,17.6-26,22.4C66.5,95.5,74.6,72.4,86.8,50L86.8,50z M158,182.9
		l-26.3,113.8c-4.9,22.4-6.6,48.4-4.4,71.5l21.6,168.7c-4.1,2.5-22.1,5.8-58.2,5.6c-41.7-0.3-75.2-5-81.3-9.3l39-160.1
		c7.6-31.8,8.9-45.4,8.9-97.6l-4.4-65.4c1.5-29.1,3.6-53.1,6.7-73.6c16.5-5.4,28.8-15.2,35.4-28.3c8.2-16.5,7.8-38.1-1-64.3h68.3
		v96.3h-48.1c-2.4,0-4.4,2-4.4,4.4s2,4.4,4.4,4.4h48.1v8.8h-35c-2.4,0-4.4,2-4.4,4.4s2,4.4,4.4,4.4h35v10.1
		C160.2,177.8,158.6,180,158,182.9L158,182.9z M242.5,542.5c-36.1,0.2-54.1-3.1-58.2-5.6L206,368c2.1-22.9,0.5-48.9-4.5-71.4
		l-26.3-113.8c-0.7-2.8-2.2-5.1-4.3-6.4v-10.2h35c2.4,0,4.4-2,4.4-4.4s-2-4.4-4.4-4.4h-35v-8.8H219c2.4,0,4.4-2,4.4-4.4
		s-2-4.4-4.4-4.4h-48.1v-10.6c1.6-1,3.2-2,4.7-2.8c10.6-6.1,17.2-10.9,17.2-30.2V43.8h46.4c-8.8,26.2-9.2,47.8-1,64.3
		c6.6,13.2,18.8,22.9,35.4,28.3c3.1,20.6,5.2,44.5,6.7,73.6l-4.4,65.7c0,51.9,1.2,65.5,8.9,97.3l39,160.1
		C317.7,537.5,284.2,542.2,242.5,542.5L242.5,542.5z"/>
</g>
</svg>
