<?xml version="1.0" encoding="utf-8"?>
<!-- Generator: Adobe Illustrator 26.0.0, SVG Export Plug-In . SVG Version: 6.00 Build 0)  -->
<svg version="1.1" id="katman_1" xmlns="http://www.w3.org/2000/svg" xmlns:xlink="http://www.w3.org/1999/xlink" x="0px" y="0px"
	 viewBox="0 0 297.4 551.4" style="enable-background:new 0 0 297.4 551.4;" xml:space="preserve">
<g>
	<path d="M271.4,201.2C266.8,114,257.2,72,232,29.6V8.8c0-4.8-3.9-8.8-8.8-8.8H74.5c-4.8,0-8.8,3.9-8.8,8.8v20.7
		C40.5,71.9,30.9,113.9,26.3,201L0,533.9c0,10.5,16.6,14.6,26.5,16.2c17,2.7,43.7,2,47.7-10.5c0-0.1,0.1-0.3,0.1-0.5l74.3-363
		c0-0.2,0.1-0.3,0.1-0.4c0,0.1,0.1,0.2,0.1,0.3l74.4,363.1c0,0.2,0.1,0.3,0.1,0.5c2.8,8.8,17,11.7,31.1,11.7
		c5.8,0,11.7-0.5,16.6-1.3c9.9-1.5,26.5-5.7,26.4-16.5L271.4,201.2z M227.8,39.7c12.6,22.6,20.9,45.8,26.4,77
		c-10.5-6.6-21.9-19.5-27.6-35.9C222.9,70.5,220.6,55.5,227.8,39.7L227.8,39.7z M223.3,26.3h-26.2V8.8h26.2V26.3z M153.3,26.3V8.8
		h35v17.5H153.3z M153.3,35.1h13.1v52.5c0,15.2-4,17.6-12.8,22.6c-0.1,0.1-0.2,0.1-0.3,0.2L153.3,35.1z M144.5,26.3h-35V8.8h35V26.3
		z M74.5,8.8h26.2v17.5H74.5V8.8z M70,39.7c7.2,15.8,4.8,30.8,1.2,41.1c-5.7,16.4-17.2,29.3-27.6,35.9C49.2,85.5,57.4,62.3,70,39.7
		L70,39.7z M140.2,174.2L65.9,537c-1.6,3.9-18,7.4-38,4.3c-14.4-2.2-19-6.4-19.1-7.2l26.3-332.6c1.5-29.3,3.7-53.4,6.7-74
		c13.5-5.9,30.1-22.3,37.7-43.9c4.2-12.1,6.9-29.9-2-48.6h67v96.2H96.4c-2.4,0-4.4,2-4.4,4.4s2,4.4,4.4,4.4h48.1v8.8h-35
		c-2.4,0-4.4,2-4.4,4.4s2,4.4,4.4,4.4h35v10.1C142.5,169,140.9,171.3,140.2,174.2L140.2,174.2z M269.9,541.3
		c-20,3.1-36.3-0.4-38-4.3l-74.3-362.9c-0.7-2.9-2.2-5.2-4.3-6.6v-10h35c2.4,0,4.4-2,4.4-4.4s-2-4.4-4.4-4.4h-35v-8.8h48.1
		c2.4,0,4.4-2,4.4-4.4s-2-4.4-4.4-4.4h-48.1v-10.7c1.6-1,3.2-2,4.7-2.8c10.6-6.1,17.2-10.9,17.2-30.2V35.1h45.1
		c-8.9,18.7-6.2,36.5-2,48.6c7.5,21.6,24.1,37.9,37.7,43.9c3.1,20.7,5.2,44.8,6.8,74.2l26.1,332C288.9,535,284.2,539.1,269.9,541.3
		L269.9,541.3z"/>
	<path d="M250.7,336.9h-1.1c-6.5,0-9.6-1.8-13.1-3.8c-4.1-2.3-8.7-5-17.5-5c-2.1,0-4,0.8-5.5,2.2c-3.4,3.4-3.3,9.3-3.3,14.1v0.5
		c-0.5,0.3-1.3,0.8-2,1.1c-2.5,1.3-6.8,3.4-6.8,8.3c0,2.1,0.8,4,2.2,5.5c3.4,3.4,9.3,3.3,14.1,3.3h1.1c6.5,0,9.6,1.8,13.1,3.8
		c4.1,2.3,8.7,5,17.5,5c2.1,0,4-0.8,5.5-2.2c3.4-3.4,3.3-9.3,3.3-14.1v-0.5c0.5-0.3,1.3-0.8,2-1.1c2.5-1.3,6.8-3.4,6.8-8.3
		c0-2.1-0.8-4-2.2-5.5C261.4,336.9,255.4,336.9,250.7,336.9z M256.3,346.2c-2.5,1.3-6.8,3.4-6.8,8.3v1.2c0,1.9,0,6-0.6,7.6
		c-6.1-0.1-9.1-1.8-12.6-3.8c-4.1-2.3-8.7-5-17.5-5h-1.2c-1.4,0-4.1,0-6.1-0.2c0.2-0.1,0.3-0.2,0.5-0.2c2.5-1.3,6.8-3.4,6.8-8.3
		v-1.2c0-1.9,0-6,0.6-7.6c6.1,0.1,9.1,1.8,12.6,3.8c4.1,2.3,8.7,5,17.5,5h1.2c1.4,0,4.1,0,6.1,0.2
		C256.6,346,256.5,346.1,256.3,346.2z"/>
	<path d="M89.6,346.2c-0.6-0.3-1.5-0.7-2-1.1v-0.5c0-4.8,0.1-10.7-3.3-14.1c-1.5-1.5-3.3-2.2-5.5-2.2c-8.8,0-13.4,2.6-17.5,5
		c-3.6,2-6.6,3.8-13.1,3.8h-1.1c-4.8,0-10.7-0.1-14.1,3.3c-1.5,1.5-2.2,3.4-2.2,5.5c0,4.9,4.3,7,6.8,8.3c0.6,0.3,1.5,0.7,2,1.1v0.5
		c0,4.8-0.1,10.7,3.3,14.1c1.5,1.5,3.3,2.2,5.5,2.2c8.8,0,13.4-2.6,17.5-5c3.6-2,6.6-3.8,13.1-3.8h1.1c4.8,0.1,10.7,0.1,14.1-3.3
		c1.5-1.5,2.2-3.4,2.2-5.5C96.4,349.6,92.1,347.4,89.6,346.2z M80.1,354.5h-1.2c-8.8,0-13.4,2.6-17.5,5c-3.5,2-6.5,3.7-12.6,3.8
		c-0.6-1.6-0.6-5.7-0.6-7.6v-1.2c0-4.9-4.3-7-6.8-8.3c-0.1-0.1-0.3-0.1-0.5-0.2c1.9-0.3,4.6-0.3,6.1-0.2h1.2c8.8,0,13.4-2.6,17.5-5
		c3.5-2,6.5-3.7,12.6-3.8c0.6,1.6,0.6,5.7,0.6,7.6v1.2c0,4.9,4.3,7,6.8,8.3c0.1,0.1,0.3,0.1,0.5,0.2
		C84.2,354.5,81.5,354.5,80.1,354.5z"/>
</g>
</svg>
