<?xml version="1.0" encoding="utf-8"?>
<!-- Generator: Adobe Illustrator 26.0.0, SVG Export Plug-In . SVG Version: 6.00 Build 0)  -->
<svg version="1.1" id="katman_1" xmlns="http://www.w3.org/2000/svg" xmlns:xlink="http://www.w3.org/1999/xlink" x="0px" y="0px"
	 viewBox="0 0 306.2 551.2" style="enable-background:new 0 0 306.2 551.2;" xml:space="preserve">
<g>
	<path d="M144.4,21.8c0,5.8-8.8,5.8-8.8,0S144.4,16,144.4,21.8"/>
	<path d="M296.2,237.9l-3-97.9c0-1.8-0.1-3.5-0.2-5.3l0,0c-1.1-21.8-8.8-44.2-16.3-66c-3.6-10.4-7-20.3-9.7-30V13.1
		C267,5.9,261.1,0,253.9,0H52.6c-7.2,0-13.1,5.9-13.1,13.1v25.6c-2.7,9.7-6.1,19.5-9.7,30c-8.1,23.5-16.6,47.8-16.6,71.1l-3,98.1
		c-6,2.8-10.2,8.8-10.2,15.8v105c0,6.5,3.6,12.2,8.9,15.2c0.5,86.1,1.9,141.5,4.2,164.6c0.8,8.3,9.5,12.7,17.7,12.7h69.8
		c9,0,16.9-7.7,17.5-17.2c11.8-179.8,21.3-284.9,30.5-340.5c1.1-4.3,2.7-7.5,4.5-9.1c1.8,1.6,3.4,4.7,4.4,8.8
		c9.3,55.9,18.7,161,30.6,340.8c0.6,9.5,8.5,17.2,17.5,17.2h69.8c8.1,0,16.7-4.3,17.7-12.6c3.5-30.1,4.4-115.1,4.6-164.9
		c5.1-3.1,8.5-8.6,8.5-14.9v-105C306.3,246.7,302.1,240.7,296.2,237.9L296.2,237.9z M288.8,367.5h-8.3l6.9-68.6l10.2-3.8v63.7
		C297.6,363.6,293.7,367.5,288.8,367.5L288.8,367.5z M257.8,367.5l-6.5-64.7l14.7,3.4c0.3,0.1,0.7,0.1,1,0.1c0.5,0,1-0.1,1.5-0.3
		l9.8-3.7l-6.5,65.2L257.8,367.5z M214.5,294.2l27.9,6.4l6.7,66.8h-3.9c-16.9,0-30.6-13.7-30.6-30.6L214.5,294.2z M297.6,285.7
		l-30.9,11.6l-52.2-12.1v-18.4c0-12.1,9.8-21.9,21.9-21.9h52.5c4.8,0,8.8,3.9,8.8,8.8L297.6,285.7L297.6,285.7z M283.4,126
		c-21.6-18.2-33-45.8-33.8-82.3h9.7c2.6,9.1,5.7,18.2,9.1,27.8C274.6,89.6,281,108.1,283.4,126L283.4,126z M258.2,13.1V35h-21.9V8.7
		h17.5C256.2,8.7,258.2,10.7,258.2,13.1z M133.1,35l-7.6-7.6c-1.9-1.7-3-3.7-2.9-5.6c0-1.9,1-3.7,3.1-5.5l7.5-7.5h94.4V35H133.1z
		 M157.6,43.7h13.1v52.6c0,15.2-4,17.6-12.8,22.6c-0.1,0.1-0.2,0.1-0.3,0.2L157.6,43.7z M119.5,33.7l1.3,1.3H78.9V8.7h42l-1.1,1.1
		c-3.8,3.2-5.8,7.4-5.9,11.8C113.8,26.1,115.8,30.4,119.5,33.7L119.5,33.7z M48.2,13.1c0-2.4,2-4.4,4.4-4.4h17.5v26.2H48.2V13.1z
		 M38,71.6c3.3-9.6,6.5-18.8,9.1-27.8h9.7c-0.8,36.5-12.2,64.1-33.9,82.3C25.4,108.1,31.8,89.6,38,71.6L38,71.6z M17.6,245h52.5
		c12.1,0,21.9,9.8,21.9,21.9v18.4l-52.2,12L8.9,285.7v-32C8.8,248.9,12.8,245,17.6,245L17.6,245z M34.7,367.5l-6.5-65.2L38,306
		c0.5,0.2,1,0.3,1.5,0.3c0.3,0,0.7,0,1-0.1l14.7-3.4l-6.5,64.7L34.7,367.5z M64.1,300.7l27.9-6.4v42.6c0,16.9-13.7,30.6-30.6,30.6
		h-3.9L64.1,300.7z M8.8,295l10.2,3.8l6.9,68.6h-8.3c-4.8,0-8.8-3.9-8.8-8.8L8.8,295z M140.1,191.8c-9.4,56.2-18.8,161.6-30.7,341.7
		c-0.3,4.8-4.4,9-8.8,9H30.8c-4.1,0-8.7-1.9-9-4.8c-2.3-22.6-3.7-77-4.1-161.4h43.5c21.7,0,39.4-17.7,39.4-39.4v-70
		c0-16.9-13.7-30.6-30.6-30.6H19l2.9-96.2c0-0.7,0.1-1.5,0.1-2.2c28-19.7,42.6-51.3,43.6-94h83.2v96.2h-48.1c-2.4,0-4.4,2-4.4,4.4
		s2,4.4,4.4,4.4h48.1v8.8h-35c-2.4,0-4.4,2-4.4,4.4s2,4.4,4.4,4.4h35v10.6C144.9,179.5,142,184.5,140.1,191.8L140.1,191.8z
		 M284.5,537.6c-0.3,2.9-4.9,4.9-9,4.9h-69.8c-4.3,0-8.4-4.2-8.8-9c-11.9-180.1-21.3-285.5-30.7-342c-1.8-7-4.7-11.9-8.6-14.6v-10.6
		h35c2.4,0,4.4-2,4.4-4.4s-2-4.4-4.4-4.4h-35v-8.8h48.1c2.4,0,4.4-2,4.4-4.4s-2-4.4-4.4-4.4h-48.1v-10.6c1.6-1,3.2-2,4.7-2.8
		c10.6-6.1,17.2-10.9,17.2-30.2V43.7h61.3c0.9,42.7,15.6,74.4,43.6,94c0,0.8,0.1,1.6,0.1,2.3l2.9,96.1h-51
		c-16.9,0-30.6,13.7-30.6,30.6v70c0,21.7,17.7,39.4,39.4,39.4H289c0.1,0,0.1,0,0.2,0C288.8,426.2,287.9,508.4,284.5,537.6
		L284.5,537.6z"/>
	<path d="M267,258.1c-7.2,0-13.1,5.9-13.1,13.1s5.9,13.1,13.1,13.1s13.1-5.9,13.1-13.1S274.2,258.1,267,258.1z M267,275.6
		c-2.4,0-4.4-2-4.4-4.4s2-4.4,4.4-4.4s4.4,2,4.4,4.4S269.4,275.6,267,275.6z"/>
	<path d="M39.4,284.4c7.2,0,13.1-5.9,13.1-13.1s-5.9-13.1-13.1-13.1s-13.1,5.9-13.1,13.1S32.2,284.4,39.4,284.4z M39.4,266.8
		c2.4,0,4.4,2,4.4,4.4s-2,4.4-4.4,4.4s-4.4-2-4.4-4.4S37,266.8,39.4,266.8z"/>
</g>
</svg>
