<?xml version="1.0" encoding="utf-8"?>
<!-- Generator: Adobe Illustrator 26.0.0, SVG Export Plug-In . SVG Version: 6.00 Build 0)  -->
<svg version="1.1" id="katman_1" xmlns="http://www.w3.org/2000/svg" xmlns:xlink="http://www.w3.org/1999/xlink" x="0px" y="0px"
	 viewBox="0 0 246.5 544.6" style="enable-background:new 0 0 246.5 544.6;" xml:space="preserve">
<g>
	<path d="M104.8,544.6c-0.4,0-0.8,0-1.2-0.1l-79.1-8.1l0,0c-5.7-0.6-10.1-5.2-10.4-11C14,522.8,0,267.4,0,166.2
		C0,62.7,25.2,8.9,26.3,6.6c1.5-3.2,4.4-5.5,7.9-6.3c3.5-0.8,7.1,0,9.9,2.2c17.6,13.8,63.5,18.4,79.7,18.9l0,0
		c3.1,0.1,6,1.4,8.2,3.7c2.1,2.3,3.3,5.3,3.1,8.4c-0.1,3.1-1.5,6-3.7,8.1c-2.3,2.1-5.3,3.2-8.4,3.1c-27.4-0.8-54.5-6.2-80.2-16
		c-13.9,44.5-20.5,90.9-19.5,137.5c0,89.2,10.9,299.7,13.5,348l56.3,5.8c0-44.3,0.2-188,5.3-242.5l0,0c1.9-30.4,6.5-60.6,13.8-90.3
		c1.9-6.2,8.4-9.6,14.5-7.8c6.2,1.9,9.7,8.4,7.8,14.6c-6.7,28.1-11,56.8-12.9,85.7c-5.8,62.3-5.1,251.3-5.1,253.2
		c0,3.1-1.2,6.1-3.4,8.3C110.8,543.3,107.9,544.6,104.8,544.6L104.8,544.6z"/>
	<path d="M141.7,544.6c-3.1,0-6.1-1.2-8.3-3.4c-2.2-2.2-3.4-5.2-3.4-8.3c0-1.9,0.7-190.9-5.1-253.2c-1.9-28.9-6.2-57.5-12.9-85.7
		c-1.8-6.2,1.7-12.6,7.8-14.5c6.1-1.9,12.6,1.6,14.5,7.7c7.2,29.6,11.8,59.8,13.8,90.3c5.1,54.5,5.3,198.1,5.3,242.5l56.3-5.8
		c2.6-48.2,13.5-258.8,13.5-348l0,0c1-46.6-5.6-93-19.4-137.5c-22,8.8-45.3,14-68.9,15.4v80.7c0,6.4-5.2,11.7-11.7,11.7
		c-6.4,0-11.7-5.2-11.7-11.7V33.1c0-6.3,5-11.4,11.2-11.7c16.2-0.6,62.2-5.1,79.7-18.9l0,0c2.8-2.2,6.4-3,9.9-2.2
		c3.4,0.8,6.4,3.1,7.9,6.3c1.1,2.2,26.3,56.1,26.3,159.6c0,101.2-13.9,356.6-14.1,359.2c-0.3,5.7-4.7,10.4-10.4,11l-79.1,8.1
		C142.5,544.6,142.1,544.6,141.7,544.6L141.7,544.6z"/>
	<path d="M121.9,77.8c-35.3,0.4-70.2-7.6-101.8-23.3c-5.6-3.2-7.6-10.3-4.5-15.9c3.2-5.6,10.3-7.6,15.9-4.5
		c28.9,13.4,60.4,20.3,92.2,20.2s63.3-7.1,92.1-20.7c2.8-1.3,6-1.4,8.9-0.3s5.2,3.3,6.5,6.1s1.4,6,0.3,8.9c-1.1,2.9-3.3,5.2-6.1,6.5
		C193,69.8,157.7,77.7,121.9,77.8L121.9,77.8z"/>
	<path d="M13.4,132.7c-5,0-9.5-3.2-11.1-8c-1.6-4.8,0.1-10.1,4.2-13l78-57.1c2.5-1.8,5.6-2.6,8.7-2.1s5.8,2.1,7.6,4.6
		c1.8,2.5,2.6,5.6,2.1,8.7s-2.1,5.8-4.6,7.6l-78,57.1l0,0C18.3,131.9,15.8,132.7,13.4,132.7L13.4,132.7z"/>
	<path d="M233.8,142.4c-2.7,0-5.3-0.9-7.4-2.7l-81.1-66.8c-2.4-2-3.9-4.8-4.2-7.9c-0.3-3.1,0.6-6.2,2.6-8.6s4.8-3.9,7.9-4.2
		s6.2,0.6,8.5,2.6l81.1,66.8l0,0c3.8,3.1,5.2,8.3,3.6,13C243.1,139.3,238.7,142.4,233.8,142.4L233.8,142.4z"/>
</g>
</svg>
