<?xml version="1.0" encoding="utf-8"?>
<!-- Generator: Adobe Illustrator 26.0.0, SVG Export Plug-In . SVG Version: 6.00 Build 0)  -->
<svg version="1.1" id="katman_1" xmlns="http://www.w3.org/2000/svg" xmlns:xlink="http://www.w3.org/1999/xlink" x="0px" y="0px"
	 viewBox="0 0 227 524.9" style="enable-background:new 0 0 227 524.9;" xml:space="preserve">
<g>
	<path d="M223.4,70.3l-8-36.2c-2.1-9.7-7.5-18.4-15.2-24.6c-7.8-6.2-17.4-9.6-27.3-9.5H53.8c-9.9,0-19.6,3.3-27.3,9.5
		c-7.8,6.2-13.1,14.9-15.2,24.6l-8,36.2C0.9,81.1-0.2,92.2,0,103.2l8.4,413.1c0.1,4.8,4,8.6,8.8,8.6h70c4.7,0,8.6-3.8,8.8-8.5
		l8.7-330l8.8-13.2l8.8,13.2l8.7,330c0.1,4.7,4,8.5,8.8,8.5h70c4.8,0,8.7-3.8,8.8-8.6l8.4-413.1l0,0C227,92.1,225.9,81.1,223.4,70.3
		L223.4,70.3z M122.1,61.1c5.9-0.1,11.7-0.4,17.5-0.8v35.8c0,3.7-1,7.2-2.9,10.4c-1.9,3.1-4.7,5.6-8,7.3l-6.6,3.3V61.1z M200.5,47.6
		l4.6,20.6l-9.7,6.5c-6.4,4.2-14.4,5.1-21.6,2.4c-7.1-2.8-12.5-8.8-14.4-16.3l-0.7-2.8C172.9,55.7,186.9,52.2,200.5,47.6L200.5,47.6
		z M53.8,17.4h119.1c4.6,0,9.2,1.2,13.2,3.6c4,2.3,7.3,5.7,9.6,9.8C171,39.4,145,43.7,118.8,43.7h-9.5c-25.4,0-50.6-4.1-74.6-12.1
		c-0.6-0.2-1.3-0.3-1.9-0.4L30.9,31l0,0c2.2-4.1,5.5-7.6,9.6-9.9S49.1,17.4,53.8,17.4L53.8,17.4z M30.1,48.5
		c12.4,4.1,25,7.2,37.9,9.3l-0.8,3.1l0,0c-1.9,7.4-7.2,13.5-14.4,16.3c-7.1,2.8-15.2,1.9-21.6-2.4l-9.7-6.5L26,48.2L30.1,48.5z
		 M25.6,507.4l-0.4-17.5h53.7l-0.5,17.5H25.6z M88.5,178.8L88.5,178.8c-0.9,1.4-1.4,3-1.5,4.6l-7.6,289H24.9l-7.5-369.6
		c-0.1-5.3,0.1-10.6,0.7-15.9l3.5,2.3l0,0c11.1,7.4,25.1,8.9,37.6,4.1C71.6,88.5,81,77.9,84.2,65l1.3-5c6.4,0.6,12.7,1,19.1,1.1
		v93.6l-0.4,0.6l-21-14l0,0c-4-2.6-9.4-1.5-12.1,2.5s-1.6,9.4,2.4,12.1l21,14L88.5,178.8z M139.6,183.4c0-1.6-0.6-3.2-1.5-4.6
		l-5.9-8.9l21-14l0,0c4-2.7,5.1-8.1,2.4-12.1s-8.1-5.1-12.1-2.5l-21,14l-0.4-0.6v-18.2l14.4-7.2c6.2-3.1,11.4-7.8,15-13.7
		c3.6-5.9,5.5-12.7,5.5-19.6v-8.6c6.8,5.3,15.1,8.3,23.7,8.6c8.6,0.3,17.1-2.1,24.3-6.9l3.5-2.3l0,0c0.6,5.3,0.8,10.6,0.7,15.9
		l-7.5,369.7h-54.5L139.6,183.4z M148.1,507.4l-0.5-17.5h53.7l-0.4,17.5H148.1z"/>
</g>
</svg>
