<?xml version="1.0" encoding="utf-8"?>
<!-- Generator: Adobe Illustrator 26.0.0, SVG Export Plug-In . SVG Version: 6.00 Build 0)  -->
<svg version="1.1" id="katman_1" xmlns="http://www.w3.org/2000/svg" xmlns:xlink="http://www.w3.org/1999/xlink" x="0px" y="0px"
	 viewBox="0 0 336.2 560" style="enable-background:new 0 0 336.2 560;" xml:space="preserve">
<g>
	<path d="M320.9,58.4V9.3c0-5.2-4.1-9.3-9.2-9.3H24.3c-5,0-9.2,4.1-9.2,9.3v49.1L0,550.5c-0.1,2.5,0.9,4.9,2.6,6.7
		c1.7,1.8,4.1,2.8,6.6,2.8h103.6c4.5,0,8.4-3.4,9.1-7.8l46.1-313l46.3,313c0.7,4.6,4.5,7.8,9.1,7.8H327c2.5,0,4.8-1,6.6-2.8
		c1.7-1.8,2.7-4.3,2.6-6.7L320.9,58.4z M302.8,67.8l2.9,93.7c-16.5-13-22.2-25.3-24.1-33c-1-4.7-2.8-36.8-3.8-60.7H302.8L302.8,67.8
		z M302.6,18.5v30.8H33.4V18.5H302.6z M33.2,67.8h25c-1,23.9-2.8,55.9-3.8,60.7c-1.9,7.7-7.6,20-24.1,33L33.2,67.8z M231.2,541.5
		l-54.1-366.4c-0.7-4.6-4.5-7.8-9.1-7.8s-8.4,3.4-9.1,7.8l-54.1,366.4H18.4l11-357c28.3-17.9,39-37.2,42.4-51.6
		c1.6-6.3,3.4-40.5,4.4-65.2h56.2v48.8c0,16.8,15.3,30.6,35.1,31.5h0.4c4.8,0,9-3.9,9.1-8.8c0.2-5.2-3.7-9.4-8.7-9.6
		c-9.5-0.4-17.6-6.4-17.6-12.9V67.8h108.8c1,24.5,2.8,58.8,4.4,65.2c3.6,14.4,14.1,33.7,42.4,51.6l11,357L231.2,541.5z"/>
	<path d="M179.5,110.8c0,5.7-4.5,10.3-10.1,10.3s-10.1-4.6-10.1-10.3c0-5.7,4.5-10.3,10.1-10.3S179.5,105.1,179.5,110.8"/>
	<path d="M179.5,85c0,5.7-4.5,10.3-10.1,10.3s-10.1-4.6-10.1-10.3c0-5.7,4.5-10.3,10.1-10.3S179.5,79.3,179.5,85"/>
</g>
</svg>
