<?xml version="1.0" encoding="utf-8"?>
<!-- Generator: Adobe Illustrator 26.0.0, SVG Export Plug-In . SVG Version: 6.00 Build 0)  -->
<svg version="1.1" id="katman_1" xmlns="http://www.w3.org/2000/svg" xmlns:xlink="http://www.w3.org/1999/xlink" x="0px" y="0px"
	 viewBox="0 0 234.9 501.9" style="enable-background:new 0 0 234.9 501.9;" xml:space="preserve">
<g>
	<path d="M8.8,501.9h78.5c4.5,0,8.3-3.4,8.7-7.9l21.4-231.9L138.9,494c0.4,4.5,4.2,7.9,8.7,7.9h78.5c4.8,0,8.8-3.9,8.8-8.8V8.8
		c0-4.8-3.9-8.8-8.8-8.8H8.8C4,0,0,3.9,0,8.8v484.4C0,498,3.9,501.9,8.8,501.9L8.8,501.9z M217.3,94.4c-19-4-33.3-20.9-33.3-41.1
		c0-2.5,0.3-5,0.7-7.4h32.6L217.3,94.4z M17.5,17.6h199.8v10.9H17.5V17.6z M17.5,46h32.6c0.4,2.4,0.7,4.9,0.7,7.4
		c0,20.2-14.3,37-33.3,41.1L17.5,46z M17.5,112.2c28.7-4.3,50.8-29,50.8-58.8c0-2.5-0.3-4.9-0.6-7.4H167c-0.3,2.4-0.6,4.9-0.6,7.4
		c0,29.8,22.1,54.5,50.8,58.8v372.3h-61.7l-29.4-318c-0.4-4.5-4.2-7.9-8.7-7.9s-8.3,3.4-8.7,7.9l-29.4,318H17.6L17.5,112.2
		L17.5,112.2z"/>
</g>
</svg>
