<?xml version="1.0" encoding="utf-8"?>
<!-- Generator: Adobe Illustrator 26.0.0, SVG Export Plug-In . SVG Version: 6.00 Build 0)  -->
<svg version="1.1" id="katman_1" xmlns="http://www.w3.org/2000/svg" xmlns:xlink="http://www.w3.org/1999/xlink" x="0px" y="0px"
	 viewBox="0 0 288.9 500.4" style="enable-background:new 0 0 288.9 500.4;" xml:space="preserve">
<g>
	<path d="M280,454.8h-0.6L258.6,8.3c-0.2-4.7-4.1-8.3-8.7-8.3H41c-4.7,0-8.5,3.7-8.7,8.3L11.5,454.8H8.8c-4.8,0-8.8,3.9-8.8,8.8v28
		c0,4.8,3.9,8.8,8.8,8.8h103.9c4.8,0,8.8-3.9,8.8-8.8v-28c0-4-2.8-7.3-6.5-8.3l30.4-217l30.5,216.5c-4.7,0.1-8.5,3.9-8.5,8.7v28
		c0,4.8,3.9,8.8,8.8,8.8h103.9c4.8,0,8.8-3.9,8.8-8.8v-28C288.7,458.7,284.8,454.8,280,454.8L280,454.8z M244,71.5
		c-14.9-2.2-27.3-12.7-32-26.8h30.8L244,71.5z M49.4,17.4h192.2l0.5,9.8H49L49.4,17.4z M48.1,44.7h30.8c-4.8,14.1-17.1,24.5-32,26.8
		L48.1,44.7z M103.9,482.8H17.5v-10.5h1.8c0,0,0,0,0.1,0h0.1h84.4L103.9,482.8z M158,201.8c-0.6-4.3-4.3-7.5-8.7-7.5h-7.7
		c-4.4,0-8.1,3.2-8.7,7.5l-35.6,253H29L46,89.3c24.9-2.2,45.6-20.5,51.1-44.6h96.7c5.5,24.1,26.2,42.4,51.1,44.6l17,365.5h-68.3
		L158,201.8z M271.2,482.8h-86.4v-10.5h86.1h0.1h0.2L271.2,482.8z"/>
</g>
</svg>
