<?xml version="1.0" encoding="utf-8"?>
<!-- Generator: Adobe Illustrator 26.0.0, SVG Export Plug-In . SVG Version: 6.00 Build 0)  -->
<svg version="1.1" id="katman_1" xmlns="http://www.w3.org/2000/svg" xmlns:xlink="http://www.w3.org/1999/xlink" x="0px" y="0px"
	 viewBox="0 0 235 502" style="enable-background:new 0 0 235 502;" xml:space="preserve">
<g>
	<path d="M226.2,0H8.8C4,0,0,3.9,0,8.8v484.4c0,4.8,3.9,8.8,8.8,8.8h78.5c4.5,0,8.3-3.4,8.7-7.9l21.5-231.8L139,493.9
		c0.4,4.5,4.2,7.9,8.7,7.9h78.5c4.8,0,8.8-3.9,8.8-8.8V8.7C234.9,3.9,231,0,226.2,0L226.2,0z M17.6,45.9h32.7
		c0.4,2.4,0.7,4.9,0.7,7.4c0,20.2-14.3,37.1-33.4,41.1L17.6,45.9z M217.4,484.4h-61.8l-25.4-274.2c-0.4-4.5-4.2-7.9-8.7-7.9h-8
		c-4.5,0-8.3,3.4-8.7,7.9L79.4,484.4H17.6V112.1c28.7-4.2,50.9-29,50.9-58.8c0-2.5-0.3-4.9-0.6-7.4h30v120c0,4.8,3.9,8.8,8.8,8.8
		h21.9c4.8,0,8.8-3.9,8.8-8.8v-120h30c-0.3,2.4-0.6,4.9-0.6,7.4c0,29.9,22.1,54.6,50.9,58.8L217.4,484.4z M115.3,157.1V45.9h4.4
		v111.2H115.3L115.3,157.1z M217.4,94.3c-19-4-33.4-20.9-33.4-41.1c0-2.5,0.3-5,0.7-7.4h32.7L217.4,94.3z M217.4,28.4H17.6V17.5
		h199.9v10.9H217.4z"/>
</g>
</svg>
