<?xml version="1.0" encoding="utf-8"?>
<!-- Generator: Adobe Illustrator 26.0.0, SVG Export Plug-In . SVG Version: 6.00 Build 0)  -->
<svg version="1.1" id="katman_1" xmlns="http://www.w3.org/2000/svg" xmlns:xlink="http://www.w3.org/1999/xlink" x="0px" y="0px"
	 viewBox="0 0 369.6 504" style="enable-background:new 0 0 369.6 504;" xml:space="preserve">
<g>
	<path d="M168.6,303.9c-4.9,33.4-28,166.2-56.5,183.4l-1.5,12.2c-0.4,2.6-2.7,4.5-5.3,4.5c-33.9-0.2-67-5.9-98.4-19.1
		c-2.6-1-3.8-3.9-2.8-6.5L9,465C-8.4,415.9,0.7,188.1,24.8,90.2C30,69.2,36.8,48,46,25.6c-0.1-4.2-0.6-8.3-0.6-12.5
		c0-5.4,1.1-14,8.6-13c7.6,0.5,17.7,2,29.3,3.6c70.8,9.9,131.7,10.4,202.8,0.1c11.8-1.7,21.7-3.2,29.6-3.7
		c11.4-0.5,7.9,17.9,7.7,25.5c9.2,22.3,16,43.6,21.1,64.6c24.3,98.2,33.6,325,15.8,374.8l5,13.4c1,2.7-0.5,5.6-3.2,6.6
		c-35.5,12.6-60.1,18.8-98.2,19c-2.7,0-4.9-2-5.2-4.5l-1.6-12.2c-28.4-17.2-51.5-150-56.5-183.4C194.8,262.7,175,261.3,168.6,303.9
		L168.6,303.9z M193,92.3c4.7,4.5,4.7,12,0,16.6c-4.5,4.5-11.9,4.5-16.6,0c-4.5-4.5-4.5-12,0-16.6C181.1,87.9,188.4,87.9,193,92.3z
		 M187.3,98c-1.5-1.3-3.8-1.3-5.2,0c-1.3,1.3-1.3,3.7,0,5c1.3,1.5,3.7,1.5,5.2,0C188.7,101.7,188.7,99.4,187.3,98z M351.7,471.2
		c-28,7.4-55,13.1-83.8,16.9l0.7,5.3c29.2-0.6,58.1-5.5,85.3-16.3L351.7,471.2z M262.6,478.5c30.4-3.9,58.7-9.9,88.4-17.8
		c13.1-36.9,5.6-149,3.6-198.5c-60.8,10.2-61.5-19.1-60.1-66.5c0.2-6.4,0.4-13.3,0.4-21.2c-1.8-5.8-3.2-12.6-3.2-18.8
		c0-2.8,2.2-5,5-5.2c16.1-2.1,32.2-2.3,48.2-4c-2.6-18-5.8-36-10.3-54c-4.8-19.5-11-39.4-19.5-60.1c-33.8,6.4-66.6,10.1-101,12.3
		v75.8c0,6.4-7.1,9.3-12.5,9.3h-33.4c-5.4,0-12.6-2.8-12.6-9.3V44.6c-34.4-2.2-67.1-5.9-101-12.3C46.3,53,40,72.9,35.1,92.4
		c-4.4,18-7.7,36-10.3,54c16.1,1.7,32.3,2,48.4,4c2.7,0.1,4.9,2.3,4.9,5.2c0,6.1-1.2,13-3.2,18.8c0,8,0.2,14.9,0.4,21.2
		c1.3,47.4,0.6,76.7-60.1,66.5c-2,48.2-8.7,163.7,3.7,198.4c29.7,7.9,57.8,13.9,88.4,17.8c22-9.1,47.6-150.7,51.4-176.1
		c8.1-55.1,44.9-53,52.8,0C214.8,327.8,240.6,469.4,262.6,478.5L262.6,478.5z M348.2,174l-43.1,4.3c-0.1,5.9-0.2,11.9-0.4,17.8
		c-1.2,41-3.6,64.8,49.3,55.7C352.9,225.3,351.1,199.2,348.2,174L348.2,174z M303.7,168l43.4-4.2c-0.4-2.3-0.6-4.7-0.9-7
		c-14.7,1.6-29.5,1.8-44.1,3.4C302.5,162.8,303.1,165.5,303.7,168L303.7,168z M214,34.2c33.8-2.1,66-5.8,99.2-12
		c0.1-5.3-0.2-11.7-0.6-11.7c-7.1,0.5-14.9,2-24.9,3.4c-20.5,2.9-46.3,6.6-73.6,7.6L214,34.2z M155.4,34.2V21.4
		c-27-1.1-52.9-4.7-73.4-7.6c-11.5-1.6-18.4-2.8-25.8-3.3c0,4.8,0,10.4,0.1,11.4C89.9,28.3,121.4,32.1,155.4,34.2L155.4,34.2z
		 M165.9,21.7V119c2.7,1,35.7,0.7,37.8,0V21.7C191,21.8,178.4,21.8,165.9,21.7z M101.6,488.2c-28.7-3.8-55.7-9.6-83.8-16.9l-2.2,5.9
		C43,488,71.8,492.9,101,493.5L101.6,488.2z M22.4,163.8l43.3,4.2c0.7-2.5,1.2-5.2,1.5-7.7c-14.6-1.6-29.3-1.8-43.9-3.4
		C22.9,159.1,22.6,161.5,22.4,163.8L22.4,163.8z M64.4,178.3L21.2,174c-2.7,25.2-4.5,51.3-5.8,77.8c52.8,9.1,50.4-14.7,49.3-55.7
		C64.6,190.2,64.4,184.2,64.4,178.3L64.4,178.3z"/>
</g>
</svg>
