<svg xmlns="http://www.w3.org/2000/svg" viewBox="0 0 267.12 378.9"><g id="katman_2" data-name="katman 2"><g id="katman_1-2" data-name="katman 1"><path d="M133.19,185c-.57,6.27-1.17,12.53-1.7,18.81Q125.34,277,119.22,350.26c-.48,5.73-1,11.46-1.46,17.19-.64,7.71-4.38,11.39-12,11.41q-47.07.08-94.15,0c-8.08,0-12.24-4.47-11.5-12.67,1.69-18.67,3.57-37.32,5.5-56,2.33-22.5,4.61-45,7.24-67.48q6-51.57,12.55-103.08C29,111.37,34.16,83.38,43.51,56.34q4.4-12.73,9.55-25.21a27.81,27.81,0,0,0,2.5-12.68,73.25,73.25,0,0,1,0-8.25A10.19,10.19,0,0,1,65.22.12C66.34,0,67.47,0,68.59,0,112,0,155.36,0,198.75.12a19.52,19.52,0,0,1,9.38,2.73c3.06,1.81,3.86,5.44,3.54,9-.82,8.81,1.38,16.83,4.78,25,12.12,29.1,19.58,59.54,23.62,90.74q8.63,66.73,16.34,133.59c3.93,34.26,7.15,68.62,10.57,102.94a21,21,0,0,1-.67,8.45c-1.45,4.37-5.15,6.32-9.67,6.32q-48,.06-96,0c-6.69,0-10.48-3.81-11.09-10.73-1.35-15.19-2.58-30.39-3.86-45.59q-3.28-38.86-6.58-77.73-2.4-28.58-4.77-57.18c-.07-.86-.18-1.72-.27-2.57Zm.69-176H69.75c-5.22,0-5,0-5.29,5.38-.3,5.54.09,11.55-1.91,16.51A402,402,0,0,0,45.07,83c-10.51,41.44-14.21,84-19.42,126.2-3.22,26.17-5.89,52.41-8.65,78.63-2.73,25.85-5.22,51.72-7.95,77.57-.36,3.49.62,4.52,4.15,4.51q45.39-.18,90.76,0c3.88,0,4.72-1.34,5-4.93,1.91-24.8,4.07-49.58,6.17-74.36q3.21-37.92,6.46-75.84,3.27-38.49,6.56-77c.4-4.6,2.24-6.64,5.55-6.57s5,2.07,5.34,6.4q4.4,50.81,8.71,101.61,5.37,63.52,10.63,127.05c.2,2.42.92,3.57,3.57,3.56q46.5-.09,93,0c2.68,0,3.53-.92,3.23-3.54-.81-7.08-1.46-14.17-2.19-21.26-3.34-32.57-6.37-65.18-10.12-97.7q-6.88-59.57-14.8-119c-4.16-31.31-11.78-61.83-24-91-3.25-7.73-5.11-15.34-4.31-23.58.37-3.77-.85-4.92-4.72-4.88C176.63,9.11,155.26,9,133.88,9Z"/><path d="M117.11,31.14H96.59c-.82,3.44.94,8.94-5,8.7-5.19-.22-4-5-4.56-8.83-4.51,0-9,0-13.46,0-4,0-6-1.63-6-4.58s2-4.39,6.1-4.41c4.36,0,8.71,0,13.16,0,1.28-3.68-1.32-9.75,5.09-9.69,6.24.06,3.6,5.9,4.7,9.47h73.94c1.28-3.42-1.63-9.6,4.95-9.46,6.12.13,3.75,5.87,4.79,9.69,4.65,0,9.24,0,13.84,0,3,0,5.2,1,5.49,4.26.26,2.86-1.84,4.68-5.45,4.74-4.6.07-9.2,0-14,0-.61,3.83.63,9.06-5.16,8.82-5-.21-3.87-4.87-4.27-8.49H150.09V84.22c0,1.13.38,2.61-.18,3.3-1.2,1.48-2.92,3.53-4.4,3.51s-3.17-2.1-4.26-3.64c-.6-.84-.16-2.43-.16-3.68V31.31H126.27c0,1.21-.16,2.42-.16,3.63,0,18,.1,36-.09,54,0,3.75,1.2,4.84,4.71,4.51a62.92,62.92,0,0,1,8.24,0c3.25.12,5.36,2.07,5.07,4.74-.32,3-2.23,4.28-5.16,4.25-3.38,0-6.75,0-10.13,0-7.43-.07-11.61-4.19-11.62-11.64,0-18.39,0-36.77,0-55.15Z"/><path d="M214.63,354.17c0,2.62-1.14,4.72-4.22,4.9s-4.49-1.69-4.8-4.59q-3.74-35.22-7.49-70.44-4-37.28-7.92-74.54-3.64-34.49-7.25-69c-.32-3.09.25-5.69,3.85-6.06s4.77,2.09,5.09,5.13q3.13,29.63,6.25,59.27,3.95,37.26,7.92,74.54,3.91,36.9,7.81,73.8C214.11,349.45,214.36,351.69,214.63,354.17Z"/><path d="M84,143.64c-2.47,23.11-5.19,48.45-7.87,73.8q-3.94,37.08-7.83,74.17Q65,322.92,61.63,354.23c-.32,3-1.66,5-5,4.85-2.84-.12-4.37-2.39-4-6q2.69-25.72,5.47-51.43l7.92-74.54q4-37.28,7.91-74.55c.43-4,.8-7.95,1.21-11.93.47-4.6,2.17-6.55,5.33-6.17C83.47,134.79,84.53,136.82,84,143.64Z"/></g></g></svg>