<?xml version="1.0" encoding="utf-8"?>
<!-- Generator: Adobe Illustrator 26.0.0, SVG Export Plug-In . SVG Version: 6.00 Build 0)  -->
<svg version="1.1" id="katman_1" xmlns="http://www.w3.org/2000/svg" xmlns:xlink="http://www.w3.org/1999/xlink" x="0px" y="0px"
	 viewBox="0 0 280 559.1" style="enable-background:new 0 0 280 559.1;" xml:space="preserve">
<style type="text/css">
	.st0{fill-rule:evenodd;clip-rule:evenodd;}
</style>
<g>
	<path class="st0" d="M130.6,28v507.2c-1.2,0.5-2.6,0.9-4.2,1.4c-11,3.5-22.3,4.8-32.4,2.8c-4-0.8-7.8-2.1-11.3-4
		c-0.4-1.6-0.9-3.7-1.5-6.1c-1.8-7.8-3.6-16.5-5.3-26c-5.4-30.1-8.4-60.4-7.6-88.4c0.5-17.8,2.4-34.1,6-48.6
		c0.5-2.2,0.3-4.4-0.7-6.4c-0.4-0.8-1.2-2.5-2.3-4.8c-1.9-3.9-4-8.4-6.3-13.4c-6.5-14.2-13-29.5-19-45.1
		c-6.3-16.2-11.7-31.9-16.1-46.7c-7.3-24.9-11.3-46.3-11.3-63.1c0-17.3,2-39.1,5.7-64.4c2.2-14.9,4.9-30.7,8.1-47
		c3-15.7,6.3-31,9.6-45.3c0.8-3.4,1.5-6.5,2.2-9.4C69.7,26.2,93.3,27.8,130.6,28L130.6,28z M49.6,414.4c-0.8,29.5,2.3,61,7.9,92.2
		c1.8,9.8,3.6,18.8,5.5,26.9c0.7,2.8,1.3,5.4,1.8,7.6c0.3,1.3,0.6,2.3,0.7,2.8c0.6,2.2,1.9,4.1,3.8,5.3c6.4,4.2,13.4,7.1,20.9,8.6
		c13.7,2.7,27.9,1.1,41.7-3.3c5.4-1.7,9.6-3.5,12.1-4.7c3.2-1.6,5.2-4.8,5.2-8.3V18.7c0-5.2-4.2-9.3-9.3-9.3
		C94,9.4,69.1,7.7,39.5,0.3c-5-1.2-10.1,1.8-11.3,6.8C28,8,27.6,9.7,27,12.1c-1,4-2,8.6-3.2,13.7c-3.3,14.5-6.6,30-9.7,45.9
		c-3.2,16.6-6,32.6-8.2,47.9C2.1,145.7,0,168.3,0,186.7c0,18.9,4.3,41.9,12.1,68.4c4.5,15.4,10.1,31.5,16.6,48.2
		c6.2,16,12.8,31.6,19.5,46.1c2.3,5.1,4.5,9.7,6.4,13.8c0.4,0.7,0.7,1.4,1,2C51.9,380.1,50.1,396.6,49.6,414.4L49.6,414.4z"/>
	<path class="st0" d="M84.3,19.3c2.1-5.7-1.7-11.9-7.7-12.5C63.4,5.3,51.1,3.3,39.5,0.4c-5-1.3-10.1,1.7-11.3,6.7
		C28,8,27.6,9.7,27,12.1c-1,4-2,8.6-3.2,13.7c-3.3,14.5-6.6,30-9.7,46c-2.9,15-5.5,29.6-7.6,43.6c-1.3,8.5,8.6,14.1,15.2,8.6
		c25.6-21.3,60.6-76.5,62.2-103.5L84.3,19.3z M30.1,87.4c0.7-4,1.5-8,2.3-12.1c3-15.7,6.3-31,9.6-45.4c0.8-3.4,1.5-6.5,2.2-9.4
		c6.6,1.4,13.4,2.6,20.5,3.5C61.4,39.8,46,66.7,30.1,87.4L30.1,87.4z"/>
	<path class="st0" d="M225.4,363.2c1.9-4,4.1-8.7,6.4-13.8c6.6-14.6,13.3-30.1,19.5-46.1c6.4-16.7,12.1-32.8,16.6-48.2
		c7.8-26.5,12.1-49.5,12.1-68.4c0-18.3-2.1-41-5.9-67.1c-2.2-15.2-5-31.3-8.2-47.9c-3.1-15.9-6.4-31.4-9.7-45.9
		c-1.2-5.1-2.2-9.7-3.2-13.7c-0.6-2.4-1-4.1-1.2-5c-1.2-5-6.3-8-11.3-6.8c-29.8,7.4-54.7,9.1-100.6,9.1c-5.2,0-9.3,4.2-9.3,9.3
		v522.7c0,3.5,2,6.8,5.2,8.3c2.5,1.2,6.6,3,12.1,4.7c13.8,4.4,28,6,41.7,3.3c7.5-1.5,14.5-4.3,20.9-8.6c1.9-1.2,3.2-3.1,3.8-5.3
		c0.1-0.5,0.4-1.4,0.7-2.8c0.6-2.2,1.2-4.7,1.8-7.6c1.9-8.1,3.8-17.1,5.5-26.9c5.6-31.2,8.7-62.7,7.9-92.2
		c-0.5-17.8-2.3-34.3-5.8-49.2C224.7,364.6,225,363.9,225.4,363.2L225.4,363.2z M237.8,30c3.3,14.3,6.5,29.6,9.6,45.3
		c3.2,16.3,5.9,32.1,8.1,47c3.7,25.3,5.7,47.1,5.7,64.4c0,16.8-4,38.2-11.3,63.1c-4.4,14.8-9.8,30.5-16.1,46.7
		c-6.1,15.6-12.5,30.9-19,45.1c-2.3,5-4.4,9.5-6.3,13.4c-1.1,2.3-1.9,4-2.3,4.8c-1,2-1.2,4.3-0.7,6.4c3.6,14.4,5.6,30.7,6,48.6
		c0.7,28.1-2.2,58.4-7.6,88.4c-1.7,9.5-3.5,18.2-5.3,26c-0.6,2.4-1,4.4-1.5,6.1c-3.5,1.9-7.3,3.2-11.3,4c-10.1,2-21.4,0.7-32.4-2.8
		c-1.5-0.5-2.9-1-4.2-1.4V28c37.2-0.2,60.8-1.8,86.4-7.4C236.4,23.5,237.1,26.6,237.8,30L237.8,30z"/>
	<path class="st0" d="M235.7,20.6c0.7,2.9,1.4,6.1,2.2,9.4c3.3,14.3,6.5,29.6,9.6,45.4c0.8,4.1,1.5,8.1,2.3,12.1
		c-15.9-20.7-31.2-47.6-34.5-63.3C222.2,23.1,229,22,235.7,20.6L235.7,20.6z M258.1,124c6.6,5.5,16.5-0.1,15.2-8.6
		c-2.1-14-4.7-28.6-7.6-43.6c-3.1-15.9-6.4-31.5-9.7-46c-1.2-5.1-2.2-9.7-3.2-13.7c-0.6-2.4-1-4.1-1.2-5c-1.2-5-6.3-8-11.3-6.8
		c-11.6,2.9-23.8,5-37.1,6.4c-6,0.7-9.8,6.8-7.7,12.5l0.5,1.2C197.5,47.5,232.6,102.7,258.1,124L258.1,124z"/>
	<path class="st0" d="M93.2,93.4c0,25.8,20.9,46.7,46.7,46.7c5.2,0,9.3-4.2,9.3-9.3v-112c0-5.2-4.2-9.3-9.3-9.3
		c-16.3,0-25.8-0.1-36.9-0.6c-5.3-0.2-9.7,4-9.7,9.3L93.2,93.4z M130.6,28.1v91.8c-10.9-3.8-18.7-14.2-18.7-26.4V27.8
		C117.6,27.9,123.4,28,130.6,28.1L130.6,28.1z"/>
</g>
</svg>
