<svg xmlns="http://www.w3.org/2000/svg" viewBox="0 0 129.92 345.52"><g id="katman_2" data-name="katman 2"><g id="katman_1-2" data-name="katman 1"><path d="M116.21,0c1,1.42,2.48,2.71,2.93,4.29,7.1,25.2,12.23,50.79,10.41,77.08-1,14.28-3.85,28.46-6.29,42.62-3.59,20.91-8.28,41.66-11.09,62.67-1.62,12.13-.94,24.66-.44,37,.76,18.75-.22,37.22-4.88,55.5-4.43,17.42-5.29,35.3-5.47,53.19-.07,7.35-2.83,10.86-10,12.44a24.07,24.07,0,0,1-16.12-1.54c-3.85-1.87-6-4.83-5.72-9.4.38-7.4.77-14.83.67-22.24-.17-12.92-.74-25.83-1.07-38.75-.18-7.18-.5-14.39-.25-21.57.7-19.56,0-39.08-1-58.62-1.17-22.9-1.51-45.84-2.22-68.76,0-1.61-.14-3.22-.22-4.83h-.85c-.08,1.5-.19,3-.23,4.49-.69,22.7-.64,45.45-2.25,68.08-1.88,26.3.09,52.61-1.33,78.84-1.14,20.93-1.14,41.79-.33,62.68.2,5.12-1.83,8.46-6.34,10.36a23.63,23.63,0,0,1-19.61-.21,9.36,9.36,0,0,1-6-9.28,263,263,0,0,0-7.71-65.42C17.35,255,17.49,241,18,227c.33-8.08.77-16.17,1-24.26.35-14.51-3.28-28.51-5.74-42.65C9,135.53,4.15,111.06.77,86.38-.72,75.5.26,64.17,1.11,53.11c1.27-16.26,4.81-32.18,9.3-47.86C11,3.35,12.54,1.74,13.64,0h2.7C20,1.11,23.49,2.66,27.18,3.24A233.56,233.56,0,0,0,98,3.85c5.24-.77,10.34-2.54,15.51-3.85ZM10,47c-2,7.45-3.14,28.88-1.36,39.86,3.58,22,7.17,44.11,11.53,66,4.95,24.78,8.27,49.51,5.92,74.91A132.11,132.11,0,0,0,30,273.57c4.88,18.6,6.18,37.63,6.54,56.76.11,5.86,1,6.85,7,7a31.35,31.35,0,0,0,5-.41c2.88-.38,4-1.78,3.9-5q-.41-25.1-.25-50.21c.07-14.26.48-28.52.64-42.78.07-6.06-.32-12.14-.1-18.2.88-23.69,1.8-47.38,2.94-71.07.91-19.18,2.14-38.35,3.26-57.52.11-1.85.42-3.7.62-5.43-.43-.19-.54-.27-.62-.26l-6.67.92c-2.89.4-5.14-.87-5.36-3.23-.25-2.73,1.32-4.14,3.89-4.57C54,79,57.32,78.52,60.7,78V26.16c-5.58,0-11,.16-16.35-.07-2.27-.1-3.3.27-4.05,2.64-2.38,7.55-7.44,12.84-15,15.1C20.35,45.28,15.21,45.93,10,47ZM70.38,86.35c0,1,.05,1.63.1,2.27,1.11,14.11,2.57,28.2,3.25,42.32,1,19.87,1.39,39.76,1.91,59.64q.75,28.47,1.2,56.93c.11,6.29-.57,12.63,0,18.87a518.31,518.31,0,0,1,.86,63.67c-.25,6.13.84,7.21,7.18,7.3a29,29,0,0,0,4.36-.33c2.94-.41,4.24-1.78,4.25-5.14.06-18,.91-36,5.39-53.51,4.75-18.52,5.71-37.18,4.85-56.15-.53-11.75-1.3-23.75.39-35.28,3.83-26.09,9-52,13.84-77.91,3.39-18.32,5.35-36.66,3-55.29-.9-7.15-.72-7-7.66-7.83-11.56-1.35-20.52-6.28-24.17-18.24A2.85,2.85,0,0,0,87,26.14a34.3,34.3,0,0,0-5.25.34V29.6c0,8.43.09,16.86,0,25.29s-3.13,15-11.09,18.93c-1,.51-1.45,2.35-2.4,4,4.36.7,7.68,1.19,11,1.77,2.57.45,4.22,2,3.72,4.65s-2.51,3.56-5.1,3.2C75.53,87.13,73.2,86.77,70.38,86.35ZM32.92,25.21,14.35,22c-1.06,5.45-2.08,10.73-3.12,16.09C22.71,38.53,30.8,33.64,32.92,25.21Zm64,0c2.11,8.48,11.74,14.14,21.7,12.63-1.07-5.31-2.13-10.6-3.18-15.83ZM16.33,13.94c14.65,3.7,29.4,4.35,44.33,4.81V14.89L17.31,10.15Zm96.22-3.78L69.14,14.88v3.9c15-.54,29.73-1.11,44.38-4.84ZM69.1,65.35c3.55-2.7,4.54-6,4.58-9.71.09-9.09,0-18.17,0-27.25a7.13,7.13,0,0,0-.41-1.62L69.1,27Z"/></g></g></svg>