<?xml version="1.0" encoding="utf-8"?>
<!-- Generator: Adobe Illustrator 26.0.0, SVG Export Plug-In . SVG Version: 6.00 Build 0)  -->
<svg version="1.1" id="katman_1" xmlns="http://www.w3.org/2000/svg" xmlns:xlink="http://www.w3.org/1999/xlink" x="0px" y="0px"
	 viewBox="0 0 385.1 525.1" style="enable-background:new 0 0 385.1 525.1;" xml:space="preserve">
<g>
	<path d="M385.1,516.4V8.8c0-2.3-0.9-4.5-2.6-6.2S378.6,0,376.3,0H8.8C4,0,0,3.9,0,8.8v507.5c0,2.3,0.9,4.5,2.6,6.2s3.9,2.6,6.2,2.6
		h140c4.5,0,8.3-3.4,8.8-7.9l28.4-307h13.2l28.4,307c0.4,4.5,4.2,8,8.8,7.9h140c2.3,0,4.5-0.9,6.2-2.6S385.1,518.7,385.1,516.4
		L385.1,516.4z M315.1,350.1h52.5v35h-52.5V350.1z M332.6,52.6h35v51.6c-9.9-2-18.8-7.4-25.1-15.2c-6.4-7.8-9.9-17.6-9.9-27.7V52.6z
		 M367.6,332.6h-52.5v-17.5h52.5V332.6z M17.6,17.6h350v17.5h-350V17.6z M183.8,52.6h17.5v43.8c0,5.4-1.7,10.7-4.8,15.2
		c-3.1,4.4-7.6,7.8-12.7,9.6V52.6z M17.6,350.1h52.5v35H17.6V350.1z M70.1,332.6H17.6v-17.5h52.5V332.6z M17.6,52.6h35v8.8
		c0,10.1-3.5,19.9-9.9,27.7s-15.2,13.2-25.1,15.2V52.6z M244.3,507.6l-28.4-307c-0.4-4.5-4.2-8-8.8-7.9H178c-4.5,0-8.3,3.4-8.8,7.9
		l-28.4,307H17.6v-105h61.2c2.3,0,4.5-0.9,6.2-2.6s2.6-3.9,2.6-6.2v-87.5c0-2.3-0.9-4.5-2.6-6.2s-3.9-2.6-6.2-2.6H17.6V121.9
		c14.6-2.1,27.9-9.4,37.5-20.5s15-25.3,15-40v-8.8h96.2v78.8c0,2.3,0.9,4.5,2.6,6.2s3.9,2.6,6.2,2.6c11.6,0,22.7-4.6,30.9-12.8
		c8.2-8.2,12.8-19.3,12.8-30.9V52.6H315v8.8c0,14.7,5.3,28.9,15,40c9.6,11.1,23,18.4,37.5,20.5v175.7h-61.2c-4.8,0-8.8,3.9-8.8,8.8
		v87.5c0,2.3,0.9,4.5,2.6,6.2s3.9,2.6,6.2,2.6h61.3v105L244.3,507.6L244.3,507.6z"/>
</g>
</svg>
