<?xml version="1.0" encoding="utf-8"?>
<!-- Generator: Adobe Illustrator 26.0.0, SVG Export Plug-In . SVG Version: 6.00 Build 0)  -->
<svg version="1.1" id="katman_1" xmlns="http://www.w3.org/2000/svg" xmlns:xlink="http://www.w3.org/1999/xlink" x="0px" y="0px"
	 viewBox="0 0 284.1 432.6" style="enable-background:new 0 0 284.1 432.6;" xml:space="preserve">
<g>
	<path d="M276.6,163.1c0-0.1,0-0.1,0-0.2l-12-138.1l0,0l-1.7-19.1c-0.3-3.2-3-5.7-6.2-5.7H27.5c-3.2,0-5.9,2.5-6.2,5.7L7.6,162.9
		c0,0.1,0,0.1,0,0.1L0,250.3v176.1c0,3.4,2.8,6.2,6.2,6.2h110.7c3.4,0,6.2-2.8,6.2-6.2V250.9l8-81.6h22l7.9,81v176.1
		c0,1.7,0.7,3.2,1.8,4.4c1.2,1.2,2.7,1.6,4.4,1.8l110.7-0.5c3.4,0,6.2-2.8,6.2-6.2V249.8L276.6,163.1z M263.4,153.9
		c-23.5-11.4-38.8-35.3-38.8-62.1c0-22.4,10.7-43,28.5-55.9L263.4,153.9z M148.3,12.5H251l0.8,9.4c-6.2,3.7-11.8,8.2-16.7,13.2
		h-86.8V12.5z M33.2,12.5h102.7v22.7H49.1c-4.9-5.1-10.5-9.5-16.7-13.2L33.2,12.5z M31.1,35.9c17.8,12.9,28.5,33.5,28.5,55.9
		c0,26.8-15.3,50.6-38.8,62.1L31.1,35.9z M271.8,419.7l-98.3,0.4V249.7l-8.5-87.2c-0.3-3.2-3-5.6-6.2-5.6h-33.3
		c-3.2,0-5.9,2.4-6.2,5.6l-8.5,87.8v169.8H12.5V250.8l7.2-82.9c31.5-12,52.5-42,52.5-76.1c0-16-4.7-31.3-13.1-44.3h166.2
		c-8.4,12.9-13.1,28.2-13.1,44.3c0,34.1,20.9,64.1,52.5,76.1l7.2,82.3L271.8,419.7z"/>
</g>
</svg>
