<?xml version="1.0" encoding="utf-8"?>
<!-- Generator: Adobe Illustrator 26.0.0, SVG Export Plug-In . SVG Version: 6.00 Build 0)  -->
<svg version="1.1" id="katman_1" xmlns="http://www.w3.org/2000/svg" xmlns:xlink="http://www.w3.org/1999/xlink" x="0px" y="0px"
	 viewBox="0 0 283.7 471.9" style="enable-background:new 0 0 283.7 471.9;" xml:space="preserve">
<g>
	<path d="M6.2,432.6H11v33.1c0,3.4,2.8,6.2,6.2,6.2h92c3.4,0,6.2-2.8,6.2-6.2v-33.1h1.5c0.9,0,1.8-0.2,2.6-0.6
		c0.2-0.1,0.4-0.3,0.6-0.4c0.6-0.4,1.1-0.8,1.5-1.3c0.1-0.1,0.2-0.2,0.3-0.3c0.1-0.2,0.1-0.4,0.2-0.6c0.2-0.4,0.4-0.8,0.5-1.2
		c0.1-0.4,0.2-0.8,0.2-1.2c0-0.2,0.1-0.4,0.1-0.6V250.9l7.9-81.6h22l7.9,81v176.1c0,0.2,0.1,0.4,0.1,0.6c0,0.4,0.1,0.8,0.2,1.2
		c0.1,0.4,0.3,0.8,0.5,1.1c0.1,0.2,0.1,0.4,0.3,0.6c0.1,0.1,0.2,0.2,0.3,0.3c0.1,0.2,0.2,0.4,0.4,0.5c0.3,0.3,0.7,0.5,1.1,0.7
		c0.2,0.1,0.4,0.3,0.7,0.4c0.8,0.4,1.7,0.6,2.6,0.6l0,0h1.4v33.1c0,3.4,2.8,6.2,6.2,6.2h92c3.4,0,6.2-2.8,6.2-6.2v-33.6h4.8
		c3.4,0,6.2-2.8,6.2-6.2V249.6L262.9,5.7c-0.3-3.2-3-5.7-6.2-5.7H27.5c-3.2,0-5.9,2.5-6.2,5.7L0,250.3v176.1
		C0,429.8,2.8,432.6,6.2,432.6L6.2,432.6z M12.4,420.2v-59.7l84.9,59.7H12.4z M103,459.5H23.4v-26.9H103V459.5z M110.7,414.4
		l-94.5-66.5l94.5-83.8V414.4z M173.5,414.4V264.1l94.5,83.8L173.5,414.4z M260.8,459.5h-79.6v-27l79.6-0.4V459.5z M271.8,419.7
		l-84.7,0.4l84.7-59.6V419.7z M271.8,250.3v84.3l-95.2-84.4l60.8-56.5h29.5L271.8,250.3z M265.7,181.3h-27.3l-37.3-64.5l37.3-64.5
		h16L265.7,181.3z M174.3,12.5H251l1,11.7h-77.7V12.5z M122.3,12.5h39.5v46.4h-39.5V12.5z M33.2,12.5h76.7v11.7H32.2L33.2,12.5z
		 M31.1,36.6h78.8v28.5c0,3.4,2.8,6.2,6.2,6.2h52c3.4,0,6.2-2.8,6.2-6.2V36.6h78.8l0.3,3.2h-18.6c-2.2,0-4.3,1.2-5.4,3.1l-40.9,70.8
		c-1.1,1.9-1.1,4.3,0,6.2l38.4,66.5l-54.8,50.9l-7.3-74.7c-0.3-3.2-3-5.6-6.2-5.6h-33.3c-3.2,0-5.9,2.4-6.2,5.6l-7.3,74.7L57,186.4
		l38.4-66.5c1.1-1.9,1.1-4.3,0-6.2L54.5,42.9c-1.1-1.9-3.2-3.1-5.4-3.1H30.6L31.1,36.6z M29.7,52.2h16L83,116.7l-37.3,64.5H18.4
		L29.7,52.2z M17.4,193.8h29.5l60.8,56.5l-95.3,84.4v-83.8L17.4,193.8z"/>
	<path d="M149.2,29.5h-14.3c-3.4,0-6.2,2.8-6.2,6.2c0,3.4,2.8,6.2,6.2,6.2h14.3c3.4,0,6.2-2.8,6.2-6.2
		C155.5,32.2,152.7,29.5,149.2,29.5z"/>
</g>
</svg>
