<?xml version="1.0" encoding="utf-8"?>
<!-- Generator: Adobe Illustrator 26.0.0, SVG Export Plug-In . SVG Version: 6.00 Build 0)  -->
<svg version="1.1" id="katman_1" xmlns="http://www.w3.org/2000/svg" xmlns:xlink="http://www.w3.org/1999/xlink" x="0px" y="0px"
	 viewBox="0 0 281.5 444.4" style="enable-background:new 0 0 281.5 444.4;" xml:space="preserve">
<g>
	<path d="M0,6.2v413.9c0,3.4,2.8,6.2,6.2,6.2h6.2v11.9c0,3.4,2.8,6.2,6.2,6.2h74.3c3.4,0,6.2-2.8,6.2-6.2v-11.9h7.2
		c3.2,0,5.8-2.4,6.2-5.5L140.8,184L169,420.8c0.4,3.1,3,5.5,6.2,5.5h7.2v11.9c0,3.4,2.8,6.2,6.2,6.2h74.3c3.4,0,6.2-2.8,6.2-6.2
		v-11.9h6.2c3.4,0,6.2-2.8,6.2-6.2V6.2c0-3.4-2.8-6.2-6.2-6.2H6.2C2.8,0,0,2.8,0,6.2L0,6.2z M86.8,432H25v-5.7h61.8V432z M256.7,432
		h-61.9v-5.7h61.8L256.7,432z M269.1,212l-17.5-18.2v-63h17.5V212z M269.1,118.4h-23.7c-3.4,0-6.2,2.8-6.2,6.2v71.7
		c0,1.6,0.6,3.2,1.7,4.3l28.2,29.3v183.9h-6.2h-74.3h-7.9L147,131V71.3h122.1V118.4z M129.1,58.8V35.5h23.3v23.3
		C152.4,58.8,129.1,58.8,129.1,58.8z M190.5,12.4h78.6v46.4h-78.6V12.4z M103.6,12.4H178v46.4h-13.1V29.3c0-3.4-2.8-6.2-6.2-6.2
		h-35.8c-3.4,0-6.2,2.8-6.2,6.2v29.6h-13.1L103.6,12.4z M12.5,12.4h78.6v46.4H12.5L12.5,12.4L12.5,12.4z M12.5,130.8H30v63L12.5,212
		V130.8z M12.5,229.9l28.2-29.3c1.1-1.2,1.7-2.7,1.7-4.3v-71.7c0-3.4-2.8-6.2-6.2-6.2H12.5V71.3h122.1V131l-33.7,282.8H12.5
		L12.5,229.9z"/>
</g>
</svg>
