<?xml version="1.0" encoding="utf-8"?>
<!-- Generator: Adobe Illustrator 26.0.0, SVG Export Plug-In . SVG Version: 6.00 Build 0)  -->
<svg version="1.1" id="katman_1" xmlns="http://www.w3.org/2000/svg" xmlns:xlink="http://www.w3.org/1999/xlink" x="0px" y="0px"
	 viewBox="0 0 248.2 422.3" style="enable-background:new 0 0 248.2 422.3;" xml:space="preserve">
<g>
	<path d="M6.2,422.3h87c3.2,0,5.9-2.4,6.2-5.6l24.3-249.1h0.8l24.3,249.1c0.3,3.2,3,5.6,6.2,5.6h87c3.4,0,6.2-2.8,6.2-6.2V132
		c0-0.6-0.1-1.1-0.2-1.7L212.3,4.5c-0.8-2.7-3.2-4.5-6-4.5H41.9c-2.8,0-5.2,1.8-6,4.5L0.2,130.3C0,130.9,0,131.4,0,132v284.1
		C0,419.5,2.8,422.3,6.2,422.3L6.2,422.3z M158,12.4h43.6l7.1,25.1H158V12.4z M158,49.9h54.2l3.8,13.3h-58V49.9z M158,75.6h61.5
		l5.2,18.3H158L158,75.6z M102.6,12.4h42.9v85.2c0,9.6-6.4,17.7-15.2,20.4V43.7c0-3.4-2.8-6.2-6.2-6.2s-6.2,2.8-6.2,6.2V118
		c-8.8-2.7-15.2-10.8-15.2-20.4L102.6,12.4z M46.6,12.4h43.6v25.1H39.5L46.6,12.4z M36,49.9h54.2v13.3h-58L36,49.9z M28.7,75.6h61.5
		v18.3H23.5L28.7,75.6z M12.4,132.8l7.5-26.5h71.5c3.9,14.4,17.1,25.1,32.7,25.1s28.8-10.6,32.7-25.1h71.5l7.5,26.5v277h-75.1
		l-24.3-249.1c-0.3-3.2-3-5.6-6.2-5.6h-12.1c-3.2,0-5.9,2.4-6.2,5.6L87.6,409.8H12.5L12.4,132.8z"/>
</g>
</svg>
