<?xml version="1.0" encoding="utf-8"?>
<!-- Generator: Adobe Illustrator 26.0.0, SVG Export Plug-In . SVG Version: 6.00 Build 0)  -->
<svg version="1.1" id="katman_1" xmlns="http://www.w3.org/2000/svg" xmlns:xlink="http://www.w3.org/1999/xlink" x="0px" y="0px"
	 viewBox="0 0 263.6 413.2" style="enable-background:new 0 0 263.6 413.2;" xml:space="preserve">
<g>
	<path d="M39.5,413.2h57.9c3.2,0,5.9-2.4,6.2-5.6l27.7-270.8h0.9l27.7,270.8c0.3,3.2,3,5.6,6.2,5.6H224c3.2,0,5.8-2.4,6.2-5.5
		l33.3-299.5c0.1-0.9,0-1.8-0.3-2.6l-22.9-71.4v-28c0-3.4-2.8-6.2-6.2-6.2H29.4c-3.4,0-6.2,2.8-6.2,6.2v28L0.3,105.6
		c-0.3,0.8-0.4,1.7-0.3,2.6l33.3,299.5C33.7,410.9,36.3,413.2,39.5,413.2L39.5,413.2z M234.6,253.9c-16.1-9.4-26.4-27.5-26.4-47.3
		c0-24.6,15.6-45.7,37.5-52.1L234.6,253.9z M17.7,154.5c21.8,6.4,37.5,27.5,37.5,52.1c0,19.8-10.3,37.9-26.4,47.3L17.7,154.5z
		 M67.6,206.6c0-32-21.8-59.2-51.4-65.3l-3.7-33.2l21.4-66.8H176c3.4,0,6.2-2.8,6.2-6.2s-2.8-6.2-6.2-6.2H35.6V12.4h192.2v16.5
		h-17.6c-3.4,0-6.2,2.8-6.2,6.2s2.8,6.2,6.2,6.2h19.3l21.4,66.8l-3.7,33.2c-29.6,6.1-51.4,33.2-51.4,65.3
		c0,26.1,14.8,49.9,37.4,60.6l-14.8,133.6h-46.7L144,130c-0.3-3.2-3-5.6-6.2-5.6h-12.2c-3.2,0-5.9,2.4-6.2,5.6L91.7,400.8H45
		L30.2,267.2C52.8,256.5,67.6,232.7,67.6,206.6L67.6,206.6z"/>
</g>
</svg>
