<?xml version="1.0" encoding="utf-8"?>
<!-- Generator: Adobe Illustrator 26.0.0, SVG Export Plug-In . SVG Version: 6.00 Build 0)  -->
<svg version="1.1" id="katman_1" xmlns="http://www.w3.org/2000/svg" xmlns:xlink="http://www.w3.org/1999/xlink" x="0px" y="0px"
	 viewBox="0 0 275.2 413" style="enable-background:new 0 0 275.2 413;" xml:space="preserve">
<g>
	<path d="M242.9,29.4V6.2c0-3.4-2.8-6.2-6.2-6.2H38.5c-3.4,0-6.2,2.8-6.2,6.2v23.2C12.3,40.9,0,61.9,0,85.1c0,0.2,0,0.5,0,0.7
		l6.1,55.4l0,0c-0.2,1.1,0,2.1,0.3,3l29.1,263.3c0.3,3.2,3,5.5,6.2,5.5h80.7c3.4,0,6.2-2.8,6.2-6.2V169.5h18v237.3
		c0,3.4,2.8,6.2,6.2,6.2h80.7c3.2,0,5.8-2.4,6.2-5.5l35.5-321.7c0-0.2,0-0.4,0-0.7C275.2,61.9,262.9,40.9,242.9,29.4L242.9,29.4z
		 M164.5,12.4h65.9v14.5h-65.9V12.4z M143.8,12.4h8.3v72.5h-8.3V12.4z M44.7,12.4h65.9v14.5H44.7V12.4z M19.7,150.3
		c24.2,7.7,41,30,41,56.2c0,21.2-11.3,40.4-29.2,50.9L19.7,150.3z M32.9,270.7c4.2-2,8.1-4.5,11.8-7.2l9.4,112.7h-9.5L32.9,270.7z
		 M116.1,400.6H47.2l-1.3-12h70.2V400.6z M131.4,157h-9c-3.4,0-6.2,2.8-6.2,6.2v212.9H66.6L56.3,252.5c10.6-12.6,16.8-28.8,16.8-46
		c0-33.5-22.8-61.9-54.9-69.5l-5.8-52.3c0.1-19.1,10.7-36.4,27.8-45.4h70.4v51.8c0,3.4,2.8,6.2,6.2,6.2h14.5L131.4,157z M131.4,84.9
		h-8.3V12.4h8.3V84.9z M227.9,400.6H159v-12h70.2L227.9,400.6z M230.6,376.2h-7.1l12.3-113c2.2,1.6,4.4,3.1,6.8,4.5L230.6,376.2z
		 M244.1,253.9c-15-11-24-28.5-24-47.4c0-23.7,14.1-44.7,35.2-54L244.1,253.9z M256.8,138.6c-29.1,9.6-49.2,36.8-49.2,67.9
		c0,17.2,6.1,33.3,16.8,46L211,376.2h-51.9V163.3c0-3.4-2.8-6.2-6.2-6.2h-9V97.4h14.5c3.4,0,6.2-2.8,6.2-6.2V39.4h70.5
		c17,9,27.6,26.2,27.8,45.4L256.8,138.6z"/>
</g>
</svg>
