<?xml version="1.0" encoding="utf-8"?>
<!-- Generator: Adobe Illustrator 26.0.0, SVG Export Plug-In . SVG Version: 6.00 Build 0)  -->
<svg version="1.1" id="katman_1" xmlns="http://www.w3.org/2000/svg" xmlns:xlink="http://www.w3.org/1999/xlink" x="0px" y="0px"
	 viewBox="0 0 275 413" style="enable-background:new 0 0 275 413;" xml:space="preserve">
<g>
	<path d="M242.9,29.4V6.2c0-3.4-2.8-6.2-6.2-6.2H38.5c-3.4,0-6.2,2.8-6.2,6.2v23.2C12.3,40.9,0,61.9,0,85.1c0,0.2,0,0.5,0,0.7
		l6.1,55.4l0,0c-0.2,1.1,0,2.1,0.3,3l29.1,263.3c0.3,3.2,3,5.5,6.2,5.5h80.6c3.4,0,6.2-2.8,6.2-6.2V169.5h18v237.3
		c0,3.4,2.8,6.2,6.2,6.2h80.6c3.2,0,5.8-2.4,6.2-5.5L275,85.8c0-0.2,0-0.4,0-0.7C275.2,61.9,262.9,40.9,242.9,29.4L242.9,29.4z
		 M19.6,150.3c24.2,7.7,41,30,41,56.2c0,21.2-11.3,40.4-29.2,50.9L19.6,150.3z M116.1,400.6H47.2l-1.3-12h70.2V400.6z M227.9,400.6
		H159v-12h70.2L227.9,400.6z M244.1,253.9c-15-11-24-28.5-24-47.4c0-23.7,14.1-44.7,35.2-54L244.1,253.9z M256.8,138.6
		c-29.1,9.5-49.2,36.8-49.2,67.9c0,25.3,13.3,48.3,34.9,61.2l-12,108.4h-71.6V163.3c0-3.4-2.8-6.2-6.2-6.2h-30.5
		c-3.4,0-6.2,2.8-6.2,6.2v212.9H44.6L33,270.8c24.5-11.9,40.2-36.7,40.2-64.2c0-33.5-22.8-61.9-54.9-69.5l-5.8-52.3
		c0.1-19.6,11.2-37.2,28.9-46c2.1-1.1,3.4-3.2,3.4-5.6V12.4h185.7v20.7c0,2.4,1.3,4.5,3.4,5.6c17.7,8.9,28.8,26.5,28.9,46
		L256.8,138.6z"/>
</g>
</svg>
