<?xml version="1.0" encoding="utf-8"?>
<!-- Generator: Adobe Illustrator 26.0.0, SVG Export Plug-In . SVG Version: 6.00 Build 0)  -->
<svg version="1.1" id="katman_1" xmlns="http://www.w3.org/2000/svg" xmlns:xlink="http://www.w3.org/1999/xlink" x="0px" y="0px"
	 viewBox="0 0 263.5 413.3" style="enable-background:new 0 0 263.5 413.3;" xml:space="preserve">
<g>
	<path d="M263.2,106.5c0-0.3,0-0.6-0.1-0.9l-22.9-71.4v-28c0-3.4-2.8-6.2-6.2-6.2H29.4c-3.4,0-6.2,2.8-6.2,6.2v28L0.3,105.7
		c-0.1,0.3,0,0.6-0.1,0.9c-0.1,0.4-0.2,0.7-0.2,1c0,0.1,0.1,0.2,0.1,0.4c0,0.1,0,0.2,0,0.3l33.3,299.5c0.3,3.2,3,5.5,6.2,5.5h57.9
		c3.2,0,5.9-2.4,6.2-5.6l27.7-270.8h0.9l27.5,270.8c0.3,3.2,3,5.6,6.2,5.6h57.9c3.2,0,5.8-2.4,6.2-5.5l33.3-299.5c0-0.1,0-0.2,0-0.3
		s0.1-0.2,0.1-0.4C263.4,107.2,263.2,106.9,263.2,106.5L263.2,106.5z M13.2,113.8h46.6V305l-23.1,21.1L13.2,113.8z M218.3,400.9
		h-46.7l-27.7-270.8c-0.3-3.2-3-5.6-6.2-5.6h-12.2c-3.2,0-5.9,2.4-6.2,5.6L91.6,400.9H44.9l-6.6-59.5l31.8-29c1.3-1.2,2-2.8,2-4.6
		V107.6c0-3.4-2.8-6.2-6.2-6.2H14.6l20.6-64.2c0.2-0.6,0.3-1.2,0.3-1.9V12.5h192.2v22.7c0,0.6,0.1,1.3,0.3,1.9l20.6,64.2h-52.7
		c-3.4,0-6.2,2.8-6.2,6.2v200.2c0,1.8,0.8,3.5,2.1,4.7l33.1,29L218.3,400.9z M226.6,326.4L202.1,305V113.8h48.1L226.6,326.4z"/>
</g>
</svg>
