<?xml version="1.0" encoding="utf-8"?>
<!-- Generator: Adobe Illustrator 26.0.0, SVG Export Plug-In . SVG Version: 6.00 Build 0)  -->
<svg version="1.1" id="katman_1" xmlns="http://www.w3.org/2000/svg" xmlns:xlink="http://www.w3.org/1999/xlink" x="0px" y="0px"
	 viewBox="0 0 242.7 423.4" style="enable-background:new 0 0 242.7 423.4;" xml:space="preserve">
<g>
	<path d="M208.1,0H34.5c-3.4,0-6.2,2.8-6.2,6.2v20.9c-5.2,7.5-12.2,36.6-20.4,173.7C3,283,0,365.2,0,366.3
		c0,31.5,25.6,57.1,57.1,57.1s57.1-25.6,57.1-57.1V150h14.3v216.2c0,31.5,25.6,57.1,57.1,57.1c31.4,0,56.9-25.4,57.1-57v-0.1
		c0,0,0,0,0-0.1c0-0.1,0-0.1,0-0.2c0-0.8-3-83-7.9-165.2c-8.3-137-15.2-166-20.5-173.5V6.3C214.3,2.8,211.5,0,208.1,0L208.1,0z
		 M32.4,59.8h23.9c11.7,0,21.3,9.5,21.3,21.3c0,11.7-9.5,21.3-21.3,21.3H27.6C29.1,85.5,30.8,71.1,32.4,59.8L32.4,59.8z M57.1,410.9
		c-22.6,0-41.2-16.8-44.2-38.4h88.4C98.2,394.2,79.6,410.9,57.1,410.9z M185.5,410.9c-22.5,0-41.1-16.8-44.2-38.4h88.3
		C226.7,394.2,208,410.9,185.5,410.9z M230,360h-89.1V207.4h26.3c3.4,0,6.2-2.8,6.2-6.2c0-3.4-2.8-6.2-6.2-6.2h-26.3v-26.7h26.3
		c3.4,0,6.2-2.8,6.2-6.2s-2.8-6.2-6.2-6.2h-26.3v-12c0-3.4-2.8-6.2-6.2-6.2H108c-3.4,0-6.2,2.8-6.2,6.2v12H75.5
		c-3.4,0-6.2,2.8-6.2,6.2s2.8,6.2,6.2,6.2h26.3V195H75.5c-3.4,0-6.2,2.8-6.2,6.2c0,3.4,2.8,6.2,6.2,6.2h26.3V360H12.7
		c2.7-74.6,7.8-175.5,13.8-245.3h29.8C74.9,114.7,90,99.6,90,81S74.9,47.3,56.3,47.3H34.5c1.2-6.2,2.5-10.6,3.7-12.5
		c1.6-1.2,2.5-3,2.5-5V12.5h74.4V60c0,3.4,2.8,6.2,6.2,6.2s6.2-2.8,6.2-6.2V12.5h74.4v17.4c0,2,0.9,3.8,2.5,5
		c1.2,1.9,2.5,6.3,3.7,12.5h-21.8c-18.6,0-33.7,15.1-33.7,33.7s15.1,33.7,33.7,33.7h29.9C222.2,184.6,227.2,285.5,230,360L230,360z
		 M215,102.3h-28.7c-11.7,0-21.3-9.5-21.3-21.3c0-11.7,9.5-21.3,21.3-21.3h23.9C211.8,71.1,213.5,85.5,215,102.3L215,102.3z"/>
</g>
</svg>
