<?xml version="1.0" encoding="utf-8"?>
<!-- Generator: Adobe Illustrator 26.0.0, SVG Export Plug-In . SVG Version: 6.00 Build 0)  -->
<svg version="1.1" id="katman_1" xmlns="http://www.w3.org/2000/svg" xmlns:xlink="http://www.w3.org/1999/xlink" x="0px" y="0px"
	 viewBox="0 0 275.2 413" style="enable-background:new 0 0 275.2 413;" xml:space="preserve">
<g>
	<path d="M242.9,29.4V6.2c0-3.4-2.8-6.2-6.2-6.2H38.5c-3.4,0-6.2,2.8-6.2,6.2v23.2C12.3,40.9,0,61.9,0,85.1c0,0.2,0,0.5,0,0.7
		l35.5,321.7c0.3,3.2,3,5.5,6.2,5.5h80.7c3.4,0,6.2-2.8,6.2-6.2V169.5h18v237.3c0,3.4,2.8,6.2,6.2,6.2h80.7c3.2,0,5.8-2.4,6.2-5.5
		l35.5-321.7c0-0.2,0-0.4,0-0.7C275.2,61.9,262.9,40.9,242.9,29.4L242.9,29.4z M164.5,12.4h65.9v14.5h-65.9V12.4z M143.8,12.4h8.3
		v72.5h-8.3V12.4z M44.7,12.4h65.9v14.5H44.7V12.4z M131.4,157h-9c-3.4,0-6.2,2.8-6.2,6.2v237.3H47.3L12.4,84.7
		c0.1-19.1,10.7-36.4,27.8-45.4h24.5l12.2,285.6c0.1,3.3,2.9,6,6.2,6c0.1,0,0.2,0,0.3,0c3.4-0.1,6.1-3.1,5.9-6.5L77.1,39.3h33.5
		v51.8c0,3.4,2.8,6.2,6.2,6.2h14.5L131.4,157z M131.4,84.9h-8.3V12.4h8.3V84.9z M227.9,400.6H159V163.2c0-3.4-2.8-6.2-6.2-6.2h-9
		V97.3h14.5c3.4,0,6.2-2.8,6.2-6.2V39.3H198l-12.2,285.1c-0.1,3.4,2.5,6.3,5.9,6.5c0.1,0,0.2,0,0.3,0c3.3,0,6.1-2.6,6.2-6
		l12.2-285.6h24.5c17,9,27.6,26.2,27.8,45.4L227.9,400.6z"/>
</g>
</svg>
