<svg xmlns="http://www.w3.org/2000/svg" viewBox="0 0 241.21 512"><g id="katman_2" data-name="katman 2"><g id="katman_1-2" data-name="katman 1"><path d="M217,0c3.84,2.86,4.67,6.78,4.6,11.36q-.27,19.74.05,39.49a13.45,13.45,0,0,0,2.33,7.3c12.43,16.9,17.9,35.66,17.13,56.66-2.44,66.44-4.55,132.9-6.76,199.35Q231.68,395.6,229,477c-.22,6.5-.85,13-.65,19.48.23,7.4-2.74,12.42-9.34,15.48H148c-6.26-3.05-9-7.92-9.46-15-1.32-20.44-3.2-40.84-4.86-61.25Q128.84,376,124,316.24c-1-11.9-2-23.79-3-35.68-3.73,37.69-6.82,75.35-9.87,113-2.81,34.52-5.69,69-8.29,103.58-.53,7-3.3,12-9.74,14.85H22c-6.68-3.31-9-8.65-9.21-16.11-1.1-41.48-2.62-82.95-4-124.42a33.23,33.23,0,0,1,0-5,6.78,6.78,0,0,1,6.55-6.39c3.75-.38,6.61,1.41,7.62,5.05a34.11,34.11,0,0,1,.83,7.91q2.05,60.21,4,120.42c0,1,.14,1.95.23,3.22H49.68c0-6-.15-12,0-17.92q2.63-92.94,5.33-185.9,1.56-54,3.09-107.94c.12-4.24,1.56-7.63,5.94-8.73a6.73,6.73,0,0,1,8.27,4,13.71,13.71,0,0,1,.76,5.84q-1.16,44.47-2.44,89-2.28,78-4.62,155.91-.82,27.5-1.64,55c-.1,3.48,0,7,0,10.79H87.52c.79-9.08,1.62-18.16,2.36-27.24q6.47-79.2,12.91-158.4,5.11-63,10.2-126c.46-5.73,2.94-8.82,7.36-9,4.58-.17,7.36,2.91,7.85,8.95q5.51,67.23,11,134.48,6.29,76.71,12.63,153.4c.66,7.95,1.25,15.9,1.88,24H177c0-2.13.05-4.07,0-6q-3.3-111.69-6.61-223.37-1.19-40.23-2.32-80.46c0-1-.07-2,0-3,.2-4.71,3-7.83,7.22-8,4.36-.14,7.52,3,7.74,8,.33,7.33.54,14.66.75,22q3.19,111.43,6.38,222.88c.65,22.47,1.39,44.94,2.1,67.78h20.85c.21-3.32.54-6.74.65-10.17q2.73-83.19,5.42-166.38,3.43-103.68,7-207.36c.59-16.64-3.84-31.58-13.87-44.82-1-1.28-2.76-2.71-4.19-2.73-17.15-.19-34.3-.12-52-.12-.12,1.8-.31,3.38-.31,5,0,9.17,0,18.33,0,27.5,0,18.56-8.7,28.52-27.66,31,0,5.49,0,11.09,0,16.7,0,7.09-2.65,10.76-7.63,10.62-4.8-.12-7.37-3.74-7.38-10.46q0-37,0-74v-6c-1.59-.11-3-.3-4.44-.3-24.5,0-49,.06-73.5-.1-3.29,0-5.08,1.19-6.88,3.72a68.44,68.44,0,0,0-13.2,43.12q2.8,81.94,5.55,163.88c.49,14.66,1,29.31,1.39,44,.16,6-2.43,9.3-7.15,9.45-4.89.15-7.63-3.17-7.84-9.41C4.77,253.06,2.79,186.43.12,119.83c-.93-23,3.57-43.94,17.72-62.47a11.49,11.49,0,0,0,1.88-6.43c.18-11.67.4-23.35,0-35C19.41,8.31,22.17,3.12,29,0H77c3.11,2.66,6,5.43,4.15,10.12s-5.69,5-9.9,4.91c-8.33-.1-16.66,0-25,0H35.15V49.11h171V15h-5.72q-38.49,0-77,0c-4.25,0-8.09-.4-9.83-5s1.1-7.46,4.36-10ZM128.22,112.72c7.44.08,12.07-4.13,12.42-11.53.28-5.82.08-11.66.09-17.49V65.44H128.22Z"/></g></g></svg>