<svg xmlns="http://www.w3.org/2000/svg" viewBox="0 0 243.28 384"><g id="katman_2" data-name="katman 2"><g id="katman_1-2" data-name="katman 1"><path d="M93.14,384H21.88C10.14,380.19,6,371.84,6.26,359.9c.41-22.23.17-44.46,0-66.69,0-2-1.26-4-2-6-1.4-3.92-4-7.81-4.05-11.74q-.55-38.6,0-77.18c0-3.84,2-7.89,4-11.37,1.26-2.25,2.2-4.2,2.2-6.81q-.09-60.32-.06-120.65c0-8.47,3.29-14.9,10.85-19.09a4.73,4.73,0,0,0,1.91-3.44c.2-5.62.09-11.24.09-16.86S20.73,9.22,25.1,5.58C27.89,3.26,31.43,1.83,34.63,0h174c11.72,3.84,16.26,12.22,15.46,24.15a115,115,0,0,0,0,12.73c0,1.14.7,2.8,1.58,3.27C234,44.51,237,51.52,236.94,60.54q-.15,59.94.05,119.89c0,2,1.27,4,2,6.06,1.39,3.92,4,7.81,4,11.75q.56,38.58,0,77.17c-.05,3.94-2.65,7.83-4,11.75-.72,2-2,4-2,6-.14,23.23-.12,46.46-.07,69.69,0,6.73-1.83,12.67-7.35,16.81-2.43,1.82-5.43,2.88-8.17,4.29H150.14c-12.54-5.09-15.72-9.85-15.72-23.53q0-98.94,0-197.87c0-1.25.06-2.51,0-3.75a12.69,12.69,0,0,0-15.11-11.33c-6.67,1.38-10.39,6.33-10.39,13.95q0,100.25,0,200.5a33.9,33.9,0,0,1-.32,6C107,376.66,101.2,381.46,93.14,384ZM223.72,179.22V121.54c-2.47,0-4.59,0-6.71,0-17.46-.35-32.79-12-36.39-29-1.58-7.46-1.24-15.4-1.1-23.11.08-4.76,6.38-7.21,9.87-3.94A10.23,10.23,0,0,1,192,71.68c.45,5.21-.28,10.57.52,15.7,2.29,14.58,15,23,31.58,21.06v-3.59q0-22.32,0-44.62c0-7.15-2-9.09-9.17-9.09H128.18c0,13.4-.1,26.26.07,39.11.05,3.48,2.61,5.51,6.24,5.71,2.25.13,4.52-.11,6.75.12a6,6,0,0,1,5.89,5.74c.37,3.1-1.67,6.27-4.74,6.72C127.18,110.78,115.22,104,115.22,88q0-16.31,0-32.62c0-1.31-.16-2.63-.26-4.21H28c-6.64,0-8.75,2.1-8.77,8.74q0,22.7,0,45.37c0,1.1.13,2.2.21,3.52,2.12,0,4,0,5.86,0C40.08,108.6,51,97.7,51.18,82.88c0-4-.07-8,0-12S54.05,64,57.65,64s6.23,2.8,6.3,6.94c.07,4.5.08,9,0,13.5a37.9,37.9,0,0,1-31.38,36.39c-4.25.72-8.62.73-13,1.07v57.33c13,0,25.58-.08,38.2,0A18.69,18.69,0,0,1,76.7,198c.15,21.75.19,43.5,0,65.24a31,31,0,0,1-24.16,30.07,51.64,51.64,0,0,1-10.77,1.07c-7.34.15-14.7,0-22.13,0a20.27,20.27,0,0,0-.38,2.55q0,33.38,0,66.75c0,5.2,2.45,7.48,7.69,7.49q29.64,0,59.26,0c8.2,0,9.89-1.68,9.89-9.85q0-92.05.07-184.12c0-10-1.82-20.23,3.18-30.12-3.43,0-6.28.06-9.13,0-4.31-.11-6.85-2.48-6.87-6.27s2.6-6.44,6.77-6.45q31.5-.12,63,0c4.18,0,6.84,2.71,6.84,6.4s-2.55,6.21-6.82,6.33c-3,.09-5.94,0-9.64,0,5.57,9.89,3.61,20.17,3.64,30.17q.21,92.23.07,184.49c0,7.63,1.83,9.43,9.55,9.43h58.13c7.25,0,9.18-1.88,9.18-9.05q0-31.86,0-63.74c0-1.21-.1-2.42-.17-4-8.08,0-15.8,0-23.53,0-20.47-.13-33.81-13.45-33.85-33.83q0-30.18,0-60.37c0-13.27,7.71-21,20.92-21C199.42,179.21,211.41,179.22,223.72,179.22ZM32.08,38.14H211.22c0-5.4,0-10.61,0-15.82,0-7.78-1.74-9.54-9.39-9.54H41.39c-.88,0-1.76,0-2.63,0-4.13.24-6.53,2.43-6.63,6.59C32,25.49,32.08,31.61,32.08,38.14ZM64,211.25c0-4.16,0-7.88,0-11.6-.06-5.44-2.28-7.63-7.84-7.64q-17.81,0-35.61,0c-5.28,0-7.65,2.31-7.65,7.48q0,37.29,0,74.59c0,5.08,2.21,7.4,7.26,7.46,8.24.1,16.5.2,24.74,0,11.41-.32,19-8.27,19.09-19.74s0-23.24,0-34.86c0-.84-.14-1.68-.23-2.66-1.3-.07-2.4-.17-3.5-.17-9.12,0-18.25.06-27.37,0-4.44-.05-7.22-2.7-7.2-6.46s2.75-6.2,7.29-6.29c4-.07,8,0,12,0Zm115.46,12.81c0,14-.35,27.47.12,40.93.3,8.42,8,15.82,16.48,16.27,9.34.5,18.73.33,28.09.2,3.95,0,6.12-2.52,6.27-6.49.11-3,0-6,0-9q0-33.18,0-66.35c0-5.09-2.3-7.58-7.14-7.61-12.37-.06-24.74,0-37.11,0-3.4,0-6.2,1.54-6.57,4.9-.51,4.62-.13,9.35-.13,14.34h10.09c7.13,0,14.25-.07,21.37.05,4,.07,6.58,2.57,6.69,6.11.11,3.36-2.29,6.05-5.94,6.54a27.45,27.45,0,0,1-3.74.11Z"/></g></g></svg>