<svg xmlns="http://www.w3.org/2000/svg" viewBox="0 0 276.26 512"><g id="katman_2" data-name="katman 2"><g id="katman_1-2" data-name="katman 1"><path d="M162,0c7.44.62,14.92.94,22.31,1.91,24.07,3.15,48.1,6.6,72.17,9.8,5.73.77,8.63,3.69,10.06,9.31,14.62,57.39,13,114.28-6.92,170a250,250,0,0,0-14,103.45c3.84,53.8,6.42,107.7,9.57,161.55.85,14.63,1.69,29.26,2.79,43.87.38,5-.6,9.15-4.94,12.08H159c-4-2.84-5.1-6.72-5.09-11.59.13-51.8.3-103.6,0-155.4-.26-41-4.72-81.73-12.21-122.09-.94-5-2.12-10.07-3.19-15.1a2.8,2.8,0,0,0-1.46,1.92,707,707,0,0,0-15,142.78q-.14,74,0,147.9c0,4.88-1,8.76-5.1,11.58H23c-4.29-3-5.23-7.05-4.92-12.1q6-97,11.66-194.1c1.33-22.61,2.88-45.2-.64-67.82-3-19.23-10-37.22-15.7-55.64q-24.81-80-3.9-161.17c1.42-5.55,4.19-8.3,10-9.42a614.72,614.72,0,0,1,90.68-11A27.42,27.42,0,0,0,114,0Zm15.41,71.32c-3.39,22.47-13.14,41.08-29.75,56.07-1.19,1.08-1.49,3.51-1.61,5.34-1.36,21.44,1.78,42.35,6.34,63.29,11.28,51.87,17.68,104.36,17.6,157.54q-.08,52,0,104v6.3h6c8.5,0,17-.08,25.49.05,5.17.08,8.5,3.32,8.51,7.85s-3.34,7.84-8.45,8-10.33.06-15.49.07H170.41v15.87h71c-.24-5.39-.46-10.45-.7-15.69-6.55-.29-13.89.68-14.42-7.75-.56-8.91,7.11-8.26,13-8.78,0-1.8.06-3.12,0-4.44q-2.14-37.66-4.31-75.33c-1.82-31.09-3.49-62.19-5.62-93.27-2.27-33.15,1.53-65.32,12.45-96.85,5.69-16.45,9.34-33.6,13.93-50.43,1.12-4.12.29-6.72-4-9.11-11-6.16-20.1-14.73-27.89-24.66A107.47,107.47,0,0,1,204.33,69ZM105.79,495.77V479.82H90.72c-5.67,0-11.35.18-17-.14a7.89,7.89,0,0,1-7.65-8.27c.19-4.18,3.27-7.23,7.82-7.52,2.49-.16,5-.07,7.5-.07H106v-6.13c0-30.33.28-60.65-.06-91a754.68,754.68,0,0,1,17.76-171.05c4.56-20.77,7.15-41.51,6.43-62.81-.63-18.31-.13-36.65-.13-55V72.8L72.57,69.32a3.73,3.73,0,0,0-.5.79c-.36,1.11-.66,2.23-1,3.35-7.82,26.56-23.47,47.19-47.2,61.45-3.54,2.13-4.57,4.25-3.58,7.94,4.31,16,7.51,32.48,13.06,48.08a243.64,243.64,0,0,1,13.49,98.21c-3.54,56.7-6.72,113.41-10,170.11-.09,1.42,0,2.85,0,4.22,10,.92,13.42,2.9,13.14,8-.5,9.22-7.94,8.12-14.51,8.55-.25,5.34-.49,10.4-.74,15.71Zm24-454-106-10.85c-.91,4.09-2,8.85-3.07,13.87C57.19,51.94,93.22,56,129.83,56.19ZM17.32,120.33C37.37,107.08,50,89.8,56.37,67l-39-6.29Zm241.31-.63v-59l-38.29,6.38C226.64,89.47,239,106.62,258.63,119.7Zm-6.48-89.57-73.77,9.43V55.12a570.56,570.56,0,0,0,77-10.46C254.23,39.4,253.18,34.72,252.15,30.13Zm-105.73,10v65.09c15.93-19.82,16.79-42.16,15.23-65.09Zm56.73-19.93a519.28,519.28,0,0,0-130.23,0A537.84,537.84,0,0,0,203.15,20.19Z"/><path d="M86.46,270.66c3.32-19.67,6.44-39.38,10-59,2.84-15.54,6.24-31,9.47-46.43,1.22-5.85,4.93-8.7,9.63-7.68,5,1.1,7,5.14,5.9,11.28q-9.3,51.53-18.47,103.08c-1,5.34-4.3,8.54-9,8.06C89.57,279.51,86.84,275.94,86.46,270.66Z"/><path d="M82.87,342.81c0-6.16-.15-12.33,0-18.48.16-5.22,3.39-8.4,8-8.37s7.95,3.38,7.91,8.5c-.11,12.33-.41,24.66-.81,37a7.64,7.64,0,0,1-8,7.82c-4.44,0-7.73-3.16-7.87-8-.19-6.16,0-12.33,0-18.49Z"/></g></g></svg>