<svg xmlns="http://www.w3.org/2000/svg" viewBox="0 0 160.84 402.21"><g id="katman_2" data-name="katman 2"><g id="katman_1-2" data-name="katman 1"><path d="M129.2,0c1.54,1.54,3.52,2.84,4.55,4.67C140.67,17,147,29.57,154.29,41.62c6.11,10.11,7.34,20.72,6.13,32.05-4.34,40.44-8.77,80.87-12.83,121.34-1.35,13.53-1.88,27.15-2.51,40.74-1.5,32.42-2.6,64.86-4.33,97.26-.83,15.66-2.12,31.35-4.29,46.87-2.09,15-8.36,19.85-23.65,21.59-10.56,1.21-20.84.87-30.88-3.07-1.31-.51-3.26.17-4.78.68-13,4.32-25.93,4-38.93,0-8.38-2.59-12.63-8.38-13.49-16.89-1.36-13.39-3.17-26.77-3.87-40.2C18.73,300.7,17.34,259.36,15,218.08c-1-18.52-3.61-37-5.52-55.43C7.25,140.8,4.91,119,2.72,97.09,1.79,87.85,1.36,78.55.27,69.33c-1.26-10.69,2-20,7.23-29.08C14,29,20,17.34,26.44,6,27.72,3.71,30,2,31.77,0H35.7c4.46,1.31,8.85,3,13.41,3.85C67.49,7.1,86,6.57,104.49,4.93c7-.63,13.86-3.23,20.78-4.93ZM87.07,46V380.69a20.86,20.86,0,0,1,0,2.74c-.31,2.27.7,3.29,2.87,3.78a58.7,58.7,0,0,0,24.15.65c7.86-1.51,8.88-2.72,9.71-10.77.78-7.55,1.72-15.09,2.11-22.66,2-40,3.82-80,5.82-120,.7-14,1.36-28,2.74-41.89,2.11-21.34,4.79-42.63,7.31-63.93a9.37,9.37,0,0,0-2.18-7.51c-12.61-16-19.65-34.37-23-54.26-1.2-7-1.83-14.18-2.67-20.83ZM46.8,45.94c-.26,2.68-.53,5.41-.79,8.13-2.35,24.83-9.65,47.81-25.12,67.81a8.88,8.88,0,0,0-1.63,5.65c1,11.07,2.31,22.12,3.47,33.17,1.94,18.6,4.57,37.16,5.63,55.81,2.36,41.41,3.81,82.88,5.88,124.31.64,12.79,2.13,25.55,3.07,38.33.32,4.41,2.38,6.83,6.65,7.94,8.54,2.24,17,2,25.64.42,3.23-.6,4.12-1.88,4.12-5.14q-.14-165.9-.09-331.8c0-1.37-.11-2.75-.2-4.63ZM29.43,29.85a420.68,420.68,0,0,0,101.79,0c-.87-1.9-1.32-3-1.84-4-1.79-3.6-3.6-7.2-5.3-10.59a217.75,217.75,0,0,1-87.35,0C34.5,19.68,32.15,24.39,29.43,29.85Zm113.34,73.63,1.27-.37c.18-1,.46-1.93.55-2.91.9-10.81,1.58-21.65,2.71-32.43.73-7-1-13.08-4.5-19-4.21-7.21-4-7.19-12.18-5.65-2.49.48-3.38,1.46-3,3.87,1.88,10.92,3.07,22,5.8,32.71C135.56,87.87,139.59,95.57,142.77,103.48ZM33.35,43.87c-3.33-.71-6.36-1.43-9.43-2a2.3,2.3,0,0,0-1.92.8c-4.19,7-9.49,13.56-8.42,22.6.61,5.19.6,10.45,1,15.66.62,7.33,1.4,14.66,2.11,22C28.07,84.79,32.43,64.94,33.35,43.87Z"/></g></g></svg>