<?xml version="1.0" encoding="utf-8"?>
<!-- Generator: Adobe Illustrator 26.0.0, SVG Export Plug-In . SVG Version: 6.00 Build 0)  -->
<svg version="1.1" id="Sunglasses" xmlns="http://www.w3.org/2000/svg" xmlns:xlink="http://www.w3.org/1999/xlink" x="0px" y="0px"
	 viewBox="0 0 396.6 139.1" style="enable-background:new 0 0 396.6 139.1;" xml:space="preserve">
<g>
	<path d="M76,7.3c0.1,0,0.1,0,0.2,0l1.1-0.1c1-0.1,2-0.1,3-0.1c1.9-0.1,3.4-1.7,3.3-3.6c-0.1-1.9-1.7-3.4-3.6-3.3
		c-1,0-2.1,0.1-3.2,0.1c0,0,0,0,0,0l-1.2,0.1c-1.9,0.1-3.3,1.8-3.2,3.7C72.7,5.9,74.2,7.3,76,7.3z"/>
	<path d="M342.2,123.7c-0.3,0.2-0.6,0.4-0.9,0.6c-1.6,1-2.2,3.1-1.2,4.7c0.6,1.1,1.8,1.7,3,1.7c0.6,0,1.2-0.2,1.8-0.5
		c0.3-0.2,0.7-0.4,1-0.6c1.6-1,2.1-3.1,1.1-4.8C346,123.2,343.9,122.7,342.2,123.7z"/>
	<path d="M393.2,37.9h-15.4c-1.7-6.1-4.4-11.5-8.2-16.2C358.9,8.2,341.1,1,316.5,0.2c-7-0.2-13.7-0.2-20-0.1c0,0-0.1,0-0.1,0H100.2
		c-1.6,0-2.9,1.1-3.3,2.6c0,0,0,0.1,0,0.1c0,0.1,0,0.3-0.1,0.4c0,0.1,0,0.1,0,0.2c0,0,0,0,0,0c0,0,0,0,0,0c0,0.1,0,0.2,0,0.3
		c0,0.1,0,0.3,0,0.4c0,0.1,0,0.1,0.1,0.2c0,0.2,0.1,0.3,0.1,0.5C97,4.9,97,5,97,5c0.1,0.2,0.2,0.3,0.3,0.5c0,0,0,0,0,0
		c0.6,0.9,1.6,1.5,2.7,1.5c28.5,0.8,50.9,6,64.7,15c6.2,4,10.4,10.5,11.6,17.9c0.5,3,0.5,6.1-0.1,9.2c-3.4,19.4-12.6,46.4-36.7,64.4
		c-27.1,20.3-69.4,28.1-94.5,2.7c-10.3-10.4-16.8-25-19.9-44.4c-1.1-6.6-1.5-12.1-1.5-17.1c0-12,2.9-21.4,8.7-28.8
		c5.2-6.5,12.5-11.4,21.8-14.6c1.8-0.6,2.8-2.6,2.2-4.4c-0.6-1.8-2.6-2.8-4.4-2.2C41.4,8.4,33,14,27,21.6
		c-3.8,4.7-6.5,10.1-8.2,16.2H3.5c-1.9,0-3.5,1.5-3.5,3.4v16.7c0,1.9,1.5,3.4,3.5,3.4H17c0.3,3.5,0.7,7.2,1.4,11.4
		c3.3,20.9,10.5,36.6,21.8,48.1c12.5,12.7,28.8,18.1,45.6,18.1c20.5,0,41.8-7.9,57.9-20c26-19.4,35.8-48.1,39.4-68.8
		c0.4-2.3,0.5-4.6,0.5-6.9c4.1,0.6,10.9,1.4,17.8,1.4c4,0,8-0.3,11.6-1c0,2.2,0.1,4.3,0.5,6.5c3.6,20.7,13.4,49.4,39.4,68.8
		c17.1,12.8,38.6,20.1,58.1,20.1c3.6,0,7.2-0.3,10.6-0.8c1.9-0.3,3.2-2,2.9-3.9c-0.3-1.9-2-3.2-3.9-2.9c-20.4,3-44.7-3.9-63.6-18
		c-24.2-18.1-33.3-45-36.7-64.4c-0.5-3.1-0.6-6.1-0.1-9.2c1.2-7.4,5.4-13.9,11.6-17.9c13.8-9,36.2-14.1,64.7-15
		c6.2-0.2,12.8-0.2,19.7,0.1c22.4,0.7,38.6,7.1,48,18.9c5.9,7.4,8.7,16.8,8.7,28.7c0,5-0.5,10.6-1.5,17.2
		c-2.3,14.5-6.5,26.2-12.8,35.6c-1.1,1.6-0.6,3.7,1,4.8c1.6,1.1,3.7,0.6,4.8-1c6.8-10.3,11.4-22.8,13.8-38.3
		c0.7-4.1,1.1-7.9,1.4-11.4h13.6c1.9,0,3.5-1.5,3.5-3.4V41.3C396.6,39.4,395.1,37.9,393.2,37.9z M16.7,54.6H6.9v-9.8h9.8V54.6z
		 M228.1,16.2c-7.1,4.6-12.2,11.9-14.2,20.3c-9.8,2.9-25.9,0.6-31.3-0.3c-2-8.2-7-15.4-14.1-20c-5.7-3.7-12.5-6.8-20.4-9.2h100.3
		C240.6,9.5,233.8,12.5,228.1,16.2z M389.7,54.6h-9.8v-9.8h9.8V54.6z"/>
</g>
</svg>
