<?xml version="1.0" encoding="utf-8"?>
<!-- Generator: Adobe Illustrator 26.0.0, SVG Export Plug-In . SVG Version: 6.00 Build 0)  -->
<svg version="1.1" id="katman_1" xmlns="http://www.w3.org/2000/svg" xmlns:xlink="http://www.w3.org/1999/xlink" x="0px" y="0px"
	 viewBox="0 0 324.2 178" style="enable-background:new 0 0 324.2 178;" xml:space="preserve">
<g>
	<path d="M315.8,162.4H7.8c-4.5,0-7.8,3.4-7.8,7.8s3.4,7.8,7.8,7.8h308.6c4.5,0,7.8-3.4,7.8-7.8S320.3,162.4,315.8,162.4
		L315.8,162.4z"/>
	<path d="M203.8,0c-11.8,3.4-26.3,5-42,5s-30.2-1.7-42-5C93.5,19.6,73.3,56.6,64.4,101.9h194.9C250.8,56.5,230.1,19.6,203.8,0
		L203.8,0z"/>
	<path d="M261.5,119.8H62.1c-1.1,9.5-1.7,19-1.7,29.1h203.3C263.2,138.8,262.6,129.3,261.5,119.8L261.5,119.8z"/>
</g>
</svg>
