<?xml version="1.0" encoding="utf-8"?>
<!-- Generator: Adobe Illustrator 26.0.0, SVG Export Plug-In . SVG Version: 6.00 Build 0)  -->
<svg version="1.1" id="katman_1" xmlns="http://www.w3.org/2000/svg" xmlns:xlink="http://www.w3.org/1999/xlink" x="0px" y="0px"
	 viewBox="0 0 329.8 183.7" style="enable-background:new 0 0 329.8 183.7;" xml:space="preserve">
<g>
	<path d="M318.6,162.5h-308c-5.6,0-10.6,5-10.6,10.6s5,10.6,10.6,10.6h308.6c5.6,0,10.6-5,10.6-10.6S324.8,162.5,318.6,162.5
		L318.6,162.5z M318.6,178.1h-308c-2.8,0-5-2.2-5-5s2.2-5,5-5h308.6c2.8,0,5,2.2,5,5S321.4,178.1,318.6,178.1L318.6,178.1z"/>
	<path d="M264.8,104.2c-8.4-45.9-29.1-83.4-56.6-103.6L207.1,0L206,0.6c-12.3,3.4-26.3,4.5-41.4,4.5s-29.1-1.7-41.4-4.5L122.1,0
		L121,0.6C93.6,20.8,73.4,58.3,64.4,104.2l-0.6,3.4h201.6L264.8,104.2z M70.5,102c8.4-42,27.4-76.7,52.6-95.8
		c12.3,2.8,26.9,4.5,41.4,4.5c15.1,0,29.1-1.7,41.4-4.5c25.2,19,43.7,53.8,52.6,95.8H70.5z"/>
	<path d="M268.8,151.8c0-9.5-0.6-19.6-1.7-29.7v-2.2h-205l-0.6,2.2c-1.1,10.1-1.7,20.2-1.7,29.7v2.8h208.9L268.8,151.8z M66,149
		c0-7.8,0.6-15.7,1.1-23.5H262c0.6,7.8,1.1,16.2,1.1,23.5H66z"/>
</g>
</svg>
