<?xml version="1.0" encoding="utf-8"?>
<!-- Generator: Adobe Illustrator 26.0.0, SVG Export Plug-In . SVG Version: 6.00 Build 0)  -->
<svg version="1.1" id="katman_1" xmlns="http://www.w3.org/2000/svg" xmlns:xlink="http://www.w3.org/1999/xlink" x="0px" y="0px"
	 viewBox="0 0 472.9 387" style="enable-background:new 0 0 472.9 387;" xml:space="preserve">
<g>
	<path d="M397.6,219.1c11.2,3.5,22,6,32,10.1c23.2,9.6,47.7,46.3,42.6,81.8l0,0c-1.6,17-11.4,32.1-26.1,40.7
		c-12.8,7.6-26.8,12.8-41.3,15.6c-13.5,3.4-37.7,5.6-48.8,7.4c-38.5,7.1-77.5,11.2-116.6,12.2c-25,0.7-50.4-3.7-75.3-6.3l0,0
		c-28.1-2.9-55.6-9.4-82-19.4c-13.6-4.7-40.4-14.3-52.8-23.7S5.9,317.2,1.6,299.6l0,0c-2.6-11.1-2.1-22.7,1.5-33.5
		c3.6-10.8,10.3-20.4,19.1-27.6c13.4-11.8,29.4-20.3,46.8-24.6c3.7-0.8,6.7-3.5,7.9-7.1c8.7-17.6,85.5-162.4,102-189.9l0,0
		c3-5.9,8.2-10.4,14.4-12.6c6.2-2.2,13.1-2,19.2,0.7c12.4,6.2,14.9,18.9,20.2,29.8c1.6,3.7,4.7,6.6,8.5,8c3.8,1.4,8,1.3,11.6-0.4
		c10.2-5.2,18.7-13.3,24.4-23.2c5.9-10.8,16.9-17.9,29.1-19c8.3-0.7,15.7,0,20.5,9.1C346.6,46.5,394.8,208,397.6,219.1L397.6,219.1z
		 M370.9,185.5c0-0.1,0-0.3,0-0.4c-10.1-30.9-46.4-147.7-48.3-153.3c-4.3-12.4-10.6-15.2-20.8-9.1l0,0c-2.9,1.9-5.3,4.2-7.3,7
		c-4.6,5.6-8.5,12.4-13.6,17.5c-18.4,18.6-29.5,21.6-49.8,9.8l0,0c-6.5-4.1-11.4-10.4-13.9-17.7c-1.4-4.2-3.1-8.3-5-12.3
		c-1.1-2.3-3.2-4-5.7-4.5s-5.1,0.2-7,1.9c-3.1,2.8-5.7,6.1-7.8,9.7c-4.7,8-68.4,122.2-80.5,145.6c-1.6,3-2.9,6.2-4.3,9.1
		c-0.1,0.1-0.1,0.3,0,0.4c13.2,14.4,43,24.8,61.6,29.1l0,0c17.5,4,35.1,7.1,52.9,9.2c28.2,1.8,56.5-0.5,84-6.8
		c24-5.5,47.2-12.7,65.5-35L370.9,185.5z M218.9,367c7.5,0.4,14.9,0.4,22.4,0c21.2-1.6,38.1-2.7,55-4.1
		c19.9-1.6,115.6-16.4,141.1-31.1c20.4-11.8,25.7-34.7,13.9-57.1s-31.5-32.3-42.6-32.3c-11.1,0-28,14.6-52.2,28.3
		c-56.7,32.5-125.9,29.8-187.8,16.8l0,0c-33.3-7.1-63.9-23.6-88.2-47.5c-3.5-4.8-10.2-6.1-15.2-2.9c-11.2,6.4-22.1,12.9-32.6,20.2
		c-4.5,3.4-8.4,7.7-11.2,12.6c-3.8,5.3-5.9,11.7-6,18.2s1.8,13,5.4,18.4c4.2,6.4,10.2,11.3,17.4,14c18.4,7.3,59.9,23.5,84,31.4
		c15.7,5,31.8,8.4,48.2,10.4C186.5,364.8,202.6,366.4,218.9,367L218.9,367z"/>
</g>
</svg>
