<?xml version="1.0" encoding="utf-8"?>
<!-- Generator: Adobe Illustrator 26.0.0, SVG Export Plug-In . SVG Version: 6.00 Build 0)  -->
<svg version="1.1" id="katman_1" xmlns="http://www.w3.org/2000/svg" xmlns:xlink="http://www.w3.org/1999/xlink" x="0px" y="0px"
	 viewBox="0 0 157.2 443.3" style="enable-background:new 0 0 157.2 443.3;" xml:space="preserve">
<g>
	<path d="M0.9,286.5c21.2-55,42.4-110.1,63.7-165.2c2.4-5.1,4.6-10.3,6.5-15.6c0.5-2.2,2.9-6.2,1-10.1c-6.2-7.9-20.3-28.9-26.5-36.9
		c-2.3-2.6-2.3-6.5,0-9.2C53.8,36,61.9,22.4,70,8.8c1.1-2.1,2.3-4.1,3.7-6C75,1,77.1,0,79.3,0s4.3,1.1,5.6,2.8
		c9.6,14.2,19,28.4,28.5,42.7l0,0c3.5,4.3,3.2,10.6-0.7,14.5C104.4,71.2,97.2,82.9,90,94.7c-1.5,2.5-1.9,5.5-1.3,8.3
		c8.4,23.8,48.2,132,59,162.4c10.8,30.4,11.6,34.6,6.2,46.3c-11.2,24.6-57.2,116.4-60.6,124.4c-3.5,8-9,9.4-15,4
		c-3.5-3.2-6.4-7-8.6-11.2C60.8,413.1,7.4,313.8,4.4,308.8C0.2,302.2-1.1,294.1,0.9,286.5L0.9,286.5z M80.9,119.7
		c-1.8,3.4-42.3,110.5-62.5,162.7c-4.7,12.2-2.6,19.8,5.2,31.6c8.2,12.7,58.1,104.1,59.6,105.7c10.8-18.4,46.8-91.2,52.9-105.1
		c6.1-13.8,5.6-17.1,1.1-31C132.5,266.9,87,137,80.9,119.7L80.9,119.7z M58.5,53c5.6,8.5,19.1,28.6,20.8,31.6
		c7.4-11.6,16.1-22.8,21.6-32.4c-2.4-2.9-14.3-23.5-20.6-32.4C72.6,31.7,66,42,58.5,53L58.5,53z"/>
</g>
</svg>
