<?xml version="1.0" encoding="utf-8"?>
<!-- Generator: Adobe Illustrator 26.0.0, SVG Export Plug-In . SVG Version: 6.00 Build 0)  -->
<svg version="1.1" id="katman_1" xmlns="http://www.w3.org/2000/svg" xmlns:xlink="http://www.w3.org/1999/xlink" x="0px" y="0px"
	 viewBox="0 0 503.9 220.2" style="enable-background:new 0 0 503.9 220.2;" xml:space="preserve">
<g>
	<path d="M393.9,0c-60.7,0-110.1,49.4-110.1,110.1c0,4.3,0.3,8.6,0.8,12.8c-21-7.4-44.1-7.4-65.2-0.2c0.5-4.1,0.8-8.3,0.8-12.5
		c0-60.7-49.4-110.1-110.1-110.1C49.4,0,0,49.4,0,110.1s49.4,110.1,110.1,110.1c47.2,0,87.4-29.9,103-71.7c1.3-0.1,2.7-0.4,3.9-1.1
		c21.7-10.9,47.5-10.9,69.2,0c1.5,0.7,3,1.1,4.6,1.1c15.6,41.8,55.9,71.6,103,71.6c60.7,0,110.1-49.4,110.1-110.1
		C504,49.4,454.6,0,393.9,0L393.9,0z M301.8,134.6c-0.5-1.8-1.5-3.4-2.8-4.7c-1.3-6.4-2-13-2-19.8c0-53.5,43.5-96.9,97-96.9
		s96.9,43.5,96.9,96.9c0,53.5-43.5,97-96.9,97c-43,0-79.4-28.1-92.1-66.9C302.2,138.3,302.3,136.4,301.8,134.6L301.8,134.6z
		 M110.1,207c-53.5,0-96.9-43.5-96.9-97s43.5-96.9,96.9-96.9s96.9,43.5,96.9,97c0,6.5-0.7,12.9-1.9,19c-1.7,1.4-2.9,3.3-3.5,5.4
		s-0.5,4.4,0.2,6.5C188.9,179.4,152.7,207,110.1,207L110.1,207z"/>
</g>
</svg>
