<?xml version="1.0" encoding="utf-8"?>
<!-- Generator: Adobe Illustrator 26.0.0, SVG Export Plug-In . SVG Version: 6.00 Build 0)  -->
<svg version="1.1" id="katman_1" xmlns="http://www.w3.org/2000/svg" xmlns:xlink="http://www.w3.org/1999/xlink" x="0px" y="0px"
	 viewBox="0 0 504 208.4" style="enable-background:new 0 0 504 208.4;" xml:space="preserve">
<g>
	<path d="M387.3,0c-69,0-106.9,17.4-115,53.2c-5.8-2.5-14.6-3-19.4-3.1l0,0c-0.2,0-0.6,0-0.9,0s-0.6,0-0.9,0l0,0
		c-4.8,0.1-13.6,0.6-19.4,3.1c-8.2-35.8-46-53.2-115-53.2C50.2,0,0,40.1,0,93.2s23.4,115.2,89.5,115.2c65.4,0,144-85.6,144-139.3
		c0-3.3-0.2-6.4-0.6-9.4h0.6c0,0.6-0.3,1-0.4,1.1c1.1-1.1,7.8-3.2,18.9-3.3c11.1,0.1,17.8,2.1,18.9,3.3c-0.1-0.1-0.4-0.5-0.4-1.1
		h0.6c-0.4,3-0.6,6.1-0.6,9.4c0,53.8,78.6,139.3,144,139.3c66.1,0,89.5-62,89.5-115.2C504,40.1,453.8,0,387.3,0L387.3,0z
		 M89.5,201.1C28.9,201.1,7.3,143,7.3,93.2c0-48.9,47-85.9,109.4-85.9c74.7,0,109.4,19.6,109.4,61.7
		C226.2,119.2,149.8,201.1,89.5,201.1L89.5,201.1z M414.5,201.1c-60.3,0-136.6-81.9-136.6-132c0-42.1,34.8-61.7,109.4-61.7
		c62.4,0,109.4,36.9,109.4,85.9C496.7,143,475.2,201.1,414.5,201.1L414.5,201.1z"/>
</g>
</svg>
