<?xml version="1.0" encoding="utf-8"?>
<!-- Generator: Adobe Illustrator 26.0.0, SVG Export Plug-In . SVG Version: 6.00 Build 0)  -->
<svg version="1.1" id="katman_1" xmlns="http://www.w3.org/2000/svg" xmlns:xlink="http://www.w3.org/1999/xlink" x="0px" y="0px"
	 viewBox="0 0 504.1 173" style="enable-background:new 0 0 504.1 173;" xml:space="preserve">
<g>
	<path d="M502.4,11.6c-1.3-2.8-28.4-6.9-63.7-10.2c-29.8-2.8-77.6-0.9-96.5,1.7c-7.7,1.1-21.8,3.8-35.6,7.6
		c-15.6,4.3-30.9,9.7-37.3,11.1c-6.2,1.3-11,1.8-16,1.7v-0.1c-0.4,0-0.8,0-1.2,0c-0.4,0-0.8,0-1.2,0v0.1c-5,0.1-9.9-0.3-16-1.7
		c-6.4-1.4-21.7-6.8-37.4-11.1c-13.8-3.8-27.9-6.5-35.6-7.6c-18.8-2.6-66.7-4.5-96.5-1.7C30.1,4.7,3.1,8.8,1.7,11.6
		c-1,2.1-3.1,28.4-0.3,31.2c2.8,2.9,12.8,8.5,15.2,17.8c2.4,9.4,12.2,76.5,34.1,94.8c35.9,30.2,156.8,31.6,177.6-78.5
		c2.9-15,6.6-23.8,13.1-26.3c2.6-1,6.6-1.8,10.6-1.8s7.9,0.8,10.6,1.8c6.5,2.4,10.2,11.2,13.1,26.3
		c20.8,110.1,141.6,108.8,177.6,78.5c21.8-18.3,31.6-85.4,34-94.8c2.4-9.3,12.4-14.9,15.2-17.8C505.5,40,503.4,13.6,502.4,11.6
		L502.4,11.6z M209.5,86.7C190.7,173.1,99.7,163,77.6,156.2c-9.7-3-38-14.2-42.5-84.4C31.9,23,54.8,20,87.2,15.9
		c26.3-3.4,49.6-1.9,65.5,0.1c15.8,2,52.7,9.9,56.3,23.3C212.6,52.7,213.6,67.9,209.5,86.7L209.5,86.7z M469.1,71.9
		c-4.6,70.2-32.8,81.4-42.5,84.4c-22,6.8-113.1,16.9-131.8-69.5c-4.1-18.8-3.1-34,0.5-47.4c3.7-13.4,40.5-21.3,56.3-23.3
		c15.8-2.1,39.1-3.5,65.5-0.1C449.4,20.1,472.3,23,469.1,71.9L469.1,71.9z"/>
	<path d="M426.3,137.9c0.1-0.1,0.1-0.2,0.2-0.3C425.2,139.3,424.9,139.6,426.3,137.9z"/>
</g>
</svg>
