<?xml version="1.0" encoding="utf-8"?>
<!-- Generator: Adobe Illustrator 26.0.0, SVG Export Plug-In . SVG Version: 6.00 Build 0)  -->
<svg version="1.1" id="katman_1" xmlns="http://www.w3.org/2000/svg" xmlns:xlink="http://www.w3.org/1999/xlink" x="0px" y="0px"
	 viewBox="0 0 504 134.2" style="enable-background:new 0 0 504 134.2;" xml:space="preserve">
<g>
	<path d="M496.8,21.4c-18.6-9-41.2-15.3-67.1-18.8c-47.1-6.4-93.6-0.9-136.5,16.2C282.6,8.7,267.6,3,251.3,3
		c-16,0-30.9,5.6-41.4,15.4C167.3,1.6,121.1-3.7,74.4,2.6C48.5,6.1,25.9,12.5,7.3,21.4c-5.6,2.7-8.3,8.2-7,14.1
		c1.1,4.9,4.7,8.7,9.2,10.3c1.5,11.6,7.1,46.1,23,65.6c11.7,14.4,55,22.8,92.2,22.8c4.8,0,9.5-0.1,14-0.4
		c21.7-1.4,49.8-6.4,60.1-22.9c16.5-26.5,20.3-51.9,21.1-62.3c3.5-0.9,6.4-3,8.4-6.2c4.7-7.4,13.3-11.9,22.9-11.9
		s18.2,4.4,22.9,11.9c2.1,3.3,5.4,5.5,9.1,6.3c1.1,10.3,5.3,35.7,21.9,62.1c10.3,16.5,38.3,21.6,60,22.9c4.5,0.3,9.2,0.4,14,0.4
		c37.3,0,80.5-8.4,92.2-22.8c15.8-19.4,21.5-53.7,23-65.4c4.5-1.6,8.1-5.6,9.2-10.5C505.1,29.6,502.4,24.1,496.8,21.4L496.8,21.4z
		 M189.6,105.1c-6,9.6-24.8,16.1-51.4,17.8c-43.3,2.7-88.5-7.8-97.1-18.4C27.6,87.9,22.2,56.8,20.6,45.3l2.3-1
		c3.3-1.4,7.1-2.8,11.7-4.4c12.9-4.4,26.5-7.7,41.7-10.1c43.2-6.9,89.6-1,130,16.5c0.9,0.6,1.8,1,2.8,1.4
		C208.3,56.9,204.9,80.7,189.6,105.1L189.6,105.1z M463.1,104.5c-8.6,10.5-53.8,21-97.1,18.4c-26.7-1.7-45.4-8.2-51.4-17.8
		c-15.1-24.2-19.2-47.9-20.2-57.2c41.2-18.7,89-25.2,133.6-18c15.2,2.4,28.9,5.8,41.7,10.1c4.6,1.6,8.3,3,11.8,4.4l2.2,1
		C482,56.9,476.6,87.9,463.1,104.5L463.1,104.5z M493.1,33.1c-0.3,1.4-1.7,2.8-3.2,2.8c-0.4,0-0.9-0.1-1.3-0.3l-0.9-0.4
		c-0.4-0.2-0.9-0.4-1.2-0.5l-0.9-0.4c-3.6-1.5-7.5-3-12.4-4.6c-13.4-4.6-27.7-8.1-43.5-10.6c-46.8-7.5-96.8-0.7-140,19
		c-0.5,0.2-0.9,0.3-1.4,0.3h-1.1h-0.4c-2.2,0-3-1.2-3.3-1.7c-6.7-10.6-18.8-17-32.2-17c-13.4,0-25.4,6.3-32.2,17
		c-0.4,0.6-1.2,1.5-3.3,1.7h-0.5c-1.2-0.1-2.3-0.6-3.3-1.2l-1-0.5c-42.4-18.5-91.1-24.8-136.6-17.5c-15.8,2.5-30.1,6-43.5,10.6
		c-4.9,1.7-8.8,3.1-12.6,4.7l-2.7,1.2c-2.2,1.1-4.2-0.7-4.6-2.5c-0.2-0.8-0.1-1.3,1-1.8c17.6-8.5,39-14.5,63.8-17.8
		c46-6.3,91.5-0.6,133.2,16.5l3.5,1.4l2.6-2.8c8.5-9.3,21.7-14.6,36.1-14.6c14.6,0,27.9,5.5,36.4,15l2.6,2.9l3.6-1.5
		c42.1-17.4,87.9-23.2,134.3-16.9c24.8,3.4,46.2,9.4,63.8,17.8C493.2,31.8,493.3,32.3,493.1,33.1L493.1,33.1z"/>
</g>
</svg>
