<?xml version="1.0" encoding="utf-8"?>
<!-- Generator: Adobe Illustrator 26.0.0, SVG Export Plug-In . SVG Version: 6.00 Build 0)  -->
<svg version="1.1" id="katman_1" xmlns="http://www.w3.org/2000/svg" xmlns:xlink="http://www.w3.org/1999/xlink" x="0px" y="0px"
	 viewBox="0 0 504 179.1" style="enable-background:new 0 0 504 179.1;" xml:space="preserve">
<g>
	<path d="M498.1,76H487c-0.7,0-1.3,0.2-1.9,0.4c-1-78.2-82.5-79.7-127.8-74.5c-9.3,1.1-20,2.7-30.4,5.4c0.7-0.3,1.1-1,1.1-1.8
		c0-1.1-0.9-2-2-2H176c-1.1,0-1.9,0.9-1.9,2c0,0.7,0.4,1.2,0.9,1.5c-10.1-2.6-20.5-4.1-29.4-5.2C100.4-3.4,19-2,17.9,76.1
		c-0.3,0-0.5-0.2-0.8-0.2H5.9c-3.3,0-5.9,2.6-5.9,5.9s2.6,5.9,5.9,5.9h11.2c0.4,0,0.7-0.1,1-0.2c4.1,71.7,53.3,91.4,71.8,91.5
		c22.8,0.2,53.3-8.5,85.5-36.8c28.7-25.1,47.3-66.6,47.3-91c0-3.2-0.5-6.1-1.1-8.9c0.1-10.7,8.7-14.5,19.4-14.5h20.2
		c10.7,0,19.4,3.9,19.4,14.6v3.7c-0.2,1.7-0.4,3.4-0.4,5.2c0,24.4,18.7,65.8,47.3,91c32.3,28.3,62.7,37,85.5,36.8
		c18.6-0.2,67.8-19.8,71.8-91.7c0.7,0.2,1.4,0.4,2.1,0.4h11.2c3.2,0,5.9-2.6,5.9-5.9S501.4,76,498.1,76L498.1,76z M282.5,38.3v-0.7
		c0-11.4-9.2-15.5-20.6-15.5h-21.5c-11.1,0-20.1,4-20.6,14.8c-6.7-15.7-24.3-24.4-43-29.4h149.4c0.1,0,0.3-0.1,0.4-0.1
		C307.1,12.6,288.7,21.6,282.5,38.3L282.5,38.3z"/>
</g>
</svg>
