<?xml version="1.0" encoding="utf-8"?>
<!-- Generator: Adobe Illustrator 26.0.0, SVG Export Plug-In . SVG Version: 6.00 Build 0)  -->
<svg version="1.1" id="katman_1" xmlns="http://www.w3.org/2000/svg" xmlns:xlink="http://www.w3.org/1999/xlink" x="0px" y="0px"
	 viewBox="0 0 503.8 283.5" style="enable-background:new 0 0 503.8 283.5;" xml:space="preserve">
<g>
	<path d="M79.3,177.1c15.8,6.8,64.2,22.5,172.5,22.5s156.7-15.7,172.5-22.5c2.7-1.2,4.4-3.9,4.1-6.9l-0.8-9.6
		c-2.7-32.7-5.8-69.8-16.8-98C386.5,0,330,0,251.8,0s-134.7,0-159,62.6c-10.9,28.2-14,65.3-16.8,98l-0.8,9.6
		C74.9,173.1,76.6,175.9,79.3,177.1L79.3,177.1z M89.6,161.8c2.7-31.8,5.7-67.9,15.9-94.2c20-51.6,61.6-53.9,146.3-53.9
		S378.1,16,398.1,67.6c10.2,26.3,13.2,62.4,15.9,94.2l0.4,4.6c-18.8,7.1-65.8,19.6-162.6,19.6S108,173.5,89.2,166.4L89.6,161.8z"/>
	<path d="M500.2,191.9c-10.3-15.9-28.6-7.7-46.3,0.2c-9.3,4.1-18.8,8.4-28.6,10.5c-0.3,0.1-0.6,0.2-0.9,0.3
		c-0.6,0.2-65.4,23.9-172.5,23.9c-116.3,0-171.6-23.5-172.1-23.8c-0.4-0.2-0.9-0.3-1.3-0.4c-9.8-2.1-19.4-6.4-28.6-10.5
		c-17.7-7.9-36-16.1-46.3-0.2c-4.9,7.5-4.8,16.6,0.1,25.8c16.5,30.4,91.4,65.8,248.3,65.8s231.8-35.5,248.3-65.8
		C505,208.5,505,199.4,500.2,191.9L500.2,191.9z M488.1,211.1c-11,20.3-74.5,58.7-236.3,58.7S26.5,231.4,15.5,211.1
		c-2.5-4.6-2.7-8.6-0.6-11.8c1.3-1.9,3.1-2.8,5.8-2.8c4.9,0,12.4,3,23.6,8c9.3,4.1,19.7,8.8,30.6,11.3c6.9,2.9,62.9,24.7,177,24.7
		c106.1,0,170.2-22.2,176.8-24.6c11-2.5,21.5-7.2,30.8-11.3c17.2-7.7,25.7-10.7,29.3-5.2C490.8,202.5,490.6,206.5,488.1,211.1
		L488.1,211.1z"/>
</g>
</svg>
