<?xml version="1.0" encoding="utf-8"?>
<!-- Generator: Adobe Illustrator 26.0.0, SVG Export Plug-In . SVG Version: 6.00 Build 0)  -->
<svg version="1.1" id="katman_1" xmlns="http://www.w3.org/2000/svg" xmlns:xlink="http://www.w3.org/1999/xlink" x="0px" y="0px"
	 viewBox="0 0 559.9 443.4" style="enable-background:new 0 0 559.9 443.4;" xml:space="preserve">
<g>
	<path d="M280,398.7c-86.5,0-178.4-22.9-178.4-65.3c0-5.2,4.2-9.4,9.4-9.4s9.4,4.2,9.4,9.4c0,19.4,60.7,46.5,159.6,46.5
		s159.6-27.1,159.6-46.5c0-5.2,4.2-9.4,9.4-9.4s9.4,4.2,9.4,9.4C458.4,375.8,366.5,398.7,280,398.7L280,398.7z"/>
	<path d="M280,138c-91.8,0-189.3-24.2-189.3-69.2C90.7,24.1,188.2,0,280,0s189.3,24.1,189.3,68.8C469.3,113.8,371.8,138,280,138
		L280,138z M280,18.9c-105.6,0-170.4,29.1-170.4,50c0,21,64.8,50.3,170.4,50.3s170.4-29.3,170.4-50.3C450.4,48,385.6,18.8,280,18.9z
		"/>
	<path d="M111,342.8c-0.2,0-0.5,0-0.7,0c-5.2-0.4-9.1-4.9-8.7-10.1c5.4-70,1.7-158.4-10.8-262.7c-0.6-5.2,3.1-9.9,8.2-10.5
		c5.3-0.6,9.9,3.1,10.5,8.2c12.7,105.5,16.4,195.1,10.9,266.3C120,339,115.9,342.8,111,342.8L111,342.8z"/>
	<path d="M449,342.8c-4.9,0-9-3.8-9.4-8.7c-5.5-71.2-1.8-160.8,10.9-266.4c0.6-5.2,5.2-8.9,10.5-8.2c5.2,0.6,8.8,5.3,8.2,10.5
		c-12.6,104.3-16.2,192.7-10.8,262.7c0.4,5.2-3.5,9.7-8.7,10.1C449.5,342.8,449.2,342.8,449,342.8L449,342.8z"/>
	<path d="M280,443.4c-135.7,0-280-34.8-280-99.2c0-32.9,39.5-61.2,111.2-79.7c5-1.3,10.2,1.7,11.5,6.8s-1.7,10.2-6.8,11.5
		c-59.9,15.4-97.1,39-97.1,61.5c0,38,107.2,80.3,261.1,80.3s261.2-42.3,261.2-80.3c0-22.5-37.2-46.1-97.1-61.5
		c-5-1.3-8.1-6.4-6.8-11.5c1.3-5,6.4-8.1,11.5-6.8c71.7,18.5,111.2,46.8,111.2,79.7C560,408.6,415.7,443.4,280,443.4L280,443.4z"/>
</g>
</svg>
