<?xml version="1.0" encoding="utf-8"?>
<!-- Generator: Adobe Illustrator 26.0.0, SVG Export Plug-In . SVG Version: 6.00 Build 0)  -->
<svg version="1.1" id="katman_1" xmlns="http://www.w3.org/2000/svg" xmlns:xlink="http://www.w3.org/1999/xlink" x="0px" y="0px"
	 viewBox="0 0 504 321.2" style="enable-background:new 0 0 504 321.2;" xml:space="preserve">
<g>
	<path d="M424.7,172.1L408,95.4C395.7,41.6,354.8,5.5,306.5,5.5l0,0L195.7,0c-43.2,0-93.6,30.7-103.3,81.8l-20.5,94.6
		C24.9,189.5,0,207.5,0,228.6c0,10.6,5.6,21.8,16.2,32.2C45.9,290,122,321.2,246.6,321.2l0,0c3.8,0,7.6,0,11.4-0.1
		c144.9-2.2,246-40.3,246-92.5C504,202.5,478,184.1,424.7,172.1L424.7,172.1z M86.2,187.1c1-1.6,1.5-3.5,1.2-5.5l3.4-15.4
		c19.3,12.3,84.2,49.5,166.1,49.5c53.8,0,104.3-16,150.4-47.6l6.2,28.7c-21.6,32.5-39.1,48.7-82,58c-18.8,4.1-56.8,6.3-76,6.3
		c-19.3,0-60.7-3-82-5.5c-44.2-5.1-65.1-18-88.9-55l-0.7-2.3L86.2,187.1z M195.4,16.3l110.8,5.5l0,0c41,0,75.6,31.1,86.1,77.2
		l11.3,51.9c-44.8,32.2-94.1,48.6-146.7,48.6c-91.3,0-161.2-49.4-162.4-50.3l13.9-64.1C116.5,42,159.2,16.3,195.4,16.3L195.4,16.3z
		 M257.8,304.8c-3.8,0.1-7.4,0.3-11.2,0.1c-119.8,0-192.9-30-219-55.7c-7.3-7.2-11.3-14.5-11.3-20.6c0-9.1,13.9-22.3,51.7-34.1
		l-0.5,2.5c-0.3,1.4-0.2,2.8,0.2,4.2l1.7,5.4c0.2,0.7,0.5,1.3,0.9,1.9c26.6,41.6,52.2,57.6,101.3,63.3c21.8,2.5,64,5.6,83.9,5.6
		c19.8,0,59.5-2.4,79.4-6.7c48.8-10.5,69.7-30.8,93.5-67l0.5-0.8c1.2-1.8,1.6-4,1.1-6.2l-1.5-6.9c39.3,9.7,59.2,22.7,59.2,38.8
		C487.7,263.8,407.2,302.5,257.8,304.8L257.8,304.8z"/>
</g>
</svg>
