<?xml version="1.0" encoding="utf-8"?>
<!-- Generator: Adobe Illustrator 26.0.0, SVG Export Plug-In . SVG Version: 6.00 Build 0)  -->
<svg version="1.1" id="katman_1" xmlns="http://www.w3.org/2000/svg" xmlns:xlink="http://www.w3.org/1999/xlink" x="0px" y="0px"
	 viewBox="0 0 504 265.2" style="enable-background:new 0 0 504 265.2;" xml:space="preserve">
<g>
	<path d="M384.7,63.9L352,5.5c-1.9-3.5-5.5-5.6-9.7-5.5l-203,5.8c-4.2,0.1-8,2.7-9.6,6.6l-22.8,55.2C36,85.9,0,115.9,0,156.9
		c0,60.7,110.7,108.3,252,108.3s252-47.6,252-108.3C504,114.9,461.6,82,384.7,63.9L384.7,63.9z M110.9,114.4l2.4-5.7
		c1.7,1.4,3.5,2.8,5.4,4.2c0.6,0.4,1.2,0.8,1.8,1.2c1.4,1,2.9,1.9,4.5,2.9c0.8,0.5,1.6,0.9,2.4,1.4c1.5,0.9,3.1,1.7,4.7,2.5
		c0.8,0.4,1.7,0.9,2.5,1.3c1.9,0.9,3.9,1.8,5.9,2.7c0.6,0.3,1.2,0.6,1.9,0.8c2.7,1.1,5.4,2.2,8.3,3.2c0.7,0.3,1.5,0.5,2.3,0.8
		c2.2,0.7,4.4,1.5,6.7,2.1c1.1,0.3,2.2,0.6,3.3,0.9c2.1,0.6,4.2,1.2,6.3,1.7c1.2,0.3,2.3,0.6,3.5,0.9c2.3,0.6,4.7,1.1,7.2,1.6
		c1,0.2,1.9,0.4,2.9,0.6c3.4,0.7,6.9,1.3,10.4,1.8c0.6,0.1,1.2,0.2,1.8,0.3c3,0.4,6,0.8,9,1.2c1.2,0.1,2.5,0.3,3.7,0.4
		c2.5,0.3,5.1,0.5,7.6,0.7c1.3,0.1,2.7,0.2,4.1,0.3c2.6,0.2,5.3,0.3,8,0.4c1.2,0.1,2.4,0.1,3.7,0.2c3.9,0.1,7.8,0.2,11.8,0.2l0,0
		c3.2,0,6.3-0.1,9.5-0.2c0.7,0,1.3,0,2-0.1c3.1-0.1,6.2-0.3,9.3-0.4c0.5,0,1-0.1,1.5-0.1c2.9-0.2,5.7-0.4,8.6-0.7
		c0.5,0,1-0.1,1.5-0.1c3.1-0.3,6.1-0.7,9.2-1c0.6-0.1,1.3-0.2,1.9-0.3c6.2-0.8,12.3-1.8,18.3-3c0.6-0.1,1.2-0.2,1.8-0.4
		c2.9-0.6,5.8-1.2,8.6-1.9c0.4-0.1,0.9-0.2,1.3-0.3c2.6-0.6,5.2-1.3,7.7-2.1c0.4-0.1,0.8-0.2,1.2-0.3c2.7-0.8,5.4-1.6,8-2.5
		c0.5-0.2,1.1-0.4,1.6-0.5c2.6-0.9,5.2-1.8,7.7-2.8c0,0,0,0,0.1,0c2.5-1,4.8-2,7.1-3.1c0.5-0.2,0.9-0.4,1.4-0.6
		c2.2-1.1,4.4-2.2,6.5-3.3c0.3-0.2,0.7-0.4,1-0.6c1.9-1.1,3.7-2.2,5.5-3.3c0.3-0.2,0.6-0.4,0.9-0.5c1.9-1.2,3.6-2.5,5.3-3.9
		c0.4-0.3,0.7-0.6,1.1-0.9c1.7-1.4,3.3-2.8,4.7-4.2c0.1-0.1,0.1-0.1,0.2-0.2c1.4-1.4,2.6-2.9,3.8-4.3c0.2-0.2,0.4-0.4,0.5-0.6
		l9.2,16.4c1.4,2.7,2.1,5.2,2.1,7.8c0,11.5-14.2,24.1-38.1,33.8c-27.6,11.2-64.6,17.3-104.1,17.3c-81.4,0-142.2-27-142.2-51.1
		C107.5,123.1,109.1,118.3,110.9,114.4L110.9,114.4z M146.9,27l189.6-5.4l30.9,55.2c0,0.2,0.1,0.5,0.1,0.6c0,20.8-53.3,44-124.6,44
		l0,0c-4,0-7.8-0.1-11.7-0.2c-1.3,0-2.5-0.1-3.8-0.2c-2.5-0.1-5-0.2-7.5-0.4c-1.5-0.1-2.9-0.3-4.3-0.4c-2.2-0.2-4.4-0.4-6.5-0.6
		c-1.5-0.2-2.9-0.4-4.4-0.5c-2-0.3-4-0.5-6-0.8c-1.5-0.2-2.9-0.5-4.3-0.7c-1.9-0.3-3.8-0.6-5.6-1c-1.4-0.3-2.8-0.5-4.2-0.8
		c-1.8-0.4-3.5-0.7-5.2-1.1c-1.3-0.3-2.6-0.6-3.9-0.9c-1.7-0.4-3.3-0.8-4.9-1.3c-1.2-0.3-2.5-0.7-3.7-1c-1.6-0.5-3.1-0.9-4.6-1.4
		c-1.1-0.4-2.3-0.7-3.4-1.1c-1.5-0.5-2.9-1-4.3-1.6c-1-0.4-2.1-0.8-3.1-1.2c-1.4-0.6-2.7-1.1-4-1.7c-0.9-0.4-1.8-0.8-2.7-1.2
		c-1.3-0.6-2.5-1.2-3.7-1.8c-0.8-0.4-1.6-0.8-2.3-1.2c-1.2-0.7-2.3-1.3-3.4-2c-0.6-0.4-1.3-0.8-1.9-1.1c-1.2-0.8-2.3-1.6-3.3-2.4
		c-0.4-0.3-0.9-0.6-1.2-0.9c-1.4-1.1-2.7-2.2-3.8-3.4l-0.1-0.1c-1.1-1.1-2-2.1-2.8-3.2l2.6-6.4l0,0L146.9,27z M252,243.8
		c-137.9,0-230.6-44.9-230.6-86.8c0-32.5,37.2-52.3,75.1-64.1L91.1,106c-1.2,2.7-5.1,12-5.1,18.8c0,41.4,70.3,72.6,163.6,72.6
		c42.2,0,82-6.7,112.1-18.9c33.2-13.4,51.5-32.5,51.5-53.7c0-6-1.5-11.9-4.6-17.9L399.1,90c53.3,15.7,83.4,39.6,83.4,67.1
		C482.5,198.9,389.9,243.8,252,243.8L252,243.8z"/>
</g>
</svg>
