<?xml version="1.0" encoding="utf-8"?>
<!-- Generator: Adobe Illustrator 26.0.0, SVG Export Plug-In . SVG Version: 6.00 Build 0)  -->
<svg version="1.1" id="katman_1" xmlns="http://www.w3.org/2000/svg" xmlns:xlink="http://www.w3.org/1999/xlink" x="0px" y="0px"
	 viewBox="0 0 504 428.9" style="enable-background:new 0 0 504 428.9;" xml:space="preserve">
<g>
	<path d="M412.9,313.2l39.8-265.6c0-0.1,0-0.2,0-0.2c0-0.2,0-0.4,0-0.6c0-0.5-0.1-0.9-0.2-1.3c-0.1-0.2-0.1-0.4-0.2-0.6
		c-0.2-0.4-0.4-0.8-0.6-1.2c-0.1-0.2-0.2-0.3-0.4-0.5c-0.4-0.5-0.9-0.9-1.6-1.2C448.9,41.6,365.8,0,252,0S55.1,41.6,54.3,42
		c-2.1,1.1-3.3,3.4-2.9,5.7l47.7,323.4H28.9C13,371.1,0,384.1,0,400c0,15.9,13,28.9,28.9,28.9h446.2c15.9,0,28.9-13,28.9-28.9
		c0-15.9-13-28.9-28.9-28.9h-70.9l8-53.1 M62.9,50c16.7-7.7,91.2-39.2,189.2-39.2c3.3,0,6.5,0,9.8,0.1c1.1,0,2.1,0.1,3.2,0.1
		c2.1,0.1,4.3,0.1,6.4,0.2c1.2,0.1,2.5,0.1,3.7,0.2c1.9,0.1,3.8,0.2,5.8,0.3c1.3,0.1,2.5,0.2,3.8,0.3c1.8,0.1,3.7,0.3,5.5,0.4
		c1.3,0.1,2.5,0.2,3.8,0.3c1.8,0.2,3.6,0.3,5.4,0.5c1.2,0.1,2.4,0.2,3.6,0.4c1.9,0.2,3.7,0.4,5.5,0.6c1.1,0.1,2.2,0.3,3.3,0.4
		c2.1,0.3,4.2,0.6,6.3,0.9c0.7,0.1,1.5,0.2,2.2,0.3c2.8,0.4,5.6,0.8,8.3,1.3c0.8,0.1,1.6,0.3,2.5,0.4c1.9,0.3,3.8,0.6,5.7,1
		c1.1,0.2,2.2,0.4,3.2,0.6c1.6,0.3,3.1,0.6,4.7,0.9c1.1,0.2,2.2,0.4,3.3,0.7c1.5,0.3,2.9,0.6,4.3,0.9c1.1,0.2,2.2,0.5,3.3,0.7
		c1.4,0.3,2.8,0.6,4.1,0.9c1.1,0.2,2.2,0.5,3.2,0.8c1.3,0.3,2.7,0.6,4,1c1,0.2,2,0.5,3,0.8c1.4,0.3,2.7,0.7,4.1,1.1
		c0.9,0.2,1.8,0.5,2.7,0.7c1.8,0.5,3.5,1,5.2,1.4c0.9,0.3,1.8,0.5,2.6,0.8c1.6,0.4,3.1,0.9,4.6,1.3c0.9,0.3,1.8,0.5,2.7,0.8
		c1.1,0.3,2.2,0.7,3.3,1c0.9,0.3,1.8,0.6,2.7,0.9c1,0.3,1.9,0.6,2.9,0.9c0.9,0.3,1.8,0.6,2.7,0.9c0.9,0.3,1.8,0.6,2.7,0.9
		c0.9,0.3,1.7,0.6,2.5,0.9s1.7,0.6,2.5,0.9s1.6,0.6,2.4,0.9c0.8,0.3,1.6,0.6,2.3,0.8c0.7,0.3,1.5,0.5,2.2,0.8
		c0.8,0.3,1.5,0.6,2.3,0.9c0.6,0.2,1.3,0.5,1.9,0.7c1.3,0.5,2.5,1,3.6,1.4c0.7,0.3,1.3,0.5,1.9,0.8c0.6,0.2,1.1,0.5,1.7,0.7
		c0.6,0.2,1.2,0.5,1.7,0.7s1,0.4,1.4,0.6c0.5,0.2,1.1,0.4,1.6,0.7c0.4,0.2,0.9,0.4,1.3,0.6c0.5,0.2,0.9,0.4,1.3,0.6
		c0.4,0.2,0.8,0.4,1.2,0.5c0.4,0.2,0.7,0.3,1,0.5c0.4,0.2,0.8,0.3,1.1,0.5c0.3,0.1,0.5,0.2,0.8,0.4c0.1,0,0.1,0.1,0.2,0.1
		l-38.7,258.9H101.1L62.9,50z M400.8,320.4l-7.6,50.7h-283l-7.5-50.7H400.8z M475.2,417.9H29c-9.9,0-17.9-8.1-17.9-17.9
		c0-9.9,8.1-17.9,17.9-17.9h446.2c9.9,0,17.9,8.1,17.9,17.9C493.1,409.9,485.1,417.9,475.2,417.9L475.2,417.9z"/>
</g>
</svg>
