<?xml version="1.0" encoding="utf-8"?>
<!-- Generator: Adobe Illustrator 26.0.0, SVG Export Plug-In . SVG Version: 6.00 Build 0)  -->
<svg version="1.1" id="katman_1" xmlns="http://www.w3.org/2000/svg" xmlns:xlink="http://www.w3.org/1999/xlink" x="0px" y="0px"
	 viewBox="0 0 334.8 561.1" style="enable-background:new 0 0 334.8 561.1;" xml:space="preserve">
<g>
	<path d="M316.1,1.2L213.5,58.3h-93.3L17.5,2.3C9.3-2.4,0,3.5,0,11.6V105c0,4.7,2.3,8.2,5.8,10.5l63,35l33.8,45.5L78.1,471.3
		c0,3.5,1.2,7,3.5,9.3l77,77c4.7,4.7,11.7,4.7,16.3,0l77-77c2.3-2.3,3.5-5.8,3.5-9.3L231,196l33.8-45.5l64.2-35
		c3.5-2.3,5.8-5.8,5.8-10.5V11.7C333.6,2.3,324.3-2.3,316.1,1.2L316.1,1.2z M212.3,179.7h-92.2L91,140l32.7-58.3h84
		c2.3,3.5,31.5,56,32.7,59.5L212.3,179.7z M23.3,31.5l78.2,43.2c-25.7,45.5-19.8,36.2-28,50.2L23.3,98V31.5z M166.8,532l-65.3-65.3
		L126,201.9h81.7L231,466.7L166.8,532z M310.3,96.8l-50.2,28l-28-50.2l78.2-43.2V96.8z"/>
</g>
</svg>
