<?xml version="1.0" encoding="utf-8"?>
<!-- Generator: Adobe Illustrator 26.0.0, SVG Export Plug-In . SVG Version: 6.00 Build 0)  -->
<svg version="1.1" id="katman_1" xmlns="http://www.w3.org/2000/svg" xmlns:xlink="http://www.w3.org/1999/xlink" x="0px" y="0px"
	 viewBox="0 0 3778.7 2491.5" style="enable-background:new 0 0 3778.7 2491.5;" xml:space="preserve">
<g>
	<path d="M3524,287.3l-1.9-0.5v-59.9c0-59.4-47.7-116.4-130.1-157.1c-82.4-40.3-194.7-61.4-308-57.4L1129.1,83.5
		c-19.7-27.5-55.2-51.1-105.8-66.3C945.6-5.8,853.9-5.8,777.1,17.7c-3.7,1-6.6,2-9.4,3.4L197.5,258.3C75.8,297.1,0,367.3,0,441.9
		v1662.8c0,37.8,31.8,71.7,82.4,95.2v248.4c0,23.6,36.5,43.2,82.4,43.2s82.4-19.1,82.4-43.2v-215h82.4v215
		c0,23.6,36.5,43.2,82.4,43.2s82.4-19.1,82.4-43.2v-215h163.8v215c0,23.6,36.5,43.2,82.4,43.2s82.4-19.1,82.4-43.2v-215h82.4v215
		c0,23.6,36.5,43.2,82.4,43.2c44.9,0,82.4-19.1,82.4-43.2v-248.4c49.6-23.6,82.4-57.4,82.4-95.2v-828.2
		c79.6,7.4,162,12.3,245.3,12.3c531.8,0,994.3-157.1,1228.4-387.3v1203.3c0,37.8,31.8,71.7,82.4,95.2v248.4
		c0,23.6,36.5,43.2,82.4,43.2s82.4-19.1,82.4-43.2v-215h82.4v215c0,23.6,36.5,43.2,82.4,43.2c45.9,0,82.4-19.1,82.4-43.2v-215h163.8
		v215c0,23.6,36.5,43.2,82.4,43.2c44.9,0,82.4-19.1,82.4-43.2v-215h82.4v215c0,23.6,36.5,43.2,82.4,43.2c45.9,0,82.4-19.1,82.4-43.2
		v-248.4c49.6-23.6,82.4-57.4,82.4-95.2V510.1C3767.4,418.8,3674.8,333.4,3524,287.3L3524,287.3z M3095.2,98.2
		c69.3-2.5,134.8,9.8,184.4,34.4c50.6,24.5,77.7,57.9,77.7,94.3v9.8l-253.7-77.6c-77.7-23.6-171.3-29.9-256.5-17.7
		c-80.5,11.8-147,38.8-186.3,76.1c-27.2,25.5-41.2,54-41.2,83c0,79.5-45.9,153.2-124.5,215H1271.4c-64.6-50.1-106.7-109-119.8-171.8
		c0.9,0,2.8,0,4.7,0l737.8-43.2c44.9-2.5,77.7-24.1,72.1-47.6c-4.7-23.6-44.9-40.7-90.8-37.8l-728.4,42.2v-88.4L3095.2,98.2z
		 M2346.2,601.5c-126.4,53.5-287.4,85.9-462.5,85.9s-336.1-32.4-462.5-85.9H2346.2z M982.1,2104.7c0,23.6-36.5,43.2-82.4,43.2H408.2
		v-257.7c0-23.6-36.5-43.2-82.4-43.2s-82.4,19.1-82.4,43.2v257.7c-44.9,0-82.4-19.1-82.4-43.2V901.4
		c65.5,64.3,147.9,122.7,245.3,173.8v299.5c0,23.6,36.5,43.2,82.4,43.2s82.4-19.1,82.4-43.2v-227.3c30.9,11.8,62.7,22.6,94.6,33.4
		c-7.5,6.4-13.1,13.7-13.1,21.6V1546c0,23.6,36.5,43.2,82.4,43.2s82.4-19.1,82.4-43.2v-323c53.4,12.8,107.7,24.1,163.8,33.4
		L982.1,2104.7z M1392.2,1202.8c-677.8,0-1228.4-289.2-1228.4-644.1V442.4c0-45.7,46.8-88.4,121.7-111.4c3.7-1,6.6-2,9.4-3.4
		l36.5-15.2c31.8,235.2,267.8,450.2,646,582.2l123.6,43.2c14,4.9,30,7.4,44.9,7.4c26.2,0,52.4-6.9,68.3-19.1
		c25.3-19.6,15-46.6-22.5-59.4l-123.6-43.2C706.9,697.2,491.5,485.6,491.5,258.3c0-3.4-1.9-6.9-3.7-10.3l92.7-38.8
		c19.7,120.3,81.5,238.6,184.4,346.1l62.7,65.8c14,15.2,43.1,23.6,73,23.6c12.2,0,25.3-1.5,36.5-4.4c40.3-10.8,57.1-36.3,36.5-57.4
		L911,517C801.4,401.2,741.5,272,737.8,142.9l125.5-52.5c35.6-9.3,65.5-2.5,77.7,1c12.2,3.9,41.2,14.7,41.2,37.3v171.8
		c0,106.5,68.3,204.2,181.6,283.3c2.8,2,4.7,3.9,7.5,5.4c164.8,111.4,422.2,184.1,711.5,184.1s544.9-72.2,710.6-183.1
		c4.7-2,7.5-4.4,11.2-6.9c4.7-3.4,11.2-6.9,15.9-10.3C2606.5,921,2060.7,1202.8,1392.2,1202.8L1392.2,1202.8z M3030.6,2147.4v-558.2
		c0-23.6-36.5-43.2-82.4-43.2c-45.9,0-82.4,19.1-82.4,43.2v558.2c-44.9,0-82.4-19.1-82.4-43.2V300.5c0-14.7,6.6-29,20.6-41.7
		c17.8-17.2,48.7-29.5,86.1-34.9c15-2,29-2.9,44.9-2.9c4.7,0,8.4,0.5,12.2,1v550.8c0,23.6,36.5,43.2,82.4,43.2
		c45.9,0,82.4-19.1,82.4-43.2v-512l87.1,26.5c-2.8,3.9-4.7,8.3-4.7,13.3v773.2c0,23.6,36.5,43.2,82.4,43.2s82.4-19.1,82.4-43.2
		V335.9l83.3,25.5c100.2,30.9,162.9,87.4,162.9,148.3v1595c0,23.6-36.5,43.2-82.4,43.2L3030.6,2147.4z"/>
</g>
</svg>
