<?xml version="1.0" encoding="utf-8"?>
<!-- Generator: Adobe Illustrator 26.0.0, SVG Export Plug-In . SVG Version: 6.00 Build 0)  -->
<svg version="1.1" id="katman_1" xmlns="http://www.w3.org/2000/svg" xmlns:xlink="http://www.w3.org/1999/xlink" x="0px" y="0px"
	 viewBox="0 0 229.5 504" style="enable-background:new 0 0 229.5 504;" xml:space="preserve">
<g>
	<path d="M75.9,215.5l68.7-68.7l-4.1-31c0-0.3-0.2-0.5-0.2-0.6c0.1-0.3,0.2-0.4,0.3-0.7L143,104l-21.3-26.4
		c-1.8-2.3-4.3-3.6-6.9-3.6c-2.7,0-5.2,1.3-7,3.6l-21.4,26.5l2.4,10.4c0.1,0.3,0.2,0.4,0.4,0.7c-0.1,0.1-0.3,0.3-0.3,0.6L75.9,215.5
		z"/>
	<path d="M68.4,273.1l82-81.9v-0.1l-2.6-19.1l-76.2,76.1L68.4,273.1z"/>
	<path d="M54.3,381.2l106.9-106.9l-7.7-58.2l-89.4,89.4L54.3,381.2z"/>
	<path d="M164.8,301.6l-0.3-2.3L50.1,413.7l-2,15c0.3,0.7,0.5,1.6,0.8,2.4l3.8,4.5L167.3,321L164.8,301.6z"/>
	<path d="M65.8,450.6l43.8,51.3c2.4,2.9,7.8,2.9,10.4,0l61.4-71.8c0-0.2,0.1-0.3,0.1-0.5l-11-83.7L65.8,450.6z"/>
	<path d="M224.1,0.4L116.4,47.8c-1,0.4-2.1,0.4-3.1,0L5.5,0.4C2.2-1.1-1.1,2.3,0.4,5.6l48,109.3c1.1,2.5,4.4,3.1,6.4,1.2l46-46
		c7.7-7.7,20.3-7.7,28,0l46,46c2,2,5.3,1.3,6.4-1.2l48-109.3C230.7,2.3,227.4-1,224.1,0.4L224.1,0.4z"/>
</g>
</svg>
