<?xml version="1.0" encoding="utf-8"?>
<!-- Generator: Adobe Illustrator 26.0.0, SVG Export Plug-In . SVG Version: 6.00 Build 0)  -->
<svg version="1.1" id="Layer_1" xmlns="http://www.w3.org/2000/svg" xmlns:xlink="http://www.w3.org/1999/xlink" x="0px" y="0px"
	 viewBox="0 0 512 393.5" style="enable-background:new 0 0 512 393.5;" xml:space="preserve">
<g>
	<g>
		<path d="M496.4,116.2L335,4.4c-4-2.9-8.1-4.3-12.3-4.3c-9.1,0-14,6.9-14.5,7.7l-0.1,0.1c-0.2,0.3-18.8,29-52.1,29
			c-21.3,0-40.7-10.8-52-28.9c-2.2-3.8-7.2-8.1-14.3-8.1c-4,0-8.2,1.4-12.4,4.2L15.6,116.2c-13.9,9.6-19.3,27.3-13.1,43
			c0.8,2.1,5.7,14.1,16.5,31.1V252c0,4.2,3.4,7.6,7.6,7.6s7.6-3.4,7.6-7.6v-39.9c9.3,14.1,22.4,26.1,23,26.7v47.3
			c0,4.2,3.4,7.6,7.6,7.6c4.2,0,7.6-3.4,7.6-7.6v-32.5c7.4,6.7,15,13.1,23,19.2v40.3c0,4.2,3.4,7.6,7.6,7.6s7.6-3.4,7.6-7.6v-29.3
			c6.5,4.4,22,13.8,23,14.4v35.8c0,4.2,3.4,7.6,7.6,7.6s7.6-3.4,7.6-7.6v-27.4c6.7,3.6,14.6,7.6,23,11.6v35.8c0,4.2,3.4,7.6,7.6,7.6
			s7.6-3.4,7.6-7.6v-29c7.5,3.2,15.3,6.2,23,8.8V373c0,4.2,3.4,7.6,7.6,7.6s7.6-3.4,7.6-7.6v-34.7c7.9,2,15.7,3.5,23,4.1v43.4
			c0,4.2,3.4,7.6,7.6,7.6c4.2,0,7.6-3.4,7.6-7.6v-43.4c7.3-0.6,15.1-2.1,23-4.1v34.5c0,4.2,3.4,7.6,7.6,7.6s7.6-3.4,7.6-7.6v-39.1
			c7.8-2.6,15.5-5.6,23-8.8v28.9c0,4.2,3.4,7.6,7.6,7.6s7.6-3.4,7.6-7.6v-35.7c8.5-4,16.3-8,23-11.6V334c0,4.2,3.4,7.6,7.6,7.6
			s7.6-3.4,7.6-7.6v-35.7c1.1-0.6,16.5-10,23-14.4V313c0,4.2,3.4,7.6,7.6,7.6s7.6-3.4,7.6-7.6v-40.2c8-6.1,15.7-12.5,23-19.2V286
			c0,4.2,3.4,7.6,7.6,7.6s7.6-3.4,7.6-7.6v-47.2c0.6-0.6,15.4-14.2,23-26.7v39.8c0,4.2,3.4,7.6,7.6,7.6c4.2,0,7.6-3.4,7.6-7.6v-61.6
			c10.7-17,15.6-28.9,16.4-31C515.6,143.5,510.2,125.8,496.4,116.2z M185.8,16.8c4.3-3.3,5.2-0.8,5.2-0.8
			c14.1,22.6,38.4,36.2,65,36.2c40.1,0,64.8-35.8,64.8-35.9c0,0,1.8-2.4,5.3,0.5l8.6,5.9c-16.6,27.7-46.1,44.7-78.7,44.7
			c-32.5,0-62.1-16.9-78.7-44.6L185.8,16.8z M98.6,77.2c9.6,11.8,19,21.7,28.5,30.2c20,17.7,38.8,32.7,56,44.6
			c1.3,0.9,7.1,3.3,10.6-1.9c2.3-3.5,1.5-8.2-1.9-10.6c-16.7-11.5-35-26.1-54.6-43.4c-8.7-7.7-17.2-16.7-26.1-27.5L126,58.3
			c5.1,5.9,10.2,11,15.4,15.6c31,27.5,87.2,73.7,114.5,73.7c17.5,0,49.5-19.5,95.2-57.9c3.2-2.7,3.6-7.5,0.9-10.7
			c-2.7-3.2-7.5-3.6-10.7-0.9c-58.2,49-79.1,54.3-85.4,54.3c-15.8,0-55.9-26.8-104.4-69.8c-4.3-3.8-8.6-8.1-12.9-13l26.2-18.2
			c19.4,31.8,53.6,51.2,91.2,51.2c37.6,0,71.8-19.4,91.2-51.2l25.6,17.7c-4.1,4.6-13.9,13.7-13.9,13.7c-3.1,2.8-3.5,7.6-0.7,10.7
			c4.2,4.7,9.3,1.9,10.7,0.7c0,0,11.5-10.8,16.4-16.4L401,68.7c-9,11.3-17.8,20.6-26.5,28.3c-51,45.2-94.2,71.1-118.6,71.1
			c-11.3,0-26.7-5.7-45.6-16.8c-3.6-2.1-8.3-0.9-10.4,2.7c-2.1,3.6-0.9,8.3,2.7,10.4c21.6,12.7,39.1,18.9,53.3,18.9
			c38.5,0,97.2-46.9,128.7-74.9c9.6-8.5,19.1-18.7,29-31l12.3,8.5l-10.2,40.7l-45,19.9c-1.5,0.7-2.8,1.8-3.6,3.3l-23.5,43.1
			l-48.5,6.3c-1.5,0.2-2.9,0.8-4,1.8L256,231.3L221,201c-1.1-1-2.5-1.6-4-1.8l-48.5-6.3L145,149.8c-0.8-1.5-2.1-2.6-3.6-3.3
			l-45-19.9L86.1,85.9L98.6,77.2z M72.8,95.1l9.8,38.8c0.6,2.3,2.2,4.1,4.3,5.1l46,20.4l24.1,44.2c1.2,2.1,3.3,3.6,5.7,3.9l50.1,6.5
			l38.3,33.1c1.4,1.2,3.2,1.9,5,1.9c1.8,0,3.5-0.6,4.9-1.8c0,0,0,0,0,0l38.3-33.1l50.1-6.5c2.4-0.3,4.5-1.8,5.7-3.9l24.1-44.2
			l46-20.4c2.1-0.9,3.7-2.8,4.3-5.1l9.8-38.8l16,11.1c-7.5,14.3-19,35.4-33.3,52.5c-18.9,22.7-41,42.5-65.7,58.9
			c-39.6,26.4-80.9,44.8-100.3,44.8s-60.7-18.4-100.3-44.8c-24.6-16.4-46.7-36.2-65.7-58.9c-14.2-17.1-25.7-38.1-33.3-52.5
			L72.8,95.1z M495.3,153.7c-1.4,3.5-14.5,35.5-49.7,72.7c-20.8,22-45,41.2-72.1,57.1c-36.3,21.3-86.2,44.1-117.5,44.1
			s-81.3-22.8-117.5-44.1c-27.1-15.9-51.3-35.1-72.1-57.1c-35.2-37.2-48.3-69.2-49.7-72.7c-2.5-6.3-1.7-13.2,1.6-18.7
			c8.9,15.3,22.3,35.6,36.7,52.9c21.7,26,47.1,48.8,75.4,67.6C148.9,267.8,212.5,308,256,308c29.2,0,67.7-18.2,94.8-33.6
			c3.7-2.1,5-6.7,2.9-10.4c-2.1-3.7-6.7-5-10.4-2.9c-36.1,20.4-67.2,31.6-87.4,31.6c-31.1,0-81-25.8-117.2-49.9
			c-27.1-18-51.3-39.8-72.1-64.7C52,160.6,38.5,139.7,30,124.8l14.2-9.8c7.8,14.8,19.5,35.9,34.2,53.5c19.9,23.8,43,44.6,68.9,61.8
			c43.2,28.8,85.9,47.3,108.7,47.3c22.9,0,65.6-18.6,108.7-47.3c25.9-17.2,49-38,68.9-61.8c14.7-17.6,26.4-38.6,34.2-53.5l14.2,9.8
			c-8.5,14.9-22.1,35.8-36.7,53.4c-15.8,18.9-33.8,36.2-53.3,51.2c-3.3,2.6-4,7.3-1.4,10.7c3.8,4.9,9.3,2.5,10.7,1.4
			c20.5-15.7,39.2-33.8,55.7-53.5c14.4-17.2,27.8-37.6,36.7-52.9C497,140.5,497.8,147.4,495.3,153.7z"/>
	</g>
</g>
<g>
	<g>
		<path d="M383.7,245c-2.3-3.5-7-4.5-10.5-2.2l-9.7,6.3c-3.5,2.3-4.5,7-2.3,10.5c3.2,5,9.2,3.1,10.5,2.3c3.3-2.1,6.7-4.3,9.9-6.4
			C385.1,253.2,386,248.5,383.7,245z"/>
	</g>
</g>
</svg>
