<svg xmlns="http://www.w3.org/2000/svg" viewBox="0 0 384 232.75"><g id="katman_2" data-name="katman 2"><g id="katman_1-2" data-name="katman 1"><path d="M384,165.19C379.46,186,364.07,196.56,346.47,205c-16,7.63-32.94,12.26-50.06,16.4-4.42,1.06-7.53-.62-8.23-4.17-.65-3.25,1.49-5.83,5.84-6.88,17.39-4.21,34.55-9.27,50.16-18.16a99.5,99.5,0,0,0,20.42-15c11.16-10.91,10.8-23.36.06-34.74-8.76-9.28-19.61-15.61-31.33-20-13.4-5-27.22-9-40.86-13.36a11.29,11.29,0,0,0-2.18-.12c.63,6.59,1.36,13,1.82,19.36.27,3.85.81,7.87,0,11.54-2.07,9.38-8,15.57-17.63,17.17-24.58,4.1-49.38,5.68-74.27,6a577.67,577.67,0,0,1-87.47-5.32c-14.12-2-22.12-11.16-21.26-25.36.46-7.7,1.28-15.38,2-23.74-5.66,1.47-10.83,2.68-15.92,4.16-16.71,4.86-33.08,10.67-47.45,20.77a67.66,67.66,0,0,0-13.44,12.34c-7.19,8.81-7.22,19-.87,28.48,6,9,15,14.58,24.46,19.23,19.34,9.47,40,14.7,61.06,18.6,34.35,6.38,69,10.44,104,9,20.18-.83,40.3-3.36,60.44-5.23,4.35-.4,7.14,1,7.79,4.41S272,226.3,267.57,227a456.29,456.29,0,0,1-89.28,5.43,479.73,479.73,0,0,1-90.16-11.71c-20.61-4.78-40.77-10.84-59.26-21.47-7.74-4.45-15.3-9.4-20.34-16.84C5,177.15,2.79,171,0,165.19v-9.75c5.36-21.25,22-31.59,39.77-40.51,16.15-8.09,33.39-13.21,51-17.13,3-.66,4.11-1.79,4.23-4.81a112.12,112.12,0,0,1,1.43-15.66,8.45,8.45,0,0,1,4-5.19c1.26-.67,4.1.1,5.27,1.23a7.62,7.62,0,0,1,1.66,5.37c-.64,10-1.58,19.92-2.4,29.89-.07.85,0,1.72,0,2.57,26.73,9.37,136.66,9.52,174.49.13-.41-5.47-.75-11-1.25-16.59-1.7-19.3-3.35-38.59-5.23-57.87C271.82,26,266.42,17.79,256.09,13.5c-10.12-4.2-19.3-2.08-27.6,4.78-4.53,3.74-9,7.56-13.65,11.13A36.82,36.82,0,0,1,169,29.29c-4.64-3.6-9.12-7.4-13.65-11.14-8.46-6.95-17.82-8.89-28-4.43S112.07,26.49,111,37.44c-.4,4.35-.63,8.73-1.14,13.07-.48,4.1-2.94,6.27-6.28,5.9s-5.22-2.94-4.8-7.16c.68-6.82.82-13.82,2.49-20.41A37.5,37.5,0,0,1,161.19,8.46c4.73,3.69,9.25,7.63,13.95,11.36,10.53,8.36,23.14,8.36,33.75,0,4.12-3.25,8.15-6.63,12.18-10,12-10,25.39-12.76,39.83-6.48,14.64,6.37,22,18.24,23.33,34C286,57,287.68,76.66,289.44,96.71c4.31,1.07,8.63,2.1,12.93,3.23,18.54,4.86,36.63,10.94,53,21.09a117.58,117.58,0,0,1,15.18,11.53A42.92,42.92,0,0,1,384,155.44ZM103.55,122.93c-.34,4.1-.77,7.69-.9,11.29-.24,6.58,3.29,11.12,9.83,12,11.5,1.52,23,3,34.59,3.9a568.19,568.19,0,0,0,98.39-.72c8.69-.82,17.36-1.94,26-3.15,5.81-.82,9.73-4.82,9.81-10.1.07-4.31-.48-8.64-.77-13.18A570.44,570.44,0,0,1,103.55,122.93Z"/></g></g></svg>