<svg xmlns="http://www.w3.org/2000/svg" viewBox="0 0 294.15 384"><g id="katman_2" data-name="katman 2"><g id="katman_1-2" data-name="katman 1"><path d="M105.86,384c-4.08-2-5.5-5.18-5.43-9.7.2-14.12.1-28.24,0-42.36a6.49,6.49,0,0,0-1.17-4.08c-8-8.72-16.24-17.3-24.75-26.29-.1,1.25-.26,2.26-.26,3.27,0,8.37,0,16.75,0,25.12-.06,5.59-3.78,9-8.73,8.3-3.8-.55-6.21-3.55-6.22-8.08-.05-14.62.06-29.24-.12-43.86a12.51,12.51,0,0,0-2.08-6.43c-7.19-10.81-14.6-21.48-21.93-32.19l-1.92-2.8c-.1,2.09-.21,3.38-.21,4.67,0,14.37,0,28.74,0,43.11a16,16,0,0,1-.49,4.43,7.13,7.13,0,0,1-8.06,5.18,7.16,7.16,0,0,1-6.35-6.78c-.16-2.36-.08-4.74-.08-7.12q0-35.24,0-70.48a15.85,15.85,0,0,0-1-5.81A219.24,219.24,0,0,1,2.5,94.21C8,56.8,29.37,31.09,63.5,15.65,83.78,6.47,105.28,2.39,127.33.71,129.18.57,131,.24,132.86,0h28.5c6.81.75,13.65,1.33,20.43,2.27,26.56,3.7,51.72,11.18,73.3,27.93,21.1,16.39,33,38.22,36.7,64.4,5.75,40.43,1.06,79.68-14.59,117.53a14.71,14.71,0,0,0-.95,5.44c-.06,25.37,0,50.74-.05,76.11,0,5.4-2.7,8.55-7.21,8.67-4.66.11-7.74-3.18-7.76-8.59-.05-14.62,0-29.25,0-43.87V245c-1,1.2-1.51,1.76-1.94,2.39-7.41,10.82-14.88,21.59-22.13,32.51a12.64,12.64,0,0,0-2.08,6.44c-.18,14.62-.05,29.24-.12,43.86,0,5.51-3.9,8.92-8.85,8-3.68-.66-6.06-3.76-6.1-8.28-.07-8.13,0-16.25,0-24.38v-4.49c-1.59,1.67-2.59,2.7-3.56,3.74-6.66,7.12-13.22,14.33-20,21.3a8.93,8.93,0,0,0-2.74,6.92c.12,13.75-.07,27.5.13,41.24.07,4.52-1.36,7.73-5.42,9.72h-4.5c-3.9-2.34-5.58-5.72-5.2-10.3.24-2.85.05-5.74.05-8.61V343.92c-1.61,1.39-2.63,2.23-3.6,3.12-7.4,6.71-14.74,13.49-22.19,20.15-4.08,3.66-7.53,3.59-11.64,0-3-2.63-6-5.31-8.93-8-5.4-4.91-10.79-9.85-16.66-15.22-.09,1.87-.18,3.06-.18,4.25,0,8.37-.19,16.75.06,25.11.14,4.65-1.1,8.27-5.21,10.68ZM147,352.19c.87-.68,1.48-1.1,2-1.58,23.59-21.11,46.15-43.24,66.35-67.67,19.67-23.79,36.64-49.28,48.38-78,.46-1.15.83-2.33,1.24-3.49a21.87,21.87,0,0,0-4.63,4.64c-23.5,28.69-52.18,51.22-84,69.78-12.16,7.08-25,13.05-37.53,19.46-3,1.53-6,1.58-8.78-.69-2.48-2.06-3.55-5-2.22-7.71a12.56,12.56,0,0,1,5.58-5.47,378.22,378.22,0,0,0,55.1-31c25.84-17.67,49.35-37.88,67.72-63.53,10.65-14.87,18.72-31,21.86-49.18,2.11-12.22.84-24.44-.5-36.6-2.41-21.89-11-40.87-27.67-55.69-13.46-12-29.42-19.15-46.64-23.69-25.78-6.8-52-8-78.46-5.79-19.52,1.64-38.53,5.59-56.41,13.94-20.82,9.72-36.69,24.37-45.51,46-5.92,14.48-6.71,29.81-7.74,45.18-1.65,24.81,8.82,43.71,27.61,58.78C59.12,193,77.82,201.91,97.62,208.31c15.41,5,31.22,8.7,46.86,13,.84.23,1.7.39,2.54.63,4.41,1.24,6.87,5,5.9,9s-4.68,6.4-9.24,5.5A355.23,355.23,0,0,1,84,219.5c-22-8.56-42.76-19.36-59.93-36.05-.09-.1-.4,0-.8.08a19.33,19.33,0,0,0,.6,2.52c3.5,9.34,6.59,18.86,10.64,28,11,24.71,26.19,46.79,43.31,67.61C98.71,307.08,122.16,330.06,147,352.19Z"/><path d="M147,139.7c-23.9-.16-47.32-3.12-69.63-12.28-9.18-3.77-17.73-8.62-24.72-15.88-12.34-12.82-12.5-28.87-.25-41.78C61.15,60.54,72.25,55.11,84,51.09c24.81-8.48,50.41-10.88,76.47-9.33,20.33,1.21,40.15,4.7,58.91,13,8.05,3.55,15.55,8,21.77,14.33,13,13.18,13,29.78,0,42.87-10.26,10.33-23.23,15.83-36.83,20C185.67,137.58,166.48,139.75,147,139.7Zm.2-15.22c3.62,0,7.25.17,10.87,0,19.82-1.14,39.23-4.26,57.36-12.86,6.81-3.23,13.27-7.07,17.73-13.43,3.61-5.12,3.74-10.3-.06-15.25-2.17-2.83-4.71-5.78-7.74-7.48-7.15-4-14.38-8.31-22.12-10.73-36-11.25-72.28-11.26-108.56-1.27-10.88,3-21.27,7.34-29.79,15.11-8.74,8-9,16.27.08,23.86a74.13,74.13,0,0,0,17.78,10.83C103.27,122.15,125.06,124.56,147.21,124.48Z"/></g></g></svg>