<?xml version="1.0" encoding="utf-8"?>
<!-- Generator: Adobe Illustrator 26.0.0, SVG Export Plug-In . SVG Version: 6.00 Build 0)  -->
<svg version="1.1" id="Layer_1" xmlns="http://www.w3.org/2000/svg" xmlns:xlink="http://www.w3.org/1999/xlink" x="0px" y="0px"
	 viewBox="0 0 512 334.1" style="enable-background:new 0 0 512 334.1;" xml:space="preserve">
<g>
	<g>
		<path d="M97.2,106.1c-28.8,0-52.2,23.4-52.2,52.2c0,28.8,23.4,52.2,52.2,52.2c28.8,0,52.2-23.4,52.2-52.2S126,106.1,97.2,106.1z
			 M97.2,189.7c-17.3,0-31.3-14.1-31.3-31.3c0-17.3,14.1-31.3,31.3-31.3c17.3,0,31.3,14.1,31.3,31.3
			C128.5,175.6,114.5,189.7,97.2,189.7z"/>
	</g>
</g>
<g>
	<g>
		<path d="M486.6,196.5c-15.4-11.4-35.9-16.3-61.9-22.4c-5.7-1.3-11.5-2.7-17.6-4.2c0,0,0,0,0,0c-35.4-8.8-65.7-19.1-91.1-30.8
			c1.1-5-1.7-10.2-6.7-12c-4.2-1.5-8.7-0.2-11.4,3c-7.7-4.2-14.8-8.6-21.5-13.1c1.4-4.5-0.4-9.5-4.6-12c-3.5-2.1-7.8-1.9-11,0.1
			c-6.1-5.1-11.6-10.5-16.5-16c2.3-4.1,1.6-9.4-2-12.8c-2.7-2.5-6.4-3.3-9.7-2.5c-4.3-6.6-7.9-13.4-10.9-20.5
			c2.9-2.7,4.2-6.9,2.8-11c-1.3-4-4.8-6.6-8.7-7.1c-2-8.1-3.2-16.5-3.6-25.3c-0.3-5.6-4.9-9.9-10.4-9.9H10.4C4.7,0,0,4.7,0,10.4
			v313.2c0,5.8,4.7,10.4,10.4,10.4h491.1c5.8,0,10.4-4.7,10.4-10.4v-65.5C512,229,503.9,209.3,486.6,196.5z M406,191.2
			c4.8,1.2,9.4,2.3,13.9,3.3c45,10.6,67.5,15.9,70.8,53.3H377.2c0.5-6.3,1.5-12.2,3-17.7C386.6,205.8,400.1,194.9,406,191.2z
			 M20.9,20.9h171.4c0.8,6.8,2,13.4,3.6,19.9l-9,3c-2.6-1.6-5.6-2.6-8.8-2.6c-9.1,0-16.5,7.4-16.5,16.5c0,9.1,7.4,16.5,16.5,16.5
			c7,0,13-4.4,15.4-10.6l9-3c3.9,9.5,8.9,18.6,14.8,27.3l-5.7,6.1c-0.4,0-0.7-0.1-1.1-0.1c-9.1,0-16.5,7.4-16.5,16.5
			s7.4,16.5,16.5,16.5s16.5-7.4,16.5-16.5c0-0.7-0.1-1.5-0.2-2.2l3.6-3.8c5.6,6.2,11.9,12.2,18.7,17.9l-5.9,9.7
			c-8,1.1-14.2,8-14.2,16.3c0,9.1,7.4,16.5,16.5,16.5s16.5-7.4,16.5-16.5c0-1.9-0.4-3.8-1-5.5l4.8-7.9c7.5,5.1,15.5,9.9,24.2,14.6
			l-4.4,12.3c-6.4,2.3-11,8.4-11,15.6c0,9.1,7.4,16.5,16.5,16.5s16.5-7.4,16.5-16.5c0-3.1-0.9-6-2.4-8.5l3.6-10.1
			c21,9.6,45.1,18.1,72.6,25.8c-8,8.5-16.6,21.3-21.5,40c-1.9,7.2-3.1,15-3.7,23.1l-335.4,0L20.9,20.9L20.9,20.9z M491.1,313.2H20.9
			v-44.6h470.2L491.1,313.2L491.1,313.2z"/>
	</g>
</g>
<g>
	<g>
		<path d="M195.4,279.9h-4.7c-5.8,0-10.4,4.7-10.4,10.4c0,5.8,4.7,10.4,10.4,10.4h4.7c5.8,0,10.4-4.7,10.4-10.4
			C205.8,284.6,201.1,279.9,195.4,279.9z"/>
	</g>
</g>
<g>
	<g>
		<path d="M156.9,279.9H55.4c-5.8,0-10.4,4.7-10.4,10.4c0,5.8,4.7,10.4,10.4,10.4h101.5c5.8,0,10.4-4.7,10.4-10.4
			C167.3,284.6,162.6,279.9,156.9,279.9z"/>
	</g>
</g>
</svg>
