<?xml version="1.0" encoding="utf-8"?>
<!-- Generator: Adobe Illustrator 26.0.0, SVG Export Plug-In . SVG Version: 6.00 Build 0)  -->
<svg version="1.1" id="Layer_1" xmlns="http://www.w3.org/2000/svg" xmlns:xlink="http://www.w3.org/1999/xlink" x="0px" y="0px"
	 viewBox="0 0 512 476.4" style="enable-background:new 0 0 512 476.4;" xml:space="preserve">
<g>
	<g>
		<rect x="140.5" y="448.8" width="15.7" height="15.7"/>
	</g>
</g>
<g>
	<g>
		<rect x="174.3" y="448.8" width="15.7" height="15.7"/>
	</g>
</g>
<g>
	<g>
		<rect x="208.1" y="448.8" width="15.7" height="15.7"/>
	</g>
</g>
<g>
	<g>
		<rect x="241.9" y="448.8" width="15.7" height="15.7"/>
	</g>
</g>
<g>
	<g>
		<path d="M256,0C189,0,125.9,7.6,78.4,21.3C27.1,36.1,0,56.2,0,79.4V163c0,35.3,61.8,59.5,140.5,71.2v158.1v7.8v32.9h15.7v-32.9
			h18.1v32.9H190v-32.9h18.1v32.9h15.7v-32.9h18.1v32.9h15.7v-32.9v-7.8v-150c11.1,0,22.3-0.3,33.3-0.7l62.7,172.4l0,0l11.3,30.9
			l14.7-5.4l-11.3-30.9l17-6.2l11.3,30.9l14.7-5.4l-11.3-30.9l17-6.2l11.3,30.9l14.7-5.4l-11.3-30.9l17-6.2l11.3,30.9l14.7-5.4
			l-13.9-38.3l0,0l-50.8-139.5c28.4-6.4,52.3-14.6,69.3-23.9C501,191.4,512,177.9,512,163V79.4C512,27.8,380.1,0,256,0z M15.7,108.3
			c38.5,33,141.9,50.5,240.3,50.5c1.6,0,3.1,0,4.7,0l9.5,26c-4.7,0.1-9.5,0.1-14.2,0.1c-65.6,0-127.1-7.3-173.3-20.7
			c-62.2-17.9-67-37.5-67-43.1L15.7,108.3L15.7,108.3z M78.4,121.2c45.8-13.9,110.1-21.9,177.6-21.9s131.9,8.1,177.6,21.9
			c-1.4,0.4-2.9,0.9-4.3,1.3c-46.2,13.3-107.7,20.7-173.3,20.7s-127.1-7.3-173.3-20.7C81.2,122.1,79.8,121.6,78.4,121.2z
			 M241.9,384.5h-85.7V236.4c27.5,3.4,56.7,5.4,85.7,5.9L241.9,384.5L241.9,384.5z M256,226.7c-65.6,0-127.1-7.3-173.3-20.7
			c-62.2-17.9-67-37.5-67-43.1v-12.9c38.5,33,141.9,50.5,240.3,50.5c6.6,0,13.2-0.1,19.8-0.2l9.4,25.9
			C275.6,226.6,265.8,226.7,256,226.7z M443.5,364.7L363,394l-85.7-235.4c31.1-0.8,61-3.1,88.6-7L443.5,364.7z M496.3,163
			c0,13.6-24.2,34.5-91.6,49.3l-8.7-24c29.4-5.8,76.1-17.7,100.3-38.3V163z M496.3,121.2c0,9.2-10.1,19.3-28.3,28.5
			c-18.8,9.5-45.5,17.6-77.4,23.7l-8.8-24.3c18.7-3.1,36.2-7,51.9-11.5c28.6-8.2,49.6-18.1,62.7-29.3V121.2z M457.4,112.8
			C409.8,94.5,334.9,83.6,256,83.6c-78.9,0-153.8,10.9-201.4,29.2c-24.8-10.3-38.9-22.2-38.9-33.4c0-14.9,25.1-31,67-43.1
			C128.9,23,190.4,15.7,256,15.7S383.1,23,429.3,36.3c42,12.1,67,28.2,67,43.1C496.3,90.6,482.2,102.4,457.4,112.8z"/>
	</g>
</g>
<g>
	<g>
		<rect x="372.4" y="456.6" transform="matrix(0.9397 -0.342 0.342 0.9397 -135.8964 158.0562)" width="15.7" height="15.7"/>
	</g>
</g>
<g>
	<g>
		<rect x="404.2" y="445" transform="matrix(0.9397 -0.342 0.342 0.9397 -130.0362 168.2296)" width="15.7" height="15.7"/>
	</g>
</g>
<g>
	<g>
		<rect x="435.9" y="433.5" transform="matrix(0.9397 -0.342 0.342 0.9397 -124.1654 178.3801)" width="15.7" height="15.7"/>
	</g>
</g>
<g>
	<g>
		<rect x="467.7" y="421.9" transform="matrix(0.9397 -0.342 0.342 0.9397 -118.2975 188.537)" width="15.7" height="15.7"/>
	</g>
</g>
</svg>
