<svg xmlns="http://www.w3.org/2000/svg" viewBox="0 0 138.83 384"><g id="katman_2" data-name="katman 2"><g id="katman_1-2" data-name="katman 1"><path d="M75.39,0a105.31,105.31,0,0,1,29.24,10c4.18,2.24,8.32,4.57,12.31,7.11,6.76,4.31,8.6,11.54,4.73,18.56C116,45.9,110.13,56.05,104.54,66.36a8.32,8.32,0,0,0-.72,5.52,1084.41,1084.41,0,0,1,24.8,135c3.86,31.73,6.75,63.56,10,95.36A39.75,39.75,0,0,1,127,335.44q-21,21.38-42.62,42.19c-3,2.88-7.42,4.29-11.19,6.37h-7.5c-6.27-1.66-10.88-5.69-15.33-10.19-12.39-12.52-25-24.84-37.47-37.27C3.24,327-.86,315.48.15,301.9A1507.71,1507.71,0,0,1,18.59,151C23.3,124.5,29.55,98.26,35,71.87a8.83,8.83,0,0,0-.73-5.53c-5.4-10-11-19.84-16.59-29.76C13,28.34,14.78,21.4,22.77,16.44,35,8.81,47.88,2.56,62.41.5a3.64,3.64,0,0,0,1-.5Zm35.5,163.06c-1.56,1.5-2.56,2.42-3.52,3.38l-31.83,31.8A37.15,37.15,0,0,1,72,201.61c-2.52,1.94-5.19,1.9-7.45-.35s-2.32-4.89-.37-7.44a24.27,24.27,0,0,1,2.32-2.44c11.66-11.67,23-23.66,35.13-34.85,5.4-5,7.4-9.66,5.3-16.78-1.9-6.45-2.7-13.23-4.06-20.25-.89.72-1.3,1-1.64,1.34q-38.72,38.7-77.38,77.44a6.58,6.58,0,0,0-1.76,3.5c-1.56,11.38-3,22.78-4.43,34.18-.16,1.24-.13,2.5-.23,4.66,2.59-2.66,4.4-4.56,6.25-6.42,7.24-7.26,14.45-14.54,21.76-21.72,3.43-3.38,8.38-2.48,9.69,1.63.93,2.9-.42,5-2.41,7C42.9,230.86,33.37,241,23.21,250.4c-5.71,5.3-9.44,10.83-9.18,18.91.15,4.84-.67,9.72-1.09,15a8.69,8.69,0,0,0,1.28-.73q49.2-49.15,98.36-98.36a4.06,4.06,0,0,0,1.24-2.84C113,176.21,112,170.08,110.89,163.06ZM122,244.2l-92,92,11.64,11.73c8.87-8.89,18-18.08,27.24-27.25,3.27-3.25,6.67-3.63,9.14-1.11s2.17,5.68-1.25,9.14C71.67,333.85,66.53,339,61.4,344.08c-4.12,4.11-8.26,8.21-12.45,12.37,4.66,4.65,8.89,9.07,13.33,13.28s10,4.17,14.4-.17q21.36-21,42.5-42.28c4.17-4.18,7.48-9.3,7.67-15.08.35-10.47-.42-21-.73-31.46l-1.3-.23c-4.81,4.86-9.61,9.74-14.44,14.58-4.58,4.6-9.12,9.26-13.83,13.72a5.39,5.39,0,0,1-8-.11c-2-2.17-2-5.27.15-7.79.65-.76,1.4-1.44,2.1-2.14,10.42-10.43,20.87-20.83,31.23-31.31,1-1,2.06-2.49,2-3.68C123.52,257.32,122.71,250.89,122,244.2ZM21.31,328.85c1.07-1.28,1.94-2.52,3-3.57,29-29.07,57.89-58.32,87.3-87,6.39-6.22,9.78-11.91,7.4-20.9-1.63-6.14-1.88-12.65-2.81-19.42a19.09,19.09,0,0,0-1.68,1.32Q63.77,250,13.07,300.75a5.13,5.13,0,0,0-1.59,2.79C10.72,313.29,13.57,321.7,21.31,328.85ZM95.77,86.76A18.76,18.76,0,0,0,94.18,88q-31.53,31.51-63,63a4.62,4.62,0,0,0-1.48,2.07c-1.58,9-3.06,18-4.61,27.28a5,5,0,0,0,1.18-.45q36.3-36.25,72.56-72.56c.56-.56,1.22-1.54,1.09-2.17C98.64,99.13,97.22,93.11,95.77,86.76ZM91.31,74.08a9.43,9.43,0,0,0-1.43-.23c-13.75,0-27.5,0-41.25-.07-2.15,0-2.77,1-3.17,2.76-2,8.76-4.14,17.49-6.06,26.27-2.11,9.67-4,19.39-6.06,29.24C52.75,112.63,71.91,93.49,91.31,74.08Zm6.46-55.34c-5.25-1.92-9.82-3.51-14.32-5.28-2.54-1-4.26-.45-6.2,1.55C67.92,24.57,58.43,34,49,43.38c-3.09,3.07-6.33,6-9.49,8.95,1.53,2.78,2.71,5,3.92,7.12,2,3.57,8.83,4.7,11.81,1.74C69.2,47.32,83.12,33.36,97.77,18.74Zm-27,43.84c6.76,0,13.24-.09,19.72,0a4.54,4.54,0,0,0,4.69-2.73c5-9.09,10.11-18.07,15.2-27.09,2.87-5.12,2.79-5.38-2.1-7.66ZM63.56,12a9,9,0,0,0-1.63,0C49.41,14.2,38.34,19.86,27.81,26.66A3.64,3.64,0,0,0,27,30.1c2,4.1,4.39,8,6.41,11.61Z"/></g></g></svg>