<?xml version="1.0" encoding="utf-8"?>
<!-- Generator: Adobe Illustrator 26.0.0, SVG Export Plug-In . SVG Version: 6.00 Build 0)  -->
<svg version="1.1" id="katman_1" xmlns="http://www.w3.org/2000/svg" xmlns:xlink="http://www.w3.org/1999/xlink" x="0px" y="0px"
	 viewBox="0 0 525.8 387.8" style="enable-background:new 0 0 525.8 387.8;" xml:space="preserve">
<g>
	<path d="M262.5,387.8c-62.5,0-123.9-5.4-186.3-16.2l-61.4-10.8c-6.5-1.1-11.8-5.4-14-12.9c-2.2-6.5,0-12.9,5.4-18.3l72.2-65.7
		c4.3-4.3,9.7-5.4,15.1-4.3c110.9,23.7,228.3,23.7,339.2,0c5.4-1.1,10.8,0,15.1,4.3l72.2,65.7c5.4,4.3,6.5,11.8,5.4,18.3
		c-2.2,6.5-7.5,10.8-14,12.9L450,371.6C386.3,382.4,325,387.8,262.5,387.8L262.5,387.8z M25.6,341.4l53.8,8.6
		c120.6,20.5,243.4,20.5,365.1,0l53.8-8.6l-64.6-58.2c-113.1,23.7-231.5,23.7-343.5,0L25.6,341.4z"/>
	<path d="M130,287.6c-31.2,0-57.1-25.8-57.1-57.1s25.8-57.1,57.1-57.1s57.1,25.8,57.1,57.1C187.1,261.7,162.3,287.6,130,287.6
		L130,287.6z M130,193.9c-19.4,0-35.5,16.2-35.5,35.5c0,19.4,16.2,35.5,35.5,35.5c19.4,0,35.5-16.2,35.5-35.5S150.5,193.9,130,193.9
		z"/>
	<path d="M435.9,272.5c-6.5,0-10.8-4.3-10.8-10.8c0-132.5-74.3-240.2-165.8-240.2c-82.9,0-152.9,90.5-163.7,210
		c0,6.5-5.4,10.8-11.8,9.7c-6.5,0-10.8-5.4-9.7-11.8C85.9,99.1,165.6,0,259.3,0c103.4,0,186.3,117.4,186.3,261.7
		C446.7,268.2,441.3,272.5,435.9,272.5L435.9,272.5z"/>
	<path d="M223.7,230.5c-16.2,0-32.3-1.1-47.4-3.2c-5.4-1.1-9.7-6.5-8.6-11.8c1.1-5.4,6.5-9.7,11.8-8.6c77.5,11.8,158.3-8.6,221.9-56
		l9.7-7.5c4.3-3.2,11.8-2.2,15.1,2.2c3.2,4.3,2.2,11.8-2.2,15.1l-10.8,5.4C359.4,207.9,291.6,230.5,223.7,230.5L223.7,230.5z"/>
</g>
</svg>
