<?xml version="1.0" encoding="utf-8"?>
<!-- Generator: Adobe Illustrator 26.0.0, SVG Export Plug-In . SVG Version: 6.00 Build 0)  -->
<svg version="1.1" id="katman_1" xmlns="http://www.w3.org/2000/svg" xmlns:xlink="http://www.w3.org/1999/xlink" x="0px" y="0px"
	 viewBox="0 0 371.3 138.9" style="enable-background:new 0 0 371.3 138.9;" xml:space="preserve">
<g>
	<path d="M370.8,59.4h-31.9C333.9,25.8,305.3,0,270,0c-35.8,0-65,26.9-68.9,61.6h-31.9C165.3,26.9,135.6,0,100.3,0
		s-65,26.9-68.9,61.6H0v15.7h31.4c3.9,34.7,33.6,61.6,68.9,61.6c36.4,0,66.6-28.6,69.4-64.4c2.8-4.5,9-7.8,15.7-7.8
		s12.9,2.8,15.7,7.8c2.8,35.8,32.5,64.4,69.4,64.4c36.4,0,66.6-28.6,69.4-63.8h31.4V59.4L370.8,59.4z M100.3,133.3
		c-35.3,0-63.8-28.6-63.8-63.8S65.1,5.7,100.3,5.7s63.8,28.6,63.8,63.8S135.6,133.3,100.3,133.3z M270.5,133.3
		c-35.3,0-63.8-28.6-63.8-63.8s28.6-63.8,63.8-63.8s63.9,28.5,63.9,63.8S305.8,133.3,270.5,133.3z"/>
</g>
</svg>
