<?xml version="1.0" encoding="utf-8"?>
<!-- Generator: Adobe Illustrator 26.0.0, SVG Export Plug-In . SVG Version: 6.00 Build 0)  -->
<svg version="1.1" id="katman_1" xmlns="http://www.w3.org/2000/svg" xmlns:xlink="http://www.w3.org/1999/xlink" x="0px" y="0px"
	 viewBox="0 0 47.8 57" style="enable-background:new 0 0 47.8 57;" xml:space="preserve">
<g id="Layer_35">
	<path d="M18.2,51.5c-8.1,1.7-14.1,1.4-15.1-6.2c0-0.3-0.3-0.5-0.5-0.5s-0.5,0.3-0.5,0.5c0.7,8.6,9.4,8.8,16.3,7
		c0.2-0.1,0.3-0.4,0.2-0.7C18.5,51.6,18.4,51.5,18.2,51.5z"/>
	<path d="M47.3,27.1L47.3,27.1c-1.9-7.2-3.1-14.6-3.5-22.1c-0.9-3.2-2.9-4.8-6-4.7h-0.1c-1.7,0.1-3.3,0.6-4.8,1.2
		c-6.5,2.7-12.5,2.8-18.1,0.2c-3.6-2.7-7.3-2.4-9.8,1C3.6,12.4,2.4,20,1.2,25.6c-2.1,8.9-1.3,22.1,0.6,29.7c0,0.2,0.2,0.3,0.3,0.3
		c3.4,1,7,1.4,10.5,1.3c5.9,0,12.2-0.8,17.9-0.3c6.5,0.3,11.3,0.1,14.2-0.8c0.2-0.1,0.3-0.2,0.3-0.4C47.7,45.1,48.4,35.5,47.3,27.1z
		 M37.7,4.4c1,7.5,1.4,21-6.8,24.6c-3.4-6.2-3.6-13.6-0.6-20C32.9,5.9,35.4,4.3,37.7,4.4z M44.2,54.9c-2.8,0.8-7.4,1-13.6,0.7
		c-8.8-0.7-19.6,1.7-27.9-0.8c-1.8-7.5-2.5-20.2-0.5-29c1.1-5.6,2.4-13.2,3.7-22.7c2.4-2.7,5.2-2.7,8.4-0.4
		c5.8,2.7,12.2,2.6,18.9-0.2c1.3-0.6,2.7-1,4.1-1.1c0.1,0.6,0.2,1.3,0.3,2.1c-2.8-0.1-5.5,1.7-8.1,5.1c-3.2,6.7-3,14.5,0.6,21
		c-4.4,3.8-8.8,4-13.5,0.7c1.2-1.6,1.9-3.5,2.2-5.4c1.8-10.3-1.4-17.4-9.5-21.3C9,3.5,8.8,3.6,8.6,3.8c0,0,0,0.1,0,0.2
		c-0.3,2.3-0.3,7.3,0,15.4l0,0c0.3,4.8,2.7,8.6,7,11.5c5.3,4,10.5,3.8,15.4-0.7c9.4-3.6,8.8-18.3,7.8-26.1c0-0.1,0-0.1,0-0.2
		c-0.1-1-0.3-1.8-0.4-2.5c2.4,0.1,3.8,1.4,4.5,3.9c0.4,7.4,1.6,14.8,3.5,22C47.4,35.5,46.7,44.8,44.2,54.9L44.2,54.9z M15.8,29.7
		c-3.7-2.3-6-6.2-6.2-10.5c-0.3-7.1-0.3-12-0.1-14.5c7.2,3.7,10,10.3,8.3,19.9C17.6,26.5,16.9,28.2,15.8,29.7z"/>
	<path d="M43.6,48.2c-0.3-0.1-0.5,0-0.7,0.2c-1.7,3.7-6.1,4.7-12.9,3.1c-0.3-0.1-0.6,0.1-0.6,0.4c-0.1,0.3,0.1,0.6,0.4,0.6
		c5.1,1.3,11.9,1.3,14-3.6C44,48.7,43.9,48.3,43.6,48.2C43.6,48.2,43.6,48.2,43.6,48.2z"/>
</g>
</svg>
