<svg xmlns="http://www.w3.org/2000/svg" viewBox="0 0 340.62 408.74"><g id="katman_2" data-name="katman 2"><g id="katman_1-2" data-name="katman 1"><path d="M45.77,408.74c-3.65-2-4.91-5-5-9.19-.25-24.14-2.33-48.05-9.39-71.31a178.26,178.26,0,0,0-15.69-36.53C8.24,278.56,2.56,264.79.78,249.58c-1.49-12.74-1-25.45,3.14-37.47C24.66,152.53,38.27,91,53.57,30c1.27-5.07,3.52-8.45,8.06-11,9.5-5.34,18.73-11.15,28.08-16.75,7.09-4.25,11-2.4,12.79,5.61,4.27,19.43,13.77,35.3,31.66,45.2,10.74,5.94,22.5,8,34.57,8.16,15.84.2,31-2.58,44.17-12.19,14-10.25,21.68-24.51,25.25-41.17,1.72-8,5.7-9.86,12.79-5.61C260.63,8,270.23,14,280,19.61a13.59,13.59,0,0,1,6.79,9.2c12.44,48.5,24.87,97,37.62,145.42,2.87,10.89,6.79,21.52,10.49,32.18,9.34,26.89,7.09,52.89-6.16,77.87-8.42,15.87-16.5,31.81-21.11,49.31-5.71,21.64-7.61,43.7-7.82,66,0,4.16-1.31,7.2-5,9.19Zm9-13.87H286.07c.09-1.58.2-2.89.25-4.21.79-21.05,3.07-41.87,8.61-62.28,5-18.24,13.51-34.85,22.3-51.43,9.48-17.91,12.59-37,7.4-56.78-3.4-12.95-8.7-25.4-12.14-38.34-13-48.9-25.59-97.92-38.36-146.89-.36-1.35-.75-3.17-1.74-3.8C266,27,259.33,23.15,252,18.77v5c0,25,.08,50,0,75.05a198.6,198.6,0,0,1-1.08,20.7c-2.69,24.55-12.07,46-29.45,63.9-25.41,26.22-70.15,28.42-97.56,4.31C101,167.59,90.17,141.49,89.12,111.62c-1-29.11-.41-58.27-.51-87.41,0-1.54,0-3.08,0-5.41-6.71,4-12.79,7.5-18.66,11.3a8.4,8.4,0,0,0-3.3,4.47c-2.86,10.92-5.37,21.93-8.16,32.87-12.7,49.67-24.33,99.62-41.34,148.1-4.8,13.67-4.51,27.93-1.09,42.11,2.91,12.07,9.05,22.63,14.8,33.41,11.86,22.22,18.48,46.05,21.29,71C53.37,372.84,53.92,383.74,54.79,394.87ZM102.25,43.61c0,9.15-.14,18.31.11,27.45a10.27,10.27,0,0,0,2.43,5.81c6.22,7.44,13.18,14.3,19,22a132.75,132.75,0,0,1,26,62.65c1.19,8.8,1.81,17.68,2.71,26.65a57,57,0,0,0,35.63,0c1.19-10.82,1.77-21.21,3.57-31.38,4.58-26,16.34-48.7,33.59-68.61,4.39-5.06,10.55-9.47,12.66-15.34,2.21-6.13.5-13.67.51-20.58V42.39C210.92,85.4,129.74,85.4,102.25,43.61Zm.54,51.31c-5.41,29.42,14.47,77.59,35.13,85.7C137.72,150.27,123.85,116.28,102.79,94.92Zm135.14-.07c-24,25.11-35.66,60.13-34.87,85.87C228.65,163.86,240.66,128.38,237.93,94.85Z"/></g></g></svg>