<svg xmlns="http://www.w3.org/2000/svg" viewBox="0 0 340.59 408.73"><g id="katman_2" data-name="katman 2"><g id="katman_1-2" data-name="katman 1"><path d="M45.65,408.73c-3.65-2-4.91-5-5-9.18-.3-23.06-1.94-46.06-8.78-68.2-3.73-12.11-9.06-23.76-14.06-35.45C13.63,286,8,276.72,4.49,266.62c-7-20.45-5.21-40.91,1.26-61.44,9-28.61,17.6-57.38,25.45-86.32,8.1-29.86,15.15-60,22.52-90.07a13.46,13.46,0,0,1,6.8-9.19C70.43,13.9,80.15,7.87,90,2c6.6-3.94,10.76-2,12.37,5.45,4.92,22.7,16.4,40.9,39,48.68,26,8.94,51.73,8.07,74.52-9.68,12.48-9.72,18.91-23.4,22.16-38.63,1.71-8,5.69-9.85,12.79-5.6,9.47,5.67,18.83,11.51,28.42,17,4.28,2.43,6.43,5.67,7.64,10.42Q305,100.84,323.61,172c2.8,10.63,6.52,21.06,10.28,31.4,10.39,28.55,9,56.44-6.24,82.64-20,34.41-27.58,71.59-27.94,110.77a26,26,0,0,0,0,2.79,8.7,8.7,0,0,1-4.9,9.18ZM129,394.85h81.84c-31.77-38-21.09-83.65-1.22-106.64,12.12-14,27-23.46,45.22-27.37,23-4.94,44.29-.5,64.1,12.54,8.3-18.46,10.17-37,5-56.3-1.37.11-2.42.14-3.46.3C289.88,222.05,260,197.84,259,166.93c-.81-23.93,9.65-41.71,31.2-52.56,2.54-1.28,3.05-2.35,2.34-5.11-5.68-22.26-11.6-44.48-16.49-66.92-1.75-8-5-13.43-12.47-16.69-3.89-1.71-7.4-4.28-11.66-6.81v5.27c0,24.88.08,49.76,0,74.64a204.24,204.24,0,0,1-1.07,20.7c-2.68,24.53-12,46-29.38,63.92-25.53,26.38-70.32,28.55-97.83,4.22-22.76-20.11-33.52-46.1-34.58-75.81-1-29.24-.42-58.53-.53-87.8v-5.2c-7.18,4.31-13.59,8.07-19.89,12a5.57,5.57,0,0,0-2,3.19c-6,24-11.84,48-17.9,71.92-.66,2.64-.07,4,1.89,5.72,14.84,12.78,22.88,28.93,24,48.58,2,34.4-23.39,65.62-57.47,70.39-2.75.38-3.39,1.43-3.5,4-.67,15.55,3.25,29.93,10.18,43.75,6.29,12.57,12.15,25.36,17.91,38.18,1.21,2.7,2.37,3.64,5.41,3.71,31.81.74,56,14.76,72,42.34C124.88,372.48,127.83,383.33,129,394.85Zm157,.28c.79-38.8,7-75.69,26.52-109.48-16.88-11.91-35.21-16.1-54.8-11.43-27.54,6.56-45.44,24-51.61,51.71-5.94,26.67,2.46,49.29,23.18,67.14a9.49,9.49,0,0,0,5.68,2c15.69.15,31.39.08,47.09.08ZM188,188.22c1.15-10.64,1.68-21,3.49-31.2,5.35-30,19.78-55.37,41.19-76.77,4.09-4.08,6.13-8,5.75-13.79-.51-7.62-.13-15.29-.13-22.94-17.34,22.55-40.77,31.25-67.88,31.3s-50.82-8.64-68.21-32.64c0,11.4-.07,21.44.1,31.48,0,1.06,1.32,2.18,2.19,3.13,4.9,5.42,10.14,10.57,14.73,16.24,16.22,20,26.84,42.67,30.38,68.34,1.21,8.8,1.83,17.68,2.74,26.82A56.88,56.88,0,0,0,188,188.22ZM48.26,334c2.37,20.37,4.73,40.6,7.09,60.91H115C112.92,363.18,83.87,333.34,48.26,334ZM296.63,126.51c-19.8,8-29.57,32.67-21.12,52.52,8.93,21,32.39,28.45,43,24.24C311.24,177.71,304,152.19,296.63,126.51ZM44.68,124.29C35.5,155.43,26.48,186,17.35,217c20.54-5.07,35-17.06,41.21-37.39C65,158.73,59.71,140.36,44.68,124.29ZM138,181.09c-1.25-33.26-12.94-61.72-35.27-86.34C99.81,127,111.15,163.17,138,181.09Zm99.87-86.25c-24,25.11-35.66,60.12-34.88,85.87C228.53,163.86,240.54,128.4,237.82,94.84Z"/><path d="M177,265.63A47.68,47.68,0,1,1,129.21,218,47.66,47.66,0,0,1,177,265.63Zm-47.47,34a34,34,0,0,0,33.78-34.14c-.21-18.77-15.72-34.15-34.15-33.89-18.68.27-34.11,15.88-33.88,34.27A34.18,34.18,0,0,0,129.51,299.6Z"/></g></g></svg>