<svg xmlns="http://www.w3.org/2000/svg" viewBox="0 0 295.82 512"><g id="katman_2" data-name="katman 2"><g id="katman_1-2" data-name="katman 1"><path d="M75.13,0C85.21,4.17,88.6,11.71,88.46,22.5c-.46,34.12-.09,68.26-.27,102.39,0,4.75.9,6.62,6.17,7.52,19.24,3.27,35.37,13.08,49.93,25.7,1.12,1,2.26,1.93,3.65,3.12,17-15.37,35.87-27,59.41-29.9V125c0-34.29.19-68.59-.12-102.88C207.14,11.35,210.74,3.75,221.14,0h26c10.31,4,14.11,11.64,13.45,22.41-.5,8,0,16-.13,24-.06,5.73-2.61,8.83-7.15,9-4.72.16-7.7-3.11-7.78-9-.11-8.83-.13-17.67,0-26.5.06-3.58-1.12-5.21-4.91-5a81.33,81.33,0,0,1-12,0c-4.8-.42-6.57,1.27-6.38,6.17.31,8.32.08,16.66.08,25q0,42.24,0,84.49c0,10.63-3.2,14.32-13.78,15.72-19.48,2.57-35.33,12.22-49.46,25.22-8.56,7.89-13.66,7.91-22.38,0-15-13.65-31.73-23.59-52.46-25.57-6.9-.66-10.89-6-10.94-13.82-.08-14.33,0-28.66,0-43,0-22.83-.1-45.66.08-68.49,0-4.39-1.34-6-5.73-5.68a122.54,122.54,0,0,1-13,0c-3.21-.11-4.57,1.21-4.48,4.41.11,4,0,8,0,12,0,34.16,0,68.32.07,102.49,0,5.19-1.84,9.09-5.23,12.95C15.54,180.5,6.92,218.53,22.76,260.92,28.51,276.32,36.09,291,42.5,306.2c10.09,23.9,10.63,48.16,1.89,72.61-1.56,4.39-3,8.84-4.5,13.23-2.26,6.44-5.81,9-10.29,7.57-4.88-1.56-5.94-5.72-4-12.4C29,375.75,33,364.33,34.91,352.6c3.07-18.66-3.69-35.75-11.11-52.48-5.93-13.38-12.92-26.44-17.35-40.31C-7.9,214.82,2.17,174.53,32,138.54a13.41,13.41,0,0,0,3.09-7.78c.2-35.83.4-71.66,0-107.49C34.91,12.47,38,4.53,48.13,0Z"/><path d="M10.12,512C1.51,507,0,503.55,1.64,493.57c3.12-18.37,6.11-36.76,9.36-55.1,1.15-6.52,4.84-9.43,9.52-8.27s6.17,5.07,5,11.75c-3.27,18.15-6.37,36.33-9.59,54.81H279.45c-1.63-11-3.1-21.64-4.81-32.28a378.77,378.77,0,0,0-21.1-78.92c-12.09-30.72-10.08-60.37,3.93-89.93,7.17-15.15,15-30.37,19.33-46.43,10.12-37.79.78-71.83-25-101.15-4.4-5-6.58-10-6.42-16.55.28-11.83.09-23.66.08-35.49,0-4.23,1.38-7.61,5.79-8.82,4.93-1.36,9.09,2.32,9.15,8.27.12,12-.07,24,.16,36a10.7,10.7,0,0,0,2.34,6.15c34,40.74,42.39,85.56,21.61,135C278.3,287.47,271.25,302,265.32,317c-8,20.21-6.06,40.48,1.4,60.47a443.08,443.08,0,0,1,21.76,78.78c2.4,13.77,4.32,27.63,6.28,41.47,1,6.95-3.25,11-8.61,14.27Z"/></g></g></svg>