<svg xmlns="http://www.w3.org/2000/svg" viewBox="0 0 408.81 354.84"><g id="katman_2" data-name="katman 2"><g id="katman_1-2" data-name="katman 1"><path d="M408.81,88.07a58.36,58.36,0,0,1-5.56,5.56Q377.72,113.46,352,133.07c-2.12,1.61-2.74,3.09-2.21,5.65,2.68,12.88,2.65,25.89,1.43,38.93-.44,4.69-3,7.28-6.93,7.1s-6.27-3-5.92-7.84c1-12.92,1.15-25.78-1.77-38.5q-4.33-18.84-8.67-37.67c-1.11-4.88.52-8.23,4.38-9.24s6.93,1.34,8.12,6.19c1.88,7.69,3.62,15.42,5.56,23.75l47.45-36.57c-3-4.18-5.81-8.17-8.76-12.05C371.92,56,359.21,39.05,344,24.27c-.67-.65-1.35-1.28-2-1.95-6.54-6.64-13.9-10.55-23.79-9.43-7.21.81-14.58.16-22.21.16,0,1.41,0,2.54,0,3.68.93,23.75-1.26,47.08-10.71,69.18C271.51,118,246.83,134.7,212.14,137c-16.16,1.06-31.89-.65-46.84-7.17-22.12-9.64-35.75-27-43.84-49.15C114,60.12,112,38.76,112.85,17.05c0-.93.13-1.86.16-2.79a5.76,5.76,0,0,0-.36-1.21c-7.53,0-15.26.57-22.87-.15C80.85,12,74.19,15.45,68,21.27,53.61,34.7,41.51,50.05,29.61,65.57c-4.77,6.21-9.36,12.55-14.32,19.24L62.76,121.4c1.5-6.33,2.89-12.16,4.27-18,.55-2.32,1-4.69,1.67-7,1.17-3.83,4.55-5.86,7.89-4.93s5.42,4.3,4.56,8.18c-2.53,11.41-4.92,22.87-7.84,34.18-5.18,20.06-4.52,40.21,0,60.07,3.82,16.93,9.1,33.54,14.21,50.14,5.77,18.7,7.43,37.75,6.19,57.15-.33,5.17-.77,10.33-1.21,16.16H96.9c12.91,0,25.81,0,38.72,0a16.42,16.42,0,0,1,5.1.64c2.85.94,4.18,3.22,4,6.18a5.71,5.71,0,0,1-4.62,5.74,23.27,23.27,0,0,1-5.15.42c-13.44,0-26.88.11-40.31-.06-3.05,0-4.71.63-5,3.92-.17,2.36-.8,4.69-1.28,7.38H320.38c-.61-3.29-1.12-6.52-1.88-9.68-.15-.63-1.21-1.29-1.95-1.45a17.06,17.06,0,0,0-3.58-.09q-73.85,0-147.69,0a34.32,34.32,0,0,1-5.56-.33,5.67,5.67,0,0,1-5.06-5.77c-.16-3.3,1.39-5.69,4.73-6.43a25.51,25.51,0,0,1,5.53-.46q73.05,0,146.1,0h5.28c-.37-5.3-.72-10.28-1.08-15.25-1.57-21.88.77-43.19,8.06-64,4.29-12.26,7.58-24.88,11.17-37.38.91-3.17,2.14-5.8,5.65-6.43,4.91-.88,8.38,3.5,7,9.17-1.8,7.49-3.7,15-5.94,22.33-3.05,10-7,19.81-9.62,29.94-5,19.6-4.55,39.57-2.11,59.45,1.28,10.4,3.49,20.69,5.36,31,.92,5.08-1.48,8.29-6.64,8.6-.8.05-1.6,0-2.4,0q-121.55,0-243.09,0a12.72,12.72,0,0,1-5.42-.84c-3.32-1.61-4-4.51-3.18-8.08a247.23,247.23,0,0,0,7-56.88,135.36,135.36,0,0,0-8.19-47.67c-9.58-26-16-52.65-16-80.51,0-7.27,1.22-14.55,2.17-21.78.34-2.63,0-4.29-2.27-6C39.47,119.89,22.33,106.61,5.16,93.38c-6.29-4.84-6.65-7.15-2.06-13.55C19.52,56.89,36.2,34.14,56.5,14.36c2.56-2.5,5.31-4.84,8.11-7.08C70.71,2.42,77.41-.3,85.54.05c11.15.48,22.35.19,33.52.08,4.06,0,6.41,1.69,7.71,5.48,8.58,25.09,26.15,40.55,51.62,46.79,21.28,5.22,42.55,4.56,63.07-3.65,19.84-8,33.41-22.23,40.44-42.51C283.6,1.32,285,.18,290.33.18c10.91,0,21.84.39,32.73-.14a28.49,28.49,0,0,1,22.43,8.45c11.33,11.38,22.64,22.88,32.92,35.2,10.77,12.93,20.32,26.88,30.4,40.39ZM126.35,34c.58,20.46,4.1,40,14.69,57.75a63.45,63.45,0,0,0,37.52,29.11c11.39,3.4,23.05,4,34.77,3.07,25.9-2.14,46-13.86,57.32-37.75,4.34-9.13,7-19.16,9.5-29,1.85-7.46,2.15-15.32,3.14-23l-1.11-.5c-19.79,25.23-46.72,34.61-77.49,34.68C173.75,68.43,146.66,59.1,126.35,34Z"/></g></g></svg>