<svg xmlns="http://www.w3.org/2000/svg" viewBox="0 0 320.09 309.01"><g id="katman_2" data-name="katman 2"><g id="katman_1-2" data-name="katman 1"><path d="M160.05,309H30.28c-7.66,0-9.47-1.82-9.48-9.53,0-9.25.1-18.5-.08-27.75A13,13,0,0,0,19,265.45C3.1,239.36-2.1,211,.74,180.89,2.8,159,9.31,138.49,18.26,118.46c12.19-27.3,20.9-55.86,28.49-84.74,2.37-9.06,4.49-18.18,6.71-27.27C54.65,1.57,56.52,0,61.59,0Q71.72,0,81.85,0c5.68,0,7.9,2.23,7.91,8,0,19.51-.08,39,0,58.52.21,33.58,22.45,62,54.06,69.2,44.7,10.23,86-22.78,86.41-69.17.17-19.13,0-38.26,0-57.39,0-7.28,1.85-9.15,9-9.15q9.38,0,18.75,0c5.58,0,7.37,1.41,8.6,6.77,8.66,37.65,19.22,74.75,34.55,110.26,7.37,17.06,13.81,34.27,16.7,52.65,5.37,34.09,1.14,66.48-17.23,96.36a10.72,10.72,0,0,0-1.36,5.27c-.13,9.5,0,19-.07,28.5,0,7.21-2,9.18-9.08,9.18Zm83.07-296.2c0,2.15,0,3.76,0,5.37-.15,18.75.56,37.55-.61,56.23-3,48.67-50.65,84.34-98.42,74.46C104.51,140.68,77.25,107.36,77,66.71c-.11-16.51,0-33,0-49.51V13.26a7.31,7.31,0,0,0-1.48-.41,55.67,55.67,0,0,0-7.86.07,4.17,4.17,0,0,0-2.88,2.3c-1,2.81-1.51,5.79-2.24,8.69C54,57.73,44.19,91.14,30.2,123.12,21.35,143.34,15,164,13.4,186.09c-1.8,25,2.63,48.74,15.29,70.68,1.42,2.45,2.93,3.44,5.86,3.42,24-.13,48-.07,72-.07H285.41c2.11,0,3.93.17,5.36-2.27a115.25,115.25,0,0,0,15.52-46.92c2.85-26.69-2.08-52.21-11.76-77-7.17-18.36-14.92-36.53-21-55.24-6.71-20.49-11.84-41.5-17.72-62.27-.42-1.47,0-3.74-2.77-3.63C249.9,12.91,246.79,12.81,243.12,12.81Zm43.15,260.4H33.87v22.71h252.4Z"/></g></g></svg>