<?xml version="1.0" encoding="utf-8"?>
<!-- Generator: Adobe Illustrator 26.0.0, SVG Export Plug-In . SVG Version: 6.00 Build 0)  -->
<svg version="1.1" id="katman_1" xmlns="http://www.w3.org/2000/svg" xmlns:xlink="http://www.w3.org/1999/xlink" x="0px" y="0px"
	 viewBox="0 0 57 46.3" style="enable-background:new 0 0 57 46.3;" xml:space="preserve">
<g id="Layer_29">
	<path d="M56.9,19.2C51,9.4,47.5,4.2,46,3.3c-2.5-0.9-4.9-1.9-7.2-3.2c-0.1-0.1-0.3-0.1-0.4,0l0,0h-0.1l0,0c-1.6,2.1-5.2,2.9-12,2.4
		c-2.2,0.3-5-0.8-8-2.4c-0.1,0-0.1,0-0.2,0l0,0c-5.8,2.4-6.9,3.3-7.3,3.8C7,8.9,3.4,14.1,0.1,19.5C-0.1,19.7,0,20,0.2,20.2
		c3.5,2.7,6.8,5.5,9.9,8.6c0.1,0.1,0.3,0.2,0.4,0.1c0.6-0.2,0.7-1.1,1-1.7c0.1,5.7,1.1,11.3,3,16.7c0,0.1,0.1,0.2,0.2,0.2l0,0l0,0
		l0,0c0.1,0.1,0.2,0.1,0.3,0.1l0,0c1.8-0.3,3.7-0.2,5.4,0.2c0.7,0,1.4-0.1,2-0.3c0.9-0.3,1.9,0,2.5,0.7c0.7,0.9,1.8,1.4,2.9,1.4
		c2.4,0.2,4.7-0.6,6.4-2.2c0.4-0.2,0.9-0.2,1.4-0.2c2.4,0,4.1-0.8,6.6-0.5c0.2,0,0.4-0.1,0.5-0.3c2.2-5.3,3.3-11,3.3-16.7
		c0.4,0.6,0.8,1.6,1.5,1.4c3.8-1.8,7.1-4.5,9.5-8C57,19.5,57,19.3,56.9,19.2z M26.4,3.5c4.7,0.3,8,0.1,10.2-0.9
		c-1.3,1.2-2.8,2.1-4.4,2.7C27.1,6.7,23.1,5.6,20,2C22,3.1,24.2,3.6,26.4,3.5z M35.7,42.9c-0.7-0.1-1.4,0-2,0.3
		c-1.5,1.5-3.7,2.3-5.8,2.1c-0.9,0-1.7-0.4-2.2-1.1c-0.9-1-2.3-1.4-3.6-1c-0.5,0.2-1,0.3-1.6,0.3c-1.1-0.2-2.3-0.3-3.5-0.4
		c2.2-1,4.5-1.6,6.9-1.8c0.7,1.3,2.4,2.3,5.3,3.3c1.3,0.4,3-0.5,5.1-2.8c1.4,0.2,2.8,0.5,4.3,0.8C37.7,42.7,36.7,42.8,35.7,42.9z
		 M25.1,41.2c2.7-0.1,5.3,0,8,0.4c-2,2.1-3.1,2.2-3.5,2C27,42.8,25.7,41.9,25.1,41.2z M47.4,26.6c-0.9-1.4-1.4-3-1.5-4.7
		c0-0.1,0-0.1,0-0.2c0,0,0-0.1,0-0.1c-0.2-1.7-0.3-3.3-0.2-5v-0.1c0-2.4,0.1-5.2,0.4-8.4c0-0.3-0.2-0.5-0.4-0.5c0,0,0,0,0,0
		c-0.3,0-0.5,0.2-0.5,0.5c0,0,0,0,0,0c-0.2,1.7-0.3,3.4-0.3,4.9c-0.5-2.1-0.8-4.2-1-6.3c0-0.3-0.3-0.5-0.5-0.5
		c-0.3,0-0.5,0.3-0.5,0.5c0,0,0,0,0,0c0.4,3.4,1,6.7,2,9.9c0,1.7,0.1,3.5,0.3,5.2l0,0c0.7,6.9-0.3,13.9-2.9,20.4l-2.4-0.5
		c2.1-3.8,3.1-10.2,2.9-19c0-0.3-0.2-0.5-0.5-0.5c-0.3,0-0.5,0.2-0.5,0.5c0,0,0,0,0,0c0.2,8.8-0.8,15.2-3,18.8
		c-1.5-0.3-2.9-0.5-4.2-0.7h-0.2H34c3-4.2,4.3-9.5,3.6-15.9c0-0.3-0.3-0.5-0.6-0.4s-0.5,0.3-0.4,0.6c0.7,6.3-0.6,11.6-3.7,15.7
		c-1.6-0.2-3.2-0.3-4.9-0.4c-2.6-6.2-3.9-14-3-24.2c0-0.3-0.2-0.5-0.5-0.5S24,15.7,24,16c-0.8,10,0.2,18.2,3,24.2
		c-0.9,0-1.8,0-2.6,0.1c-0.1,0-0.2,0-0.2,0c-2.2,0.1-4.4,0.6-6.5,1.4c1.7-11.3,1.5-22.8-0.7-34c-0.1-0.3-0.3-0.5-0.6-0.4
		S15.9,7.6,16,7.9c2.2,11.3,2.4,22.9,0.6,34.3c-0.5,0.2-0.9,0.5-1.4,0.8c-1.9-6.1-2.9-12.5-2.7-18.8c1.1-4.5,1.4-10.3,1-17.5
		c0-0.3-0.3-0.5-0.5-0.5s-0.5,0.3-0.5,0.5c0.6,9.3-0.1,16.3-2.1,20.9c-2.9-2.8-6-5.5-9.2-7.9c2.6-4.2,6.1-9.3,10.5-15.2
		c0.3-0.3,1.5-1.2,6.5-3.3c3.3,5.1,8.1,6.8,14.4,5.1c3.2-1.3,5.3-3,6.3-5.1c2.2,1.2,4.4,2.1,6.7,2.9c0.9,0.7,3.5,3.9,10.4,15.3
		C53.7,22.5,50.8,25,47.4,26.6z"/>
</g>
</svg>
