<?xml version="1.0" encoding="utf-8"?>
<!-- Generator: Adobe Illustrator 26.0.0, SVG Export Plug-In . SVG Version: 6.00 Build 0)  -->
<svg version="1.1" id="katman_1" xmlns="http://www.w3.org/2000/svg" xmlns:xlink="http://www.w3.org/1999/xlink" x="0px" y="0px"
	 viewBox="0 0 51.7 57" style="enable-background:new 0 0 51.7 57;" xml:space="preserve">
<g id="Layer_36">
	<path d="M5.7,28.5c-0.3-0.1-0.5,0.1-0.6,0.3c-0.1,0.2,0,0.5,0.2,0.6c9.1,4.3,15.4,11.8,18.7,22.4c-8,2.2-14,0.9-17.8-4
		c-0.2-0.2-0.5-0.2-0.7,0c-0.2,0.2-0.2,0.4-0.1,0.7c4.4,6,12.3,6.4,19.4,4.2c0.3-0.1,0.4-0.4,0.3-0.6C21.8,40.8,15.2,32.9,5.7,28.5z
		"/>
	<path d="M45.8,48.3c-4.4,3.7-10.1,4.8-17,3.3c1.4-9.7,7.3-17.8,17.5-23.9c0.2-0.1,0.3-0.5,0.2-0.7c-0.1-0.2-0.5-0.3-0.7-0.2l0,0
		c-10.7,6.4-16.8,14.8-18.1,25c0,0.3,0.1,0.5,0.4,0.5c2.1,0.5,4.2,0.8,6.3,0.8c4.4,0.1,8.6-1.4,11.9-4.2
		C46.9,48.6,46.3,47.8,45.8,48.3z"/>
	<path d="M48.8,25.3c-2.1-3.8-3.2-9.4-3.4-16.6c0-5.3-0.8-9.1-5.5-8.6c-0.2,0-0.3,0.1-0.4,0.2c-4.4,6.6-8.8,13-13.2,19.2
		C22.2,14,17.1,6.3,12,0.4c-3-0.6-4.4,1-4.4,4.1C8,8.4,6.7,15.3,3.6,25.1C-0.3,32.4-1,38.7,1.4,43.8c0,0.2,0.2,0.4,0.3,0.6
		c0,0,0,0.1,0.1,0.1C3.8,48.1,5,52,5.4,56c0,0.2,0.2,0.4,0.5,0.4c14.2,0.5,26.5,0.7,39.7,0.4c1.2-0.1,2.3-0.9,2.7-2.1
		c-0.7-4.1,0.3-8.7,2.7-13.5C52.4,35.2,51.7,29.8,48.8,25.3z M31.3,26.7c3.2-5.3,6.1-10.4,8.8-15.3c0.1,9.7-1.7,16.5-5.4,20.3
		C33.6,30.2,32.5,28.5,31.3,26.7z M33.9,32.5c-1.7,1.5-3.8,2.5-6,2.8h-0.4l-0.6-1.6c1.3-2,2.5-4.1,3.8-6.1
		C31.8,29.3,32.9,30.9,33.9,32.5z M39.5,2c0.3,2.6,0.5,5.1,0.5,7.5c-2.8,5.2-5.9,10.7-9.4,16.4c-1.2-1.8-2.5-3.6-3.8-5.5
		C31,14.4,35.3,8.2,39.5,2z M30.1,26.8c-1.2,1.9-2.4,3.9-3.6,5.9c-1-2.4-2.2-4.8-3.4-7.2l3.1-4.3C27.6,23.1,28.9,25,30.1,26.8z
		 M26.6,35.5h-0.7l0.4-0.7C26.4,35,26.5,35.2,26.6,35.5z M25.8,33.7l-1.1,1.8c-2.5-0.2-4.9-1.2-6.7-2.9c1.5-2,3-4.1,4.5-6.1
		C23.7,28.8,24.8,31.2,25.8,33.7z M12.3,2.2c4.8,6.4,9.3,12.4,13.2,18.1l-3,4.2c-3-5.7-6.5-11.2-10.5-16.2
		C12.1,6.4,12.2,4.4,12.3,2.2z M22,25.5c-1.6,2.2-3.1,4.3-4.6,6.4c-3.6-4-5.3-11.4-5.3-22C15.8,14.8,19.1,20,22,25.5z M50.1,41
		c-2.5,4.9-3.4,9.5-2.8,13.7c-0.4,0.6-1.1,1-1.8,1.2C33.8,56.1,20.7,56,6.4,55.4c-0.5-4.1-1.8-8-3.8-11.5l0,0
		c-2.6-4.9-2-11.1,2-18.5c3.1-10,4.5-17.1,4-21c0-2.2,0.7-3.4,2.9-3.1c-0.2,2.5-0.3,4.8-0.4,7v0.1c-0.1,15,2.1,26.8,13.8,28H25
		c0.7,0,1.5,0,2.2,0h0.1l0.8-0.1c9-1.6,13.4-10.5,12.9-26.7c0-0.1,0-0.1,0-0.2c-0.1-2.6-0.3-5.5-0.6-8.5c3.5-0.2,4,3.2,4,7.6
		c0.2,7.4,1.4,13.1,3.5,17C50.6,30,51.4,35.2,50.1,41z"/>
</g>
</svg>
