<svg xmlns="http://www.w3.org/2000/svg" viewBox="0 0 384 384"><g id="katman_2" data-name="katman 2"><g id="katman_1-2" data-name="katman 1"><path d="M42,0c6.24,2.14,10.56,6.29,14.48,11.64,2.72,3.7,7.25,6.5,11.51,8.58,12.35,6,25.79,8.58,39.27,10.46,48.62,6.77,97.42,6.66,146.23,2.84,18.68-1.46,37.24-4.09,55.11-10.19a6.1,6.1,0,0,1,1.47,0c1.24,3.37,2.52,6.83,4.1,11.08-7,1.86-13.63,3.92-20.38,5.35-31.46,6.66-63.42,8.29-95.41,8.06-25.22-.18-50.46-1.29-75.62-3C103.84,43.45,85.07,40.21,67.28,33,58,29.3,49.55,24.44,44.23,15.4c-1.76-3-4.8-4-8.15-3.14s-5.9,3.27-5.95,6.87c-.19,13.24-.26,26.49.12,39.73.05,1.82,2.55,4.36,4.5,5.2a385.77,385.77,0,0,0,68.68,22,400.6,400.6,0,0,0,97.43,9.83A413.21,413.21,0,0,0,349.09,64.39c3.41-1.4,5-3.71,5-7.48-.11-12,0-24-.05-36,0-4.55-2.06-7.5-5.79-8.59-3.58-1.05-6.67.24-9.15,4.06a34.81,34.81,0,0,1-14.17,12.78c-1.87-3.35-3.67-6.61-5.12-9.2,4.13-4.76,7.68-9.55,12-13.55C334.62,3.7,338.54,2.1,342,0h8.25c1,.45,2,.93,3,1.36,8.06,3.39,12.52,9.5,12.7,18.19.26,12.87.15,25.75,0,38.63a17.15,17.15,0,0,1-9.19,15.68c-1.78,1-2.08,2-1.7,3.88,1.12,5.6,2,11.24,3.07,17.21L346.46,97c-1.11-5.9-2.15-11.48-3.22-17.17L310.51,90.9c2.09,9.34,4.16,18.65,6.27,28,3.81,16.83-1.09,30.75-13.82,42.19-4.84,4.34-9.38,9-14.22,13.33-7,6.28-8.4,13.54-4.25,21.9,3.77,7.6,8,15,11.34,22.78,3.61,8.44,7.24,17,9.32,25.92,2.59,11.07-.28,16.71-10.54,21.57-5.58,2.63-7.33,5.77-6.72,11.57.53,5.06.11,10.22.11,15.61H276.14V274.35a450.37,450.37,0,0,1-168.14,0v3.6q0,18,0,36c0,10.05-2.29,19.06-10.86,25.5-.82.62-1.07,2.39-1.08,3.62-.08,10.75-.18,21.51,0,32.25.07,3.67-.78,6.57-3.82,8.7H15.75c-3-2.11-3.87-5-3.82-8.65.18-13,.09-25.9,0-38.84,0-1.18,0-2.87-.71-3.44C5.16,328.16,2,321.55,0,314.25v-33c.72-7.81,1.26-15.64,2.19-23.42C5,234.53,7.53,211.18,10.89,188c4-27.54,8.7-55,13.11-82.47.21-1.34.51-2.67.85-4.43L36.48,103c-1,6.11-2.06,12.06-2.92,18.05-6.4,44.35-13.27,88.65-18.88,133.1-2.31,18.28-1.95,36.9-2.63,55.36-.21,5.86,2.4,10.61,7,14.26,10.08,8,21.92,11.19,34.46,12,9.87.64,19.76.46,29.32-2.64,9.14-3,13-8.17,13.12-17.73.12-14.25,0-28.5.11-42.74,0-2.11-.59-3.31-2.58-3.84a3.76,3.76,0,0,1-.68-.31c-14.51-6.85-17.69-14.22-12.59-30l11.16,3.08c-.29,1.73-.55,3.28-.82,4.84-1.12,6.44-1,7.87,5.27,10,10.08,3.52,20.34,7.15,30.83,8.78a394.67,394.67,0,0,0,47.67,4.53c22.71.77,45.49.88,68.13-2,14.51-1.86,29-4.12,42.57-9.77,10.79-4.48,10.52-5.21,7.4-15.4-2.61-8.51-7-16.48-10.62-24.67-3.49-7.85-7.45-15.52-10.44-23.55-3.22-8.66-1.15-16.83,4.91-23.73,3.86-4.4,8.18-8.4,12.32-12.56,3.27-3.27,6.66-6.42,9.83-9.77a25.65,25.65,0,0,0,7.18-22.63c-1.53-10.65-3.54-21.1-7.59-31.48C227.33,112.51,156.8,112.49,85.4,94c-2,8.12-4,15.9-5.83,23.73-.57,2.42-.5,5-1,7.42-2,9.45,1.1,17.25,7.68,23.86,5,5.05,10.29,9.85,15.39,14.81,13.84,13.45,15.7,22.39,7.7,39.88-4.1,9-8.88,17.59-13.54,26.73l-10.9-5c1.48-3,2.86-5.72,4.24-8.47q5.13-10.2,10.25-20.39c4.35-8.64,2.84-16-4.37-22.52-6.12-5.53-12.1-11.22-17.8-17.17-7.74-8.08-12.39-17.55-11-29.13.74-6.07,1.47-12.16,2.72-18.13,1.3-6.21,3.21-12.29,4.91-18.63L40.76,79.85,38.6,90.93,26.92,89c.8-4.66,1.56-9,2.37-13.74-5.3-2.84-10.39-6.7-10.6-13-.52-15.57-.64-31.19.09-46.74C19.1,8.62,24.3,4,30.78,1.35c1-.41,2-.9,3-1.35ZM24.23,341.09v30.67h59.6V345.57C63.56,349.54,43.77,349.14,24.23,341.09Z"/><path d="M291.75,384c-3.05-2.12-3.89-5-3.82-8.69.2-10.88.11-21.75,0-32.63,0-1.34-.34-3.2-1.24-3.95-7.41-6.18-9.81-14.52-10.5-23.61-.22-2.84,0-5.72,0-8.85H287.7c.33,4.07.5,8.16,1,12.2.9,6.93,4.63,12.2,11.31,14.07,21.38,6,42.23,5.25,61.81-6.49C369,321.76,372,315.46,372.11,307c.38-31-3.13-61.62-7.39-92.19-3.75-27-8-53.85-12.05-80.76a4.5,4.5,0,0,1,.14-1l11.55-1.94c1.83,11.52,3.78,22.69,5.35,33.91,3.72,26.72,7.39,53.44,10.82,80.19,1.28,10,1.84,20.15,2.75,30.23.18,2,.48,3.91.72,5.86v33c-1.92,6.62-4.6,12.77-9.83,17.6a7.18,7.18,0,0,0-2.08,4.65c-.16,12.95-.2,25.9,0,38.84.05,3.66-.8,6.54-3.82,8.66Zm68.15-42.95c-19.72,8.05-39.51,8.59-59.68,4.4v26.28H359.9Z"/><path d="M348.51,109.05l11.71-2c.71,4,1.38,7.73,2.13,11.91l-11.79,2C349.86,116.92,349.21,113.11,348.51,109.05Z"/></g></g></svg>