<svg xmlns="http://www.w3.org/2000/svg" viewBox="0 0 384 321.74"><g id="katman_2" data-name="katman 2"><g id="katman_1-2" data-name="katman 1"><path d="M0,284.41c1.23-7.75,2.43-15.51,3.7-23.25C9.82,224,15.54,186.68,22.2,149.58c6.33-35.25,13.67-70.32,20.5-105.49,2.58-13.3,9.83-22.93,22-29A164.77,164.77,0,0,1,110,.19,17.19,17.19,0,0,1,118,1C134.53,6.33,151.22,11,168.55,12.88c29.43,3.14,58.53,1,86.51-8.82,12.3-4.32,23.66-4.12,35.64-.14,10.54,3.5,21.22,6.56,30.79,12.45,10.76,6.62,17.39,15.81,20,28.45q19.13,92,34,184.86c2.78,17.38,5.16,34.83,7.74,52.24a20.1,20.1,0,0,0,.71,2.49v6.75c-1.94,5-4.64,9.34-10,11.4-9.43,3.63-18.79,7.43-28.27,10.95-7.1,2.63-14.38.52-18.49-5.89-6.93-10.81-13.38-21.93-20-32.93-.61-1-1.14-2.06-2-3.69-4.1,8.79-10.65,13.66-19.65,15.31,0,6.05,0,11.79,0,17.53,0,11.58-6.27,17.87-17.85,17.88q-45.36,0-90.73,0c-1.6,0-3.72.19-4.68-.7-1.56-1.44-3.38-3.81-3.18-5.57s2.56-3.51,4.34-4.74c.95-.65,2.67-.21,4-.21h88.86c1.25,0,2.75.37,3.69-.19,1.56-.92,3.86-2.37,3.94-3.72.41-6.57.18-13.17.18-19.91H109.72c0,5.56,0,10.91,0,16.25,0,6.53,1.06,7.57,7.65,7.58,10.12,0,20.24-.05,30.36,0,3.5,0,5.88,2.39,5.9,5.47,0,2.89-2.18,5.21-5.44,5.65a23.08,23.08,0,0,1-3,.09c-9.49,0-19,0-28.49,0-12.09,0-18.21-6.16-18.23-18.25,0-5.72,0-11.44,0-16.31-4.43-2.23-8.55-3.62-11.8-6.13s-5.57-6.13-7.79-8.67c-7.1,11.39-14.17,23.15-21.67,34.63-4.76,7.3-11.81,9.2-20,6.09-7.81-3-15.49-6.32-23.41-9C7.06,301.86,2.23,298,0,291.16ZM276,12c-.29,1.51-.55,2.7-.75,3.9C273,28.57,268.07,40,259.49,49.72c-3.05,3.46-6.43,4.13-9.08,1.85s-2.7-5.55.51-9.17a55.73,55.73,0,0,0,12.74-25.92,28.25,28.25,0,0,0,.26-3.25c-48.17,16.39-96,16.25-143.83,0,.94,15.4,11.71,31.65,26.46,40,18.68,10.55,38.89,13.21,59.81,10.09,8.07-1.2,15.89-4.09,23.8-6.3,3.19-.89,6.08.07,7.32,2.71,1.32,2.82.16,6-2.86,7.57a24.76,24.76,0,0,1-2.76,1.16c-26.1,9.9-52.42,9.79-78.44.39-23.94-8.66-39.08-25.69-44.31-51-.39-1.91-.74-3.83-1.15-5.91A154,154,0,0,0,68.53,25.79,26.6,26.6,0,0,0,54,45.17C44.93,92.62,35.52,140,27,187.56,21.16,220.25,16.6,253.17,11.43,286c-.46,2.95.23,5.18,3.21,6.34,9.08,3.51,18.14,7.05,27.23,10.53a4.6,4.6,0,0,0,5.9-1.86c9.34-13.33,17.9-27.09,23.72-42.38a6.79,6.79,0,0,0,.15-4.27c-12.09-34.82-13.07-70.5-8.09-106.59,2.38-17.25,4.24-34.47,1.91-51.89-.47-3.5,1.51-6.14,4.6-6.62,3.39-.52,6,1.39,6.5,5.11,2.21,15,1.65,30-.53,44.83-3.2,21.83-5.17,43.68-3.23,65.74,1.84,20.93,6.38,41.13,15.54,60.21,3.4,7.06,8.34,10.07,16.23,10.05,58.24-.18,116.49-.1,174.73-.1,1,0,2,0,3,0,5.32-.14,9.36-2.41,11.81-7.22,1.52-3,3.12-6,4.4-9.1,14.59-35.5,16-72.35,10.76-109.77-2.5-17.88-4.41-35.72-1.95-53.74.61-4.44,2.9-6.49,6.47-6s4.92,3.27,4.68,7.62c-.45,8.47-1.23,17-.63,25.43,1.18,16.43,3.61,32.77,4.8,49.2,2,28.08-1,55.63-10.08,82.4a7.83,7.83,0,0,0,.05,4.95c5.76,15.17,14.25,28.84,23.53,42.05a4.76,4.76,0,0,0,6.2,1.9l26.88-10.38a4.92,4.92,0,0,0,3.41-5.9c-.57-3.83-1-7.67-1.65-11.49-5.9-36.62-11.32-73.31-17.85-109.81-7.21-40.3-15.38-80.43-23.26-120.61-1.66-8.45-6.58-14.73-14.25-18.73A155.57,155.57,0,0,0,276,12Z"/></g></g></svg>