<svg xmlns="http://www.w3.org/2000/svg" viewBox="0 0 307.39 307.48"><g id="katman_2" data-name="katman 2"><g id="katman_1-2" data-name="katman 1"><path d="M153.61,307.48H47.85c-5.86,0-6.73-.84-6.68-6.71.08-11.13.3-22.25-3.12-33.06-3.53-11.13-9.53-20.77-16.86-29.8C-5.46,205.1-7.12,157.68,17,123a85.84,85.84,0,0,1,8.31-10.14,35,35,0,0,0,10-25.42c-.11-26.88,0-53.77,0-80.65C35.34,1,36.26.08,42,.08,55.29.07,68.55,0,81.79.19a14.25,14.25,0,0,1,7.53,2.45Q120,24.18,150.38,46.13c2.61,1.88,4.25,1.72,6.75-.08C177,31.72,197,17.6,216.87,3.28a15.81,15.81,0,0,1,10-3.28c13,.19,26,.07,39,.08,5,0,6.17,1.12,6.17,6.16,0,26.88.12,53.76,0,80.64a36.68,36.68,0,0,0,10.4,26.4c31.54,33.84,33.48,87.88,4.36,123.87-9.45,11.67-17.16,24.11-19.3,39.13-1.17,8.23-.94,16.68-1.21,25-.16,5.14-1,6.16-6.14,6.16ZM226.46,8v4.29c0,18.75,0,37.5,0,56.25a113,113,0,0,1-.71,12.34c-4.47,39.65-44.36,69.2-83.67,62.06C105.68,136.37,81,106.9,80.93,70c0-19.25,0-38.5,0-57.75V8H43.1v4.64c0,24.62-.08,49.25,0,73.88a44.54,44.54,0,0,1-12.4,31.94,87.42,87.42,0,0,0-12.45,17.25c-17,30.95-13.29,70.51,9.24,97.75C42,251,49.73,270.61,48.78,293.46c-.08,2,0,3.91,0,6H259c0-6.71-.55-13.23.1-19.63,1.82-17.85,9.73-33,21.05-46.75,27.06-32.86,25.92-82.85-2.83-113.91-9.17-9.91-13.28-21-13.14-34.28.26-24.12.07-48.25.07-72.38V8ZM211.81,99.57a5.86,5.86,0,0,0-.73-.77c-18.49-13.21-37-26.37-55.45-39.66-2-1.43-3.1-.47-4.55.57q-24.69,17.62-49.4,35.23c-2.11,1.5-4.19,3-6.21,4.51,8.79,21.26,34,37.05,58.47,36.8C178.8,136,203.9,120.1,211.81,99.57ZM147.09,53.12,88.76,11.55c-.12,1.15-.21,1.6-.21,2,0,19.87-.22,39.74.15,59.59.12,6.25,1.8,12.46,2.89,19.5Zm71-41.16L160.34,53.12l55,39.25c1-4.46,2.62-8.42,2.69-12.41.43-22.46.5-44.93.67-67.4C218.72,12.48,218.56,12.41,218.07,12Z"/><path d="M185.9,269.86c-1-.28-2.1-.55-3.17-.88-8.69-2.71-17.34-5.53-26.09-8.06a11.45,11.45,0,0,0-6.09.06c-8.74,2.54-17.39,5.36-26.08,8.07-5.36,1.67-7.07.43-7.16-5.29-.16-9.25-.15-18.49-.41-27.73a10,10,0,0,0-1.63-5.12c-5.36-7.82-11-15.5-16.4-23.27-2.7-3.85-2-6,2.43-7.55,8.6-3,17.28-5.71,25.81-8.86a14.6,14.6,0,0,0,6.12-4.37c5.43-6.84,10.5-14,15.72-21,3.78-5.08,5.73-5,9.59.13,5.15,6.91,10.16,13.93,15.5,20.69a14.6,14.6,0,0,0,6.05,4.45c8.42,3.1,17,5.78,25.49,8.67,5,1.72,5.74,3.89,2.64,8.29-5.33,7.55-10.78,15-16,22.65a10.76,10.76,0,0,0-1.75,5.45c-.28,9.49-.32,19-.41,28.48C190.05,267.52,189.21,269.6,185.9,269.86Zm-78.65-63.71c2.5,3.55,4.34,6.87,6.84,9.58,8.6,9.35,12.34,20.1,10.81,32.79-.47,3.86-.07,7.83-.07,12.33,8.85-2.76,16.75-5.44,24.79-7.63a16.62,16.62,0,0,1,8.26,0c7.11,1.87,14.07,4.29,21.1,6.48,1,.3,2,.47,3.79.87,0-8.82.11-17.06-.06-25.29a13.28,13.28,0,0,1,2.85-8.61c4.88-6.59,9.53-13.35,14.6-20.49-4.72-1.6-8.84-3.46-13.15-4.36-11.14-2.34-19.43-8.16-25-18.16-2.2-3.94-5.37-7.34-8.3-11.26-5.28,7.11-10.28,13.66-15.07,20.35a13.54,13.54,0,0,1-7.33,5.37C123.44,200.56,115.69,203.31,107.25,206.15Z"/></g></g></svg>