<svg xmlns="http://www.w3.org/2000/svg" viewBox="0 0 307.71 384"><g id="katman_2" data-name="katman 2"><g id="katman_1-2" data-name="katman 1"><path d="M258.28,384H185.52c-2.77-1.81-5.28-3.79-5.23-7.57.07-4.45,3.56-7.41,9-7.42q30.74,0,61.48,0h4.09c1.33-8.71,2.58-16.92,3.86-25.33H49.31c1.32,8.54,2.6,16.86,3.9,25.33H86.94c11,0,22,0,33,0,3.82,0,6.47,1.91,7.51,5.58s-.48,6.31-3.5,8.31c-.5.33-1,.73-1.42,1.09H49.76C43.09,381.39,39,376.88,38,369.5c-1.9-14-4.4-27.87-6.2-41.85-3.06-23.74-9.25-46.36-21-67.42-16-28.66-13.88-56.81,4.48-83.6,15-21.8,22.74-45.5,22.48-72-.29-29.36-.15-58.72,0-88.07,0-3.33.8-7.2,2.64-9.82C42.43,3.88,46.08,2.19,49,0H81.26c8.91,3.51,12,10.14,11.53,19.49-.52,11.34-.17,22.72-.11,34.09.1,18.56,9.37,40.54,34.9,48.84,16.69,5.43,33.23,6,50,.91,13.66-4.18,24.83-11.44,31.56-24.55a55.81,55.81,0,0,0,6.19-25.58q.06-18.73,0-37.46c0-7.34,3.41-12.3,10.21-15A6.84,6.84,0,0,0,226.77,0H259c8.88,3.56,11.59,10.24,11.47,19.55-.37,29.22-.25,58.46-.05,87.69a138.48,138.48,0,0,0,1.83,21.23c2.93,17.8,10.37,33.76,20.78,48.41a77.3,77.3,0,0,1,14.61,48.21A73.47,73.47,0,0,1,297.52,260c-7.76,13.49-14,27.71-16.78,43-3.88,21.22-7.24,42.56-10.29,63.92C269.29,375.07,266.24,381.07,258.28,384ZM230.37,15.18c0,11.92.07,23.42,0,34.91-.11,13.87.69,27.84-.77,41.58-2.43,22.94-13.66,40.84-35,51-20.56,9.77-42.06,12.1-64.23,6.12-13.45-3.63-26-8.95-35.46-19.73-11.56-13.14-17.13-28.54-17.18-46-.06-21.12,0-42.25,0-63.37V15.19h-25v4.57c0,28.25-.22,56.5.06,84.74C53,134,44.8,160.66,27.81,184.66a64.72,64.72,0,0,0-12.22,32.16c-1.33,15.05,2.06,29,11.67,40.73C38.31,271,52.88,276,70.15,272.84c4.66-.85,8.25,1.64,9,5.76.77,4.29-1.49,8.1-6.13,8.69a98.76,98.76,0,0,1-19,.93c-5.33-.35-10.57-2.23-15.25-3.3,2.88,14.16,5.82,28.64,8.79,43.27H260.43l8.92-43.78a57.09,57.09,0,0,1-33.26,3.26c-5.44-1.1-8-4.46-7.18-9.09.79-4.35,4.34-6.22,9.74-5.72,4.82.45,9.81,1.12,14.52.37,20-3.16,31.82-15.78,37.19-34.57,5.71-20,1.05-38.17-10.76-55a130.38,130.38,0,0,1-24.26-77.33c.11-28.87,0-57.75,0-86.62V15.18ZM95.8,100.71c1.83,8.41,9.48,19.3,17.25,24.56,22.77,15.44,59.43,15.47,82-.11,8.69-6,14-14.54,17.79-25.26C186.57,126.13,129.44,131.6,95.8,100.71Z"/><path d="M151.77,384c-.6-.42-1.2-.82-1.79-1.25-2.91-2.12-4.18-4.94-3.06-8.43a7.42,7.42,0,0,1,14.19,0c1.11,3.51-.15,6.31-3.06,8.44-.58.43-1.19.83-1.78,1.25Z"/></g></g></svg>