<?xml version="1.0" encoding="utf-8"?>
<!-- Generator: Adobe Illustrator 26.0.0, SVG Export Plug-In . SVG Version: 6.00 Build 0)  -->
<svg version="1.1" id="katman_1" xmlns="http://www.w3.org/2000/svg" xmlns:xlink="http://www.w3.org/1999/xlink" x="0px" y="0px"
	 viewBox="0 0 48.6 57" style="enable-background:new 0 0 48.6 57;" xml:space="preserve">
<g id="Layer_22">
	<path d="M36.3,16.1L29,16.3c-0.3,0-0.5,0.2-0.5,0.5c0,0,0,0,0,0v8.3c0,0.2,0.1,0.4,0.3,0.5l3.4,1.4c0.1,0,0.1,0,0.2,0
		c0.1,0,0.1,0,0.2,0l3.6-1.5c0.2-0.1,0.3-0.2,0.3-0.4l0.3-8.4C36.8,16.4,36.6,16.1,36.3,16.1C36.3,16.1,36.3,16.1,36.3,16.1z
		 M35.5,24.7L32.4,26l-2.9-1.2v-5.1c0,0,3.5,0.8,3.3,0.7l2.8-0.8L35.5,24.7z M35.7,18.6l-3,0.8l-3.2-0.7v-1.4l6.3-0.1L35.7,18.6z"/>
	<path d="M48.6,48.3L48.6,48.3C48.5,41.5,48,34.7,47,28c-0.8-7.4-2.8-14.5-5.9-21.2c-2.5-1.9-5.9-3-10-3.9c-0.3-1.1-1-2.1-2-2.7
		c-7.6-0.4-8.8,0-9.2,0.5c-0.6,0.6-1.1,1.3-1.6,2c-8.7,2.9-9.7,3.7-10,4.2c-2.7,5.4-5.3,13.8-7.2,24.3c-0.3,5-0.4,9.3-0.5,12.7
		c-0.3,1.5-0.6,3.1-0.7,4.6c0,0,0,0.1,0,0.1c0,1.6-0.2,2.9,0.3,4l0,0c2.7,0.2,5.4,0,7.7,0.8c0.3,0.1,0.6-0.1,0.6-0.4c0,0,0,0,0,0
		c0.3-2.5,0.7-5.2,1-8.1c0,2.9-0.3,5.8-0.8,8.7C8.9,53.6,9,53.9,9.2,54c5.8,2.7,10.9,3.7,16.6,2.7l0,0c7.1-1,11.5-2.2,13.4-3.7
		c0.1-0.1,0.2-0.2,0.2-0.4c-0.1-1.8-0.2-4.6-0.3-8.3c0.1,1,0.2,2,0.3,2.8c0.1,0.5,0.1,0.9,0.2,1.4l0,0c0.1,1.2,0,2.5,0,3.7
		c0,0.3,0.2,0.5,0.5,0.5c0,0,0,0,0.1,0c6.7-0.3,8.4-0.7,8.5-2.1C48.6,49.9,48.6,49.1,48.6,48.3z M31.1,3.8c3.2,0.5,6.2,1.7,9,3.3
		l0,0c-3.2-1.1-6.2-2.1-9.1-2.9C31,4.1,31,4,31.1,3.8z M29.8,2.3c0.2,0.3,0.3,0.6,0.3,1c-0.7,2.6-1.1,4.4-1.4,5.6
		c-0.3-0.3-0.6-0.6-1-0.8h0l-0.3-0.2C28.7,6.2,29.5,4.3,29.8,2.3z M26.4,7.6c-0.5,0.3-0.9,0.6-1.2,1.1c-0.3-0.5-0.8-0.8-1.4-0.9
		c-1-1.6-1.8-3.2-2.5-4.9c2.5,0,4.9,0,7.4,0C28.3,4.6,27.5,6.2,26.4,7.6z M28.7,1.2c0.1,0.2,0.1,0.5,0.1,0.7c-2.6,0-5.2-0.1-7.9,0
		c-0.1-0.2-0.1-0.4-0.2-0.6C21.2,1.1,22.8,0.8,28.7,1.2z M20,2c0.8,2.1,1.7,4.2,2.9,6.1l-1.6,1.4c-0.7-1.8-1.4-4-2.1-6.4
		C19.5,2.7,19.7,2.3,20,2z M18.3,3.7c0.1,0.3,0.2,0.6,0.3,0.9C15.4,5,12.3,5.9,9.4,7.3V7.2C9.8,6.9,11.5,5.9,18.3,3.7z M7.8,52.1
		c-2.2-0.5-4.4-0.7-6.7-0.6C1,50.6,1,49.8,1,48.9c2.4-0.3,4.8-0.2,7.1,0.2C8,50.2,7.9,51.2,7.8,52.1z M8.3,48.2
		c-0.7-0.1-1.3-0.2-2-0.3c2.1-6.3,2.6-13.1,1.3-19.6C7.5,28,7.3,27.8,7,27.9c-0.3,0.1-0.5,0.3-0.4,0.6c1.2,6.4,0.8,13.1-1.4,19.3
		H4.1c0-4.7,0.5-9.4,1.6-14c0.1-0.3-0.1-0.6-0.4-0.6c-0.3-0.1-0.6,0.1-0.6,0.4c-1,4.7-1.6,9.5-1.6,14.3c-0.7,0-1.3,0.1-2,0.1
		c0.1-1.3,0.4-2.7,0.6-4c0-3.6,0.2-8,0.5-13.1c1.9-9.7,4.1-17.2,6.5-22.4c1,3.4,1.1,4.7,1,5.2c0,0.1,0,0.1,0,0.2
		c0.7,6.8,0.8,13.8,0.2,20.6C9.3,39.4,8.8,44,8.3,48.2L8.3,48.2z M23.4,55.9c-4.6,0.2-9.2-0.7-13.4-2.7c0.6-2.7,0.8-8.9,0.8-18.7
		c0.6-6.9,0.6-13.8-0.2-20.7c0.1-0.6,0-1.8-1-5.4c2.9-1.5,6-2.4,9.2-2.8c0.6,1.9,1.2,3.6,1.8,5.1c0.1,0.3,0.4,0.4,0.7,0.3
		c0.1,0,0.1-0.1,0.2-0.1l2.2-2c0.4,0.1,0.8,0.5,0.9,0.9c-0.6,1.2-0.9,2.6-0.9,3.9l0,0C23.1,26.8,23,41.1,23.4,55.9z M25.6,15.6
		c-0.3,14.5-0.4,28-0.3,40.1l-0.9,0.1c-0.4-14.8-0.3-29,0.3-42.2l0,0c0.1-2.4,0.8-4.1,2.1-5h0.1C25.8,10.8,25.4,13.2,25.6,15.6z
		 M26.3,55.6c-0.1-12,0-25.5,0.3-39.9l0,0c-0.2-2.2,0.2-4.4,1.1-6.4c0.3,0.3,0.7,0.6,0.9,1c0.2,0.2,0.5,0.3,0.7,0.1
		c0.1-0.1,0.2-0.2,0.2-0.3c0.2-0.9,0.6-2.5,1.2-4.9c2.8,0.9,5.8,1.8,9,2.9l-0.1,0.4c-1.7,5.6-2.2,11.4-1.3,17.2
		c0.2,1.7,0,3.4-0.4,5.1v0.1c0.1,10.5,0.3,17.8,0.6,21.5C36.6,53.5,32.5,54.6,26.3,55.6z M40.5,46.9c-0.5-3.9-1-9.3-1.6-16
		c0.4-1.8,0.5-3.6,0.4-5.4c-0.8-5.6-0.4-11.4,1.2-16.8c0.1-0.2,0.1-0.4,0.2-0.6c2.8,6.4,4.6,13.1,5.3,20c0.9,6.4,1.4,12.9,1.5,19.4
		c-0.6-0.2-1.2-0.3-1.8-0.3c-0.4-10.5-1.5-21.1-3.2-31.5c0-0.3-0.3-0.5-0.5-0.4c0,0,0,0,0,0c-0.3,0-0.5,0.3-0.4,0.6c0,0,0,0,0,0
		c1.7,10.4,2.7,20.8,3.1,31.3h-0.2c-1.2-5.4-1.9-13.5-2.4-24.2c0-0.3-0.2-0.5-0.5-0.5s-0.5,0.2-0.5,0.5c0.4,10.6,1.2,18.7,2.4,24.2
		c-0.5,0.1-1.1,0.1-1.7,0.2c0.4-1.9,0.3-5.1-0.1-9.7c0-0.3-0.3-0.5-0.5-0.5c-0.3,0-0.5,0.3-0.5,0.5c0.4,4.8,0.4,8.1,0,9.8h-0.1
		C40.6,47.5,40.5,47.2,40.5,46.9z M40.6,51.7c0.1-1,0.1-1.9,0-2.9l0.5-0.1l0,0c1.3-0.3,2.7-0.5,4-0.5l0,0c0.8,0,1.6,0.1,2.3,0.4v2.1
		C47.5,50.8,46.8,51.5,40.6,51.7z"/>
	<path d="M21.2,19.1v-1.9c0-0.3-0.2-0.5-0.5-0.5c0,0,0,0,0,0l-7.2,0.1c-0.3,0-0.5,0.2-0.5,0.5v8.2c0,0.2,0.1,0.4,0.4,0.5l3.7,1.1
		h0.1c0,0,0.1,0,0.1,0l3.5-1.1c0.2-0.1,0.3-0.2,0.4-0.5V19.1z M20.2,25.1l-3,0.9l-3.2-1v-5.4l2.8,0.9c-0.1,0.2,3.4-0.8,3.5-0.8
		L20.2,25.1z M20.2,18.7l-3.3,0.8l-3-1v-0.8l6.2-0.1V18.7z"/>
</g>
</svg>
