<?xml version="1.0" encoding="utf-8"?>
<!-- Generator: Adobe Illustrator 26.0.0, SVG Export Plug-In . SVG Version: 6.00 Build 0)  -->
<svg version="1.1" id="katman_1" xmlns="http://www.w3.org/2000/svg" xmlns:xlink="http://www.w3.org/1999/xlink" x="0px" y="0px"
	 viewBox="0 0 506.1 501.8" style="enable-background:new 0 0 506.1 501.8;" xml:space="preserve">
<g>
	<path d="M1.6,454.3c0,4.4,0,8.8,0,13.1c-0.5,37.7,43.6,36.9,71.9,28.6c2.4-0.7,3.5-3,3.1-5.4c-10.6-57.9,9-118.7,16-176
		c5.3-42.9,29-78.7,38.7-119.2c7,40.4-3,83.1-11.3,122.5c-8.3,39.6-17.1,79.6-18.8,120.1c-3.1,74.7,99.8,62.6,149.2,62.6
		c50.5,0,148.3,14.4,154.8-56.1c7.7-83.3-46.2-166.9-30.1-249.9c9.8,40.8,34.3,76.5,38.8,119.8c6,57.8,26.8,117.7,16,176
		c-0.4,2.4,0.6,4.7,3.1,5.4c23,6.7,70,10.5,72-22.6c2.1-34,0.9-69.1,0.3-103.1c-0.6-32.2,1.4-64.8-1.9-96.9
		c-2.9-27.7-14-52.9-24.5-78.3c-12-28.9-17.2-60-30.3-88.5c-19.9-43.6-38.2-64-85.4-65.2c0-1.2-0.5-2.4-1.2-3.3
		c-14.2-17.5-35.2-27.3-56.2-34.3c-1.5-0.5-2.8-0.1-3.7,0.6c-0.3,0.2-0.6,0.4-0.9,0.5c-0.3-0.1-0.4-0.3-0.7-0.4
		c-31.3-8.8-63.6-1.5-95.4-0.2c-0.1,0-0.2,0.1-0.4,0.1c0,0-0.1,0-0.1-0.1c-0.9-0.8-2.2-1.1-3.7-0.6c-21,7-42,16.8-56.2,34.3
		c-0.7,0.9-1.2,2.1-1.2,3.3c-43,1-61.4,16.7-81.2,56c-14.2,28.1-20,59-30.7,88.3c-10.7,29.2-25.1,56.3-28.3,87.8
		c-6.1,58.4-1.8,118.6-1.6,177.6C1.2,452,1.2,453.2,1.6,454.3L1.6,454.3z M496.3,473.4c0.2,24.3-57.6,20.7-56.5,11.9
		c1.1-9.1,1.4-18.2,1.3-27.3c18.4,0.2,36.8,1.6,55.1-0.4C496.3,462.9,496.3,468.1,496.3,473.4L496.3,473.4z M357,48.3
		c0.7,1,1.8,1.7,3.3,1.7c41.3,0.4,58.2,15.6,76.5,51.7c19.7,39,29.2,83.8,45.5,124.5c16.2,40.3,13.5,81.4,13.6,123.8
		c0.1,32.9,0.1,65.9,0.3,98.9c-18.2,2.2-36.9,0.6-55.2,0.4c-0.1-3.3-0.3-6.6-0.5-9.9c-2.1-32.2-8.4-64.1-13.6-95.8
		c-4.7-28.7-5.8-57.1-17.8-84.1c-12.9-29-26-54.4-28.7-85.3c0-0.2,0-0.3,0-0.5c-0.4-4.4-0.5-8.8-0.5-13.4c0.1-5.6-8.7-5.6-8.8,0
		c-0.1,4.6,0.2,9,0.6,13.4c-22.3,67.3,8.1,142.7,18.9,209.4c2.9,18.1,5.3,36.8,6,55.1c1.3,30.6-18.8,42.4-45.5,49.3
		c-31.6,8.1-62.9,4.6-95,4.6c-0.3,0-0.7,0-1,0c0.3-34.8,6.7-68.9,6.2-104c-0.5-36.3-1.1-72.6-2.2-108.9
		c-1.7-56.9,7.6-117.8-2.3-174.3c10.6,11.9,28.6,22.3,35,26c2.6,1.5,5.4,0,6.4-2.6C310.7,95.1,330.4,70.4,357,48.3L357,48.3z
		 M305,12.7c11.2,3.8,21.8,8.8,32,14.7c1.8,1.1,19.4,10,12.7,15.3c-7.4,5.8-14.3,12.3-21,18.9c-16.8,16.7-28.2,37.2-36.9,58.9
		c-8.1-4.8-15.8-10-23-16.1c-18-15.3-3.4-23.9,4.8-35.6C285.7,51.8,286,23.7,305,12.7L305,12.7z M292.2,11.5
		c-4.9,5.1-8.3,11.4-11,18.6c-7.2,19.4-14.1,32.3-27.9,47.4c-2.5-3.2-6.4-5.9-9.2-8.5c-9.3-8.7-12.8-22-16.8-33.5
		c-3-8.6-6.5-16.7-12.2-23C240.8,10.5,267,6,292.2,11.5L292.2,11.5z M159.5,34.8c11.1-10.7,27.6-17.2,42.1-22.1
		c19,10.9,19.3,39.1,31.4,56.2c5.2,7.4,14.3,11.7,14.2,19.7c-1.2,0.9-2,2.5-1.6,4.4c0.1,0.4,0.1,0.7,0.2,1.1c-0.9,1.9-2.1,4-4,6.3
		c-6.7,8.5-17.4,14.7-27.1,20.3c-8.9-22-20.5-41.5-36.9-59C170.6,54,149.8,44.1,159.5,34.8L159.5,34.8z M10.4,359.2
		c1.5-42.1-2.8-82.4,10.3-123.3c6.3-19.6,15.6-38.2,22.7-57.5s11.3-39.6,18.6-59c7.5-20,18.1-42.2,33.6-57.4
		c12.9-12.7,33.9-11.9,50.6-12.1c1.6,0,2.6-0.7,3.3-1.7c26.7,22.1,46.3,46.8,58.8,79.9c1,2.6,3.8,4.1,6.4,2.6
		c7.9-4.6,23.5-13.3,33.5-24c4.3,26.3,3.4,52.9,2.3,79.6c-1.5,34.6-0.9,69.1,0.2,103.8c1,32.6,1.4,65.2,1.9,97.8
		c0.5,35.1-5.9,69.2-6.2,104c-27.7,0.4-54.9,2.2-82.5-2.8c-26.8-4.9-51-14-53.8-44.6c-1.5-16.2,2.4-33.3,4.3-49.3
		c8.8-71.3,44.2-150.2,20.5-221.8c0.4-4.4,0.6-8.8,0.6-13.4c-0.1-5.6-8.8-5.6-8.8,0c0.1,4.6-0.1,9.1-0.5,13.4c0,0.1,0,0.3-0.1,0.4
		c-2.4,28.4-13.4,52.2-25.8,78.8c-12.6,26.9-15.1,53.8-19.5,82.8C76,367.2,70,398.7,66.7,430.7c-0.7,6.6-1.1,13.1-1.3,19.7
		c-0.6-1.3-1.8-2.3-3.7-2.3H9c0.3-8.5,1.1-16.5,1-21.6C9.8,404.1,9.6,381.6,10.4,359.2L10.4,359.2z M61.8,457c1.7,0,2.9-0.9,3.5-2
		c-0.1,7.8,0,15.6,0.6,23.5c1.5,20.5-26.3,14.1-40.7,10.7c-12.8-3-15.9-17.4-16.3-32.1L61.8,457L61.8,457z"/>
	<path d="M295.2,192.5c0-0.8-0.1-1.7-0.5-2.4c-1.3-2.2-3.8-2.5-6-1.6c-6.5,2.8-13.1,7.2-14,14.7c-0.6,5,3.4,9.7,7.6,11.8
		c4.7,2.4,10.3,2.5,14.5-1c5.5-4.5,3.5-13.4,1.4-18.9C297.6,193.7,296.5,192.9,295.2,192.5L295.2,192.5z M291.5,206.1
		c-0.1,0.3-0.1,0.7-0.2,1c0,0.1,0,0,0,0.1s-0.1,0.1-0.1,0.2c-0.1,0.1,0,0.1-0.1,0.1c0,0,0,0-0.1,0c-0.1,0.1-0.1,0.1-0.1,0.1
		c-0.1,0.1-0.2,0.1-0.4,0.2c-0.2,0.1-0.4,0.1-0.7,0.2c-0.1,0,0,0-0.1,0c-0.4,0-0.7,0-1.1,0c-0.1,0-0.1,0-0.2-0.1
		c-0.4-0.1-0.7-0.2-1.1-0.3c-0.2-0.1-0.3-0.1-0.5-0.2c0,0,0,0-0.1,0c-0.3-0.1-1.4-0.9-1.5-0.9c-0.4-0.4-0.9-1-1-1
		c-0.1-0.2-0.3-0.4-0.4-0.6c-0.1-0.1-0.1-0.1-0.1-0.2l0,0c-0.1-0.2-0.1-0.4-0.1-0.5s0-0.3,0-0.6c0-0.2,0.1-0.5,0.1-0.7
		c0-0.1,0-0.1,0-0.1c0-0.1,0.1-0.1,0.2-0.3c0.1-0.1,0.4-0.7,0.5-0.8c0.3-0.4,0.6-0.7,0.9-1c1.2-1.2,2.8-2.2,4.5-3.1
		c1,2.6,1.7,5.1,1.8,7.4C291.6,205.3,291.5,205.9,291.5,206.1L291.5,206.1z"/>
	<path d="M295.2,260.8c0-0.8-0.1-1.7-0.5-2.4c-1.3-2.2-3.8-2.5-6-1.6c-6.5,2.8-13.1,7.2-14,14.7c-0.6,5,3.4,9.7,7.6,11.8
		c4.7,2.4,10.3,2.5,14.5-1c5.5-4.5,3.5-13.4,1.4-18.9C297.6,262,296.5,261.1,295.2,260.8L295.2,260.8z M291.5,274.4
		c-0.1,0.3-0.1,0.6-0.2,1c0,0.1,0,0,0,0.1s-0.1,0.1-0.1,0.2c-0.1,0.1,0,0.1-0.1,0.1c0,0,0,0-0.1,0c-0.1,0.1-0.1,0.1-0.1,0.1
		c-0.1,0.1-0.2,0.1-0.4,0.2c-0.2,0.1-0.4,0.1-0.7,0.2c-0.1,0,0,0-0.1,0c-0.4,0-0.7,0-1.1,0l0,0c-0.1,0-0.1,0-0.2,0
		c-0.4-0.1-0.7-0.2-1.1-0.3c-0.2-0.1-0.3-0.1-0.5-0.2c0,0,0,0-0.1,0c-0.3-0.1-1.4-0.9-1.5-0.9c-0.4-0.4-0.9-1-1-1
		c-0.1-0.2-0.3-0.4-0.4-0.6c-0.1-0.1-0.1-0.1-0.1-0.2l0,0c-0.1-0.2-0.1-0.4-0.1-0.5s0-0.3,0-0.6c0-0.2,0.1-0.5,0.1-0.7
		c0-0.1,0-0.1,0-0.1c0-0.1,0.1-0.1,0.2-0.3c0.1-0.1,0.4-0.7,0.5-0.8c0.3-0.4,0.6-0.7,0.9-1c1.2-1.2,2.8-2.2,4.5-3.1
		c1,2.6,1.7,5.1,1.8,7.4C291.6,273.5,291.5,274.2,291.5,274.4L291.5,274.4z"/>
	<path d="M295.2,329c0-0.8-0.1-1.7-0.5-2.4c-1.3-2.2-3.8-2.5-6-1.6c-6.5,2.8-13.1,7.2-14,14.7c-0.6,5,3.4,9.7,7.6,11.8
		c4.7,2.4,10.3,2.5,14.5-1c5.5-4.5,3.5-13.4,1.4-18.9C297.6,330.2,296.5,329.4,295.2,329L295.2,329z M291.5,342.7
		c-0.1,0.3-0.1,0.6-0.2,1c0,0.1,0,0,0,0.1s-0.1,0.1-0.1,0.2c-0.1,0.1,0,0.1-0.1,0.1c0,0,0,0-0.1,0c-0.1,0.1-0.1,0.1-0.1,0.1
		c-0.1,0.1-0.2,0.1-0.4,0.2c-0.2,0.1-0.4,0.1-0.7,0.2c-0.1,0,0,0-0.1,0c-0.4,0-0.7,0-1.1,0c-0.1,0-0.1,0-0.2-0.1
		c-0.4-0.1-0.7-0.2-1.1-0.3c-0.2-0.1-0.3-0.1-0.5-0.2c0,0,0,0-0.1,0c-0.3-0.1-1.4-0.9-1.5-0.9c-0.4-0.4-0.9-1-1-1
		c-0.1-0.2-0.3-0.4-0.4-0.6c-0.1-0.1-0.1-0.1-0.1-0.2l0,0c-0.1-0.2-0.1-0.4-0.1-0.5s0-0.3,0-0.6c0-0.2,0.1-0.5,0.1-0.7
		c0-0.1,0-0.1,0-0.1c0-0.1,0.1-0.1,0.2-0.3c0.1-0.1,0.4-0.7,0.5-0.8c0.3-0.4,0.6-0.7,0.9-1c1.2-1.2,2.8-2.2,4.5-3.1
		c1,2.6,1.7,5.1,1.8,7.4C291.6,341.8,291.5,342.5,291.5,342.7L291.5,342.7z"/>
	<path d="M295.2,397.3c0-0.8-0.1-1.7-0.5-2.4c-1.3-2.2-3.8-2.5-6-1.6c-6.5,2.8-13.1,7.2-14,14.7c-0.6,5,3.4,9.7,7.6,11.8
		c4.7,2.4,10.3,2.5,14.5-1c5.5-4.5,3.5-13.4,1.4-18.9C297.6,398.5,296.5,397.7,295.2,397.3L295.2,397.3z M291.5,410.9
		c-0.1,0.3-0.1,0.7-0.2,1c0,0.1,0,0,0,0.1s-0.1,0.1-0.1,0.2c-0.1,0.1,0,0.1-0.1,0.1c0,0,0,0-0.1,0c-0.1,0.1-0.1,0.1-0.1,0.1
		c-0.1,0.1-0.2,0.1-0.4,0.2c-0.2,0.1-0.4,0.1-0.7,0.2h-0.1c-0.4,0-0.7,0-1.1,0l0,0c-0.1,0-0.1,0-0.2,0c-0.4-0.1-0.7-0.2-1.1-0.3
		c-0.2-0.1-0.3-0.1-0.5-0.2c0,0,0,0-0.1,0c-0.3-0.1-1.4-0.9-1.5-0.9c-0.4-0.4-0.9-1-1-1c-0.1-0.2-0.3-0.4-0.4-0.6
		c-0.1-0.1-0.1-0.1-0.1-0.2l0,0c-0.1-0.2-0.1-0.4-0.1-0.5s0-0.3,0-0.6c0-0.2,0.1-0.5,0.1-0.7c0-0.1,0-0.1,0-0.1
		c0-0.1,0.1-0.1,0.2-0.3c0.1-0.1,0.4-0.7,0.5-0.8c0.3-0.4,0.6-0.7,0.9-1c1.2-1.2,2.8-2.2,4.5-3.1c1,2.6,1.7,5.1,1.8,7.4
		C291.6,410.1,291.5,410.7,291.5,410.9L291.5,410.9z"/>
	<path d="M168.5,177.5c17.6-2.7,35.4-1,53.1-0.9c5.6,0,5.6-8.7,0-8.8c-18.5-0.1-37-1.7-55.4,1.2C160.6,169.9,163,178.3,168.5,177.5
		L168.5,177.5z"/>
</g>
</svg>
