<?xml version="1.0" encoding="utf-8"?>
<!-- Generator: Adobe Illustrator 26.0.0, SVG Export Plug-In . SVG Version: 6.00 Build 0)  -->
<svg version="1.1" id="katman_1" xmlns="http://www.w3.org/2000/svg" xmlns:xlink="http://www.w3.org/1999/xlink" x="0px" y="0px"
	 viewBox="0 0 389.2 385" style="enable-background:new 0 0 389.2 385;" xml:space="preserve">
<g>
	<path d="M311.9,36.3c-0.4-0.7-1.1-1.2-1.9-1.4l-48.6-11.2l-27.7-23h0c-1.2-1-3-0.8-4.1,0.4l-35,41.5L159.6,1v0
		c-1-1.2-2.9-1.4-4.1-0.4l-27.7,23L79.1,34.9h0c-0.8,0.2-1.4,0.7-1.9,1.4L0.4,166.9c-0.6,1.1-0.5,2.4,0.3,3.3
		c15.5,19,36.5,32.8,60,39.5c1.2,0.3,2.4-0.1,3.1-1l26.9-34.9c-6.5,206.7-4.2,209.1-3.1,210.2l0,0c0.6,0.6,1.3,0.9,2.1,0.9h209.6
		c0.8,0,1.6-0.3,2.1-0.9c1.1-1.1,3.4-3.5-3.1-210.2l26.9,34.9c0.7,0.9,2,1.3,3.1,1c23.6-6.8,44.5-20.6,60-39.5
		c0.8-0.9,0.9-2.3,0.3-3.3L311.9,36.3z M232.2,7L256,26.8l-35.4,43.7l-22.2-23.6L232.2,7z M194.6,319.4l-23.3-27.2L188.3,58l6.3-6.7
		l6.9,7.4l16.4,235.5L194.6,319.4z M157,7l33.7,39.9l-0.4,0.4l-21.8,23.2l-35.4-43.7L157,7z M96.8,165c0-1.3-0.8-2.4-1.9-2.8
		c-1.2-0.4-2.5,0-3.3,1l-31.2,40.5c-21-6.5-39.7-18.8-53.9-35.6L81.7,40.3l46.3-10.7l38.2,47.2c0.5,0.7,1.4,1.1,2.3,1.1
		c0.8,0,1.6-0.3,2.1-0.9l11.5-12.2L165.5,293h0c-0.1,0.8,0.2,1.5,0.7,2.1l25.5,29.8v54.2H92.2C91.2,361.6,94.3,243.9,96.8,165
		L96.8,165z M328.8,203.6l-31.2-40.5c-0.8-1-2.1-1.4-3.3-1c-1.2,0.4-2,1.6-1.9,2.8c2.5,78.9,5.7,196.6,4.6,214.1h-99.4V325
		l25.5-27.8c0.5-0.6,0.8-1.4,0.8-2.2l-16-229.6L218.7,77c0.6,0.6,1.3,0.9,2.1,0.9c0.9,0,1.7-0.4,2.3-1.1l38.2-47.2l46.3,10.7
		L382.7,168l0,0C368.5,184.8,349.8,197.1,328.8,203.6L328.8,203.6z"/>
	<path d="M211.9,287.4c-1.2-1-3.1-0.9-4.1,0.3L194.6,303l-13.1-15.3h0c-1-1.2-2.9-1.4-4.1-0.3c-1.2,1-1.4,2.9-0.3,4.1l15.3,17.8h0
		c0.5,0.7,1.4,1,2.2,1c0.8,0,1.7-0.4,2.2-1l15.4-17.8C213.2,290.3,213.1,288.4,211.9,287.4L211.9,287.4z"/>
</g>
</svg>
