<?xml version="1.0" encoding="utf-8"?>
<!-- Generator: Adobe Illustrator 26.0.0, SVG Export Plug-In . SVG Version: 6.00 Build 0)  -->
<svg version="1.1" id="katman_1" xmlns="http://www.w3.org/2000/svg" xmlns:xlink="http://www.w3.org/1999/xlink" x="0px" y="0px"
	 viewBox="0 0 560.1 560.2" style="enable-background:new 0 0 560.1 560.2;" xml:space="preserve">
<g>
	<path d="M280.1,315.2c-4.8,0-8.8-3.9-8.8-8.8c0-101.3-102.6-264.9-103.6-266.6c-1.7-2.7-1.8-6.1-0.3-8.9s4.5-4.5,7.7-4.5h166.2
		v17.5H190.7C210.5,77.1,260,165,280.1,244.8c20.2-79.8,69.7-167.7,89.4-200.9h-10.7V26.4h26.3c3.2,0,6.1,1.7,7.7,4.5
		c1.5,2.8,1.4,6.2-0.3,8.9c-1,1.6-103.6,165.3-103.6,266.6c0,2.3-0.9,4.5-2.6,6.2S282.4,315.2,280.1,315.2L280.1,315.2z"/>
	<path d="M280.1,315.2c-4.8,0-8.8-3.9-8.8-8.8c0-47.9-65-175-143.1-175c-3.9,0-7.4-2.6-8.4-6.4c-0.7-2.6-17.8-65,9.3-100.8
		c13.3-16.5,33.9-25.5,55.1-24H376c21.2-1.5,41.7,7.5,55.1,24c27.1,35.8,10,98.2,9.3,100.8c-1.1,3.8-4.5,6.4-8.4,6.4
		c-78.1,0-143.1,127.1-143.1,175c0,2.3-0.9,4.5-2.6,6.2S282.4,315.2,280.1,315.2L280.1,315.2z M135.2,114.2
		c50.2,3.9,88.7,48.5,107.6,75.7l0,0c15.7,22.5,28.2,47,37.2,72.8c9.1-25.8,21.6-50.3,37.3-72.8c18.9-27.1,57.4-71.8,107.6-75.7
		c3.3-15.4,9.7-56.3-7.9-79.5l0,0c-10.1-12.1-25.4-18.5-41.1-17.1H184.2c-15.7-1.4-31.1,5-41.1,17.1
		C125.4,58.1,131.9,98.8,135.2,114.2L135.2,114.2z"/>
	<path d="M271.3,499h17.5v43.8h-17.5V499z"/>
	<path d="M271.3,289h17.5v192.5h-17.5V289z"/>
	<path d="M461.3,321.4L448.9,309l76.1-76.1l0,0c0.1-40.6-12.2-80.2-35.3-113.6l14-10.6c24.4,32.1,38.9,79.9,38.9,127.8
		c0,2.3-0.9,4.5-2.6,6.2L461.3,321.4z"/>
	<path d="M483,111.1c-11.1-13.9-27.6-22.4-45.4-23.4V70.2c22.7,0.9,43.9,11.5,58.3,29.1L483,111.1z"/>
	<path d="M459.8,366.3l-9.4-14.8l91.5-58.2c0.4-0.3,0.7-0.7,0.7-1.2v-48.4c0-0.6-0.4-1.1-0.9-1.4c-0.6-0.2-1.2-0.1-1.6,0.3l-6.2-6.2
		l-5.6-6.7c2.6-2.5,5.9-4.2,9.5-4.8s7.3-0.2,10.6,1.2c3.5,1.4,6.4,3.9,8.5,7s3.2,6.8,3.2,10.5V292l0,0c0,6.5-3.3,12.5-8.8,16
		L459.8,366.3z"/>
	<path d="M449.9,325.6l96.3-70l10.3,14.1l-96.3,70L449.9,325.6z"/>
	<path d="M350.1,324c-5.6,0-11.1-1.8-15.6-5.2c-4.5-3.4-7.8-8.1-9.5-13.5c-7.2-2.2-13.2-7.4-16.3-14.3c-3.1-6.9-3.1-14.8,0-21.7
		c3.1-6.9,9.1-12.1,16.3-14.3c2.2-7.2,7.4-13.2,14.3-16.3s14.8-3.1,21.7,0c6.9,3.1,12.1,9.1,14.3,16.3c7.2,2.2,13.2,7.4,16.3,14.3
		c3.1,6.9,3.1,14.8,0,21.7c-3.1,6.9-9.1,12.1-16.3,14.3c-1.6,5.4-5,10.1-9.5,13.5C361.2,322.1,355.7,324,350.1,324L350.1,324z
		 M350.1,254c-4.8,0-8.8,3.9-8.8,8.8c0,2.3-0.9,4.5-2.6,6.2s-3.9,2.6-6.2,2.6c-4.8,0-8.8,3.9-8.8,8.8s3.9,8.8,8.8,8.8
		c2.3,0,4.5,0.9,6.2,2.6s2.6,3.9,2.6,6.2c0,4.8,3.9,8.8,8.8,8.8s8.8-3.9,8.8-8.8s3.9-8.8,8.8-8.8s8.8-3.9,8.8-8.8s-3.9-8.8-8.8-8.8
		s-8.8-3.9-8.8-8.8c0-2.3-0.9-4.5-2.6-6.2C354.6,254.9,352.4,254,350.1,254z"/>
	<path d="M341.3,271.4h17.5v17.5h-17.5V271.4z"/>
	<path d="M402.6,437.7c-5.6,0-11.1-1.8-15.6-5.2c-4.5-3.4-7.8-8.1-9.5-13.5c-7.2-2.2-13.2-7.4-16.3-14.3c-3.1-6.9-3.1-14.8,0-21.7
		c3.1-6.9,9.1-12.1,16.3-14.3c2.2-7.2,7.4-13.2,14.3-16.3c6.9-3.1,14.8-3.1,21.7,0c6.9,3.1,12.1,9.1,14.3,16.3
		c7.2,2.2,13.2,7.4,16.3,14.3c3.1,6.9,3.1,14.8,0,21.7c-3.1,6.9-9.1,12.1-16.3,14.3c-1.6,5.4-5,10.1-9.5,13.5
		C413.7,435.9,408.2,437.7,402.6,437.7L402.6,437.7z M402.6,367.7c-4.8,0-8.8,3.9-8.8,8.8c0,2.3-0.9,4.5-2.6,6.2s-3.9,2.6-6.2,2.6
		c-4.8,0-8.8,3.9-8.8,8.8s3.9,8.8,8.8,8.8c2.3,0,4.5,0.9,6.2,2.6s2.6,3.9,2.6,6.2c0,4.8,3.9,8.8,8.8,8.8s8.8-3.9,8.8-8.8
		s3.9-8.8,8.8-8.8s8.8-3.9,8.8-8.8s-3.9-8.8-8.8-8.8s-8.8-3.9-8.8-8.8c0-2.3-0.9-4.5-2.6-6.2S404.9,367.7,402.6,367.7z"/>
	<path d="M393.9,385.2h17.5v17.5h-17.5V385.2z"/>
	<path d="M441.9,530.4c-5.7-3.3-10-8.7-11.9-15.1c-7.2-2.2-13.2-7.4-16.3-14.3c-3.1-6.9-3.1-14.8,0-21.7c3.1-6.9,9.1-12.1,16.3-14.3
		c2.5-8.1,8.7-14.5,16.7-17.2c8-2.7,16.8-1.4,23.7,3.5s11,12.8,11,21.3h-17.5c0-4.8-3.9-8.8-8.8-8.8s-8.8,3.9-8.8,8.8
		c0,2.3-0.9,4.5-2.6,6.2s-3.9,2.6-6.2,2.6c-4.8,0-8.8,3.9-8.8,8.8s3.9,8.8,8.8,8.8c2.3,0,4.5,0.9,6.2,2.6s2.6,3.9,2.6,6.2
		c0,3.1,1.7,6,4.4,7.6L441.9,530.4z"/>
	<path d="M341.3,534c-5.6,0-11.1-1.8-15.6-5.2s-7.8-8.1-9.5-13.5c-7.2-2.2-13.2-7.4-16.3-14.3c-3.1-6.9-3.1-14.8,0-21.7
		c3.1-6.9,9.1-12.1,16.3-14.3c2.2-7.2,7.4-13.2,14.3-16.3c6.9-3.1,14.8-3.1,21.7,0c6.9,3.1,12.1,9.1,14.3,16.3
		c7.2,2.2,13.2,7.4,16.3,14.3c3.1,6.9,3.1,14.8,0,21.7c-3.1,6.9-9.1,12.1-16.3,14.3c-1.6,5.4-5,10.1-9.5,13.5
		C352.5,532.1,347,534,341.3,534L341.3,534z M341.3,464c-4.8,0-8.8,3.9-8.8,8.8c0,2.3-0.9,4.5-2.6,6.2s-3.9,2.6-6.2,2.6
		c-4.8,0-8.8,3.9-8.8,8.8s3.9,8.8,8.8,8.8c2.3,0,4.5,0.9,6.2,2.6s2.6,3.9,2.6,6.2c0,4.8,3.9,8.8,8.8,8.8s8.8-3.9,8.8-8.8
		s3.9-8.8,8.8-8.8s8.8-3.9,8.8-8.8s-3.9-8.8-8.8-8.8s-8.8-3.9-8.8-8.8c0-2.3-0.9-4.5-2.6-6.2S343.7,464,341.3,464z"/>
	<path d="M332.6,481.4h17.5v17.5h-17.5V481.4z"/>
	<path d="M420.1,245.2c-5.6,0-11.1-1.8-15.6-5.2s-7.8-8.1-9.5-13.5c-7.2-2.2-13.2-7.4-16.3-14.3c-3.1-6.9-3.1-14.8,0-21.7
		s9.1-12.1,16.3-14.3c2.2-7.2,7.4-13.2,14.3-16.3s14.8-3.1,21.7,0c6.9,3.1,12.1,9.1,14.3,16.3c7.2,2.2,13.2,7.4,16.3,14.3
		c3.1,6.9,3.1,14.8,0,21.7s-9.1,12.1-16.3,14.3c-1.6,5.4-5,10.1-9.5,13.5C431.2,243.4,425.7,245.2,420.1,245.2L420.1,245.2z
		 M420.1,175.2c-4.8,0-8.8,3.9-8.8,8.8c0,2.3-0.9,4.5-2.6,6.2s-3.9,2.6-6.2,2.6c-4.8,0-8.8,3.9-8.8,8.8s3.9,8.8,8.8,8.8
		c2.3,0,4.5,0.9,6.2,2.6s2.6,3.9,2.6,6.2c0,4.8,3.9,8.8,8.8,8.8s8.8-3.9,8.8-8.8s3.9-8.8,8.8-8.8c4.8,0,8.8-3.9,8.8-8.8
		s-3.9-8.8-8.8-8.8s-8.8-3.9-8.8-8.8c0-2.3-0.9-4.5-2.6-6.2S422.4,175.2,420.1,175.2z"/>
	<path d="M411.3,192.7h17.5v17.5h-17.5V192.7z"/>
	<path d="M98.9,321.4l-78.8-78.8c-1.6-1.6-2.6-3.9-2.6-6.2c0-9.1,0.5-18.2,1.5-27.2l17.4,2c-0.8,7.2-1.3,14.4-1.4,21.7l76.1,76.1
		L98.9,321.4z"/>
	<path d="M39.1,194.3L21.9,191c13.5-71.1,55-120.8,100.7-120.8v17.5C86,87.7,50.8,132.6,39.1,194.3L39.1,194.3z"/>
	<path d="M485.3,223.3l-15.2-8.7c3.8-7,8.4-13.5,13.8-19.4l12.4,12.4l0,0C492,212.5,488.3,217.7,485.3,223.3L485.3,223.3z"/>
	<path d="M385.1,560.2h-57.6c-9.5,0-18.9-2.2-27.4-6.5l-12.2-6.1c-4.9-2.5-10.7-2.5-15.7,0l-12.2,6.1c-8.5,4.2-17.9,6.5-27.4,6.5
		h-57.5c-25.5,0-50-10.2-68-28.2s-28.2-42.5-28.2-68v-17.5c0-0.5,0.1-1.1,0.1-1.6c0.2-1,17.4-95.9,17.4-129.7
		c0.4-25.8-4.2-51.4-13.5-75.5l16.2-6.6l0,0c10.2,26.1,15.2,54,14.8,82.1c0,34.1-15.8,122.1-17.5,132v16.7
		c0,20.9,8.3,40.9,23.1,55.7c14.8,14.8,34.8,23.1,55.7,23.1h57.6c6.8,0,13.5-1.6,19.6-4.6l12.2-6.1c9.9-4.9,21.4-4.9,31.3,0
		l12.2,6.1c6.1,3,12.8,4.6,19.6,4.6h57.4c20.9,0,40.9-8.3,55.7-23.1c14.8-14.8,23.1-34.8,23.1-55.7v-16.7
		c-1.8-9.9-17.5-97.9-17.5-132c-0.4-28.1,4.6-55.9,14.8-82l16.2,6.6l0,0c-9.3,24-13.9,49.7-13.5,75.5c0,33.8,17.2,128.7,17.4,129.7
		c0.1,0.5,0.1,1,0.1,1.6v17.5c0,25.5-10.2,50-28.2,68C435.1,550,410.6,560.2,385.1,560.2L385.1,560.2z"/>
	<path d="M74.9,223.3c-3-5.6-6.7-10.9-11-15.7l12.4-12.3l0,0c5.4,5.8,10,12.3,13.8,19.3L74.9,223.3z"/>
	<path d="M100.4,366.3L8.8,308.1c-5.5-3.5-8.8-9.5-8.8-16v-48.4c0-5,2-9.9,5.6-13.4c3.6-3.6,8.4-5.6,13.4-5.6s9.9,2,13.4,5.6
		l-11.7,12.9c-0.8-0.7-1.3-1.2-2.2-0.9c-0.6,0.2-0.9,0.8-0.9,1.4v48.4c0,0.5,0.3,1,0.7,1.2l91.5,58.2L100.4,366.3z"/>
	<path d="M3.7,269.8L14,255.7l96.2,70l-10.3,14.1L3.7,269.8z"/>
	<path d="M210.1,324c-5.6,0-11.1-1.8-15.6-5.2c-4.5-3.4-7.8-8.1-9.5-13.5c-7.2-2.2-13.2-7.4-16.3-14.3s-3.1-14.8,0-21.7
		c3.1-6.9,9.1-12.1,16.3-14.3c2.2-7.2,7.4-13.2,14.3-16.3s14.8-3.1,21.7,0c6.9,3.1,12.1,9.1,14.3,16.3c7.2,2.2,13.2,7.4,16.3,14.3
		c3.1,6.9,3.1,14.8,0,21.7c-3.1,6.9-9.1,12.1-16.3,14.3c-1.6,5.4-5,10.1-9.5,13.5C221.2,322.1,215.7,324,210.1,324L210.1,324z
		 M210.1,254c-4.8,0-8.8,3.9-8.8,8.8c0,2.3-0.9,4.5-2.6,6.2s-3.9,2.6-6.2,2.6c-4.8,0-8.8,3.9-8.8,8.8s3.9,8.8,8.8,8.8
		c2.3,0,4.5,0.9,6.2,2.6s2.6,3.9,2.6,6.2c0,4.8,3.9,8.8,8.8,8.8s8.8-3.9,8.8-8.8s3.9-8.8,8.8-8.8s8.8-3.9,8.8-8.8s-3.9-8.8-8.8-8.8
		s-8.8-3.9-8.8-8.8c0-2.3-0.9-4.5-2.6-6.2C214.6,254.9,212.4,254,210.1,254z"/>
	<path d="M201.3,271.4h17.5v17.5h-17.5V271.4z"/>
	<path d="M157.6,437.7c-5.6,0-11.1-1.8-15.6-5.2c-4.5-3.4-7.8-8.1-9.5-13.5c-7.2-2.2-13.2-7.4-16.3-14.3s-3.1-14.8,0-21.7
		c3.1-6.9,9.1-12.1,16.3-14.3c2.2-7.2,7.4-13.2,14.3-16.3c6.9-3.1,14.8-3.1,21.7,0s12.1,9.1,14.3,16.3c7.2,2.2,13.2,7.4,16.3,14.3
		s3.1,14.8,0,21.7c-3.1,6.9-9.1,12.1-16.3,14.3c-1.6,5.4-5,10.1-9.5,13.5C168.7,435.9,163.2,437.7,157.6,437.7L157.6,437.7z
		 M157.6,367.7c-4.8,0-8.8,3.9-8.8,8.8c0,2.3-0.9,4.5-2.6,6.2s-3.9,2.6-6.2,2.6c-4.8,0-8.8,3.9-8.8,8.8s3.9,8.8,8.8,8.8
		c2.3,0,4.5,0.9,6.2,2.6c1.7,1.7,2.6,3.9,2.6,6.2c0,4.8,3.9,8.8,8.8,8.8c4.9,0,8.8-3.9,8.8-8.8s3.9-8.8,8.8-8.8
		c4.9,0,8.8-3.9,8.8-8.8s-3.9-8.8-8.8-8.8c-4.9,0-8.8-3.9-8.8-8.8c0-2.3-0.9-4.5-2.6-6.2S159.9,367.7,157.6,367.7z"/>
	<path d="M148.9,385.2h17.5v17.5h-17.5V385.2z"/>
	<path d="M118.3,530.4l-8.8-15.1c2.7-1.6,4.4-4.4,4.4-7.6c0-4.8,3.9-8.8,8.8-8.8s8.8-3.9,8.8-8.8s-3.9-8.8-8.8-8.8s-8.8-3.9-8.8-8.8
		s-3.9-8.8-8.8-8.8s-8.8,3.9-8.8,8.8H78.8c0-8.5,4.1-16.4,11-21.3s15.7-6.2,23.7-3.5s14.2,9.1,16.7,17.2c7.2,2.2,13.2,7.4,16.3,14.3
		s3.1,14.8,0,21.7c-3.1,6.9-9.1,12.1-16.3,14.3C128.3,521.7,124,527.1,118.3,530.4L118.3,530.4z"/>
	<path d="M218.9,534c-5.6,0-11.1-1.8-15.6-5.2s-7.8-8.1-9.5-13.5c-7.2-2.2-13.2-7.4-16.3-14.3s-3.1-14.8,0-21.7
		c3.1-6.9,9.1-12.1,16.3-14.3c2.2-7.2,7.4-13.2,14.3-16.3c6.9-3.1,14.8-3.1,21.7,0c6.9,3.1,12.1,9.1,14.3,16.3
		c7.2,2.2,13.2,7.4,16.3,14.3c3.1,6.9,3.1,14.8,0,21.7c-3.1,6.9-9.1,12.1-16.3,14.3c-1.6,5.4-5,10.1-9.5,13.5
		C230,532.1,224.5,534,218.9,534L218.9,534z M218.9,464c-4.8,0-8.8,3.9-8.8,8.8c0,2.3-0.9,4.5-2.6,6.2s-3.9,2.6-6.2,2.6
		c-4.8,0-8.8,3.9-8.8,8.8s3.9,8.8,8.8,8.8c2.3,0,4.5,0.9,6.2,2.6s2.6,3.9,2.6,6.2c0,4.8,3.9,8.8,8.8,8.8s8.8-3.9,8.8-8.8
		s3.9-8.8,8.8-8.8s8.8-3.9,8.8-8.8s-3.9-8.8-8.8-8.8s-8.8-3.9-8.8-8.8c0-2.3-0.9-4.5-2.6-6.2S221.2,464,218.9,464z"/>
	<path d="M210.1,481.4h17.5v17.5h-17.5V481.4z"/>
	<path d="M140.1,245.2c-5.6,0-11.1-1.8-15.6-5.2c-4.5-3.4-7.8-8.1-9.5-13.5c-7.2-2.2-13.2-7.4-16.3-14.3c-3.1-6.9-3.1-14.8,0-21.7
		s9.1-12.1,16.3-14.3c2.2-7.2,7.4-13.2,14.3-16.3c6.9-3.1,14.8-3.1,21.7,0s12.1,9.1,14.3,16.3c7.2,2.2,13.2,7.4,16.3,14.3
		c3.1,6.9,3.1,14.8,0,21.7s-9.1,12.1-16.3,14.3c-1.6,5.4-5,10.1-9.5,13.5C151.2,243.4,145.7,245.2,140.1,245.2L140.1,245.2z
		 M140.1,175.2c-4.8,0-8.8,3.9-8.8,8.8c0,2.3-0.9,4.5-2.6,6.2c-1.7,1.7-3.9,2.6-6.2,2.6c-4.8,0-8.8,3.9-8.8,8.8s3.9,8.8,8.8,8.8
		c2.3,0,4.5,0.9,6.2,2.6c1.7,1.7,2.6,3.9,2.6,6.2c0,4.8,3.9,8.8,8.8,8.8c4.9,0,8.8-3.9,8.8-8.8s3.9-8.8,8.8-8.8
		c4.9,0,8.8-3.9,8.8-8.8s-3.9-8.8-8.8-8.8c-4.9,0-8.8-3.9-8.8-8.8c0-2.3-0.9-4.5-2.6-6.2S142.4,175.2,140.1,175.2z"/>
	<path d="M131.3,192.7h17.5v17.5h-17.5V192.7z"/>
</g>
</svg>
