<?xml version="1.0" encoding="utf-8"?>
<!-- Generator: Adobe Illustrator 26.0.0, SVG Export Plug-In . SVG Version: 6.00 Build 0)  -->
<svg version="1.1" id="katman_1" xmlns="http://www.w3.org/2000/svg" xmlns:xlink="http://www.w3.org/1999/xlink" x="0px" y="0px"
	 viewBox="0 0 560.1 560.1" style="enable-background:new 0 0 560.1 560.1;" xml:space="preserve">
<g>
	<path d="M496.7,59L382.2,36.1L366.6,4.9c-0.6-1.1-1.4-2.1-2.4-2.9c-0.2-0.1-0.3-0.2-0.5-0.4c-1-0.7-2.1-1.1-3.2-1.4
		c-0.1,0-0.2-0.1-0.3-0.1h-0.9c-0.3,0-0.4-0.1-0.6-0.1H201.3c-0.2,0-0.3,0.1-0.5,0.1c-0.3,0-0.6,0-0.9,0c-0.1,0-0.2,0.1-0.3,0.1l0,0
		c-1.2,0.2-2.3,0.7-3.3,1.4c-0.2,0.2-0.3,0.3-0.5,0.4c-1,0.8-1.8,1.7-2.4,2.9l-15.6,31.2L63.3,59c-17.8,3.6-33.9,13.3-45.4,27.3
		C6.4,100.4,0,118,0,136.2v345.1c0,7,2.8,13.6,7.7,18.6s11.6,7.7,18.6,7.7h96.2v26.2c0,7,2.8,13.6,7.7,18.6s11.6,7.7,18.6,7.7H245
		c4.8,0,8.8-3.9,8.8-8.8s-3.9-8.8-8.8-8.8h-96.2c-4.8,0-8.8-3.9-8.8-8.8V157.6c0-2.3-0.9-4.5-2.6-6.2l-17.5-17.5
		c-3.4-3.3-8.9-3.3-12.3,0.1s-3.4,8.8-0.1,12.3l14.9,14.9v328.9H26.3c-4.8,0-8.8-3.9-8.8-8.8v-8.8h78.8c4.8,0,8.8-3.9,8.8-8.8
		s-3.9-8.8-8.8-8.8H17.5V136.2c0-14.2,4.9-27.9,13.9-38.8s21.4-18.5,35.3-21.3l112.7-22.5l49.3,82.3c1.4,2.3,3.8,3.8,6.4,4.2
		c0.4,0,0.7,0,1.1,0c2.3,0,4.5-0.9,6.2-2.6l28.8-28.8v442.6c0,2.3,0.9,4.5,2.6,6.2s3.9,2.6,6.2,2.6h131.2c7,0,13.6-2.8,18.6-7.7
		s7.7-11.6,7.7-18.6v-26.2h96.3c7,0,13.6-2.8,18.6-7.7s7.7-11.6,7.7-18.6V136.2c0-18.2-6.4-35.8-17.9-49.9
		C530.6,72.3,514.5,62.6,496.7,59L496.7,59z M257.4,52.6h45.3L280,75.2L257.4,52.6z M320.1,35.1h-80.3l-17.5-17.5h115.3L320.1,35.1z
		 M356.4,23.6l9.9,19.8L322,117.2l-29.6-29.6L356.4,23.6z M238,117.2l-44.3-73.8l9.9-19.8l64,64L238,117.2z M420,533.9
		c0,2.3-0.9,4.5-2.6,6.2s-3.9,2.6-6.2,2.6H288.8v-52.6h8.8c4.8,0,8.8-3.9,8.8-8.8s-3.9-8.8-8.8-8.8h-8.8v-35h8.8
		c4.8,0,8.8-3.9,8.8-8.8s-3.9-8.8-8.8-8.8h-8.8v-35h8.8c4.8,0,8.8-3.9,8.8-8.8s-3.9-8.8-8.8-8.8h-8.8v-35h8.8c4.8,0,8.8-3.9,8.8-8.8
		s-3.9-8.8-8.8-8.8h-8.8v-35h8.8c4.8,0,8.8-3.9,8.8-8.8s-3.9-8.8-8.8-8.8h-8.8v-35h8.8c4.8,0,8.8-3.9,8.8-8.8s-3.9-8.8-8.8-8.8h-8.8
		v-35h8.8c4.8,0,8.8-3.9,8.8-8.8s-3.9-8.8-8.8-8.8h-8.8V108l28.8,28.8l0,0c1.6,1.6,3.9,2.6,6.2,2.6c0.4,0,0.7,0,1.1-0.1
		c2.7-0.3,5-1.9,6.4-4.2l49.3-82.2l112.7,22.6c13.9,2.8,26.3,10.3,35.3,21.3c9,10.9,13.9,24.7,13.9,38.8v319.5h-105V161.2l14.9-14.9
		l0,0c3.3-3.4,3.3-8.9-0.1-12.3s-8.8-3.4-12.3-0.1l-17.5,17.5c-1.6,1.6-2.6,3.9-2.6,6.2L420,533.9z M542.5,481.4
		c0,2.3-0.9,4.5-2.6,6.2s-3.9,2.6-6.2,2.6h-96.2v-17.5h105V481.4z"/>
</g>
</svg>
