<?xml version="1.0" encoding="utf-8"?>
<!-- Generator: Adobe Illustrator 26.0.0, SVG Export Plug-In . SVG Version: 6.00 Build 0)  -->
<svg version="1.1" id="katman_1" xmlns="http://www.w3.org/2000/svg" xmlns:xlink="http://www.w3.org/1999/xlink" x="0px" y="0px"
	 viewBox="0 0 685.9 559.9" style="enable-background:new 0 0 685.9 559.9;" xml:space="preserve">
<style type="text/css">
	.st0{fill-rule:evenodd;clip-rule:evenodd;}
</style>
<g>
	<path class="st0" d="M388.7,182.9c0,6.3-5.1,11.4-11.4,11.4s-11.4-5.1-11.4-11.4c0-6.3,5.1-11.4,11.4-11.4S388.7,176.6,388.7,182.9
		"/>
	<path class="st0" d="M377.3,262.9c0,6.3-5.1,11.4-11.4,11.4s-11.4-5.1-11.4-11.4s5.1-11.4,11.4-11.4
		C372.2,251.4,377.3,256.6,377.3,262.9"/>
	<path class="st0" d="M365.9,342.9c0,6.3-5.1,11.4-11.4,11.4s-11.4-5.1-11.4-11.4s5.1-11.4,11.4-11.4
		C360.7,331.4,365.9,336.6,365.9,342.9"/>
	<path class="st0" d="M354.4,422.9c0,6.3-5.1,11.4-11.4,11.4s-11.4-5.1-11.4-11.4s5.1-11.4,11.4-11.4S354.4,416.6,354.4,422.9"/>
	<path class="st0" d="M291,32c13.4-5.7,32-9.1,52.1-9.1c20,0,38.7,3.4,52.1,9.1c8.3,3.6,13.4,7.4,15.4,10.7L343,119.8l-67.5-77.1
		C277.6,39.4,282.7,35.5,291,32z M251.6,45.7c0,2.8,1,5.4,2.8,7.5l80,91.4c4.6,5.2,12.6,5.2,17.2,0l80-91.4c1.8-2.1,2.8-4.8,2.8-7.5
		C434.4,17.8,392.9,0,343,0S251.6,17.8,251.6,45.7L251.6,45.7z"/>
	<path class="st0" d="M390,100.8l38.2-43.6h21.1l-39.2,70.5L390,100.8z M402.4,155.4c5,6.6,15.1,5.9,19.1-1.3l57.1-102.9
		c4.2-7.6-1.3-17-10-17H423c-3.3,0-6.4,1.4-8.6,3.9l-47.7,54.5c-3.6,4.1-3.8,10.1-0.5,14.4L402.4,155.4z"/>
	<path class="st0" d="M283.6,155.4l36.3-48.4c3.2-4.3,3-10.3-0.5-14.4l-47.7-54.5c-2.2-2.5-5.3-3.9-8.6-3.9h-45.7
		c-8.7,0-14.2,9.4-10,17l57.1,102.9C268.5,161.4,278.6,162.1,283.6,155.4L283.6,155.4z M236.7,57.1h21.1l38.2,43.6l-20.1,26.8
		L236.7,57.1z"/>
	<path class="st0" d="M411.6,217.1c-6.3,0-11.4,5.1-11.4,11.4c0,6.3,5.1,11.4,11.4,11.4c12.6,0,22.9,10.2,22.9,22.9
		c0,15.2,22.9,15.2,22.9,0c0-12.6,10.2-22.9,22.9-22.9c6.3,0,11.4-5.1,11.4-11.4c0-6.3-5.1-11.4-11.4-11.4c-13.7,0-25.9,6-34.3,15.5
		C437.5,223.1,425.2,217.1,411.6,217.1L411.6,217.1z"/>
	<path class="st0" d="M603.9,375.4c7.5,12.6,23.7,16.9,36.5,9.5l31.3-18c13.7-7.9,18.4-25.5,10.3-39.2L528.7,66.9
		c-3.8-6.5-8.7-12.3-14.5-17.2c-11.9-10-26.9-15.5-42.4-15.5H423c-3.3,0-6.4,1.4-8.6,3.9l-80,91.4c-1.5,1.7-2.4,3.7-2.7,6l-56.1,404
		c-0.8,5.7,2.8,11.1,8.4,12.6c52.3,13.9,107.6,9.2,156.5-13.6l78.8-36.8c4-1.9,6.6-5.9,6.6-10.4V243.8L603.9,375.4z M660.2,347
		l-31.3,18c-1.9,1.1-4.3,0.5-5.4-1.4l-99.3-167.2c-5.9-10-21.3-5.8-21.3,5.8v281.9l-72.2,33.7c-40.9,19.1-87,24.1-131.2,14.6
		l54.2-390.3l74.3-85h43.5c10.1,0,20,3.6,27.7,10.1c3.8,3.2,7,7,9.5,11.3L662,339.2C663.9,341.9,663,345.5,660.2,347L660.2,347z"/>
	<path class="st0" d="M640.4,384.3l31.3-18.1c13.7-7.9,18.4-25.5,10.3-39.2l-20.2-34.4c-3.3-5.6-10.5-7.3-16-3.8l-58.1,36.9
		c-5.2,3.3-6.8,10.2-3.7,15.5l19.9,33.6C611.4,387.4,627.7,391.6,640.4,384.3L640.4,384.3z M648.1,314.4l14.2,24.2
		c1.6,2.7,0.7,6.2-2.1,7.8L629,364.5c-1.9,1.1-4.3,0.4-5.4-1.4l-14.3-24L648.1,314.4z"/>
	<path class="st0" d="M24.7,293.5L3.8,329.3c-7.5,12.8-3.1,29.3,9.7,36.7l32.8,19c12.8,7.4,29.1,3.1,36.5-9.6l22.4-38.1
		c3.3-5.6,1.2-12.8-4.5-15.9l-60.8-32.2C34.5,286.3,27.8,288.2,24.7,293.5L24.7,293.5z M79.5,336l-16.3,27.8
		c-1.1,1.9-3.5,2.5-5.4,1.4L25,346.3c-1.9-1.1-2.5-3.5-1.4-5.4L39,314.6L79.5,336z"/>
	<path class="st0" d="M160.1,491.4c0,4.4,2.6,8.5,6.6,10.4l78.8,36.8c11.8,5.5,24.4,9.9,38.5,13.6c6.6,1.8,13.3-2.7,14.2-9.5
		l56.1-404c0.5-3.3-0.5-6.6-2.7-9.1l-80-91.4c-2.2-2.5-5.3-3.9-8.6-3.9h-48.7c-15.5,0-30.6,5.5-42.5,15.5
		c-5.8,4.9-10.7,10.7-14.5,17.2L3.7,330c-7.5,12.8-3.1,29.3,9.8,36.7l32.8,18.9c12.7,7.4,29.1,3.1,36.5-9.6l77.3-131.6V491.4z
		 M277.4,526.5c-7.9-2.5-15.3-5.4-22.2-8.6L183,484.2V202.3c0-11.6-15.4-15.8-21.3-5.8L63.1,364.4c-1.1,1.9-3.5,2.5-5.4,1.4
		L25,346.9c-1.9-1.1-2.5-3.5-1.4-5.4l153.5-263c2.5-4.3,5.7-8.1,9.5-11.3c7.8-6.5,17.6-10.1,27.7-10.1h43.5l73.1,83.6L277.4,526.5z"
		/>
</g>
</svg>
