<?xml version="1.0" encoding="utf-8"?>
<!-- Generator: Adobe Illustrator 26.0.0, SVG Export Plug-In . SVG Version: 6.00 Build 0)  -->
<svg version="1.1" id="katman_1" xmlns="http://www.w3.org/2000/svg" xmlns:xlink="http://www.w3.org/1999/xlink" x="0px" y="0px"
	 viewBox="0 0 686 560.3" style="enable-background:new 0 0 686 560.3;" xml:space="preserve">
<style type="text/css">
	.st0{fill-rule:evenodd;clip-rule:evenodd;}
</style>
<g>
	<path class="st0" d="M514.2,49.8c-11.9-10-26.9-15.5-42.5-15.5H423c-3.3,0-6.4,1.4-8.6,3.9L343,119.8l-71.4-81.6
		c-2.2-2.5-5.3-3.9-8.6-3.9h-48.7c-15.5,0-30.6,5.5-42.5,15.5c-5.8,4.9-10.7,10.7-14.5,17.2L3.7,330c-7.5,12.8-3.1,29.3,9.8,36.7
		l32.8,18.9c12.8,7.4,29.1,3.1,36.5-9.6l77.3-131.6v247.1c0,4.4,2.6,8.5,6.6,10.4l78.8,36.8c61.8,28.8,133.2,28.8,195,0l78.8-36.8
		c4-1.9,6.6-5.9,6.6-10.4V244L604,375.4c7.5,12.6,23.7,16.9,36.5,9.5l31.3-18c13.7-7.9,18.4-25.5,10.3-39.2L528.7,67
		C524.9,60.5,520,54.7,514.2,49.8L514.2,49.8z M430.8,517.9c-55.7,26-120,26-175.6,0L183,484.2V202.3c0-11.6-15.4-15.8-21.3-5.8
		L63.1,364.4c-1.1,1.9-3.5,2.5-5.4,1.4L25,346.9c-1.9-1.1-2.5-3.5-1.4-5.4l153.6-263c2.5-4.3,5.7-8.1,9.5-11.3
		c7.8-6.5,17.6-10.1,27.7-10.1h43.5l76.6,87.5c4.6,5.2,12.6,5.2,17.2,0l76.5-87.4h43.5c10.2,0,20,3.6,27.8,10.1
		c3.8,3.2,7,7,9.5,11.2l153.3,260.7c1.6,2.7,0.7,6.2-2.1,7.8l-31.3,18c-1.9,1.1-4.3,0.5-5.4-1.4l-99.3-167.2
		c-5.9-10-21.3-5.8-21.3,5.8v281.9L430.8,517.9z"/>
	<path class="st0" d="M390,100.8l38.2-43.6h21.1l-39.2,70.5L390,100.8z M402.4,155.4c5,6.6,15.1,5.9,19.1-1.3l57.1-102.9
		c4.2-7.6-1.3-17-10-17H423c-3.3,0-6.4,1.4-8.6,3.9l-47.7,54.5c-3.6,4.1-3.8,10.1-0.5,14.4L402.4,155.4z"/>
	<path class="st0" d="M328.1,102.8c-6.7-7.6-19.3-3.4-20,6.7l-22.2,312.6c-0.2,3.3,1,6.5,3.3,8.9l45.7,45.7c4.5,4.5,11.7,4.5,16.2,0
		l45.7-45.7c2.3-2.3,3.6-5.6,3.3-8.9l-22.2-312.6c-0.7-10.1-13.3-14.4-20-6.7l-14.9,17L328.1,102.8z M376.9,418.5L343,452.4
		l-33.9-33.9l19.9-280l5.5,6.2c4.6,5.2,12.6,5.2,17.2,0l5.4-6.2L376.9,418.5z"/>
	<path class="st0" d="M291,32c13.4-5.7,32-9.1,52.1-9.1c20,0,38.7,3.4,52.1,9.1c8.3,3.6,13.4,7.4,15.4,10.7L343,119.8l-67.5-77.1
		C277.6,39.4,282.7,35.6,291,32z M251.6,45.7c0,2.8,1,5.4,2.8,7.5l80,91.4c4.6,5.2,12.6,5.2,17.2,0l80-91.4c1.8-2.1,2.8-4.8,2.8-7.5
		C434.4,17.8,392.8,0,343,0S251.6,17.8,251.6,45.7L251.6,45.7z"/>
	<path class="st0" d="M282.6,145.2l36.3-36.9c4.2-4.3,4.4-11,0.4-15.5l-47.7-54.6c-2.2-2.5-5.3-3.9-8.6-3.9h-45.7
		c-9,0-14.4,9.9-9.7,17.5l57.1,91.4C268.7,149.5,277.4,150.4,282.6,145.2L282.6,145.2z M237.9,57.2h19.9l37.3,42.6l-18.7,19
		L237.9,57.2z"/>
	<path class="st0" d="M640.4,384.5l31.3-18.1c13.7-7.9,18.4-25.5,10.3-39.2l-20.2-34.4c-3.3-5.6-10.5-7.3-16-3.8l-58.1,36.9
		c-5.2,3.3-6.8,10.2-3.7,15.5l19.9,33.6C611.4,387.6,627.7,391.8,640.4,384.5L640.4,384.5z M648.1,314.6l14.2,24.2
		c1.6,2.7,0.7,6.2-2.1,7.8L629,364.7c-1.9,1.1-4.3,0.4-5.4-1.4l-14.3-24L648.1,314.6z"/>
	<path class="st0" d="M24.7,293.7L3.8,329.5c-7.5,12.8-3.1,29.3,9.7,36.7l32.8,19c12.8,7.4,29.1,3.1,36.5-9.6l22.4-38.1
		c3.3-5.6,1.2-12.8-4.5-15.9l-60.8-32.2C34.5,286.5,27.8,288.4,24.7,293.7L24.7,293.7z M79.5,336.2L63.2,364
		c-1.1,1.9-3.5,2.5-5.4,1.4L25,346.5c-1.9-1.1-2.5-3.5-1.4-5.4L39,314.8L79.5,336.2z"/>
</g>
</svg>
