<svg xmlns="http://www.w3.org/2000/svg" viewBox="0 0 384 266.73"><g id="katman_2" data-name="katman 2"><g id="katman_1-2" data-name="katman 1"><path d="M384,146.88c-1.73,7.08-6.13,12.34-11.27,17.27-7.49,7.17-14.81,14.54-22,22C338.28,199,319.77,196.47,309,178.8a7,7,0,0,1-1.33-3.84c.41-4.88-2.7-7.65-5.62-10.77-5.89-6.29-11.56-12.79-17.32-19.21l-3.21-3.5c-.08,1.76-.15,2.81-.17,3.87-.8,32.1-1.55,64.2-2.43,96.3a47.15,47.15,0,0,1-1.45,11.11c-1.8,6.61-6.35,10.9-12.87,13-4.13,1.33-7.19,0-8.26-3.4s.5-5.89,4.59-7.25c3.92-1.3,5.94-3.87,6.23-8,.34-4.73.76-9.45,1.16-14.24-4.67-.41-9.29-.41-13.75-1.25a43.92,43.92,0,0,1-34.86-35.81c-2.95-19,5.6-37,21.88-46,4.63-2.57,8.26-2.51,11.46.21s3.82,6.19,2.08,11.26c-4.3,12.48-.17,25.35,10.42,32.37,1.2.8,2.52,1.4,4.23,2.34.09-1.79.21-3,.21-4.18q-.11-32.43-.27-64.87c0-3.09.35-5.85,3.68-7s5.36.59,7.4,3c10.34,12,20.78,24,30.93,35.67L348,122.16,332.16,97.53c-4.6.4-8.41.54-12.14,1.12a28,28,0,0,0-6.78,2.19c-1.33.59-2.38,1.8-3.63,2.63-7.05,4.71-16.14,1.87-18.42-6.3A19.61,19.61,0,0,0,282.44,85c-7.59-4.93-7.22-14.68.19-20.13,3-2.24,7.07-3.67,7.32-8.3.05-1-.22-2.61-.93-3.14-10.62-7.86-22.1-14-35.48-16.83,0,7.44.42,14.69-.09,21.86a129.53,129.53,0,0,1-9.67,39.88c-5.65,13.8-22.49,17.82-34,8.3-3.92-3.24-7.58-6.8-12-10.76-.1,1.92-.21,3.2-.21,4.49q0,69.75,0,139.5c0,10.8,4.75,15.53,15.54,15.54,6.87,0,13.75,0,20.62,0,4.59,0,7,1.94,7,5.49s-2.43,5.69-7.19,5.73c-5.62,0-11.24,0-16.87,0-13.35,0-14.59-.41-25-8.32-6.59,7.58-15.41,8.57-24.83,8.39-13.37-.27-26.75,0-40.12-.08-12.61,0-20.08-6.86-21.2-19.38-2.85-31.78-3.18-63.65-3-95.53a44,44,0,0,0-.84-10.17,33.38,33.38,0,0,1-2.23,3.13c-6.85,7.62-13.78,15.17-20.59,22.83a7.85,7.85,0,0,0-2.13,4.08c-.87,10.63-8,16.47-16.51,20.55s-17.25,2.79-24.14-3.57c-10.55-9.75-20.64-20-30.46-30.5C3,155.13,1.85,150.65,0,146.88v-8.25A31.36,31.36,0,0,1,11.09,122.2a25.82,25.82,0,0,1,9.23-4.45c2.37-.58,3.94-1.32,5.33-3.33C40.65,92.65,57.07,72.06,77,54.55c4.5-3.95,9.28-7.6,14-11.22,3.25-2.47,6.63-2.1,8.59.6s1.21,6-2,8.44C94.37,55,91,57.54,87.09,60.57c2.25.73,3.86,1.23,5.45,1.79,8.22,2.87,11.4,11.93,6,18.76a20.67,20.67,0,0,0-4.76,14.63,11.44,11.44,0,0,1-15.59,11.36c-5.33-1.93-10.06-2.24-15.39,0s-8.28.77-14.6-4.7L34.65,121l37.43,37.56c7-7.9,14.43-16.15,21.75-24.48,3.39-3.84,6.68-7.77,9.92-11.74,1.87-2.28,4.11-3.31,6.93-2.34s3.65,3.42,3.64,6.3c-.06,8.72,0,17.44,0,26.19,4.34,1.74,8.43,1.64,12.56-1.18,9-6.14,19.54.22,19.58,9.74,0,4.58,2.25,7.74,5.57,10.78,7.75,7.09,6.17,16.77-3.48,21.09a15.78,15.78,0,0,0-8.58,8.59c-4.42,9.83-13.94,11.15-21.42,3.28-1.18-1.23-2.19-2.63-3.93-4.75,0,4-.12,6.68,0,9.34.7,12.6,1.41,25.2,2.28,37.79.37,5.36,3.36,8.15,8.8,8.18,15.87.09,31.74.14,47.61,0,7.58-.07,12.56-5.18,13-12.73.07-1.12,0-2.25,0-3.37q0-69.19,0-138.38V95.63c-4.06,3.71-7.31,6.75-10.64,9.7-13.11,11.58-30.45,7.13-36.46-9.31-5.88-16.08-9.49-32.59-9.4-49.78,0-3,.36-6,.59-9.48-3.26,1-6.18,1.9-9.11,2.77-3.91,1.16-7-.12-8-3.28s.54-6.07,4.49-7.36c4.26-1.38,8.66-2.36,12.93-3.71,1.28-.41,3-1.23,3.4-2.3,4.94-12.46,14.57-18.68,27.31-20.55a196.44,196.44,0,0,1,63,.44c11.68,2.05,20.17,8.17,24.87,19.28a4.63,4.63,0,0,0,2.69,2.55c27.55,5.26,48.6,21.29,67.55,40.73C334,80.08,345.92,96.74,356.29,114.5c1.25,2.14,2.5,3.09,5.19,3,8-.16,17.72,8.08,21.07,17.32.45,1.27,1,2.51,1.45,3.77ZM192,10.58l-.08,1.36c-5.74,0-11.53-.49-17.2.13A110,110,0,0,0,155,15.93c-6.64,2-8.31,6.17-6.42,12.88a24.17,24.17,0,0,0,1.26,3.52,87.51,87.51,0,0,0,39,42,6.16,6.16,0,0,0,6.57-.1,86.6,86.6,0,0,0,38-40c5.75-12.07,3.24-17.5-9.85-20C213.13,12.28,202.49,11.74,192,10.58ZM49.42,183c8.28-.26,12.24-4.46,15.4-9.32.82-1.26.32-4.57-.81-5.74C51.67,155.2,39.12,142.7,26.54,130.23c-2.4-2.38-5.2-2.13-7.73.06A49.66,49.66,0,0,0,15.09,134c-5.19,5.56-5.23,12.63.1,18.05,8.93,9.06,17.85,18.14,27.06,26.92C44.53,181.11,47.9,182.15,49.42,183Zm283.46.7c2.83-1.39,6.2-2.2,8.38-4.27,9.57-9.12,18.89-18.51,28.1-28,4.62-4.75,4.55-11.64.26-16.68a46.91,46.91,0,0,0-4.21-4.25c-2.77-2.49-5.67-2.57-8.3,0-12.3,12.22-24.61,24.44-36.7,36.87a7.48,7.48,0,0,0-1.37,6.06C320.14,177.74,327.9,182.76,332.88,183.67Zm-191-141.24a7.35,7.35,0,0,0-.65,1.54c-.58,17.77,3.13,34.75,9.85,51.07,2.14,5.18,9.24,7.53,13.72,4.25,6.23-4.56,11.73-10.13,17.77-15.48C164.73,73.66,151.81,59.91,141.89,42.43Zm59.65,41.31c5.6,5.14,10.68,10.32,16.31,14.82,5.28,4.22,13,1.91,15.53-4.52,6.16-15.57,9.68-31.71,9.47-48.55a26.2,26.2,0,0,0-.59-3.38C232.23,59.9,219.28,73.62,201.54,83.74Zm41.23,78.88c-1.31,1.18-2.37,2-3.29,3a32.86,32.86,0,0,0,25.8,55.59c1.3-.07,3.67-1.29,3.62-1.81-.34-4,2.18-8.25-1-12-.07-.09-.22-.11-.33-.17C247.94,198.05,240.24,184.41,242.77,162.62Zm-128.64,1V189c7.2-.21,9.73,6.16,15,10,2.27-9,7.9-14.65,18-17.22-8.76-5.55-12.35-12.55-11.73-22.29C128.28,163.22,122.27,167.93,114.13,163.62ZM323.44,87.83l.36-1.54L300.05,61.41c-1,8.06-7.8,9.47-12.29,14.15,8.68,3.57,13.06,10.21,14.23,20C308.57,89.22,314.82,85.13,323.44,87.83ZM82.36,97.14c.22-4.83-.4-9.15.83-12.86S87.52,77.22,90,73.44c-3.44-1.08-6.76-1.8-9.77-3.19-2.19-1-3.37-.45-4.78,1.09C70.55,76.66,65.7,82,60.62,87.17c-2.73,2.77-2.77,5.8-2,10.11C66.5,92.17,74.35,92.55,82.36,97.14Z"/></g></g></svg>