<svg xmlns="http://www.w3.org/2000/svg" viewBox="0 0 381.58 384"><g id="katman_2" data-name="katman 2"><g id="katman_1-2" data-name="katman 1"><path d="M239.58,0c7.94,7.22,15.93,14.38,23.78,21.7,3.64,3.4,4,7.14,1.44,11.54-.8,1.4-1.67,2.76-2.73,4.5l13,8c1.38.86,2.8,1.65,4.12,2.59,3,2.1,3.77,5.08,2.15,7.77s-5,3.54-8.2,1.65c-4.74-2.78-9.38-5.71-14.07-8.58L256,47.31,241.56,70.25c-.73,1.16-1.44,2.34-2.19,3.49-3.64,5.61-8.27,6.83-14.09,3.54-10.55-6-21.05-12-31.58-18-4.3-2.44-8.74.17-8.74,5.13V343.53h4.22c14.12,0,28.25,0,42.37,0,2.88,0,5.24.77,6.4,3.57,1.63,3.93-1.17,7.63-5.88,7.67-9.62.08-19.25,0-28.87,0H185.28v17.74H289.92V354.78H262.65c-1.87,0-3.75.06-5.62,0-3.51-.18-5.8-2.44-5.8-5.59s2.41-5.58,6.18-5.61c9.25-.07,18.5,0,27.75,0h4.55c0-1.57,0-2.89,0-4.22q-2.06-100.83-4-201.67a24.08,24.08,0,0,1,1.68-9.07c6.51-16.47,13.26-32.84,20.12-49.71-4.29-2.63-8.55-5.16-12.73-7.82-3.31-2.11-4.21-5.1-2.57-8a5.43,5.43,0,0,1,7.77-2c9.31,5.6,18.64,11.18,27.69,17.18,5.58,3.7,8.27,9.52,9.4,16l40.41,235.12c1.35,7.87,2.78,15.73,3.94,23.64s-3.18,12.92-11,13q-20.82.1-41.63,0c-6.29,0-10.06-3.18-11.2-9.35-5.82-31.66-11.6-63.33-17.87-95-.06,1-.19,1.91-.17,2.86.66,34.62,1.21,69.23,2.11,103.84.19,7.3-1.8,12.66-8.77,15.59h-204c-6.79-2.85-9-8-8.78-15.21.89-34.74,1.45-69.48,2.12-104.22,0-.95-.11-1.91-.17-2.87-6.27,31.68-12,63.35-17.88,95C63,362.9,59.21,366,52.91,366.07c-14,.06-28,0-42,0A10.6,10.6,0,0,1,2.09,362c-2.71-3.4-2.24-7.23-1.58-11.11Q5.7,320.8,10.87,290.72c1.1-6.4,2.15-12.81,3.4-19.18.65-3.29,2.9-4.88,6.28-4.53,3,.32,4.81,2.77,4.67,6.17a20.68,20.68,0,0,1-.29,2.6c-1.37,7.88-2.78,15.74-4.13,23.62-1.16,6.8-2.27,13.61-3.41,20.42a75.67,75.67,0,0,0,8.79-8.38c4.86-5,11.76-4.57,15.94.94A85.7,85.7,0,0,1,49,322.21c2.12,3.79,4.93,4.93,9.23,3.71.19-.91.45-2,.64-3.06C65,289.21,71,255.53,77.41,221.94c4.32-22.5,7.88-45,7-68a62.07,62.07,0,0,1,.22-9.74c.78-6.42-.79-12.23-3.29-18.1-5.78-13.52-11.18-27.2-16.8-41-5,2-7.82,5.56-8.69,10.63L34.74,218.66c-1.73,10.09-3.31,20.21-5.36,30.24A8.11,8.11,0,0,1,25.27,254c-1.42.6-4.58-.34-5.48-1.64-1.17-1.66-1.45-4.46-1.09-6.6C27.23,195.5,35.93,145.32,44.48,95.1,45.92,86.66,50,80.37,57.36,75.92c18.89-11.47,37.7-23.08,56.54-34.64,1.87-1.15,3.73-2.32,5.7-3.54-1.14-1.86-2.1-3.31-2.94-4.83-2.27-4.07-2-7.8,1.37-10.93,7.93-7.42,16-14.66,24-22ZM173.43,343.33V67.65c-6.15,3.48-11.85,6.79-17.64,9.95-5.11,2.78-9.77,1.58-13-3.18-.78-1.13-1.47-2.32-2.2-3.48l-14.9-23.65L74.24,78.83c.61,1.56,1.07,2.83,1.58,4.08C82,98.16,88.29,113.4,94.38,128.7A20.68,20.68,0,0,1,96,136.3c-.12,13.75-.5,27.49-.78,41.24l-3.3,162.7c0,1,0,1.93,0,3.09ZM317.13,85.06c-6.69,16.44-13.28,32.6-19.8,48.78a8.69,8.69,0,0,0-.45,3.3q.39,21,.9,42a72.14,72.14,0,0,0,.81,10.81q10.17,56.54,20.53,113c1.4,7.71,2.85,15.42,4.26,23.1h42c-2.18-12.54-4.33-24.82-6.44-37.12Q342.4,192.48,325.86,96C325,90.91,322.3,87.35,317.13,85.06ZM91.71,372.54h81.7V355H91.71ZM181.33,50.12c-13.1-12-25.85-23.74-38.73-35.55L127.27,28.69c8.22,13.05,16.16,25.67,24.2,38.45Zm73-21.44L239,14.57,200.35,50.13l29.85,17ZM225.61,11.59H156l34.81,32C202.46,32.87,213.83,22.43,225.61,11.59ZM56.14,337.53c-13.72,0-26.81,0-39.9.08A3,3,0,0,0,14,339.36c-1,5-1.75,10-2.65,15.44,13.57,0,26.78,0,40-.07a2.69,2.69,0,0,0,2-1.62C54.34,348.12,55.16,343.09,56.14,337.53Zm311.21.18H325.53c.88,4.88,1.86,9.49,2.48,14.15.32,2.42,1.33,3,3.62,3,12-.11,24-.05,36-.07a22.43,22.43,0,0,0,2.69-.34C369.28,348.73,368.32,343.24,367.35,337.71ZM28,326.05H38L33.65,320Z"/><path d="M219.73,168.1c0-6.25-.07-12.5,0-18.74.09-6.54,3.2-9.67,9.69-9.71q17.61-.08,35.23,0c6.51,0,9.68,3.15,9.72,9.68.08,12.61,0,25.23.05,37.85a9.55,9.55,0,0,1-5.35,9.12c-5.68,3.14-11.3,6.39-16.88,9.69A9.26,9.26,0,0,1,242,206q-8.53-5.07-17.2-9.89a9,9,0,0,1-5.05-8.52C219.75,181.09,219.73,174.59,219.73,168.1Zm43.41,3.84H231c0,4.51-.09,8.83.09,13.15a3.77,3.77,0,0,0,1.72,2.52c4.14,2.55,8.34,5,12.62,7.28a4.11,4.11,0,0,0,3.33,0q6.43-3.41,12.62-7.27a4.22,4.22,0,0,0,1.67-2.92C263.25,180.57,263.14,176.46,263.14,171.94Zm-.21-20.82H231.22v9.19h31.71Z"/><path d="M196.74,268.59c0-1.37-.11-2.75,0-4.1a5.1,5.1,0,0,1,4.78-4.92c3-.37,5.44,1,5.9,3.92a33.72,33.72,0,0,1,0,10c-.42,2.93-2.83,4.35-5.83,4s-4.67-2.14-4.92-5.16c-.1-1.24,0-2.49,0-3.74Z"/><path d="M196.74,102a40,40,0,0,1,0-4.1A5.09,5.09,0,0,1,201.62,93c3-.33,5.41,1.06,5.85,4a34.06,34.06,0,0,1,0,10c-.44,2.94-2.9,4.29-5.88,4a5.08,5.08,0,0,1-4.8-4.88A37.53,37.53,0,0,1,196.74,102Z"/><path d="M196.71,143.64c0-1.25-.06-2.5,0-3.74a5.13,5.13,0,0,1,5.23-5.25c3-.19,5.24,1.42,5.64,4.35a34.74,34.74,0,0,1,0,9.28c-.41,2.93-2.68,4.56-5.64,4.37a5.17,5.17,0,0,1-5.23-5.28C196.65,146.13,196.71,144.88,196.71,143.64Z"/><path d="M208.06,185.3a30.5,30.5,0,0,1-.48,4.8,5.5,5.5,0,0,1-10.82-.93,64.48,64.48,0,0,1-.06-7.09c.14-3.57,2.3-5.8,5.47-5.84s5.38,2.14,5.71,5.68c.11,1.12,0,2.25,0,3.37Z"/><path d="M196.72,226.87c0-1.25-.08-2.5,0-3.74.24-3.24,2.14-5.06,5.27-5.21a5.11,5.11,0,0,1,5.72,4.75,36.76,36.76,0,0,1,.07,8.19,5.57,5.57,0,0,1-5.87,5.12c-3-.19-5-2.41-5.22-5.75-.07-1.12,0-2.24,0-3.36Z"/><path d="M196.73,309.64c0-5.89,1.57-8.42,5.39-8.5s5.83,2.71,5.8,8.64a23.61,23.61,0,0,1-.34,5.19,5.5,5.5,0,0,1-10.83-.85C196.63,312.63,196.73,311.13,196.73,309.64Z"/><path d="M108,168.19c0-6.37-.07-12.74,0-19.11s3.26-9.39,9.58-9.42q17.81-.1,35.61,0c6.09,0,9.36,3.16,9.42,9.2.11,12.87,0,25.73,0,38.6a9,9,0,0,1-4.94,8.57c-5.89,3.29-11.71,6.69-17.53,10.09a9.05,9.05,0,0,1-9.89-.08q-8.55-5.06-17.21-9.89A9.21,9.21,0,0,1,108,187.3C108,180.93,108,174.56,108,168.19ZM119.26,172c0,4.22-.21,8.09.1,11.93a6.05,6.05,0,0,0,2.3,4,114.94,114.94,0,0,0,11.64,6.73,5,5,0,0,0,4,0c4.1-2.08,8.08-4.42,12-6.84a4.24,4.24,0,0,0,2-2.73c.22-4.32.1-8.65.1-13.18Zm31.92-20.83H119.47v9.19h31.71Z"/></g></g></svg>