<?xml version="1.0" encoding="utf-8"?>
<!-- Generator: Adobe Illustrator 26.0.0, SVG Export Plug-In . SVG Version: 6.00 Build 0)  -->
<svg version="1.1" id="katman_1" xmlns="http://www.w3.org/2000/svg" xmlns:xlink="http://www.w3.org/1999/xlink" x="0px" y="0px"
	 viewBox="0 0 386 472.7" style="enable-background:new 0 0 386 472.7;" xml:space="preserve">
<g id="Shirt">
	<path d="M276.8,173h-31.3c-7.6,0-13.8,6.2-13.8,13.8v14.7c0,16.2,13.2,29.4,29.4,29.4s29.4-13.2,29.4-29.4v-14.7
		C290.5,179.2,284.4,173.1,276.8,173z M278.5,201.5c0,9.6-7.8,17.4-17.4,17.4c-9.6,0-17.4-7.8-17.4-17.4v-14.7c0-1,0.8-1.8,1.8-1.8
		h31.3c1,0,1.8,0.8,1.8,1.8V201.5z"/>
	<path d="M355,88.7L355,88.7c-20.1-14.6-49.5-34.3-75.8-44.9c-1.2-0.5-2.5-1-3.7-1.4c-6-13.3-12.8-22.6-20.1-27.7
		c-0.2-0.1-0.4-0.2-0.6-0.3C241.2,5,216.9,0,193.5,0c-23.4,0-47.7,5-61.3,14.4c-0.2,0.1-0.4,0.2-0.6,0.3c-7.2,5-13.9,14.2-19.9,27.2
		c-1.6,0.6-3.2,1.2-4.9,1.9C80.5,54.4,51,74.1,31,88.7C11.5,102.9,0,125.5,0,149.5v115.9c0,14,20.9,24.6,48.7,24.6
		c7.2,0,14.4-0.8,21.4-2.3v100.4c0,10,4.7,19.6,13.6,27.6c21.5,22.7,52.4,45.4,75.2,55.1c3,1.3,6.2,1.9,9.4,1.9
		c9.6,0,18.3-5.7,22.2-14.5l3.5-8l4.6,8.3c5.4,11.9,19.4,17.4,31.5,12.3c23-9.8,54-32.5,75.5-55.3c2.4-2.2,4.6-4.7,6.6-7.3l0.1-0.1
		c0.3-0.3,0.5-0.6,0.7-1c3.8-5.6,5.9-12.2,6-18.9c0,0,0-0.1,0-0.2v-99.6l0,0c6.1,1.2,12.3,1.8,18.6,1.8c27.7,0,48.7-10.6,48.7-24.6
		V149.5C385.9,125.5,374.4,102.9,355,88.7z M267.8,54.9c3.2,8.1,0.8,17.3-5.9,22.9l-43.6,36.2c-1.4,1.2-3.5,1-4.7-0.4
		c-0.2-0.2-0.3-0.4-0.4-0.6l-11.5-22.7c4.3-3.3,55.8-43.2,56.5-43.9c1.4-1.3,2.7-2.7,3.8-4.2C264.3,46.4,266.2,50.6,267.8,54.9z
		 M194.2,81.1c-0.1,0-0.1,0.1-0.2,0h0c-0.1,0-0.1,0-0.2,0l0,0c-6.9-5.2-32.2-24.5-46.8-35.7c10.5-4.5,26.6-7.9,46.5-7.9
		c20,0,36.1,3.5,46.6,7.9C226.7,55.9,203.9,73.6,194.2,81.1L194.2,81.1z M248.2,24.2c0.1,0.1,0.2,0.2,0.3,0.3c2,1.4,5.3,4.3,5.3,7.3
		c0,1-0.3,2-0.9,2.8c-0.6,1-1.4,1.9-2.2,2.6c-13.2-7.3-34.1-11.7-57.2-11.7c-23.1,0-43.9,4.4-57.2,11.7c-1.5-1.4-3.1-3.4-3.1-5.4
		c0-3,3.3-5.8,5.3-7.3c0.1-0.1,0.2-0.2,0.3-0.3c9.1-6.3,28.5-12.2,54.6-12.2C219.7,12,239.1,17.9,248.2,24.2z M119.2,54.9
		c1.7-4.3,3.6-8.5,5.7-12.7c1.1,1.5,2.4,2.9,3.8,4.1c0.9,0.8,48.8,37.3,56.8,43.4L173.7,113c-0.8,1.6-2.8,2.3-4.4,1.5
		c-0.2-0.1-0.4-0.2-0.6-0.4l-43.6-36.2C118.4,72.3,116,63,119.2,54.9z M48.7,278.1c-23.7,0-36.7-8.3-36.7-12.6v-15.1
		c8.8,5,21.7,8.1,36.7,8.1c7.2,0,14.4-0.7,21.4-2.3v19.3C63.1,277.2,55.9,278.2,48.7,278.1z M179.4,453.4c-3.9,5.7-9.8,8.9-15.9,6.3
		c-21.2-9-51.2-31.1-71.3-52.4c-0.1-0.1-0.2-0.2-0.4-0.3c-6.5-5.8-9.8-12.1-9.8-18.8V248.2c0,0,0-0.1,0-0.1V178c0-3.3-2.7-6-6-6
		s-6,2.7-6,6v63.7l0,0v1.9c-7,1.9-14.2,2.8-21.4,2.7c-23.7,0-36.7-8.3-36.7-12.6v-84.3c0-20.2,9.7-39.2,26-51.1
		c18.2-13.3,44.3-30.8,68.2-41.4l0,0c-1.9,11.3,2.3,22.7,11.1,30l43.6,36.2c2.7,2.3,6.2,3.5,9.8,3.5c1.1,0,2.1-0.1,3.1-0.3
		c4.6-0.9,8.5-3.9,10.6-8.1l3.1-6.1v327.4C187.5,439.7,182.4,449.7,179.4,453.4L179.4,453.4z M374,265.5c0,4.3-12.9,12.6-36.7,12.6
		c-6.2,0-12.5-0.6-18.6-2l0,0v-19.4l0,0c6.1,1.2,12.3,1.8,18.6,1.7c14.9,0,27.9-3.1,36.7-8.1V265.5z M373.9,234.2
		c0,0.1,0,0.2-0.1,0.4c-1.3,4.4-14.1,11.9-36.5,11.9c-6.2,0-12.5-0.6-18.6-2l0,0V178c0-3.3-2.7-6-6-6s-6,2.7-6,6v70.1
		c0,0,0,0.1,0,0.1V388c0,0,0,0.1,0,0.2c-0.1,4.5-1.5,8.9-4.2,12.6l0,0.1c0,0-0.1,0.1-0.1,0.1c-1.5,2.1-3.2,4-5.2,5.8
		c-0.1,0.1-0.2,0.2-0.3,0.3c-20.2,21.5-50.3,43.6-71.6,52.7c-6.1,2.6-14.2-2.7-16.3-5.6s-9.6-14.8-9.6-14.8v-39.1h4.9
		c3.6,0,6.5-2.9,6.5-6.5l0,0c0-3.6-2.9-6.5-6.5-6.5h-4.9v-54.3h4.9c3.6,0,6.5-2.9,6.5-6.5l0,0c0-3.6-2.9-6.5-6.5-6.5h-4.9v-54.3h4.9
		c3.6,0,6.5-2.9,6.5-6.5l0,0l0,0c0-3.6-2.9-6.5-6.5-6.5h-4.9v-54.3h4.9c3.6,0,6.5-2.9,6.5-6.5l0,0c0-3.6-2.9-6.5-6.5-6.5h-4.9v-72.8
		l3.1,6.1c2.1,4.2,6,7.1,10.6,8.1c1,0.2,2.1,0.3,3.1,0.3c3.6,0,7-1.3,9.8-3.5L269.6,87c8.7-7.2,12.9-18.4,11.2-29.5l0,0
		c23.6,10.6,49.1,27.8,67.1,40.9l0,0c16.3,11.9,26,30.9,26,51.1v84.3C374,233.9,374,234,373.9,234.2L373.9,234.2z"/>
</g>
</svg>
