<svg xmlns="http://www.w3.org/2000/svg" viewBox="0 0 366.4 384"><g id="katman_2" data-name="katman 2"><g id="katman_1-2" data-name="katman 1"><path d="M140.37,0h84.76c1.48,2.19,3.47,4.2,4.33,6.61A159.7,159.7,0,0,1,234,22.43c.55,2.26,1.7,3.22,3.84,3.91q27.61,8.9,55.14,18a14.49,14.49,0,0,1,5.13,2.9c5.89,5.41,11.76,10.86,17.37,16.55,11.36,11.53,19.54,25,23.21,40.84C343,123,347,141.42,351.1,159.82c.46,2,.82,3.5,3.48,4a8.87,8.87,0,0,1,7.25,6.85c1.67,6.65,3.35,13.32,4.43,20.09,1,6.21-3.45,11.24-9.8,11.73-14.82,1.15-29.66,2.22-44.49,3.29-4.12.3-6.77-1.56-7.17-4.88s1.91-5.8,6-6.22c5-.52,10-.77,15-1.15l29.36-2.23c-1.29-5.75-2.49-11.06-3.76-16.68l-63.15,4.75c0,1.16,0,2,0,2.86q1.67,40.28,3.32,80.54,1.86,45.33,3.67,90.67c.18,4.5-1.54,8.28-5.43,10.39a17.44,17.44,0,0,1-8.18,2c-12.51-.15-24.91-.27-36.72,5-4.75,2.14-9.93,3.31-14.89,5-7.87,2.7-15.72,5.46-23.57,8.2h-6c-7.9-3.46-9.42-10.16-8.55-17.82h-17c-1.21,13.17-1.21,13.18-8.92,17.82h-6a24.64,24.64,0,0,0-2.94-1.4c-10.07-3.34-20.33-6.17-30.18-10.07a96.57,96.57,0,0,0-41.68-6.78c-9.74.56-14.24-4.51-13.85-14.23q2.77-70,5.57-140.09c0-1.21,0-2.42,0-3.93l-26-2c-13.08-1-26.17-1.9-39.24-3-9.26-.8-13-6.14-11-15.07C1.69,182.33,2.77,177.2,4,172.1c1-4.39,3.64-7.52,8.08-8.41,2.28-.46,2.69-1.66,3.09-3.46,3.25-14.74,6.77-29.43,9.76-44.23,3.23-16,8-31.36,18.84-43.87,7.35-8.46,15.58-16.18,23.6-24a16.85,16.85,0,0,1,6.32-3.73q27.33-9.16,54.76-18c2.13-.69,3.29-1.64,3.83-3.91,1.21-5.1,2.57-10.17,4.25-15.13C137.36,4.75,139.05,2.44,140.37,0Zm95.49,37.49v4.89c0,18.5,0,37,0,55.49,0,7.18-4,12.23-10.62,12.59-2.78.15-5.86-1-8.45-2.23-4.51-2.19-8.75-4.93-13.5-7.68V372.47a12.52,12.52,0,0,0,1.64-.29c16.12-5.3,32.25-10.56,48.32-16a7.21,7.21,0,0,0,3.43-3.5c7.47-14.82,14.71-29.76,22.25-44.55a23.65,23.65,0,0,0,2.83-13.56c-.72-7.33-.72-14.72-1-22.09-1.7-40.33-3.47-80.65-5-121-.31-8.09-.64-16.31.36-24.31,2.26-18.08,5.36-36.06,8.1-54.08,1-6.25,1.87-12.51,2.82-18.87ZM144,218.81a83.27,83.27,0,0,0-4-29.1c-1.33-4.36-.2-7.21,3.17-8.33,3.52-1.17,6.18.63,7.6,5.14a99.51,99.51,0,0,1,4.55,34,5.4,5.4,0,0,0,1.09,3.62,78.82,78.82,0,0,0,6.53,5.57V100.59c-4.63,2.66-9.06,4.76-13,7.56-8.89,6.33-20.12-.05-19.73-11.31.63-18.23.17-36.49.17-54.74V37.54L79.29,54.26c1.11,7.06,2.21,13.81,3.21,20.58.64,4.35-1.15,7.22-4.58,7.67s-5.9-1.78-6.58-6.06c-.73-4.64-1.48-9.28-2.28-14.28C56.3,72.73,45.52,84.32,40.78,100.06c-3.42,11.32-5.72,23-8.41,34.53-2.25,9.7-4.35,19.44-6.59,29.5l53.43,4c0-13.72.39-27.06-.15-40.36-.31-7.69-2.23-15.31-3.24-23-.51-3.91,1.35-6.4,4.65-6.89,3.14-.47,5.79,1.6,6.43,5.37C88.06,110.12,89.7,117,90,124c.51,12.58.57,25.21.11,37.8q-2.24,60.12-5,120.23c-.87,19.18-1,19.17,7.45,36.32,1.72,3.47,3.43,6.94,5.17,10.39.42.84.95,1.61,1.81,3C102,293.45,113,259.12,138.1,229.14c-2.64,0-4.45-.07-6.26,0a64.29,64.29,0,0,0-23.09,5.91c-4.29,1.91-7.45,1.12-8.91-2.17s0-6.13,4.4-8.1C116.79,219.17,129.79,216.29,144,218.81ZM158,35.49c.38,1.4.66,2.59,1,3.76,4.7,15.25,9.48,30.49,14,45.79a35,35,0,0,1,1.49,9.9q.12,127.07.07,254.13v5.33h17.24v-5.35q0-127.26.06-254.51A34.3,34.3,0,0,1,193.31,85c4.5-15.19,9.21-30.31,13.83-45.46.39-1.26.66-2.56,1.05-4.06ZM297.06,61.82c-4.2,35.72-14.6,70.16-8.84,106.22l52.32-4c-4-17.6-8.21-34.66-11.54-51.9C325,91.41,312.76,76.17,297.06,61.82ZM163,372.72a20.35,20.35,0,0,0,.3-2.29c0-37.75.2-75.5-.13-113.24-.08-8.62-4.63-15.82-11.08-22.18a26.45,26.45,0,0,0-1.23,3.12c-3,12.35-6.92,24.58-8.78,37.1-2.73,18.51-4,37.23-5.88,55.86-.85,8.58-5.81,13.45-14.4,13.54-5.77.07-11.69.94-17.77-3.23,2.46,5,4.31,8.91,6.36,12.73a4.6,4.6,0,0,0,2.47,2C129.4,361.67,146,367.12,163,372.72ZM78.24,179.29,15,174.56l-3.8,16.73,66.23,5C77.69,190.51,78,185.09,78.24,179.29ZM224.51,26.87l-1.67-.11Q213.48,57.38,204.09,88l20.53,11.8C224.54,74.88,224.73,50.87,224.51,26.87ZM150.37,11.39c1.22,3.95,2.22,7.54,3.49,11a3.12,3.12,0,0,0,2.36,1.6q26.76.14,53.51,0a3.23,3.23,0,0,0,2.52-1.44c1.3-3.59,2.3-7.29,3.48-11.2Zm-7,15.58-1.54,0c-.27,24.06,0,48.11-.13,73L162.19,88Zm-9,226.6c-1.18,1.88-1.78,2.79-2.33,3.74-12.27,21.2-18.6,44.21-20.79,68.46-.68,7.65-.55,7.66,7.44,7.65,6.17,0,6,0,6.53-6.16,1.2-14.28,2.28-28.58,4-42.81C130.35,274.46,132.46,264.58,134.34,253.57Zm148.92,73.5-1.2-.18c-4.48,9.08-9,18.15-13.59,27.5h14.79Zm-199.07-.22-1.07.19v27.35H97.84C93.16,344.94,88.68,335.89,84.19,326.85Z"/><path d="M239,150c-4.61,0-9.22.06-13.83,0-4-.06-6.49-2.34-6.44-5.71s2.51-5.48,6.6-5.5q13.64-.06,27.28,0c4.07,0,6.44,2.21,6.39,5.67s-2.43,5.49-6.55,5.55C248,150,243.5,150,239,150Z"/><path d="M248.39,267.63c0,1.62.1,3.24,0,4.85a5.56,5.56,0,0,1-11.12.14,78.65,78.65,0,0,1,0-9.71,5.49,5.49,0,0,1,5.69-5.29c3,.07,5.21,2.24,5.44,5.52C248.48,264.63,248.4,266.13,248.39,267.63Z"/><path d="M226.57,289.63c-1.74,0-3.49.12-5.22,0a5.11,5.11,0,0,1-5-5.07c-.24-2.93,1.3-5.36,4.26-5.67a54.05,54.05,0,0,1,11.86,0c3,.35,4.34,2.77,4.07,5.78s-2.06,4.72-5.09,4.95C229.82,289.74,228.19,289.64,226.57,289.63Z"/><path d="M259.44,289.64c-1.49,0-3,.1-4.47,0-3-.25-4.84-1.95-5.11-4.95-.28-3.19,1.29-5.52,4.43-5.89a45.7,45.7,0,0,1,10.39,0c3.11.34,4.86,2.62,4.61,5.78s-2.15,4.94-5.37,5.12c-1.49.08-3,0-4.48,0Z"/><path d="M248.37,300.73a41.27,41.27,0,0,1,0,4.85c-.35,3-2.07,4.77-5.1,5-3.24.23-5.47-1.5-5.84-4.56a42.74,42.74,0,0,1,0-10.42A5,5,0,0,1,243,291.1c3.14.12,5,2,5.39,5.15a39.34,39.34,0,0,1,0,4.48Z"/><path d="M224.32,195.47a5.58,5.58,0,0,1-5.25,5.67,5.51,5.51,0,0,1-5.93-5.34,5.63,5.63,0,0,1,5.23-5.73A5.7,5.7,0,0,1,224.32,195.47Z"/><path d="M239.18,206.88a5.36,5.36,0,0,1,5.54,5.29,5.53,5.53,0,0,1-5.5,5.79,5.75,5.75,0,0,1-5.63-5.75A5.56,5.56,0,0,1,239.18,206.88Z"/><path d="M247.54,188.08a5.55,5.55,0,0,1-5.39,5.53,5.44,5.44,0,0,1-5.78-5.46,5.57,5.57,0,0,1,5.34-5.6A5.72,5.72,0,0,1,247.54,188.08Z"/><path d="M267.94,204.89a5.52,5.52,0,0,1-5.37,5.55,5.76,5.76,0,0,1-5.77-5.61,5.61,5.61,0,0,1,5.83-5.48A5.4,5.4,0,0,1,267.94,204.89Z"/><path d="M261.15,63.71a5.46,5.46,0,0,1-5.33,5.55,5.52,5.52,0,1,1-.07-11A5.47,5.47,0,0,1,261.15,63.71Z"/><path d="M117.27,192.65c6.51,1.33,12.85,4,17.37,9.88,2,2.54,1.61,5.28-.73,7.42s-4.81,1.79-7.49.08a109.73,109.73,0,0,0-11.58-6.4c-2.85-1.36-4.5-3.2-4-6.37S113.54,192.64,117.27,192.65Z"/><path d="M120.75,118.65c0-1.61-.12-3.24,0-4.85a5.08,5.08,0,0,1,5-5.06c3-.26,5.41,1.18,5.74,4.13a53.53,53.53,0,0,1,0,11.87c-.33,2.94-2.74,4.45-5.71,4.19a5.12,5.12,0,0,1-5-5.05C120.63,122.15,120.75,120.4,120.75,118.65Z"/><path d="M110.28,129.65c1.49,0,3-.09,4.48,0,3.21.25,5.07,2.12,5.26,5.25s-1.46,5.28-4.38,5.6a50.92,50.92,0,0,1-11.51,0c-3.11-.37-4.65-2.8-4.29-6,.34-3,2.2-4.65,5.21-4.85C106.79,129.56,108.54,129.65,110.28,129.65Z"/><path d="M132.05,151.84a37.89,37.89,0,0,1-.45,5.55,5.1,5.1,0,0,1-5.73,4.26c-2.9-.21-4.9-1.93-5.08-5a89.08,89.08,0,0,1-.05-9c.15-3.35,2.31-5.48,5.34-5.57a5.57,5.57,0,0,1,5.75,5.23,37,37,0,0,1,0,4.47Z"/><path d="M143,140.75a30,30,0,0,1-4.84-.05,5.39,5.39,0,0,1-4.91-5.65c-.06-3,2.24-5.22,5.52-5.38,2.73-.13,5.47-.12,8.21,0,3.57.13,5.82,2.31,5.85,5.46s-2.24,5.41-5.73,5.71c-1.36.12-2.73,0-4.1,0Z"/><path d="M69.75,143.6a5.63,5.63,0,0,1-5.25,5.71A5.49,5.49,0,0,1,58.58,144a5.64,5.64,0,0,1,5.18-5.78A5.82,5.82,0,0,1,69.75,143.6Z"/><path d="M109.33,69.31A5.72,5.72,0,0,1,103.6,75a5.6,5.6,0,0,1-.1-11.18A5.68,5.68,0,0,1,109.33,69.31Z"/><path d="M43.57,132.68A5.65,5.65,0,0,1,38,126.89a5.52,5.52,0,1,1,5.54,5.79Z"/><path d="M309,151.18a5.71,5.71,0,0,1-5.83,5.55,5.55,5.55,0,0,1-5.32-5.6,5.61,5.61,0,0,1,5.37-5.58A5.77,5.77,0,0,1,309,151.18Z"/></g></g></svg>