<svg xmlns="http://www.w3.org/2000/svg" viewBox="0 0 280.52 318.81"><g id="katman_2" data-name="katman 2"><g id="katman_1-2" data-name="katman 1"><path d="M127.8,318.81c-7.41-.83-14.85-1.41-22.21-2.56-14.85-2.32-29.24-6.12-41.55-15.33a50.42,50.42,0,0,1-7.43-7,16.36,16.36,0,0,1-4.29-12.49c2-33,3.74-66.07,5.55-99.1.4-7.32.75-14.64.56-22.16l-8,14.2c-2.67,4.75-3.1,5-8.38,3.51-12.32-3.61-24.61-7.34-36.9-11.06-5.41-1.64-6.12-3.1-4.23-8.38,8.33-23.3,16.76-46.57,25-69.92,2.87-8.2,5.3-16.57,7.73-24.92A44.83,44.83,0,0,1,53.42,37.41,128.59,128.59,0,0,1,89,21.46a7.62,7.62,0,0,0,3.48-2.29q7-8.09,13.87-16.38A7,7,0,0,1,112.25,0q28,.11,56,0a7,7,0,0,1,5.88,2.8c4.35,5.28,8.71,10.57,13.3,15.64a12,12,0,0,0,5.26,3.31,122.5,122.5,0,0,1,39.16,19.13,40,40,0,0,1,14.6,21.52c9.24,32.41,21.93,63.62,32.85,95.45.27.78.63,1.54.86,2.33.91,3.15,0,5.07-3.11,6-13.57,4.12-27.19,8.1-40.76,12.22-2.86.86-4.3-.6-5.5-2.73-2.56-4.5-5.08-9-7.63-13.54-.38-.67-.81-1.31-1.71-2.76.41,8.16.75,15.38,1.14,22.6q2.41,44.26,4.87,88.54a105.76,105.76,0,0,0,.66,10.56c.87,5.61-1.56,9.86-5,13.78-6,6.86-13.75,11.26-22.12,14.58-13.93,5.52-28.55,7.7-43.4,8.75-1.64.11-3.27.4-4.91.61ZM64.67,74.15c.44,1.71.81,3.09,1.15,4.47,2.7,11,4.56,22.13,3.92,33.53q-2.05,36.49-4.11,73Q63,233.76,60.45,282.37a9.28,9.28,0,0,0,1.62,5.38c3.64,5.22,8.76,8.77,14.39,11.58,14.07,7,29.26,9.51,44.73,10.73,4.92.39,9.85.52,15.11.79V191q0-59,0-117.93c0-1.2.08-2.81-.61-3.53-4.2-4.4-8.61-8.59-13.07-13-2.85,3.06-5.55,6.06-8.36,9s-5.71,2.47-7.61-1.26c-.39-.76-.81-1.51-1.35-2.51-2.72,3.29-5.26,6.17-7.57,9.22A7.68,7.68,0,0,1,90.8,74.2C82.21,74,73.62,74.15,64.67,74.15Zm79.67,236.63c18.28-.47,36.08-2,53.09-8.51,8.13-3.13,15.6-7.31,21-14.43a8.52,8.52,0,0,0,1.72-4.46c.13-3.3-.22-6.63-.4-9.94q-2.39-43-4.76-86.06-1.74-31.38-3.48-62.76c-.59-10.66-1.65-21.33.4-32,1.18-6.08,2.36-12.16,3.6-18.51h-3c-7.78,0-15.56-.07-23.34,0a6.73,6.73,0,0,1-5.88-2.78c-2.53-3.22-5.2-6.34-8-9.71-.41.69-.64,1-.81,1.36-2.69,5.44-5.07,5.79-9.21,1.34-2.45-2.63-4.88-5.27-7.44-8-3.94,3.93-7.49,7.7-11.29,11.21a6,6,0,0,0-2,6.72c2.31-1.38,4.77-2.06,6.29.53a5.27,5.27,0,0,1-.09,4.52c-1.57,2.58-4,1.66-6.35.36V99.4c2.39.55,4.66.6,6.26,1.65.76.51.86,3.22.24,4.4-1.5,2.82-4.12,1.76-6.4.81v19.51c2.38.51,4.66.44,6,1.51.85.65.94,3.44.27,4.64-1.47,2.61-4,1.83-6.31.54v21.1c2.32-1.8,4.58-2.16,6.09-.05A5.24,5.24,0,0,1,151,158c-1.5,3-4.21,1.91-6.5.92v19.51c2.39.52,4.67.45,6.08,1.52.82.64.88,3.43.2,4.65-1.46,2.6-4,1.71-6.34.52V206c2.36-1.28,4.74-2.06,6.25.33a5.25,5.25,0,0,1,.19,4.51c-1.51,2.79-4.13,1.76-6.43.75v21c2.38-1.79,4.72-2.21,6.25.11a5.21,5.21,0,0,1,.19,4.51c-1.53,2.84-4.13,1.8-6.45.65v20.92c2.37-1.43,4.74-2.1,6.27.25a5.3,5.3,0,0,1,.17,4.52c-1.51,2.8-4.12,1.74-6.37.78V285c2.32-1.38,4.59-2,6.08.17a5.21,5.21,0,0,1,.37,4.5c-1.46,2.9-4.08,1.9-6.59.81ZM251.59,140.3c-1-2.87-1.84-5.3-2.66-7.74-1.36-4.07-.52-5.71,3.53-7,2-.63,4.06-1.24,6.18-1.88-.3-.91-.49-1.5-.69-2.08-6-17.93-12.07-35.88-18.18-53.79-1.48-4.33-3.28-8.56-5.12-13.33-.89,1-1.19,1.28-1.41,1.6-.79,1.21-1.62,2.41-2.33,3.66a93.45,93.45,0,0,0-12,43.27c-.37,10.84.9,21.73,1.1,32.6.09,4.87,2.18,8.68,4.73,12.57ZM45.87,55c-8.55,22.67-15,46.05-24.26,68.61,2.56.78,4.63,1.38,6.7,2,3.65,1.16,4.58,2.92,3.4,6.57-.86,2.62-1.81,5.21-2.8,8.06l26.82,7.88c3.37-4.43,5.11-9,4.85-14.35a56.34,56.34,0,0,1,.38-7.45c1.23-15.35,1.53-30.63-2.85-45.63C55.46,71.68,52.19,62.92,45.87,55Zm6.31-6.79c3.08,5.7,5.91,11.07,8.92,16.35a3.52,3.52,0,0,0,2.6,1.46c8.59.11,17.19.1,25.79,0A3.94,3.94,0,0,0,92.15,65c2.93-3.35,5.75-6.8,8.5-10.31a2.85,2.85,0,0,0,.44-2.39c-3.41-7.63-6.94-15.21-10.52-23C76.41,33.39,63.46,39.52,52.18,48.24Zm176.14,0a114.53,114.53,0,0,0-38.4-18.93c-3.59,7.81-7.12,15.39-10.5,23A3.29,3.29,0,0,0,180.1,55c2.54,3.27,5.15,6.49,7.9,9.58a4.74,4.74,0,0,0,3.05,1.52c8.6.12,17.2.1,25.79,0a3.31,3.31,0,0,0,2.45-1.23C222.33,59.45,225.21,54,228.32,48.22ZM120.74,26.94c1.49,5.79,2.93,11.39,4.39,17,.41,1.59.44,3.62,1.45,4.67,4.49,4.68,9.28,9.07,14.11,13.72A75.08,75.08,0,0,1,147,56a26.38,26.38,0,0,0,9.88-17.26c.59-3.92,1.88-7.73,2.89-11.75ZM164.65,8.23H115.84l2.78,10.43h43.29C162.82,15.18,163.71,11.81,164.65,8.23Zm-56,4.27c-2.06,2.42-3.47,4.67-5.41,6.25-5.29,4.3-5.42,8.75-2.18,14.59,4,7.29,7.09,15.11,10.72,23a54.51,54.51,0,0,0,4.87-5.3,5.31,5.31,0,0,0,1-3.81C114.83,35.91,111.84,24.62,108.68,12.5Zm63.13-.05c-3.19,12.33-6.18,23.82-9.09,35.34a3.27,3.27,0,0,0,.41,2.54c1.66,2,3.54,3.85,5.62,6.06,4.61-10.19,9-19.88,13.35-29.6A2.56,2.56,0,0,0,182,24.6C178.81,20.68,175.53,16.86,171.81,12.45ZM51.93,155.39l-25.74-7.51-5.33,15.23L43.72,170Zm207.73,7.72c-1.84-5.23-3.55-10.09-5.37-15.24l-25.71,7.53,8.2,14.62ZM19.06,131.27c-3.4,9.57-6.67,18.78-10,28.29l4.16,1.19c3.34-9.5,6.59-18.72,9.92-28.2Zm252.4,28.2c-3.38-9.49-6.68-18.78-10-28.2l-4,1.27,10,28.29Z"/></g></g></svg>