<svg xmlns="http://www.w3.org/2000/svg" viewBox="0 0 312.4 408.91"><g id="katman_2" data-name="katman 2"><g id="katman_1-2" data-name="katman 1"><path d="M57.94,408.91c-8.41-3.58-10.46-10.1-9.55-18.73q6.4-61.11,12.22-122.26c.47-4.91-.86-10-1.73-15-.15-.88-2.06-1.79-3.3-2.11-12.74-3.27-25.51-6.44-38.27-9.62C5.18,238.21-.47,230.41,0,218.07,1.58,179.91,3,141.75,4.45,103.6c.38-9.7.49-19.43,1.45-29.08C7.6,57.33,17.29,46,33.24,40,48.79,34.19,64.47,28.74,80,22.89a13.55,13.55,0,0,0,5.71-4.44C89.15,13.89,92.2,9,95.29,4.23a8.67,8.67,0,0,1,8-4.23q52.91.09,105.8,0c3.55,0,6.17,1.21,8,4.24.13.23.3.43.45.65,3.84,5.58,6.69,12.41,11.78,16.38s12.41,5.1,18.77,7.43c10.22,3.74,20.48,7.41,30.7,11.19,17.91,6.62,27.4,19.66,28.2,38.58,2,47.06,3.69,94.12,5.43,141.19.4,11-5.83,18.7-16.94,21.49-12.75,3.2-25.48,6.52-38.3,9.48-3.12.71-3.77,2.27-4.35,5-2.56,12.16.16,24.1,1.26,36.08,2.33,25.43,5,50.82,7.57,76.22.73,7.28,1.26,14.59,2.3,21.82,1.27,8.71-.88,15.45-9.5,19.13ZM51.57,202.32c-.21-1.89-.33-3.29-.53-4.69q-5.26-36.7-10.51-73.42c-.57-4.06,1.52-7.15,5-7.84,3.8-.75,6.89,1.39,7.67,5.65.91,5,1.56,10,2.27,15q7.89,55.07,15.74,110.14c1.4,9.85,3.37,19.62,1.64,29.7-1.13,6.54-1.45,13.21-2.12,19.83q-3.85,38.5-7.7,77c-.73,7.35-1.4,14.7-2.1,22.12h88.49V67.9l-15.07,12c-9.39,7.49-17.13,6.18-23.52-4Q98.9,56.78,87,37.67c-.89-1.44-1.44-3.1-3.89-2.18C66.77,41.57,50.32,47.27,34.14,53.67,25.68,57,20.79,64.06,19,72.93a69.8,69.8,0,0,0-.9,11.12c-1,25.39-2.11,50.78-2.91,76.18-.35,10.87-.06,21.75-.06,33Zm246-9.11c0-8.53.23-16.5,0-24.46q-1.55-44.88-3.37-89.74c-.52-13-6.69-22.22-19-26.81-14.94-5.56-30-10.82-44.94-16.38-2.41-.9-3.47-.37-4.74,1.7C217.54,50.31,209.54,63,201.57,75.77c-6.51,10.39-14.16,11.67-23.81,4L162.82,67.83v328h88.63c-.61-6.07-1.19-11.86-1.77-17.66-3.14-31.36-6.33-62.71-9.38-94.08-.7-7.12-2-14.43-1.15-21.4,3.92-30.85,8.54-61.62,12.94-92.42,2.27-15.92,4.54-31.84,7-47.75.71-4.66,3.72-6.9,7.62-6.21,3.68.66,5.75,3.85,5.13,8.15q-4.1,28.62-8.24,57.23c-1,6.66-1.85,13.34-2.85,20.62ZM156.19,45.59l37-32.42h-74ZM123.68,72l22.39-18L103,16.37c-7.94,9.9-7.94,9.9-1.75,19.82l4,6.42ZM166.29,54,188.7,72,216.77,27c-2.48-3.7-4.8-7.18-7.25-10.85ZM56.77,237.77c-1-7.12-1.87-13.53-2.91-19.91a3.18,3.18,0,0,0-2-2c-12.72-3.27-25.47-6.43-39.07-9.82,0,5.23-.08,10,0,14.75.09,4.11,2.26,6.65,6.28,7.64,5.41,1.33,10.82,2.7,16.23,4C42.26,234.19,49.17,235.89,56.77,237.77Zm198.78.13c13.65-3.49,26.49-6.7,39.29-10.08,3-.8,4.5-3.32,4.59-6.36.14-5,0-10,0-15.41-13.51,3.38-26.13,6.49-38.71,9.77a3.88,3.88,0,0,0-2.3,2.55C257.39,224.51,256.59,230.7,255.55,237.9Z"/><path d="M183.49,157.22a6.23,6.23,0,0,1,6.32,6.3,6.41,6.41,0,0,1-6.33,6.37,6.64,6.64,0,0,1-6.41-6.4A6.33,6.33,0,0,1,183.49,157.22Z"/><path d="M189.8,115.8a6.39,6.39,0,0,1-6.4,6.29,6.67,6.67,0,0,1-6.3-6.5,6.45,6.45,0,0,1,6.5-6.21A6.26,6.26,0,0,1,189.8,115.8Z"/><path d="M189.81,259.12a6.21,6.21,0,0,1-6.35,6.26,6.36,6.36,0,0,1-6.39-6.3,6.51,6.51,0,0,1,6.43-6.3A6.33,6.33,0,0,1,189.81,259.12Z"/><path d="M183.7,300.49a6.43,6.43,0,0,1,6.17,6.56,6.21,6.21,0,0,1-6.47,6.13,6.38,6.38,0,0,1-6.26-6.44A6.65,6.65,0,0,1,183.7,300.49Z"/><path d="M189.85,354.62a6.26,6.26,0,0,1-6.22,6.42,6.58,6.58,0,0,1-6.5-6.27,6.69,6.69,0,0,1,6.34-6.47A6.4,6.4,0,0,1,189.85,354.62Z"/><path d="M183.43,205a6.3,6.3,0,1,1,.11,12.59,6.49,6.49,0,0,1-6.48-6.26A6.37,6.37,0,0,1,183.43,205Z"/></g></g></svg>