<?xml version="1.0" encoding="utf-8"?>
<!-- Generator: Adobe Illustrator 26.0.0, SVG Export Plug-In . SVG Version: 6.00 Build 0)  -->
<svg version="1.1" id="katman_1" xmlns="http://www.w3.org/2000/svg" xmlns:xlink="http://www.w3.org/1999/xlink" x="0px" y="0px"
	 viewBox="0 0 60 51" style="enable-background:new 0 0 60 51;" xml:space="preserve">
<style type="text/css">
	.st0{display:none;}
	.st1{display:inline;fill:#E5E5E5;}
	.st2{display:inline;fill:#D8D8D8;}
	.st3{display:inline;fill:#F2F2F2;}
	.st4{display:inline;fill:#FCFCFC;}
</style>
<g id="Flat" class="st0">
	<path class="st1" d="M59,15v16h-8V21l-7-3.9V46c-3.1,2.6-7,4-11,4v-7h-6v7c-3.5,0-6.8-1-9.7-3c-0.4-0.3-0.9-0.6-1.3-1V17.1L9,21v10
		H1V15l8-5.2L18,4h24L59,15z"/>
	<rect x="1" y="31" class="st1" width="8" height="6"/>
	<rect x="51" y="31" class="st2" width="8" height="6"/>
	<path class="st2" d="M33,47l-1.3-2.1c-0.6-0.9-1.8-1.3-2.7-0.7c-0.3,0.2-0.5,0.4-0.7,0.7L27,47V4h6V47z"/>
	<path class="st3" d="M41,9.2v13.5C41,33.3,32.3,42,21.7,42H16V17.1L9,21v10H1V15l8-5.2L18,4h17.8C38.7,4,41,6.3,41,9.2L41,9.2z"/>
	<path class="st1" d="M33,4v34.3c-1.8,1.3-3.8,2.3-6,2.9V4H33z"/>
	<polygon class="st4" points="27,13 22,4 25,1 30,9 	"/>
	<polygon class="st4" points="33,13 38,4 35,1 30,9 	"/>
	<polygon class="st1" points="35,1 25,1 30,9 	"/>
</g>
<g id="Outline">
	<path d="M59.5,14.2l-17-11C42.4,3.1,42.2,3,42,3h-3.6l-2.7-2.7c-0.1-0.1-0.2-0.2-0.3-0.2C35.2,0,35.1,0,35,0H25c-0.1,0-0.1,0-0.2,0
		s-0.1,0-0.2,0s-0.2,0.1-0.3,0.2L21.6,3H18c-0.2,0-0.4,0.1-0.5,0.2l-17,11C0.2,14.3,0,14.7,0,15v22c0,0.6,0.4,1,1,1h8
		c0.6,0,1-0.4,1-1V21.6l5-2.8V46c0,0.3,0.1,0.6,0.4,0.8C18.6,49.5,22.7,51,27,51l0,0c0.6,0,1-0.4,1-1v-2.7l1.1-1.9
		c0.3-0.5,0.9-0.6,1.4-0.3c0.1,0.1,0.3,0.2,0.3,0.3l1.1,1.9V50c0,0.6,0.4,1,1,1l0,0c4.2,0,8.3-1.5,11.6-4.2c0.2-0.2,0.4-0.5,0.4-0.8
		V18.8l5,2.8V37c0,0.6,0.4,1,1,1h8c0.6,0,1-0.4,1-1V15C60,14.7,59.8,14.3,59.5,14.2z M30,7.1L26.8,2h6.4L30,7.1z M35.2,2.6l1.6,1.6
		l-3.9,7L31.2,9L35.2,2.6z M24.8,2.6l4,6.4l-1.7,2.2l-3.9-7L24.8,2.6z M8,36H2v-4h6V36z M44.5,16.2c-0.5-0.3-1.1-0.1-1.4,0.4
		C43,16.8,43,16.9,43,17.1v28.4c-2.6,2-5.7,3.2-9,3.4V17c0-0.6-0.4-1-1-1s-1,0.4-1,1v26.7c-1.1-1-2.9-1-4,0V17c0-0.6-0.4-1-1-1
		s-1,0.4-1,1v32c-3.3-0.2-6.4-1.4-9-3.4V17.1c0-0.6-0.4-1-1-1c-0.2,0-0.3,0-0.5,0.1l-7,3.9C8.2,20.3,8,20.6,8,21v9H2V15.5L18.3,5
		h3.1l4.7,8.5c0.2,0.3,0.5,0.5,0.8,0.5H27c0.3,0,0.6-0.1,0.8-0.4l2.2-2.9l2.2,2.9c0.2,0.3,0.5,0.4,0.8,0.4h0.1
		c0.3,0,0.6-0.2,0.8-0.5L38.6,5h3.1L58,15.5V30h-6v-9c0-0.4-0.2-0.7-0.5-0.9L44.5,16.2z M58,36h-6v-4h6V36z"/>
</g>
</svg>
