<?xml version="1.0" encoding="utf-8"?>
<!-- Generator: Adobe Illustrator 26.0.0, SVG Export Plug-In . SVG Version: 6.00 Build 0)  -->
<svg version="1.1" id="katman_1" xmlns="http://www.w3.org/2000/svg" xmlns:xlink="http://www.w3.org/1999/xlink" x="0px" y="0px"
	 viewBox="0 0 45.6 57" style="enable-background:new 0 0 45.6 57;" xml:space="preserve">
<g id="Layer_21">
	<path d="M34.6,17.7c-0.1-0.2-0.3-0.4-0.5-0.4h-7.9c-0.3,0-0.5,0.2-0.5,0.5v8.9c0,0.3,0.2,0.5,0.5,0.5h7.8c0.3,0,0.5-0.2,0.5-0.5
		v-8.9C34.7,17.8,34.7,17.8,34.6,17.7L34.6,17.7z M32.5,18.4l-2.3,1.5l-2.2-1.5H32.5z M33.6,26.3h-6.9v-7.5l3.1,2.1
		c0.2,0.1,0.4,0.1,0.6,0l3.2-2.1L33.6,26.3z"/>
	<path d="M45.6,34.2c-1.3-6.3-3.6-15-6.8-25.9c-0.1-1.9-3.3-3.7-10.3-5.4C28,1.6,27,0.6,25.7,0.2c-1.9,0.1-3.9,0-5.8-0.2h-0.1
		c-0.5,0.1-0.9,0.3-1.3,0.6l0,0c-0.5,0.4-0.9,0.9-1.1,1.4l-0.9,0.4l0,0C13.5,3.6,10.6,5,7.8,6.5c-1.3,2.3-2,5.2-2.9,8.6
		C3.3,18.8,2,25.4,1,34.8c-0.8,4.9-1.1,9.8-1,14.7c0,1.2,0,2.4,0.2,3.5c0.4,0.6,1.6,1.2,7.4,1.4l0,0c0.1,0,0.3,0,0.4-0.1l0,0
		c0.1-0.1,0.1-0.2,0.1-0.3c0-3,0.3-8.1,1-15.4c0,4.7-0.4,9.3-0.3,13.8c1.9,2.7,5.7,4.2,11.4,4.5l1.6,0.1H22h1.3h0.1
		c6,0.2,11.2-1.3,13.6-4.1c0.3-1.5-0.1-4.1,0-6.7c0,0.7,0.1,1.4,0.1,2v0.1c0.1,1.5,0.2,3,0.2,4.4c0,0.2,0.2,0.4,0.5,0.5
		c3.8,0.4,6.2,0,7.3-1.1C45.6,45,45.5,38.7,45.6,34.2C45.6,34.2,45.6,34.2,45.6,34.2z M27.7,3.4c0.2,2.1-0.5,4.4-2.3,6.7
		c-0.5-0.5-0.9-0.9-1.2-1.3c2.2-1.6,3.2-3.4,3-5.4l0,0c0-0.1,0-0.1,0-0.2c0-0.3-0.1-0.6-0.2-0.9C27.3,2.6,27.5,3,27.7,3.4z M19.9,1
		c1.9,0.2,3.7,0.2,5.6,0.2c0.3,0.5,0.5,1,0.6,1.6c-2-0.1-4.3-0.2-6.5-0.2c-0.1-0.4-0.2-0.9-0.3-1.3C19.4,1.1,19.7,1,19.9,1z M18,2.6
		c0.1-0.2,0.2-0.4,0.4-0.6c0.7,3.7,1.6,5.8,2.8,6.6c-0.5,0.4-0.9,0.8-1.5,1.2c-1-2.2-1.9-4.4-2.6-6.7C17.4,3,17.9,2.9,18,2.6z
		 M7.2,53.4l-1.3-0.1c-3.5-0.2-4.5-0.6-4.8-0.8c0-0.9-0.1-1.7-0.1-2.6c2.1,0,4.2,0.2,6.2,0.3C7.2,51.5,7.2,52.5,7.2,53.4z
		 M21.5,55.9l-1.2-0.1c-5.2-0.3-8.8-1.6-10.5-3.9c0.4-7.4,0.5-15,0.4-22.7c0.4-5.5,0.4-11.1,0-16.6c0-0.3-0.3-0.5-0.5-0.5
		s-0.5,0.3-0.5,0.5c0.4,5.5,0.4,10.9,0,16.4c-1,8.7-1.6,15.5-1.9,20.1c-2-0.2-4.2-0.3-6.3-0.3C1,44.3,1.3,39.6,1.9,35l0,0l0,0
		c1-9.3,2.2-15.8,3.9-19.5c0.6-2.8,1.5-5.5,2.6-8.1c2.2-1.3,4.8-2.6,7.8-3.9c0.7,2.5,1.7,5,2.9,7.3c0.1,0.2,0.4,0.3,0.7,0.2
		c0,0,0,0,0,0c0.6-0.4,1.1-0.8,1.7-1.3V55.9z M22.9,55.9h-0.3V9.2h0.3V55.9z M23.2,8.2h-0.8c-0.1-0.1-0.2-0.2-0.4-0.2
		c-0.5-0.1-1.5-0.8-2.4-4.4c2.3,0,4.5,0.1,6.4,0.2C26.2,5.4,25.2,6.9,23.2,8.2L23.2,8.2z M44.2,51.5c-0.6,0.6-2.2,1.1-5.9,0.8
		c-0.1-1.2-0.1-2.3-0.2-3.6c2-0.3,4.1-0.3,6.2-0.1C44.3,49.5,44.2,50.5,44.2,51.5L44.2,51.5z M44.4,47.5c-2.1-0.2-4.2-0.2-6.3,0.1
		c-0.4-5.7-0.8-12-1.4-18.9c-0.3-6.2-0.3-12-0.1-17.3c0-0.3-0.2-0.5-0.5-0.5s-0.5,0.2-0.5,0.5c-0.2,5.3-0.2,11.2,0.1,17.4
		c0.2,11.4,0.4,19.2,0.5,23.6c-2.3,2.4-6.4,3.6-12.2,3.6V9.9c0.4,0.2,1,1.3,1.6,1.4c0.1,0,0.3-0.1,0.4-0.2c1.8-2,2.9-4.5,2.9-7.2
		c7.8,2.1,9,3.6,9,4.4c3.1,10.9,5.5,19.7,6.8,26C44.6,37.8,44.5,42.3,44.4,47.5L44.4,47.5z"/>
</g>
</svg>
