<svg xmlns="http://www.w3.org/2000/svg" viewBox="0 0 360 360.01"><g id="katman_2" data-name="katman 2"><g id="katman_1-2" data-name="katman 1"><path d="M288.63,271.28c-1.1,18.94-6.49,36.4-17.89,51.67-17.63,23.6-41.37,35.84-70.79,37-5.08.21-6.51-.92-8.17-5.85-3.77-11.22-7.51-22.45-11.65-34.81-.76,2-1.2,3.05-1.56,4.11-3.45,10.3-6.87,20.6-10.33,30.89-1.58,4.7-3.06,5.81-7.92,5.67a89.89,89.89,0,0,1-58.07-22.73c-.66-.58-1.29-1.18-2-1.74a6,6,0,0,0-1-.42L71.44,353.63c-2.29,1.53-4.56,3.08-6.86,4.57-4.8,3.11-8,2.26-10.58-2.92q-11.43-22.75-22.79-45.55c-9.43-18.86-19-37.67-28.17-56.66A29.28,29.28,0,0,1,.18,240.91Q-.18,195,.18,149a29.26,29.26,0,0,1,2.89-12.15c10.08-20.78,20.56-41.35,30.8-62A23.43,23.43,0,0,1,44.69,63.92C65,53.5,85.56,43.56,108,36.76c1.27,3.35,2.62,6.89,4.14,10.87C104.94,50.33,98,53,91,55.55s-7,2.57-7,10c0,60-.19,120,.21,180,.06,8.82,2.71,17.68,4.59,26.43,2.94,13.66,6.25,27.24,9.44,40.85a10,10,0,0,0,1.39,3.81c14.56,19.05,33.92,29.22,58,31.26,3.15-9.38,5.83-18.75,9.41-27.76,5.54-13.92,7.21-28.15,7.11-43.12-.43-64.37-.18-128.75-.18-193.12V78.67c-1.49,1.12-2.54,1.86-3.54,2.66C165.14,85.62,159.83,90,154.4,94.2c-4,3.12-8,2.21-10.1-2.4q-11.82-26.29-23.36-52.72a8.34,8.34,0,0,1-.15-5.7c3.63-9.7,7.55-19.28,11.39-28.9A6.57,6.57,0,0,1,138.83,0q41.25,0,82.5,0c3.48,0,5.52,1.75,6.75,4.89,3.1,7.89,6.18,15.8,9.55,23.58a7.9,7.9,0,0,0,4,3.82C267.13,42.63,292.75,52.82,318.35,63c7.7,3.07,11.72,8.68,12.62,17q7.74,71,15.72,141.9,6.57,58.85,13.18,117.68c.57,5.05-.7,7.12-5.64,8.55q-19.77,5.71-39.59,11.29c-4.85,1.37-7.6-.35-8.66-5.41q-8.25-39.21-16.41-78.43C289.27,274.17,289,272.73,288.63,271.28ZM186.05,78.49v4.12q0,106.84,0,213.71a19,19,0,0,0,1,5.83c3.84,11.74,7.8,23.44,11.7,35.16S202.67,349,215,346.15c36.25-8.39,61-39.37,61.07-76.67q.11-103.86,0-207.71a4.54,4.54,0,0,0-.05-1.85c-.43-.88-1-2.06-1.75-2.36-12.21-4.68-24.47-9.25-36.88-13.9-.65,1.32-1.24,2.41-1.74,3.53Q226.2,68.4,216.79,89.61c-3.36,7.57-6.46,8.3-13,3C198.1,88.15,192.45,83.62,186.05,78.49ZM62.38,345.24c8.67-5.77,16.89-11.22,25.05-16.76a3.39,3.39,0,0,0,1.44-2.54c-1.05-5.2-2.34-10.35-3.66-16L63.15,323.13,57,312.88c7.85-4.72,15.41-9.31,23-13.81,1.55-.92,2.37-1.7,1.87-3.78-3.56-14.67-6.44-29.53-10.54-44-6-21.13-12.78-42-19.23-63-1.23-4-2.44-8.08-3.75-12.42l11.37-3.53,11.65,37.6.47-.16V63.85c-7.45,3.71-14.67,7.07-21.63,10.89a14.31,14.31,0,0,0-5.56,5.62Q29,111.07,13.84,142a17.78,17.78,0,0,0-1.72,7.49q-.16,45.38,0,90.75a19.24,19.24,0,0,0,1.93,8.19q20.17,40.79,40.63,81.43C57.2,334.86,59.7,339.86,62.38,345.24Zm282.19-32.58c-.05-1-.06-1.6-.13-2.21q-4-36.3-8-72.6-4.29-38.72-8.62-77.42c-2.93-26.3-5.92-52.6-8.74-78.92-.41-3.82-1.95-6.3-5.61-7.5-1.3-.43-2.51-1.11-3.77-1.65l-21.65-9.2v3.52q0,70.27,0,140.55a22.13,22.13,0,0,0,.5,4.44q11.78,56.81,23.59,113.6c1.46,7,3,14,4.52,21.18,9.81-2.81,19.17-5.45,28.49-8.22.84-.25,2.08-1.35,2.05-2-.21-3.79-.74-7.55-1.18-11.46l-20.54,5c-1-4.1-1.9-7.68-2.85-11.51Zm-205-294.08c-2.2,5.47-4.23,10.11-5.9,14.89a7.3,7.3,0,0,0,.09,4.86c5.8,13.37,11.78,26.66,17.73,40a19.78,19.78,0,0,0,1.17,2L171.9,64.83Zm48.66,46.27,19.17,15.29c.45-.42.71-.55.8-.76q9.27-20.82,18.51-41.65a3.86,3.86,0,0,0,.52-2.46c-2-5.39-4.21-10.73-6.59-16.71ZM149.75,12.21c4.12,5.9,7.89,11.43,11.84,16.82.5.69,2,.93,3,.94q15.57.11,31.12,0c.92,0,2.24-.17,2.68-.77,4-5.48,7.87-11.07,12-17Zm30.31,43.33,9.31-13.33H170.72Z"/><path d="M161.82,119.94H150.35V108.28h11.47Z"/><path d="M161.76,179.87H150.27V168.2h11.49Z"/><path d="M161.87,228.22v11.52H150.29V228.22Z"/><path d="M161.87,288.26v11.57H150.33V288.26Z"/><path d="M234.18,132c7.36,0,14.73,0,22.1,0,5.66,0,7.75,2,7.76,7.59,0,13-.05,26,0,38.95,0,3.55-1.32,5.89-4.51,7.44-7.29,3.54-14.41,7.44-21.81,10.71a10.05,10.05,0,0,1-7.32,0c-7.53-3.31-14.79-7.22-22.17-10.85a6.92,6.92,0,0,1-4.26-6.82c.07-13.36,0-26.72,0-40.08,0-4.68,2.23-6.9,6.88-6.94C218.69,132,226.43,132,234.18,132Zm17.87,12.26h-36c0,10.24-.06,20.21.1,30.18a4.3,4.3,0,0,0,2.17,2.88Q225,181,232,184.22a5,5,0,0,0,3.73.16c4.87-2.23,9.66-4.65,14.38-7.19a3.85,3.85,0,0,0,1.84-2.73C252.1,164.49,252.05,154.52,252.05,144.27Z"/></g></g></svg>