<?xml version="1.0" encoding="utf-8"?>
<!-- Generator: Adobe Illustrator 26.0.0, SVG Export Plug-In . SVG Version: 6.00 Build 0)  -->
<svg version="1.1" id="katman_1" xmlns="http://www.w3.org/2000/svg" xmlns:xlink="http://www.w3.org/1999/xlink" x="0px" y="0px"
	 viewBox="0 0 418.4 370.4" style="enable-background:new 0 0 418.4 370.4;" xml:space="preserve">
<g>
	<path d="M119.6,269.6c3.1,0,5.6-2.5,5.6-5.6v-5.6c0-3.1-2.5-5.6-5.6-5.6s-5.6,2.5-5.6,5.6v5.6C114,267.1,116.5,269.6,119.6,269.6z"
		/>
	<path d="M418.2,329L358.8,43.6c0-0.1-0.1-0.2-0.1-0.4c-0.1-0.2-0.1-0.4-0.1-0.6c-0.1-0.1-0.1-0.2-0.2-0.3c-0.1-0.2-0.2-0.4-0.3-0.5
		c-0.2-0.3-0.4-0.5-0.6-0.7c-0.1-0.1-0.3-0.3-0.4-0.4c-0.2-0.2-0.5-0.4-0.8-0.6c-0.1-0.1-0.3-0.2-0.4-0.3c-0.4-0.2-0.8-0.3-1.2-0.4
		c-0.1,0-0.1-0.1-0.2-0.1l0,0l0,0l-58.7-11.8L282.3,25L268.1,2.6c-0.1-0.2-0.2-0.3-0.4-0.4c-0.1-0.1-0.2-0.3-0.3-0.4
		c-0.2-0.3-0.5-0.5-0.8-0.7c-0.1-0.1-0.2-0.2-0.3-0.2c-0.4-0.3-0.8-0.5-1.3-0.6c-0.1,0-0.2,0-0.3-0.1c-0.3-0.1-0.6-0.2-1-0.2
		c-0.1,0-0.1,0-0.2,0s-0.1,0-0.1,0H155.2c-0.1,0-0.1,0-0.1,0c-0.1,0-0.1,0-0.2,0c-0.3,0-0.7,0.1-1,0.2c-0.1,0-0.2,0-0.3,0.1
		c-0.5,0.1-0.9,0.3-1.3,0.6c-0.1,0.1-0.2,0.2-0.3,0.2c-0.3,0.2-0.6,0.4-0.8,0.7c-0.1,0.1-0.2,0.3-0.3,0.4c-0.1,0.2-0.3,0.3-0.4,0.4
		L136.1,25L64,39.3l0,0l0,0c-0.1,0-0.1,0-0.2,0.1c-0.2,0.1-0.4,0.1-0.6,0.2c-0.2,0.1-0.4,0.2-0.6,0.3c-0.2,0.1-0.3,0.2-0.4,0.3
		c-0.3,0.2-0.5,0.4-0.8,0.6c-0.1,0.1-0.3,0.3-0.4,0.4c-0.1,0.1-0.2,0.2-0.3,0.4c-0.1,0.1-0.2,0.3-0.2,0.4c-0.1,0.2-0.2,0.3-0.3,0.5
		c-0.1,0.1-0.1,0.2-0.2,0.3c-0.1,0.2-0.1,0.4-0.1,0.6c0,0.1-0.1,0.2-0.1,0.4l-59.3,284l-0.3,1.3c-0.2,0.7-0.2,1.5,0,2.2
		c0.1,0.7,0.4,1.4,0.8,2c0.8,1.2,2.1,2.1,3.6,2.4l47.3,9.5c1.4,0.3,2.9,0.4,4.3,0.4c1.2,0,2.3-0.1,3.4-0.3c0.2,0,0.4-0.1,0.6-0.1
		c0.9-0.2,1.8-0.4,2.7-0.7c0.3-0.1,0.5-0.2,0.8-0.3c0.8-0.3,1.5-0.6,2.3-1c0.3-0.2,0.6-0.3,0.9-0.5c0.3-0.2,0.6-0.3,0.9-0.5
		c0.3-0.2,0.5-0.4,0.8-0.6c0.5-0.4,1.1-0.8,1.6-1.3c0.5-0.4,0.9-0.8,1.4-1.3s0.9-1,1.3-1.5c0.4-0.5,0.8-1,1.1-1.5
		c0.4-0.6,0.8-1.3,1.1-2c0.2-0.5,0.5-0.9,0.7-1.4c0.5-1.2,0.9-2.5,1.2-3.8l0.8-4.1l9.2-45.8v85.9c0,3.1,2.5,5.6,5.6,5.6h27.1
		c0.1,0,0.1,0,0.1,0h0.1h61.4h27.9c0.1,0,0.1,0,0.1,0h0.1h88.9c18.4,0,33.3-15,33.3-33.3v-58.2l10,49.9c0.3,1.3,0.7,2.6,1.2,3.8
		c0.2,0.5,0.4,0.9,0.7,1.3c0.4,0.7,0.7,1.4,1.1,2.1c0.3,0.5,0.7,0.9,1,1.4c0.4,0.6,0.9,1.1,1.3,1.6c0.4,0.4,0.8,0.8,1.3,1.2
		c0.5,0.5,1.1,0.9,1.7,1.4c0.3,0.2,0.5,0.4,0.7,0.6c0.3,0.2,0.6,0.3,0.9,0.5s0.6,0.4,1,0.5c0.7,0.4,1.4,0.7,2.2,1
		c0.3,0.1,0.6,0.3,0.9,0.4c0.8,0.3,1.7,0.5,2.5,0.7c0.3,0.1,0.5,0.1,0.8,0.2c1.1,0.2,2.3,0.3,3.4,0.3l0,0c1.4,0,2.8-0.1,4.2-0.4
		l47.3-9.5c1.5-0.3,2.7-1.2,3.6-2.4C418.2,331.9,418.6,330.4,418.2,329L418.2,329z M74.7,48.5l25-5l25-5l12.4-2.3l8.2,10.6l-63,12.6
		L74.7,48.5z M159.9,47.1L159.9,47.1l-13.6-17.4l9.3-14.6l13,15.8c0,0,0,0,0.1,0l15.7,19.2l-12.1,12.8L159.9,47.1z M242.8,21.7
		h-67.2l-8.7-10.6h84.6L242.8,21.7z M196.2,46.8L196.2,46.8l-11.4-13.9h48.8l-11.4,13.9l-13,15.9L196.2,46.8z M234,50.1l15.7-19.2
		c0,0,0,0,0.1,0l13-15.8l9.3,14.6L258.5,47l0,0l-12.3,15.8l-9.1-9.6L234,50.1z M343.7,48.5L336,59.3L279.5,48l-6.5-1.2l8.2-10.6
		L343.7,48.5z M12.2,325.7l6.5-31.2l51.6,9l-4.5,22.7c-0.1,0.7-0.3,1.3-0.6,1.9c0,0.1-0.1,0.2-0.2,0.3c-1.4,2.9-4,5-7.1,5.6l0,0
		c-0.5,0.1-1,0.1-1.5,0.2c-0.2,0-0.3,0-0.5,0c-0.7,0-1.3-0.1-2-0.2L12.2,325.7z M72.6,292.5l-51.6-9L68,58.4l18.8,26.3v136.7
		L72.6,292.5z M98,222V82.9c0-1.2-0.4-2.3-1-3.3l-7.4-10.4L141,58.9l12.2-2.3l14.3,18.2c1,1.3,2.5,2.1,4.1,2.1c0.1,0,0.2,0,0.3,0
		c0.7,0,1.3-0.2,1.9-0.4c0.1,0,0.1,0,0.2,0c0.6-0.2,1.2-0.6,1.7-1.1v283.4h-50.5v-68.7c0-3.1-2.5-5.6-5.6-5.6s-5.6,2.5-5.6,5.6v68.7
		H98L98,222L98,222z M186.8,63.8l4.8-5l12,14.7v285.4h-16.8V63.8z M214.8,358.9V73.4l12.1-14.7l4.7,5v295.1L214.8,358.9z
		 M320.4,336.7c0,12.2-9.9,22.1-22.1,22.1h-55.5V75.5c0.5,0.4,1,0.8,1.6,1.1c0.2,0.1,0.5,0.1,0.8,0.2c0.5,0.1,0.9,0.3,1.4,0.3
		c0.1,0,0.2,0,0.3,0c1,0,1.9-0.4,2.7-0.9c0.5-0.3,1.1-0.7,1.5-1.2l14.2-18.2l63.6,12.6l-7.4,10.4c-0.7,0.9-1,2.1-1,3.3L320.4,336.7z
		 M331.6,84.7l12.3-17.2l6.5-9.1l47,225.1l-51.6,9l-14.2-71.1L331.6,84.7z M364.4,334.1c-3.9,0.8-7.7-0.9-10-3.8
		c-0.1-0.1-0.2-0.2-0.3-0.3c-0.3-0.4-0.5-0.8-0.7-1.2c-0.1-0.2-0.2-0.3-0.3-0.5c-0.3-0.6-0.5-1.2-0.6-1.9l-4.5-22.8l51.6-9l6.5,31.2
		L364.4,334.1z"/>
</g>
</svg>
