<?xml version="1.0" encoding="utf-8"?>
<!-- Generator: Adobe Illustrator 26.0.0, SVG Export Plug-In . SVG Version: 6.00 Build 0)  -->
<svg version="1.1" id="Short_x5F_pants_x5F_women" xmlns="http://www.w3.org/2000/svg" xmlns:xlink="http://www.w3.org/1999/xlink"
	 x="0px" y="0px" viewBox="0 0 354.1 287.9" style="enable-background:new 0 0 354.1 287.9;" xml:space="preserve">
<g>
	<path d="M18.2,130.4c0.4,0.1,0.7,0.2,1.1,0.2c1.4,0,2.8-0.9,3.3-2.4l0.4-1.1c0.6-1.8-0.4-3.8-2.2-4.4c-1.8-0.6-3.8,0.4-4.4,2.2
		l-0.4,1.1C15.4,127.9,16.4,129.8,18.2,130.4z"/>
	<path d="M351,172c-5.7-27.5-18.3-62.9-28.1-88.2c0-0.1,0-0.3,0-0.4c-0.1-0.8-0.4-1.5-0.9-2c-7.4-19.1-13.7-33.8-15.4-37.7V3.4
		c0-1.9-1.5-3.4-3.5-3.4h-14.9h-5.8h-9.6c-1.9,0-3.5,1.5-3.5,3.4c0,1.9,1.5,3.4,3.5,3.4h9.6h5.8h11.2v33.8h-11.2h-5.8h-30.2h-5.8
		h-30.2h-5.8h-13.8c-5.3-11-14.1-17.5-16.8-19.3c-0.7-0.7-1.6-1-2.5-1c-0.9,0-1.8,0.4-2.5,1c-2.7,1.8-11.5,8.3-16.8,19.3h-13.7h-5.8
		h-30.2h-5.8H72.1h-5.8H54.8V6.9h11.5h5.8h30.2h5.8h30.2h5.8h30.2h5.8h30.2h5.8h9.3c1.9,0,3.4-1.5,3.4-3.4c0-1.9-1.5-3.4-3.4-3.4
		h-9.3h-5.8h-30.2h-5.8h-30.2h-5.8h-30.2h-5.8H72.1h-5.8H51.4c-1.9,0-3.4,1.5-3.4,3.4V43c-1.4,3.3-8,18.7-15.8,38.7c0,0,0,0,0,0.1
		c0,0,0,0,0,0c-2.8,7.3-5.6,14.6-8.1,21.5c-0.7,1.8,0.3,3.8,2.1,4.4c0.4,0.1,0.8,0.2,1.2,0.2c1.4,0,2.7-0.9,3.2-2.3
		c2.2-6.1,4.6-12.4,7.1-18.8L62,90.5c3.4,0.5,6.7,0.7,10,0.7c21.7,0,42.2-9.6,56.3-26.6l14.1-17h1.6h11.1c-0.5,1.8-0.8,3.5-1.1,5.3
		c-2.4,17.8-15.4,29.3-15.5,29.5c-1.4,1.3-1.6,3.4-0.3,4.9c0.7,0.8,1.6,1.2,2.6,1.2c0.8,0,1.6-0.3,2.3-0.8
		c0.6-0.5,15.1-13.3,17.8-33.8c0.3-2.1,0.8-4.2,1.5-6.2h11.3v196.9l-2.2,6c-70.7-9-149.1-69.4-161.2-79.1c1.4-6.4,3.2-13.5,5.4-21.3
		c0.5-1.8-0.5-3.7-2.4-4.3c-1.8-0.5-3.7,0.5-4.3,2.4C6.6,157,4.6,165,3.1,172c-2.6,12.3-3.6,22.3-3,29.5c0.1,0.8,0.4,1.5,0.9,2.1
		c0.6,0.6,58.4,60.5,160.8,84.1c1.7,0.4,3.4-0.5,4-2.2l11.1-30.2l11.1,30.2c0.5,1.4,1.8,2.3,3.2,2.3c0.3,0,0.5,0,0.8-0.1
		c102.4-23.6,160.2-83.5,160.8-84.1c0.5-0.6,0.9-1.3,0.9-2.1C354.5,194.3,353.5,184.4,351,172z M123.1,60.2
		C108.3,78,85.9,86.8,63,83.7l-22.9-3.5c6.1-15.5,11.2-27.6,13.4-32.6h12.8h5.8h30.2h5.8h25.4L123.1,60.2z M160.5,280.4
		C68.7,258.4,14.3,207,7,199.8c-0.3-5.4,0.4-12.3,1.9-20.8c8.1,6.3,26.4,20,49.9,34.2c50.1,30.3,87.1,40.7,110.4,43.9L160.5,280.4z
		 M246.3,47.6h5.8h30.2h5.8h12.5c2.1,4.9,7.4,17.3,13.6,33.3l-23,2.8c-22.9,3.1-45.4-5.7-60.1-23.5l-10.5-12.6H246.3z M174.3,40.7
		h-8.7c3.8-6.4,8.9-10.7,11.5-12.6c2.7,2,7.7,6.3,11.5,12.6h-8.5H174.3z M347.2,199.8c-7.4,7.3-61.7,58.6-153.6,80.6l-8.6-23.2
		c26.7-3.7,57-14.5,90.2-32.4c1.7-0.9,2.3-3,1.4-4.7s-3-2.3-4.7-1.4c-33,17.8-63,28.4-89.3,31.8l-1.9-5.2V47.6h11.2
		c0.7,2,1.2,4.1,1.5,6.2c2.7,20.4,17.2,33.2,17.8,33.7c0.7,0.6,1.5,0.8,2.3,0.8c1,0,1.9-0.4,2.6-1.2c1.3-1.4,1.1-3.6-0.3-4.9
		c-0.1-0.1-13.1-11.7-15.5-29.5c-0.2-1.8-0.6-3.6-1.1-5.3h11.3h1.5l14.1,17c14.1,17,34.7,26.6,56.3,26.6c3.3,0,6.6-0.2,10-0.7
		l24.7-3c9.4,24.4,21.2,57.6,26.9,83.9c-4.1,3.3-15.6,12.2-31.6,22.9c-1.6,1.1-2,3.2-0.9,4.8c0.7,1,1.8,1.5,2.9,1.5
		c0.7,0,1.3-0.2,1.9-0.6c13.4-9,23.7-16.8,29.3-21.1C346.8,187.4,347.4,194.4,347.2,199.8z"/>
	<path d="M292.8,206.7l-1,0.6c-1.6,1-2.2,3.1-1.2,4.7c0.6,1.1,1.8,1.7,3,1.7c0.6,0,1.2-0.2,1.8-0.5l1-0.6c1.6-1,2.2-3.1,1.2-4.7
		C296.6,206.2,294.5,205.7,292.8,206.7z"/>
	<path d="M248.6,6.9h1.1c1.9,0,3.5-1.5,3.5-3.4c0-1.9-1.5-3.4-3.5-3.4h-1.1c-1.9,0-3.5,1.5-3.5,3.4C245.2,5.4,246.7,6.9,248.6,6.9z"
		/>
</g>
</svg>
