<svg xmlns="http://www.w3.org/2000/svg" viewBox="0 0 336.92 293.86"><g id="katman_2" data-name="katman 2"><g id="katman_1-2" data-name="katman 1"><path d="M168,230.54c-2.81,12.9-5.7,25.79-8.36,38.72a10.64,10.64,0,0,1-5.77,7.73C130.23,290.05,104.73,294.84,78,293.7c-24.58-1.05-48.13-6.81-70.87-16.15C2,275.43.08,272.22,0,266.69A973,973,0,0,1,6.54,144.33c3.6-30.4,8.09-60.7,16.43-90.21C27.62,37.69,33.66,21.65,39.1,5.44,40.32,1.8,43,.1,46.79,0c1,0,2,0,3,0H287.25c7.74,0,9.24,1,11.63,8.34,7.54,23.13,16.36,45.85,21,69.86a903.78,903.78,0,0,1,13,91.2c2.93,32.4,4.05,64.85,4,97.37,0,5.57-2.07,8.71-7.19,10.8-29.84,12.17-60.67,18.39-93,15.59A133.11,133.11,0,0,1,183,276.94a10.65,10.65,0,0,1-5.71-7.77c-2.53-12.35-5.3-24.65-8-37-.12-.57-.31-1.12-.47-1.68Zm7.9-184.7v4.51q0,29.82,0,59.63a16,16,0,0,1-.6,4.79,7.24,7.24,0,0,1-13.66-.09,16.34,16.34,0,0,1-.57-4.79q0-29.81,0-59.63V45.84h-4.81q-51.58,0-103.16,0c-4,0-9.19-1.27-11.58.73-2.78,2.33-3.35,7.55-4.41,11.64a592.05,592.05,0,0,0-15.57,87.32c-2.5,23.59-4.27,47.28-5.74,71-1,15.94-.88,31.95-1.27,47.85,1.36.6,2.26,1,3.18,1.4a190.25,190.25,0,0,0,56.75,13c23.72,1.65,46.61-1.61,68.1-12.45a6.05,6.05,0,0,0,3.66-4.64C151,238.82,156,216,160.93,193.2c1.09-5,3.49-7.32,7.57-7.31s6.43,2.29,7.53,7.36c4.91,22.69,9.87,45.38,14.66,68.09a6.37,6.37,0,0,0,3.79,5c16.63,8.28,34.29,12.2,52.76,12.66,24.57.61,48.15-4.33,71.13-12.73,2.93-1.08,3.9-2.45,3.89-5.6-.11-51.33-3.46-102.42-12.23-153-3.38-19.51-8.55-38.71-12.84-58.07-.64-2.9-2-3.82-5.14-3.81-37.26.13-74.53.08-111.79.08ZM140.59,15H115.17V31h25.42Zm81.23,16V15.1H196.44V31ZM99.91,15.21H74.26V30.86H99.91ZM237.05,31h25.62V15.1H237.05ZM181.11,31V15.12H155.85V31Zm-122,0V14.89A35.69,35.69,0,0,0,54,15c-1,.15-2.61.68-2.9,1.44C49.28,21.12,47.79,26,46.1,31ZM277.83,15.14V30.92h13l-5.4-16c-1.88,0-3.62,0-5.35,0C279.39,14.92,278.67,15.05,277.83,15.14Z"/><path d="M120.38,99.26A40.26,40.26,0,0,1,127.21,78,178.51,178.51,0,0,1,142.57,59.3c3.41-3.73,8.35-3.43,11.22-.12s2.12,7.2-1.25,11c-4.63,5.18-9.52,10.35-13,16.28-2.54,4.31-3.49,9.78-4.23,14.87-.85,5.83-3.21,9.13-7.89,8.94s-7.06-3.46-7-9.2Z"/><path d="M216.56,100.6c0,.5,0,1,0,1.5-.1,4.85-2.75,7.94-7,8.15-4.38.21-7.7-2.8-7.72-7.77,0-9.4-4-17.15-9.66-24.19a85.33,85.33,0,0,0-7.46-7.88c-4-3.87-4.6-8.09-1.41-11.46,3-3.19,7.46-3.08,11.32.47,10.62,9.75,18.81,21,21.41,35.59.33,1.83.41,3.71.6,5.57Z"/></g></g></svg>