<?xml version="1.0" encoding="utf-8"?>
<!-- Generator: Adobe Illustrator 26.0.0, SVG Export Plug-In . SVG Version: 6.00 Build 0)  -->
<svg version="1.1" id="katman_1" xmlns="http://www.w3.org/2000/svg" xmlns:xlink="http://www.w3.org/1999/xlink" x="0px" y="0px"
	 viewBox="0 0 342 300.1" style="enable-background:new 0 0 342 300.1;" xml:space="preserve">
<g id="katman_2_00000156546396536775996850000003411757528295008141_">
	<g id="katman_1-2">
		<path d="M223.5,291.4c-3.7-1.5-5.9-0.5-6.6,3.3c-0.2,1.2-0.5,2.7-1.2,3.5s-2.7,1.8-3.6,1.5s-1.9-2.3-1.8-3.4
			c0.1-1.8,1-3.5,1.6-5.3c-5.1-1.3-5.1-1.3-6.7,3.3c-0.3,1-0.4,2.1-1,2.8c-1.2,1.1-2.8,2.9-4,2.7c-2.2-0.3-2.4-2.4-1.6-4.5
			c0.6-1.7,1.1-3.5,1.7-5.2c-3.7-1.5-6.1-0.9-6.7,3.4c-0.3,1.2-0.7,2.4-1.2,3.5c-0.6,2.1-1.8,3.9-4.3,2.9c-2.2-0.8-2.2-2.7-1.4-4.7
			s1.3-4,1.9-5.9c-0.4-0.3-0.6-0.6-0.8-0.6c-6.4,0.6-8-3.6-9.5-8.6c-2-6.9-4.5-13.6-7.5-20.2l-5,15c-0.4,1.3-0.9,2.6-1.3,3.9
			c-1.6,5.2-2.3,11.4-10.9,9.4c0.9,2.9,1.5,5,2.2,7.1s0.4,4.1-1.8,4.5c-1.1,0.2-2.8-1.3-3.8-2.5c-0.8-1-1-2.5-1.4-3.8
			c-1.5-4.6-1.5-4.6-6.7-3.6c0.5,1.8,1,3.5,1.6,5.2c0.8,2,0.8,3.9-1.5,4.7c-2.5,0.9-3.6-0.8-4.2-2.9c-0.3-0.8-0.6-1.6-0.8-2.5
			c-0.7-4-2.9-5.1-6.8-3.6c0.6,1.8,1.5,3.5,1.5,5.3c0,1.3-1.2,2.6-1.9,3.9c-1.2-0.6-2.6-1.1-3.6-2c-0.6-0.9-1-2-1.1-3.1
			c-0.7-3.8-2.8-4.9-6.8-3.5c0.4,1.4,1.3,3,1.2,4.4s-1.2,2.8-1.8,4.2c-1.3-0.7-2.5-1.4-3.7-2.3c-0.5-0.7-0.8-1.6-0.8-2.4
			c-0.6-4-3-5.1-6.9-3.7c0.5,1.5,1.4,3,1.3,4.5c-0.1,1.5-0.8,2.8-2,3.7c-0.6,0.4-2.4-1-3.5-1.7c-0.3-0.2-0.3-0.9-0.5-1.4
			c-2.2-6.2-2.2-6.2-9.3-6c-0.8,2.2-1.3,4.6-2.5,6.7c-0.7,1.2-2.6,1.7-3.9,2.5c-0.6-1.5-1.5-2.9-1.5-4.4s0.9-3.1,1.5-5.1l-8-1
			c0,2.4,0,4.4,0,6.5c0.1,2.2-0.5,4.2-3.1,4.1c-2.4,0-3-1.9-2.9-4s0-4.5,0-6.9l-6-0.9c0,2.9,0.3,5.5-0.1,8.1
			c-0.2,1.4-1.6,3.3-2.7,3.6c-2.2,0.5-3.2-1.4-3.2-3.6c0-2.9,0-5.7,0-8.7l-6-1c0,3.4,0,6.5,0,9.6c0,2.2-0.7,3.9-3.1,3.8
			s-3-1.8-3-3.9c0.1-3.4,0-6.7,0-10.4l-10-2c-0.7,2.6-1.1,5.2-2.1,7.5c-0.6,1.2-2.4,1.9-3.6,2.8c-0.7-1.4-2-2.8-2-4.1
			c0.1-2.3,1-4.6,1.6-7.3l-8.3-1.9c-1.8,3.6-3.6,7.2-5.4,10.7c-1,2-2.4,3.5-4.7,2.3s-1.6-3-0.7-4.8c1.5-3,3-6,4.5-9
			c-5.6-2.2-5.6-2.2-8.8,2.5c-1,1.5-1.7,3.2-3,4.2c-1,0.8-2.8,0.7-4.2,1c0-1.5-0.7-3.1-0.3-4.3c0.9-2.1,2.5-4,4.1-6.6
			c-5.9-0.4-4.9-4.1-4.5-7.9c3.2-28.2,6.3-56.4,9.3-84.6c3-27.4,4.8-55.1,14.3-81.3c7.1-19.6,14.6-39.1,22.8-58.2
			C52.1,32.4,55,20.2,54,7c-0.5-6.9-0.1-7,6.7-7h220.9c6.2,0,6.8,0.2,6.3,6.3c-1.1,13.6,1.7,26.3,7.4,38.8
			c6.4,14.1,11.6,28.7,17.4,43c9.8,24.4,14.9,49.9,17.4,76s5.7,52.4,8.6,78.6c1.1,9.6,2,19.1,3.2,28.7c0.4,3.5-1.5,4.7-4.9,5.3
			c1.3,1.9,2.3,3.4,3.2,5c1.2,1.9,3.1,4,0.4,5.8c-3,2-4.1-0.8-5.5-2.7c-0.6-0.8-1.1-1.7-1.7-2.5c-3.1-4.7-3.1-4.7-8.9-2.7
			c1.5,3,3,6,4.5,9c1,2,1.5,4-0.9,5.1s-3.6-0.6-4.5-2.5c-1.7-3.5-3.5-6.9-5.3-10.5l-8.3,1.8c0.6,2.6,1.5,4.9,1.6,7.2
			c0.1,1.4-0.7,3.7-1.8,4.2c-2.1,1-3.4-0.6-3.9-2.7c-0.6-2.4-1.2-4.8-1.8-7c-0.4-0.1-0.7-0.1-1.1-0.2c-9,1.4-9,1.4-9,10.6
			c0,0.8,0.3,1.7-0.1,2.2c-1,1.2-2,2.4-3.1,3.4c-0.9-1.1-2.5-2.1-2.7-3.4c-0.2-3.4-0.3-6.7-0.1-10.1l-6,0.9c0,3,0.3,6.1-0.1,9
			c-0.2,1.3-1.9,2.4-2.9,3.5c-1-1.2-2.6-2.3-2.8-3.6c-0.5-2.5-0.1-5.2-0.1-8.1l-6,0.7c0,2.4,0,4.6,0,6.8s-0.5,4.2-3.1,4.1
			c-2.4,0-3-1.9-2.9-4s0-4,0-6.5l-8,0.6c0.6,2.1,1.6,3.8,1.6,5.5c0,1.4-1.2,2.8-1.8,4.2c-1.3-0.6-2.5-1.4-3.7-2.3
			c-0.6-0.6-0.7-1.8-1-2.8c-1.5-4.5-3.1-5.4-7.7-4c-0.8,0.4-1.5,1.1-1.8,2c-0.8,1.7-0.9,3.7-2,5.2c-0.7,1-2.6,1.9-3.6,1.6
			s-1.8-2.2-1.8-3.5c0-1.5,0.9-3.1,1.4-4.8c-3.4-0.8-5.8-1-6.8,3.2c-0.6,2.4-0.7,6.5-4.8,5.1s-1.3-4.5-0.8-7
			C223.3,292.4,223.4,292,223.5,291.4z M6.2,270.9c15.8,3.2,31.1,6.6,46.6,9.3c33.6,5.9,67.4,5.8,101.2,2.3c1.8,0,3.3-1.3,3.6-3
			c3.1-9.6,6.3-19.2,9.6-28.8c0.6-1.8,2.4-3.1,3.6-4.7c1.2,1.5,3.1,2.8,3.7,4.5c3.4,9.5,6.6,19.1,9.6,28.8c0.7,2.1,1.7,3,3.9,3.2
			c7.5,0.5,14.9,1.2,22.4,1.7c33.7,2,67.6-0.7,100.5-8.2c8.1-1.8,16.3-3.5,24.5-5.3c0-1-0.1-1.6-0.1-2.2
			c-2.1-18.9-4.1-37.8-6.2-56.6c-2.7-23.8-5.1-47.7-8.4-71.5c-1.6-11.8-5-23.3-7.7-34.9c-3.4,6.8-7.4,9.5-12.4,8.2
			s-7.3-5.6-6.4-12.4c-30.4-8.2-46.7-28.1-48.8-59.5c-8.3,0.4-11.5-2.7-11.7-11.6h-5.9c0,2.6-0.1,5,0,7.3c0.1,3.2-1.4,4.5-4.5,4.4
			c-3-0.1-6-0.1-9,0c-3.1,0.1-4.7-1.2-4.5-4.4c0.1-2.5,0-4.9,0-7.3h-18v4.8c0,45,0,90,0,135c0,10.2-5.6,18.3-14.9,21
			c-2.7,0.8-3.1,2-3.1,4.4c0.1,12.9,0.1,25.8,0,38.6c0,2.4,0.9,5.7-2.8,5.8c-4.1,0.1-3.1-3.4-3.1-5.9c0-66.4,0-132.8,0-199.2v-4.6
			h-36c0,2.7-0.1,5.1,0,7.6c0.1,2.8-1.1,4.2-4,4.2c-3.4,0-6.8,0-10.1,0c-2.6,0-3.9-1.2-3.9-3.9s0-5.2,0-7.9h-6.1
			C108.1,38.7,104.9,42,96,42c0.1,14-4.8,27.6-13.8,38.3c-9.1,11.1-20.9,17.8-34.9,20.8c1.2,6.7-0.7,11.3-5.8,12.4
			c-2.6,0.5-5.4,0.1-7.7-1.2c-2.1-1.2-3.2-4.1-4.7-6.1c-4.7,14.5-8,29.4-9.8,44.6c-2.7,24-5.3,48-8,71.9
			C9.7,238.5,8,254.4,6.2,270.9z M252.2,30c-4.1,38.4,25,71.9,56.8,65.5c-8.5-21.3-17-42.6-25.6-63.9c-0.6-0.9-1.5-1.4-2.5-1.5
			C271.4,30,261.9,30,252.2,30z M174,185.4c7.6-1.4,11.9-7.3,11.9-15.7c0-45.3,0-90.5,0-135.8c0-1.2-0.1-2.4-0.2-3.5H174V185.4z
			 M90.7,30c-10.4,0-19.5,0.1-28.6-0.1c-2.6,0-3.7,0.9-4.6,3.2C51.9,47.9,46,62.6,40.1,77.3c-2.4,6.1-4.9,12.2-7.7,19.4l21.5-3.1
			c0-10,0-19.2,0-28.4c0-4.5,0.6-5.1,5.2-5.1c8.1,0,16.2-0.1,24.4,0.1c2.8,0.1,4.2-0.8,4.5-3.5C88.9,47.9,89.8,39.3,90.7,30z
			 M113.7,23.9V6.2H60.1v17.6L113.7,23.9z M228.1,23.7h53.5V6.2h-53.6L228.1,23.7z M132.2,6.2v17.5h35.6V6.2H132.2z M84.2,66.3H60.2
			v24.2C70.9,84.8,78.8,77.1,84.2,66.3z M191.7,6.2c0.8,0.4,1.6,0.9,2.3,1.5c2.4,2.1,3.9,5.4,8.1,4.8c0.4-0.1,1.9,2.1,1.6,2.8
			c-0.6,1.2-1.6,2.2-2.9,2.8c-1.1,0.6-2.8,0.2-3.7,1c-1.6,1.5-3.2,3.1-4.6,4.9h17.1V6.2H191.7z M120.1,35.8h5.5V6.2h-5.5V35.8z
			 M216.2,6.2v29.5h5.6V6.2L216.2,6.2z M174.2,6.2v17.6h11.6c-7.9-5.5-7.9-11.6-0.2-17.6L174.2,6.2z M193.2,15.2
			c-1.9-1.5-3-3.1-3.9-2.9c-1.4,0.4-2.5,1.4-3.1,2.7c-0.2,0.7,1.5,2.7,2.5,2.8C189.8,17.8,191.1,16.5,193.2,15.2L193.2,15.2z
			 M103,32.9c-1.9-1.3-3.1-2.8-4-2.6c-1.1,0.2-2,1.8-3,2.8c1.1,1,2,2.5,3.2,2.7C100.1,35.9,101.3,34.3,103,32.9z M247.1,33.2
			c-1.9-1.5-3-3.1-3.9-3c-1.4,0.4-2.5,1.4-3,2.7c-0.2,0.7,1.5,2.7,2.5,2.8C243.8,35.8,245.1,34.5,247.1,33.2L247.1,33.2z M39,100.8
			c-1.4,2-2.9,3.2-2.9,4.3c0,1,1.7,2,2.6,2.9c1-1,2.7-1.8,2.9-3C41.9,104.1,40.4,102.8,39,100.8z M307.2,105.1c-2-1.4-3.2-3-4-2.8
			c-1.4,0.4-2.5,1.5-3,2.8c-0.2,0.7,1.6,2.6,2.6,2.7C303.9,107.8,305.1,106.4,307.2,105.1L307.2,105.1z"/>
		<path d="M292.8,210.1c1.4,0,2.7-0.3,3.6,0.1c1.2,0.7,2.4,1.6,3.5,2.6c-1.1,1.1-2.1,3-3.3,3.1c-5.7,0.8-11.5,1-17.2,1.4
			c-21.3,1.5-42.7,3-63.9,4.6c-1.2,0.1-2.7,0.3-3.7-0.2s-1.9-2.4-1.6-2.9c0.7-1.2,2.1-2.5,3.4-2.7c10.3-0.9,20.7-1.6,31-2.3
			c15.2-1.1,30.4-2.2,45.6-3.7h-68.5c-1.1,0-2.5,0.3-3.3-0.2c-1.1-0.7-1.9-1.7-2.2-3c-0.1-0.8,1.2-2,2.1-2.6
			c0.6-0.4,1.7-0.2,2.6-0.2h68.3C293.8,204.1,294.7,205.5,292.8,210.1z"/>
		<path d="M213.3,240.1c26.6,2.1,51.6,4,76.7,5.9c2.3,0.2,4.2,0.8,3.9,3.4s-2.4,2.8-4.5,2.6l-41.8-3.3c-11-0.9-21.9-1.7-32.9-2.6
			c-2.2-0.2-4.8-0.4-4.3-3.2C210.4,241.6,212.7,240.6,213.3,240.1z"/>
		<path d="M223.4,234.2c-1.2,0-2.6,0.2-3.7-0.2c-1.4-0.7-2.6-1.7-3.8-2.7c1.1-1.1,2.1-2.9,3.4-3.1c8.4-1,16.9-1.6,25.4-2.3l42.6-3.6
			h0.4c2.4,0,5.6-1.2,6,2.4s-2.8,3.3-5.3,3.5c-20.5,1.7-41.1,3.4-61.6,5.2c-1.2,0.2-2.4,0.5-3.6,0.9L223.4,234.2z"/>
		<path d="M223.3,234.3c2.4-0.1,4.7-0.2,7.1-0.2c21.2,0,42.5,0,63.7,0c1.1,0,2.5-0.3,3.3,0.2c1,0.6,2.3,1.8,2.3,2.8
			s-1.3,2.1-2.3,2.9c-0.5,0.4-1.4,0.1-2.2,0.1c-22.9,0-45.7,0-68.6-0.1c-1.4,0-3.5-0.6-4.1-1.6s0.5-2.8,0.9-4.2L223.3,234.3z"/>
		<path d="M56.9,132.1c-7.5,0-15,0-22.5,0c-2.3,0-4.5-0.3-4.4-3.2c0.1-2.7,2.2-2.8,4.4-2.8c15,0,30,0,44.9,0c2.3,0,4.5,0.3,4.4,3.2
			c-0.1,2.7-2.2,2.9-4.4,2.9C71.9,132,64.4,132.1,56.9,132.1z"/>
		<path d="M56.9,162.1c-7.5,0-15,0-22.5,0c-2.3,0-4.5-0.3-4.4-3.2c0.1-2.7,2.3-2.9,4.4-2.9c15,0,30,0,44.9,0c2.3,0,4.5,0.3,4.4,3.2
			c-0.1,2.7-2.2,2.9-4.4,2.8C71.9,162,64.4,162.1,56.9,162.1z"/>
		<path d="M32.5,150.1c-0.5-0.6-2.1-1.5-2.4-2.6c-0.5-2.3,1.2-3.2,3.4-3.5c12-1.7,24-3.4,36-5.2c1.5-0.2,3.1-0.9,4.4-0.6
			s2.7,1.6,4,2.4c-1,1.1-1.9,3.1-3.2,3.3c-6.2,1.2-12.6,2-18.9,2.9C48.4,147.9,40.9,148.9,32.5,150.1z"/>
		<path d="M69.4,180.1c-9.1-1.5-17.2-2.8-25.3-4.2c-3.6-0.6-7.1-1.3-10.7-1.8c-2.1-0.3-3.8-1.1-3.4-3.5s2.1-2.8,4.2-2.5
			c11.4,1.9,22.9,3.8,34.2,5.9c1.5,0.5,2.6,1.7,3.1,3.2C71.8,178.1,70,179.5,69.4,180.1z"/>
		<path d="M179.9,198c0-0.9-0.3-1.9,0.1-2.6c0.8-1.2,1.8-2.3,2.9-3.3c1,1,2.5,1.9,2.9,3.1c0.5,1.7,0.5,3.5,0,5.1
			c-0.4,1.4-1.8,2.4-2.8,3.6c-1.1-1.1-2.1-2.2-3-3.5C179.6,199.9,179.9,198.8,179.9,198z"/>
		<path d="M185.9,216.2c0,1,0.4,2.2-0.1,2.9c-0.7,1.1-1.9,2.6-2.9,2.6s-2.5-1.4-2.9-2.6c-0.5-1.7-0.5-3.5-0.1-5.1
			c0.5-1.5,1.9-2.7,2.9-4c1.1,1.2,2.1,2.6,3,3.9C186.2,214.6,185.9,215.5,185.9,216.2L185.9,216.2z"/>
		<path d="M185.9,234.3c0,1,0.4,2.2-0.1,2.9c-0.7,1.1-1.9,2.6-2.9,2.6s-2.5-1.5-2.8-2.6c-0.5-1.8-0.5-3.7,0-5.5
			c0.4-1.4,1.9-2.4,2.9-3.5c1.1,1.1,2,2.3,2.9,3.6C186.3,232.4,185.9,233.5,185.9,234.3L185.9,234.3z"/>
	</g>
</g>
</svg>
