<?xml version="1.0" encoding="utf-8"?>
<!-- Generator: Adobe Illustrator 26.0.0, SVG Export Plug-In . SVG Version: 6.00 Build 0)  -->
<svg version="1.1" id="katman_1" xmlns="http://www.w3.org/2000/svg" xmlns:xlink="http://www.w3.org/1999/xlink" x="0px" y="0px"
	 viewBox="0 0 340.1 408.9" style="enable-background:new 0 0 340.1 408.9;" xml:space="preserve">
<g id="katman_2_00000096739499987396827800000005813771335788210569_">
	<g id="katman_1-2">
		<path d="M322.6,408.9H188.5c-4.8-2.7-4.4-7.5-4.6-11.9c-1.7-46.8-3.4-93.6-5.1-140.4c-0.4-10.4-0.7-20.7-1.3-31.1
			c-0.3-5.4-3.4-8-8.2-7.6c-4.2,0.4-6.5,2.9-6.7,8.4c-1,25.4-2,50.8-2.9,76.2c-1.2,32.6-2.4,65.1-3.6,97.7c-0.1,3.7-1.1,6.7-4.4,8.7
			H17.5c-3.2-2.1-4.1-5.1-4.2-8.8c-0.4-14.9-1.1-29.8-1.7-44.7c-1.8-45.9-3.5-91.7-5.3-137.6c-1.2-31.4-2.5-62.8-3.7-94.1
			C1.8,101.1,0.9,78.5,0,55.9c-0.2-4.2,1.3-8.2,4.1-11.3c1.3-1.5,2.1-3.4,2.3-5.4c0.2-10,0.1-20,0.1-29.9C6.6,2,8.6,0,15.8,0h308.6
			c7.2,0,9.2,2,9.2,9.3c0,10.1,0,20.2,0,30.3c0,1.3,0.2,3.3,1.1,3.9c5.2,4.1,5.5,9.6,5.3,15.5c-2.1,51.3-4.1,102.6-6,154
			c-2.4,62.2-4.8,124.4-7.1,186.6C326.7,403.5,326,406.7,322.6,408.9z M190.1,53.9v29.4c0,24.1,0.1,48.2,0,72.2
			c0,12.4-8.2,20.6-20.3,21c-2.2,0.1-4.4,0-6.8,0v29.3l1.8-0.4c13.8-2.8,24.3,5.1,25.5,19.1c0.3,3.3,0.4,6.6,0.5,10
			c1.4,39.3,2.9,78.7,4.3,118.1c0.2,5.3,0.5,10.5,0.8,15.9h119.3l8.4-219c-1.9-0.3-3.2-0.6-4.5-0.7c-24.9-3.3-45.5-20.9-50.8-45.4
			c-2.4-10.8-1.8-22.2-2.3-33.4c-0.2-5.3,0-10.6,0-16.1L190.1,53.9z M144,368.6c5.9-105,7.2-209.7,5.7-314.6H74.1
			c0,11.2,0.2,22.1,0,33c-0.5,25.4-11.7,44.5-34.5,56c-7,3.5-15,5-23.1,7.6c2.8,72.1,5.6,145,8.4,218.1L144,368.6z M324.2,136.3
			c1.1-27.6,2.1-54.9,3.2-82.2h-48.2c0,13-0.8,25.7,0.2,38.2C281,116.2,300.3,135.1,324.2,136.3z M156.2,40.6h96V13.1h-96V40.6z
			 M13.8,54c0,8.9,0,17.2,0,25.6c0,2.3,1.3,2.5,3.1,2.5c5.5,0,10.9-0.1,16.3,0c7.9,0.2,12.9,5,13.4,12.9c0.3,4.1,0.1,8.2,0.1,12.4
			c0,4.7,0,9.4,0,14.1c8.1-7.2,13.1-16,13.8-26.3c0.9-13.4,0.5-26.8,0.7-40.2c0-0.3-0.3-0.7-0.5-1L13.8,54z M143.5,381.9H26v13.9
			h117.5V381.9z M196.7,395.9h117.5v-14H196.7L196.7,395.9z M163.1,53.9v109.5c10.1,1.4,14.5-0.1,14.4-11.9
			c-0.4-31-0.1-61.9-0.1-92.9v-4.8L163.1,53.9z M19.6,13v27.5h55.1V13H19.6z M265.5,13v27.5h55.1V13H265.5z M142.9,13H88v27.6H143
			L142.9,13z M33.9,95.1H14.4c0.6,13.9,1.1,27.5,1.7,42c5.6-1.6,10.6-2.9,15.4-4.5c1.1-0.5,2-1.5,2.2-2.7
			C33.9,118.4,33.9,106.9,33.9,95.1L33.9,95.1z"/>
		<path d="M170.1,20.6c3.5-0.1,6.3,2.7,6.4,6.1c0,0,0,0,0,0.1c0,3.5-2.8,6.3-6.3,6.4c-3.5-0.1-6.3-2.8-6.4-6.3
			C163.8,23.5,166.6,20.7,170.1,20.6C170,20.6,170.1,20.6,170.1,20.6z"/>
	</g>
</g>
</svg>
