<?xml version="1.0" encoding="utf-8"?>
<!-- Generator: Adobe Illustrator 26.0.0, SVG Export Plug-In . SVG Version: 6.00 Build 0)  -->
<svg version="1.1" id="katman_1" xmlns="http://www.w3.org/2000/svg" xmlns:xlink="http://www.w3.org/1999/xlink" x="0px" y="0px"
	 viewBox="0 0 551.6 372" style="enable-background:new 0 0 551.6 372;" xml:space="preserve">
<g>
	<path d="M551.4,314.3l-4.4-26.5c-1.4-6.2-4.3-14.3-13.3-16.1c-0.4-26-2.1-52.6-4.4-77.6c0-0.1,0-0.2,0-0.4
		C523.2,126.6,513,70.5,512,65.2V21.9C512,9.8,502.2,0,490.1,0H61.3C49.2,0,39.4,9.8,39.4,21.9v43.3c-1,5.3-11.2,61.4-17.3,128.5
		c0,0.1,0,0.2,0,0.4c-2.3,25-4,51.6-4.4,77.6C8.8,273.6,6,281.6,4.5,288l-4.4,26.2c0,0.2-0.1,0.5-0.1,0.7c0,9.1,5.6,15,16.8,17.4
		l231.9,39.6c0.2,0,0.5,0.1,0.7,0.1c13.3,0,15.1-5.7,17.4-16.8l4.4-26.2c0-0.2,0.1-0.5,0.1-0.7c0-4.5-1.2-7.9-3.1-10.4l7.5-12
		l7.6,12.1c-1.9,2.5-3,5.8-3,10.2c0,0.2,0,0.5,0.1,0.7l4.4,26.4c2.3,10.9,4.1,16.6,17.4,16.6c0.2,0,0.5,0,0.7-0.1L535,332.4
		c11-2.4,16.6-8.3,16.6-17.4C551.5,314.8,551.5,314.6,551.4,314.3L551.4,314.3z M290.4,312.8l-10.3-16.5v-30.5
		c1.7-0.6,3.5-1.1,5.2-1.6c23-7.1,43-13.2,43-58.4V70.1h113.4c-1,20.5,0.5,99.7,79.2,127.4c2.1,24.1,3.7,49.6,4.2,74.6l-228.3,38.7
		C294.6,311.3,292.4,311.9,290.4,312.8L290.4,312.8z M161.9,61.3V8.8h8.8v52.5H161.9z M179.4,8.8h96.4c-2.8,3.7-4.5,8.2-4.5,13.1
		v39.4h-91.9V8.8z M371.9,8.8v52.5H280V21.9c0-7.2,5.9-13.1,13.1-13.1H371.9z M380.7,61.3V8.8h8.8v52.5H380.7z M319.5,70.1v135.6
		c0,38.8-14.6,43.3-36.8,50.1c-0.8,0.3-1.7,0.6-2.6,0.8V70L319.5,70.1z M517.9,167.9c-39.6-24.8-48.3-69.7-49.5-97.8H504
		C506,81.5,512.6,119.9,517.9,167.9z M459.6,70.1c1.3,31.3,11.3,82.6,59.4,108.6c0.3,3,0.6,6.1,0.9,9.1
		C448.8,160.3,449.1,87.7,450.3,70L459.6,70.1L459.6,70.1z M503.2,21.9v39.4h-105V8.8h91.9C497.3,8.8,503.2,14.7,503.2,21.9z
		 M48.2,21.9c0-7.2,5.9-13.1,13.1-13.1h91.9v52.5h-105V21.9z M31.5,187.8c0.3-3.1,0.6-6.1,0.9-9.1c48.1-26,58.1-77.4,59.4-108.6h9.3
		C102.3,87.7,102.6,160.3,31.5,187.8L31.5,187.8z M47.5,70.1h35.6c-1.2,28.1-9.9,73.1-49.5,97.8C38.8,119.9,45.4,81.5,47.5,70.1z
		 M258.3,353.5c-2,9.5-2.1,9.6-8.5,9.6L18.5,323.9c-8.6-1.9-9.6-5.4-9.7-8.5l4.3-25.6c1.9-8.7,5-9.6,8.5-9.7l231.3,39.3
		c8.8,2,9.7,4.6,9.7,8.5L258.3,353.5z M261.1,312.7c-2.1-0.9-4.3-1.5-6.5-2L26.5,272c0.4-25,2-50.4,4.2-74.5
		c78.7-27.7,80.2-106.9,79.2-127.4h161.5v226.2L261.1,312.7z M533.3,323.9l-231.6,39.3c-6.3,0-6.5-0.2-8.4-9.5l-4.3-25.9
		c0-3.9,0.9-6.5,9.5-8.5L530,280c3.5,0.1,6.6,1,8.5,9.5l4.3,25.9C542.7,318.6,541.7,322,533.3,323.9L533.3,323.9z"/>
	<path d="M306.3,52.6c9.7,0,17.5-7.8,17.5-17.5s-7.8-17.5-17.5-17.5s-17.5,7.8-17.5,17.5S296.7,52.6,306.3,52.6z M306.3,26.3
		c4.8,0,8.8,3.9,8.8,8.8c0,4.9-3.9,8.8-8.8,8.8s-8.8-3.9-8.8-8.8S301.5,26.3,306.3,26.3z"/>
</g>
</svg>
