<?xml version="1.0" encoding="utf-8"?>
<!-- Generator: Adobe Illustrator 26.0.0, SVG Export Plug-In . SVG Version: 6.00 Build 0)  -->
<svg version="1.1" id="katman_1" xmlns="http://www.w3.org/2000/svg" xmlns:xlink="http://www.w3.org/1999/xlink" x="0px" y="0px"
	 viewBox="0 0 354.6 503.9" style="enable-background:new 0 0 354.6 503.9;" xml:space="preserve">
<g>
	<path d="M354.5,294c-0.2-17-0.9-37.3-1.9-61.9c0-1.1-0.1-2.2-0.1-3.1c-0.3-7.6-0.6-15.4-1-23.6c-0.1-0.6-0.1-1.2-0.1-2.1
		c-1-19.8-2.1-40.1-3.2-59.7c-2.7-46-5.4-84.9-6.7-104l0,0l0,0c-0.7-10.4-1.3-18.8-1.7-24.7l-0.2-3.3c-0.3-4.2-0.5-6.4-0.5-6.4
		c-0.2-2.9-2.6-5.1-5.5-5.1l0,0l0,0l0,0c-1.7,0-85.1,0.6-143.8,0.2c-0.4,0-0.7,0-1.1,0c-1.3,0-2.6,0-3.9,0s-2.7,0-4,0
		c-0.8,0-1.6,0-2.4,0c-2.3,0-4.5,0-6.7-0.1C166,0,160.2,0,154.2,0c-51,0.3-117.6,3.7-133.3,4.6c-2.1,0.1-3.4,0.2-3.5,0.2
		C14.8,5,12.6,7,12.3,9.6L12,12.4c-0.3,2.2-0.6,5.1-0.9,8.5c-0.5,4.6-1,10.4-1.6,17.4l0,0l0,0c-0.4,5-1,12.5-1.8,22
		C6.1,81.2,4,111.7,2.3,145.5l0,0v0.1l-0.2,4.7v0.1c-0.6,12.3-1.1,24.5-1.4,36.4l-0.1,3.1c-0.1,4.2-0.2,8.4-0.3,12.6v1.7
		c0,1,0,2,0,2.9c-0.4,20.4-0.4,37.6-0.1,52.4c1.5,65.4,8.2,154,12.1,200.9c0.2,2.6,0.4,5,0.6,7.4c-0.3,0.8-0.6,1.7-0.5,2.7l2.7,23.8
		l0,0l0,0c0,0.4,0.2,0.7,0.3,1s0.1,0.5,0.2,0.8c0,0,0,0,0,0.1c0.2,0.3,0.4,0.6,0.7,0.9c0.2,0.2,0.3,0.4,0.5,0.6l0,0
		c0.3,0.3,0.7,0.4,1,0.6c0.2,0.1,0.4,0.3,0.6,0.4l0,0c0.6,0.2,1.2,0.4,1.9,0.4l133.8,4.8c0.1,0,0.1,0,0.2,0s0.2,0,0.2,0
		c0.6,0,1.2-0.1,1.7-0.3c0.2-0.1,0.4-0.2,0.6-0.4c0.3-0.2,0.7-0.4,1-0.6c0.2-0.2,0.4-0.4,0.5-0.6c0.2-0.3,0.5-0.6,0.7-0.9
		c0.1-0.2,0.2-0.5,0.3-0.8c0.1-0.2,0.2-0.4,0.3-0.6c0-0.2,0-0.3,0-0.5c0-0.1,0.1-0.3,0.1-0.4c0.1-1.9,11.6-193.1,14.3-223.9
		c0.1-1.6,0.3-3.2,0.4-4.7c7.1,40.5,17.4,100.1,19.9,122.3c2.6,22.2,7.6,58.9,10.9,82.8c0,0,0,0,0,0.1l1.2,8.1
		c1,7.2,1.8,12.4,2.1,14.4l0.1,0.9l0,0l0,0c0,0,0,0,0,0.1s0,0.1,0,0.1c0.1,0.5,0.3,1,0.5,1.4c0,0.1,0,0.2,0.1,0.2l0,0
		c0.9,1.7,2.7,2.8,4.8,2.8h8.3l107.2,0.3l0,0c0.6,0,1.2-0.2,1.7-0.3h4.8c0.7,0,1.3-0.1,1.9-0.3c0.2-0.1,0.4-0.2,0.6-0.3
		c0.4-0.2,0.7-0.4,1-0.6c0.2-0.2,0.3-0.4,0.5-0.6c0.2-0.3,0.5-0.5,0.7-0.9c0.1-0.2,0.2-0.5,0.3-0.8s0.3-0.5,0.3-0.8
		c0-0.1,0-0.1,0-0.2c0-0.1,0.1-0.1,0.1-0.2c0-0.1,1.5-11.1,3.5-29c0.9-7.8,1.8-16.9,2.8-27c0-0.1,0-0.3,0.1-0.4
		C351.2,404.5,355.3,348,354.5,294L354.5,294z M190.7,53.1c0.9,11.1,2.6,39.7-0.5,73.6c-2.9,31.3-17.9,38.7-24.6,40.5l-6.9-114.8
		c10.3,0.3,20.9,0.4,31.5,0.5C190.4,53,190.5,53.1,190.7,53.1L190.7,53.1z M13.6,137.7c0.1-1.3,0.1-2.7,0.2-4
		c0.1-1.5,0.2-2.9,0.2-4.4c0.1-1.4,0.2-2.8,0.2-4.1c0.1-1.4,0.2-2.8,0.2-4.1c0.1-1.4,0.2-2.9,0.3-4.3c0.1-1.2,0.1-2.3,0.2-3.5
		c0.1-1.6,0.2-3.2,0.3-4.8c0.1-1,0.1-1.9,0.2-2.9c0.1-1.7,0.2-3.3,0.3-5c0-0.7,0.1-1.5,0.1-2.2c0.1-1.8,0.2-3.5,0.3-5.2
		c0-0.6,0.1-1.2,0.1-1.8c0.1-1.8,0.2-3.6,0.4-5.3c0-0.4,0.1-0.8,0.1-1.2c1.2-16.9,2.3-30.8,3-40.2C33.1,45.9,53,47.4,77,48.9
		c-3.2,18.9-16.4,73.7-63.8,93.7C13.5,141,13.5,139.3,13.6,137.7L13.6,137.7z M83.1,38.4c-0.9-0.8-2-1.4-3.3-1.5l-58.9-3.6
		c0.4-4.8,0.8-9,1.2-12.5c0-0.4,0.1-0.9,0.1-1.3c0-0.1,0-0.2,0-0.4c5.2,0.5,11.9,1.2,20.3,1.9c0.2,0.1,0.5,0.1,0.7,0.1
		c28.6,2.5,71.5,5.6,119.1,6.5c-1.7,2.2-2.7,4.8-2.7,7.8c0,2.2,0.6,4.3,1.7,6.2c-1.3,0-2.5-0.1-3.8-0.1c-0.1,0-0.1-0.1-0.2-0.1
		l-4.3-0.1c-0.1,0-0.1,0-0.2,0C127.7,40.7,104,39.6,83.1,38.4L83.1,38.4z M176.6,11.1c38.6,0.4,91.8,0.2,120.8,0.1
		c1.3,0,2.6,0,3.8,0c-4.1,0.5-8.2,0.9-12.5,1.4c-0.1,0-0.2,0-0.3,0c-73,7.2-154,4.3-210,0.4c0.2,0,0.4,0,0.6,0
		c14.7-0.6,30.7-1.1,46.4-1.5c0.3,0,0.7,0,1,0c3.5-0.1,7.1-0.1,10.5-0.2c0.5,0,1,0,1.6,0c3.3-0.1,6.6-0.1,9.9-0.1c0.6,0,1.1,0,1.7,0
		c3.3,0,6.6,0,9.8,0h1.2c3.5,0,6.9,0,10.2,0.1C173,11.1,174.8,11.1,176.6,11.1L176.6,11.1z M172.4,37.2c-0.5,0-0.9-0.2-1.1-0.4
		c-0.5-0.4-0.7-0.8-0.7-1.4c0-0.9,0.7-1.7,1.6-1.8c0.2,0,0.3,0,0.5,0.1c0.9,0.1,1.6,0.8,1.6,1.7C174.2,36.4,173.4,37.2,172.4,37.2
		L172.4,37.2z M183.3,42c1.2-1.9,1.9-4.1,1.9-6.5c0-2.8-1-5.4-2.5-7.5c2.2,0,4.5,0,6.8,0c32.9,0,67.1-1.2,99.7-4.4
		c0.2,0,0.4,0,0.5,0c14.4-1.4,27.2-3.1,39.2-5.1l1.2,16.4c0,0.1,0,0.3,0,0.4C285.2,41,232.8,42.5,183.3,42L183.3,42z M330.9,46.1
		c0.1,1.6,0.2,3.3,0.4,5.1c0,0.4,0.1,0.8,0.1,1.3c0.1,0.9,0.1,1.8,0.2,2.6c0.1,0.8,0.1,1.6,0.2,2.5c0.1,0.8,0.1,1.6,0.2,2.4
		c0.1,1,0.1,2,0.2,3c0,0.6,0.1,1.3,0.1,1.9c0.1,1.4,0.2,2.8,0.3,4.2c0,0.4,0.1,0.8,0.1,1.2c0.1,1.6,0.2,3.2,0.3,4.9
		c0,0.5,0.1,1,0.1,1.5c0.1,1.6,0.2,3.2,0.3,4.8c0,0.6,0.1,1.1,0.1,1.7c0.1,1.7,0.2,3.5,0.3,5.3c0,0.4,0.1,0.8,0.1,1.1
		c0.1,2.1,0.3,4.2,0.4,6.4c0,0.1,0,0.3,0,0.4c0.8,12.4,1.6,25.9,2.5,40.3c-19.7-6.4-54-25.9-67.9-85.2
		C290.3,50.4,311.3,48.6,330.9,46.1L330.9,46.1z M149.2,490.6c-48.3-18.2-105-7.9-123.9-3.7c-0.3-3.2-0.6-7.4-1.1-12.6
		c14.5-2.6,56.4-8.9,96.6-2.5c10.4,1.6,20.1,4,29,7.2L149.2,490.6z M331.4,490.4c-45.8-16.9-95.5-4.8-112.9,0.5l-1.4-9.8
		c-0.1-0.8-0.2-1.6-0.3-2.4c5.3-1.3,14.7-3.3,26.8-5c25.9-3.5,56.8-5.6,89.3,4.4C332.3,483.2,331.8,487.3,331.4,490.4L331.4,490.4z
		 M336.8,441.3c0,0.1,0,0.2-0.1,0.4c-0.9,9.5-1.8,18-2.6,25.4c-33.8-10-65.4-7.8-92-4.2c-11.9,1.6-21.2,3.6-26.9,4.9
		c-3.3-23.7-7.7-56.2-10.1-76.5c-4.1-35.1-26.3-158.1-27.2-163.3c-0.5-2.7-2.9-4.8-5.6-4.5c-2.7,0.1-5,2.2-5.2,5
		c0,0-1.3,14.3-4.1,45.6c-2,23.3-9.1,138-12.4,193.7c-8.7-2.9-18.1-5.1-28-6.7c-41.4-6.6-83.2-0.6-99.2,2.3
		c-0.1-1.2-0.2-2.4-0.3-3.7C19.2,412.9,12.5,324.5,11,259.4c-0.3-14.6-0.3-31.6,0.1-52c0-0.9,0-1.8,0-2.7V203
		c0.1-4.1,0.2-8.3,0.3-12.5l0.1-3.2c0.3-10.7,0.8-21.6,1.2-32.7c57.7-20.7,72.2-84.1,75.4-105c18.2,1,38.3,1.9,59.5,2.6l7.3,121.4
		c0.2,2.9,2.6,5.2,5.5,5.2h1.9c0.3,0,34.1-0.6,38.7-51c3.1-34,1.6-62.7,0.6-74.8h0.5c18.5,0,37.1-0.3,55.5-1.1
		c15.6,69.8,57.9,90.3,79.8,96.3c1,18.4,2.1,37.2,3,55.4c0,1,0,2.1,0.1,2.7c0.4,7.8,0.7,15.5,1,23.4c0.1,0.8,0.1,1.6,0.1,2.7
		c1.1,24.8,1.7,45,1.9,61.8C344.3,347.7,340.3,403.7,336.8,441.3L336.8,441.3z"/>
</g>
</svg>
