<?xml version="1.0" encoding="utf-8"?>
<!-- Generator: Adobe Illustrator 26.0.0, SVG Export Plug-In . SVG Version: 6.00 Build 0)  -->
<svg version="1.1" id="katman_1" xmlns="http://www.w3.org/2000/svg" xmlns:xlink="http://www.w3.org/1999/xlink" x="0px" y="0px"
	 viewBox="0 0 504 449.5" style="enable-background:new 0 0 504 449.5;" xml:space="preserve">
<g>
	<path d="M503.9,394.6c0-2.3-0.5-4.6-0.7-6.9c-0.4-3.3-0.8-6.6-1.2-9.9c-0.3-2.3-0.5-4.6-0.8-6.9c-0.3-2-0.8-4-0.8-6.1
		c0.2-10.1-2-19.8-3.7-29.7c-0.5-3-1.2-6-1.5-9.1c-1.3-10.7-2.2-21.4-3.7-32.1c-1.9-14.5-4.1-28.9-6.2-43.4
		c-1.7-11.9-3.6-23.9-5.1-35.8c-2.8-21.9-5.2-43.8-9.4-65.5c-2.5-12.8-4.1-25.8-7.9-38.4c-1.3-4.2-1.2-8.6-0.6-12.9
		c0.5-0.7,1-1.3,1.5-1.9c4-3.8,5.7-8.4,5.3-13.9c-0.2-3.1-0.4-6.2-0.2-9.2c0.2-3.3,0.2-6.8,1.3-9.8c3.6-9.8,1.9-19.8,2-29.8
		c0-3.3-2-5.3-5.3-5.4c-3.6-0.1-7.1,0.2-10.7,0.5c-2.5,0.2-5,0.9-7.6,0.9c-12.1,0.1-24.1,0.1-36.2,0c-1.8,0-3.7,0.2-5.3-0.3
		c-5-1.5-10.2-1.3-15.3-1.3c-9.2,0-18.5,0-27.7,0c-2.3,0-4.7,0.2-6.9-0.4c-4.5-1.2-9.2-0.9-13.8-1.3c-7.4-0.5-14.9-0.9-22.2-2.2
		c-10.7-1.8-21.4-2.8-32.1-2.9c-25.1-0.3-50.3-0.2-75.5,0c-18.8,0.2-37.5-0.1-56.1-2.5c-12.5-1.6-24.9-3.4-37.1-6.7
		c-5.9-1.6-12-3-18-3.9c-3.6-0.6-6.9-1.6-10-3.6c-2.3-1.5-5-2.6-7.6-3.5c-4.8-1.6-7.4-0.5-9.4,3.9c-1.4,3-2.7,6.1-2.4,9.6
		c0.4,6.6-1.8,12.7-4.3,18.5c-5.3,12-5.9,23.7-0.2,35.6c0.1,0.2,0.1,0.5,0.3,1.4c-5.3,20.2-10.9,41-16.2,61.9
		c-3.6,14.2-6.9,28.4-10.3,42.6c-1.3,5.7-2.2,11.6-3.6,17.3c-2.3,8.9-4.9,17.8-7.5,26.7c-4.6,16-7.4,32.5-10.4,48.9
		c-1.9,10.6-3.9,21.2-6.1,31.7c-1.4,6.8-3.5,13.4-5.2,20.1c-3.3,12.6-6.8,25.2-8.9,38.1c-1.5,9.5-0.6,18.3,7.2,25.3
		c3.6,3.3,6.9,6.9,10.4,10.3c1.5,1.4,3,2.9,4.7,4c5.6,3.6,11.3,7.1,16.9,10.7c4.3,2.8,8.6,5.6,12.9,8.4c3.4,2.2,6.8,4.7,10.3,6.7
		c4.9,2.8,10.1,5,15,7.8c3.6,2.1,7.4,3.5,11.4,4.4c7.5,1.7,14.9,3.6,22.4,5.5c7.9,2,15.8,4.5,23.8,6.3c8.8,1.9,17.7,2.1,26.6-0.4
		c3.3-0.9,5.5-2.6,7.1-5.4c0.9-1.5,1.8-3.2,2.2-4.9c1.4-5.7,4.6-10.2,8.8-14.2c2.2-2.2,4-4.4,4.8-7.6c1.4-5.2,3.4-10.2,5-15.3
		c3.3-10.3,7-20.3,11.4-30.2c0.5-1.2,1-2.4,1.4-3.6c2.8-8.8,5.1-17.7,8.4-26.3c4.6-12,7.8-24.4,10.5-36.9c0.5-2.5,0.9-5.1,1.9-7.4
		c1.8-4.4,4.4-8.1,9.9-8.4c1.8-0.1,3.4-1.1,5.2-1.3c10.6-1,11.4-1.2,14.9,9.5c0.2,0.5,0.1,1,0.3,1.5c2.1,6.6,2.6,13.6,3.9,20.3
		c3,15.1,5.7,30.2,7.5,45.5c0.5,4,1.7,8,1.8,12c0.1,10.3,1.4,20.4,4.7,30.2c1.3,3.9,2.2,8,2.1,12.1c-0.1,6.3,1.7,12.1,2.9,18.3
		c5,2.2,9.8,4.4,14.7,6.5c1.9,0.8,3.9,1.4,5.9,1.9c7.2,1.9,14.4,3.7,21.6,5.6c4,1.1,8,1.6,12.2,1.6c33.9-0.1,67.8,0,101.6-0.1
		c2.3,0,4.7,0.2,6.9-0.3c11.3-2.4,22.7-4.2,33.7-7.9c4.1-1.4,8.3-2.7,12.5-3.8c6.1-1.6,9.3-6.8,13.9-10.3c0.8-0.6,1.4-1.6,1.6-2.6
		c0.9-4.2,2.7-8.2,2.5-12.8C503.8,406.4,504,400.5,503.9,394.6L503.9,394.6z M74.6,38.5c1.7-4.8,3.6-9.6,5-14.5
		c0.7-2.4,0.7-5.1,0.9-7.6c0.2-2.8,0.2-5.6,2.4-8.1c6,1.2,10.3,5.5,15.9,7.5c5.3,1.9,10.3,4.6,16.4,5c0.8,4.6-1.6,8.9-1.6,13.4
		s0.3,8.9,1,13.5c2.3-8.8,4.5-17.7,6.9-26.8c2.7,0.4,5.2,0.8,7.6,1.3c2.2,0.4,4.4,1.1,7,1.7c-0.4,5.2-1,10-1.2,14.8
		c-0.2,4.5-1,9,0,13.6c0.8-0.3,1.5-0.4,1.6-0.6c2.2-8.9,4.3-17.9,6.5-27.3c0.9-0.1,2.2-0.6,3.3-0.5c13.2,1.5,26.4,3.1,40.1,4.7
		c-1,3.3-1.9,6.5-2.8,9.6c-1,3.3-0.3,6,2.9,8c3.2-1.3,3.9-4.2,4.8-7.2c2.9-10.8,2.9-10.8,13.9-10.8c28.7,0,57.5,0,86.2,0
		c7.2,0,14.3,0,21.4,1.5c9,1.9,18.2,3,27.7,4.5c3.4,9,2.7,18.6,2.4,28.2c1.7,1.1,2.4,0,2.8-1.2c2.4-7.1,2.7-17.5,0.7-26.9
		c1.5-0.1,3-0.6,4.4-0.3c7.9,1.8,15.8,1.4,23.8,1.5c6.7,0,13.4-0.1,20,0.1c3.6,0.1,7.1,0.7,10.7,1c2.5,0.2,5.1,0.6,7.6,0.6
		c10.5,0.1,21,0,31.6,0c4.9,0,9.7,0.3,14.5-1.3c1.5-0.5,3.4-0.1,5.5-0.1c0.7,9.4,1.4,18.3-1.8,27c-1.4,3.9-2.2,7.9-2.2,12
		c0.2,7.1-2.6,12.9-7.9,18.1c-6.4-3.5-13.2-2.7-20.1-2c-18.1,1.8-36.3,3.3-54.3,6.2c-5.8,1-11.7,1.5-17.6,1.6
		c-16.7,0.2-33.4,0.3-50,0.1c-5.6-0.1-11.2-1.2-16.8-1.7c-3.5-0.3-6.2-1.7-8.4-4.6c-2.4-3.3-5.2-6.3-7.8-9.5
		c-6.5-8-14.3-14.7-22-21.5c-2.5-2.2-5.5-3.6-8.4-5.4c-7.9-0.6-15,2.2-21.8,5.9c-8.4,4.6-15.9,10.3-22.6,17.2
		c-1.8,1.8-3.7,3.5-6,5.7c-1.4-0.1-3.5-0.2-5.5-0.3c-1.5-0.1-3-0.6-4.6-0.6c-24.7-0.2-48.9-5.6-73.4-7.6c-5.3-0.4-10.6-1.6-15.9-2.5
		c-7-1.1-12.9-4.9-19.1-8c-2.5-1.3-4.4-3.7-5.3-7.1C70.9,51.7,72.3,45.1,74.6,38.5L74.6,38.5z M284.2,103.7
		c8.7,12,11.8,24.3,8.4,33.8c-1.1-0.2-2.5,0-3.4-0.6c-1.9-1.3-3.8-2.7-5.1-4.5c-6.4-8.4-11.4-17.5-14.9-27.4
		c-0.3-0.9-0.1-1.9-0.2-3.4C274.4,101.9,279.5,102.2,284.2,103.7L284.2,103.7z M265.9,93c-2.2-4.6-3.8-9.5-4.4-15.1
		c5.6,4,10.9,10,14.3,16.2C272.4,94.7,269.3,94.1,265.9,93L265.9,93z M208.2,86.4c2.3-4.9,5.2-8.1,12.9-13.2
		c5.6-3.8,11.1-8,19.3-9.5c-7.4,8.4-14,15.9-20.9,23.8C215.4,87.1,211.9,86.7,208.2,86.4L208.2,86.4z M212.4,94.6
		c-0.4,1-0.5,1.9-1,2.3c-8.1,7.7-16.3,15.4-24.5,23.1c-0.4,0.4-1.2,0.5-2,0.7c2.5-8.5,8.4-18.6,16.3-27.7c1,0,2.3-0.2,3.5,0
		C207.3,93.5,209.8,94.1,212.4,94.6L212.4,94.6z M238.9,78.1c1.7-2.4,3-5.2,6.2-6.6c2.3,6.1,2.5,12.1,3,18.1
		c-5.6,0.7-7.3,0.5-14-1.5C234.7,84.2,236.8,81.1,238.9,78.1L238.9,78.1z M176.3,412.9c-4.9,5.4-8.3,11.6-10.8,18.4
		c-2.4,6.5-6.8,9.3-14,9.8c-9.6,0.6-18.8-1.7-28-3.9c-5-1.1-9.8-2.7-14.5-4.9c-5.1-2.4-10.5-4.1-15.9-5.8
		c-12.3-3.9-23.3-10.5-34.4-16.8c-2.2-1.3-4.4-2.7-6.6-3.9c-6.7-3.4-12.5-7.9-17.4-13.7c-1.3-1.5-3.1-2.6-4.8-3.8
		c-3.1-2.2-6.4-4.2-9.5-6.6c-2.4-1.9-4.6-4.1-6.7-6.3c-5.2-5.6-7.2-11.6-5.1-19.6c2.8-10.8,4.7-21.9,8.6-33.2
		c1.7,1.6,3.3,2.9,4.6,4.4c8.2,9.3,17.5,17.2,28.4,23.3c0.9,0.5,1.9,0.9,2.6,1.6c10.1,9.1,22.9,13.4,34.7,19.5
		c4.3,2.2,8.8,4.2,13.1,6.4c12,6.1,24.8,9.6,37.7,12.8c7,1.7,13.9,3.4,20.9,5c2.5,0.5,5.1,0.6,7.6,0.7c5.1,0.1,10.2,0.1,15.7,0.1
		C182,402.8,180.4,408.3,176.3,412.9L176.3,412.9z M201.9,346.2c-1.7,5.6-4.1,11-5.9,16.6c-2.7,8.7-6.8,17-10.4,25.8
		c-7.4,0-14.6,0.2-21.8-0.1c-3-0.1-6-1-9-1.8c-11.4-2.9-22.9-5.7-34.2-8.9c-3.9-1.1-7.7-2.7-11.4-4.5c-13.7-6.5-27.3-13-40.8-19.7
		c-2.5-1.2-4.8-2.9-7.1-4.5c-3-2-5.8-4.2-8.9-6c-11-6.4-20.4-14.6-28.6-24.3c-1.5-1.7-2.3-4-3.4-5.9c-1-1.7-0.8-3.4-0.2-5.2
		c4.1-13.5,5.7-27.6,8.5-41.4c0.6-2.8,1.1-5.5,1.9-9.6c3.2,3,4.8,5.6,6.6,8c0.8,1,1.3,2.3,2.3,3c5.2,3.3,10.5,6.3,15.7,9.5
		c3.5,2.2,7.1,4.2,10.3,6.7c9.3,7.4,19.1,13.8,30,18.5c3.8,1.6,7.4,3.6,11,5.5c4.1,2.1,8.4,3.7,12.9,4.9c5.9,1.6,11.7,3.8,17.5,5.6
		c12.3,3.6,24.7,6.8,36.9,10.7c9.8,3.1,19.9,4.3,30.1,6.5C204.1,339.5,202.9,342.8,201.9,346.2L201.9,346.2z M267.7,331.3
		c-1.4-7.6-2.6-15.2-4.1-22.7c-1.2-6-2.7-12-4.2-18c-0.3-1.2-1-2.3-1.5-3.5c-2.6-6.5-6.9-9.9-14.2-9c-3,0.4-6.1,0.2-9.1,1.3
		c-2.1,0.8-4.5,0.8-6.5,1.1c-13-7.3-22.6-17.2-28.5-30.6c-2.5-5.7-4.6-11.4-4.7-17.7c-0.1-3.1-0.7-6-3.3-8.3c-3.2,1-3.8,3.7-3.7,6.1
		c0.1,4.3,0.4,8.8,1.5,12.9c3,11.3,8.8,21.3,16.7,30c4.4,4.8,9.9,8.1,16.7,10.3c-0.9,1.3-1.4,2.3-2.1,3.2c-3,4-3.7,8.9-5,13.6
		c-2.2,8.4-4.6,16.8-6.9,25.1c-0.3,1-0.8,1.8-1.4,3.1c-2.1,0-4.1,0.3-6.1-0.1c-12.6-2.4-25.1-5.2-37.3-9.1
		c-8.8-2.8-17.7-5.1-26.5-7.7c-7.1-2.1-14.2-4.4-21.3-6.6c-0.5-0.2-1-0.4-1.4-0.6c-15.6-7.7-31.8-14.3-45.5-25.5
		c-3.5-2.9-7.6-5.2-11.7-7.3c-7.5-3.8-13.6-9-19.2-15.2c-1.5-1.7-3.1-3.4-4.6-5.2c-1.2-3.8-0.8-7.6,0.1-11.4
		c3.3-12.7,6.2-25.4,10-37.9c2.7-8.9,4-18,6.2-27c4.8-19.4,9.5-38.9,14.2-58.3c3.1-13,6.2-25.9,9.4-38.9c0.3-1.2,0.9-2.3,1.5-4
		c1.6,0.4,3.2,0.5,4.4,1.3c10.5,6.2,22.2,7.5,33.9,8.9c15.8,2,31.6,4,47.4,5.7c6.9,0.8,13.8,1.1,20.7,1.6c3,0.2,6,0.1,9.7,0.9
		c-1.1,2.1-1.9,3.6-2.7,5.1c-3.6,6.5-7.4,12.9-10.8,19.5c-1.5,2.9-2.4,6.2-3.4,9.4c-0.8,2.6-0.8,5.1,1.6,7s4.9,0.9,7.2-0.3
		c1.8-0.9,3.5-2.1,5.1-3.4c2.8-2.2,5.5-4.6,8.2-7c7.6-7.2,15.2-14.5,22.8-21.8c0.3-0.3,0.9-0.4,1.9-0.7c-0.2,1.6-0.1,3.1-0.5,4.4
		c-4.5,16.2-5.8,32.8-6.2,49.5c-0.2,7.6,0.9,15.4,1.8,23c0.5,4.5,1.8,8.9,5.3,13.7c0.3-2,0.5-2.9,0.5-3.8
		c-0.1-5.1-0.2-10.3-0.3-15.4c-0.7-23.5,2-46.6,8-69.3c0.4-1.7,1.1-3.4,1.7-5.3c6.2-0.7,11.8,1.1,17.8,2.2c0.5,1.8,1.2,3.5,1.3,5.2
		c2.7,24,5.3,47.9,7.8,71.9c0.5,5.1,2,10.1,1.5,15.2c-0.1,0.7,0.5,1.4,0.8,2.1c0.8,1.4,2.9,1.5,3.8,0c0.4-0.6,0.9-1.3,1-2
		c0.2-1,0.3-2.1,0.1-3c-3-17.2-1.9-34.8-4.2-52.1c-1.3-10.2-2.2-20.4-3.2-30.6c-0.1-1.4-0.6-2.9,0.9-4.9c1.4,2.2,1.9,4.1,2.5,5.9
		c3.4,10.6,8.6,20.3,15,29.3c2.2,3.2,4.8,6,8.2,8c1.5,0.9,3.2,1.7,4.9,2.1c4.7,1.2,8.7-0.6,11-4.9c2-3.8,2.3-7.8,1.9-12
		c-0.6-6.2-2.4-12.1-4.9-17.7c-0.8-1.8-1.4-3.7-2.1-5.8c4.1-0.9,7.7-0.1,11.2,0.2c18.2,1.5,36.4,1.1,54.6,0.3
		c11.6-0.5,22.9-2.5,34.4-3.9c12-1.5,24-2.7,36-4c3.3-0.4,6.6-0.3,9.9,0.8c3.8,1.3,7.8,2.2,12,3.4c1.2,8.6,2.3,16.2,3.4,23.8
		c0.2,1.3,0.2,2.7,0.7,3.8c5.7,12,6.2,25.3,8.6,38.1c2.7,14.9,4.1,30,6.1,45c1.8,13.5,3.8,26.9,5.7,40.4c1.9,13.5,3.9,26.9,5.6,40.4
		c0.5,3.8,0.1,7.7,0.1,12.1c-5.3,3.2-10.5,7.1-16.5,10c-14.7,7.1-30.4,10.6-46,14.9c-1.5,0.4-3,0.8-4.5,0.9
		c-13.9,0.3-27.5,3.2-41.2,4.7c-11.5,1.3-23,2.1-34.5,2.4c-15.1,0.4-30.3,0.1-45.4,0.1c-8.8,0-17.3-2-26-2.9
		C268.7,334.1,268,332.7,267.7,331.3L267.7,331.3z M275.9,388.6c-1.2-14.9-5.2-29.1-5.5-44.2c3.7-1.2,7.4-0.4,11.2,0
		c3.8,0.4,7.6,1.1,11.4,1.1c17.2,0.1,34.4,0.2,51.6,0c4.6,0,9.2-0.7,13.8-1.1c1.3-0.1,2.6-0.4,3.8-0.3c9.8,0.3,19.3-1.6,29-3
		c7.6-1.1,15.3-1.5,22.9-2.3c3.1-0.3,6.2-0.5,9.1-1.3c11.1-3,22.3-6,33.2-9.6c8-2.7,15.7-6.1,22.8-10.8c1.6-1.1,3-2.9,5.3-2.1
		c0.4,0.5,0.9,0.8,0.9,1.2c0.7,4,1.3,8.1,1.9,12.1c0.4,2.8,1,5.5,1.5,8.3c1.2,6.8,2.5,13.6,3.5,20.4c0.4,2.7,0.1,5.6,0.1,8.2
		c-4.9,2.9-9.3,6-14.1,8.2c-4.6,2.1-9.6,3.4-14.5,4.9c-5.2,1.5-10.4,2.9-15.7,3.9c-4.5,0.9-9.1,1.1-13.7,1.7c-2,0.3-4,0.7-6,1.3
		c-9.2,2.5-18.3,4.8-27.8,5.8c-7.6,0.8-15.1,2.8-22.7,4c-3.5,0.6-7.1,0.9-10.7,1c-9.2,0.1-18.5,0.1-27.7,0.1
		c-7.2,0-14.4,0.3-21.5-1.3c-1.5-0.3-3.1-0.3-4.6-0.4C296.9,393.5,294.8,393.2,275.9,388.6L275.9,388.6z M496,408.1
		c-0.2,2.3,0.2,4.7-0.2,6.9c-0.5,2.8-1.5,5.4-2.2,7.7c-2.8,2.1-5.1,4-7.6,5.8c-3.1,2.2-6.3,4.2-10.3,4.9c-3.2,0.6-6.4,2-9.6,2.7
		c-8.2,2-16.4,3.9-24.7,5.7c-2.5,0.5-5.1,0.6-7.6,0.7c-34.4,0-68.7,0.1-103.1,0c-3,0-6.1-0.5-9.1-1.1c-5.8-1.2-11.5-2.4-17.1-4.1
		c-6.8-2.1-13.5-4.8-20-7.1c-2.3-5.4-3-9.8-3.1-14.5c-0.1-4-1.3-8-2-12.1c-0.2-1.2-0.4-2.4-0.7-4c7,0.2,13.7-1.1,20.2,1
		c0.5,0.2,1,0.2,1.5,0.2c10.5,0.7,20.9,1.6,31.4,1.9c9.2,0.3,18.5-0.1,27.7,0.1c11.4,0.3,22.5-0.9,33.5-3.3
		c6.7-1.5,13.8-1.6,20.4-3.4c15.1-4.1,30.7-5.3,45.9-8.9c4-0.9,7.9-2.1,11.8-3.2c5.4-1.5,10.8-3,15.3-6.8c1.7-1.4,3.9-2.5,6.3-2.2
		c0.4,0.4,1,0.7,1,1.1C494.6,386.7,496.8,397.3,496,408.1L496,408.1z"/>
	<path d="M284.1,287.2c-5.5-1.2-11-2.3-16.6-3.2c-2.2-0.4-4.5-0.1-7-0.1c0.2,2.9,1.6,4.2,3.6,5.1c6.4,2.7,13.1,4.6,20.1,4.4
		c1,0,1.9-0.5,2.8-0.8C286.9,288.7,286.4,287.7,284.1,287.2L284.1,287.2z"/>
	<path d="M271.7,264.6c3.8-3.9,6.2-8.7,8.7-13.5c0.9-1.8,2.2-3.7,0.4-5.6c-1.3-1.4-3.7-0.4-5.7,2.2c-0.3,0.4-0.6,0.8-0.9,1.3
		c-2.6,5-5.3,9.9-7.8,15c-0.5,1-0.4,2.4-0.5,3.6c0.4,0.3,0.8,0.6,1.2,0.8C268.7,267.1,270.4,266,271.7,264.6L271.7,264.6z"/>
	<path d="M178.8,253.4c-0.2,3.6,1.2,5.8,3.3,7.7c2.1,1.8,4.4,3.5,8.5,1.9C187.2,258.7,184.6,254.6,178.8,253.4L178.8,253.4z"/>
	<path d="M389.6,312.2c2.5-0.2,3.4-1.6,4-3.3c0.9-2.5,0.6-4.7-0.7-5.5c-1.2-0.8-3.1,0.7-4.1,3.3c-0.4,1.1-0.9,2.4-0.8,3.6
		C388.1,311,389.2,311.7,389.6,312.2L389.6,312.2z"/>
	<path d="M414.3,308.9c-0.9-1.2-1.8-2.3-3.6-4.6C410.6,309.9,410.6,309.9,414.3,308.9z"/>
	<path d="M91.2,64c0.5,2.6,3.2,3.5,5.3,1.8c1.6-1.2,3.4-2.5,0.8-4.8c-0.7-0.6-0.6-2.4-0.5-3.7c0.5-5.1,1.2-10.2,1.9-15.2
		c0.4-3,1.6-6,0-9c-3.4,0-3.5,0-4.1,2c-2.3,7.6-4.1,15.4-3.8,23.4C90.9,60.4,90.9,62.2,91.2,64L91.2,64z"/>
	<path d="M393.3,79.9c3.1-5.8,6.5-11.4,9.3-17.4c2.4-5.1,3.7-10.6,4.1-16.3c0.2-2.5,0.3-5.1-3.1-7.8c-0.8,2.6-1.5,4.2-1.7,5.9
		c-1,8.7-3.3,17.1-6.9,25.1c-1.3,2.8-2.3,5.7-3.2,8.6C391.5,78.7,391.6,79.9,393.3,79.9L393.3,79.9z"/>
	<path d="M337.9,95.9c3.2-8.8,7-17.2,5-27.1c-1.2,0.5-1.6,0.5-1.6,0.6c-2.2,8.3-4.6,16.5-5.3,25.1C336,94.9,337,95.3,337.9,95.9
		L337.9,95.9z"/>
	<path d="M237.7,54.2c1.2-12.3,1.1-12.9-1.8-15.9c-3.2,3.2-1.7,7.2-1.7,10.8C234.2,51.1,234.7,53.1,237.7,54.2L237.7,54.2z"/>
	<path d="M437.8,79.1c0.4,0.2,1.1,0.4,1.4,0.2c2.5-1.5,2.8-2.8,1.5-6.2c-2.5,1-3.1,3.1-3.3,5.4C437.4,78.7,437.6,79,437.8,79.1
		L437.8,79.1z"/>
	<path d="M115.9,65.4c0.6,0.4,1.7-0.2,3.5-0.5c-1.7-1.6-2.7-2.6-3.8-3.6C114.4,63,114.4,64.5,115.9,65.4z"/>
	<path d="M424,79.2c0.9,0.2,2-0.9,1.8-1.9c-0.1-0.3-0.6-0.6-1.3-1.2c-0.4,1-0.7,1.8-1,2.6C423.5,78.8,423.8,79.1,424,79.2L424,79.2z
		"/>
</g>
</svg>
