<?xml version="1.0" encoding="utf-8"?>
<!-- Generator: Adobe Illustrator 26.0.0, SVG Export Plug-In . SVG Version: 6.00 Build 0)  -->
<svg version="1.1" id="katman_1" xmlns="http://www.w3.org/2000/svg" xmlns:xlink="http://www.w3.org/1999/xlink" x="0px" y="0px"
	 viewBox="0 0 560 485.3" style="enable-background:new 0 0 560 485.3;" xml:space="preserve">
<g>
	<path d="M357.8,485c-16.8,0-34.2-1.1-52.6-3.9l-4.5-0.6L280,379.1L259.3,481l-4.5,0.6C106.4,502.3,6.7,428.4,2.8,425L0,422.8v-3.3
		c2.2-170.8,92.4-339.4,93.5-341l1.7-3.4h369.6l1.7,3.4c1.1,1.7,91.3,170.2,93.5,341v3.4l-2.8,2.2C553.8,427.9,477.1,485,357.8,485
		L357.8,485z M311.9,469.3c127.7,16.2,218.4-41.4,235.2-52.6c-2.8-152.9-77.3-304.1-90.1-328.2H103
		c-12.3,24.1-86.8,174.7-89.6,327.6c16.2,11.2,107.5,68.9,235.2,52.6L280,313.1L311.9,469.3z"/>
	<path d="M460.9,87.9c-3.4,0-6.7-2.8-6.7-6.7V12.9H105.8v68.3c0,3.4-2.8,6.7-6.7,6.7c-3.4,0-6.7-2.8-6.7-6.7V0H467v81.8
		C467,85.1,464.2,87.9,460.9,87.9L460.9,87.9z"/>
	<path d="M56.6,454.2c-3.9,0-6.7-3.4-6.7-6.7c0.6-9,10.6-211.7,87.4-333.2c1.7-2.8,6.2-3.9,9-2.2s3.9,6.2,2.2,9
		C74,239.8,63.9,445.9,63.4,448.1C63.3,451.4,60.5,454.2,56.6,454.2L56.6,454.2z"/>
	<path d="M503.4,454.2c-3.4,0-6.2-2.8-6.7-6.2c0-2.2-10.6-207.8-85.1-327c-1.7-2.8-1.1-7.3,2.2-9c2.8-1.7,7.3-1.1,9,2.2
		c76.7,121.6,86.8,324.3,87.4,333.3C510.2,450.8,507.4,454.2,503.4,454.2C504,454.2,503.4,454.2,503.4,454.2L503.4,454.2z"/>
</g>
</svg>
