<?xml version="1.0" encoding="utf-8"?>
<!-- Generator: Adobe Illustrator 26.0.0, SVG Export Plug-In . SVG Version: 6.00 Build 0)  -->
<svg version="1.1" id="katman_1" xmlns="http://www.w3.org/2000/svg" xmlns:xlink="http://www.w3.org/1999/xlink" x="0px" y="0px"
	 viewBox="0 0 672.1 560.1" style="enable-background:new 0 0 672.1 560.1;" xml:space="preserve">
<style type="text/css">
	.st0{fill-rule:evenodd;clip-rule:evenodd;}
</style>
<g>
	<path class="st0" d="M179.2,459.3c-15.6,0-35.8-0.9-59.4-2.5c-12.4-0.8-25.5-1.9-39-3.1c-14-1.2-27.8-2.5-40.6-3.8
		c-4.5-0.5-8.6-0.9-12.1-1.3c-2.1-0.2-3.6-0.4-4.4-0.5l-1.2-0.1H11.2C5,448.1,0,453.1,0,459.3v78.4c0,5.8,4.4,10.6,10.1,11.1
		c0.9,0.1,2.6,0.3,5,0.5c4,0.4,8.5,0.8,13.5,1.3c14.3,1.3,29.4,2.6,44.8,3.9c12.7,1,25,1.9,36.7,2.7c28.2,1.9,51.8,2.9,69.2,2.9
		c12,0,25.5-0.5,40.3-1.4c15.6-1,32.1-2.4,49.1-4.2c11.7-1.2,23-2.6,33.3-3.9c3.6-0.5,6.9-0.9,9.7-1.3c1.7-0.2,2.9-0.4,3.6-0.5
		c5.5-0.8,9.6-5.5,9.6-11.1v-78.4c0-6.2-5-11.2-11.2-11.2h-11.2l-1.8,0.2c-2,0.3-5.9,0.9-11.2,1.7c-8.9,1.3-18.6,2.6-28.9,3.8
		c-19.8,2.3-39.2,4.1-57.4,4.9C194.7,459.1,186.7,459.3,179.2,459.3L179.2,459.3z M302.4,527.9c-1.1,0.1-2.2,0.3-3.3,0.4
		c-10.2,1.3-21.3,2.6-32.8,3.8c-16.7,1.8-32.9,3.2-48.2,4.1c-14.3,0.9-27.3,1.4-38.8,1.4c-16.8,0-39.9-1-67.7-2.9
		c-11.6-0.8-23.8-1.7-36.4-2.7c-15.3-1.2-30.3-2.5-44.5-3.8c-2.9-0.3-5.6-0.5-8.2-0.8v-57c0.8,0.1,1.9,0.2,3.3,0.4
		c3.6,0.4,7.7,0.8,12.2,1.3c13,1.3,26.8,2.6,40.9,3.9c13.6,1.2,26.9,2.2,39.4,3.1c24.1,1.6,44.7,2.6,60.9,2.6c7.9,0,16.2-0.2,25-0.6
		c18.7-0.9,38.6-2.7,58.9-5c10.5-1.2,20.5-2.6,29.5-3.9c3.2-0.5,6-0.9,8.5-1.3c0.5-0.1,0.9-0.1,1.3-0.2V527.9z"/>
	<path class="st0" d="M375.3,358.5c-1.7,4.8-3.5,10.3-5.3,16.5c-7.3,25.5-11.6,53.8-11.6,84.3c0,5.5,4,10.1,9.4,11
		c0.6,0.1,1.6,0.3,3.1,0.5c2.5,0.4,5.3,0.8,8.5,1.3c9.1,1.3,19,2.7,29.5,3.9c20.3,2.4,40.2,4.2,58.9,5c8.7,0.4,17.1,0.6,25,0.6
		c16.2,0,36.8-0.9,60.9-2.6c12.6-0.9,25.8-1.9,39.4-3.1c14.1-1.2,28-2.5,40.9-3.9c4.5-0.5,8.6-0.9,12.2-1.3c2.2-0.2,3.7-0.4,4.5-0.5
		c5.3-0.6,9.4-4.8,9.9-10.1c0.1-0.8,0.2-2.4,0.4-4.7c0.3-3.8,0.7-8.3,1.1-13.3c1.2-14.3,2.4-30.4,3.5-47.8
		c3.7-58.6,5.6-117.7,4.9-173C669.2,120.4,659,45.5,637,5.8c-2-3.6-5.7-5.8-9.8-5.8c-5.9,0-20.7,1.7-48.5,5.3
		c-14,1.8-74.2,10-85.9,11.6c-6.4,0.9-12.5,1.7-18.3,2.4c-71.2,9.3-117,14.3-138.4,14.3S269,28.7,197.7,19.3
		c-5.9-0.8-11.9-1.6-18.3-2.4c-11.8-1.6-71.9-9.7-85.9-11.6c-28-3.6-42.8-5.2-48.7-5.2c-4.1,0-7.8,2.2-9.8,5.7
		C13,45.5,2.8,120.4,1.4,221.5c-0.8,55.3,1.2,114.4,4.9,173c1.1,17.4,2.3,33.5,3.5,47.8c0.4,5,0.8,9.5,1.1,13.3
		c0.2,2.3,0.4,3.9,0.4,4.7c0.5,5.3,4.6,9.5,9.9,10.1c0.8,0.1,2.3,0.3,4.5,0.5c3.6,0.4,7.7,0.8,12.2,1.3c13,1.3,26.8,2.6,40.9,3.9
		c13.6,1.2,26.9,2.2,39.4,3.1c24.1,1.6,44.7,2.6,60.9,2.6c7.9,0,16.2-0.2,25-0.6c18.7-0.9,38.6-2.7,58.9-5
		c10.5-1.2,20.5-2.6,29.5-3.9c3.2-0.5,6-0.9,8.5-1.3c1.5-0.2,2.5-0.4,3.1-0.5c5.4-0.9,9.4-5.6,9.4-11c0-30.5-4.4-58.8-11.6-84.3
		c-1.8-6.2-3.6-11.7-5.3-16.5h78.7V358.5z M648.2,221.8c0.8,54.6-1.2,113.2-4.8,171.3c-1.1,17.3-2.3,33.2-3.4,47.4
		c-0.3,3.1-0.5,6-0.7,8.6c-2.3,0.2-4.8,0.5-7.4,0.8c-12.9,1.3-26.6,2.6-40.6,3.8c-13.5,1.2-26.6,2.2-39,3.1
		c-23.6,1.6-43.8,2.5-59.4,2.5c-7.5,0-15.5-0.2-23.9-0.6c-18.1-0.9-37.6-2.6-57.4-4.9c-10.3-1.2-20-2.5-28.9-3.8
		c-0.8-24.9,3-47.9,9-68.8c2.3-8.2,4.8-15.5,7.3-21.7c1.5-3.6,2.6-6.1,3.1-7.2c3.7-7.4-1.7-16.2-10-16.2H280
		c-8.3,0-13.7,8.8-10,16.2c0.6,1.1,1.7,3.6,3.1,7.2c2.5,6.2,5,13.5,7.3,21.7c6,20.9,9.8,43.9,10.6,68.5c-10.5,1.5-20.3,2.8-30.6,4.1
		c-19.8,2.3-39.2,4.1-57.4,4.9c-8.4,0.4-16.4,0.6-23.9,0.6c-15.6,0-35.8-0.9-59.4-2.5c-12.4-0.8-25.5-1.9-39-3.1
		c-14-1.2-27.8-2.5-40.6-3.8c-2.6-0.3-5.1-0.5-7.4-0.8c-0.2-2.6-0.5-5.5-0.7-8.6c-1.2-14.2-2.3-30.1-3.4-47.4
		c-3.7-58-5.6-116.7-4.8-171.3c1.2-92,10.1-161.7,27.6-198.9c7.5,0.7,20.5,2.3,39,4.7c14,1.8,74.1,10,85.9,11.5
		c6.4,0.9,12.5,1.7,18.4,2.4c72.4,9.6,118.5,14.6,141.3,14.6s68.8-5,141.3-14.5c5.9-0.8,12-1.6,18.4-2.4
		c11.8-1.6,71.9-9.7,85.9-11.5c18.5-2.4,31.5-4,39-4.7C638.1,60.1,646.9,129.8,648.2,221.8L648.2,221.8z"/>
	<path class="st0" d="M649.6,527.5c-2.6,0.2-5.3,0.5-8.2,0.8c-14.2,1.3-29.2,2.6-44.5,3.8c-12.6,1-24.8,1.9-36.4,2.7
		c-27.8,1.9-50.9,2.9-67.7,2.9c-11.5,0-24.5-0.5-38.8-1.4c-15.3-1-31.5-2.4-48.2-4.1c-11.6-1.2-22.6-2.5-32.8-3.8
		c-1.2-0.1-2.3-0.3-3.3-0.4v-57.3c0.4,0.1,0.8,0.1,1.3,0.2c2.5,0.4,5.3,0.8,8.5,1.3c9.1,1.3,19,2.7,29.5,3.9
		c20.3,2.4,40.2,4.2,58.9,5c8.7,0.4,17.1,0.6,25,0.6c16.2,0,36.8-0.9,60.9-2.6c12.6-0.9,25.8-1.9,39.4-3.1c14.1-1.2,28-2.5,40.9-3.9
		c4.5-0.5,8.6-0.9,12.2-1.3c1.3-0.1,2.4-0.3,3.3-0.4V527.5z M492.8,459.3c-7.5,0-15.5-0.2-23.9-0.6c-18.1-0.9-37.6-2.6-57.4-4.9
		c-10.3-1.2-20-2.5-28.9-3.8c-5.3-0.8-9.1-1.4-11.2-1.7l-1.8-0.2h-11.2c-6.2,0-11.2,5-11.2,11.2v78.4c0,5.6,4.1,10.3,9.6,11.1
		c0.6,0.1,1.8,0.3,3.6,0.5c2.8,0.4,6.1,0.8,9.7,1.3c10.4,1.3,21.6,2.6,33.3,3.9c17,1.8,33.5,3.2,49.1,4.2
		c14.7,0.9,28.2,1.4,40.3,1.4c17.4,0,41-1,69.2-2.9c11.7-0.8,24-1.7,36.7-2.7c15.4-1.2,30.5-2.5,44.8-3.9c5-0.5,9.5-0.9,13.5-1.3
		c2.4-0.2,4.1-0.4,5-0.5c5.7-0.6,10.1-5.4,10.1-11.1v-78.4c0-6.2-5-11.2-11.2-11.2h-11.2l-1.2,0.1c-0.8,0.1-2.3,0.2-4.4,0.5
		c-3.6,0.4-7.6,0.8-12.1,1.3c-12.9,1.3-26.6,2.6-40.6,3.8c-13.5,1.2-26.6,2.2-39,3.1C528.6,458.4,508.4,459.3,492.8,459.3
		L492.8,459.3z"/>
	<path class="st0" d="M627.2,0.1c-5.9,0-20.7,1.7-48.5,5.3c-14,1.8-74.2,10-85.9,11.6c-6.4,0.9-12.5,1.7-18.3,2.4
		c-71.2,9.3-117,14.3-138.4,14.3S269,28.8,197.7,19.4c-5.9-0.8-11.9-1.6-18.3-2.4c-11.8-1.6-71.9-9.7-85.9-11.6
		c-28-3.7-42.8-5.3-48.7-5.3c-4.1,0-7.8,2.2-9.8,5.7c-9.3,16.8-16.4,39.8-21.8,68.7c-1.2,6.2,3.1,12.2,9.4,13.1
		c109.2,15.9,273.2,35.5,313.4,35.5s204.2-19.6,313.4-35.5c6.3-0.9,10.6-6.9,9.4-13.1c-5.3-28.9-12.5-51.9-21.8-68.7
		C635,2.3,631.3,0.1,627.2,0.1L627.2,0.1z M634.4,67.1C526.8,82.5,373.3,100.7,336,100.7S145.2,82.5,37.5,67.1
		c3.9-17.9,8.5-32.7,13.9-44.2c7.5,0.7,20.4,2.3,39,4.7c14,1.8,74.1,10,85.9,11.5c6.4,0.9,12.5,1.7,18.4,2.4
		c72.4,9.6,118.5,14.6,141.3,14.6s68.8-5,141.3-14.5c5.9-0.8,12-1.6,18.4-2.4c11.8-1.6,71.9-9.7,85.9-11.5c18.5-2.4,31.4-4,39-4.7
		C626,34.4,630.6,49.2,634.4,67.1L634.4,67.1z"/>
	<path class="st0" d="M283.8,336.7c-14.1-5.1-31.7-17.9-39.2-29.2c-3.4-5.2-10.4-6.6-15.5-3.2c-5.2,3.4-6.6,10.4-3.2,15.5
		c10.3,15.7,31.9,31.3,50.4,38c5.8,2.1,12.2-0.9,14.3-6.8C292.6,345.2,289.6,338.8,283.8,336.7L283.8,336.7z"/>
	<path class="st0" d="M395.8,357.8c18.5-6.6,40-22.3,50.4-38c3.4-5.2,2-12.1-3.2-15.5s-12.1-2-15.5,3.2
		c-7.5,11.4-25.1,24.2-39.2,29.2c-5.8,2.1-8.8,8.5-6.8,14.3C383.6,356.9,390,359.9,395.8,357.8L395.8,357.8z"/>
	<path class="st0" d="M13.3,74.5C3.6,127.2,0.1,197.9,1.5,280.2c0.1,6.1,5.1,11.1,11.3,11c92.1-0.8,166.4-75.6,166.4-167.7V95.6
		c0-5.7-4.2-10.4-9.8-11.1C117.5,78.1,61.3,70.6,25.9,65.4C20,64.6,14.4,68.6,13.3,74.5L13.3,74.5z M156.8,105.5v18
		c0,76.1-58.5,138.5-133,144.8c-0.8-70.6,2.1-131.9,9.7-179.1C66.6,93.9,112.7,100,156.8,105.5L156.8,105.5z"/>
	<path class="st0" d="M648.2,268.3c-74.6-6.3-133-68.7-133-144.8v-18c44.1-5.5,90.2-11.6,123.3-16.3
		C646.1,136.4,649.1,197.7,648.2,268.3L648.2,268.3z M658.7,74.5c-1.1-5.9-6.7-9.9-12.6-9.1c-35.4,5.2-91.6,12.6-143.5,19
		c-5.6,0.7-9.8,5.5-9.8,11.1v27.9c0,92.1,74.3,167,166.4,167.7c6.1,0.1,11.2-4.9,11.3-11C671.9,197.9,668.4,127.2,658.7,74.5
		L658.7,74.5z"/>
	<path class="st0" d="M324.8,112.1v235.2c0,6.2,5,11.2,11.2,11.2s11.2-5,11.2-11.2V112.1c0-6.2-5-11.2-11.2-11.2
		S324.8,105.9,324.8,112.1z"/>
	<path class="st0" d="M257.6,168.1c0,43.3,35.1,78.4,78.4,78.4c6.2,0,11.2-5,11.2-11.2V111.9c0-6.2-5-11.2-11.2-11.2
		c-11.9,0-34.7-1.7-66.1-4.8c-6.6-0.7-12.3,4.5-12.3,11.1V168.1z M324.8,122.8v100.1c-25.6-5.2-44.8-27.8-44.8-54.9v-48.7
		C298.6,121.1,313.6,122.3,324.8,122.8L324.8,122.8z"/>
</g>
</svg>
