<svg xmlns="http://www.w3.org/2000/svg" viewBox="0 0 363.28 363.18"><g id="katman_2" data-name="katman 2"><g id="katman_1-2" data-name="katman 1"><path d="M181.12,209.93l-13,63.43q-8.65,42.19-17.33,84.38c-.94,4.6-3.14,6-7.83,5.15l-137-25.36c-4.91-.91-6.4-2.74-5.77-7.78q4.53-36.25,9.2-72.49,5.09-39.78,10.18-79.55c3.61-28.37,6.9-56.79,10.85-85.12,3.92-28,7.07-56,5.88-84.37C36,1.26,37.48,0,44.53,0H318.74c7,0,8.28,1.26,8.29,8.26,0,7.51.26,15,0,22.51-.78,18.62,2.84,36.83,5,55.16,3.32,27.79,7,55.52,10.52,83.28a9.22,9.22,0,0,1-.12,1.49l-9.94,1.35c-5.1-40.09-10.17-79.92-15.27-120H214.58c0,1.87,0,3.81,0,5.75.23,14.87.4,29.74.79,44.61a41.12,41.12,0,0,0,1.55,9.58c1.47,5.43,4,6.61,9.2,4.73,1.52-.54,3-1.26,4.73-2,1.7,2.93,3.35,5.8,5,8.65-13.67,9.1-25.75,5-29-9.29-1.63-7.24-2.07-14.83-2.37-22.28-.44-11.12-.26-22.25-.39-33.38,0-2.09-.24-4.18-.38-6.39H158.9c0,5.27.11,10.36,0,15.45-.36,13.73-.7,27.47-1.33,41.19a29.4,29.4,0,0,1-2.31,9c-3.3,8.4-9.68,11.83-18.48,9.9-3.19-.71-6.23-2.13-9.79-3.38l5.33-9.27c1.58.68,3,1.36,4.47,1.92,5.41,2.06,8.28,1,9.52-4.65a91.19,91.19,0,0,0,2.15-17.41c.3-14.12.09-28.24.09-42.66H46Q30.73,172.28,15.35,292.92l132.32,27.7c2.33-11.21,4.62-22.06,6.85-32.91q11-53.56,22-107.13c.59-2.89,2.08-4.94,5.2-4.93s4.65,2.1,5.29,5.21q14.13,69,28.41,137.92c.1.47.25.94.55,2l132.14-27.65c-4.31-33.52-8.59-66.79-12.93-100.53l10.34-1.34c1.17,9.11,2.31,17.89,3.43,26.67q5.47,42.93,11,85.86c1.09,8.55,2.24,17.1,3.24,25.66.67,5.69-.52,7.15-6.09,8.18L221.11,362.87c-5.54,1-7.64-.37-8.75-5.79q-14.94-72.63-29.9-145.26c-.14-.67-.35-1.32-.53-2ZM161.64,41.22h40.2c-1.21-5.63-3.87-9.59-9.6-10.52V20.13c3.44,1.09,6.64,1.63,9.37,3.06,7.17,3.76,9.13,11.08,11.22,17.9h103.5V10.65H46.85V41.21H150.4c4.93-15.15,11.2-21.24,20.79-20v9.37C164.86,32.66,162.57,35.27,161.64,41.22Zm-16,289.59L14,303.26c-1,8.5-2,16.48-3,24.64L141.21,352C142.69,344.89,144.08,338.18,145.61,330.81Zm76.63,21.25,130.32-24.17c-1.09-8.32-2.11-16.16-3.19-24.4L217.91,331Z"/></g></g></svg>