<svg xmlns="http://www.w3.org/2000/svg" viewBox="0 0 384 321.32"><g id="katman_2" data-name="katman 2"><g id="katman_1-2" data-name="katman 1"><path d="M0,286,5.22,259.2c.26-1.35.47-2.71.75-4,.83-4,3.32-5.91,6.79-5.25,3.29.62,5,3.54,4.22,7.52Q14.34,272,11.66,286.53c-1.19,6.41,1.58,10.1,8,10.75q58.17,5.88,116.33,11.8c3.35.34,6.71.72,10.08.92,5.82.34,8.53-1.6,10-7.25q9.74-36.35,19.39-72.71c3.12-11.7,6.37-23.37,9.26-35.12a60.76,60.76,0,0,0,1.53-12.55c.24-7.74,0-15.5.09-23.25,0-4.52,2.07-6.87,5.65-6.84s6,2.44,5.5,6.92c-2.5,25,4.71,48.43,11.19,72,6.38,23.22,12.43,46.54,18.62,69.82,2.09,7.86,4.48,9.64,12.54,8.83q46.42-4.68,92.83-9.44,15.86-1.62,31.7-3.17c6.23-.61,9.1-4.36,8-10.46q-15.62-85.68-31.23-171.35a54.75,54.75,0,0,0-11.56-25.27c-4.74-5.81-9.65-11.49-14.2-17.44-1.81-2.36-3.38-2.88-6.22-2C292.79,76,276.31,81,259.85,86c-.83.26-1.66.54-2.5.77-4.09,1.14-7.19-.27-8.11-3.68-.85-3.12,1.06-5.9,5-7.11q25.57-7.91,51.15-15.76c.71-.22,1.4-.48,2.61-.9C305,47.63,302.08,36,299.07,24c-12.1,2.72-23.92,5.22-35.66,8-26.06,6.26-52.23,11.19-79.25,10.17-20.36-.77-40.13-4.79-59.85-9.39-12.39-2.9-24.83-5.61-37.25-8.4-.59-.13-1.21-.14-2.16-.25C82,35.85,79,47.41,76,59.39L100.43,67l29.7,9.13c2.76.85,5,2.57,4.64,5.5a8.19,8.19,0,0,1-3.44,5.16c-1.25.79-3.64.3-5.35-.22Q100.56,78.83,75.2,70.85c-2.89-.92-4.7-.76-6.59,1.89a112.14,112.14,0,0,1-9.49,11.6c-10.45,11-15.4,24.34-17.92,39.18-5.93,35-12.53,69.79-18.87,104.68-.09.49-.23,1-.35,1.46-.94,3.9-3.63,6-6.86,5.21s-4.78-3.5-4.1-7.28q3.08-17.33,6.25-34.65,7.44-40.71,14.94-81.41a62.2,62.2,0,0,1,13-27.89c5.64-7,11.44-13.89,17.06-20.92a12.48,12.48,0,0,0,2.3-4.57c3.5-13.4,7-26.81,10.24-40.28.87-3.6,2.69-5.88,6.24-6.57C95,8.57,108.9,5.16,123,3.43,154.41-.43,186.06-.3,217.69.36c6,.12,8.82,2.13,8.67,5.95s-3,5.4-9.06,5.25a764.61,764.61,0,0,0-100.71,3.72c-3.18.34-6.34,1-8.75,1.33,55.83,18.87,112.37,18.88,168.59,0L251.9,13.71c-1.74-.2-3.5-.26-5.22-.55-3.58-.62-5.5-3-5.17-6.15s2.83-5.2,6.38-4.91C254,2.6,260.13,3,266.15,4c11.79,2,23.52,4.46,35.27,6.74,4.7.91,7.08,3.7,8.17,8.46,3,12.89,6.34,25.69,9.69,38.48a15,15,0,0,0,2.62,5.24c3.52,4.54,7,9.13,10.94,13.32,12.32,13.18,18.24,28.93,21.29,46.56,8.69,50.32,18.14,100.5,27.32,150.74.76,4.16,1.69,8.28,2.55,12.43v6.75c-3,10.23-9.78,15.08-20.45,16-23.52,2.05-47,4.72-70.47,7.1-18,1.83-36,3.78-54.08,5.33-11.64,1-19.16-4.59-22.13-15.74q-11.7-44-23.37-87.93c-.36-1.34-.78-2.66-1.17-4a8.93,8.93,0,0,0-1.75,3.63Q179,260.57,167.45,304c-3.61,13.55-11.21,18.64-25.09,17.08-11.17-1.26-22.36-2.36-33.54-3.49-29.21-3-58.4-6.15-87.64-8.72-10.88-1-18.12-5.47-21.18-16.1Z"/><path d="M319.53,285.36c-11.11.5-18.86-6.08-20-15.92-1-9,5.53-17.4,15-18.85,6.29-1,12.63-1.71,19-2.09,10-.6,18.14,6.29,19,15.72.85,9.62-5.58,17.77-15.49,19.24C330.8,284.37,324.56,284.82,319.53,285.36Zm.55-11.36,14.26-1.53c4.42-.48,7.13-3.15,6.91-6.79-.24-3.79-3.45-6.28-8-5.92-5.09.41-10.16,1-15.24,1.59-4.76.52-7.51,3.16-7.28,6.9C311,272.23,314.06,274.37,320.08,274Z"/><path d="M173.24,72l-4.49,25.77q-4.84,27.64-9.7,55.28c-.7,3.93-3.42,6-6.71,5.38s-5-3.59-4.32-7.51Q155,111.1,162,71.3c.72-4.09,3.11-6.22,6.41-5.8C171.34,65.87,173.33,68.36,173.24,72Z"/><path d="M234.14,152.36c0,3.59-2.11,5.93-5.13,6.13-3.24.22-5.52-1.84-6.12-5.75-1.34-8.63-2.59-17.28-3.88-25.91q-3.91-26.1-7.84-52.2c-.1-.62-.26-1.23-.33-1.85-.45-4,1.37-6.8,4.69-7.27s5.85,1.74,6.47,5.72q1.84,11.83,3.63,23.68,4.11,27.21,8.19,54.41C234,150.44,234.06,151.56,234.14,152.36Z"/></g></g></svg>