<svg xmlns="http://www.w3.org/2000/svg" viewBox="0 0 509.94 451.03"><g id="katman_2" data-name="katman 2"><g id="katman_1-2" data-name="katman 1"><path d="M0,186.29c2.62-10.22,5.38-20.4,7.82-30.66Q18.1,112.34,28.09,69a63.46,63.46,0,0,0,1.58-13.24c.19-14.77.07-29.55.07-44.32C29.75,1.94,31.66,0,41,0H469.81c8.33,0,10.5,2.21,10.52,10.66,0,9.13.29,18.27-.06,27.39-.62,15.69.62,31.1,5.06,46.23,1.7,5.78-.58,9.84-5.35,10.9-4.43,1-7.81-1.67-9.27-7.44-1.14-4.49-2-9.07-3.36-13.5-.35-1.18-2-2.81-3.06-2.82-22.39-.16-44.78-.12-68.08-.12.66,3.77,1,7.14,1.84,10.39,4.94,19.52,15.8,35.64,29.38,50.08a200.15,200.15,0,0,0,59.25,43.06c1.3.62,2.66,1.1,4.91,2-2.08-9-3.95-17.2-5.87-25.37-2.39-10.17-4.85-20.31-7.22-30.48-1.38-5.94.58-10,5.24-11.16,4.49-1.11,8.07,1.75,9.49,7.74q8.13,34.36,16.16,68.74a17.54,17.54,0,0,1,.51,5.39q-4.08,47.11-8.28,94.22-4.26,48.09-8.49,96.19-2.06,23.3-4.05,46.61c-.39,4.65-3,7.29-7.37,8.14-21.46,4.11-42.79,9.47-64.45,11.95-46.13,5.27-91.74.88-136.55-11.41-7.7-2.11-8.63-3.25-9.77-11.05Q263.47,375.69,255.86,325a18.05,18.05,0,0,0-1.16-2.53c-1.29,8.26-2.45,15.3-3.5,22.36Q245,386.42,239,428c-.73,5.13-3.32,7.83-8.29,9.17q-101,27.4-202-.13c-5-1.37-7.36-4.18-7.81-9.44-4.11-47.78-8.4-95.54-12.61-143.3Q4.52,242.17.91,200A46.39,46.39,0,0,0,0,195.25ZM229.66,385.14c.29-1.25.47-1.89.57-2.53q8.43-56.34,16.85-112.69c.93-6.27,3.25-9.05,7.88-9.08s7.09,2.73,8,9c1.3,9,2.67,18,4,27.07q6.18,41.58,12.41,83.16c.37,2.46.14,5.14,4.12,5.55,17,1.75,33.9,4.52,50.92,5.68,46.19,3.13,92.21.88,138.06-5.54,4.59-.64,5.47-2.43,5.8-6.54,2.34-28.44,5-56.86,7.45-85.29,2.79-31.58,5.51-63.15,8.4-94.72.3-3.35-.65-4.82-3.85-6.18-30.24-12.79-56.64-31.1-78.35-55.84-15.37-17.5-26.78-37.12-30.25-60.55-.62-4.2-1.88-5.45-6.12-5.42-27.06.2-54.12.1-81.18.11-1.74,0-3.48.17-5.5.28v6c0,28.05.1,56.11,0,84.17-.1,19.28-14.6,34.65-33.35,35.4-8.62.35-17.26.18-25.9.08-5-.06-8.24-3.1-8.35-7.37-.12-4.45,3.28-7.57,8.53-7.63,7-.08,13.94,0,20.91,0,15.1,0,23.1-8,23.11-23q0-41.1,0-82.18V71.87a14.07,14.07,0,0,0-2.21-.5q-69.48-.06-138.95-.12c-2.84,0-3.69,1.21-4,3.77-1.9,15.43-7.55,29.53-15.91,42.49-22.62,35.06-54.65,58.73-92.39,75.23-3.49,1.53-4.75,3-4.39,6.82,1.9,20,3.57,40,5.34,60,3.54,40.17,7.13,80.33,10.54,120.51.31,3.61,1.26,5.19,5.12,5.58,13.21,1.31,26.38,3,39.54,4.62,5.12.65,7.7,3.79,7.28,8.27-.4,4.32-3.87,7.08-8.83,6.72-4.63-.33-9.25-.88-13.86-1.41-9-1-17.92-2.1-27.3-3.21.56,6.49,1.31,12.41,1.49,18.35.11,3.58,1.82,4.65,4.93,5.43a371.43,371.43,0,0,0,62.26,10.22A360.59,360.59,0,0,0,220.86,424c1.35-.35,3.24-1.62,3.46-2.74,1.27-6.59,2.13-13.27,3.18-20.29-2.42.24-4.05.31-5.65.57-37.53,6-75.31,6.92-113.2,5.81-6.12-.18-9.62-3.05-9.57-7.77s3.52-7.51,9.74-7.33c29.89.84,59.75.51,89.51-2.86C208.84,388.21,219.31,386.56,229.66,385.14Zm-116-313.28a10.67,10.67,0,0,0-2-.5c-21.73,0-43.47,0-65.21-.15-3.75,0-3.82,2.37-4.37,4.7q-11.41,48.38-22.74,96.77a47.63,47.63,0,0,0-.46,5.12c10.85-6.35,20.86-11.53,30.16-17.77,22.86-15.36,42.52-33.93,55.47-58.7A78.57,78.57,0,0,0,113.69,71.86Zm168.91,329c.91,6.6,1.88,12.61,2.52,18.65.32,3,2,4.09,4.63,4.76a366.07,366.07,0,0,0,77.63,11.24,358.27,358.27,0,0,0,102.54-11.14c1.57-.41,4.07-1.45,4.21-2.47,1-7,1.5-14,2.17-21.32C411.47,409.58,347.38,410.93,282.6,400.81Zm141.6-345V15.47H321.66V55.76ZM85.84,55.64h99.64V15.36H85.84Zm220-40.23H201.5V55.69H305.85ZM70.11,55.75V15.43H45.23V55.75Zm369.76,0H465V15.41H439.87Z"/><path d="M282.81,43a7.33,7.33,0,0,1-7.39-7.65,7.52,7.52,0,0,1,15,.21A7.43,7.43,0,0,1,282.81,43Z"/></g></g></svg>