<svg xmlns="http://www.w3.org/2000/svg" viewBox="0 0 272.8 164.23"><g id="katman_2" data-name="katman 2"><g id="katman_1-2" data-name="katman 1"><path d="M0,137.05q1.34-9.2,2.66-18.39c4.8-33.27,9.83-66.5,18.17-99.12C22.19,14.22,24,9,25.63,3.78,26.48,1,28.2,0,31.18,0Q136.41.14,241.62.1c3.61,0,4.48.66,5.74,4.24a276.18,276.18,0,0,1,11.56,46.4c4.83,28.86,9.21,57.79,13.76,86.7.55,3.52-.72,5.17-4.49,5.84q-23.06,4.09-46.12,8.11Q185.5,157.72,148.92,164c-3.72.64-4.7.23-6.47-3-1.94-3.55-3.85-7.12-6-11.15-2.17,4-4.08,7.57-6,11.11-1.78,3.27-2.78,3.7-6.46,3.06L20.41,146.05c-5.25-.9-10.52-1.66-15.7-2.85-1.71-.39-3.15-1.94-4.71-3Zm8.23-1.28L32.36,140q44.82,7.8,89.62,15.64a2.53,2.53,0,0,0,3.12-1.6c2-3.87,4.17-7.63,6.1-11.52a10.49,10.49,0,0,0,1.17-4.51q.1-44.34,0-88.68c0-.93-.1-1.86-.14-2.74a9.14,9.14,0,0,0-1.08-.2c-17.55-.85-35.1-1.67-52.65-2.58-1.69-.09-2.29.49-2.74,2a33,33,0,0,1-11.25,17c-10.13,7.92-21.9,9-34.11,7.84-3.92-.37-7.81-1.2-12.11-1.88C15,91.17,11.61,113.33,8.23,135.77ZM157.77,46.11V49.2c0,15.63.07,31.26,0,46.89-.07,10.42-5.25,16.38-15.47,18-1.54.24-1.89.88-1.87,2.24a111.3,111.3,0,0,1-.06,12A34,34,0,0,0,146,150.94c3.17,4.86,2.83,5,8.69,4q43.63-7.64,87.29-15.19l22.62-4c-3.39-22.46-6.74-44.68-10.11-67-1.26.2-1.94.34-2.63.41-6.78.61-13.59,1.93-20.34,1.69-16.47-.6-29.4-8.49-34.57-25.27a2.11,2.11,0,0,0-2.65-1.76c-4.24.42-8.48.8-12.73,1.06C173.79,45.31,166,45.68,157.77,46.11ZM51.29,8.14c26.83,10.77,148,10.73,170.17,0ZM25.59,33.06,20,60.69c10.61,2.56,20.92,3.72,31.21.38,8.89-2.89,14.45-9.14,17.17-18.32C53.83,40.64,39.47,38.51,25.59,33.06Zm178.88,9.69c2.58,8.22,7.2,14.14,14.9,17.42,7.24,3.08,14.81,3.33,22.46,2.53,3.64-.38,7.24-1.21,11.11-1.87-2-9.52-3.82-18.57-5.71-27.77C233.3,38.51,219,40.64,204.47,42.75ZM27.48,25.2c17.72,7,36,9,54.52,11,.52-4.83,1-9.38,1.52-14.09-17.7-2.21-35.21-4.3-51.72-11.95C30.35,15.2,29,20,27.48,25.2Zm163.38,11c18.67-2,37-4,54.5-11-1.5-5.2-2.92-10.08-4.36-15.06-16.63,7.75-34.19,9.72-51.7,12C189.83,26.9,190.33,31.38,190.86,36.17ZM90,37l42.47,1.47c0-4.15-.12-7.78,0-11.4.1-2.17-.57-2.89-2.8-2.92-8.51-.11-17-.38-25.53-.68-4.13-.14-8.27-.47-12.61-.72C91,27.51,90.5,32,90,37Zm50.64,1.48L182.88,37c-.55-5-1-9.49-1.54-14l-40.75,1.51Zm0,8V106c6-.22,9.11-3.33,9.14-9.28.07-16.15,0-32.31,0-48.46a18.1,18.1,0,0,0-.17-1.86Z"/></g></g></svg>