<?xml version="1.0" encoding="utf-8"?>
<!-- Generator: Adobe Illustrator 26.0.0, SVG Export Plug-In . SVG Version: 6.00 Build 0)  -->
<svg version="1.1" id="katman_1" xmlns="http://www.w3.org/2000/svg" xmlns:xlink="http://www.w3.org/1999/xlink" x="0px" y="0px"
	 viewBox="0 0 408.9 340.5" style="enable-background:new 0 0 408.9 340.5;" xml:space="preserve">
<g id="katman_2_00000054241507101490147420000002140104203866801812_">
	<g id="katman_1-2">
		<path d="M408.9,277.3v51.9c-2.1,3.5-5.3,4.7-9.3,4.9c-9.6,0.6-19.1,1.6-28.6,2.5c-35.8,3.1-71.6,5.8-107.6,2.2
			c-15.1-1.5-30.2-3.1-45.2-4.9c-4.4-0.5-6.7-2.8-6.8-7c-0.1-15.8-0.2-31.7,0.1-47.5c0-2.1,2.2-4.9,4.1-6.1s2.6-2.1,2.8-4.1
			c0.8-7.8,1.4-15.6,2.8-23.3c1.7-9.2,4.2-18.3,6.4-27.5h-46.9c1.3,4.3,2.9,8.2,3.6,12.2c2.2,12.8,4.1,25.7,6.2,38.5
			c0.2,1.3,1,3.2,2,3.6c3.6,1.5,5.1,4,5.1,7.7c0,15.2,0.1,30.3,0,45.5c0,5.2-2.3,7.4-7.4,8.1c-5.4,0.7-10.8,1.6-16.2,2
			c-23.1,1.6-46.2,4.6-69.2,4.2c-32.5-0.7-64.8-4-97.2-6.2c-5.2-0.4-7.5-3-7.5-8.4c0-14.2,0.1-28.5-0.1-42.7c-0.1-5,0.9-9,5.7-10.4
			c-1.4-28.6-3.2-56.7-4.2-84.9C0,143.3,0.2,99.2,6.5,55.3c2.4-16.7,6.1-33.2,13.2-48.7c2.2-4.9,5.4-7.1,10.9-6.4
			c15.2,2,30.4,3.7,45.5,5.6c28.2,3.6,56.4,7.5,84.7,10.7c15.8,1.8,31.8,3.4,47.7,3.4c14.3,0,28.6-2.1,42.9-3.8
			c28.1-3.4,56.2-7.1,84.3-10.7c14.8-1.8,29.6-3.5,44.4-5.3c4.1-0.5,7,1.2,8.5,5c2.6,6.7,5.6,13.2,7.6,20.1
			c5.9,20,8.3,40.6,9.9,61.3c3.5,45.3,2.5,90.7,0.1,136c-0.9,16.6-2,33.2-3,49L408.9,277.3z M389.5,273.2
			c1.7-32.2,3.5-64.1,5.2-95.5c-62.9-11.6-94.1-48.9-95.3-111.7l-87.6,9v129.4c5.7,0,11-0.5,16.2,0.1c9.3,1,16.5-3,23.2-8.5
			c3.1-2.7,6-5.6,8.7-8.7c3.4-3.7,6.9-4.3,10.1-1.8s3.3,6.6,0.2,10.6c-6.3,8.2-14.3,14.2-23.4,18.9c-1.4,0.7-3.2,1.8-3.8,3.2
			c-6.6,17-10.5,34.6-10,52.9c0.3,1.4,1.2,2.5,2.5,3c18,1.8,36,4.3,54,4.8c18.6,0.5,37.2-0.7,55.8-1.7
			C359.8,276.3,374.2,274.6,389.5,273.2L389.5,273.2z M156.7,71.1l-47-5.3c-1.4,63.2-32.7,100.5-95.4,111.9
			c1.7,31.5,3.4,63.4,5.2,95c38.4,7.9,142.2,7.8,157.5,0c-0.6-16.9-3.7-33.6-9.2-49.5c-1.6-4.5-3.6-7.9-8.2-9.8
			c-3.3-1.4-6.3-3.4-9-5.8c-4.5-3.9-8.7-8.2-12.6-12.6c-2.3-2.7-2-6.8,0.7-9.1c0.1-0.1,0.1-0.1,0.2-0.2c2.8-2.4,6.4-2.2,9.3,0.6
			c1.3,1.3,2.4,2.9,3.7,4.2c5.7,6.1,12.2,12,20.3,13.5s16.6,0.3,25,0.3c0.2-0.6,0.4-1.2,0.5-1.8c0-16.9,0.1-33.8-0.1-50.7
			c0-1-1.5-2.6-2.6-3c-5-2.1-10.5-3.3-15-6.1c-16-9.8-23.2-24.6-23.2-43.2C156.8,90.2,156.7,80.9,156.7,71.1z M22.5,40.6
			c21.5,2.8,42.1,5.7,62.6,8.2c24,3,48,6,72.1,8.5c16.5,1.7,33.2,4,49.7,3.3c27-1.2,54-4.4,81-7.4c24.4-2.7,48.8-6.1,73.2-9.2
			c8.2-1.1,16.5-2.2,25.4-3.4L378.2,14c-0.9,0-1.7,0-2.6,0c-35.5,4.6-70.9,9.3-106.4,13.7c-18.7,2.3-37.5,5.1-56.3,5.6
			c-16.7,0.5-33.5-1.2-50.1-3c-26.4-2.8-52.8-6.5-79.1-9.9c-16.6-2.1-33.2-4.4-49.8-6.4c-1-0.1-2.9,0.8-3.2,1.7
			C27.8,23.8,25.3,31.9,22.5,40.6z M14.5,162.8c48.1-3.4,86.5-47.6,80.3-98.8l-74.3-9.8C15,90.6,14.3,126.6,14.5,162.8z M313.8,64.1
			c-4.6,62.9,43.7,97.4,80.7,98.5c0.2-36.1-0.5-72.2-6-108.4L313.8,64.1z M183.8,285.8c-56.8,11.2-113.3,6.6-169.9,0.3v34.6
			c56.7,6,113.2,9.8,169.9,0V285.8z M225.2,320.6c56.9,9.9,113.3,6,169.8,0v-34.5c-56.7,6.4-113.1,11-169.8-0.3V320.6z M197.3,135
			V74.6l-26.2-1.9c0,12.3-1,24.2,0.2,35.9C172.7,121.9,184.8,133.3,197.3,135z"/>
	</g>
</g>
</svg>
