<svg xmlns="http://www.w3.org/2000/svg" viewBox="0 0 384 269.48"><g id="katman_2" data-name="katman 2"><g id="katman_1-2" data-name="katman 1"><path d="M0,178.15c4.49-12.94,9-25.86,13.45-38.83Q35.56,74.3,57.59,9.25c2.74-8,6.7-10.2,15.09-8.82,21,3.45,42.05,7.39,63.22,9.94a507.55,507.55,0,0,0,101,1.6A520.73,520.73,0,0,0,311.64.53c7.76-1.77,12.09.82,14.65,8.36q28.09,82.76,56.17,165.51c.44,1.27,1,2.5,1.54,3.75v5.25c-1.9,3.69-5,5.89-8.65,7.78q-72.83,38.06-145.57,76.28c-6,3.13-7.29,2.83-11.35-2.38s-8.4-10.56-12.38-16a7.66,7.66,0,0,0-7.28-3.47c-4.74.23-9.5.21-14.24,0a6.82,6.82,0,0,0-6.29,3.15c-3.73,5-7.6,9.91-11.48,14.81-4,5.07-8.43,6-14.19,3Q79.46,228.27,6.42,189.81c-2.55-1.35-4.3-4.24-6.42-6.41Zm20-22.93c1.65.92,3,1.74,4.44,2.49l127.65,67.83c5.31,2.82,7,5.7,5.22,9.11s-5.15,3.78-10.43,1L20.28,168.29c-1.25-.67-2.53-1.27-4-2-1.27,3.7-2.19,7-3.51,10-1.19,2.75-.49,4,2.17,5.41Q85,218.29,154.94,255c.95.5,2,.88,3,1.35,4.24-5.43,8.32-10.64,12.38-15.86A15.1,15.1,0,0,1,183,234.34c1.09,0,2.18-.12,3.45-.2V164.47c-1.23-.09-2.33-.21-3.42-.24-8-.16-10.4-2.66-10.41-10.73q0-14.62,0-29.25c0-7.38-.1-14.76,0-22.13.09-4.87,4.16-7.61,8.1-5.69,2.8,1.37,3.19,3.85,3.18,6.63,0,15.12,0,30.25,0,45.37v4.47c4.4,0,8.37,0,12.33,0,7.9,0,10.24-2.37,10.25-10.31q0-38.25,0-76.5c0-1.33-.11-2.66-.17-4h-22.4v8.5c0,2.75.07,5.51-.06,8.25-.16,3.36-2.29,5.5-5.33,5.61a5.55,5.55,0,0,1-5.83-5.18,37.26,37.26,0,0,1-.09-4.49c0-4.44,0-8.87,0-13.24-10.73-.77-20.83-1.32-30.89-2.26S121.45,57,111,55.81c0,2.2,0,4,0,5.9-.29,24.21-18.52,44.16-42.63,46-9.58.73-19.24.42-28.86.34-2.75,0-3.9.9-4.72,3.47-3,9.38-6.24,18.69-9.4,28C23.59,144.75,21.84,149.92,20,155.22ZM279,55.79l-61.18,6.12v4.28q0,33,0,66c0,4.87.13,9.76-.19,14.61a18.56,18.56,0,0,1-13.86,16.76c-1.79.47-3.66.62-5.59.93v70c8.79-1.32,14,3.47,18.5,9.86,2.92,4.17,6.23,8.06,9.41,12.12,1.2-.57,2.11-1,3-1.41Q274,231.52,319,208c16.8-8.81,33.62-17.61,50.36-26.53,1.1-.58,2.53-2.41,2.31-3.29-.95-3.83-2.45-7.52-3.85-11.56-1.38.66-2.49,1.15-3.56,1.72l-107.8,57.28c-7.06,3.74-14.09,7.54-21.19,11.19-3.38,1.73-6.55.79-8.09-2.09s-.5-5.89,2.83-7.83c.75-.44,1.53-.84,2.3-1.25q64.14-34.11,128.27-68.23c1.17-.62,2.3-1.32,3.49-2-5.17-15.26-10.17-30.15-15.36-45a4.24,4.24,0,0,0-3.19-2.12c-6-.21-12,.35-18-.22a120.83,120.83,0,0,1-18.66-3.43,5.29,5.29,0,0,1-3.57-7.7c1.41-3,4.33-4,8.33-2.47,9.81,3.74,19.93,1.75,30.57,2.38L326.8,45.58l-35.57,7.75c-1.26,11.67.1,18.09,5.87,28.16,1.91,3.32,1.42,6.41-1.32,8.23a5.5,5.5,0,0,1-8-2.08c-2.45-4.45-5.05-9-6.31-13.88C279.93,67.92,279.76,61.73,279,55.79ZM57.17,45.66,40,96.29c10.41,0,20.39,1,30.06-.22,18.71-2.45,32.79-20.41,29-42Zm100.24-21.6c-1.73,8.12-3.47,16.26-5.28,24.72a522.35,522.35,0,0,0,83.72,0c-1.65-7.69-3.32-15-4.72-22.3-.44-2.27-1.37-2.7-3.52-2.6-10.23.47-20.47,1-30.71,1C183.92,24.91,171,24.38,157.41,24.06Zm-36.2-3.5-52.5-8.94c-2.57,7.6-5.1,15.11-7.92,23.46L116,45.28C117.85,36.38,119.52,28.49,121.21,20.56ZM272,45.3,323.23,35c-2.69-7.88-5-14.86-7.52-21.74-.27-.74-2.1-1.47-3-1.3-5.64,1-11.21,2.4-16.84,3.43-9.53,1.75-19.1,3.32-29.08,5C268.43,28.42,270.1,36.3,272,45.3ZM146.07,22.92l-13.44-1.33c-1.78,8.29-3.52,16.36-5.33,24.79l13.43,1.39ZM247.24,47.87l13.42-1.55c-1.84-8.55-3.55-16.51-5.31-24.68l-13.42,1.41C243.73,31.44,245.42,39.33,247.24,47.87Z"/><path d="M195.21,43.94a7.29,7.29,0,1,1,7.34-7.34A7.22,7.22,0,0,1,195.21,43.94Z"/></g></g></svg>