<svg xmlns="http://www.w3.org/2000/svg" viewBox="0 0 510.04 374.02"><g id="katman_2" data-name="katman 2"><g id="katman_1-2" data-name="katman 1"><path d="M0,217.31c.67-8.74,1.26-17.49,2-26.22,3.38-39.57,8.21-78.94,22-116.46a77.43,77.43,0,0,0,5.12-29.92c-.37-11.44-.11-22.91-.07-34.37C29.1,2.67,31.6.15,39.2.15q52.05,0,104.1,0c6.44,0,10,3.54,9.18,8.85-.65,4.14-3.64,6.19-9.31,6.19q-46.08,0-92.14,0H44.67V55.79H206.39V15.21c-9.82,0-19.41.06-29-.05-1.93,0-4.6,0-5.6-1.17-1.77-2-3.72-5.14-3.35-7.43s3.26-4.48,5.49-6.1c1.12-.81,3.22-.31,4.88-.31H469.69C478.87.15,481,2.29,481,11.7c0,15.44,0,30.88,0,46.32a14.8,14.8,0,0,0,.88,5.8c9.87,22.16,14.95,45.65,19,69.36a617.89,617.89,0,0,1,8.94,120.47c-.81,31.93-4.14,63.53-14.61,94-2.22,6.44-5.8,10.06-12.32,12.12-43.28,13.64-87.42,17.8-132.25,11-17.61-2.67-34.83-8-52.24-12-4.65-1.08-7.21-4-9.18-8.21C278.63,327.76,267.79,305,257,282.24c-.48-1-1-2-2-3.82-1.18,2.33-2.06,4-2.87,5.7-10.63,22.48-21.14,45-32,67.37a14.1,14.1,0,0,1-7.22,6.7C151.13,379,89.17,379,27,359.78c-6.56-2-10-5.77-12.25-12.17C6.36,323.06,2.75,297.7,1,272c-.21-3-.65-5.89-1-8.84ZM458.67,71.89c1.54,5.56,3.26,11.06,4.6,16.65,13.81,58,17.8,117,16.84,176.38-.09,5.35-3.15,8.59-7.67,8.55-4.73,0-7.49-3.31-7.37-9.2a763.81,763.81,0,0,0-6.84-120.15c-3.15-22.85-7.23-45.5-14.11-67.59-1.3-4.17-3.26-5.45-7.69-5.44q-181.51.21-363,0c-4.5,0-6.3,1.54-7.6,5.62-6.88,21.57-10.92,43.74-13.88,66.1C45.28,193.12,42.39,243.64,47,294.27c1.66,18.09,5.62,36,8.81,53.91.31,1.71,2.46,4.09,4.12,4.43,47.88,9.88,95.25,8.09,142-6.58a10.44,10.44,0,0,0,7.09-6c12.55-26.89,25.3-53.68,37.92-80.52,1.64-3.47,3.44-6.52,7.82-6.61,4.62-.09,6.53,3.06,8.25,6.71,12.62,26.85,25.35,53.64,37.94,80.51a10,10,0,0,0,6.65,5.87c46.77,14.63,94.12,16.55,142.08,6.95,3.05-.61,4.19-2.07,4.65-4.8,2.88-17,5.9-33.93,8.66-50.93.93-5.77,3.55-8.78,8.32-8.43s7.32,3.79,6.71,9.69q-1.44,13.85-3.52,27.62c-1.07,7.1-2.61,14.12-4,21.38,9.7-2.3,9.74-2.29,12.4-11,8.72-28.52,11.16-57.91,11.77-87.5a598.3,598.3,0,0,0-6.88-101.2c-3.55-23.62-8-47.08-16.46-69.54C468.42,70.27,467.87,70,458.67,71.89Zm-155-56.42V55.81H465.4V15.47Zm-253,56.06c-9.25-.92-9.46-1-12.39,7.53-2.74,8-5.41,16-7.36,24.22a580.75,580.75,0,0,0-14.73,167.9c1.27,22.87,4.37,45.54,11.62,67.44,2.24,6.78,4.27,8.18,10.94,8.16C22.71,254.27,28.51,162.72,50.67,71.53ZM222.2,55.75h65.46V15.53H222.2Z"/></g></g></svg>