<?xml version="1.0" encoding="utf-8"?>
<!-- Generator: Adobe Illustrator 26.0.0, SVG Export Plug-In . SVG Version: 6.00 Build 0)  -->
<svg version="1.1" id="katman_1" xmlns="http://www.w3.org/2000/svg" xmlns:xlink="http://www.w3.org/1999/xlink" x="0px" y="0px"
	 viewBox="0 0 560.1 560.1" style="enable-background:new 0 0 560.1 560.1;" xml:space="preserve">
<style type="text/css">
	.st0{fill-rule:evenodd;clip-rule:evenodd;}
</style>
<g>
	<path class="st0" d="M363.9,289.3c0,5.2-4.2,9.3-9.3,9.3s-9.3-4.2-9.3-9.3s4.2-9.3,9.3-9.3S363.9,284.2,363.9,289.3"/>
	<path class="st0" d="M363.9,373.3c0,5.2-4.2,9.3-9.3,9.3s-9.3-4.2-9.3-9.3s4.2-9.3,9.3-9.3S363.9,368.2,363.9,373.3"/>
	<path class="st0" d="M510.5,512.3l29.1-8.3c14.6-4.2,23.2-19.3,19.4-34l-5.9-21.4c-1.4-5-6.6-7.9-11.6-6.5l-64.8,18.5
		c-4.9,1.4-7.8,6.5-6.5,11.4l5.3,20.1C479.4,507.4,495.2,516.6,510.5,512.3L510.5,512.3z M537.6,462.6l3.4,12.2
		c1.2,4.8-1.6,9.8-6.5,11.2l-29.1,8.3c-5.1,1.5-10.4-1.6-11.6-6.8v-0.2l-3-11.4L537.6,462.6z"/>
	<path class="st0" d="M6.7,448.7l-5.8,21.1c-3.9,14.8,4.7,29.9,19.4,34.1l29.1,8.3c15.3,4.4,31.1-4.8,34.9-20.3l5.3-19.9
		c1.3-4.9-1.6-10-6.5-11.4l-64.8-18.5C13.2,440.7,8.1,443.7,6.7,448.7L6.7,448.7z M69.1,476.1l-3,11.2c-1.3,5.3-6.6,8.4-11.7,6.9
		l-29-8.2c-4.9-1.4-7.8-6.4-6.5-11.3l3.3-11.9L69.1,476.1z"/>
	<path class="st0" d="M341.3,17.9c-5.5-11-16.7-17.9-29-17.9h-64.7c-12.3,0-23.5,7-29,18l-2.2,4.5c-0.5,0.5-1.2,1.2-2.6,2.6
		c-3.7,3.7-5.6,5.6-8.4,8.4l-14.3,14.3c-63.5,19.4-88,37.6-88.4,53.7L0.9,469.8c-3.9,14.8,4.7,30,19.4,34.1l29.1,8.3
		c15.3,4.4,31.1-4.8,34.9-20.3L130.7,315v198.2c0,25.8,20.9,46.7,46.7,46.7h205.3c25.8,0,46.7-20.9,46.7-46.7v-196L475.8,492
		c3.7,15.2,19.6,24.5,34.8,20.1l29.1-8.3c14.6-4.2,23.3-19.3,19.4-34L457.3,101.5c-0.3-16.1-24.7-34.4-88.4-53.8l-25.3-25.3
		L341.3,17.9z M438.6,101.7c0-0.4,0-0.4,0.1-0.8c-0.1,0.5-0.2,1-0.2,1.6C438.6,102.3,438.6,102,438.6,101.7z M438.9,105.1L541,474.7
		c1.3,4.8-1.6,9.8-6.5,11.2l-29.1,8.3c-5.1,1.5-10.4-1.6-11.6-6.8l-64.9-244c-2.8-10.6-18.4-8.5-18.4,2.4v267.6
		c0,15.5-12.5,28-28,28H177.3c-15.5,0-28-12.5-28-28V242.7c0-10.9-15.6-13-18.4-2.4L66.1,487.4c-1.3,5.3-6.6,8.4-11.7,6.9l-29-8.3
		c-4.9-1.4-7.8-6.4-6.5-11.3L120,108.4c1.3-1.9,2-4.3,1.8-6.6c1.1-1.6,3-3.8,6.2-6.3c11.8-9.3,34.5-19.7,70.6-30.6
		c1.5-0.4,2.8-1.2,3.9-2.3l16-16c2.8-2.8,4.7-4.7,8.4-8.4l3.7-3.7c0.7-0.7,1.3-1.5,1.8-2.4l2.9-5.9c2.3-4.7,7.1-7.6,12.3-7.6h64.7
		c5.2,0,10,2.9,12.3,7.6l2.9,5.9c0.4,0.9,1,1.7,1.8,2.4l28,28c1.1,1.1,2.4,1.9,3.9,2.3c36.1,10.9,58.8,21.3,70.6,30.6
		c3.7,2.9,5.7,5.3,6.6,7C438.6,103.4,438.7,104.3,438.9,105.1L438.9,105.1z"/>
	<path class="st0" d="M0.9,469.8c-0.4,1.9-0.4,1.9-0.3,2.6c0,1.2,0.2,2.4,0.7,3.5c3.1,7.5,6.3,14.8,9.8,21.8
		c0.9,1.8,2.3,3.3,4.1,4.2c1.6,0.8,3.3,1.5,5.1,2l29.1,8.3c15.3,4.4,31.1-4.8,34.9-20.3L130.7,315v198.2c0,25.8,20.9,46.7,46.7,46.7
		h16.2c3.3,0,6.3-1.7,8-4.5c31.3-51.6,50.3-136.4,50.3-228.7c0-123.2-33.7-230.8-83.8-266.9c-2.6-1.8-5.9-2.3-8.8-1.1
		c-40.1,15.5-56.2,30.1-56.7,42.8L0.9,469.8z M233.2,326.7c0,86.5-17.2,165.8-45.1,214.7h-10.9c-15.5,0-28-12.5-28-28V242.7
		c0-10.9-15.6-12.9-18.4-2.4L66,487.4c-1.3,5.3-6.6,8.4-11.7,6.9L26,486.2c-2.3-4.8-4.4-9.6-6.5-14.5l100.3-363.3
		c1.3-1.9,2-4.3,1.8-6.6c0.6-0.9,1.5-2,2.8-3.3c6.2-6.1,17.9-13.1,36.5-20.6C203.1,112.8,233.2,212.4,233.2,326.7L233.2,326.7z"/>
	<path class="st0" d="M195.9,46.7c0,20.6,16.7,37.3,37.3,37.3c5.2,0,9.3-4.2,9.3-9.3s-4.2-9.3-9.3-9.3c-10.3,0-18.7-8.3-18.7-18.7
		c0-5.2-4.2-9.3-9.3-9.3C200.1,37.3,195.9,41.5,195.9,46.7L195.9,46.7z"/>
	<path class="st0" d="M345.2,46.7c0,10.3-8.3,18.7-18.7,18.7c-5.2,0-9.3,4.2-9.3,9.3s4.2,9.3,9.3,9.3c20.6,0,37.3-16.7,37.3-37.3
		c0-5.2-4.2-9.3-9.3-9.3C349.4,37.3,345.2,41.5,345.2,46.7L345.2,46.7z"/>
	<path class="st0" d="M455.5,94.9c-5.1-10.5-18.9-21.1-44.9-32.2c-3.4-1.5-6.6-2.8-10-4.1c-2.9-1.1-6.3-0.7-8.8,1.1
		c-50.2,36.1-83.9,143.8-83.9,267c0,92.3,19,177.1,50.5,228.9c1.7,2.8,4.7,4.5,8,4.5h16.2c25.8,0,46.7-20.9,46.7-46.7v-196
		l46.4,174.8c3.7,15.3,19.6,24.5,34.9,20.1l29.1-8.3c14.6-4.2,23.3-19.3,19.4-34L457.2,101.2C457,98.9,456.4,96.9,455.5,94.9
		L455.5,94.9z M402.9,79.7c-0.3-0.1-0.3-0.1-0.8-0.4L402.9,79.7L402.9,79.7z M534.5,486l-29.1,8.3c-5.1,1.5-10.4-1.6-11.6-6.8
		l-64.9-244.1c-2.8-10.6-18.4-8.5-18.4,2.4v267.6c0,15.5-12.5,28-28,28h-10.9c-27.9-48.9-45.1-128.2-45.1-214.7
		c0-114.2,30.1-213.9,72.1-248.7c1.4,0.6,2.8,1.1,4.1,1.7c22.3,9.5,32.9,17.5,35.6,22.9c0,0.1,8.5-3.9,8.5-3.9h-9.3
		c0,1.4,0.3,2.7,0.9,3.9c0.5-2.7,0.5-2.7,0.5-2.6c-0.2,0.6-0.2,0.6-0.4,2.4c0,1.2,0.1,2,0.3,2.8l102,369.5
		C542.2,479.6,539.3,484.6,534.5,486L534.5,486z"/>
</g>
</svg>
